<svg width="994" height="994" viewBox="0 0 994 994" fill="none" xmlns="http://www.w3.org/2000/svg">
<path d="M622.735 737.232L622.887 737.322L622.832 737.486L622.941 737.517L623.136 737.474L623.46 737.517L623.687 737.681L624.292 737.915L624.554 738.052L624.796 738.06L624.948 737.552L624.725 737.419L624.561 737.278L624.358 737.368L623.979 737.27L623.725 737.196L623.584 737.212L623.381 737.036L623.182 737.067L622.963 737.028V737.133H622.733V737.232" fill="black"/>
<path d="M106.168 957.08L105.586 962.338L105 970.522L109.285 970.131L111.82 962.924L118.633 957.858L117.473 952.792L106.168 957.08Z" fill="black"/>
<path d="M667.844 739.236L667.649 739.662L667.368 739.908L667.122 739.916L666.79 740.15H666.47L666.2 740.13L666.122 740.064H665.86L665.805 739.966L665.539 739.993L665.144 739.614L664.546 739.555L664.191 739.282L663.98 739.11L663.39 739.208L663.167 739.067L662.886 738.989L662.499 739.048L662.089 739.068L661.624 739.088L661.323 739.119L661.135 739.674L661.112 739.975L660.979 740.413L660.987 740.706V740.96L660.964 741.116L664.843 741.952L664.964 741.604L665.269 741.702L665.292 741.632L665.878 741.78L666.405 741.995L666.624 742.042L667.065 742.05L667.26 741.691L667.365 741.418L667.553 741.32L667.741 741.312L668.081 741.285L668.39 741.301L668.367 741.41L668.082 741.371L667.902 741.398L667.789 741.593L667.726 741.984L667.757 742.453L667.859 742.586L668.043 742.637L668.469 742.735L668.617 742.122L668.812 742.142L668.804 742.415L668.87 742.645L668.925 742.891L669.113 742.95L669.121 742.833L669.562 742.853L669.601 742.619L669.941 742.611L669.871 742.99L670.144 743.056L670.246 742.697L670.492 742.728L670.429 743.244L671.003 743.303L670.987 743.494L671.331 743.537L671.569 743.623L671.546 743.779L671.577 744.021L671.741 744.119L671.995 744.205L672.444 744.369L672.374 744.564L672.608 744.72L672.866 744.759H673.175L673.429 744.724L673.894 744.849L673.867 745.451L673.781 745.455L673.773 745.908H673.867V746.178L671.461 746.194V746.409L673.633 746.429V746.566L673.719 746.644L673.934 746.703L673.895 746.965L673.934 747.074L674.09 747.14L674.074 747.386L674.371 747.734L671.469 747.746V747.941L674.485 747.91L674.829 747.93L674.88 748.504L675.153 748.547L675.239 748.645L675.469 748.809L675.633 748.868L675.594 749.059L675.453 749.45L675.508 749.657L675.68 749.774L675.875 749.86L675.672 750.93L675.375 751.106L675.027 750.622L674.586 750.122L674.02 749.536L673.508 749.247L673.153 749.181H672.852L672.5 749.247L671.988 749.477L671.492 749.926L671.398 749.992L671.128 750.215L670.788 750.469L670.444 750.586L670.128 750.703H669.835L669.499 750.664L669.214 750.535L669.003 750.433L668.362 749.906L667.796 749.441L666.663 748.816L666.003 748.457L665.585 748.32L665.089 748.359L664.71 748.504L664.136 748.719L663.995 748.692L663.878 748.391V748.137L664.026 747.852L664.143 747.676V747.559L664.041 747.528L663.947 747.676L663.779 747.707L663.685 747.93L663.497 747.934L663.395 747.754L662.922 747.402L662.481 746.761L662.356 746.382L662.157 746.109L661.825 746.011L661.598 746.031L661.575 746.324L661.434 746.539L661.321 746.828L660.923 746.992L660.661 747.008L660.497 746.945L660.298 746.898L660.157 746.859L659.825 746.957L659.591 747.387L659.388 747.864L658.794 748.028L658.606 747.989L658.512 747.872L658.481 748.009L658.473 748.107L658.442 748.177L657.817 748.333L657.196 748.302L656.86 748.204L656.755 748.02L656.692 747.891L656.575 747.754L656.458 747.715H656.298L656.103 747.641L656.212 747.543L656.204 747.453H656.04L655.931 747.363L655.755 747.238L655.747 747.113L655.684 746.957L655.45 746.762L655.149 747.098L654.899 747.293L654.708 747.606L654.442 747.731L653.762 748.024L652.817 748.172L652.337 748.082L651.653 747.859L650.969 747.64L650.266 747.304L649.715 746.781L649.266 746.168L649.219 745.711L649.297 745.231L649.387 744.891L649.297 744.571L649.289 744.258L649.234 744.035L648.968 743.93L648.62 743.996L648.464 744.074L648.124 744.043L647.921 743.906L647.831 743.734V743.39L647.667 743.07L647.386 742.562L647.296 742.523L647.093 742.601L646.905 742.542L646.792 742.39L646.8 742.23L646.769 741.98L646.621 741.726L646.457 741.706V741.558L646.219 741.374L646 741.343V741.171L645.746 740.995L645.551 740.878L645.363 740.808L645.304 740.906L645.132 740.722L645.171 740.495L644.983 740.409L644.792 740.323L644.644 740.253L644.55 740.105L644.249 739.96L644.132 740.011L643.976 739.933L643.898 739.96L643.722 739.815L643.488 740.03L643.172 740.26L643.016 740.533L642.395 740.775L641.754 741.002L640.441 741.334H639.761L638.906 741.119L638.34 740.826L638.125 740.224L638.109 739.736L638.046 739.248L637.558 738.603L637.324 737.689L637.101 737.22L636.96 737.025L636.784 736.951L636.518 737.338L636.323 737.631L635.225 737.854H634.541H634.201L634.006 737.436L633.385 737.213L632.983 736.951L632.713 736.783L632.424 736.756L632.022 736.326L631.827 736.17L631.597 736.072L631.324 736.236H631.164H630.898L630.675 736.119L630.55 735.947L630.14 736.002L629.945 735.779L629.73 735.634L629.472 735.517L629.265 735.439L629.117 735.419L628.89 735.36L628.73 735.294L628.535 735.388L628.332 735.536L628.117 735.817L627.527 735.973L626.945 736.043L626.355 736.285L625.953 736.332L625.637 736.496L625.442 736.691L625.251 737.015L625.29 737.277L625.638 737.336L626.197 737.145H626.717L626.971 737.18L627.686 737.336L628.213 737.258L628.436 737.336L628.854 737.258H629.268L629.831 738.059L630.065 739.207L630.096 740.199V741.137L629.893 742.051L629.772 742.356L629.639 742.555L629.475 742.817L628.854 742.762L628.584 742.664L628.291 742.762L628.049 742.793L627.803 742.93H627.412L627.041 742.539L626.779 742.305L626.631 742.129L626.299 742.082L625.869 742.305H625.615L625.072 742.325L624.607 742.423H624.341H624.056L623.892 742.696L623.747 742.919L623.962 743.259L624.04 743.505L623.829 743.728L623.63 743.669L623.489 743.794L623.473 744.04L622.993 744.575L622.188 745.188L621.653 745.645L620.63 746.239L619.868 746.63L619.364 746.903L618.466 747.051L617.236 747.078L617.009 747.058L616.474 746.609L616.165 746.543L615.962 747.231L616.017 747.544L615.771 748.056L615.521 748.267L615.189 748.638L615.205 749.076L615.287 749.416L615.545 749.596L615.838 749.498L616.166 749.596L616.326 749.729L616.396 750.002L616.427 750.568L616.259 750.955L615.962 751.443L615.677 751.802L615.482 752.025L615.326 752.291L614.994 752.193L614.892 752.42L614.931 752.748L615.693 753.1L615.986 753.393L616.166 753.413L616.135 753.851L615.901 754.484L615.624 754.847L615.206 755.37L615.089 755.311H614.894L614.609 755.526V755.897L614.703 756.108L614.312 756.401L614.05 756.628L613.823 756.499L613.585 756.366L613.468 756.432L613.484 756.948L613.679 757.163L612.335 758.944L611.655 759.862L611.167 760.569L610.815 761.253L610.483 761.886L610.311 762.421L610.065 762.667L609.838 762.843L609.506 763.007L609.26 763.3L609.334 763.566L610.213 763.836L610.678 764.129L611.166 764.375L611.127 765.238L611.002 765.98L610.607 766.761L610.412 767.284L610.096 767.944L609.608 768.483L608.932 769.096L608.205 769.682L607.978 769.975L607.072 770.362L607.174 770.995L607.444 771.19L608.049 771.725L608.885 772.241L609.08 772.378L609.861 772.358L610.318 772.768L611.197 772.924L612.576 772.799L613.166 772.662L613.838 771.56L614.065 770.927L614.67 770.361L615.986 769.533L616.963 768.849L617.443 768.615L617.814 768.494H618.615L619.49 768.658L620.213 768.986L621.467 769.795L621.74 769.873L622.56 769.435L623.072 768.724L623.74 767.759L624.119 767.536L624.56 767.489L625.173 767.438L625.853 767.458L626.474 767.36L627.236 767.126L627.435 766.903L627.939 766.93L628.716 766.953L629.236 767L630.599 766.773L631.15 766.656L631.892 766.773H632.646L633.615 766.609L633.814 766.757L633.877 766.609L634.979 765.781L636.299 764.652L636.963 764.418L638.033 765.41L639.342 765.566L640.537 765.421L641.537 765.175H641.83L642.6 766.499L643.065 767.651L643.049 768.936L642.893 769.815L642.678 771.01L642.405 771.721L642.018 772.737L641.885 772.87L641.6 772.878L641.276 772.995L641.206 773.151L641.104 773.28L641.01 773.397L641.057 773.592L640.963 773.795L640.861 774.057L640.853 774.311L641.126 774.409L641.189 774.518L641.451 774.487L641.607 774.421L641.74 774.761L641.803 775.191L641.709 775.421L641.49 775.679L641.381 775.851L641.088 776.007L640.9 776.163L640.923 776.366L641.009 776.514L640.962 776.623L640.837 776.639L640.732 776.651L640.654 776.608L640.388 776.823L640.04 776.991L639.7 776.905L639.356 776.846L639.133 776.815L638.914 776.823L638.73 777.011L638.683 777.429V777.792L638.66 778.015H638.519L638.355 778.14L638.425 778.218L638.316 778.773L638.132 779.3L637.882 779.808L637.652 780.195L637.379 780.422L637.164 780.742L636.976 781.101L636.746 781.296L636.496 781.655L636.266 781.991L636.078 782.397L636.023 782.885L636 783.42L635.914 783.928L635.754 784.412L635.465 784.959L635.164 785.369L634.812 785.795L634.48 786.197L634.093 786.662L633.613 786.955L633.187 787.033L632.992 786.994L632.738 787.053H632.472L632.304 787.065L631.921 787.182L631.612 787.151L631.479 787.053L631.006 786.975L630.682 786.85L630.217 786.569L629.619 786.276L629.424 786.1L629.076 785.944L628.896 785.905L628.744 785.913L628.611 785.886L628.509 785.788L628.329 785.683L628.083 785.273L627.911 785.058L627.817 784.851L627.712 784.777L627.61 784.785L627.555 784.91H627.297L627.152 784.922L627.035 784.981L626.949 785.106L626.879 785.176L626.262 785.196H625.887L625.5 785.262L625.199 785.496L624.816 785.555H624.453L623.996 785.438L623.719 785.313L623.406 785.372L623.105 785.47L622.886 785.575L622.741 785.567L622.639 785.508L622.467 785.672L622.119 786.035L621.947 786.18L621.748 786.188L621.6 786.2L621.584 786.649L621.357 787.075L620.748 788.188L620.435 788.575L620.048 789.024L619.771 789.317L619.365 789.684L618.924 789.825L618.83 789.645L618.662 789.473L618.474 789.414L618.15 789.473L617.755 789.266L617.38 789.356L617.079 789.473L616.962 789.551L616.86 789.645L616.481 789.774L616.141 789.891L615.645 789.922L615.45 789.899L614.876 789.266L614.79 789.161L614.806 788.583L614.677 788.458L614.497 788.567L614.267 788.672L613.994 788.68L613.748 788.575L613.279 788.391L613.373 788.09L613.396 787.785L613.294 787.484L613.11 788.136L613.008 788.449L612.914 788.859L612.613 789.089L611.574 789.374L610.851 789.616L610.48 789.55L610.316 789.519L610.402 789.304L610.293 789.23L610.356 789.035L609.985 788.613L609.86 788.508L609.938 788.68L609.875 788.778L609.73 788.821L609.558 788.731L609.574 789.016L609.605 789.141L609.558 789.219L609.41 789.18L609.25 789.082H609.141L609.25 789.375L609.402 789.609L609.566 789.726L609.82 789.871L609.754 790.191L609.559 790.582L609.172 791.07L608.883 791.3L608.766 791.437L608.797 791.789L608.723 791.926L608 792.649L607.527 793.243L607.195 793.563L606.859 793.532L606.574 793.497L606.187 793.583L605.929 794.052L606.062 794.275L606.21 794.47L606.124 795.251L606.261 795.403L606.308 795.63L606.339 795.833L606.456 796.067L606.644 796.165L606.984 796.341L607.277 796.361L607.488 796.302L607.707 796.193V795.845L607.883 795.103L608.172 794.724L608.574 794.536L609.125 794.497L609.953 794.528L610.613 794.579L611.086 794.587L611.504 794.634L611.828 794.751L612.148 794.774L612.519 794.711L612.82 794.566L613.164 794.378L613.566 794.28L613.789 794.319L614.449 794.682L615.101 795.217L615.41 795.647L615.613 795.948L616.062 796.155L616.589 796.456L616.89 796.671L617.124 796.866L617.308 797.069L617.472 797.167L617.796 797.245L618.179 797.167L618.534 797.03L618.788 796.835L619.218 796.483L619.394 796.444L619.652 796.456L619.882 796.347L620.132 796.191L620.116 795.941L619.999 795.863L619.929 795.722L619.921 795.57L620.038 795.48L620.866 795.453L621.093 795.328L621.218 795.25L621.581 795.258L621.976 795.363L622.441 795.722L623.195 796.691L623.582 797.32L623.754 797.574L623.977 797.82L624.133 798.093L624.188 798.308L624.133 798.472L623.883 798.382L623.797 798.511L623.899 798.57L624.243 798.734L624.559 800.039L624.684 800.867L624.676 801.043L624.488 801.063L624.371 801.008L624.34 801.172L624.434 801.473L624.371 801.618L624.301 801.61L624.156 801.774L624.172 801.969L624.18 802.106L624.086 802.243L624.055 802.157L623.899 802.27L623.938 802.34L623.883 802.567L623.86 802.665L623.755 802.712L623.716 802.642L623.614 802.751L623.497 802.7L623.481 802.602L623.379 802.575L623.316 802.712L623.418 802.79L623.797 803.333L624.016 803.579L624.325 803.763L624.489 803.771L624.63 803.744L624.739 803.639V803.475V803.248L624.786 803.045L624.985 802.74L625.294 802.185L625.458 801.689L625.583 800.998L625.56 800.385L625.294 799.002L625.235 798.92L625.251 798.834L625.282 798.709L625.387 798.678L625.504 798.67L625.852 798.775L625.915 799.127L625.77 799.174L625.969 800.217L626.008 800.795L625.969 801.182L625.852 801.854L625.59 802.131L625.852 802.303L626.676 801.389L626.481 801.28L626.458 800.698L626.419 800.151L626.267 799.245L626.244 799.1L626.08 799.041L626.072 798.92L626.166 798.912L626.295 798.943L626.42 799.115L626.822 799.256L627.049 800.471L626.947 800.6L627.181 800.842L627.708 800.256L627.505 800.072L627.333 799.447L627.731 799.525L627.899 799.849L627.86 799.915L627.985 800.063L628.434 799.719L628.645 798.949L628.653 798.539L628.786 798.23L628.876 798.121L629.235 798.113L630.755 798.551L630.892 798.524L631.048 798.571L631.118 798.708L630.884 798.774L630.7 798.735L630.559 798.637L630.411 798.629L629.77 798.871L629.575 799.172L629.235 800.063L629.04 800.626L627.778 801.251L627.043 803.224L628.035 805.474L629.765 806.001L630.312 804.985L629.624 803.446L630.343 801.673L630.71 801.411L630.601 800.7V800.372L630.804 799.892L631.05 799.65L631.12 799.013L631.05 798.958L631.144 798.81L631.238 798.822L631.336 798.842L631.516 798.783L631.618 798.81L631.704 798.939L632.02 799.095L632.043 799.521L631.734 800.38L631.507 800.907L631.292 801.516L631.206 801.996L631.065 802.824L631.057 803.398L631.104 804.265L631.299 805.14L631.397 805.734L631.522 806.347L631.538 806.894L631.452 807.363L631.429 807.468L631.027 808.343L630.871 808.882L630.832 809.097L630.84 809.757L630.817 810.382L631.2 810.78L631.302 810.655L631.255 810.831L631.392 810.964L631.658 810.675L632.013 810.663L632.423 811.046L632.439 811.237L632.263 811.421L632.454 811.679L632.208 812.007L632.06 812.019L631.974 812.117L631.896 812.094L631.72 812.106L631.579 812.204L631.509 812.309L631.486 812.465L631.556 812.563L631.478 812.633L631.415 812.77L631.286 812.918L631.184 812.926L631.012 813.11L630.817 812.942L630.61 813.083L629.571 812.009V811.193V811.037L629.286 810.744L629.806 810.396L629.54 809.947L629.013 810.396L628.79 810.197L629.208 809.674L629.501 809.654L629.431 808.865H629.169L629.192 809.01L628.958 809.073L628.864 809.335L628.2 810.085L627.352 810.179L627.368 810.085L627.556 809.897L627.501 809.538L628.286 808.866L629.036 807.882L628.454 807.159L628.059 807.366L628.293 808.096L628.051 808.428L627.414 808.963L627.254 808.369L627.422 808.064L627.524 807.998L627.68 807.646L627.657 807.158L627.79 807.123L627.872 806.818L627.145 806.591L627.059 806.837L627.192 806.974L627.231 807.521L627.09 807.822L626.508 806.732L626.539 806.263L625.711 805.775L625.477 805.982L626.122 806.974L626.501 807.712L626.774 808.427L627.012 809.392L627.075 810.044L627.239 810.091V810.247L626.743 810.267L626.688 810.189L626.352 808.513L625.934 807.47L625.586 806.888L625.262 806.341L624.657 805.521L624.075 804.998L623.493 804.588L622.927 804.354L622.431 803.487L622.345 803.389L622.177 803.186L621.958 802.991L622.052 803.155L621.81 803.331L621.501 803.472L621.177 803.48L620.911 803.441L620.712 803.265L620.571 803.003L620.407 802.769L620.313 802.718L620.176 802.601L620.012 802.581L619.809 802.632L619.625 802.757L619.555 802.952V803.116L619.508 803.272L619.563 803.471L619.43 803.448L619.328 803.753L619.183 803.827L618.863 803.78L618.601 804.288L618.312 804.647L618.199 805.085L618.168 805.515L618.105 805.679L618.648 805.738L619.152 805.652L619.515 805.621L619.894 805.633L620.382 805.469L620.663 805.106L620.726 804.95L621.113 805.063L621.254 804.985H621.414L621.43 804.891L621.75 805.149L622.02 805.106L622.262 805.352L622.508 805.262L622.774 805.543L622.989 805.629L623.028 805.524L623.231 805.555L623.305 805.856L623.516 805.969L623.871 806.414L624.773 807.297L625.183 808.145L625.515 809.415V810.173L625.734 810.681L625.98 811.841L626.136 813.864L626.113 814.919L626.058 815.931L625.831 816.048L625.796 816.263H625.862L625.901 816.673L625.815 816.747L625.807 816.935L625.893 816.943L625.963 817.021L625.861 817.361H625.771L625.755 817.529L625.677 817.584L625.716 817.666L625.614 817.818L625.325 817.927L625.055 817.79L624.867 817.829L624.652 817.958L624.589 818.083L624.378 818.161L624.233 818.309L624.155 818.61L624.218 818.833L624.339 819.106L624.402 819.465L624.511 819.473L624.355 820.086L624.14 820.438L624.015 821.126L623.913 821.481L623.565 822.848L623.409 823.637L623.194 824.328L622.858 825.035L622.62 825.34L622.179 826.098L622.085 826.11L622.007 826.024L621.827 826.063L621.597 826.235L621.339 826.247L621.171 826.274H620.952L620.667 826.266L620.604 826.176L620.362 826.156L620.139 825.98L620.053 825.855L619.897 825.75L619.784 825.535H619.589L619.503 825.504L619.362 825.399L618.975 825.536L618.952 825.72L619.038 826.208L618.698 826.743L618.257 827.173L617.683 828.06L617.234 828.333L616.921 828.216L616.581 828.118L616.331 827.97L616.202 827.962L615.991 828.048L615.643 828.193L615.455 828.334L615.338 828.744L615.447 829.338L615.713 829.572L616.131 829.631L616.619 829.514L617.139 830.037L617.432 830.975L617.588 832.26L617.705 834.615L617.494 835.025L617.557 835.513L618.147 836.158L618.881 836.779L619.022 837.74L619.424 839.443L619.858 840.216L620.03 842.122L620.038 843.895L619.729 844.411L619.666 844.95L619.635 845.47L619.826 845.974L620.353 846.724L620.658 846.794L621.013 847.31L621.091 848.193L621.185 848.658L621.619 849.545L622.076 850.143L623.416 852.819L623.967 854.913L624.811 856.929L624.842 857.472L624.322 858.21L623.818 858.464L623.951 858.855L624.431 858.925L624.634 858.761L625.306 858.921L626.193 858.855L626.541 859.019L626.889 859.292L627.225 860.081L627.307 860.761L627.549 861.042L627.819 861.222L628.417 861.288L628.929 861.241L629.308 860.999L629.699 860.706L630.449 860.675L631.031 861.097L631.226 861.62L631.339 861.921L631.542 862.378L632.37 862.698L632.811 862.917L633.858 863.073L635.385 862.46L636.807 862.069H638.409L640.218 861.71L640.706 861.823L641.265 861.698L641.921 861.608L642.171 861.319L643.401 862.003L643.928 862.194L644.643 862.214L645.889 862.468L646.713 862.972L647.651 863.074L648.378 862.98L649.769 863.308L650.96 863.433L652.038 863.269L652.722 863.66L653.109 864.41L653.597 864.769H654.179L655.124 863.851L655.905 863.699L656.225 863.726L657.502 863.492L658.346 863.758L659.287 864.371L660.353 865.023L660.744 865.996L660.846 866.68L660.549 867.164L660.881 868.207L660.682 868.922L661.108 869.375L661.815 869.699L662.729 869.769L663.542 869.242L663.858 868.851L664.335 868.917L665.038 868.604L665.944 868.362L667.116 868.401H667.991L669.358 869.143L669.776 869.698L670.424 870.214L671.17 870.351L671.58 870.191L672.115 869.992L673.533 869.64L674.705 869.769L675.775 870.124L676.58 870.644L677.17 871.199L677.596 872.074L677.526 872.66L677.038 873.078L676.558 873.371L676.195 873.953L676.265 874.957L676.683 875.191L677.187 874.941L677.402 874.832L677.855 874.375L678.8 873.926L680.378 873.633L681.062 873.664L681.691 873.762L682.148 874.051L682.109 874.805L682.402 875.582L682.793 875.941L683.473 875.484L684 874.609L684.613 874.441L685.558 873.925L686.07 873.116L686.047 872.432L685.809 872.143L686.297 871.03L687.055 870.8L687.344 870.71L688.149 870.776L688.993 871.229L689.97 871.811L690.685 872.659L691.173 873.761L690.235 874.374L689.551 875.288L689.481 875.999L689.969 876.749L690.328 877.46L690 878.308L689.582 878.855L689.668 880.308L689.473 881.007L689.567 882.335L689.188 883.276L688.575 883.6L688.411 884.639L688.993 885.061L689.938 885.252L690.969 885.154L691.11 884.892L691.071 884.208L691.266 883.821L691.793 883.477L692.352 883.555L692.786 883.633L693.227 883.465L694.465 883.027L695.125 882.472L696 882.245L696.605 882.147L697.046 881.827L697.776 881.788L698.604 882.147L699.03 882.135L699.768 881.787L700.698 881.728L701.886 881.662L702.023 881.053L702.312 880.666L702.824 880.053L703.32 880.03L703.968 880.116L704.351 879.866L704.816 879.827L705.226 879.796L705.847 879.96L706.792 880.382L708.675 880.351L709.405 879.437L709.464 879.242L710.101 879.019L711.265 879.027L712.406 878.754L712.984 878.988L713.32 879.601L714.32 879.472L714.699 879.409L714.863 879.175L715.07 878.386L714.84 877.652L714.52 877.195L714.911 876.316L715.102 875.832L715.204 875.246V874.664L715.173 874.176L716.204 873.59L717.149 873.199L717.762 872.949L718.391 872.785L718.903 872.687L719.481 872.753L720.141 873.198L719.848 873.534L719.809 874.018L720.266 874.143L720.407 873.651L720.88 873.436L721.345 873.213L721.88 873.272L722.243 873.366L723.024 872.975L723.504 872.745L724.274 872.608L724.911 872.42L725.407 872.451L725.919 872.685L726.189 872.853L726.291 872.919L726.896 872.876L727.416 873.239L727.701 873.532L727.935 874.563L727.701 875.047L727.873 875.332L728.568 875.801H729.181L729.513 875.508L729.818 875.535L730.228 875.43L730.615 875.645L730.978 875.508L732.181 875.828L732.661 875.937L733.181 876.355L733.81 876.335L734.072 876.773L734.584 876.8L734.834 876.53L735.104 876.507L735.827 876.577L736.569 876.675L737.417 877.257L738.026 877.62L738.292 877.94L739.655 879.987L740.655 880.639L741.866 881.127L742.507 881.611L743.159 882.158L743.694 882.142L743.967 881.962L743.873 881.474L743.553 880.861L742.951 880.162L742.756 879.17L742.182 878.545L741.498 878.135L741.096 877.846L740.92 877.424L740.779 876.869L740.849 876.408L740.865 875.904L741.111 875.435L741.763 874.599L742.368 873.88L742.872 873.72L743.352 873.681L743.606 872.845L743.528 872.154L743.446 871.65L743.809 871.318L744.204 871.091L744.329 870.634L744.786 870.341L745.188 870.536H745.368L745.274 869.852L745.196 869.145L745.337 868.52L745.528 867.903L745.669 867.641L745.857 867.614L746.377 867.583L746.764 867.224L746.811 866.943L746.987 866.767L747.229 866.701L747.479 866.767L747.663 866.521L747.655 866.095L747.616 865.572L747.71 865.052L748.128 864.4L749.23 863.716L749.984 863.267L750.664 863.13L751.348 863.169L751.426 863.239L751.703 863.493L752.34 863.122L752.586 863.024L752.719 863.075L752.93 863.153L753.223 863.45L753.618 863.747L753.489 864.622L753.876 864.759L753.978 864.786L754.099 864.134L754.564 864.329L754.759 863.977L755.216 864.133L755.146 864.496L755.533 864.562L755.635 864.23L756.139 864.199L756.58 864.59L757.209 864.5L757.65 864.437L758.556 864.203L759.154 864.086L760.31 864.27L760.572 864.563L761.256 864.301L762.061 864.367L762.163 864.562L762.429 865.859L762.878 866.007L763.312 866.831L763.46 867.581L762.651 868.39L761.799 868.749L761.311 869.042V869.53L761.643 870.339L761.452 871.089L761.257 871.87L761.382 872.257L761.573 872.777L761.288 872.941L761.542 873.859L761.644 874.179L761.628 875.031L761.769 875.058L761.738 875.273L761.383 875.289L761.406 875.918L760.558 876.188L760.406 875.79L760.117 875.864L760.211 876.282L759.902 876.415L759.242 876.77L758.164 876.645L757.848 876.321L757.582 876.614L757.195 876.868L756.32 876.934L755.468 876.961L754.956 877.059L754.589 877.325L754.499 877.52L754.21 878.297L754.046 878.688L753.374 879.258L753.038 879.535L752.39 880.277L752.031 880.531L751.707 880.648L751.273 880.734L751.023 881.183L750.886 881.542L750.542 882.39L750.8 882.71L751.452 883.335L752.194 883.558H752.784L753.296 883.527L753.628 882.945L754.023 882.789L754.367 883.07L755.023 883.656L755.996 884.797L756.582 885.633L756.512 886.285L755.77 886.941V887.425L756.094 887.679L756.676 887.484L757.621 887.746L758.723 888.359L759.336 888.722L759.988 889.206L760.738 889.108L761.062 888.749L760.871 887.874L761.422 887.62L761.652 887.182L761.621 886.998L761.973 886.51L762.653 886.158L763.989 885.338L764.399 884.893L764.7 884.502L765.149 884.334L766.528 884.35L766.841 884.366L766.825 884.659L767.266 884.698L767.911 885.085L768.825 885.312L769.079 884.953L768.048 884.629L767.005 884.113L766.454 882.972L766.391 881.777L766.668 881.152L767.352 880.363L767.305 879.894L767.004 879.73L765.934 880.218L765.739 880.148L765.802 879.914L765.568 879.82L765.442 879.959L764.602 879.549L764.043 879.111L763.496 878.47L763.105 877.911L763.175 877.263L763.464 877.064L763.788 876.998L764.401 877.814L764.889 878.525L765.608 878.693L766.088 878.4L765.959 877.623L765.764 877.107L765.561 876.326L765.694 876.006L766.034 875.733L766.679 875.413L767.292 875.452L767.804 875.675L768.269 876.066L768.042 876.718L767.733 876.659L767.432 876.921L767.51 877.292L767.631 877.573L767.662 878.014L768.447 878.955L768.849 879.67L769.431 879.932L769.63 879.959L769.599 880.709L769.04 881.002L768.95 880.74L768.165 880.931L768.267 881.88L768.724 882.13L768.818 881.978L769.912 882.728L770.517 883.087L770.622 882.872L770.856 882.774L771.508 883.008L772.289 883.688L772.746 884.411L772.973 885.091L773.063 886.4L772.778 887.025L772.321 887.822L771.383 888.142L770.477 887.88L770.438 888.63L771.188 890.22H771.801L772.352 890.091L772.645 889.661L773.583 890.02L774.22 890.231L774.622 890.606L775.259 890.891L776.771 891.938L777.423 892.583L777.353 893.013L777.646 893.142L777.716 892.818H778.157L778.204 893.201L778.376 892.955L778.517 892.346L778.701 891.991L779.56 891.682L780.462 891.846L780.794 891.631L781.314 891.709L781.345 891.221L781.607 891.03L783.005 891.096L783.716 891.612L784.005 891.124L784.212 890.894L784.493 891.066L785.048 891.75L785.173 892.07L786.415 892.195L786.997 891.941L787.802 892.097L788.583 891.515L788.653 890.999L788.77 890.659L789.204 890.608L789.599 890.635L789.685 890.201L790.142 889.564L790.724 889.369L790.63 888.885L791.493 888.424L791.841 888.24L791.353 886.935L791.779 886.63L792.873 887.169L793.748 887.458L793.912 886.806L795.053 886.544L795.346 885.997L795.541 885.47L795.205 884.665L794.662 884.204L793.943 884.247L793.259 884.833L793.005 885.083L792.157 884.985L791.282 884.34L790.825 883.465L790.864 882.715L791.157 882.492L791.352 882.308L791.493 881.937L791.423 881.593L791.321 881.335L791.676 881.284L791.989 881.69L791.926 881.995L791.598 882.518L791.832 882.686L792.32 883.034L793.156 883.561L793.547 882.944L793.942 882.811L794.59 882.295L794.84 882.115L795.305 882.295L795.957 882.42L796.668 882.936L797.547 884.104L797.879 884.69L798.492 885.51L798.39 886.385L797.738 887.42L797.84 887.807L798.848 887.877L799.856 887.584L801.219 887.361L801.414 887.232L801.574 886.58L801.148 885.705L801.539 884.701V884.076V883.435L802.125 883.072L801.676 882.49L801.996 882.099L801.926 881.513L801.574 881.126L801.117 880.317L800.367 880.176H800.051L799.559 879.34L798.879 878.66L798.336 878.476L797.91 877.703L797.73 876.926L797.566 876.383L796.117 875.309L795.375 874.18L795.848 873L796.243 872.203L796.833 871.383L797.747 870.797L798.669 870.449L799.439 870.34L799.408 870.504L799.857 870.535L800.607 870.797L801.029 871.149L801.455 871.829L801.385 872.454L801.088 873.263L800.826 873.681L800.865 874.306L800.701 874.431L800.732 875.279L801.486 876.154L801.236 876.826L801.369 877.576L801.576 876.971L801.463 876.475L801.717 876.022L801.998 875.866L801.748 875.214L801.967 874.851L802.647 874.796L803.362 874.112L803.624 873.003L803.069 872.78L803.432 871.675L803.889 870.761L804.432 870.077L805.213 869.854L805.67 869.788L805.693 869.429L805.771 868.394L805.275 867.109L805.021 866.32L805.06 865.863L804.408 865.113L803.623 864.957L803.33 864.887L802.748 863.981L802.189 863.786L801.966 863.845L801.646 862.943L801.771 862.357L802.037 861.998L801.416 861.256L800.385 862.065L799.928 862.26L799.268 861.869L798.827 861.385L798.561 860.604L798.198 859.659L798.046 859.268L797.519 859.17L796.679 859.533L795.999 859.209L795.608 858.432L794.983 857.518L794.542 856.834L794.442 855.216L793.954 854.466L793.923 853.728L794.177 852.673L794.442 852.224L793.915 851.642L793.302 851.447L792.65 850.111L792.326 849.693L791.482 849.818L791.185 849.166L791.482 847.807L791.869 846.869L792.689 846.021L792.38 845.662L791.853 845.486L791.564 845.213L791.033 844.49L790.138 844.017L789.65 843.439L789.572 842.447L789.482 840.576L790.091 838.814L790.736 838.044L791.373 837.653L792.498 837.809L792.986 838.266L793.884 839.336L794.466 839.797L795.083 839.922L795.544 839.238L796.876 838.355L797.106 838.5L798.563 838.434L799.758 838.586L801.61 839.109L803.497 839.851L804.657 840.921L806.192 841.702L807.294 842.093L808.528 843.163L809.766 844.011L811.032 844.429L812.915 845.472L814.505 846.351L815.946 847.558L818.106 848.882L819.247 849.659L821.001 850.276L822.192 851.053L824.278 851.608L826.122 852.495L827.618 852.39L829.056 852.683L830.201 852.546L830.744 852.398L832.713 852.32L833.6 852.586L835.217 852.293L836.389 851.969L837.202 852.008L837.682 852.028L838.729 851.876L840.163 852.067L840.862 852.235L841.421 852.169L842.042 852.126L842.839 852.442L843.335 852.36L844.698 852.165L844.987 852.228L845.405 852.208L845.698 852.267L846.296 852.615L846.941 852.849L847.761 852.81L848.445 853.24L848.933 853.463L849.808 853.143L850.351 852.557L850.035 852.166L849.351 851.838L849.179 851.877L848.886 851.127L848.691 850.182L848.886 849.955L849.128 850.123L849.374 849.982L849.698 849.802L850.194 849.857L850.421 849.955L850.39 850.568L850.933 851.029L851.617 850.931L852.172 850.443L852.594 850.248L853.172 850.123L853.274 849.791L853.54 849.635L853.661 849.983L853.856 850.151L854.731 850.444L855.653 850.378L856.298 849.886L856.626 849.499L856.849 848.757L857.29 847.987L856.579 848.05L855.841 848.195L855.021 848.343L854.091 848.245L853.314 848.097L852.919 848.195L852.485 847.465L852.235 846.395L852.188 845.321L852.485 844.008L852.919 843.324L853.653 842.594L854.235 842.352L855.02 842.207L855.747 842.156L856.282 842.5L856.329 842.938L855.997 843.309L856.196 843.5L856.43 843.715L857.203 843.324L858.035 842.691L858.816 842.304L859.5 841.769L859.437 841.41L859.249 840.211L859.155 838.797L859.784 837.285L860.569 836.508L861.639 835.922L862.42 835.777L863.49 836.75L864.056 837.109L864.411 837.336L864.915 838.027L864.751 838.32L864.56 839.187L864.806 839.234L866.365 838.457L867.728 837.578L869.869 835.629L870.166 834.465L869.576 834.656L868.994 835.191L867.869 835L867.24 834.414L866.459 833.976H865.971L865.631 833.097L865.822 832.124L866.166 831.686H866.752H867.186L867.436 830.807L867.241 830.174L867.335 829.197L869.042 827.638L869.382 827.349L869.484 826.814L868.656 826.177L867.972 826.279L866.949 826.326L866.074 824.912L865.777 823.744L865.769 822.385L866.167 821.018L865.39 821.358H865.05L864.64 820.71L864.562 819.605L864.855 819.117L865.343 819.019L865.484 818.777L865.632 818.289L865.538 817.754L865.761 817.371L866.32 817.242L866.847 817.512L867.242 817.95L868.168 818.098L869.234 817.754L870.453 817.367L870.871 816.98L870.258 816.781L869.383 816.586L868.555 816.828L867.633 817.074L866.996 817.168L865.996 816.98L865.562 816.714L864.949 816.343V815.515L865.195 814.218L864.531 813.671L864.066 813.401L863.793 813.358L863.442 813.865L862.891 814.334L862.543 814.139L863.125 812.541L863.75 811.998L864.527 811.764H865.23L865.812 811.373L866.285 811.178L866.75 811.346L867.238 811.162L866.238 810.596L865.773 810.385L865.371 810.373L864.652 810.139L863.984 810.362L863.695 810.596L863.48 810.362L863.125 809.776L863.52 809.116L863.985 808.608L864.606 808.413L865.001 807.475L864.567 806.62L864.766 805.647L864.844 804.944H864.293L863.711 805.1H863.125L862.812 804.397L862.66 805.1L862.269 805.877L862.117 807.166L861.804 807.709H861.175L860.636 807.514L859.812 807.787L859.773 808.682L858.96 808.838L858.101 808.959L857.046 808.725L856.03 808.412L855.565 809.033L855.756 810.244V811.603L855.447 812.423L855.158 812.517L855.138 811.919L854.865 811.138L854.442 810.123L853.891 809.619L853.465 809.892L853.231 810.556L852.645 810.826L851.907 811.295L851.552 811.721L850.505 811.373L850.032 811.686L849.649 811.874L848.372 810.976L847.536 810.765L847.575 810.335L848.673 809.776L848.048 809.073L848.474 808.921L848.126 808.491L848.294 807.913L846.798 808.272L846.239 808.213L845.419 809.135L844.759 809.799L844.396 810.053L844.162 810.041L843.642 809.619L843.294 809.072L843.411 808.256L843.837 807.904L843.45 807.318L842.985 807.048H842.59L842.047 806.345L841.504 806.072L840.875 806.385H840.758L840.332 805.838L840.102 805.1L840.254 804.475L840.527 804.28L840.914 804.319L841.184 803.928L840.332 802.295L839.551 801.592H838.93L838.032 801.631L837.177 802.412L836.665 803.267L835.224 803.189L835.025 803.459L835.193 804.139L835.111 804.67L834.97 805.658L834.529 805.178H833.822L833.752 805.522L833.607 805.881L833.185 806.291L832.728 806.018L831.892 806.174L831.224 806.533L830.658 806.631L829.537 807.631L828.682 808.373L827.869 808.963L827.412 808.865L827.162 808.529L826.611 808.295L825.838 807.123L825.908 806.76L825.326 806.565L825.17 805.995L824.9 805.511L823.916 805.628L824.971 805.21L826.264 805.101H826.612L826.698 804.671L827.94 805.37L828.53 805.761L828.682 805.566L829.498 805.371L830.279 804.32L831.568 803.152L833.318 801.672L834.681 800.543L835.072 799.801L836.396 798.828L836.435 798.32H835.072L834.412 798.086L834.256 797.695L834.529 797.308L835.427 796.878L835.853 796.644L835.822 796.406L834.744 795.968L834.451 795.515L834.529 794.773L835.072 794.269L836.279 794.851L836.869 794.933L837.451 794.538L837.916 794.034L838.658 794.112L839.201 793.956L840.681 793.37L841.326 793.093L841.681 793.249L842.048 793.878L842.743 794.464L843.372 794.308L843.681 793.566L844.388 792.867L845.087 792.515L845.435 791.499L845.876 791.077L846.372 790.932L846.993 791.307L847.27 791.373L847.622 791.459L848.118 791.143L848.278 790.916L848.489 790.471L848.45 789.78L848.048 788.796L847.814 788.382L847.576 788.202L847.209 788.261L846.713 788.659L845.807 789.585L845.358 789.476L845.034 789.109L844.854 788.734L845.018 788.418L845.233 788.164L845.69 787.918L846.225 787.402L846.53 787.07L847.69 786.972L848.128 786.632V786.163L847.698 784.796L847.585 783.706L847.972 783.28L848.562 783.085L851.128 785.851L850.855 786.593L850.121 787.644L850.195 788.304L850.855 788.695L851.437 788.539L852.066 788.422H852.609L853.195 788.891L853.699 789.243L852.531 789.282L851.957 789.337L851.684 790.2L851.051 790.997L851.399 791.188L851.911 791.309L852.454 790.996L853.044 790.371L853.817 790.176L855.258 790.918L856.625 791.383L857.164 791.5L857.871 791.27L858.18 791.461L858.66 791.32L858.918 790.836L858.18 790.527L857.524 789.867L857.18 788.855L857.243 788.367L857.376 787.414L857.724 786.09L858.454 784.137L858.888 783.75L859.658 783.594L859.842 783.227L859.92 782.797L859.842 782.106L859.787 781.481L859.818 780.672L859.693 779.895L859.213 779.61L858.611 779.852L858.439 780.887L857.998 781.121L857.369 780.277L856.74 779.851L856.133 780.224L855.719 779.81L855.735 779.236L855.962 778.72L856.622 778.521L857.161 778.173L857.712 778.212L857.946 778.251L859.079 777.278L860.048 777.317L860.79 777.547L861.071 777.332L861.176 777.117L861.332 776.457V776.262L862.238 775.824L862.449 775.578L862.672 775.168L862.629 774.848L862.348 774.508L862.071 773.973L862.325 773.289L862.591 773.027L863.009 772.91L863.364 773.027L863.52 773.144L863.704 773.23L863.915 773.074L863.751 772.832L863.435 772.734L863.318 772.566L863.427 771.906L863.599 771.664L863.783 771.594L864.025 771.664L864.373 771.859L864.646 771.808L864.962 771.468L864.806 770.96H864.49L864.681 770.612L865.001 770.417L865.079 769.948L865.466 769.288L864.646 769.362L864.103 768.936L863.048 769.791L863.126 770.299L863.481 770.842L863.379 771.233L862.969 771.663L862.457 771.96L861.332 771.663L861.023 771.933L860.703 772.925L860.316 773.769L860.046 774.156L860.155 774.379L859.663 774.434L859.464 774.461L859.116 774.43L858.757 773.34L858.409 773.145L857.944 773.418L857.276 773.809L857.124 774.313L856.772 774.469L856.19 773.922L855.678 773.965L855.385 774.504L855.053 775.02L854.401 775.36L853.928 774.86V774.391L854.084 773.922L854.174 773.098L854.643 773.004L855.315 772.399L855.874 772.403L856.726 771.942L857.394 771.864L857.945 771.551L857.992 771.125L858.355 770.961L858.765 771.066L859.117 770.886L859.852 770.224L860.434 769.466L860.528 768.736L860.419 768.416L859.985 768.631L858.68 768.861L857.946 768.822L857.434 769.092L856.969 769.639L855.914 769.326L855.062 769.482L854.636 769.912L853.308 771.041L852.874 771.314L852.749 771.595L852.565 772.017L851.866 772.525L851.159 772.56L850.386 772.599L849.718 772.404L849.292 772.213L849.093 771.596L849.152 771.401L848.867 771.12L847.89 770.807H847.734L847.347 771.315L847.07 772.057V772.6L846.914 773.186L846.605 773.499L846.023 773.382L845.55 772.835L845.159 772.37L844.811 772.214H844.346L844.221 771.937L844.385 771.597L845.045 770.734L845.084 770.07L844.541 769.914L843.795 769.953L843.525 769.601L842.92 769.328L842.639 768.734L842.733 768.336L842.702 767.848L842.425 767.457L841.929 767.66L841.581 767.508L841.456 767.457L840.526 767.586L839.557 767.914L839.135 768.09L838.772 767.965L837.834 767.07H837.525L836.92 767.203L836.693 767.301L836.4 767.274L835.787 767.333L835.771 767.618L836.107 768.001L836.826 768.294L837.021 768.556V768.888L836.509 768.943L836.572 769.209L835.228 769.658L834.81 770.553L834.54 770.826L834.329 771.06L834.235 771.419L834.407 771.825L834.833 771.552L835.771 771.513H836.314L837.181 771.517L837.857 771.81L837.951 772.154L837.092 772.299L836.686 772.647L836.803 773.116L836.315 773.554L835.276 773.284L834.889 773.487L834.772 773.788L834.495 774.12L833.007 773.151L832.632 773.202L832.237 773.331L831.655 773.015L831.694 773.347L832.014 774.128L832.502 774.749L833.119 775.413L833.314 775.956L833.88 776.659L833.415 776.639L833.06 776.698L832.771 776.835L832.748 777.05L832.338 777.027L831.951 776.582L831.678 776.309L831.424 776.133H831.111L830.982 776.309L830.857 776.641L831.021 777.207L831.076 777.848L830.935 778.102L830.47 778.141L830.353 777.965L829.966 777.613L829.708 777.125L829.579 776.309V775.258V774.965L829.02 774.883L828.485 775.297V776.328L828.344 777.359L828.461 778.179L828.406 778.726L828.226 779.464L827.761 780.378L827.62 780.808H826.979L826.475 780.749L826.1 780.651L825.483 780.065L825.366 779.835L825.577 779.444L826.124 778.725L826.437 777.924L826.554 777.026L826.706 776.307L826.948 775.455L826.979 774.767L826.721 774.685L826.451 774.923L825.767 775.681L825.482 776.365L825.263 777.025L825.095 777.205L824.954 777.455L824.657 777.943L824.094 777.767L823.703 777.669L823.277 777.942L823.214 778.469L822.984 778.875L822.558 779.051L822.378 778.957L822.046 778.234L821.796 778.097L821.503 778.292L821.151 778.874L820.858 779.265L820.639 779.617L819.944 780.047L819.479 779.945L819.03 779.715L818.44 779.461L818.151 779.188L817.639 778.176L817.315 778L817.159 777.434L816.983 777.184L816.842 777.164V776.851L817.135 776.519H817.393H817.526L817.858 776.539L818.284 776.891L818.889 777.766L819.119 777.786L819.377 777.575L819.197 777.22L818.99 776.872L819.22 776.559L819.454 776.149L819.313 775.508L819.555 774.844L819.942 774.434L820.43 774.125L820.676 773.926L820.918 773.774L821.148 773.731H821.539L822.164 773.794L822.453 773.618L822.707 773.208L822.84 772.915L822.762 772.274L822.864 771.786L822.708 771.591L822.181 772.407L821.599 772.876L821.111 772.896L820.701 772.623L820.06 772.471L819.747 772.276L819.22 772.335L818.888 772.624L818.849 773.132L818.462 773.601L817.564 773.757L817.06 773.874L816.747 774.089L816.438 774.284L814.934 774.128L814.547 774.437L813.996 774.632L813.234 774.827L812.675 775.003L812.304 774.905L811.777 775.12L811.562 775.14L811.367 774.945L811.406 775.297L810.683 775.391L810.078 775.489L809.242 775.63L808.738 775.88L808.445 776.212L808.019 776.29L807.515 776.134L807.296 776.056L807.042 776.134L806.124 777.384L805.108 779.212L804.838 780.126L804.389 781.2L803.924 782.173L803.381 782.837L802.815 783.419L802.444 783.442V783.77L801.76 784.063L802.069 783.672L801.917 783.047L802.147 782.289L801.956 781.726L802.069 781.374L802.132 780.558L801.862 779.288L802.35 777.671L802.58 777.089L802.775 776.816L803.099 775.703L802.736 775.18L802.146 774.828L802.017 774.187L802.107 773.734L802.365 773.621L802.674 773.074L802.713 772.664L802.658 772.277L803.049 771.886L803.186 771.749L803.499 771.612L804.628 771.807L805.019 771.377L804.863 770.85L804.644 770.444L804.863 769.878L804.902 769.605L804.879 768.828L804.824 768.086L805.211 766.859L805.715 766.429L806.012 766.351L806.555 766.312L806.965 766.292L807.629 765.979L808.172 765.553L808.738 765.299L809.422 765.065L809.692 764.674L809.794 763.975L809.95 763.643L810.005 763.526L810.196 763.624L810.259 763.214L809.81 763.058L809.111 762.867L808.392 762.629L807.904 762.262L807.377 762.34L807.158 761.715L807.787 761.383L807.182 760.82L806.912 761.328L805.486 761.754L805.228 761.188L805.662 760.235L806.205 759.34L806.771 758.969L807.455 758.91H808.15L808.525 759.008L808.638 758.578L808.408 758.191L807.763 758.152L806.833 758.25L805.739 758.539L805.071 758.988L804.337 759.418L803.306 759.398L802.701 759.183L802.306 758.792L801.802 758.226L801.47 757.937L800.904 757.976L800.384 758.249L800.087 758.718L799.47 759.261L798.607 759.921L795.47 759.745L794.982 759.667L794.541 759.358H794.143L793.385 759.495L792.725 759.542L792.393 759.659L792.022 759.55L791.479 759.378L790.913 758.948L790.425 758.624L789.804 758.323L789.417 758.225L789.175 758.19L788.734 757.135L788.441 756.397L788.386 755.948L788.245 755.034L788.128 754.565L787.952 754.428L787.936 753.998L787.291 753.51L786.936 753.475L785.983 753.295L785.479 753.26L785.065 753.573L784.346 753.706L783.315 754.39L783.198 753.535L782.479 752.969L781.463 752.012L781.897 751.078L781.448 750.223L781.135 749.149V748.86L781.346 748.547L781.561 748.059L781.717 747.668L781.408 747.609L780.896 746.949L780.544 747.375L779.966 747.453L779.81 747.125L779.439 746.715L778.732 745.875L778.267 744.98L778.189 743.929L778.345 743.363L778.599 743.011L778.99 742.991L779.299 742.913L779.518 742.507L779.401 741.96L779.686 741.183L779.905 740.925L780.417 740.73L781.487 740.148L781.835 739.835L783.765 738.315L784.331 737.983L784.897 737.03L785.553 736.37L785.533 735.784L785.361 735.628L785.533 735.335L785.888 735.081L786.857 734.636L787.599 735.179L787.935 735.238L788.197 735.199L788.291 734.969L788.322 734.649L788.189 734.223L788.029 733.602L787.408 732.512L787.525 731.946L787.33 731.559L786.998 731.246L786.494 731.266L785.889 731.504L785.502 731.168L785.049 730.641L785.244 729.996L785.517 729.707L785.872 729.566L786.02 729.511L786.055 729.148L785.918 728.699L785.863 728.383L785.98 727.992L785.824 727.367L785.551 727.133V726.785L785.141 726.18L784.911 726.063L784.524 726.239L784.305 726.844L783.973 727.66L783.762 727.973L783.133 728.11L782.399 727.797L781.856 727.504L781.637 727.367L780.723 727.68L780.801 727.973L781.422 728.383L781.856 728.985L781.934 729.356L782.336 729.762L782.281 730.817L782.164 731.149L782.062 732.317L781.824 732.954L781.062 733.313L780.523 733.645L780.078 734.09V734.305L779.707 734.789L779.59 735.199L779.141 735.453L778.989 735.277L778.809 735.414L778.77 735.785L777.856 736.348L777.376 736.582L777.118 736.504L776.942 736.406L776.926 737.051L776.707 737.246L776.398 737.226L776.101 737.769L776.761 738.648L776.589 738.785L775.925 738.062L775.187 738.531L774.683 738.922L774.519 738.746L773.179 739.742L772.109 740.344L771.367 740.828H771.094L770.492 740.031L770.32 740.109L770.644 740.812L770.492 741.433L769.949 741.687L769.926 742.156L769.047 742.562L768.84 742.429L768.567 742.562L768.661 742.835L768.684 742.991L767.723 743.616L767.063 744.218L766.614 745.097L766.677 745.445L767.064 745.703L767.244 745.953L767.943 745.875L768.486 745.562L768.998 745.324L768.873 744.875L768.998 744.633L769.322 744.547L770.119 745.094L770.166 745.489L770.826 746.247L771.408 747.224L771.447 748.099L771.369 749.15L771.056 749.404L771.095 749.619L771.622 749.385L771.778 749.463L771.251 749.736L770.763 749.716L770.786 749.892L771.368 749.951L771.684 749.834L771.739 750.615L771.934 751.959L772.125 753.01L771.855 754.119L772.148 755.443L771.8 755.482L771.855 756.127L771.312 756.826L772.226 757.728L771.39 757.451L770.566 757.392L769.73 757.548H769.242L768.777 757.489L768.8 757.196L768.155 756.458L768.233 755.853L768.092 755.58L767.94 755.814L768.003 755.97L767.956 756.63L768.022 756.775L767.62 757.111L767.358 757.084V756.729H767.061V757.084L766.045 756.986V756.787H765.815L765.713 757.021L765.154 756.986L764.588 757.334L764.295 757.666L763.572 757.939L762.58 758.013L761.861 758.154L761.216 758.638L760.712 759.068L759.442 758.912L760.184 758.365L760.356 757.724L760.688 757.119L760.922 756.377L761.035 756.029L761.836 755.814L762.285 755.482L762.789 755.502L764.215 754.412L763.766 753.767L763.082 753.298L762.633 753.028L761.82 752.911H761.097L760.456 753.282L759.772 753.942L759.073 754.547L757.96 755.676L757.175 756.156L756.96 756.773L757.073 756.976L756.796 757.406L756.687 757.121L756.074 756.898L755.293 757.273L754.688 757.859H754.434L754.586 757.179L754.395 757.136L754.082 758.363L753.012 758.207L751.981 758.035L751.586 757.488L751.688 755.23L751.625 754.195L751.906 753.609L752.89 751.457L754.214 749.691L754.788 748.836L754.472 748.43L753.593 748.469L753.011 748.098L752.796 747.864L752.624 747.028L752.507 745.719L753.058 744.688L752.773 743.879L752.789 742.766L752.484 742.137L751.945 741.942L750.988 742.098L749.742 742.528L748.961 743.071L747.981 743.637L747.301 743.52L746.758 743.676L745.586 744.387L744.852 744.727L744.207 746.129L743.562 746.887L743.175 747.649L742.945 748.235L742.836 748.266L742.57 747.852L742.293 747.61L742.004 747.727L741.867 747.883L741.945 746.852L742.183 746.192L742.394 746.325L742.765 745.626L743.269 745.06L743.308 744.837L743.523 744.528L743.687 744.512L743.914 743.891L743.742 742.723L743.5 742.465L743.137 742.449L742.301 743.402L741.656 744.066L741.34 744.804L741.027 744.98L740.64 744.824L740.46 744.023L740.112 743.246L739.491 742L739.237 741.066L739.393 740.363L739.858 739.465L740.26 739.027L740.78 738.707L740.913 738.246L741.339 738.008L741.905 737.75L742.468 737.129L742.98 736.719L744.05 736.621L745.019 736.445L745.316 736.195L745.3 735.785L745.593 735.574L746.073 735.59L746.78 735.57L747.065 735.414L747.499 735.258L747.71 735.16L747.944 734.758L747.733 734.403L747.065 734.38L746.78 734.56L746.522 734.482L746.292 734.384L746.183 734.4L746.12 734.087L746.159 733.735L746.268 733.485L746.354 733.29L746.467 732.977L746.756 732.957L747.19 733.074L747.245 732.812L747.354 732.429L747.467 732.382L747.584 731.737L747.639 731.573L747.866 731.397L748.268 731.17L748.623 731.33L748.912 731.451L749.103 731.701L749.521 731.533L749.599 731.267L749.646 730.986L749.552 730.783L749.337 730.635L749.173 730.713L749.064 730.897L748.74 730.96H748.592L748.338 730.948L747.834 730.839L747.475 730.909H747.073L746.686 730.882L746.569 730.714L746.827 730.421L747.097 730.21L747.41 730.065L747.523 729.752L747.418 729.486L747.215 729.322L746.539 729.127L746.309 729.037L746.114 729.127L746.028 729.061L746.106 728.893L746.223 728.639L746.387 728.455L746.68 728.502L747.563 728.904L747.915 728.892L748.099 728.669L748.208 728.356L748.13 728.043L747.974 727.801L748.013 727.379L748.326 727.109L748.775 726.836L749.076 726.832L749.467 727.031L749.846 727.176L750.061 727.227L750.319 727.372L750.413 727.595L750.8 727.81L751.273 727.935L751.613 728.259L752 728.454L752.488 728.872L752.715 729.302L752.918 729.407L752.793 729.622L752.621 729.602L752.519 729.711L752.437 729.816L752.281 729.777L752.148 729.797L751.992 729.906L751.738 729.847L751.445 729.777H751.039L750.863 729.863L750.527 729.715L750.871 730.086L751.195 730.168L751.422 730.09H751.973L752.84 730.051L753.32 729.973L753.824 729.914L754.187 729.785L754.406 729.601L754.574 729.386L754.879 729.249L755.219 729.155L755.91 728.694L756.133 728.159L756.344 727.612L756.512 726.842L756.52 726.522L756.676 726.096L756.739 725.928L756.708 725.448L756.685 724.124L756.521 723.784L756.498 723.444L756.592 723.065L756.858 722.667V722.499L756.717 722.304L756.487 722.316L756.323 722.461L756.167 722.52L755.448 722.239L755.128 722.219L754.812 722.18L754.442 721.884L754.458 721.521L754.38 721.787L754.224 721.685L754.294 721.259L754.38 721.114L754.396 720.969L754.294 721.102L754.263 721.172L754.091 721.004L753.997 721.035L754.114 721.211L754.137 721.492L754.074 721.637L753.867 721.649L753.539 721.637L753.379 721.578L753.043 721.453L752.371 720.976L751.945 720.624L751.734 720.335L751.531 720.187L751.222 720.082L750.952 720.023L750.686 720.031L750.346 720.136L749.975 720.167L749.08 719.991L748.607 719.796L748.283 719.593L748.064 719.405L747.88 719.26L747.56 719.096L747.392 718.967L747.236 718.959L746.935 718.979H746.662L746.447 718.901L745.592 718.268L745.205 717.975L744.967 717.729L744.576 717.506L744.267 717.186L744.033 717.01L743.865 716.865L743.67 716.435L743.537 716.056L742.967 715.935L742.424 715.744L741.787 715.639L741.545 715.588L740.865 715.119L740.283 714.627L740.01 714.314L739.971 714.115V713.9L740.096 713.787L740.268 713.834L740.323 713.678L740.221 713.444L740.119 713.26L740.049 713.17L739.897 713.201L739.803 713.287L739.733 713.357L739.616 713.377L739.499 713.338L739.386 713.229L739.284 713.065L739.268 712.663L739.252 712.464L739.307 712.167L739.491 711.944L739.608 711.866L740.081 712.374L740.159 712.433L740.261 712.304L739.952 711.8L739.913 711.624L740.308 710.737L740.492 710.639L740.449 710.549L740.457 710.365L740.539 710.26L740.609 710.19H740.757L741.066 709.917L742.214 709.929L742.23 709.781H741.89H741.531L741.449 709.715L740.988 709.727L740.797 709.629L740.594 709.453L740.524 709.265L740.434 709.304L740.332 709.265L740.269 709.355L739.851 709.402L739.765 709.363L739.695 709.48L739.433 709.55L739.16 709.402L738.988 709.265L738.726 708.976L738.492 708.683L738.027 708.066L737.75 707.437L737.547 706.902L737.469 706.433L737.485 705.945L737.61 705.73L737.758 705.613L737.891 705.64L737.996 705.738L738.074 705.761L738.183 705.781L738.261 705.73L737.874 705.507L737.694 705.398L737.631 705.156L737.756 704.793L737.967 704.387L738.065 704.102L738.143 704.028L738.112 703.676L738.292 703.461V703.352L738.206 703.305L738.362 703.207L738.307 703.004L738.229 702.02L738.096 701.348L737.979 701.035L737.881 701.043L737.795 701.086L737.615 701.023L737.205 701.132L736.85 701.152L736.6 701.093L736.432 701.034L736.213 700.936H736.01L735.662 700.944H735.361L735.166 700.721L735.025 700.604L734.88 700.682L734.833 700.811L735.142 701.209L735.025 701.248L734.951 701.15L734.834 701.17L734.654 701.295L734.228 701.354L733.919 701.307L733.935 701.159L733.732 701.12L733.826 700.538L733.701 700.518L733.592 701.065L733.205 700.995L733.221 700.827L733.143 700.995L732.936 700.944L732.897 701.132H732.764L732.592 701.054L732.467 700.945L732.369 700.89L732.205 700.792L732.049 700.479L731.928 700.057L731.756 699.901L731.369 699.522L731.127 699.338L730.971 699.252L730.826 699.182H730.654L730.482 699.123L730.197 698.978L729.97 698.79L729.904 698.685V698.607L729.709 698.634L729.725 698.548L729.491 698.208L729.362 698.02L729.268 697.836L729.159 697.629L729.081 697.438L728.726 697.34L728.402 697.125L727.972 696.773L727.499 696.277L727.128 695.656L726.952 695.293L726.624 694.719L726.401 694.215L726.268 693.754L726.205 693.277L726.221 692.867L726.291 692.664L726.252 692.418L726.189 692.098L726.236 691.758L726.299 691.535L726.268 691.191L726.096 690.832L725.963 690.578L725.852 690.224L725.797 689.853L725.852 689.658L725.875 689.388L725.742 689.173L725.578 688.993L725.508 688.927L725.461 688.693L725.387 688.49L725.27 688.295L725.114 688.107L724.876 687.806L724.751 687.72L724.579 687.622L724.388 687.544L724.122 687.524L723.876 687.555L723.712 687.621L723.427 687.816L723.216 687.933L722.997 688.011L722.813 688.058L722.442 687.865L722.231 687.72L721.95 687.661L721.696 687.622L721.516 687.563L721.286 687.536L721.106 687.653L720.973 687.766L720.758 687.934L720.524 688.137L720.309 688.262L719.938 688.399L719.571 688.45L719.231 688.489L718.965 688.548L718.789 688.568L718.492 688.541L718.168 688.557H717.875H717.797L717.758 688.694L717.719 688.811L717.633 688.862L717.563 689.018L717.309 689.077L717.075 689.175L716.915 689.308L716.86 689.39L716.704 689.503L716.462 689.581L716.278 689.561L715.719 689.6L715.145 689.358V689.174V688.986L715.059 688.685L714.914 688.4L714.797 688.013H714.727L714.633 688.06L714.805 688.49L714.942 688.654L714.965 688.732L714.899 688.83L714.711 688.908L714.531 688.947H714.379L714.277 688.771L714.308 688.666L714.394 688.596L714.371 688.471L714.051 688.557L714.145 688.713L714.161 688.822L714.091 688.927L713.958 689.005H713.798H713.65L713.587 688.849L713.532 688.693L713.427 688.685L713.239 688.744L713.161 688.896L713.098 689.173L713.082 689.462L713.059 689.591L712.907 689.708L712.743 689.767L712.516 689.884L712.192 690.087L711.657 690.329L711.395 690.399L711.168 690.379L710.781 690.301L710.617 690.281L710.324 690.183L710.191 690.105L710.043 690.132H709.898H709.71H709.585L709.429 690.066L709.308 690.058L709.214 690.132L709.073 690.124L708.874 690.093H708.694L708.569 690.21L708.46 690.378L708.315 690.444L708.073 690.522L707.932 690.542L707.881 690.718L707.818 690.796L707.693 690.835L707.236 690.921L706.963 690.933L706.631 690.98L706.385 691.031L706.104 691.051L705.956 691.012L705.866 690.836L705.874 691.012L705.811 691.117L705.694 691.207L705.393 691.352L705.323 691.286L705.354 690.981L705.409 690.7L705.128 690.497H705.05L705.058 690.571L705.144 690.661L705.222 690.759L705.261 690.876L705.191 691.255H704.996L704.766 691.247L704.524 691.255L704.309 691.189L704.278 691.041L704.215 691.111L704.106 691.138L703.758 691.158L703.379 691.033L703.082 690.994L702.891 691.041L702.68 691.033L702.547 690.943L702.418 690.982L702.277 691.119L702.168 691.092L701.789 691.1L701.703 691.034L701.601 691.042L701.214 690.886L700.843 690.683L700.577 690.527L700.401 690.277L700.174 690.062L699.955 689.972L699.662 689.855L699.307 689.691V689.601L699.19 689.515L698.889 689.39L698.616 689.308L698.522 689.292L698.401 689.39L698.315 689.367L698.206 689.293L697.827 689.23L697.702 689.093L697.347 688.452L697.269 688.257L697.214 687.976L697.183 687.722L697.081 687.488L696.933 687.363L696.812 687.215L696.796 687.149L696.276 686.817L696.073 686.758L695.889 686.633L695.616 686.535L695.436 686.387L695.323 686.301L695.221 686.145L694.979 685.961L694.842 685.891L694.764 685.766L694.67 685.754L694.49 685.793L694.33 685.852L693.947 685.95L693.654 685.962L693.244 685.88L692.931 685.728L692.622 685.56L692.36 685.435L692.126 685.279L691.938 684.986L691.786 684.724L691.684 684.556L691.567 684.501H691.45L691.173 684.419L691.017 684.372L690.818 684.403H690.607L690.384 684.344L690.165 684.285L690.048 684.246L689.923 684.129L689.81 684.117L689.599 684.332L689.521 684.586L689.427 684.945L689.376 685.172L689.212 685.277L689.048 685.394L688.939 685.46L688.802 685.519L688.614 685.726L688.497 685.89L688.427 685.976L688.142 686.124L687.915 686.116L687.724 686.221L687.497 686.287L687.235 686.318L687.087 686.306L687.001 686.22L686.923 686.052L686.771 685.958L686.669 685.907L686.63 686.063L686.708 686.188L686.833 686.258L686.938 686.356L686.872 686.512L686.993 686.746L686.938 686.832L686.567 687.035L686.63 687.152L686.442 687.281L686.11 687.445L685.833 687.582L685.614 687.602L685.411 687.543L685.227 687.406L685.188 687.484L685.118 687.535L684.708 687.445L684.29 687.347L684.134 687.308L683.978 687.21L683.826 686.976L683.74 687.027V687.211V687.359L683.857 687.464L684.033 687.569V687.725L684.088 688.057L683.811 688.35L683.413 688.76L683.136 688.955L682.964 689.021L682.687 688.943H682.523L682.324 688.955L682.09 689.041L681.902 689.1L681.781 689.256L681.593 689.576L681.429 689.724L681.284 689.829L681.182 689.782L681.002 689.809L680.908 689.887L680.623 689.867L680.314 689.859H680.15L679.939 689.914H679.693L679.451 689.809H679.353H679.189L679.111 689.723L678.916 689.653L678.779 689.673L678.615 689.724L678.506 689.869L678.404 690.103L678.252 690.326L678.244 690.463L678.041 690.619L677.947 690.795V691.135L677.826 691.244L677.568 691.4L677.298 691.447L676.907 691.513L676.52 691.525H676.36H676.266L675.809 691.478L675.661 691.271L675.442 691.205H675.321L675.173 691.291L675.087 691.428L675.079 691.553L674.946 691.709L674.786 691.787L674.622 691.955L674.442 692.217L674.36 692.354L673.985 692.647L673.794 692.795L673.567 692.897L673.442 692.96L673.235 693.019L673.079 692.988L672.825 693.164L672.786 693.262L673.141 693.934L673.282 694.352L673.395 694.547L673.606 694.86L673.872 695.122L674.056 695.259L674.29 695.736L674.63 696.506L674.907 696.936L674.938 697.034L674.497 697.843L674.032 698.468L673.458 699.335L673.079 699.878L672.856 700.296L672.575 700.882L672.079 701.652L671.708 702.246L671.22 702.898L670.868 703.222L670.165 703.941L669.899 704.16L669.52 704.476L669.204 704.613L669.079 704.73L668.907 704.867L668.598 705.043L668.496 704.957L668.402 704.887L668.281 705.063L668.031 705.278L667.738 705.473L667.582 705.618L667.605 705.716L667.496 705.853L666.793 706.337L666.109 706.798L665.527 707.079L665.093 707.255L664.808 707.314L664.62 707.294L664.386 707.021L664.218 706.923L664.148 706.845L663.847 706.825L663.691 706.837L663.402 706.575L663.32 706.563L663.289 706.661L663.219 706.837L663.403 707.157L663.52 707.45L663.661 707.743L663.891 707.954L664.071 708.102L664.149 708.168L664.118 708.363L664.45 708.414L664.731 708.5L664.915 708.492L665.458 708.48L665.638 708.335L665.63 708.167L665.552 708.151L665.404 708.069V707.897L665.513 707.756L665.677 707.779L665.947 707.982L666.095 708.224L666.396 708.197L666.404 707.865L666.291 707.756L666.236 707.604L666.142 707.565L666.427 707.377L666.63 707.779L666.818 707.943V708.119L666.623 708.283L666.631 708.556L666.592 708.732L666.819 708.869L667.003 708.978L666.894 709.669L666.277 709.743L666.183 709.54L666.339 709.423L666.484 709.403V709.305L666.214 709.18L666.05 709.082L665.956 708.855L665.788 708.757H665.593L664.554 709.011L664.585 709.109L665.065 709.035L665.237 709.129L665.276 709.422L665.268 710.008L665.229 710.434L665.065 711.149L664.87 711.758L664.624 712.406L664.262 713.224L663.926 713.837L663.578 714.392L663.074 715.201L662.687 715.689L662.316 716.513L661.507 718.103L661.073 718.904L660.819 719.369L660.358 720.217L660.299 720.51L660.166 720.705L659.861 720.971L659.459 721.448L659.33 721.62L659.111 721.749L659.174 721.983L659.338 722.155L659.291 722.585L659.197 723.026L659.009 723.491L658.876 723.815L658.7 724.104L658.645 724.409L658.692 724.71L659.18 725.819L659.403 726.151L659.575 726.51L659.403 726.928L658.653 728.225L657.868 729.51L657.329 730.213L656.677 730.955L656.048 731.451L655.521 731.994L655.041 732.592L654.381 733.408L654.104 733.709L653.909 733.768L653.694 733.721L653.592 733.807L653.647 733.963L654.034 734.322L654.065 734.595L654.073 734.927L654.034 735.103L653.878 735.259L653.964 735.611L654.105 735.775L654.351 735.834L654.632 735.67L655.011 735.49L655.523 735.213L655.796 734.822L655.933 734.502L655.87 734.158L656.136 733.845L656.671 733.439L657.206 733.205L657.663 733.029L658.308 732.931L659.128 733.001L659.71 733.185L660.175 733.369L660.941 733.838L661.562 734.268L661.988 734.405L662.679 734.608L663.159 734.581L663.995 735.186L664.292 735.213L664.878 735.252L665.3 735.26L665.562 735.416L665.812 735.689L666.183 735.677L666.57 735.482L666.863 735.337L667.254 735.474L667.469 735.482L667.711 735.611L668.043 736.088L668.309 736.826L668.383 737.674L668.309 738.385L668.215 738.655L668.145 738.909L667.844 739.236Z" fill="black"/>
<path d="M786.797 752.666L787.82 753.15L788.992 754.025L790.152 753.201L791.129 752.615L791.859 752.564L792.64 752.615L795.12 751.154L796.44 750.228L797.85 749.447L799.12 749.252L800.772 750.033L801.897 749.986L802.67 749.791L803.693 748.572L804.966 748.963L806.376 747.986H807.251L808.028 748.279L808.469 748.037L807.934 747.307L808.274 746.186L808.856 746.041L809.731 746.674L810.172 746.721L810.707 744.237L811.195 743.362L812.414 743.264L812.855 743.116L815.093 741.948L815.484 741.171L816.597 740.925L818.406 739.515L819.179 739.464L818.894 737.519L819.281 736.593L818.453 736.054L817.621 735.956L816.652 735.081H815.429L814.699 735.226L813.187 734.496L812.902 732.695V731.625L812.265 733.086L811.824 733.668L810.902 733.91L810.468 734.254L809.636 734.203L809.39 734.351L809.101 735.714L809.39 737.273L808.515 739.418L808.171 740.004L806.714 740.051L805.933 740.149L805.644 741.997L803.988 741.899L803.406 741.754L803.109 740.246L802.816 739.906L802.234 740.39L801.644 741.706L800.085 743.167L798.87 744.823L797.413 745.503L796.241 745.796L794.491 745.456L793.706 745.018L792.589 746.135L791.226 746.916L790.054 747.111L788.691 746.627L787.816 745.943L786.839 745.502L787.179 747.26L787.574 749.155L787.281 750.569L787.086 751.397L786.797 752.666Z" fill="black"/>
<path d="M772.891 712.97L772.977 712.892L773.395 712.501L773.805 711.88L774.215 711.489L774.41 711.141L774.488 710.805L774.664 710.68L775.051 710.582L775.024 710L776.044 709.461L776.513 709.539H776.978L777.435 709.637L777.9 710.145L778.193 710.731L778.506 711.723L778.467 712.629L778.58 713.086L778.728 713.359L779.017 712.968L779.185 712.48L779.044 711.703L778.821 711.14L778.993 710.581L779.696 710.065L780.481 709.87L781.618 709.218L781.938 709.093H782.309L782.836 709.12L782.891 708.847L783.672 708.558L783.891 707.953L784.176 707.172L784.649 706.656L785.372 706.363L786.052 706.218L786.634 706.12H787.025L787.588 706.14L788.033 706.12L788.193 705.878L788.002 705.194L787.768 704.639L787.28 703.83L787.053 703.635L787.217 702.885L787.01 702.272L786.619 701.881L786.107 701.686L785.451 701.592H784.201L783.209 701.541H782.604L782.381 701.658L781.549 701.396L781.018 701.072L780.334 700.74L780.002 700.224L779.83 700.126L779.728 700.548L779.876 701.032L779.532 701.13L779.434 701.325L778.579 701.548L777.993 701.618L777.466 701.645L777.025 701.715L776.341 701.59L775.829 701.254L775.27 700.77L774.836 699.911L774.324 699.016L774.058 698.645L774.121 698.18L773.906 697.867L773.664 697.691L773.449 697.847L773.496 699.035L773.766 699.961L773.789 700.449L773.496 700.769L772.851 701.304L772.144 701.675L771.757 701.937L771.71 702.375L771.562 702.523H771.371L771.152 702.785L771.418 703.301L771.781 704.227L771.758 704.793L771.742 705.398L771.488 706.351L771.152 707.003L770.812 707.46L770.457 707.683L770.082 707.851L769.844 708.093L769.379 709.019L769.184 709.769L769.325 710.257L770.009 710.628L770.572 710.898L770.963 710.918L771.272 711.113L771.69 711.914L772.018 712.918L772.405 713.082L772.891 712.97Z" fill="black"/>
<path d="M868.184 806.486L869.844 806.728L871.301 806.923L872.176 806.435L873.156 806.29L873.937 806.485L874.371 807.262V807.7L873.836 807.848L873.645 808.239L874.176 808.384L874.52 808.724L874.668 809.162L875.246 809.603L875.93 808.919L876.52 808.724L876.465 808.24L876.418 807.752L876.758 806.971L877.637 806.78L878.27 806.729L879 806.631L879.684 806.584L880.024 806.291L880.512 806.584L880.606 807.264L880.172 807.412L879.922 807.654L880.125 808.142L880.363 808.775L880.898 808.627L881.433 808.92L881.773 809.408L881.628 810.138L881.093 810.189L880.945 810.38L881.238 811.208L882.07 811.747L882.843 811.11L882.796 810.38L883.046 809.505L884.355 809.454L884.89 809.309L885.675 809.161L886.644 809.505H887.765L888.347 809.259L888.788 808.435V807.798L887.085 808.091L886.253 808.482H885.765L885.14 807.505L884.55 806.435L883.386 805.997L881.628 805.657L880.605 805.364L880.023 805.559L878.804 805.168L877.781 805.266L876.66 805.071L875.883 805.122L875.199 804.829L874.519 804.927L873.937 804.489L872.914 803.852L872.324 803.122L872.086 802.833H871.402L871.207 802.978L871.645 803.22L871.356 804.048L871.11 804.392H870.426L869.844 804.685L869.356 805.169L868.969 805.607L868.184 806.486Z" fill="black"/>
<path d="M811.137 763.138L811.153 763.72L811.883 764.107L813.781 762.794L815.097 761.817L815.976 762.11L816.898 762.403L818.898 762.11L819.773 762.352H820.16L821.332 761.235L822.062 760.602L822.449 760.114L823.472 759.969L824.062 759.43L824.199 758.41L824.984 757.68L825.324 757.047L824.543 756.949L824.063 757.582L823.719 758.215L823.324 758.848L821.961 759.528L820.797 759.481L820.016 759.188L819.582 759.481L819.672 760.407L819.481 760.845L818.411 760.65L817.97 759.63L817.728 759.528L817.138 760.747L816.56 761.235L814.56 761.333L813.537 760.649L812.568 759.629L812.611 760.067L812.861 761.137L812.658 761.867L811.736 762.5L811.137 763.138Z" fill="black"/>
<path d="M830.033 765.166L830.744 764.58L831.619 764.213L832.404 764.162L833.131 764.326L833.768 764.697L833.831 765.263L834.601 765.622L835.554 765.888L836.296 765.849L837.081 765.478L837.909 765.38L838.901 765.525L840.241 765.205L840.05 764.877L839.956 764.619L839.854 764.357H839.674L839.319 764.162L838.374 763.822H838.081L837.397 763.92L836.932 763.869L836.443 763.677L836.072 763.529L836.056 763.802L835.806 764.232L835.568 764.326L835.103 764.291L833.994 763.939L833.443 763.775L833.017 763.353L832.497 762.994L832.04 762.537L831.688 761.99L831.301 761.631L831.16 762.049L831.008 762.557L830.598 762.87L830.285 763.065L829.719 763.139L829.504 763.432V763.94L829.574 764.456V764.944L829.765 765.206L830.033 765.166Z" fill="black"/>
<path d="M769.128 720.423V719.45L769.616 718.52L770.346 717.743V717.161L770.448 716.184L770.245 715.793L769.858 716.379L769.323 716.477H768.593L768.253 715.938L767.472 715.551L766.984 715.063L766.593 714.481L766.402 714.188L766.449 714.918L766.844 715.402L767.426 715.988L767.571 716.621L767.278 717.254L766.985 717.598L766.594 717.793L767.278 718.035L767.473 718.668L767.571 719.738L767.766 720.324L768.348 720.519L769.128 720.423Z" fill="black"/>
<path d="M808.797 717.595L808.969 718.064L809.324 718.197L809.914 718.49L810.551 718.568L810.742 718.978L811.129 718.939L811.543 718.587L811.617 718.372L812.222 718.548L812.449 718.88L812.472 719.521L812.609 719.658H812.906L813.277 719.053L813.062 718.713L813.175 718.588L813.448 717.518L813.417 716.834L813.323 716.475L813.471 716.28L813.323 716.104L813.448 715.522L813.55 715.034L813.394 714.761L813.253 714.792L813.394 714.3L813.253 713.882L813.062 714.011L812.734 713.667L812.574 713.944L812.496 714.35L812.594 714.889L812.672 715.737L812.711 716.417L812.688 717.097L812.317 717.324L811.766 717.547L811.348 717.469L811.129 717.224L810.789 717.001L810.527 717.06L810.254 716.931L809.813 716.767L809.688 717.076L809.262 717.158L808.907 717.416L808.797 717.595Z" fill="black"/>
<path d="M873.125 828.306L873.543 828.431H873.961L874.078 828.044L874.101 827.751L874.253 827.771L874.519 827.849L874.874 828.259L875.101 828.333L875.976 828.142L876.535 827.986L876.402 827.72L876.433 827.525L876.636 827.283L876.534 827.185L876.788 826.65L876.636 826.486L876.71 826.115L876.952 825.92L876.686 825.674L876.147 825.529L875.733 825.451H875.131L874.549 825.51L873.998 825.647L873.541 826.116L873.611 826.554L873.572 826.945L873.447 827.383L873.314 827.696L873.125 828.306Z" fill="black"/>
<path d="M832.641 769.908L833.254 769.717L834.008 769.666L834.528 769.307L834.758 769.084L834.395 768.334L834.247 767.865L833.938 767.525L833.278 767.298L832.743 767.161L832.419 766.841L832.208 766.599H831.915L831.735 766.81L831.837 767.201L832.11 767.428L832.598 767.494L832.641 767.912L832.614 768.205L832.286 768.467L832.208 768.74L832.032 768.76H831.798H831.474H831.115L830.822 768.787L830.666 768.935L830.451 769.306L830.529 769.521L830.728 769.763L831.208 769.931L831.474 769.693L831.892 769.716L832.224 769.79L832.641 769.908Z" fill="black"/>
<path d="M812.52 772.47L811.938 773.099L812.153 773.462L812.86 773.657L813.489 773.266L814.216 772.922L814.806 772.582L815.099 771.949L814.704 771.023L814.216 770.73L813.915 771.152L813.688 771.59L813.379 772.028L813.106 772.333L812.52 772.47Z" fill="black"/>
<path d="M804.09 729.791L804.153 730.111L804.45 730.338L804.798 730.065L805.13 729.53L805.31 728.971L805.287 728.135L805.092 727.608L804.94 726.967L804.776 726.733L804.604 727.315L804.428 728.311L804.217 729.088L804.09 729.791Z" fill="black"/>
<path d="M807.496 727.259L807.742 727.286L808.152 726.946L808.402 725.852L808.246 725.465L808.016 725.582L807.743 725.988L807.567 726.574L807.496 727.259Z" fill="black"/>
<path d="M808.474 756.736L809.009 756.463V756.025L808.798 755.607L808.575 755.537L808.247 755.76L808.114 756.092L808.016 756.51L808.474 756.736Z" fill="black"/>
<path d="M806.435 771.63L806.611 771.337L806.521 771.017L806.216 770.736L805.992 770.627L805.641 770.811L805.703 770.967L805.52 771.221L806.128 771.709L806.435 771.63Z" fill="black"/>
<path d="M809.324 720.154L809.844 720.177H810.254L810.449 720.349L810.625 720.154L810.742 719.716L810.551 719.521L810.231 719.474L809.883 719.767L809.324 720.154Z" fill="black"/>
<path d="M813.488 728.728L813.812 728.97L814.097 728.728V728.259L813.906 727.833L813.679 727.579L813.609 727.411L813.679 728.22V728.533L813.488 728.728Z" fill="black"/>
<path d="M805.938 731.834L806.114 732.08L806.45 731.381L806.72 730.717L806.474 730.815L806.208 731.155L806.056 731.448L805.938 731.834Z" fill="black"/>
<path d="M830.852 773.318L831.215 772.916L830.992 772.83L830.535 773.072L830.449 773.412L830.574 773.56L830.852 773.318Z" fill="black"/>
<path d="M816.246 731.068L816.285 731.381L816.535 731.865L816.773 731.982L816.796 731.72L816.632 731.474L816.534 731.454L816.246 731.068Z" fill="black"/>
<path d="M809.813 710.318V710.56L810.008 710.9L810.137 710.63L810.106 710.462L809.766 709.946L809.813 710.318Z" fill="black"/>
<path d="M808.52 720.595L808.868 720.544L809.161 720.204H808.907L808.648 720.235L808.52 720.399V720.595Z" fill="black"/>
<path d="M813.602 730.357L813.899 730.435L813.821 729.947L813.68 729.916L813.602 730.357Z" fill="black"/>
<path d="M653.258 46.173H642.633L643.035 45.657L643.16 44.743L644.269 43.294L645.656 41.298L646.965 38.888L647.633 38.474L649.656 38.341L650.64 38.599L651.828 39.329L652.887 39.591L653.492 40.798L655.035 40.923L655.191 41.978L655.128 43.017L654.663 43.568L653.585 44.806L653.245 45.65L653.258 46.173Z" fill="black"/>
<path d="M695.926 46.173H654.488L654.484 46.146L654.703 45.576L655.348 44.853L655.782 44.38L655.845 43.341L656.06 43.196L656.232 42.926L656.408 42.664L656.424 42.09L656.295 41.801L656.311 41.367L656.518 41.144L656.424 40.761L656.217 40.281L655.881 39.707L655.912 38.684L655.998 38.301L656.123 37.821L655.935 37.563L655.966 36.606L656.849 36.477L657.224 36.668L657.587 36.477L658.224 36.414L658.927 36.762L659.2 37.114L659.462 36.739L660.845 37.036L661.271 37.786L663.642 36.665L663.454 36.114L663.95 35.68L664.88 35.332L665.493 35.102L666.485 35.012L667.114 35.504L668.192 36.895L668.934 37.067L669.735 36.805L670.391 36.371L671.168 36.027L671.773 35.16L671.933 34.347L672.956 34.261L673.37 32.929L673.034 32.843L673.12 32.12L673.37 31.975L673.507 30.299L673.812 30.092L674.144 29.834L674.277 29.229L674.523 28.995L674.773 28.53L675.05 27.983L675.437 27.174L675.246 25.928L675.082 25.323L674.695 25.264L674.222 25.639L673.347 26.045L672.925 26.565V27.03L673.175 27.432L673.554 28.073L673.12 28.995L672.608 29.421L672.276 30.417L672.206 31.765L672.507 32.578L672.308 33.078L671.46 32.828L670.788 32.332L670.546 31.836L670.042 31.871L669.94 33.078L670.346 33.394L670.315 33.929L670.042 34.355L669.538 34.601L669.026 34.386L668.796 33.82V33.078L668.624 32.547L668.694 31.516L667.85 30.453L667.276 30.914L667.135 31.801L667.174 32.578L667.065 33.289L666.53 33.394L665.819 33.539L666.089 32.262L666.491 31.09L666.901 30.348L667.206 30.039L667.39 29.484L667.035 29.129L666.742 29.172L666.64 29.5L666.081 29.488L665.671 29.406L665.374 29.586L665.089 29.816L664.632 29.746L664.546 28.984L664.648 28.691L664.925 28.226L665.12 27.913L665.237 27.436L665.444 27.026L666.01 26.596L666.459 26.186L666.639 25.846L667.577 25.28L668.362 24.975L669.382 24.772L670.089 24.573L670.468 24.366L671.39 24.307L671.71 24.073L672.12 23.565L672.561 23.245L673.135 23.175L673.865 23.273L674.826 23.332L675.631 23.387L675.885 23L676.916 23.031L678.74 24.426L679.678 25.344L680.475 26.407L680.686 27.095L681.561 27.919L682.276 28.478L682.585 29.361L683.679 30.158L684.749 30.709L685.128 31.455L685.78 32.705L687.19 34.494L687.924 35.471L689.709 37.147L691.018 38.67L691.584 39.193L692.436 40.271L693.065 41.384L693.901 42.279L694.315 43.213L694.702 44.096L695.276 44.932L695.905 45.905L695.926 46.173Z" fill="black"/>
<path fill-rule="evenodd" clip-rule="evenodd" d="M694.274 43.115H656.11L656.056 43.197L655.841 43.342L655.778 44.381L655.344 44.854L654.699 45.577L654.48 46.147L654.55 47.776L654.851 48.749L655.519 50.741L656.355 52.292L656.953 53.269L657.512 53.656L657.7 54.437L656.087 54.691L654.97 54.007L654.907 53.487L654.692 52.999L654.598 52.284L654.235 52.186L654.079 51.827L653.802 51.311L653.646 50.854L654.08 50.561L654.236 50.006L653.802 49.943L653.892 49.228V48.314H653.212L652.591 48.38L652.841 48.122L653.118 47.634L653.274 46.919L653.243 45.649L653.583 44.805L654.661 43.567L655.044 43.114H644.388L644.267 43.294L643.158 44.743L643.033 45.657L642.349 46.532L641.962 46.774L641.583 47.544L640.474 48.739L640.22 49.645L639.915 50.469L639.356 50.68L639.172 51.493L637.844 53.04L636.809 54.267L635.496 55.154L634 56.158L633.227 56.346L632.141 57.108L631.473 57.569L631.266 57.944L630.45 58.268L630.118 58.776L629.204 59.799L628.899 60.037L628.426 60.154L628.297 61.072L628.133 61.517L628.668 62.13L628.844 62.708L629.512 63.286L629.93 63.712L630.227 63.845L630.551 64.154L630.875 64.799L631.488 65.006L632.66 65.858L634.133 66.928L636.242 68.444L637.031 69.292L638.41 70.179L640.582 72.019L642.32 73.55L642.707 73.905L643.684 74.499L644.77 75.659L647.219 78.722L648.41 80.406L648.512 80.761L649.211 81.597L650.117 83.757L651.023 85.851L651.675 87.824L652.093 89.543L652.046 89.984L652.401 90.152L653.014 91.867L652.944 94.203L653.046 94.816L653.441 96.578L653.488 97.98L654.156 99L655.289 100.297L656.777 101.621L658.808 103.492L660.187 104.715L660.914 105.57L662.023 106.586L662.953 108.039L663.371 109.391L664.055 110.782L664.817 112.887L665.52 115.578L665.977 118.183L666.243 121.175L666.536 122.866L666.669 124.487L666.786 127.94L667.266 131.495L667.411 132.225L667.204 132.854L667.606 133.975L668.258 136.733L669.102 139.421L669.489 141.394L669.802 142.277L669.876 143.215L669.731 144.762L669.52 147.211L669.102 150.359L668.567 153.351L668.063 155.511L667.739 156.632L667.364 157.687L667.173 158.777L666.946 161.207L667.36 163.172L666.899 165.328L666.352 167.058L665.661 169.374L665.364 170.194L664.653 172.471L663.598 174.748L661.985 177.502L660.321 182.178L659.251 185.815L658.599 188.385L658.275 190.319L657.986 192.018L657.9 193.76L657.802 195.131L657.915 196.373L657.962 197.287L658.962 198.674L660.009 199.506L660.868 199.932L661.876 199.944L662.923 200.034L664.15 199.514L665.466 198.522L666.739 197.69L669.552 195.983L672.693 193.647L677.654 190.495L682.623 188.108L686.213 186.194L688.924 185.514L690.819 185.147L693.315 185.112L696.042 185.561L698.308 185.795L699.339 186.002H701.323L702.378 186.022L703.144 187.045L702.914 187.565L701.918 187.647L702.113 188.585L702.672 188.374L703.422 187.542L705.113 187.585L706.64 189.394L707.89 189.894L709.097 190.664L710.128 190.727L710.921 191.766L711.491 192.204L713.042 193.763L714.175 194.47L714.214 194.888L715.898 195.115L717.765 196.22L718.16 196.802L718.949 196.97L720.914 198.236L722.379 198.861L723.813 199.943L725.153 201.42L726.411 203.018L727.403 204.737L728.13 205.624L728.907 206.362L729.665 206.717L730.821 207.33L731.962 207.533L733.478 208.572L734.666 209.467L737.334 209.49L739.697 209.142L742.209 209.072L743.303 209.427L745.483 210.486L748.87 212.232L750.659 213.681L753.007 215.372L755.054 217.243L757.46 219.552L759.003 221.779L761.187 225.482L762.234 227.416L763.265 229.432L764.421 232.35L765.218 234.776L765.573 236.956L765.534 238.933L765.421 239.73L765.14 240.695L765.085 241.597L764.987 242.163L765.003 243.261L765.413 243.156L766.507 241.746L767.667 240.086L768.194 239.316L768.729 239.054L769.116 237.835L769.682 235.917L770.233 234.89L770.557 234.421L771.084 233.933L771.627 233.484L772.729 232.855L773.729 231.968L775.178 231.113L776.588 231.437L778.947 231.703L781.541 231.922L782.861 232.078L783.986 232.101L784.939 232.167L785.884 232.163L786.564 232.179L787.146 232.64L788.556 232.769L789.744 233.109L790.217 234.207L791.545 234.187L793.69 235.429L795.792 236.55L797.062 237.331L798.886 239.144L799.941 240.792L800.367 241.343L800.683 242.003L800.98 242.901L801.351 243.288L802.078 243.378L802.996 243.96L803.57 243.554L803.972 242.964L804.281 242.378L804.297 241.565L803.414 240.752L802.273 240.744L802.132 239.963L801.816 239.631L801.406 239.256L801.093 238.955L800.452 238.834L800.667 238.314L800.358 237.697L799.753 237.4L799.722 236.845L799.706 236.259L799.507 235.607L799.069 234.755L799.225 233.935L799.147 233.267L799.838 233.064L799.604 232.052L799.698 231.107L799.651 230.107L800.288 229.435L800.612 228.853L799.815 228.279L799.077 227.963L798.366 227.252L797.35 226.143L796.877 224.674L796.498 223.029L796.381 221.81L796.334 220.205L797.24 218.447L798.435 217.158L799.025 216.322L799.396 215.908L799.474 214.513L799.728 213.849L800.076 213.177L800.154 212.458L800.287 211.626L800.185 210.821L799.837 210.133L799.595 209.57L799.232 209.129L799.064 208.496L799.068 206.75L798.798 205.055L798.528 203.125L798.114 201.969L797.993 200.317L797.829 198.661L798.13 197.657L799.001 196.856L799.774 196.469L800.442 195.801L801.032 195.199L801.665 194.523L801.649 193.171L801.294 192.382L801.302 191.609L801.294 190.671L801.544 190.14L801.876 189.523L802.114 189.121L802.184 188.308L802.481 187.785L803.075 187.133L803.473 186.289L804.184 185.832L804.325 185.32L804.419 184.961L804.106 184.527L803.93 183.39L804.008 182.886L803.844 182.366L804.063 181.964L803.977 180.941L804.586 180.242L805.098 179.457L805.301 178.684L804.852 177.657L804.528 176.915L804.348 175.954L804.387 174.884L804.528 173.525L804.536 172.291L804.513 171.834L804.806 171.506L804.775 171.174L804.634 170.963L804.642 169.787L804.404 169.666L804.467 168.475L803.729 167.209L803.194 167.127L802.893 166.615L802.413 166.326L801.995 165.588L801.698 164.678L801.682 163.647L801.405 163.213L801.682 163.084L801.58 162.67L801.568 161.107L801.728 160.615L801.665 158.342L801.513 157.815L801.529 156.311L801.326 155.163L801.041 154.03L800.783 153.335L800.537 152.409L800.115 151.354L799.775 150.682L799.349 150.174L798.884 149.401L798.521 148.592L798.287 147.252L798.201 145.025L798.373 144.802L798.31 143.845L797.83 143.513L797.467 143.04L797.201 142.294L797.041 141.708L796.877 140.966L797.869 140.63L797.744 140.095L797.389 139.572L796.791 139.494L796.689 138.943L796.544 137.884L796.075 136.103L795.169 135.423L795.192 134.056L794.758 133.005L794.977 132.247L794.711 131.513L794.121 130.716L793.68 129.618L792.617 127.743L791.168 125.337L790.215 122.442L788.774 121.481L788.067 119.758L787.34 118.949L786.93 118.164L786.317 117.699L785.704 116.558L784.868 114.894L784.513 114.124L783.224 113.245L782.587 112.706L782.075 111.862L781.548 111.186L780.696 110.604L779.977 109.823L779.075 108.921L778.442 107.983L777.325 107.174L775.923 106.166L774.208 104.318L773.325 103.287L772.759 103.228L771.72 101.564L771.169 100.888L770.673 99.872L770.036 98.509L769.571 97.431L768.563 96.857L767.657 96.474L767.098 96.408L766.711 96.615L765.813 96.51L765.262 95.987L764.09 95.007L762.27 93.687L759.969 91.886L758.977 90.972L758.735 90.265L758.176 89.531L758.129 88.636L758.199 87.96L757.191 87.03L756.144 85.921L755.394 85.616L754.609 84.811L754.066 84.268L752.804 83.459L752.152 82.756L751.867 81.943L750.57 79.904L749.843 78.494L749.773 77.646L749.394 76.712L748.539 76.407L748.199 75.923L747.609 74.759L747.515 73.845L747.027 72.775L746.027 71.525L744.757 70.4L743.128 69.42L742.812 68.889L742.199 68.826L741.074 67.388L740.238 65.486L740.09 65.041L739.035 64.338L738.379 63.912L737.922 63.224L737.578 62.512L737.316 61.75L737.035 61.324L737.223 60.91L736.836 60.344L736.074 59.547L735.578 59.336L735.262 58.688L734.719 58.192L734.348 57.696L733.922 57.524L733.176 57.196L732.309 56.485L731.371 56.911L729.633 56.891L728.957 57.043L728.246 57.082L727.562 56.734L726.749 56.894L725.819 57.078L725.018 57.062L724.424 57.132L723.947 57.98L723.049 59.355L722.576 59.972L721.709 59.702L720.764 60.116L720.018 59.729L719.459 58.999L718.521 58.436L717.416 56.995L716.322 55.753L715.615 54.538L714.873 53.425L714.143 53.136L712.932 52.468L711.369 52.734L710.33 52.871L709.428 53.008L708.858 53.02L708.362 53.278L707.561 53.755L707.276 53.939L706.624 54.033L705.835 54.099L705.663 54.4L704.804 54.74L704.324 55.279L702.918 55.412L702.184 54.736L701.594 54.599L701.16 53.88L700.687 53.345L700.308 52.97L700.23 52.509L699.914 51.993L699.625 51.598L699.309 51.039L699.02 50.441L698.782 49.82L698.333 48.937L697.657 48.773L696.364 47.808L695.966 46.667L695.907 45.905L695.278 44.932L694.704 44.096L694.317 43.213L694.274 43.115ZM679.513 50.599L678.345 52.353L678.54 58.196L679.126 61.899L680.099 65.016L683.802 68.911L688.865 71.837L691.01 72.614L697.049 73.587H699.779L702.115 72.224L704.257 73.784L705.816 75.929L708.543 78.46L711.27 80.214L711.856 76.124L711.075 72.616L712.052 68.913L714.193 69.108L715.947 70.28L717.506 70.085L718.483 68.331L718.678 64.823L720.237 61.12L717.897 60.925L714.975 62.679L712.248 64.042L709.322 63.851L707.959 61.706L706.014 60.343L702.897 59.366H699.584L697.439 60.733L695.294 61.51L693.153 61.901H691.204L690.427 60.147L691.204 58.198L692.177 55.862L692.763 53.717L691.986 51.572L690.232 48.263L688.478 48.845L687.306 49.626L685.556 50.599L683.997 51.572L679.513 50.599Z" fill="black"/>
</svg>
