<svg width="578" height="578" viewBox="0 0 578 578" fill="none" xmlns="http://www.w3.org/2000/svg">
<g clip-path="url(#clip0_103_18)">
<path fill-rule="evenodd" clip-rule="evenodd" d="M225.421 85.6938C226.066 85.5503 227.86 85.2244 228.392 85.8463L228.55 86.2493L228.303 86.6323C227.529 86.754 227.157 87.5374 226.452 87.7469L225.896 87.6791L225.049 86.5775L225.044 86.1981L225.421 85.6938Z" fill="black"/>
<path fill-rule="evenodd" clip-rule="evenodd" d="M104.568 384.47L104.122 386.39C103.771 386.801 102.786 387.868 102.251 388.048L101.129 388.091L100.143 386.997C99.7544 387.182 99.0949 387.317 98.6638 387.24C98.166 386.278 97.2501 385.293 96.4145 384.618L96.6205 384.164L96.1952 383.199L95.4298 383.371C95.1139 383.232 94.2086 382.918 93.8516 383.031L92.6542 383.226L91.5711 385.091L89.7339 385.433L88.6173 384.792C86.8233 385.308 85.2868 385.779 83.4602 386.021L82.9062 385.334C82.6564 385.715 81.7449 386.155 81.3446 386.309C81.3446 386.309 78.9769 387.283 78.5855 387.225C77.704 386.154 75.6142 386.377 74.8122 387.501C74.234 387.711 72.6749 387.4 72.1126 387.253C71.5089 387.816 70.849 388.059 70.0166 388.224C68.6934 387.592 67.8362 386.349 67.4423 384.965C66.9162 384.455 65.7764 383.955 65.0295 384.009L64.3352 381.676C64.0807 381.408 63.476 381.234 63.1165 381.287L62.7387 380.753L63.1824 379.313C62.816 378.127 60.5525 375.756 59.269 375.233C58.9406 374.356 58.1699 373.381 57.455 372.789L57.3609 371.776C56.2397 370.493 54.6998 370.119 53.4675 368.58L53.5036 367.29L53.2018 366.832L51.1914 366.638C50.6731 365.849 50.0092 365.697 49.4484 365.13C48.9779 364.655 48.6486 363.989 48.1884 363.5C47.0893 362.331 44.9365 361.317 43.3877 360.789C42.2557 359.456 41.8667 357.994 40.5859 356.728L40.5924 355.868C40.6923 355.761 41.4145 355.02 41.4418 354.964C41.656 354.522 41.7829 353.639 42.2449 353.376C42.9837 353.258 45.5053 352.948 45.5053 352.948L45.6785 353.608C46.3951 354.007 50.0511 355.936 50.8503 355.929L51.9892 355.669C52.7557 355.493 53.7838 355.473 54.5691 355.58L54.9565 355.027C56.241 354.604 57.3308 355.713 58.3308 356.37L59.1223 355.971L58.7496 354.956C59.2997 355.048 60.364 354.362 60.7417 354.035L64.3055 353.937C64.6035 353.693 64.816 353.473 64.9239 353.081C66.2393 352.731 67.4059 352.591 68.1695 351.461L68.7054 351.339C69.7407 351.953 72.8641 351.536 73.8721 351.125C73.9327 351.101 75.03 350.219 75.1536 350.122C75.9552 349.899 76.2641 350.252 76.933 350.338C77.8268 350.453 80.2132 350.691 80.2132 350.691C80.3004 350.69 81.1453 350.478 81.2834 350.446C81.8003 349.6 82.3561 349.209 83.1305 348.561C84.0277 348.467 84.9561 348.322 85.8551 348.277C86.4574 348.246 86.9435 348.434 87.5851 348.264C88.17 346.867 90.1735 347.882 90.9939 348.364L92.803 348.174C93.3888 348.916 94.0648 349.656 94.5938 350.439C95.142 351.25 95.6505 352.323 96.2792 353.057C97.4176 354.386 98.8756 355.497 100.046 356.803C100.617 357.44 100.853 358.352 101.56 358.914C101.308 360.651 102.755 360.893 103.064 362.138L104.512 362.679C104.715 362.747 104.947 363.034 104.991 363.239C104.748 363.295 104.337 363.524 104.225 363.766C104.392 364.602 105.195 365.147 105.534 365.874C105.818 366.482 105.732 367.426 106.332 368.436L106.788 368.743C107.184 371.083 108.589 371.565 108.927 372.654L108.643 373.184C107.702 373.432 105.523 376.411 105.511 376.934L106.088 378.279L105.798 379.619L103.549 380.692C103.853 381.136 103.604 381.94 103.283 382.31C103.387 382.813 104.299 383.421 104.568 384.47Z" fill="black"/>
<path fill-rule="evenodd" clip-rule="evenodd" d="M378.354 427.832C379.332 428.57 381.608 428.867 382.77 428.857L382.823 429.186C381.905 428.94 379.386 430.672 378.72 431.196L378.284 430.843C378.196 429.959 377.886 428.92 377.462 428.138L378.354 427.832Z" fill="black"/>
<path fill-rule="evenodd" clip-rule="evenodd" d="M383.206 428.982C383.779 428.934 384.523 428.255 384.758 427.764L385.193 428.066L385.197 429.457L385.734 430.189L385.533 431.252L385.228 431.38L384.766 430.47C384.316 430.348 383.15 429.512 383.206 428.982Z" fill="black"/>
<path fill-rule="evenodd" clip-rule="evenodd" d="M401.464 433.682C402.446 434.392 403.618 434.177 404.655 433.797L405.293 433.921L406.164 434.753L405.379 436.602C405.599 437.155 405.657 437.913 405.615 438.499C405.489 438.725 405.114 439.157 404.826 439.185C404.286 438.706 403.551 438.454 402.857 438.306C400.946 437.898 399.978 438.653 399.163 440.317L398.756 440.521C398.163 440.341 397.942 440.132 397.476 439.766C397.476 439.766 396.772 437.804 396.704 437.366C395.852 437.025 394.995 436.335 394.86 435.373L396.031 434.838L396.31 434.179L396.77 434.001L397.895 434.781L399.655 434.193L400.548 434.469L401.464 433.682Z" fill="black"/>
<path fill-rule="evenodd" clip-rule="evenodd" d="M282.664 441.139L283.227 441.139L283.685 441.519L283.788 441.823L283.354 442.303L283.098 442.353L282.818 442.05L282.18 441.999L282.153 441.695L282.664 441.139Z" fill="black"/>
<path fill-rule="evenodd" clip-rule="evenodd" d="M254.044 443.892L254.632 444.095L255.143 443.716L255.323 442.856L256.754 442.251L258.489 442.304L259.203 442.735L260.609 442.18L261.603 443.118C262.793 442.872 263.456 441.762 264.131 441.679L264.609 441.591L264.72 441.022C265.456 440.72 265.897 439.896 266.458 439.38C267.44 438.475 268.997 438.266 269.855 437.334C269.908 437.276 270.47 436.253 270.546 436.12L270.878 436.121C270.884 436.879 270.355 437.375 270.365 438.068L271.259 437.715L273.045 437.919L273.709 437.717L275.724 437.971L276.77 438.25C276.77 438.25 278.239 438.71 278.466 438.766C278.69 438.821 279.859 438.86 279.859 438.86L279.706 438.455L280.446 437.697L281.773 437.697L282.156 437.748L281.927 438.304C282.254 439.038 282.239 439.9 281.592 440.455L280.52 441.162L278.81 441.945L277.609 441.945L277.482 440.983L275.799 440.451L274.725 441.917L273.754 442.321L273.193 442.194C272.947 442.423 272.166 442.97 271.788 442.876L270.922 442.091L271.229 441.383L270.77 440.295L269.756 440.45C269.383 440.776 268.555 440.964 268.555 440.964C269.134 440.974 269.293 441.667 269.594 442.115L269.722 442.621C269.241 444.007 267.959 444.945 266.908 445.856L266.347 445.805C265.145 446.088 264.822 448.241 264.479 448.813C264.098 449.45 263.459 450.116 262.996 450.708L262.434 450.834L262.102 450.454L261.642 450.378C261.642 450.378 261.312 451.226 260.72 452.071L259.626 450.881C259.188 450.743 257.994 450.238 257.762 449.791L257.231 447.337L256.159 447.284L255.649 446.702L255.292 446.778L254.958 447.333L254.627 447.409C254.102 447.257 252.595 446.796 252.176 446.444C251.794 445.604 253.465 444.21 254.044 443.892Z" fill="black"/>
<path d="M546.724 470.753C547.103 470.753 547.411 470.447 547.411 470.069C547.411 469.69 547.103 469.384 546.724 469.384C546.345 469.384 546.038 469.69 546.038 470.069C546.038 470.447 546.345 470.753 546.724 470.753Z" fill="black"/>
<path fill-rule="evenodd" clip-rule="evenodd" d="M113.232 389.076L113.615 389.176L113.948 389.706L113.9 390.338L113.747 390.491L113.135 390.24C113.008 390.059 112.921 389.777 112.904 389.558C112.97 389.432 113.113 389.16 113.232 389.076Z" fill="black"/>
<path fill-rule="evenodd" clip-rule="evenodd" d="M116.021 392.254L116.351 392L117.828 391.893L118.494 392.7L118.545 393.054L118.117 394.092L116.918 393.414L116.021 392.254Z" fill="black"/>
<path fill-rule="evenodd" clip-rule="evenodd" d="M159.665 412.762C159.146 413.249 157.517 413.806 157.263 413.94C156.877 414.144 156.312 414.249 155.882 414.389L154.25 414.407L153.844 414.05L152.719 414.5L152.289 413.916C152.528 413.062 151.398 411.241 150.903 410.645L149.681 410.159C148.727 410.466 145.501 410.432 144.813 409.729L144.333 408.867L144.744 408.362C144.955 408.95 145.636 408.62 145.636 408.62L145.893 408.191L145.385 407.632C144.993 407.848 143.92 408.286 143.446 408.153L142.861 407.796C142.525 408.023 141.326 408.667 140.893 408.469C140.4 408.859 138.825 409.888 138.133 409.744L137.827 409.566L136.983 410.067L136.042 409.936L134.369 407.953L134.14 407.977C131.228 406.883 132.215 403.292 130.068 402.362L129.73 403.474L128.551 404.378L128.147 403.92L127.875 402.401C127.238 402.272 126.932 401.763 126.531 401.305L126.484 400.368C125.844 400.07 125.112 399.795 124.502 399.445C124.398 399.386 124.23 399.079 124.123 399.013C123.394 398.565 122.575 398.443 122.067 397.66C122.086 396.967 121.524 395.88 121.087 395.377L121.065 394.744C122.017 394.217 122.347 393.444 123.015 392.681C123.091 392.593 124.851 391.161 124.91 391.123C126.484 390.094 128.396 390.397 130.19 390.141C131.277 389.985 131.583 389.41 132.415 388.989C133.06 388.663 136.906 387.123 137.674 387.12C137.727 387.12 138.798 387.452 138.894 387.481C139.189 387.46 139.579 387.06 139.714 386.827C140.163 386.842 142.736 386.786 142.923 387.097L143.332 386.771C143.332 386.771 144.853 386.481 145.397 386.554C145.948 386.888 146.546 387.208 147.074 387.574C147.191 387.655 148.241 388.134 148.369 388.466L148.187 389.022C148.336 389.35 150.457 390.569 150.829 390.452L150.633 389.009L150.737 388.756L151.12 388.784L152.028 390.382C152.333 390.58 152.853 390.897 153.224 390.768L153.786 390.265L155.109 390.802L155.638 391.918C157.415 391.497 157.542 393.27 158.638 393.552C158.728 393.823 159.05 394.364 159.347 394.466L159.834 394.038C160.214 393.898 161.032 394.253 161.334 394.45C162.427 393.746 163.488 394.749 164.466 395.173C164.951 395.383 165.532 395.503 166.044 395.661L166.885 395.462L167.675 395.795L168.487 396.608L169.946 395.172L170.581 395.478C170.886 395.272 171.533 395.303 171.856 395.433L172.212 395.738C172.399 396.058 172.288 396.739 172.155 397.054L172.46 397.308L173.071 397.31L173.787 396.782C174.272 397.425 174.918 398.414 175.102 399.217C175.819 399.017 175.918 398.957 176.734 399.173L177.115 399.554L177.239 400.061C176.564 401.519 174.411 401.951 173.837 403.033C177.507 403.559 176.672 401.994 179.045 401.131L179.35 401.461L179.168 401.941L179.285 402.316L180.009 402.298L180.824 402.58L181 402.859L180.769 403.137L180.08 403.564L180.257 403.868L181.865 403.545L183.39 404.311L183.621 404.134C184.667 405.057 184.89 406.939 186.72 406.929L186.977 406.298C187.34 406.266 187.934 406.562 188.199 406.783C188.623 407.598 188.986 408.365 189.721 408.965L190.043 411.319C190.01 411.828 188.781 414.041 188.476 414.502C187.956 414.535 186.168 414.535 185.773 414.112C185.108 414.566 183.968 413.691 183.121 413.899L182.588 413.568C182.495 413.616 181.548 414.12 181.515 414.121C177.854 414.205 174.28 414.242 170.624 414.076C170.017 414.049 169.637 413.658 169.174 413.311C168.473 413.332 168.017 413.652 167.618 413.709C167.001 413.796 165.186 414.112 165.116 414.153L164.173 413.922C162.482 414.475 161.052 413.58 159.665 412.762Z" fill="black"/>
<path fill-rule="evenodd" clip-rule="evenodd" d="M189.108 415.946C189.36 415.819 190.195 415.46 190.487 415.547L190.359 415.926L190.737 416.585L190.098 416.988L189.207 416.402L189.108 415.946Z" fill="black"/>
<path fill-rule="evenodd" clip-rule="evenodd" d="M193.061 263.955C193.784 263.655 194.613 263.998 194.913 264.721L236.27 364.351C236.341 364.523 236.378 364.708 236.378 364.894V472.737C236.378 473.52 235.744 474.154 234.961 474.154C234.178 474.154 233.544 473.52 233.544 472.737V365.177L192.295 265.808C191.995 265.085 192.338 264.255 193.061 263.955Z" fill="#A9A9A9"/>
</g>
<defs>
<clipPath id="clip0_103_18">
<rect width="562" height="462" fill="white" transform="translate(8 58)"/>
</clipPath>
</defs>
</svg>
