<svg width="578" height="578" viewBox="0 0 578 578" fill="none" xmlns="http://www.w3.org/2000/svg">
<path d="M184.7 185.846C184.806 185.46 184.825 185.038 184.718 184.67C184.959 184.176 184.707 183.657 184.569 183.181C184.601 182.775 184.226 182.539 184.536 182.189C184.758 181.724 184.211 181.648 184.083 181.295C184.372 180.964 184.768 180.732 184.925 180.304C185.403 180.409 185.909 179.879 185.72 179.402C185.541 178.905 186.045 178.986 186.345 178.849C186.743 178.453 187.144 178.048 187.41 177.548C187.872 177.463 188.378 177.241 188.802 177.533C189.48 177.735 190.182 177.883 190.886 177.776C191.64 177.95 192.455 178.039 193.172 177.688C193.779 177.445 194.527 177.513 195.029 177.064C195.246 176.626 195.754 176.494 196.085 176.206C196.288 175.924 196.487 175.478 196.189 175.195C195.987 174.853 195.969 174.366 196.278 174.08C196.359 173.709 196.752 173.483 196.619 173.055C196.489 172.639 196.987 172.402 197.237 172.144C197.776 171.65 198.627 171.24 198.585 170.396C198.542 169.884 198.974 169.449 198.753 168.938C198.645 168.415 198.11 168.081 198.145 167.511C198.085 166.802 197.737 166.157 197.292 165.624C196.726 165.126 195.918 165.3 195.263 165.008C194.754 164.907 194.196 164.946 193.8 165.318C193.445 165.399 192.957 165.614 192.653 165.375C192.297 165.172 192.218 164.545 192.739 164.571C193.214 164.391 192.754 163.984 192.394 164.021C192.103 164.012 191.467 163.622 191.428 164.022C191.395 164.379 190.835 164.643 190.541 164.378C189.749 164.026 188.85 163.933 188.126 163.429C187.715 163.288 187.272 163.363 186.885 163.15C186.665 163.724 186.46 162.982 186.245 162.774C185.965 162.447 185.657 162.123 185.2 162.098C184.794 162.027 184.691 161.539 184.276 161.448C183.945 161.145 183.632 161.688 183.276 161.7C182.8 161.897 182.81 161.288 182.656 160.995C182.47 160.66 182.048 160.633 181.699 160.611C181.349 161.054 180.856 161.32 180.294 161.368C179.806 161.421 179.904 160.762 179.532 160.629C178.974 160.321 178.601 159.784 178.065 159.449C177.638 159.245 177.925 158.76 177.71 158.475C177.495 158.225 176.931 158.888 176.838 158.341C176.87 157.879 176.557 157.739 176.26 157.442C175.996 157.094 175.468 157.15 175.103 156.934C174.473 156.771 173.79 156.923 173.14 156.847C172.656 156.822 172.183 156.727 171.715 156.902C171.291 156.903 170.958 156.96 170.734 157.341C170.35 157.594 170.073 157.976 169.597 158.072C168.772 158.336 167.889 158.418 167.032 158.42C166.526 158.43 166.244 157.812 165.706 157.963C165.08 157.893 164.75 158.616 164.119 158.565C163.662 158.504 163.311 158.869 162.857 158.785C162.346 158.911 161.89 159.33 161.341 159.108C160.931 159.048 160.488 158.719 160.126 159.061C159.757 159.413 160.145 159.625 160.108 159.93C159.737 159.978 159.377 160.206 159.376 160.616C159.435 160.892 159.892 161.18 159.519 161.578C159.149 162.337 158.56 162.981 157.921 163.519C157.549 163.604 157.521 164.187 157.682 164.458C157.975 164.684 158.158 164.982 158.09 165.379C157.998 165.743 157.801 166.119 157.737 166.46C157.751 166.892 158.448 166.926 158.238 167.392C158.043 167.63 157.725 167.834 157.842 168.27C157.894 168.739 157.523 169.371 158.035 169.682C158.37 170.105 159.013 169.897 159.306 169.529C159.914 169.381 160.486 169.834 161.104 169.825C161.698 169.889 162.276 169.684 162.871 169.768C163.509 169.676 164.316 169.663 164.614 168.976C164.906 168.353 164.985 169.051 164.714 169.348C164.455 169.819 165.231 169.67 165.502 169.67C166.104 169.633 166.671 169.362 167.286 169.374C167.725 169.264 168.174 169.387 168.606 169.339C169.103 169.36 168.941 168.792 169.103 168.479C169.247 168.041 169.673 167.742 170.03 167.472C170.891 166.975 171.912 166.596 172.918 166.773C173.379 167.029 173.928 167.165 174.438 167.179C174.858 166.896 175.373 166.858 175.86 166.887C176.12 167.095 176.239 167.37 176.729 167.378C177.389 167.636 177.92 168.178 178.616 168.386C179.029 168.577 179.325 168.93 179.626 169.243C179.995 169.393 180.36 169.638 180.749 169.4C181.113 169.252 181.365 169.743 181.673 169.884C182.085 170.4 182.554 170.95 182.523 171.651C182.558 172.069 182.739 172.516 182.401 172.859C182.162 173.415 181.721 173.806 181.232 174.139C180.581 174.58 180.255 175.333 179.658 175.835C179.343 176.081 179.243 176.441 179.122 176.792C178.902 177.129 178.406 177.338 178.542 177.808C178.658 178.114 178.952 178.41 178.952 178.79C178.913 179.319 179.287 179.741 179.694 180.025C179.948 180.519 178.963 180.237 179.206 180.81C179.414 181.129 179.384 181.589 178.897 181.592C178.795 181.898 178.766 182.348 178.362 182.496C177.861 183.139 177.695 184.006 177.209 184.67C176.586 185.121 176.374 185.923 176.454 186.658C176.46 187.131 176.461 187.705 176.914 187.979C177.349 188.263 177.76 188.566 178.104 188.962C178.463 189.431 179.131 189.43 179.507 189.888C179.915 190.126 180.365 190.329 180.772 190.56C181.172 190.711 181.493 190.487 181.816 190.274C182.176 190.409 182.41 190.802 182.833 190.564C183.25 190.517 183.618 190.307 183.788 189.912C184.05 189.548 184.652 189.471 184.692 188.951C184.939 188.607 184.752 188.178 184.939 187.854C185.11 187.544 185.466 187.166 185.183 186.827C185.032 186.489 184.93 186.146 184.7 185.846ZM200.891 171.634C201.653 171.706 202.452 171.894 203.196 171.634C203.178 171.125 203.661 170.827 204.124 170.807C204.784 170.624 205.504 170.567 206.121 170.287C206.367 170.051 206.773 169.659 206.37 169.369C205.981 168.862 205.314 168.743 204.793 168.414C204.009 168.274 203.2 168.175 202.428 168.434C201.601 168.617 200.68 168.759 200.106 169.446C199.935 169.806 199.934 170.266 199.749 170.643C199.587 170.947 199.67 171.493 200.074 171.513C200.341 171.579 200.62 171.591 200.891 171.634ZM158.107 172.099C158.008 171.447 157.57 170.921 157.116 170.477C156.671 170.192 156.172 169.993 155.758 169.652C155.325 169.688 154.908 169.635 154.517 169.436C154.128 169.425 153.694 169.404 153.665 169.901C153.492 170.317 153.708 170.665 153.922 171.014C154.408 171.499 154.889 172.007 155.323 172.535C156.06 173.107 157.034 172.874 157.893 172.926C158.44 173.12 158.42 172.585 158.171 172.256C158.15 172.204 158.128 172.151 158.107 172.099ZM298.511 172.718C298.317 172.305 298.692 172.037 298.83 171.682C298.999 171.417 298.83 170.686 298.465 171.058C298.192 171.456 297.723 171.007 297.387 171C297.099 171.196 296.801 171.452 296.393 171.246C295.934 171.137 295.983 171.742 295.632 171.897C295.665 172.272 295.714 172.718 296.088 172.935C296.056 173.369 296.463 173.526 296.801 173.655C297.42 173.762 298.056 173.768 298.658 173.956C298.75 174.266 298.701 174.863 299.131 174.39C299.445 173.94 299.801 173.42 299.726 172.846C299.648 172.28 299.224 172.573 299.073 172.935C298.965 173.406 298.402 173.164 298.511 172.718ZM300.669 174.111C300.73 173.714 301.363 173.71 301.26 173.274C301.28 172.817 300.74 172.69 300.462 172.96C300.251 173.396 300.156 173.886 300.047 174.359C300.286 174.342 300.48 174.255 300.669 174.111ZM281.367 175.35C281.716 175.211 282.11 175.148 282.446 175.025C282.65 174.721 283.128 174.453 283.387 174.843C283.719 175.039 284.218 175.415 284.556 175.043C284.959 174.879 285.44 174.911 285.84 174.688C286.151 174.513 286.55 174.33 286.757 174.082C286.98 173.58 286.401 172.998 285.892 173.12C285.538 173.228 285.185 173.245 284.802 173.213C284.265 173.284 283.919 172.761 283.459 172.648C283.067 172.447 282.768 172.992 282.442 172.723C282.114 172.856 282.483 173.358 282.491 173.647C282.326 174.115 281.884 173.438 281.717 173.222C281.312 172.527 280.515 172.163 279.737 172.074C279.13 171.881 278.48 172.037 277.882 171.82C277.635 171.437 277.927 170.973 277.735 170.581C277.103 170.296 276.478 169.938 275.771 169.907C275.267 169.708 275.203 170.365 275.199 170.715C275.289 171.199 276.077 171.495 275.802 172.07C275.707 172.45 275.607 172.867 275.979 173.125C276.448 173.406 276.021 173.709 276.018 174.086C275.909 174.414 275.535 174.62 275.693 175.071C275.651 175.587 275.859 176.084 276.128 176.502C276.604 176.661 276.543 177.155 276.073 177.256C275.688 177.22 275.306 177.882 275.889 177.812C276.46 177.906 276.996 177.613 277.572 177.703C278.087 177.69 278.514 177.323 278.976 177.185C279.488 177.303 280.005 177.091 280.505 177.02C280.867 176.913 281.14 176.461 280.816 176.16C280.711 175.794 281.148 175.577 281.367 175.35ZM457.285 210.09C457.181 210.602 456.952 211.066 456.51 211.368C456.195 211.806 456.038 212.426 456.351 212.908C456.875 213.128 457.462 213.445 457.636 214.022C457.744 214.637 457.656 215.322 457.137 215.73C456.871 216.009 456.401 215.707 456.073 215.846C455.846 215.629 455.206 215.291 455.196 215.794C455.23 216.499 455.513 217.184 455.46 217.903C455.324 218.199 454.755 218.214 454.429 218.328C454.108 218.383 454.091 219.084 454.415 219.231C454.968 219.637 455.713 219.513 456.358 219.655C456.848 219.566 456.944 220.089 457.323 220.245C457.726 220.469 458.061 220.812 458.249 221.237C458.965 221.314 459.638 221.614 460.328 221.763C460.931 222.006 460.61 221.261 461.003 221.173C461.369 221.026 461.676 220.75 462.063 220.649C462.225 220.235 462.404 219.694 462.02 219.348C461.826 219.764 461.125 219.411 461.339 219.204C461.803 219.13 461.736 218.669 461.811 218.329C461.92 217.987 462.049 217.55 461.662 217.341C461.348 217.041 461.211 216.544 460.713 216.507C460.295 216.188 460.104 215.474 459.471 215.514C459.145 215.413 458.647 215.673 458.433 215.383C458.441 214.952 458.547 214.353 459.058 214.288C459.563 214.097 459.81 213.508 459.632 213.001C459.519 212.084 460.204 211.286 460.122 210.369C459.895 210.216 459.113 209.988 459.559 209.703C459.97 209.399 459.424 209.034 459.103 208.976C458.664 208.841 458.468 209.279 458.115 209.438C457.776 209.564 457.558 209.868 457.285 210.09ZM462.51 216.778C462.352 216.16 462.341 215.353 461.663 215.061C461.371 214.894 460.839 214.855 460.87 215.325C460.706 215.812 461.26 215.728 461.497 216.013C461.906 216.22 461.971 216.7 462.199 217.057C462.465 217.117 462.442 216.983 462.51 216.778ZM461.879 226.624C462.091 226.158 462.305 225.583 461.899 225.153C461.751 224.808 461.524 224.51 461.351 224.182C461.333 223.758 460.902 223.583 460.553 223.776C460.313 224.092 460.309 224.643 459.842 224.705C459.479 225.006 459.615 225.455 459.917 225.74C460.267 226.015 460.434 226.49 460.79 226.727C461.164 226.782 461.569 226.928 461.879 226.624ZM403.657 233.096C404.345 232.525 405.113 232.054 405.874 231.596C406.487 231.326 407.197 231.213 407.861 231.27C408.45 231.461 409.119 231.529 409.687 231.238C410.111 231.387 410.389 231.065 410.69 230.821C411.146 230.467 411.615 230.091 411.748 229.5C411.776 229.081 411.924 228.755 412.323 228.572C412.674 228.222 413.2 228.49 413.604 228.486C414.11 228.241 414.638 227.925 415.216 228.134C415.726 228.262 416.24 228.403 416.748 228.517C417.038 228.867 417.413 228.726 417.767 228.702C418.266 228.895 418.456 229.42 418.865 229.721C418.911 229.299 419.036 228.913 419.357 228.62C419.628 228.351 419.854 228.072 419.826 227.666C419.909 227.286 420.283 226.983 420.109 226.563C419.801 226.001 419.706 225.289 420.093 224.742C420.246 224.373 420.093 223.967 419.721 223.808C419.335 223.472 418.888 224.031 418.505 223.99C418.088 223.771 417.687 223.37 417.184 223.547C416.771 223.553 416.384 223.603 416.223 224.037C416.084 224.446 415.69 224.629 415.279 224.612C415.053 224.335 414.961 223.804 414.62 223.714C414.299 223.636 413.745 224.025 413.833 223.461C413.847 223.03 414.03 222.559 413.669 222.22C413.423 221.926 412.974 222.399 412.969 222.723C412.773 223.118 413.063 223.632 412.641 223.917C412.288 224.18 412.412 224.671 412.076 224.949C411.938 225.328 411.367 225.184 411.184 224.952C411.005 224.487 411.022 224.01 411.113 223.528C410.929 223.026 410.53 222.555 409.961 222.537C409.759 222.99 409.702 223.538 410.004 223.962C409.651 224.643 409.189 225.328 408.495 225.695C408.034 225.615 407.696 225.914 407.445 226.263C407.116 226.692 406.859 227.281 406.25 227.35C405.962 227.473 405.451 227.683 405.525 228.03C405.621 228.292 405.138 228.659 404.934 228.902C404.478 229.171 404.41 229.72 404.04 230.067C403.848 230.349 403.247 230.464 403.151 230.066C402.943 229.522 403.126 228.761 402.522 228.439C402.348 228.054 402.014 227.962 401.611 227.945C401.177 227.887 400.711 227.582 400.291 227.691C399.894 228.194 399.204 228.403 398.994 229.048C398.811 229.57 398.12 229.676 398.028 230.255C397.892 230.858 397.019 230.956 397.008 231.611C396.83 232.041 396.916 232.497 396.898 232.939C396.834 233.438 396.421 233.731 396.034 233.98C395.687 234.236 395.699 234.715 396.06 234.949C396.419 235.189 396.576 235.669 396.359 236.058C396.321 236.431 395.656 236.586 396.028 236.997C396.423 236.864 396.779 236.978 397.002 237.337C397.259 237.66 397.172 238.17 397.565 238.369C397.949 238.63 398.204 239.13 398.73 239.071C399.115 239.137 399.499 238.835 399.743 238.554C400.227 237.993 400.793 237.514 401.264 236.941C401.75 236.655 401.603 236.03 401.816 235.575C401.979 234.995 402.336 234.493 402.805 234.126C403.056 233.749 403.292 233.375 403.657 233.096ZM354.709 241.022C354.321 241.31 353.923 241.589 353.778 242.075C353.534 242.452 353.134 242.366 352.753 242.437C352.314 242.436 351.984 242.599 351.833 243.028C351.675 243.43 351.144 243.315 350.806 243.468C350.272 243.606 349.683 243.598 349.27 244.015C349 244.283 348.486 244.198 348.274 243.893C347.975 243.747 347.59 244.157 347.267 244.256C346.764 244.346 346.999 245.079 346.49 245.168C346.122 245.344 345.792 245.662 345.565 245.978C345.578 246.436 345.363 246.807 345.085 247.153C344.432 247.503 343.687 247.674 343.145 248.207C342.558 248.7 341.812 248.948 341.137 249.272C340.448 249.803 340.137 250.679 340.144 251.531C340.117 252.285 340.075 253.05 339.761 253.748C339.694 254.766 339.966 255.764 339.892 256.782C339.631 257.081 339.3 257.347 339.34 257.783C339.331 258.223 338.895 258.69 339.295 259.059C339.7 259.598 339.675 260.315 339.947 260.919C340.092 261.282 340.278 261.71 340.642 261.891C340.841 261.46 341.36 261.552 341.749 261.458C342.294 262.072 343.037 262.454 343.787 262.758C344.148 262.591 344.584 262.473 344.838 262.864C345.248 263.081 345.733 263.159 346.136 263.408C346.309 262.846 346.755 263.354 347.083 263.039C347.354 262.787 347.631 262.565 348.036 262.685C348.446 262.791 348.839 262.857 349.019 262.387C349.403 262.086 349.141 261.634 349.281 261.299C349.474 260.917 349.862 260.859 350.229 260.746C350.67 260.654 350.663 260.194 350.794 259.848C351.123 259.573 351.613 259.578 351.936 259.264C352.527 258.998 353.163 259.204 353.759 259.33C354.159 259.227 354.376 259.955 354.744 259.497C355.062 259.309 355.204 258.78 355.597 258.795C356.043 258.878 356.443 258.627 356.647 258.238C357.34 258.009 357.631 257.244 358.172 256.825C358.612 256.79 358.83 256.499 358.954 256.101C358.891 255.591 359.654 255.939 359.369 255.313C359.259 254.901 359.703 254.615 360.001 254.557C360.227 254.17 360.314 253.661 360.568 253.324C361.359 253.189 361.803 252.486 362.304 251.935C362.465 251.55 362.373 251.047 362.637 250.67C362.811 250.327 362.99 249.949 362.816 249.568C362.748 249.087 362.913 248.616 363.177 248.228C363.832 247.799 363.863 246.925 364.387 246.385C364.601 246.055 364.681 245.571 365.16 245.548C365.623 245.592 365.588 245.049 365.732 244.741C365.835 244.119 365.831 243.468 365.927 242.837C365.949 242.158 366.24 241.476 366.141 240.806C366.136 240.366 365.785 240.125 365.385 240.05C364.956 239.95 364.614 239.613 364.331 239.288C363.842 239.215 363.348 239.241 362.869 239.103C362.491 239.196 362.292 239.617 361.943 239.7C361.373 239.687 360.937 240.103 360.55 240.464C360.304 240.754 359.705 240.625 359.853 240.186C359.654 239.849 359.279 239.586 358.903 239.778C358.154 239.805 357.508 239.366 356.767 239.322C356.329 239.243 355.97 239.661 355.598 239.846C355.346 240.275 355.162 240.763 354.709 241.022ZM272.78 297.127C272.772 296.645 273.089 296.251 273.017 295.761C272.958 295.417 272.448 295.253 272.634 294.792C272.447 294.384 271.973 294.119 271.66 293.783C271.326 293.56 270.926 293.631 270.596 293.443C270.332 293.177 269.972 292.858 269.598 293.129C269.221 293.281 269.321 293.821 268.889 293.914C268.576 294.196 268.103 294.059 267.968 294.525C267.605 294.651 267.211 294.936 267.392 295.369C267.369 295.862 267.988 296.037 268.2 296.355C268.105 296.726 268.18 297.17 268.657 297.127C269.028 297.077 268.953 297.777 269.418 297.732C269.918 297.807 270.431 297.506 270.952 297.592C271.269 297.733 271.804 297.543 271.924 297.942C271.889 298.345 272.416 298.531 272.656 298.245C272.844 297.895 272.865 297.51 272.78 297.127ZM270.09 298.985C269.762 298.788 269.148 299.129 269.563 299.469C269.619 299.706 270.005 300.32 270.119 299.848C270.198 299.537 270.254 299.307 270.09 298.985ZM263.766 297.777C263.505 297.663 262.646 297.744 263.202 298.006C263.5 298.142 263.961 298.494 264.152 298.034C264.222 297.761 263.953 297.804 263.766 297.777ZM263.767 297.189C264.268 297.248 264.219 296.778 264.404 296.466C264.888 296.045 264.235 296.128 263.934 296.234C263.501 296.252 263.182 296.644 263.315 297.071C263.304 297.293 263.638 297.192 263.767 297.189ZM262.94 295.951C263.386 295.969 263.458 295.334 263.02 295.342C262.63 295.246 262.226 295.707 262.707 295.902C262.785 295.918 262.863 295.934 262.94 295.951ZM261.679 295.796C262.295 295.291 261.006 295.634 261.679 295.796ZM521.741 297.406C521.155 298.14 520.412 298.735 519.878 299.511C519.764 300.281 519.934 301.114 519.477 301.8C519.116 302.5 519.346 303.277 519.488 304.001C519.867 303.792 519.594 303.305 519.814 302.979C520.398 302.579 521.151 302.426 521.811 302.73C522.173 302.922 522.56 303.13 522.979 302.968C523.332 302.778 523.585 303.304 523.994 303.218C524.572 303.295 525.181 303.139 525.716 302.939C526.205 302.654 526.441 302.139 526.731 301.679C527.181 301.405 527.312 301.915 527.676 302.081C528.355 302.109 528.892 301.57 529.568 301.617C529.896 301.288 530.296 301.488 530.674 301.603C530.866 302.028 531.429 301.661 531.341 301.27C531.47 300.75 530.97 300.708 530.811 300.381C530.868 300.028 530.818 299.679 530.767 299.322C530.892 299.043 531.219 298.595 530.817 298.368C530.544 298.155 529.979 298.785 530.024 298.111C529.858 297.6 529.685 297.06 529.781 296.508C529.826 296.093 529.59 295.809 529.372 295.494C529.246 294.943 528.62 294.873 528.187 294.65C527.732 294.649 527.668 295.192 527.202 295.2C526.723 295.25 526.202 295.421 525.736 295.307C525.242 295.015 524.612 295.18 524.255 295.61C523.837 295.626 523.546 295.872 523.252 296.133C522.574 296.333 522.206 296.921 521.741 297.406ZM527.478 293.814C528.02 294.008 527.951 293.267 527.51 293.348C527.277 293.427 527.259 293.699 527.478 293.814ZM534.431 285.857C534.556 285.464 534.73 285.129 535.196 285.152C535.622 285.025 536.247 285.084 536.392 284.561C536.646 284.011 535.897 284.388 535.793 283.999C535.675 283.57 535.103 283.575 534.978 284.001C534.619 284.241 534.182 284.461 534.051 284.924C534.095 285.228 533.952 285.699 534.266 285.905C534.307 285.944 534.381 285.859 534.431 285.857ZM533.991 283.132C534.446 282.77 533.465 282.442 533.636 283.016C533.613 283.276 533.845 283.166 533.991 283.132ZM534.046 286.817C533.585 287.098 534.327 287.416 534.465 287.093C534.585 286.752 534.302 286.717 534.046 286.817ZM528.501 461.819C528.502 461.524 528.217 461.011 527.997 461.045C527.74 461.471 528.11 461.887 528.356 462.222C528.742 462.354 528.528 462.019 528.501 461.819ZM527.12 463.275C526.721 462.806 526.87 463.676 527.107 463.832C527.107 463.641 527.2 463.461 527.12 463.275ZM483.899 466.34C483.728 465.967 483.519 465.65 483.062 465.691C482.86 465.404 482.677 465.196 482.286 465.163C482.394 464.741 482.155 464.351 481.693 464.377C481.312 464.309 480.934 464.364 480.829 464.792C480.459 464.749 480.118 464.581 479.805 464.885C479.31 465.071 479.332 465.447 479.747 465.704C480.311 465.776 480.661 466.306 481.191 466.49C481.704 466.815 482.325 466.658 482.894 466.681C483.166 467.077 483.764 467.1 484.096 466.774C484.031 466.629 483.965 466.484 483.899 466.34ZM482.465 462.47C481.717 462.059 481.441 461.205 480.974 460.538C480.684 460.226 480.69 459.849 480.913 459.497C480.936 459.071 480.45 459.004 480.424 458.559C480.43 458.16 480.354 457.778 480.153 457.422C480.101 457.048 480.101 456.665 479.844 456.354C479.608 455.922 479.24 455.546 479.078 455.088C478.704 454.846 478.801 454.324 478.713 453.966C478.529 453.549 477.996 453.84 477.699 453.536C477.316 453.146 476.753 453.168 476.278 452.995C475.857 452.682 475.317 452.827 474.833 452.809C474.729 453.251 474.096 453.094 474.006 453.552C473.886 453.941 473.603 454.286 473.762 454.709C473.952 455.038 474.07 455.456 474.296 455.749C474.976 455.973 475.257 456.67 475.776 457.1C475.984 457.458 476.322 457.629 476.724 457.681C477.126 457.715 477.503 457.792 477.704 458.182C478.036 458.618 478.578 458.8 478.865 459.28C479.531 459.306 478.992 459.712 478.82 460.031C478.496 460.398 478.438 460.962 478.574 461.4C478.978 461.72 479.278 462.255 479.827 462.315C480.281 462.531 480.695 462.854 481.227 462.798C481.646 462.807 482.061 462.671 482.485 462.717C482.575 462.649 482.469 462.55 482.465 462.47ZM476.647 451.106C476.252 451.445 477.152 451.573 477.14 451.23C477.042 451.048 476.814 451.122 476.647 451.106ZM476.608 451.818C475.983 451.711 476.404 452.34 476.788 452.093C476.979 452.032 476.79 451.746 476.608 451.818ZM477.71 432.405C478.114 432.665 478.465 432.289 478.262 431.878C478.09 431.356 477.266 432.257 477.71 432.405ZM498.782 435.191C498.828 434.841 498.732 434.32 498.287 434.337C497.781 434.315 497.378 434.898 497.663 435.335C497.859 435.69 498.434 435.816 498.766 435.635C498.954 435.484 498.845 435.374 498.782 435.191ZM502.938 422.249C503.147 421.882 503.729 421.649 503.577 421.171C503.464 420.823 502.938 420.587 502.929 421.105C503.059 421.484 502.993 421.738 502.701 422.032C502.689 422.239 502.693 422.716 502.938 422.249ZM503.151 419.493C503.651 419.56 503.451 418.724 503.015 418.936C502.87 419.055 502.776 419.812 503.151 419.493ZM502.321 422.651C502.871 422.984 501.838 422.996 502.321 422.651ZM298.463 267.991C298.879 267.925 298.622 267.352 298.779 267.062C298.593 266.695 297.997 266.947 298.02 267.34C298.021 267.573 298.063 268.346 298.463 267.991ZM471.408 423.952C472.035 424.625 472.522 425.453 473.284 425.984C473.772 426.189 474.319 426.205 474.773 426.491C474.661 427.06 474.427 427.776 474.818 428.269C475.1 428.553 475.339 428.967 475.789 428.742C476.132 428.642 476.239 428.165 476.515 427.938C476.758 427.668 477.285 427.908 477.576 427.587C477.851 427.23 478.475 427.48 478.626 426.997C478.811 426.508 479.318 426.337 479.804 426.353C480.158 426.298 480.648 426.406 480.68 425.918C480.919 425.749 481.395 425.889 481.7 425.717C482.094 425.548 482.434 425.252 482.53 424.819C482.877 424.542 483.445 424.688 483.657 424.255C483.974 423.899 484.568 424.065 485.008 424.004C485.512 424.1 485.188 423.367 484.889 423.281C484.577 422.945 484.047 422.718 484.013 422.218C484.009 421.789 484.381 421.599 484.589 421.283C484.954 420.573 485.645 420.141 486.303 419.741C486.565 419.488 486.769 418.977 486.419 418.733C486.04 418.69 485.645 418.473 485.739 418.034C485.728 417.475 486.056 416.973 485.922 416.41C485.91 415.836 485.721 415.287 485.401 414.819C485.175 414.41 485.284 413.942 485.413 413.526C485.775 413.152 485.755 412.602 485.694 412.122C485.605 411.351 485.008 410.735 485.046 409.939C485.03 409.469 485.356 409.036 485.25 408.546C485.178 407.68 485.488 406.849 485.537 405.994C485.66 405.712 485.641 405.077 486.106 405.258C486.538 405.321 486.938 405.614 487.375 405.402C487.85 405.398 487.833 404.785 487.957 404.445C487.715 404.099 487.473 403.753 487.073 403.578C487.165 403.152 486.926 402.553 487.354 402.283C487.76 402.224 487.956 401.852 487.889 401.471C487.83 401.003 487.367 400.728 487.254 400.267C486.915 399.461 487.143 398.543 487.653 397.862C488.019 397.376 488.274 396.784 488.694 396.356C489.246 396.043 489.718 395.602 490.156 395.162C491.142 394.781 491.979 394.107 492.957 393.704C493.731 393.303 494.532 392.944 495.218 392.401C496.074 391.891 496.995 391.514 497.899 391.1C498.296 390.657 498.628 390.13 499.225 389.947C499.601 389.918 500.009 390.07 500.352 389.812C500.966 389.508 501.639 389.361 502.321 389.454C503.201 389.53 504.095 389.528 504.961 389.369C506.024 388.731 507.296 388.679 508.462 388.346C509.307 387.919 510.159 387.505 510.877 386.877C511.781 386.253 512.652 385.523 513.727 385.222C514.104 384.969 514.513 385.171 514.924 385.093C515.253 384.647 515.658 384.247 516.166 384.026C516.595 383.812 516.304 383.329 516.57 383.009C516.843 382.373 517.431 381.944 517.744 381.325C518.292 380.622 519.191 380.318 519.955 379.905C520.395 379.86 520.702 379.661 520.786 379.207C521.298 378.547 522.039 378.072 522.747 377.632C523.856 377.033 525.008 376.443 526.254 376.207C527.004 376.219 527.776 376.193 528.504 376.048C529.488 375.311 530.647 374.862 531.852 374.648C532.274 374.515 532.746 374.601 533.156 374.697C534.146 375.351 534.856 376.31 535.496 377.29C536.279 377.889 537.144 378.47 537.547 379.406C537.771 379.891 538.396 380.14 538.366 380.734C538.49 381.703 539.137 382.567 538.991 383.576C539.169 384.07 539.646 384.363 539.745 384.891C539.95 385.171 540.233 385.585 540.637 385.496C541.099 385.451 541.698 385.011 542.064 385.492C542.349 385.721 542.656 385.858 542.97 386.044C543.34 386.165 543.741 385.903 543.969 385.651C543.992 385.2 544.432 385.014 544.571 384.61C544.773 384.027 545.411 383.752 545.55 383.143C545.899 382.881 546.469 382.794 546.515 382.283C546.643 381.714 546.711 381.089 546.673 380.517C546.424 380.152 546.22 379.773 546.269 379.316C546.269 378.849 546.305 378.379 546.04 377.967C545.65 377.326 545.885 376.539 545.551 375.877C545.204 374.917 545.451 373.853 545.095 372.891C545.046 372.123 545.129 371.341 544.906 370.589C544.906 369.917 544.748 369.249 544.695 368.59C545.142 367.323 544.907 365.949 544.639 364.667C544.339 364.164 543.788 363.765 543.81 363.129C543.614 362.622 544.105 362.245 544.285 361.809C544.684 361.443 545.188 361.302 545.688 361.137C546.354 360.897 546.991 360.484 547.291 359.818C547.654 359.227 547.913 358.546 548.527 358.165C548.993 357.929 549.603 358.022 550.037 357.665C550.418 357.519 550.703 357.27 550.871 356.895C551.08 356.447 551.105 355.907 551.372 355.491C551.5 354.987 551.494 354.482 551.412 353.973C551.343 353.309 551.736 352.763 551.985 352.18C552.042 351.843 552.07 351.235 552.506 351.248C552.945 351.307 553.184 350.969 553.448 350.679C553.554 350.34 553.514 349.927 553.76 349.612C553.969 349.209 554.078 348.693 553.695 348.354C553.428 348.066 553.25 347.654 552.991 347.4C552.634 347.427 552.338 348.076 552.168 347.411C552.244 346.99 551.978 346.748 551.771 346.435C551.509 346.079 551.792 345.636 551.84 345.247C552.123 344.712 551.931 344.084 552.045 343.506C551.998 342.848 552.335 342.258 552.303 341.602C552.462 341.184 552.72 340.81 553.147 340.63C553.603 340.198 554.081 339.752 554.499 339.3C554.745 338.431 555.2 337.541 554.903 336.625C554.908 336.162 554.852 335.716 554.638 335.295C554.432 334.805 554.17 334.338 554.221 333.788C554.264 333.281 554.201 332.794 553.979 332.334C553.76 331.832 553.68 331.229 554.002 330.753C553.924 330.334 553.91 329.641 553.35 329.637C552.89 329.644 552.553 329.201 552.097 329.267C552.165 329.666 552.043 330.003 551.763 330.29C551.521 330.579 551.176 330.755 551.151 331.18C551.019 331.549 550.868 331.969 550.454 332.085C550.239 333.006 549.57 333.728 548.94 334.4C548.166 335.16 547.334 335.859 546.657 336.713C546.2 337.281 545.602 337.706 545.124 338.256C544.55 338.673 544.078 339.228 543.484 339.607C542.725 340.018 541.987 340.471 541.171 340.757C540.52 341.235 539.726 341.567 538.907 341.41C538.535 341.255 538.04 341.392 538.166 341.879C538.36 342.165 538.72 342.37 538.536 342.814C538.571 343.341 538.133 343.832 538.413 344.345C538.62 344.609 538.838 344.883 538.961 345.213C538.665 345.96 538.452 346.822 537.713 347.262C537.207 347.665 536.568 347.955 535.929 348.03C534.914 348.016 533.856 348.122 532.891 347.76C532.236 347.404 531.497 347.228 530.928 346.726C530.5 346.472 530.089 346.201 529.856 345.745C529.506 345.105 528.636 344.799 528.584 343.999C528.477 343.286 528.266 342.556 528.448 341.845C528.692 341.324 529.072 340.916 529.525 340.568C529.69 339.879 530.057 339.227 530.635 338.804C530.988 338.429 531.195 337.981 531.291 337.477C531.599 336.287 531.54 335.035 531.849 333.846C531.96 333.221 531.907 332.566 531.71 331.973C531.208 331.456 531.223 330.664 531.139 329.987C530.982 329.285 530.332 328.834 530.041 328.213C529.945 327.582 529.958 326.919 529.816 326.302C529.655 325.92 529.382 325.662 528.945 325.711C528.39 325.943 528.564 325.234 528.2 325.039C527.822 324.676 527.367 324.409 526.928 324.127C526.418 324.145 526.536 324.869 526.067 324.93C525.137 325.342 524.124 325.492 523.203 325.923C522.737 326.126 522.11 326.1 521.865 326.618C521.596 327.07 521.615 327.648 521.582 328.15C521.785 328.628 521.935 329.117 521.958 329.638C522.269 330.127 522.514 330.745 522.275 331.312C522.119 331.748 522.163 332.293 521.903 332.664C521.453 332.988 521.118 333.405 520.863 333.894C520.506 334.462 520.138 335.074 519.469 335.305C518.55 335.986 517.709 336.786 516.747 337.397C516.157 337.607 515.501 337.556 514.892 337.488C514.184 337.332 513.492 337.111 512.908 336.667C512.111 336.301 511.214 336.053 510.651 335.334C509.843 334.449 508.968 333.624 508.284 332.632C507.701 331.9 507.166 331.04 507.252 330.066C507.25 329.683 507.263 329.305 507.554 329.019C507.791 328.235 508.592 327.846 509.087 327.257C509.353 326.792 509.364 326.162 509.112 325.703C508.668 325.368 508.843 324.763 508.755 324.28C508.807 323.555 508.619 322.771 508.932 322.098C509.176 321.782 509.555 321.547 509.952 321.727C510.366 321.905 510.816 322.221 511.29 322.059C511.812 321.874 512.368 321.8 512.88 321.588C513.135 320.973 512.968 320.287 512.532 319.799C512.318 319.397 511.931 319.219 511.512 319.115C510.922 318.916 510.303 318.643 509.679 318.679C509.271 318.791 508.851 318.858 508.428 318.832C508.218 319.177 508.044 319.532 508.073 319.947C507.64 320.533 507.19 321.205 506.42 321.344C505.976 321.502 505.714 322.008 505.195 321.995C504.495 322.106 503.804 322.464 503.096 322.221C502.776 322.053 502.561 321.659 502.127 321.805C501.706 321.783 501.144 321.857 501.026 322.333C500.804 322.628 500.928 323.187 500.454 323.211C499.738 323.429 499.06 323.815 498.509 324.308C498.294 324.811 497.963 325.251 497.68 325.706C497.515 326.213 497.506 326.797 497.254 327.258C496.939 327.531 496.76 327.866 496.778 328.29C496.625 329.26 496.494 330.303 495.835 331.076C495.563 331.484 494.973 331.503 494.533 331.651C494.053 331.654 493.588 331.348 493.09 331.325C492.29 331.145 491.454 331.176 490.655 331.049C489.725 330.779 489.041 330.042 488.3 329.464C487.919 328.999 487.555 328.525 487.384 327.939C487.111 327.404 486.874 326.835 486.992 326.221C486.964 325.644 487.567 325.346 488.054 325.224C488.712 325.003 489.423 324.773 489.843 324.185C490.231 323.793 490.278 323.218 490.366 322.707C490.708 322.061 490.855 321.307 491.421 320.807C491.889 320.453 492.511 320.307 492.918 319.848C493.523 319.448 493.818 318.712 493.935 318.023C493.825 317.598 494.116 317.308 494.358 317C494.876 316.611 495.423 316.219 495.843 315.705C495.877 315.309 495.817 314.855 495.33 314.852C494.709 314.691 494.15 314.39 493.715 313.915C493.236 313.442 492.895 312.829 492.42 312.366C491.949 312.233 491.529 311.811 491.619 311.294C491.624 310.683 491.45 310.017 491.86 309.497C492.202 308.903 492.09 308.179 492.014 307.534C491.749 307.172 491.922 306.748 491.997 306.354C492.504 306.27 492.626 306.036 492.118 305.825C491.943 305.512 491.912 305.042 491.463 305.008C491.143 305.114 490.599 305.135 490.56 305.572C490.444 305.96 490.443 306.372 490.197 306.719C490.227 307.4 490.767 307.955 490.788 308.654C490.959 309.311 490.434 310.004 489.845 310.22C489.221 310.232 488.63 310.063 488.048 309.853C487.415 309.889 486.766 309.848 486.199 310.179C485.377 310.585 484.702 311.255 484.073 311.91C483.684 312.411 483.427 313.032 483.022 313.502C482.604 313.684 482.2 313.949 481.728 313.8C481.279 313.759 480.867 313.567 480.598 313.197C480.322 313.03 479.921 312.642 479.616 312.817C479.15 313.326 478.401 313.249 477.786 313.414C477.256 313.517 477.011 312.931 476.925 312.514C476.854 312.078 477.153 311.8 477.359 311.458C477.389 311.134 476.884 310.906 476.598 310.767C476.452 310.426 476.472 309.895 475.95 310.185C475.673 310.6 475.339 310.423 474.972 310.194C474.513 310.194 474.299 309.842 474.087 309.489C473.853 309.117 473.658 308.721 473.29 308.46C472.953 307.266 473.141 306.009 473.337 304.806C473.257 304.122 472.898 303.492 472.985 302.794C472.837 302.157 472.514 301.597 472.091 301.109C471.841 300.814 471.81 300.406 471.524 300.131C471.369 299.855 470.775 299.682 470.695 300.143C470.235 300.789 469.809 301.466 469.174 301.958C468.515 302.652 467.994 303.479 467.185 304.017C466.729 304.474 466.043 304.518 465.502 304.845C465.156 304.995 464.945 305.37 464.514 305.284C463.926 305.407 463.518 306.015 462.885 306.063C462.413 306.047 462.301 306.503 462.094 306.835C461.853 307.272 461.579 307.71 461.677 308.231C461.627 309.612 462.33 310.887 462.421 312.255C462.536 313.109 462.78 313.941 462.813 314.807C462.934 315.557 463.117 316.301 462.999 317.065C462.876 317.693 462.88 318.378 462.655 318.967C462.227 319.479 461.933 320.065 461.708 320.69C461.119 321.34 460.299 321.781 459.889 322.579C459.289 322.86 459.142 323.55 458.765 324.045C458.307 324.754 457.911 325.57 457.138 325.985C456.688 326.22 456.47 326.652 456.263 327.093C455.631 328.018 454.862 328.859 454.1 329.683C453.346 330.283 452.855 331.131 452.39 331.959C452.148 332.491 452.04 333.049 452.056 333.633C451.878 334.413 452.097 335.232 451.775 335.983C451.536 336.572 451.597 337.286 451.124 337.758C450.67 338.313 450.032 338.695 449.524 339.206C448.695 339.741 447.709 339.924 446.866 340.436C445.643 341.129 444.307 341.62 443.095 342.319C442.746 342.816 442.228 343.15 441.622 343.231C440.926 343.307 440.211 343.57 439.516 343.434C438.872 343.212 438.297 342.816 437.598 342.774C436.431 342.548 435.219 342.339 434.052 342.674C433.157 342.765 432.198 342.835 431.349 342.535C430.758 341.878 429.98 341.393 429.576 340.58C429.107 339.956 428.638 339.321 428.427 338.556C428.188 338.112 428.109 337.632 428.119 337.132C428.462 336.838 428.737 336.421 429.227 336.388C429.639 336.237 429.929 335.905 429.967 335.458C430.086 335.111 430.262 334.592 429.849 334.376C429.668 334.047 429.485 333.627 429.165 333.447C428.539 333.449 427.9 333.378 427.324 333.679C426.722 333.82 426.1 333.738 425.495 333.792C424.76 333.858 424.235 334.454 423.596 334.769C422.724 335.316 421.762 335.781 421.039 336.522C420.679 336.798 420.709 337.253 420.628 337.658C420.126 337.778 419.63 338.098 419.12 337.844C418.545 337.853 417.989 337.958 417.493 338.261C417.021 338.486 416.69 338.949 416.343 339.326C416.152 339.702 415.925 340.072 416.059 340.506C415.626 340.923 415.44 341.532 415.162 342.026C414.647 342.275 414.251 342.66 413.884 343.088C413.639 343.409 413.342 343.618 412.941 343.663C412.422 343.898 411.99 344.291 411.415 344.39C410.848 344.631 410.231 344.779 409.672 345.01C409.256 345.368 408.888 345.79 408.824 346.359C408.65 347.084 408.77 347.92 409.315 348.464C409.752 349.263 410.471 349.863 411.018 350.568C411.261 351.273 411.391 352.092 410.948 352.75C410.515 353.424 409.946 354.043 409.285 354.498C408.53 354.82 407.944 355.453 407.119 355.613C406.204 355.942 405.314 356.366 404.334 356.47C403.637 356.549 402.884 356.862 402.217 356.514C401.745 356.053 402.114 355.407 402.439 354.978C402.76 354.619 402.404 354.161 401.989 354.127C401.607 353.99 401.189 354.096 400.8 354.161C400.731 354.546 400.337 354.867 400.267 355.118C400.573 355.504 400.169 355.777 399.871 355.986C399.111 356.004 398.395 355.644 397.673 355.438C396.37 354.985 394.977 354.768 393.787 354.03C393.023 353.619 392.187 353.371 391.403 353.016C390.413 352.461 389.385 351.93 388.292 351.622C387.714 351.532 386.965 351.488 386.752 350.831C386.384 350.364 386.076 349.864 385.851 349.311C385.57 348.852 385.331 348.379 385.339 347.827C385.277 346.995 385.33 346.123 384.925 345.365C384.641 344.637 384.162 343.877 384.462 343.076C384.563 342.541 384.729 342.031 385.12 341.636C385.484 341.127 386.045 340.844 386.629 340.661C387.076 340.147 387.398 339.476 388.083 339.25C388.422 339.058 388.68 338.696 388.549 338.295C388.554 337.874 388.967 337.557 389.146 337.182C389.545 336.814 389.263 336.292 389.248 335.831C388.911 335.553 388.461 335.352 388.172 335.056C387.945 334.237 388.156 333.38 388.158 332.543C388.263 332.018 387.876 331.566 387.761 331.067C387.621 330.672 387.385 330.365 386.987 330.207C386.497 329.948 385.992 329.606 385.447 329.525C384.987 329.601 384.438 329.466 384.127 329.899C383.705 330.146 383.672 330.792 383.135 330.866C382.264 331.161 381.438 331.593 380.57 331.886C379.951 332.038 379.292 332.017 378.744 331.66C378.061 331.195 377.364 330.656 377.067 329.853C376.654 328.973 376.32 328.046 375.881 327.184C375.468 326.54 374.862 326.059 374.397 325.464C373.677 324.53 373.26 323.424 372.815 322.347C372.254 321.309 372.15 320.103 371.98 318.954C372.045 318.452 371.984 317.935 372.004 317.443C372.248 316.978 372.407 316.433 372.7 316.015C373.38 315.528 374.26 315.628 375.037 315.767C375.484 315.675 375.691 315.255 375.645 314.825C375.642 314.307 375.328 313.824 375.14 313.346C374.855 312.705 374.793 311.987 374.376 311.401C374.413 310.531 374.069 309.685 374.259 308.818C374.439 308.339 373.721 308.559 373.477 308.33C372.876 308.15 372.618 307.369 371.944 307.392C371.468 307.211 371.197 307.895 370.7 307.779C369.315 307.656 368.075 308.401 366.828 308.89C366.015 309.273 365.129 309.618 364.216 309.543C363.415 309.535 362.874 308.888 362.36 308.358C361.925 308.065 361.561 307.623 361.09 307.413C360.675 307.294 360.17 307.3 359.81 307.103C359.427 306.552 359.269 305.913 359.112 305.272C358.77 304.519 358.705 303.677 358.884 302.871C358.928 302.297 358.668 301.733 358.649 301.152C358.563 300.323 358.121 299.589 358.07 298.753C357.987 298.169 357.407 297.742 357.517 297.111C357.356 296.658 358.035 296.651 357.771 296.155C357.548 295.372 357.468 294.493 356.85 293.898C356.504 293.425 356.045 293.053 355.662 292.622C355.228 292.043 355.23 291.229 354.746 290.686C353.98 290.178 353.049 289.964 352.139 290.109C351.739 290.106 351.623 290.631 351.406 290.903C351.132 291.4 350.418 291.158 349.965 291.367C349.284 291.656 348.519 291.719 347.854 292.025C347.033 292.614 346.048 292.927 345.053 293.04C344.448 293.096 343.843 293.189 343.23 293.195C342.778 293.466 342.138 293.522 341.923 294.067C341.647 294.521 341.49 295.066 341.402 295.585C341.259 296.54 341.648 297.48 341.606 298.425C341.417 298.785 341.4 299.303 340.933 299.408C340.077 299.813 339.099 299.886 338.205 300.202C337.103 300.535 335.938 300.604 334.827 300.91C333.627 301.024 332.429 301.138 331.223 301.091C330.085 301.074 328.957 300.851 327.898 300.437C326.893 300.189 325.957 299.717 325.02 299.29C324.323 298.872 323.597 298.477 323.014 297.901C322.969 297.466 322.941 297.033 323.148 296.632C323.243 296.167 322.86 295.98 322.528 295.764C321.774 295.329 321.487 294.483 321.164 293.73C320.534 292.719 319.695 291.797 318.561 291.36C318.199 291.279 317.853 290.764 317.608 291.27C317.173 291.749 316.78 292.295 316.464 292.853C316.294 293.344 316.116 293.834 316.23 294.36C316.302 294.836 316.559 295.268 316.721 295.705C316.757 296.118 316.757 296.515 316.35 296.737C316.006 297.025 315.453 296.873 315.097 297.185C314.526 297.526 313.812 297.555 313.222 297.796C312.881 298.274 312.301 298.51 311.755 298.675C311.375 298.571 311.02 298.432 310.774 298.109C310.421 297.859 310.094 297.589 309.952 297.165C309.617 296.465 309.05 295.923 308.743 295.208C308.314 294.633 307.728 294.241 307.151 293.832C306.623 293.533 306.498 292.852 305.952 292.566C305.662 292.353 305.439 291.988 305.377 291.643C305.385 291.231 305.309 290.801 305.555 290.439C305.507 289.745 305.074 289.13 305.157 288.427C305.091 287.878 305.028 287.328 304.804 286.817C304.868 286.243 305.007 285.687 305.204 285.145C304.772 284.698 304.592 283.993 303.954 283.792C303.255 283.435 302.456 283.38 301.768 282.993C301.23 282.768 300.678 282.583 300.092 282.588C299.565 282.398 298.999 282.374 298.469 282.203C298.115 281.561 298.134 280.806 298.027 280.098C298.397 280.025 298.753 279.853 299.136 279.881C299.418 279.531 299.864 279.261 299.827 278.757C299.834 278.224 299.849 277.695 300.05 277.19C300.312 276.83 300.78 276.553 300.956 276.132C300.982 275.762 300.791 275.354 301.127 275.073C301.528 274.697 301.161 274.143 300.857 273.842C300.512 273.644 300.076 273.513 300.1 273.036C299.91 272.647 300.066 272.274 300.161 271.89C300.266 271.155 299.725 270.558 299.32 270.004C298.968 269.829 298.615 269.656 298.211 269.725C297.84 269.583 297.47 269.44 297.37 269.013C297.688 268.771 297.947 268.346 297.677 267.973C297.494 267.668 296.839 268.039 296.762 267.531C296.454 267.238 296.698 266.694 296.198 266.59C295.878 266.303 295.496 266.298 295.095 266.38C294.44 266.472 293.741 266.581 293.211 267.007C292.852 267.227 292.47 267.494 292.077 267.609C291.67 267.494 291.269 267.475 290.884 267.674C290.537 267.845 290.23 268.09 289.813 268.039C289.346 268.057 288.875 268.007 288.462 268.276C288.087 268.414 287.808 268.831 287.369 268.672C286.915 268.597 286.289 268.743 286.159 269.232C286.244 269.621 286.192 269.972 285.888 270.251C285.212 270.667 284.509 271.048 283.893 271.552C284.056 272.046 283.647 272.128 283.252 272.176C282.755 272.124 282.502 272.652 282.119 272.883C281.84 273.34 281.892 273.899 282.198 274.327C282.429 274.629 282.847 274.842 283.211 274.613C283.894 274.33 284.537 273.895 285.298 273.826C285.747 273.713 286.252 273.678 286.688 273.791C287.116 274.277 287.798 274.298 288.367 274.524C288.755 274.533 289.143 274.535 289.52 274.431C289.775 274.785 289.97 275.26 290.292 275.522C291.049 275.626 291.852 275.636 292.58 275.806C293.182 276.281 293.66 277.063 293.438 277.849C293.401 278.227 293.588 278.695 293.925 278.859C294.411 278.892 295.069 278.742 295.355 279.241C295.778 279.545 295.573 280.193 296.043 280.457C296.271 280.901 296.194 281.484 296.253 281.986C296.062 282.371 296.066 282.769 296.179 283.175C296.268 283.761 296.589 284.363 296.463 284.951C295.825 286.247 295.562 287.689 294.95 288.999C294.647 289.697 294.432 290.478 293.808 290.966C293.64 291.482 293.164 291.746 292.728 292.009C292.143 292.258 291.484 292.309 290.866 292.337C289.894 291.991 288.96 291.453 287.898 291.486C287.114 291.529 286.357 291.314 285.593 291.206C284.852 291.096 284.138 291.318 283.481 291.644C283.149 291.817 282.968 292.275 283.014 292.65C282.956 292.976 283.057 293.565 282.634 293.604C282.196 293.732 281.739 293.772 281.284 293.752C281.068 294.113 280.715 294.264 280.321 294.355C279.967 294.412 279.505 294.364 279.224 294.117C278.843 293.908 278.385 293.883 277.96 293.969C277.664 293.632 277.315 293.652 276.941 293.845C276.612 294.162 276.789 294.572 276.851 294.96C277.129 295.475 277.728 295.817 277.737 296.446C278.112 296.51 278.518 296.467 278.844 296.694C278.535 297.097 278.693 297.404 279.083 297.664C279.284 298.06 279.84 297.827 279.919 297.461C280.093 297.171 280.311 296.73 280.676 296.715C281.245 296.404 281.038 297.292 281.487 297.069C281.901 297.158 282.057 296.278 282.338 296.84C282.621 297.331 283.397 297.279 283.53 297.877C283.72 298.096 284.03 298.615 284.347 298.344C284.817 298.093 285.385 297.883 285.893 298.145C286.61 298.26 287.115 298.804 287.663 299.233C288.018 299.685 288.125 300.298 288.618 300.63C288.939 300.883 289.237 301.15 289.223 301.593C289.389 302.2 289.378 302.827 289.419 303.444C289.559 304.105 289.737 304.753 290.02 305.364C290.322 306.345 290.068 307.375 290.272 308.367C290.269 308.984 290.206 309.612 290.514 310.173C290.446 310.584 291.207 310.71 290.696 310.922C290.267 310.89 290.256 311.614 290.546 311.792C290.997 312.154 291.279 312.756 291.907 312.831C292.536 313.007 293.149 313.214 293.677 313.613C294.394 314.038 295.257 314.146 296.049 314.385C297.222 314.607 298.417 314.8 299.543 315.192C300.403 315.477 300.967 316.224 301.658 316.771C302.267 317.335 302.635 318.13 302.942 318.894C302.989 319.51 302.874 320.133 302.541 320.659C302.489 321.367 303.161 321.786 303.649 322.176C304.411 322.387 305.2 322.278 305.953 322.083C306.513 321.993 306.455 322.377 306.352 322.796C306.134 323.276 306.566 323.395 306.876 323.622C307.237 323.978 306.885 324.501 306.931 324.945C306.903 325.361 307.096 325.685 307.433 325.917C307.736 326.272 308.296 326.219 308.576 326.624C309.042 326.953 309.202 327.519 309.643 327.878C309.937 328.176 310.144 328.593 310.608 328.63C311.016 328.774 311.528 328.579 311.903 328.731C312.148 329.053 312.177 329.498 312.574 329.7C312.649 330.172 312.791 330.611 313.145 330.948C313.541 331.408 314.201 331.554 314.605 332.027C315.206 332.451 316.082 332.391 316.601 332.968C316.911 333.299 316.936 333.857 317.402 334.062C317.757 334.751 318.004 335.539 318.417 336.205C319.055 336.841 319.528 337.607 320.106 338.289C320.386 338.583 320.873 338.797 321.258 338.668C321.752 338.162 322.5 338.089 323.17 338.175C324.061 338.153 324.84 338.694 325.733 338.704C326.509 338.845 327.144 338.258 327.834 338.024C328.739 337.957 329.659 337.881 330.479 337.457C331.301 337.331 332.062 336.906 332.886 336.838C333.717 337.057 334.581 337.251 335.267 337.796C335.584 338.034 335.618 338.518 335.921 338.796C336.377 339.302 336.361 339.992 336.412 340.63C336.135 341.194 336.015 341.801 335.834 342.395C336.171 343.019 336.559 343.627 336.642 344.35C336.77 344.824 336.748 345.321 336.851 345.801C337.334 345.691 337.422 346.243 337.705 346.481C338.257 346.904 338.971 346.678 339.612 346.702C340.004 346.718 340.382 346.828 340.618 347.164C341.084 347.628 341.612 348.033 342.213 348.293C342.677 348.817 343.336 349.086 343.894 349.492C344.251 349.834 344.854 349.642 345.121 350.1C345.534 350.857 345.941 351.625 346.383 352.362C346.984 353.297 347.265 354.403 347.68 355.431C347.702 355.827 347.863 356.318 347.296 356.307C346.729 356.289 347.005 356.829 347.004 357.186C346.924 357.726 346.603 358.225 346.26 358.651C345.915 358.624 345.356 358.941 345.157 358.683C345.008 358.208 344.859 357.733 344.709 357.257C344.156 357.302 344.142 357.617 344.369 358.054C344.497 358.459 344.625 358.865 344.752 359.27C345.169 358.981 345.263 359.588 345.464 359.841C345.975 360.51 345.778 361.399 346.101 362.142C346.648 362.903 347.682 363.373 347.869 364.373C347.951 364.75 348.475 364.85 348.815 364.888C349.319 364.774 349.352 365.443 349.732 365.624C350.395 366.261 351.34 366.56 351.839 367.37C352.534 368.304 353.251 369.234 353.868 370.219C354.397 371.222 354.758 372.293 355.089 373.375C355.193 373.734 354.547 373.811 355.025 374.253C355.23 374.677 355.436 375.101 355.641 375.526C355.984 375.114 356.294 375.552 356.57 375.806C357.44 376.887 358.163 378.085 358.976 379.212C359.312 379.539 359.369 379.836 358.918 380.077C359.37 380.406 359.205 380.676 358.78 380.92C357.569 381.929 356.358 382.938 355.147 383.948C354.651 383.483 355.039 382.779 354.795 382.215C354.632 381.593 354.082 381.161 353.75 380.621C353.566 380.303 353.158 379.968 353.114 379.661C353.499 379.446 352.81 378.938 352.667 378.85C352.36 379.357 352.117 378.673 351.849 378.467C351.34 377.899 350.831 377.332 350.323 376.764C350.84 376.217 351.358 375.67 351.875 375.123C351.774 374.78 352.027 374.179 351.652 374.035C351.24 373.948 350.931 373.734 350.767 373.338C350.201 372.721 349.461 372.223 348.642 371.996C347.847 371.624 347.167 370.885 346.226 370.949C345.82 371.042 345.429 371.283 344.999 371.358C344.232 371.683 343.417 372.024 342.875 372.684C342.618 372.983 342.145 373.148 342.196 373.613C342.061 374.184 342.203 374.781 341.992 375.34C342.207 376.483 342.705 377.534 343.112 378.615C343.25 379.283 343.873 379.671 344.136 380.285C344.37 380.69 344.685 381.094 344.813 381.534C344.608 381.968 344.897 382.227 345.224 382.474C345.687 382.847 346.055 383.353 346.536 383.686C346.949 383.852 347.46 383.992 347.662 384.414C347.566 384.905 347.855 385.107 348.301 385.193C348.775 385.487 348.989 386.039 349.296 386.487C349.948 386.44 350.742 386.641 350.967 387.329C351.099 387.821 351.703 387.844 352.068 388.11C352.604 388.282 352.893 388.779 353.282 389.149C353.308 389.632 353.638 389.993 353.795 390.42C353.892 390.776 353.858 391.33 354.367 391.265C354.693 391.427 354.785 391.973 355.279 391.781C355.901 391.707 356.563 392.075 357.135 391.734C357.439 391.439 357.745 391.172 357.426 390.824C357.59 390.508 358.069 390.415 358.412 390.364C358.847 390.292 359.276 390.267 359.672 390.494C360.351 390.743 360.816 391.361 361.301 391.874C361.683 392.043 362.146 392.115 362.292 392.563C362.801 393.317 363.264 394.127 363.692 394.911C363.779 395.338 363.596 395.675 363.307 395.977C363.061 396.401 362.826 396.827 362.405 397.107C362.36 397.519 362.313 397.931 362.59 398.277C362.845 398.888 362.919 399.614 363.47 400.06C363.994 400.264 363.364 400.725 363.655 400.995C363.882 401.336 364.492 401.044 364.51 401.555C364.7 402.009 365.492 401.97 365.59 402.519C365.907 402.885 365.427 403.236 365.622 403.606C365.724 403.995 366.211 404.111 366.477 404.383C367.443 404.851 368.064 405.78 368.612 406.666C369.032 407.619 369.572 408.519 369.863 409.523C370.111 409.908 370.403 410.245 370.837 410.421C371.651 411.029 372.663 411.386 373.341 412.152C373.474 412.811 374.145 413.13 374.341 413.76C374.455 414.175 374.82 414.429 375.197 414.573C375.63 414.675 376.007 414.51 376.374 414.291C376.835 414.455 377.364 414.423 377.714 414.815C378.114 414.988 377.935 415.559 378.335 415.748C378.58 416.045 379.129 416.031 379.057 416.527C379.281 416.956 378.737 417.141 378.485 417.385C378.033 417.491 378.135 418.115 378.583 418.156C379.039 418.395 379.489 418.665 380.004 418.75C380.347 419.191 380.087 419.385 379.765 419.701C379.482 420.019 380.164 420.274 380.446 420.174C380.912 420.041 380.979 420.675 381.074 420.954C381.448 421.153 381.721 421.431 381.807 421.857C381.893 422.203 381.624 422.569 381.781 422.944C381.909 423.28 381.599 423.883 382.123 423.89C382.55 424.083 383.102 423.969 383.377 424.42C384.017 424.968 384.808 425.323 385.361 425.978C386.089 426.66 386.779 427.377 387.348 428.197C387.598 428.507 387.876 428.789 388.194 429.03C388.412 429.48 387.948 429.704 387.927 430.089C387.875 430.749 388.071 431.394 388.28 432.004C388.379 432.432 387.939 432.728 388.057 433.16C388.052 433.517 388.609 433.81 388.24 434.175C388.056 434.488 387.556 434.72 387.762 435.134C387.865 435.505 388.323 435.669 388.586 435.934C389.02 436.208 389.51 436.205 390.005 436.182C390.576 436.692 391.233 437.087 391.865 437.514C391.864 437.965 391.289 438.063 391.288 438.449C391.339 438.852 391.706 439.039 392.085 439.062C392.467 438.954 392.638 438.441 393.05 438.504C393.378 438.589 393.485 439.103 393.959 439.018C394.251 439.079 394.866 439.123 394.688 439.555C394.469 439.872 394.675 440.409 395.004 440.48C395.459 440.594 395.671 440.277 395.968 440.032C396.33 439.754 396.539 440.365 396.884 440.444C397.338 440.706 397.84 440.949 398.374 440.807C398.787 440.853 399.169 440.918 399.042 440.356C399.051 439.993 399.711 440.174 399.972 439.929C400.299 439.556 399.965 439.222 399.761 438.884C399.426 438.547 399.449 437.999 399.78 437.668C400.046 437.383 400.373 437.151 400.285 436.706C400.233 436.182 400.396 435.603 400.196 435.115C400.212 434.789 400.652 434.5 400.845 434.201C401.083 433.876 401.617 433.748 401.519 433.261C401.634 432.928 402.005 432.698 402.095 432.322C402.225 431.809 402.748 432.143 402.958 432.424C403.211 432.775 403.779 432.727 403.531 432.206C403.372 431.781 403.204 431.265 403.491 430.849C403.832 430.316 403.913 429.6 403.483 429.092C403.335 428.509 403.834 428.008 403.966 427.48C403.776 426.974 404.281 426.677 404.484 426.277C404.735 425.862 404.736 425.404 404.749 424.937C404.755 424.581 404.804 424.081 405.255 424.076C405.686 424.003 405.996 424.356 406.19 424.695C406.459 424.802 407.1 425.043 407.014 424.535C406.966 424.098 406.782 423.692 406.856 423.24C406.898 422.521 406.705 421.79 406.988 421.102C407.138 420.674 407.632 420.442 407.988 420.178C409.169 419.504 410.449 418.983 411.78 418.688C412.614 418.378 413.42 417.927 414.295 417.767C415 417.7 415.748 417.575 416.387 417.959C416.905 418.016 416.885 418.427 416.923 418.84C417.088 419.534 417.752 419.872 418.188 420.383C418.466 420.776 418.757 421.151 419.22 421.335C419.498 421.691 419.957 421.28 420.241 421.557C420.467 421.826 421.077 421.92 420.95 422.349C420.866 422.785 421.243 423.159 421.547 423.425C421.71 423.928 421.891 424.429 421.739 424.959C421.733 425.46 421.834 425.976 422.12 426.398C422.172 427.013 422.346 427.673 422.911 428.011C423.286 428.418 423.964 428.105 424.339 428.538C424.855 428.795 425.1 429.345 425.345 429.833C425.463 430.376 425.707 430.863 426.015 431.321C426.015 431.898 425.993 432.533 426.426 432.975C426.838 433.484 427.19 434.043 427.652 434.51C428.052 434.567 428.417 434.473 428.738 434.228C429.147 434.092 429.329 433.764 429.426 433.365C429.39 432.887 429.208 432.376 429.245 431.921C429.406 431.393 429.876 431.771 430.189 431.466C430.482 431.112 430.443 430.594 430.582 430.192C430.953 429.953 431.051 429.527 430.931 429.116C430.838 428.43 430.71 427.732 430.695 427.046C430.885 426.355 430.79 425.612 431.123 424.964C431.389 424.555 431.239 424.046 431.403 423.623C431.598 423.169 431.926 422.776 432.38 422.582C433.107 422.504 433.879 422.331 434.581 422.569C434.948 422.852 435.314 423.138 435.444 423.605C435.672 424.118 435.736 424.694 435.771 425.252C436.134 425.649 436.652 425.861 437.188 425.748C437.721 426.095 438.366 425.913 438.961 426.026C439.336 425.767 439.237 425.353 439.383 424.977C439.654 424.176 439.574 423.328 439.585 422.497C439.238 422.266 439.036 421.952 439.015 421.532C439.156 421.148 439.666 420.81 439.397 420.361C439.226 419.792 439.343 419.142 439.576 418.617C440.062 418.163 440.067 417.454 440.494 416.962C440.902 416.224 441.276 415.396 441.204 414.543C440.881 414.167 441.029 413.847 441.366 413.548C442.064 412.528 443.056 411.734 444.204 411.278C445.049 410.919 445.906 410.591 446.717 410.157C447.811 409.753 448.868 409.27 449.879 408.687C451.064 408.33 452.183 407.783 453.398 407.525C454.378 407.278 455.395 406.899 456.409 407.136C457.039 407.394 457.577 407.856 458.278 407.91C458.764 408.068 459.171 408.424 459.629 408.656C459.849 409.129 460.265 409.514 460.441 409.991C460.558 410.471 460.459 411.004 460.621 411.46C460.719 411.877 461.214 411.995 461.31 412.373C461.433 412.871 461.669 413.517 461.175 413.889C461.152 414.586 461.742 415.024 462.192 415.468C462.627 415.527 463.021 415.419 463.382 415.175C463.995 414.879 464.639 414.649 465.163 414.198C465.635 414.092 466.084 413.939 466.449 413.61C466.849 413.588 467.29 413.35 467.622 413.679C467.959 413.877 468.213 414.251 468.401 414.572C468.446 415.077 468.475 415.579 468.233 416.042C468.132 416.54 468.352 417.072 468.419 417.576C468.399 418.032 468.126 418.473 468.216 418.952C468.235 419.472 468.068 420.041 468.238 420.531C468.525 420.915 468.711 421.342 468.79 421.815C469.086 422.12 469.465 422.176 469.872 422.155C470.288 422.24 470.873 422.226 470.971 422.75C471.229 423.137 471.046 423.611 471.408 423.952ZM398.792 441.693C398.15 441.746 399.03 442.439 399.048 441.875C399.014 441.739 398.941 441.657 398.792 441.693ZM335.262 383.855C334.995 383.553 334.556 383.428 334.192 383.527C333.789 383.805 333.968 384.365 334.099 384.753C334.539 384.913 335.161 385.01 335.474 384.598C335.624 384.304 335.431 384.082 335.262 383.855ZM336.894 387.168C336.523 387.169 336.129 386.779 335.808 387.052C335.645 387.389 335.567 387.853 335.946 388.094C336.445 388.366 336.947 388.65 337.449 388.904C337.773 388.81 337.321 388.229 337.479 387.903C337.463 387.573 337.132 387.356 336.894 387.168ZM332.251 379.21C332.132 378.892 331.448 378.689 331.611 379.163C331.727 379.413 332.29 379.783 332.454 379.493C332.479 379.402 332.293 379.294 332.251 379.21ZM320.699 365.958C320.943 365.663 321.186 365.439 321.515 365.276C321.732 364.975 321.802 364.623 322.152 364.395C322.334 364.074 322.109 363.663 322.017 363.339C321.805 363.026 321.991 362.503 321.624 362.292C321.144 362.152 320.506 362.189 320.302 362.725C320.09 363.049 319.777 363.241 319.967 363.681C320.071 364.055 319.761 364.388 319.948 364.756C320.123 365.166 319.916 365.679 320.246 366.02C320.411 366.065 320.552 366.046 320.699 365.958ZM321.328 368.032C321.043 367.773 320.865 367.316 320.556 367.146C319.929 367.132 319.809 368.013 320.115 368.416C320.411 368.768 321.017 369.037 321.327 368.559C321.427 368.37 321.404 368.224 321.328 368.032ZM322.253 368.373C322.277 367.953 321.505 367.738 321.793 368.272C321.857 368.372 322.195 368.612 322.253 368.373ZM323.001 369.054C322.439 369.25 323.372 369.644 323.122 369.118C323.082 369.097 323.041 369.075 323.001 369.054ZM266.905 377.6C267.266 377.848 267.54 378.281 267.947 378.423C268.404 378.485 268.909 378.571 269.347 378.488C269.683 378.238 270.006 377.98 270.067 377.538C270.3 377.031 270.366 376.392 270.009 375.928C269.764 375.569 269.799 375.116 269.672 374.734C269.457 374.231 269.101 374.49 268.741 374.673C268.395 374.861 267.889 374.7 267.595 374.936C267.286 375.232 267.679 375.796 267.322 375.943C266.932 376.086 266.402 376.248 266.458 376.766C266.309 377.172 266.693 377.326 266.905 377.6ZM269.413 373.389C269.962 373.525 269.168 373.894 269.413 373.389ZM268.22 371.067C267.891 371.568 268.722 371.466 268.417 371.005C268.351 371.026 268.286 371.046 268.22 371.067ZM310.842 364.472C311.201 364.793 310.393 364.685 310.842 364.472ZM281.38 272.326C280.74 272.584 281.884 272.826 281.427 272.354L281.38 272.326ZM208.534 262.48C208.153 262.398 207.65 262.472 207.588 262.933C207.597 263.419 208.171 262.886 208.435 263.099C208.801 263.389 209.238 262.841 208.889 262.577C208.78 262.518 208.652 262.513 208.534 262.48ZM458.845 224.829C458.656 225.42 459.445 225.101 459.08 224.747C459.005 224.714 458.92 224.813 458.845 224.829ZM104.522 112.65C104.461 113.013 104.349 113.478 104.489 113.795C104.809 114.017 105.196 113.954 105.408 114.337C105.831 114.805 106.559 114.748 107.098 114.56C107.373 114.212 107.924 114.46 108.161 114.047C108.385 113.62 108.789 114.012 109.148 113.833C109.502 113.795 109.64 113.196 109.436 112.967C109.164 112.512 108.789 112.952 108.512 112.742C108.417 112.244 107.954 112.423 107.626 112.545C107.116 112.67 107.186 111.987 106.975 111.709C106.785 111.286 106.333 111.515 106.081 111.603C105.677 111.575 105.659 110.883 105.179 111.017C104.824 111.102 104.944 111.714 104.921 112.037C104.979 112.319 104.672 112.459 104.522 112.65ZM38.365 186.682C38.0535 186.444 37.701 186.123 37.8765 185.691C37.9352 185.354 38.0684 184.738 37.5569 184.729C37.1102 184.558 36.8522 184.903 36.8347 185.322C36.8499 185.733 36.2591 185.841 36.5718 186.278C36.7749 186.681 36.4226 186.92 36.1521 187.149C35.8092 187.569 36.2566 187.696 36.5589 187.892C36.6582 188.278 37.0147 188.408 37.3303 188.602C37.7659 188.785 37.3809 189.408 37.9292 189.261C38.3257 189.477 38.882 189.395 39.2109 189.059C39.4876 188.876 39.9762 188.813 39.6559 188.396C39.5629 187.983 39.1975 188.038 39.0082 187.764C39.0608 187.36 38.9489 187.081 38.6813 186.808C38.6805 186.675 38.4471 186.734 38.365 186.682ZM37.5959 190.243C37.2458 189.941 36.8084 190.092 36.8567 190.583C36.9297 191.021 37.3818 191.099 37.7526 191.141C38.0323 190.967 37.8323 190.451 37.5959 190.243ZM35.763 192.534C35.9379 192.152 36.139 191.732 35.9104 191.327C35.5355 191.027 35.1856 191.441 35.2326 191.818C35.0085 192.1 35.3578 192.866 35.763 192.534ZM35.3187 193.525C34.7439 193.582 35.2291 194.232 35.4873 193.982C35.6482 193.778 35.6217 193.533 35.3187 193.525ZM40.9367 185.475C40.4313 185.816 41.4993 186.004 41.2027 185.475C41.114 185.475 41.0253 185.475 40.9367 185.475ZM26.9527 201.235C26.8336 200.941 26.3006 200.57 26.1257 200.958C26.1031 201.309 25.9104 201.622 25.8294 201.978C25.984 202.318 26.4612 202.012 26.7754 202.164C27.2013 202.291 27.4813 201.879 27.1306 201.585C27.0713 201.468 27.012 201.351 26.9527 201.235ZM25.415 203.402C25.418 203.129 25.0575 202.468 24.823 202.81C24.6899 203.196 24.9874 203.567 25.2078 203.867C25.4922 203.849 25.367 203.597 25.415 203.402ZM25.0299 207.427C25.4198 207.256 25.5505 206.73 25.2685 206.405C25.2032 206.091 25.6012 205.606 25.1638 205.406C24.9856 205.398 24.6372 205.598 24.5775 205.939C24.3714 206.287 24.8453 206.588 24.7195 206.969C24.7191 207.253 24.6138 207.575 25.0299 207.427ZM24.2028 207.273C23.5951 207.462 24.571 207.922 24.3232 207.336C24.2831 207.315 24.2429 207.294 24.2028 207.273ZM27.5134 202.473C27.1435 203.029 28.194 202.585 27.5654 202.464L27.5134 202.473ZM40.7305 189.004C40.4556 189.177 39.8715 188.868 39.7979 189.163C39.9327 189.509 40.4639 189.579 40.8089 189.479C41.204 189.364 41.1494 189.018 40.7305 189.004ZM39.8768 187.363C39.3376 187.648 40.3295 187.966 40.0443 187.456C39.9885 187.425 39.9326 187.394 39.8768 187.363Z" fill="black"/>
</svg>
