<svg width="800" height="800" viewBox="0 0 800 800" fill="none" xmlns="http://www.w3.org/2000/svg">
<path fill-rule="evenodd" clip-rule="evenodd" d="M308.546 52.2177L308.255 54.5086L305.091 55.4905L297.746 55.1268L297.855 54.2905L291.346 48.3996L291.528 41.1268L295.418 33.345L298.837 21.4541L301.418 18.6541L304.764 17.4541L308.655 18.0359L311.564 19.5632L312.873 21.7086L314.073 26.8723L315.382 28.2177L316.146 34.7996L315.164 41.5996L312.328 42.6177L311.018 45.9996L311.128 50.1814L308.546 52.2177Z" fill="black"/>
<path fill-rule="evenodd" clip-rule="evenodd" d="M375.491 750.472L378.655 752.726L381.309 757.417L382.473 762.617L382.036 765.054L378.873 768.254L366.727 772.072L357.673 774.108L354.764 776.072L353.127 778.726L347.418 779.235L338.618 775.272L335.491 773.272L334.473 770.145L328.146 762.29L322.836 754.472L319.673 751.199L316.218 746.072L310.218 739.417L297.382 731.744L296.4 730.799L295.6 724.763L293.309 719.163L293.091 713.526L297.018 707.817L298.436 703.126L299.309 694.981L298.582 683.744L294.691 666.69L293.746 664.217L290.909 650.763L294.509 648.144L296.8 638.508L296.836 635.381L299.746 636.035L303.236 640.363L305.6 645.781L305.746 649.781L309.6 665.526L309.964 668.763L311.891 672.944L314.327 681.817L316.146 686.29L322.255 696.981L321.964 707.89L320.073 712.763L317.673 709.308L313.127 709.344L311.891 706.035L313.382 703.49L316.546 701.744L318.291 694.254L316.327 694.654L316.8 691.381L314.4 691.454L313.382 687.308L308.909 689.49L312.436 680.363L308.073 685.963L306.218 696.544L304.764 698.799L304.909 702.035L303.236 704.799L301.964 710.254L298.8 718.326L299.6 721.417L298.655 726.254L304.109 726.763L306.327 728.326L308.8 723.126L308.727 720.872L310.764 722.726L313.636 723.308L314.473 719.672L316.618 723.526L316.764 728.472L321.709 735.344L324.182 737.272L326.546 743.09L331.127 751.381L331.382 753.563L337.527 761.744L339.855 767.308L339.127 769.526L341.673 769.635L345.418 773.854L348.873 775.308L353.455 774.872L352.146 773.126L357.927 768.944L358.582 765.744L360.691 765.708L361.636 767.599L363.818 766.654L364.073 762.617L365.2 762.326L365.782 758.581L369.236 755.817L374.582 760.181L372.4 756.726H375.2L372.873 754.69L375.818 754.326L372.873 753.017L372.073 750.799L368.073 748.617L370.546 748.545L375.491 750.472Z" fill="black"/>
<path fill-rule="evenodd" clip-rule="evenodd" d="M436.618 769.963L438.328 771.09L439.964 767.781L441.491 770.581L441.091 774.581L442.073 777.599L444.618 776.981L442.073 773.272L444.4 770.327L447.091 768.508L449.418 768.799L451.237 773.854L452.873 773.054L454.982 776.436L458.691 773.963L458.255 771.236L459.018 766.654L460 766.218L458.291 759.927L460.437 758.036L462.109 758.908L464.655 757.636L465.782 760.508L471.346 762.508L475.491 762.472L477.055 761.308L477.855 764.181L480.037 763.09L482.037 763.999L487.382 761.745L491.782 757.963L489.528 753.236L489.891 748.581L493.455 743.527L492.582 739.199L497.564 739.563L494.328 734.69L498.109 732.581L500.728 734.29L500.218 732.218L504.582 732.836L505.855 729.127L504.4 727.927L505.055 724.981L504.109 721.381L500.982 717.708L499.455 718.218L498.909 714.472L494.946 711.599L496.582 710.763L493.891 706.436L493.746 702.581L491.309 701.308L494 699.418L493.491 697.89L490.909 698.145L492.328 695.818L487.818 695.49L488.837 693.199L487.528 691.708L489.782 690.436L487.964 688.727L489.091 687.527L485.782 686.981L490.037 683.636L492.582 684.618L496.691 697.527L503.709 713.054L505.746 715.963L509.091 723.708L508.728 732.327L500.255 745.963L498.4 749.781L495.346 758.836L491.782 762.836L484.364 768.472L471.528 773.49L459.018 779.163L453.164 779.963L449.455 781.308L442.546 782.29L440.364 781.745L439.055 775.672L437.637 774.799L429.818 772.654L424.546 770.254L422.728 767.09L423.6 765.018L424.109 758.327L427.237 755.199L428.946 756.799L426.255 761.418L427.964 764.908L431.309 763.708L430.728 767.018L432.873 766.108L433.782 763.381L435.6 762.581L437.018 764.254L435.891 768.508L436.618 769.963Z" fill="black"/>
</svg>
