<svg width="1000" height="1000" viewBox="0 0 1000 1000" fill="none" xmlns="http://www.w3.org/2000/svg">
<path fill-rule="evenodd" clip-rule="evenodd" d="M761.1 975.5V975.9V976.1V976.3L761 976.6L760.9 976.7L760.7 976.8L760.5 976.9H760.4H760.1L759.6 976.8L759.1 976.7L758.6 976.8H758.4L757.8 976.9L757.2 977.1H756.9L756.7 977L756.2 976.6L755.8 976.4L755.3 976.1L755.2 975.9L755.1 975.7L755 975.4L755.1 974.9L755.2 974.5L755.4 973.9L755.5 973.6L755.8 972.8L755.9 972.6L756.2 972.5L756.4 972.4L757.1 972.2L757.6 972L758 971.9H758.2H758.5L758.7 972L758.8 972.1L759.1 972.5L759.2 972.9L759.6 973.5L759.7 973.7L759.9 973.9L760.2 974.2L760.5 974.5L760.8 974.8L761 975.2L761.1 975.5Z" fill="black"/>
<path fill-rule="evenodd" clip-rule="evenodd" d="M799.9 842.5L799.8 842.7V842.9L799.7 843L799.5 843.1L798.9 843.6H798.8H798.6L798.2 843.4L798 843.2L797.7 843L797.6 842.8L797.4 842.4L797.3 842.2V841.8V841.8L797.2 841.5V841V840.8L797.3 840.6L797.5 840.2V839.9L797.6 839.6L797.7 839.4H797.8L798.2 839.6H798.3L798.4 839.7L798.7 839.8L798.9 839.9L799.2 840L799.4 840.1L799.6 840.2L799.7 840.3L799.9 840.7V841L800 841.1V841.3V841.5L799.9 842.5V842.5Z" fill="black"/>
<path fill-rule="evenodd" clip-rule="evenodd" d="M742.3 829.5V829.1V828.9V828.6V828.5L742.4 828.1L742.5 827.7V827.6L742.6 827.4L742.7 827.1L742.8 827H743L743.2 826.9H743.6L743.9 827H744.1L744.3 827.1H744.4L744.7 827.3L744.8 827.4V827.4L745 827.6L745.1 827.7L745.3 827.9V828L745.8 828.5L746.2 829L746.4 829.2V829.3L746.5 829.8V829.9L746.3 830.2L745.9 830.6H745.8L745.5 830.7L745.2 830.8L744.9 831L744.6 831.1L744.2 831.5L744 831.7L743.9 831.6L743.7 831.5L743.4 830.8L743.1 830.4L742.7 830L742.5 829.7H742.4L742.3 829.5Z" fill="black"/>
<path fill-rule="evenodd" clip-rule="evenodd" d="M630.4 924.3V924.4L630.2 924.6V924.7L630.1 924.8L629.8 925L629.6 925.1L629.1 925.2H628.7L628.5 925.1H628.3L627.9 924.8L627.5 924.7H627.1L626.9 924.6H626.6L626.1 924.5L625.8 924.4L625.7 924.3L625.3 924.1H625.2L624.9 924H624.5L624.3 923.9L624.1 923.5L623.9 923.1L623.7 922.8V922.5V922.1L623.6 921.6L623.5 921.4V921.2L623.6 920.9L623.8 920.5L623.9 920.3L624.3 919.9H624.4L624.5 919.8L624.7 919.7L624.9 919.6L625.2 919.7H625.3H625.5L625.6 919.6H626L626.4 919.7L626.6 919.8L626.8 920.1V919.9L626.9 920H627.1L627.4 920.1H627.5L627.7 920L628.3 919.9H628.7H628.8L629 920L629.2 920.1L629.4 920.3L629.5 920.4L630.3 920.9L630.4 921.1L630.5 921.5V921.6L630.6 922.2L630.7 922.5L630.8 922.6L630.9 922.8H631V923H630.9H630.8L630.7 923.2L630.6 923.3V923.5L630.7 923.7V923.8L630.5 924.1L630.4 924.3Z" fill="black"/>
<path fill-rule="evenodd" clip-rule="evenodd" d="M771.7 819.8L771.8 819.7V819.4L771.9 819.3V819L772 818.7L771.9 818.3L772 818L772.1 817.7L772.2 817.6L772.4 817.5H772.7L773.1 817.6L773.5 817.7L774 817.8L774.2 817.9L774.5 818.1L774.6 818.2L774.7 818.4L774.8 818.8V819V819.4V819.6V819.7L774.7 820.3L774.6 820.7L774.5 821H774.4L774.2 821.1L773.6 821.4L773 821.7L772.7 821.8L772.5 821.7L772.3 821.6L772.1 821.1L772 820.8L771.9 820.7L771.8 820.3L771.7 820.1V819.8Z" fill="black"/>
<path fill-rule="evenodd" clip-rule="evenodd" d="M685.8 776.2L685.6 776.3H685.5L685.2 776.2H685L684.7 775.8L684.3 775.3L684 775V774.8V774.7L684.2 774.5L684.4 774.4H684.6H684.8L684.9 774.6L684.8 774.9V775.1L684.9 775.5L684.8 775.6V775.6L685 775.8L685.1 776L685.3 776.1L685.5 776.2H685.6H685.8L685.9 776V775.9V775.8L686 775.6L686.1 775.7V775.8V776L685.8 776.2Z" fill="black"/>
<path fill-rule="evenodd" clip-rule="evenodd" d="M687 775.1L687.1 775L687 774.8L686.9 774.7L686.6 774.6H686.5L686.4 774.5V774.4L686.3 774.3H686.4H686.5L686.6 774.2V774L686.8 773.8L687 773.7H687.2L687.5 773.9L687.7 774.1L687.9 774.4L688 774.7V774.9L688.1 775.1L688 775.3L687.9 775.5L687.8 775.6H687.6H687.4L687 775.3L686.7 775.1L686.6 774.9V774.7L686.7 775L686.8 775.1H687Z" fill="black"/>
<path fill-rule="evenodd" clip-rule="evenodd" d="M625.5 745.3L625.6 745V744.9L626 744.4V744.2L626.1 743.9V743.7L626 743.6V743.5L626.1 743.3L626.5 743L626.9 742.6L627.1 742.4L627.2 742.2V742L627.4 741.8H627.7H627.9L628 741.9L628.2 742.2L628.3 742.4L628.6 742.8V743L628.8 743.4L628.7 743.6V743.7H628.5L628.4 743.5L628.5 743.4V743.3L628.4 743.1V743L628.2 742.7V742.5L628.1 742.4L627.8 742.3H627.6V742.3L627.9 742.4H627.8H627.9L628 742.7L627.7 743.1L627.6 743.3L627.5 743.5L627.4 743.9L627.3 744.1V744.2V744.3L627.4 744.4V744.5L627.3 744.8L627.4 744.9V745.2L627.5 745.3L627.4 745.5V745.5L627.5 745.7V745.8V745.9V746.1L627.4 746.3L627.3 746.4L627.1 746.6V746.6L626.8 746.8L626.5 746.9H626.3H626.2V746.7L626.1 746.5V746.3H626V746L625.9 745.9L625.7 745.6L625.5 745.3Z" fill="black"/>
<path fill-rule="evenodd" clip-rule="evenodd" d="M201 164.9L201.1 165L201.5 165.4V165.5V165.6H201.4L201.2 165.7L200.5 165.8L200.3 165.7L200.1 165.5L200 165.4V165.3V165.2H200.1L200.2 165.3L200.3 165.4H200.5L200.6 165.5H200.8L200.9 165.4L201 165.3L200.8 165.1L200.7 164.8V164.7V164.6L200.9 164.7L201 164.9Z" fill="black"/>
<path fill-rule="evenodd" clip-rule="evenodd" d="M541.2 127.6L541.1 127.4L541 127.2L540.9 127H540.7L540.6 127.1V127.2H540.5L540.4 127L540.5 126.8L540.7 126.7L540.9 126.8L541 126.9L541.3 127.5L542 128.5L542.6 129.2L542.7 129.4L543.2 129.8L543.5 130L544 130.4L544.4 130.7L544.5 130.8V131.2H544.3V130.8L544.2 130.7L543.2 130L542.7 129.6L542.5 129.3L541.9 128.7L541.8 128.4L541.7 128.3L541.4 127.9L541.3 127.8L541.2 127.6Z" fill="black"/>
<path fill-rule="evenodd" clip-rule="evenodd" d="M534.4 102.4H534.6L534.8 102.5L535.1 102.3V102.2L535.2 102V102L535.4 102.1L535.2 102.6L535.1 102.8H535L534.8 102.9H534.6L534.1 102.8L534 102.7L533.9 102.5L534 102.4H534.2H534.4Z" fill="black"/>
<path fill-rule="evenodd" clip-rule="evenodd" d="M534.4 100.2V100H534.5L534.6 99.9004L534.8 100L535.3 100.2H535.5L535.7 100.4L535.8 100.5L535.9 100.7L535.8 100.9L535.7 101.4H535.5L535.4 101.3L535.6 101L535.7 100.6L535.6 100.5L535.2 100.3H535L534.9 100.2L534.7 100.1L534.6 100.3V100.4V100.4H534.5L534.6 100.5H534.5V100.8L534.4 101.2L534.5 101.3L534.4 101.8L534.2 101.7L534.4 101.9V102L534.5 102.1H534.4L534.3 102L534.2 101.9V101.8L534.3 101.3V100.5L534.4 100.2Z" fill="black"/>
<path fill-rule="evenodd" clip-rule="evenodd" d="M749.4 28.8996L749.2 28.6996L749.1 28.3996H749L748.8 28.0996L748.4 27.5996L748.3 27.3996V27.1996L748.4 27.0996H748.6H748.7L748.6 27.1996L748.5 27.2996V27.3996L748.6 27.5996L748.9 27.9996L749 28.0996V28.1996L749.4 28.6996V28.6996L749.6 29.0996L749.7 29.2996L749.9 29.4996V29.6996H750L750.1 29.8996L750.2 29.9996V30.1996L750.5 30.3996V30.4996L750.4 30.6996H750.2L750.1 30.3996L750 30.0996L749.9 29.8996L749.4 28.8996Z" fill="black"/>
<path fill-rule="evenodd" clip-rule="evenodd" d="M752.3 23H752.5H752.7L753 23.1L753.1 23.2L753.3 23.3L753.6 23.6L754.1 23.9L754.6 24.1L755.1 24.4L755.3 24.5H755.7H756H756.1L756.2 24.4L756.5 24.3H756.9L757 24.4H756.9H756.8H756.6L756.3 24.5L756.2 24.6H756.1H755.8H755.6H755.4H755.2L754.9 24.5L754.7 24.4L754.6 24.3L754.4 24.2V24.2L754.1 24V24L753.9 23.9L753.7 23.7H753.5L753.4 23.6V23.5L752.9 23.3L752.5 23.2H752.3H752.2L752.3 23Z" fill="black"/>
<path fill-rule="evenodd" clip-rule="evenodd" d="M752.3 31.1L752.4 31.2L752.6 31.4L752.8 31.6L752.9 31.8L753.2 32.3V32.5L753.3 32.6L753.4 32.8L753.3 32.9L753.4 33H753.5V33L753.7 33.3H753.8L754 33.6V33.7L754.1 33.9L754.2 34V34.1L754.3 34.2L754.5 34.6H754.6L754.7 34.7V34.9H754.6L754.5 34.8L754.3 34.5L754.1 34.2L753.9 33.9L753.6 33.4L753.5 33.2L753.3 32.9H753.2L753.1 32.6L752.9 32.1L752.8 31.9L752.6 31.6L752.5 31.5L752.3 31.4L752.2 31.2V31L752.3 31.1Z" fill="black"/>
</svg>
