<svg width="565" height="565" viewBox="0 0 565 565" fill="none" xmlns="http://www.w3.org/2000/svg">
<path d="M554.948 483.266L552.146 483.323L551.271 485.172L552.026 486.188L552.088 489.531L552.843 491.797L553.021 494.484L554.536 497.708L555.119 499.615L555.474 501.943L555.646 505.464L556.172 507.375L558.797 505.109L559.734 502.005L559.906 498.844L560.14 495.557L560.609 491.979L559.968 488.396L559.031 487.682L558.448 485.115L556.172 483.979L554.948 483.266Z" fill="black"/>
<path fill-rule="evenodd" clip-rule="evenodd" d="M386.458 350.396H386.734V350.677H387.01L387.146 352.078L388.812 355.156L388.672 355.708H389.224L390.901 357.938H391.161L391.479 357.896L395.88 366.047H396.427L397.818 368.984L398.37 369.125L398.656 370.802L399.203 370.943L404.193 378.344H404.458L405.297 379.177L405.583 379.74L405.849 380.297H406.135V380.578H406.411L406.688 381.422L408.76 383.089L408.625 383.651L409.734 383.938V384.781H410.286L411.401 386.729L412.786 387.562L413.339 388.682L416.115 390.359L417.776 392.875L419.443 395.104V395.385H419.719L420.406 396.505L420.266 397.349L421.656 397.63L422.495 399.297H422.771L424.708 402.234L425.26 402.375L425.396 403.776L431.224 411.312L431.073 411.88L431.635 412.021L433.026 413.276L433.573 414.25L434.167 414.349L434.391 415.224H434.688V415.505L439.677 418.021V418.583L440.781 418.865L441.333 419.984L443.281 420.818V421.38L445.219 422.495V423.057L446.88 423.906V424.74L448.271 425.292L448.823 426.688H449.932L450.484 427.802L451.599 428.089L451.875 428.932L454.365 430.328L455.583 432.016L456.026 432.562L457.312 433.885L457.203 435.385L457.083 435.88L455.536 435.792L454.089 435.625V434.792L452.151 434.51V433.958L447.708 433.255L444.656 434.229V434.771L443.547 435.344L442.583 437.297L444.094 438L453.812 436.74L453.536 437.297L451.312 437.859V438.141H450.76H450.198V438.422H449.922V438.141L445.208 438.693V438.974H444.922H444.094L443.823 438.401L440.771 437.849V438.13H440.208V437.849H436.328V437.568H435.219H434.391V437.281H433.828L433.281 436.448L432.401 436.495L432.443 435.875H431.052H430.505V435.333L426.328 435.036L425.708 435.276L424.292 435.542L423.26 435.63L422.568 435.453L421.453 434.839L419.901 434.443L418.656 434.307L417.021 434.219L415.302 434.484L413.88 434.969L412.203 435.495L410.828 435.979L409.411 436.859L407.776 437.609L406.526 438.62L405.667 439.411L404.677 440.859L404.161 442.005L403.13 443.104L402.359 443.719L401.281 444.557L400.635 444.948L399.693 445.214L398.229 445.391L397.625 444.906L396.682 444.557H395.818L394.49 444.245L393.453 443.984L392.594 443.411L391.901 443.177H391.062V442.625L386.911 442.062V442.344H386.349H385.521V442.062H384.964V441.792L383.583 441.495V440.943L379.693 438.292L374.156 437.021L373.87 436.188L368.052 435.062V435.344H367.214H366.375V435.062H365.828L364.714 434.51L364.438 433.099L362.786 432.266V431.432L357.234 429.755V429.474L359.068 429.656L359.172 429.203L357.234 428.073V427.521L355.573 426.948L355.297 425.844L353.344 424.443L352.932 423.609L353.208 421.38L351.969 418.865L344.755 418.021L346.693 420.25L348.63 423.75L349.745 424.161L350.021 424.87L350.578 425.01L350.568 425.562H351.13L353.443 427.432L355.708 428.635L355.573 429.188H355.286V428.635L353.344 428.073L353.25 427.62L349.745 425.562L349.469 424.724L347.802 423.88L345.865 420.109L344.203 419.135L344.479 418.573L340.589 417.167V416.339L338.651 416.057V415.776H338.089L337.536 414.661H336.984V414.38L338.089 414.391V414.109L336.438 413.135L335.969 413.359L336.151 413.828H335.312L335.792 413.177L335.312 411.031H334.771V411.865L333.938 411.594L334.073 409.354L334.771 407.401H335.312L335.734 406.297L335.609 404.609L335.589 402.078L336.812 399.531L338.271 399.078L341.177 404.125L343.359 405.443L345.615 405.182L345.521 403.453L346.615 402L347.885 398.729L349.818 395.578L347.047 391.714L347.271 391.484L346.635 390.438L345.682 388.714L345.089 387.214L344.724 386.802L344.224 386.349L343.318 385.849L342.224 386.349L342.318 388.031L341.406 388.896L340.995 387.349L340.177 385.849L337.724 386.12L337.635 389.302L337.859 390.984L337.677 393.807L338.271 395.031L338.906 396.396L337.859 396.943L336.906 396.167L336.495 396.896H334.906L335.13 394.849L335.542 393.531L334.542 391.849L333.948 390.438L333.13 390.349V390.984L334.266 392.625L334.542 393.531L333.266 394.031L331.948 392.625L331.448 390.531L331.224 390.438L330.859 391.578L331.312 392.896L332.312 395.078L332.901 396.214L332.859 397.625L332.083 397.578L331.359 397.307L330.495 396.167L329.995 395.214L329.63 393.807L329.719 391.849L329.401 390.26L328.63 390.302L329.177 391.984L328.859 394.26V394.849L328.266 395.943L326.354 395.714L324.812 394.031L325.901 392.396L325.312 389.802L324.729 389.677L323.786 390.469L323.438 390.854L323.307 391.078L322.219 391.214L322.307 392.76L320.901 393.943L320.401 392.12L318.99 392.302L319.51 393.958L319.703 395.052L322.172 397.078L324.583 399.26L325.766 400.172L326.583 401.536L326.63 403.672L326.995 405.26L328.083 405.625L328.422 403.833L328.969 402.24L330.286 401.969L331.057 402.375L332.375 402.557L333.333 403.104L333.677 405.625L333.776 407.292L332.906 407.729L332.984 412.526L332.688 413.557L330.323 414.521L327.271 413.818V413.266H326.719L325.745 410.188L324.359 409.354V407.672L323.797 406.859L324.276 406.667L324.13 405.005L323.818 404.073L323.042 403.318L323.016 402.443L322.688 401.047L319.693 398.073L318.193 397.328L315.901 401.25V401.531H315.354L314.792 402.927H314.24L312.578 405.583L310.349 405.161V404.594L308.135 404.042V403.479L307.026 403.198L306.609 402.083L305.5 401.521L305.073 399.286H303.422L303.688 400.146L303.146 400.12V399.568H302.583L302.448 399.005L299.255 397.339V396.49L297.594 396.339L295.885 395.057L295.104 394.682L294.542 394.812V394.542L293.432 393.979V392.578L292.328 392.865L292.052 392.026H291.766H291.49L291.214 391.453H290.38V391.182H289.828V390.901L286.224 390.208L284.932 389.047L284.573 389.234L284.839 388.667L283.724 388.115V387.552L282.339 387.411L278.172 385.042L277.349 383.641L275.682 383.078L275.406 382.245L272.062 380.844L271.797 380.01L271.245 380.151L266.531 377.5V377.214V376.932L264.031 376.099V375.536L263.469 375.51L263.505 375.161L261.557 374.75L260.729 374.88V374.339H259.62V373.766L246.016 370.135L245.682 368.615L246.534 367.846L246.536 367.849L247.266 367.047L248.073 366.375L248.391 366.453L248.792 366.786L249.474 367.208L250.323 367.328L250.911 367.635L251.104 367.557L250.375 367.156L249.354 366.786L248.469 366.25L248.901 365.901L249.078 364.828H249.625L251.016 358.682L253.521 356.339L255.474 356.479L255.323 357.042L256.714 357.875L256.297 362.198L256.714 362.068L256.849 360.672L257.688 361.646L259.073 361.505L259.625 365.135L260.464 365.089L260.74 363.974L261.292 364.115L262.401 362.302L260.74 362.021V361.188H259.901L259.349 358.948L262.109 358.911L261.016 357.557L261.578 357.417L261.99 356.432L263.146 357.349L264.734 357.531L265.328 359.307L267.599 361.307L266.646 362.536L268.693 362.807L268.516 354.76L268.792 353.365L270.453 353.083L270.88 351.13L270.177 350.297H269.63L269.068 352.25L267.401 352.531V353.083L263.516 353.635V353.083H262.125L261.849 351.688H262.401V351.13H261.849L262.411 350.427L265.177 350.005L264.625 348.901L261.578 349.312L259.635 348.62V348.339H261.849L259.349 347.771L259.073 348.891L256.297 349.172L256.672 351.036L258.25 350.849V352.531L257.146 352.25L256.859 353.083L255.76 351.688H254.911V352.802L249.557 350.927L250.922 346.745L250.198 346.292L249.651 345.745L248.797 345.87L248.255 348.651H247.698L247.411 350.052H246.594L246.021 347.526H245.484V344.75H245.208L244.922 346.703L244.094 346.984L243.818 347.818L241.594 347.526L241.318 348.38L238.542 347.526L238.677 346.422L241.042 346.281L241.594 345.021L238.542 345.589L237.427 347.526H237.156L236.604 345.859H236.042V345.302L233.552 344.328L232.438 345.302L232.99 346L234.104 345.859V346.422L232.99 346.703L232.854 348.651L234.104 349.49V348.651H235.214L234.938 348.099L237.693 348.24L238.542 349.771L239.229 349.5L239.38 348.932H239.932L239.083 351.156H239.656V351.729L244.635 352.281V352.849L240.469 353.13L241.859 353.964V354.526L244.922 353.682L244.781 354.526L245.198 354.667L246.734 353.682L246.87 352.281L247.974 352.01V351.448L249.74 358.656L249.115 361.161L248.896 361.651L248.661 362.312L246.823 365.411L245.599 366.927L245.391 367.198L244.625 367.62L244.078 368.74L243.526 368.599L243.24 368.88L240.521 368.615L240.167 368.479L239.693 369.484L239.073 369.292L239.25 368.016L235.76 366.646L234.37 366.505L234.094 365.661H232.146V365.109L227.708 364.828V365.109H227.432L227.156 364.557H226.318V363.708L223.542 362.865V362.312L221.604 361.479V360.927L219.391 360.078V359.516L218.276 358.964V358.401L216.615 357.568V357L217.714 357.568V357H217.167V356.448H216.052L215.547 355.984L214.797 355.854L213.547 355.432L213.354 354.411L212.172 354.49L211.339 353.089L209.948 352.536L210.224 351.422H210.786V350.578L211.365 350.255L211.302 350.182L211.24 350.13L211.146 350.026L209.927 349.146L210.312 347.906L211.057 347.354L211.474 345.276L211.062 344.432H210.51L211.339 342.198L212.724 341.224L214.396 338.453L214.958 338.312L215.781 337.057L216.344 336.917L215.781 335.531L214.958 335.104L213.568 335.25V336.365L212.734 336.083L213.292 334.401L212.458 333.99L211.62 334.13V331.885L210.234 331.193L208.568 331.333L208.844 333.286L208.016 332.594L206.906 333.005V333.849L208.292 333.99L208.844 335.25L206.906 334.964L206.63 336.365L207.74 336.505L208.432 337.479L208.844 341.391H208.292V345.021L209.682 345.432L210.094 347.526L209.682 349.203L208.568 348.651L207.74 346.974L202.193 345.021V344.458L201.63 344.599L199.141 343.062L198.865 342.224L194.974 341.391L194 339.714L194.135 338.312H193.589V336.917L188.87 336.083V335.521L186.099 334.823L185.26 335.391L183.323 334.682L182.208 333.005H181.656L181.286 331.76L180.818 331.604L180.469 331.089L179.984 330.771L179.016 329.214L178.318 328.823V327.703H177.771L177.495 326.589H178.042L177.771 325.745H178.318L178.182 324.906L178.833 324.562L177.906 319.88L176.656 317.927L174.719 317.083L172.495 307.589H171.677V307.026L169.719 305.641V305.073L168.052 303.958V303.396L166.125 302.552V301.724L164.167 300.609L164.026 299.495L163.177 298.646L161.115 293.068H160.839V292.786H160.573L160 289.99V289.719H159.724V289.432H159.448V288.87L157.797 288.318V288.047H157.224H156.672L156.385 287.203H156.672H156.948V286.922H156.672H156.385V286.354L157.089 286.073L157.224 285.24H157.797L158.062 283.844L157.5 284.125L158.062 282.724H157.224L157.5 283.292H156.948V283.005H156.672V282.724L157.797 282.443V281.057L156.948 280.786V280.495H157.5L155.839 277.427L151.672 274.349L151.12 272.667L149.734 272.396L149.448 271.281L147.51 270.573L145.573 270.714L145.708 270.161L143.896 268.635L134.745 265.005L131.417 264.708L126.417 266.531V266.802L125.026 266.812V266.531H124.75L124.802 267.703L124.453 267.646V267.354H124.188V268.203H124.453V268.484H124.188L123.917 269.599H123.641V269.88V270.714L122.526 271.833V272.115H122.25V272.396L120.026 276.026H119.474L118.922 277.427H118.635V277.708L117.812 278.542H117.536L116.146 279.104V279.375H115.859L113.37 280.224H113.099L113.37 279.656L109.484 278.823V278.271L105.047 277.427V276.87L102.271 275.193V274.641L98.6562 273.51V272.958L95.3281 271.562L94.9062 269.047L93.2396 265.698L91.4427 263.464L88.0521 262.964L88.1042 262.349L86.4375 261.229L86.8542 253.969L87.8281 252.286L86.9896 252.568V252.005L85.6042 251.745L86.151 249.219L85.8906 249.255V248.974H86.1667L86.8646 247.292L86.6406 245.719L86.3906 245.354L86.1667 244.776L82.8385 243.661V242.828L79.776 242.276L79.6406 239.193L80.3385 237.516H80.8906L79.9688 235.677L79.5156 235.245L78.6667 234.448L77 233.885V232.766V232.214L77.1406 231.932L76.4531 230.25H75.8906L75.3385 228.583L73.9531 228.016V227.745H73.6667V227.453L67.2865 227.604L66.0365 223.823L66.724 220.755L66.8646 219.922L67.1406 217.969L65.8906 216.578H65.3385L64.5 215.172L63.1146 214.339L63.375 213.49H63.9479L63.1146 211.823L60.0625 210.422L59.7865 209.589L58.9479 209.318L58.1094 207.906L56.724 207.354V206.792L54.7865 205.391L54.5104 204.557L53.1094 204.005L52.0104 202.323H51.4479L50.6094 200.37L47.5573 200.651V200.089L46.1719 199.536L45.1979 197.854L44.3698 194.505L43.3958 193.109L42.5677 192.823L41.7083 191.547L41.7344 191.141L42.151 190.88L42.5677 190.875L43.2188 190.01L44.5052 189.479L44.7812 189.474L45.4427 189.37L46.1719 188.911L46.7292 188.844L46.9323 188.208L46.7604 187.526L46.7969 187.089L46.3438 186.573L46.9948 186.396V185.844L46.875 185.365L46.6823 184.542L47.599 184.135L48.2188 184.427L48.3385 184.031L49.3385 182.745L50.6615 182.568L52.625 183.417L53.2865 180.682L51.7708 180.62L50.6406 180.401L50.0208 179.219L47.9896 178.76L47.1979 180.927L47.0885 181.776L46.375 182.599L45.8021 182.818L45.1458 180.51L44.651 178.958L45.3385 178.302L43.776 177.448L43.5625 179.568L42.9896 181.495L42.0417 182.057L42.0677 182.542L42.224 183.109L43.25 183.292L44.4948 183.411L43.7812 185.292L43.7969 186L44.375 186.37L44.7188 187.203L43.9583 187.51L43.1771 187.703L42.7344 188.208L42.1719 189.411L41.7812 190.109L41.474 190.885L41.151 191.094L33.6667 191.578L29.7812 189.474L26.7292 181.375H26.1667V180.823H25.6146L25.3385 179.974H24.7812V179.422H24.2292L24.5156 178.589L23.125 177.88L19.5052 177.474V176.906H18.9635L19.0885 176.354L18.2552 175.51L17.0052 170.208L16.1667 169.927V169.37L15.3385 169.089L14.0885 166.573L12.9792 165.458L12.5521 163.495H12.276V163.224H12L12.276 162.375H11.724L12 161.823V161.26H11.724L11.7135 160.99L12.5521 161.26V160.427L13.1042 160.281L14.4896 157.625L15.0521 157.484L16.1667 155.677L17.8281 154.969L18.3802 153.995L20.3177 153.88L20.0417 152.031H20.6042V151.479L23.2812 151.552L23.4115 151.375L23.3802 150.078L20.8802 149.516L19.9062 147.281L19.3438 144.214L17.4062 141.427L16.8438 138.62L18.1771 137.615L18.0208 137.359L16.7083 137.792L16.9792 129.12H17.5312L17.2656 127.167L18.3698 126.88V125.766H17.2656V124.083L15.8802 123.531L14.3333 119.901V114.031L15.7188 113.188L16.1458 112.458L15.7188 111.505L14.8854 110.672L13.4948 106.214L14.6094 104.521L14.4688 103.969H15.0208L14.7448 103.12L15.5729 102.979L16.6406 101.911L17.2344 100.604L15.5729 100.052L13.7604 94.4531L11.2604 91.1042L11.5365 89.1406L13.349 87.0573L14.1615 85.5052L14.9323 85.4896L15.0885 85.1979L14.9688 84.8698L14.7865 82.9948L12.6458 79.9219L12.1667 79.3438L11.6719 78.8021L11.5365 77.1302L10.5521 75.6146L10 74.8958L8.0625 74.0521L6.38542 71.5365H6.10938V71.2656H5.83333L5 69.8646H5.5625L5.83333 69.0312H6.10938V68.4635H6.94792L7.5 67.0677L8.88542 66.2292L9.16146 64.5469H9.72396L10 62.599L10.5521 62.5885V62.0312L11.1094 62.3125L11.5208 61.5365L11.8021 60.6354L11.6615 59.2344L13.3281 58.3958V57.8333L14.1615 57.2812H14.4375V57L18.8802 57.2708L18.8906 57.8333L22.2135 59.2344L22.4896 60.0677L24.1667 60.6198V61.1979L25.8281 62.0208V62.5885L29.7188 65.2344L34.9948 67.8906V68.4427L38.3281 70.6875V71.2448L40.2812 72.0781V72.9219L41.9323 73.4792V74.0417L43.8906 74.875V75.4323H44.4427L45.0052 76.5469L45.5573 76.276V76.8177L47.8177 78.6406L47.6615 78.9427L47.9375 79.1302L48.0625 78.9792L48.7656 79.3021L49.1667 79.3438L52.5052 80.3229L54.1719 81.2969L54.7812 82.3438L54.8385 82.3542L57.5052 82.9792V83.5312L67.2344 88V88.5625L68.8958 88.7083L73.625 91.0833L73.8958 91.9167L74.4479 91.6354L74.4583 92.75V93.0365H74.7344V93.3177H74.4583V93.5885H75.0104H75.849L75.5625 92.75L82.7865 93.8698H83.625V94.151H85.0104L93.0625 95.125L94.7292 95.8229V96.3854L96.1146 96.7969L97.7812 98.3385H98.3385V98.6302V98.8906H98.6146L98.8906 98.8542V99.4167L100 99.974L100.276 100.818L101.391 101.37L101.927 103.052H102.5L107.776 111.156H108.328L108.193 111.719L113.328 120.375V120.938H113.615V121.219L112.781 121.5L112.505 122.339L111.667 122.62H114.167V124.005H114.719L115.281 125.969L116.807 127.089L118.766 131.281L118.615 131.552L119.167 131.698L121.255 136.87L121.542 140.781L120.833 141.339L120.005 141.76L115.005 141.349L114.26 144.047L116.021 145.167L115.839 144.135H116.391L116.667 143.156L117.505 143.016V143.583L118.193 143.297L118.339 142.734L120.281 143.297V143.583H121.115V144.135H121.391L121.115 145.531L120.844 150.281L120.005 150.568V150.849H120.557L121.115 153.917H120.568L121.115 154.479V155.88V156.432H121.391V157.266L121.667 161.745H121.115V164.26H121.677L121.953 166.776H122.229L122.505 169.292H122.229H121.677V169.562L121.391 169.573H121.115V169.844V170.125H121.391V170.693V170.964H121.677V170.693H122.505V171.245L121.391 171.526V171.807H122.505L122.229 172.927H122.505V173.208H122.229V173.479H122.505V173.76L122.792 174.594H123.068V174.875H122.792V175.443H123.068L124.453 180.474H124.729V180.745H124.453V181.307H124.729V181.589H125.005V181.859V182.141H125.292V182.422L125.297 182.745L125.292 183.094L125.188 183.5L124.911 183.891L124.312 184.083L124.24 184.214L124.026 184.255L123.99 184.396L123.677 184.484L123.417 184.661L122.943 184.865L122.068 185.073L121.51 185.125L121.021 185.396L120.542 185.865L120.276 186.286L119.74 186.417L118.781 186.615L118.109 186.609L117.719 186.568L117.62 186.729L117.651 186.917L117.714 187.125L117.786 187.245L117.901 187.307L118.37 187.156L118.609 187.198L118.839 187.318L119.375 187.323L120.021 187.203L120.005 187.016L120.271 187.161L120.625 186.953L120.755 186.75L121.094 186.672L121.354 186.385L121.625 186.276L121.891 186.266L122.104 186.307L122.401 186.318L122.63 186.198L122.859 186.078L123.036 185.88L123.146 185.656L123.318 185.531L123.802 185.229L124.052 185.141L124.229 185.161L124.391 185.146L124.651 185.021L124.974 184.974L125.25 185.099L125.844 185.635L130.005 191.641L130.568 191.781L132.505 195.839H133.068L135.411 201.151L135.146 202.266L136.255 204.229L136.969 204.5L138.484 206.734L138.896 208.13H139.448L140.557 210.083L142.37 211.198L143.62 213.302L144.172 213.443L144.036 214.562L146.812 220.146L147.922 222.661L149.172 223.224L149.312 223.776L150.839 224.609V225.172H151.385H151.672V225.458H151.948V225.74L152.552 225.682L152.5 226.292L153.104 226.25L153.062 226.573H153.339H153.609L154.49 227.083L154.448 227.688H155H155.276V227.974H155.562V228.245L156.156 228.198L156.115 228.807L157.266 229.047L157.224 229.37H157.5H157.776L158.891 230.484V230.755H159.161H159.438L160 231.323V231.604L160.688 231.875L160.828 232.438H161.391L161.667 233.26H162.214V233.552H162.5V233.839H162.776H163.052V234.12L165.552 236.776L168.604 238.302L168.729 238.865L169.99 239.562L171.943 241.932H172.766L172.896 242.781L173.88 243.333L176.656 246.823L177.208 246.964V247.526L179.156 248.083V248.927L182.76 250.594L182.484 251.161L190.812 256.745V257.307H191.375L191.646 258L192.198 258.141L192.76 259.542L193.312 259.682L193.589 260.375L194.151 260.516L194.698 261.49H195.25L198.589 265.828L200.938 267.635L203.089 268.708L203.026 269.036H203.578H203.865V269.318H204.141H204.417V269.599H204.682H204.964L206.068 270.573L207.74 270.984V271.281H208.844H209.13V271.552H209.417V271.833H209.969H210.516V272.115L211.12 272.057L211.078 272.396H211.906H213.005V272.677H213.578V272.948H214.13V272.677H214.396V272.948H214.682V272.677H214.969V272.948H215.245H215.521V273.229H216.068H216.63V273.51H217.745H218.021V274.062H219.406H220.234L220.797 274.62H221.354V274.911H222.182L223.062 275.432L223.01 275.745H223.849H224.396V276.026V276.307H224.958H225.521V276.589L226.906 277.141V276.859H227.448V277.141H227.734H228.01V277.708H229.682L230.224 278.26H231.615V278.542H231.901H232.458V278.823H232.724H233.562V279.104H233.849H235.224V279.375H235.776H237.167V279.656H237.724H238V279.938L249.104 278.13L254.104 278.682L261.323 281.339L261.448 281.901L264.786 284.135L264.922 284.698L266.312 284.979L266.589 285.661L279.63 288.891V289.448L283.526 289.589L288.792 288.891V289.469L304.062 290.443L304.339 290.854H305.448H305.724V291.135H306.839H307.661V291.417L309.891 291.557L311 292.255V291.698L312.703 292.042L312.943 291.698H318.219L318.766 292.677L320.432 292.536V293.099L321.818 291.995H321.797H320.995V291.698L324.318 291.427L324.88 292.406L325.708 292.125L332.094 292.266V293.109L335.422 294.776L335.698 295.484L337.635 296.177V296.74L339.865 298.562L341.25 298.974L341.516 299.677L343.188 300.099V300.651L345.141 301.219L345.13 301.781L348.74 303.167V304.01L352.068 305.682L352.203 306.245L355.958 309.042L356.094 309.604L357.885 310.969L358.182 311.88L359.005 311.417L361.224 313.234V312.953H361.781V313.234L366.224 315.469V315.75L367.047 315.891L367.323 316.594H367.885V317.151H368.438V317.703L370.802 319.109L370.938 319.943L372.177 320.51L372.323 321.766L373.427 321.625L373.703 322.318L374.266 322.458L374.677 323.578L376.203 324.693L377.453 326.938L379.115 330.568L378.693 331.682L379.255 331.823L380.495 335.594L381.193 336.427L381.323 337.828L382.432 339.224L382.297 340.339H383.13V342.302L382.573 342.021L382.156 342.854L381.745 343.417H381.182V343.969L380.354 343.688L380.073 344.547H379.521L378.406 346.203L375.354 347.177L374.531 345.922L372.578 344.807V344.245L371.031 344.266L370.641 344.526H370.089L371.193 346.755H370.365L370.641 346.203L367.865 344.526V344.245H368.417V343.958L366.479 343.125L367.036 342.021L365.927 342.292V343.125H365.651V342.562L364.26 343.125L363.974 344.797L362.312 344.245L362.005 345.167L361.87 346.167L362.312 347.589L362.797 347.958L362.979 348L363.109 348.073L363.526 348.401L364.339 348.781L365.052 350.318L365.464 350.693L366.104 350.656L366.661 350.625L367.083 350.406L367.026 351.786H364.802V352.891L360.927 352.62L360.661 351.786L359.812 352.057L359.401 353.734L359.526 356.521L361.474 356.812L361.339 356.25L361.75 355.828L364.526 355.557L365.641 356.25L366.193 357.365L364.526 357.646L364.802 358.766H366.193V359.328L367.302 359.88V359.328L368.969 357.927V357.375H369.802V356.25L371.193 355.979L371.328 357.646L372.016 358.068L373.13 357.927L373.406 356.812H373.958L374.245 357.927H373.406L375.068 359.609V359.047L375.906 359.198L376.734 361.005L381.734 360.172V360.734L383.536 360.172L383.396 359.339H382.833L381.182 358.224L381.312 356.823L380.62 355.417L379.51 355.146L379.797 354.026H378.958L378.406 349.552H377.854L378.13 348.859H378.682L378.958 348.156L380.073 347.745L380.906 345.932H381.458V345.37H382.021V344.818L384.797 343.969L386.458 349H386.734V349.562H386.458V350.396ZM104.979 263.979L105.146 261.578L105.703 261.229L106.683 261.141L108.136 261.406L109.157 261.927H110.183L111.589 262.146L112.698 262.234L113.594 262.625L114.276 261.708L114.917 260.62L114.49 260.312L113.469 260.49L112.953 259.443L112.573 258.13L112.36 257.26L111.162 256.516V255.599L111.464 254.943L112.87 255.078L113.766 255.557L113.896 256.125L114.532 256.427L115.047 256.474L115.641 256.953L116.11 256.427L116.026 255.641L115.729 254.99L115.688 252.938L116.026 252.37L117.052 251.891L118.417 252.193L119.016 252.589L119.74 252.021L120.078 251.453L120.849 251.802L120.292 252.76L119.485 253.807L119.183 254.375V255.161V256.255L119.526 257.391L120.636 259.135L121.745 261.359L123.193 263.5L123.537 264.198L123.792 265.771L123.235 265.943L122.511 265.594L122.469 265.026L122.386 264.156L121.318 262.365L120.464 261.276H119.016L117.479 262.016L115.729 263.589L113.979 264.458L112.995 265.464L112.401 265.859L111.547 265.99L111.292 267.078L111.12 268.125L110.693 268.562H109.714L108.094 268.042L106.599 267.255L105.787 266.427L105.188 265.375L104.979 263.979ZM259.62 339.125V342.203L260.073 341.828L260.172 340.255H260.443L260.729 341.922L260.266 342.021L260.443 343.885H259.907L261.422 345L261.558 345.833H261.006L261.927 347.979L263.782 347.797L264.61 348.068L264.886 346.672L267.386 347.375L267.938 348.349L269.474 348.911L269.61 349.75L271.495 348.365L271.657 347.745L271 347.234V347.797L270.438 347.516V346.12L267.386 345V344.438L265.459 343.042L265.724 340.526H265.995V341.37L266.834 341.089L266.412 343.323H267.11V344.167L267.797 344.438L267.948 345L269.886 345.562L270.438 344.438L270.162 345.833H271L270.438 343.052L273.49 342.49V342.203L270.724 341.37V340.807L272.938 341.089L272.292 340.073L271.271 339.833L269.334 340.807L270.724 339.125L272.25 338.573L271.547 336.906L270.162 337.177V337.458H271.271V338.292L267.948 339.833L267.386 339.693L267.672 338.292L266.834 338.573V337.177H266.558V336.896H266.834L266.558 336.344L265.172 335.781L264.469 337.74L263.219 339.411L261.006 338.854L261.292 338.292L260.172 338.854L260.443 339.974H259.907V339.125H259.62Z" fill="black"/>
</svg>
