<svg width="950" height="950" viewBox="0 0 950 950" fill="none" xmlns="http://www.w3.org/2000/svg">
<path fill-rule="evenodd" clip-rule="evenodd" d="M754.1 573V573.3V573.8H754.5V574V574.1V574.3V574.3V574.4V574.4V574.5L754.4 574.8V574.9L753.9 575.5H753.3L752.3 575.2L751.4 574.9L750.1 574.4L749.7 574.1L749 573.9L748.4 573.5L747.7 573.2L746.9 572.7L746.7 572.4L746.5 571.7V571.2L747.4 571.5L747.5 571.3L747.7 570.5L747.6 569.1L747.9 568.2L748.1 567L748.3 566.4L748.5 566.2L749.5 565.8L749.9 566L750.9 567L751.5 567.8L752.3 568.6L752.7 569.5L753 569.9L753.4 570L753.8 571.5L754.2 572.6L754.1 573Z" fill="black"/>
<path fill-rule="evenodd" clip-rule="evenodd" d="M145.7 772.7L145.9 771.1L146.3 770.2L146.9 769.2L147.1 768.3L147.2 767.6L147.3 767.3L148.1 766.1L148.8 765.3L149.1 764.6L149.2 763.8V762.5L149.4 762.2L149.6 761.5L150 761L151.4 760.4L151.8 759.9L152.3 758.7L153 756.4L153.2 755.7L153.6 755.6L153.9 756L155 757.2L156.3 757.7L157.3 757.6L157.7 757.4L157.9 757.8L158.5 757.9L159.2 758.5L159.4 759.6L159.8 759.5L159.7 760L159.9 760.3V760.7L160.2 761.3H160.7V761.9L161 762.6L161.4 763.1H161.6L161.9 763.8L162.3 763.9L162.5 764.3L163.1 764.2H163.3L164.1 764.1L164.4 764.4L164.9 764.1L165.7 764L165.8 764.1L165.5 764.4L165.3 764.9H164.9L164.5 765.4L164.3 765.6V766L164.1 766.1L164.3 766.5L164.1 767.1L163.8 767.7H163.5L162.7 768.2V768.5L162.3 768.8L161.3 769.6L160.5 770.3L159.6 770.8L159.2 771.3L159.1 771.6L158.4 772L156.7 772.8L154.6 773.2L153.5 773.8L151.1 774.6L150.1 774.8L149.2 774.6L148.7 775L147.7 774.9L146.8 774.4L145.7 772.7Z" fill="black"/>
<path fill-rule="evenodd" clip-rule="evenodd" d="M841.6 628.8L840.4 628.6L838.6 628.5L838.3 628.3L837.8 628.1L836.8 628L836.1 628.2L835 628.8L834.4 629.4L834 629.1L833.5 629H832.7L832.4 629.1L831.8 629.5L830.1 629.9L829.3 630.4L828.8 631L828.2 631.6L828 631.4L827.3 631.6L826.7 631.9L826.5 631.8L825.2 631.6L824 631.2L821.1 629.9L818.4 629L816.4 628.5L815.9 628.4L815.8 628.2L814.5 627.6L813.4 627.3L813.3 627H812.8L812.4 626.8L810.9 626.3H810.4L810.2 626.1L810.4 625.8H810.7L811 625.3L810.9 624.7L810.1 623.7L809.6 623.3L809.2 622.9L809.3 622.5L808.3 621.4L807.9 620.9L807 619.8L806.7 619.2L805.6 618.8L805.3 618.3L804.9 617.8L803.7 617.3L803.5 617.1L803.8 616.6L804.1 615.9L803.9 614.5L803.8 613.3L804.9 612.1L805.7 611.5L806.4 611.4L806.7 611.2L807.1 611.1L807.3 610.8L807.8 610.7L807.9 611.2L808.2 611.5L809.9 612.1L811.3 612.4L812.7 612.9L813.2 613.1L814 613.4L817.8 614.6L819.9 616.2L822.1 617.3L823.7 617.6L824.4 617.5L825.6 617.8L826.5 617.6L826.9 617.4L827.6 616.7H828.8L830.2 616.9L831.4 619L832 619.4H832.4L834 619.5L834.9 619.9L835.5 620.5L836.4 620.7L837.6 620.6L838.8 620.5L839.8 620.1L840.6 620.3L840.9 620.5L842 620.8L842.6 620.7L843.5 620.3L844.6 620L844.9 619.8L845.9 619.6L846.7 619.8L847.8 620.3L849.2 621.2L850.6 622.3L851.1 622.9L851.4 623.1L852 623.8L852.7 624.9L854 626.6L854.3 627.5L854.7 628.2L855 629.1V629.5L855.2 630.1L855.1 630.8L854.8 631.8L854.4 632.4L854 632.8L853.4 632.9L852.9 633.1L852.1 632.8L851.6 632.3H850.8L850.3 631.7L850.1 630.9L849.1 630.8L848.2 630.9L847.5 630.6L846.2 630.4L845.6 630.1H845L843.4 629.2L842.5 628.9L841.6 628.8Z" fill="black"/>
<path fill-rule="evenodd" clip-rule="evenodd" d="M97 652.6L97.5 651.6L97.2 651.3L97.4 650.9L97.5 650.1L97.9 649.8L99 649L99.5 648.7L99.7 648.2L100.2 647.8L100.6 647.2V646.2L100.4 645.3L100.5 645.2V644.3L100.8 643.9L101.2 644L101.9 643.3V641.8L101.7 641.2L102.5 640.8L102.7 640.5L102.6 640.2L102.2 639.7L102.3 638.4L102.2 638.2L101.5 638.1L101.6 637.7L102.2 637.2L102.6 636.6L102.5 636.2L102.1 636.1L102.2 635.5L102 635.2L100.9 635.4L100.7 635.7L100.4 635.6L100 635.1L100.1 634.6L100 634L99.6 633.5L99.4 632.6L99.2 632.3L99.4 631.9H99.7L99.9 630.8L99.8 630.5L99.9 630.1L100.1 630L100.2 629.8L99.6 629.1L99.7 628.9L100.2 629.1L100.3 628.7L100 628.2L99.7 627.9L99.9 627.7L100.5 627.8L100.8 627.5L100.7 627.3L100.3 626.9L100.2 626.7L100.3 626.2L99.1 625.8L99.2 625.4H99.4L99.5 624.9L100 625.2L100.1 624.6L99.9 624V623.5L99.8 623.2L99.4 623.1L99 623.8L98.8 624.5L98.2 625L98 624.5L98.3 624L97.5 623.6L97.4 624.1L97.1 624V623.7L97.4 623.2L97.2 622.3L96.7 622.4L96.5 622.3L96.4 621.8L96.1 621.4L95.6 621.2L95.7 620.7L95.6 620.5H95L94.7 620L94.8 619.2H95.3V618.4L94.6 618.5H94.1L93.3 618.6L93.1 618.9L92.6 619L92.4 618.6L91.6 618.1L91.2 618.2L91.1 617.9L91.2 617.4L90.5 616.9V616.4L90.2 616.3L90.1 615.3L90.3 614.2L90.6 613.6L90.9 613.4L91.1 613L91.4 612.8L91.8 612.1H92.5L93.1 611.8L93.4 611.1L93.8 611L93.9 610.8L93.5 610.2L93.7 609.8L93.5 609.3L94.2 608.3V607.7L94.5 607.2V606.9L94.8 605.3L95.3 605.1L95.7 605.2L96 605V604.7L96.2 604.2L96.8 604.1L97 603.8L97.4 603.7L97.3 602.9L97.4 602.6L97 602V601.6L97.4 600.5L97.7 600.3L98 599.6L103.7 589.8L104.8 587.8L105.1 587.4L110.9 577.4L112 575.3L108.9 574L88.4 565.7L85.9 563L86.5 562.3L83.1 560.9L80.2 560.7L78.5 556L76.8 553.1L75.2 552.2L71.7 550.8L69.1 548.9L68.1 548.6L62.5 546.1L60.3 539.1L68.1 537.8L68 535.7V534.3L64 530.5L58.4 524.7L52 518.2L52.4 516.5L52.2 515.6L51.1 514.9L49.5 513.3L49 512.6L48.5 512.2L47.7 510.1L47.1 509.4L46.3 509.2L45.7 509.6L45 509.4L44.6 508.9L44.3 508.4L43.6 508.1L44 508L44.1 507.7L43.8 507.5L44.2 507.3L43.2 506.6H42.7L42.2 506.2L41.5 506.4H41.1L40.8 506.2L40.3 506.1L40.1 506.3L40.3 506.5L39.7 506.4L39.2 506.7L39.1 506.9H38.8L38.5 506.2L38.1 506L37.6 505.4H37.4L37 504.9L37.4 504.6L37.5 504.3L37.9 503.9L38.8 503.8L39.4 503.2L40 502.9L40.2 502.5H40.7L41.2 502.2H41.6L42.3 501.8L43.9 501.2L44.6 500.5L45.5 498.4L47.7 496.1L48.7 496.9L50.4 497.6L50.8 497.3L52.4 498.2L52.9 498.3L53.7 499.3L56 500.9L56.9 501.5L57.4 501.6L58.4 501L59.5 499.1L60 498.6L60.3 498.1L60.9 498.3L61.6 498.1L62.6 498.3L63.2 498.6L64.5 499.5L65.1 499.8L66.7 500.8L67.2 501.2L67.6 501.9L68 503.3L68.2 503.5L69.2 503.3L69.8 503.4L69.9 503.2L70.3 502.4L70.9 500.9L72 501.2L73.1 501.1L73.8 501.4L74.1 501.5L74.5 501.3L74.9 501.4L75.3 501.7L76.1 502.6L76.7 503L77.7 502.9H79L80.1 502.4L80.7 502L82.6 502.4L83.5 502.7L84.5 502.1L85.6 501.4V499L85.1 497.4L85 494.9L86.5 492.8L86.9 490.1L86.2 488.9L87.8 487.3L88.5 487.5L88.7 487.9L89.6 488L90.6 487.2L90.8 484.6L91.1 483.7L93.1 482.6L93.6 482.7L102 479.6L103.3 470.2L104.2 467.1L105.8 459.1V458.2L105.7 453.7L106.1 451.9L104.9 450.3L104.8 449.7L105.1 448.3L104.9 447.9L105 447.4L104.7 447.2V446.4L104.9 446L104.7 445.7L104.9 445.3V444.1L105 441.2L105.7 440.4L104.9 440.3L104.5 440.7L102.8 440.5H102.1L102.3 438.8L101.7 437.2L100.7 436.8L99.6 435.8L96.7 433.6L94.8 433.3L93.9 430.2L93.6 429.1L93.3 428.8L92.9 427.5L92.3 425.6L91.6 424.2L91.3 422.9V422.4L91.7 421.3L91.2 421.1L90.1 421L89.5 420.5L89.2 420.6L88.9 421L88.7 421.5L88.5 421.8L88.2 421.5V420.9L87.8 420.7L87.4 420.8L86.8 421.3L86.4 421.2L86.5 420.5L86.1 420.2L85.8 420.3L85.3 420H84.4L84.2 419.8V419L84.1 418.9L83.6 418.8L83 419.3L82.5 419.1L81.2 419L81 418.7L81.7 418.5L82 418V417.7L81.4 417.9L81 417.8L80.5 418.4L79.9 418.9L79.6 419.3L79.2 418.9L79 418.5V417.8L78.8 417.4L78.6 417.3L78 417.6L77.7 418L77.6 418.4L77.1 418.3L76.8 419.3L76.9 419.5L77.3 419.7L77.8 420.2L77.5 420.4L77 420.8L76.6 420.6L76.4 420.2L76.2 419.2L75.6 419.1L75.5 419.4L75.6 419.7L75.3 420L74.7 421L74.4 421.3L74.1 421L74.3 420.5L73.6 419.6L73.3 419.1L72.8 419.2L73 420L72.5 420.3L72.6 420.8L72.4 421.1L72.9 421.9L73 422.9L72.6 423L72.2 422.9L72 423.1L71.2 423.5L70.9 423.4L70.7 423.1L69.9 423L69.6 422.8L69.1 422.9L69.4 423.4L68.6 424V424.4L68.2 424.6L67.6 424.5L67.2 423.3V422.8L67.5 422.3L67 421.6L66.8 420.6L66.7 420.3L66.9 420L67.2 419.9L68 420.7L68.3 420.8L69.2 420.6L69.5 420.4L69.7 419V418.7L69.2 418.1L69.1 417.5V417.2L71 416.3L71.4 416V415.8L71 415.2V414.7L71.4 414.4L72.1 414L72.3 414.3L72.2 415.2L72.8 415.7L73.3 415.8L73.9 415.6L74.1 415.3L73.9 414.6L74 414.2L74.8 413.3L75.1 413.2V412.7L74.8 412.3V411.8L75.1 411.7L75.8 411.9L76.3 412L76.7 412.1L77 411.5V410.8L77.3 410.1L77.6 409.9H78.4L78.5 409.8L79.1 409.6L79.3 408.5L79.7 408.6L80.1 408.8V409.7L80.5 410.8V411.1L80.7 411.5L81.6 411.4L82.4 410.9L82.9 410.7L83.8 410.9L85.1 410.4L86.1 410.2L86.2 410.1L86 409.4L86.3 408.8L87 408.6H87.5L88 408.9L88.2 409.8L88.1 410.2L87.6 410.8L87.7 411L88.1 411.2H88.6L89 411.6L89.4 411.7L90 411.6L90.5 410.7L90.3 410.3L89.4 409.7L89.3 409.4L89.4 408.1L89.6 407.7L90.5 407.2L90.7 406.9L90.9 406.8L91.4 407.2H92.1L92.6 407L93 406.7V406.3L92.7 405.9L91.8 405.8L91.5 405.7V405.2L92.4 404.4L93.1 403.5L93.5 402.9L93.8 402.7L94.2 402L94.5 401.9L95 402.1L95.5 403.3H95.7L96.3 403.2L96.7 402.4V402.3L96 401.4V401.1L96.6 400.4L97.4 399.8L98 399.6L98.3 398.9L98.7 398.2L99 398.1H99.6L100.4 398.4L101 399H101.5L102 398.6L102.2 398L102 397.6L102.2 397.4L103.3 397.3L104.1 397.1L105.6 396.4L105.8 396L105.7 395.6L106.2 394.9L106.7 395.3L106.9 395.2L107.2 394.7V394L106.3 393.9L106.1 393.5L106.7 392.6L107.4 392.1L108.6 392.3V393L109.9 392.3L110.7 391.5L110.5 391L110.1 390.8L109.3 390.7L108.1 390.2V389.2L108.3 388.8L108.7 388.5L110.2 388.7L110.6 388.6V388.6L111.1 388.2L111.6 388.1L111.7 387.9V387.2L111.2 386.4V385.8L110.6 385.6H110.1L109.9 385.3V385.3L109.4 384.9L109.7 384.5L109.9 384L110.6 383.2L111.3 382.7L112.1 382.8L112.8 383.2L112.9 383.4L113.7 383.5L113.9 383.8L114.4 384H114.7L115.2 383.4L115.3 382.9L115.1 382.6L115.5 382.4L115.8 382.5L116 382.3L115.7 382.2L115.9 381.6L115.3 381.2L115.4 380.4L115.9 380.8L116.1 380.4L116.5 380.7L116.6 381.1L116.9 381.4L117.5 381.5L117.6 380.9L117.9 380.8L118.1 380.4L118.4 380.7H118.7L118.8 381L119.4 381.1L119.6 381.5L120.2 381.3V381.3L120.9 381L121.6 380.3L121.8 380.5V380.5L121.9 380.7V380.2L122.4 379.6L122.6 379.5L122.7 378.9L123 378.6L123.1 378L123.5 377.5L123.4 377L123.8 376.5V376L123.2 375.3L122.6 375L122.2 374.9L121.8 374.4L121.3 373.9L121.5 373.8L122.3 374H123L123.2 373.5L123.6 373.6L124 373.4L124.8 373.5L125.3 373L125 372.6L124.6 372.2L124.2 372.3V371.9L124 371.6H123.6L123.7 371.4L124.4 371.2V371.1L123.9 370.7L124 370.5L124.5 370.6L124.7 370.4L124.4 370L124.3 369.4L123.9 369.3L124.1 368.9H123.6L123.4 368.7L123.7 368.6L124 368.1L123.8 367.5L124.3 367.6L124.4 367.8L124.8 367.9L125 367.5L125.6 367.8L126 368.1L126.2 367.9L126.1 367.4L126.8 367.5L126.2 367L125.7 366.4H125.5L125.4 366H124.6L124.1 365.6H123.7L123.5 365.5L124 365.2H124.4L124.5 365.1L124.1 364.5L124.8 364.7L125 365L125.5 364.9L125.8 365L126 364.9V364.5L126.2 364.4L126.3 363.8H126.5L126.7 364.2L127 364.1L127.3 363.8L127.6 364.1L128.3 364.2L128.1 363.8L128.3 363.5L128.4 362.9H127.8V362.6V362.6L127.5 362.3L126.9 362.6L126.4 362.1L126.1 362.3L126 361.7L125.6 361.5V361.3L126 361.1V360.7L125.6 360.6L125.5 360.3L125.7 360L126 359.9V359.5L125.8 359.3V359.1L126.5 359.2L126.6 358.8V358.8L126.7 358.4L127 358.3V358.3L127.4 358.2L127.6 358.3L128.2 358.1L128.5 358.5V358.5L128.8 358.9L129.1 358.7V358H129.6L129.4 357.7L128.8 357.5L128.6 357.7L128.5 357.3L128.2 357.6L127.4 357.7L127.1 357.8L127 357.5L127.9 357.1L128 356.7L127.7 356.5V356.5V356.3L127.3 355.7L126.7 355.3L126.5 354.3L126.2 353.7L126.3 353.3L126.2 353.2L125.8 353.5L125.6 353.1L125.4 353.2V353.2L125.1 353L125.5 352.9L125.7 352.6L125.4 352.2L125.7 352L125.5 351.6L125 351.5L124.5 351.6L124.3 351.5L124.1 350.8L123.9 350.7L123.1 351L122.3 350.8L122.1 350.9L122 351.4L121.2 350.9L120.3 350.6L119 350.4L118.2 350.6L117.6 350.3L117.3 350.4L116.7 350.1L116.6 349.9L116.3 349.7L116.1 349.4H115.9L115.5 349.9L114.6 350L114.4 349.8H113.2L112.8 349.2L112.6 349.1L112.1 349.4H111.7L111.5 349.2V348.7L111.3 348.4L110.8 348.2L110.6 347.9L109.7 347.2L109.5 346.8L109 346.6L108.9 346.2L109.4 345.5L109.1 344.8L108.9 344.6L108 344.2L107.9 343.6H107.6L107.3 343.3L107.2 342.9L107 342.7L106.2 342.9L105.2 342.5L105.3 342.3L105.7 341.9L105.3 340.5L105 339.9L104.4 340.2V340.5L104.2 341.2L104 341.3L103.9 341.8L103.6 342.3V342.5L103.4 342.7L103.6 343.8H103.2L102.9 343.2L102.6 343.3L102.4 343L102.2 342.6L101.9 342.3L101.7 341.5L101.5 341.2V340.8L101.8 340.7L101.9 340L101.6 339.8L101.4 340.3H100.7L100.3 340.5L99.9 340.9H99.6L99.4 340.3V340.1L99.2 339.8L98.4 339.6H98.2L97.8 339.2L97.9 338.8H98.2L98.3 338.5L98.2 337.7L98.3 337.5L98.1 337.2L97.7 336.9L97.5 336.5L97 336.8L96.4 336.6V336.2L96.7 335.5L97.3 335H97.7V334.7L97.4 334.2H97.1L96.7 334L96.9 333.6L96.3 333.5L96.2 333.2L96 333.6L95.6 333.4L96 332.9L96.1 332.6L95.6 332.4V332.1L95.4 331.6L95.1 331.4V330.7L94.8 330.1H94.4V329.7L94.6 329.5L94.3 329.2L93.5 329.4L93.2 329.3L93.3 328.9L93.2 328.7L92.7 328.6V327.6L92 327H91.4L91.5 326.4L91.6 326.2L92 326.4L92.5 325.8L93.9 324.9L94.3 324.8L94.9 324.5L95.2 323.9L95.5 323.7L95.6 323.5L96 323.2L96.6 323.4L97.1 322.9L97.5 323V323.4L98 323.2L98.3 322.8L98.7 322.6L98.9 322.1L99.5 321.8H100.1V321.5L99.9 321L100.1 320.7L101 320.2L101.4 320.1L103 319.3L103.6 319L104.8 317.8L106 317.9L106.6 318L106.9 317.6L107 317.1L107.4 316.6L108.1 316.5L109.2 317.4L109.8 318.1L110 318.9L110.2 319.3L111 319.4H112.2L112.9 318.7L112.5 318.1V317.3L113.3 316.2L112.7 315.8L112.4 315L112.5 314.5L112.2 313.9L112.3 313.7L112.1 313.3L112.3 313L111.9 312.4L112 312.1L111.6 311.8L111.7 311.5L111.4 311.3V310.9L111.6 310.7L111.4 310.2L111.7 310L111.6 309.5L112 309.1L112.4 308.8L112.5 308.4L112.8 308.5L112.7 308.2H113L113.2 307.6L113.4 306.9V306.5L113.6 306.1L113.7 305.5L113.4 305.6L113.2 305.3L113.7 304L113.6 303.6L114.3 303.5L114.4 302.9L114.6 302.3L114.8 302.1V301.7L115.2 301.2L114.9 301L115 300.8H115.6L115.9 300.6V300.1L115.6 299.9L115.5 299.1L115.8 298.8L115.7 298.4L116.1 298.2V297.7L115.9 297.6L115.8 297V296.3L115.5 296.4L115.4 296L114.5 295.2L114.1 294.3L114.2 294.1L114.5 294L114.4 293.7L113.9 293.4L114 292.7V292.3H113.4L113.2 291.9L113.7 291L113.2 290.5L112.6 290.3L112.4 289.7L112.5 289.2L112.8 288.7L112.7 288.2V287.9L112.6 287.8L112.4 286.6L113.2 286L112.9 285.6L113.3 284.3L113.7 283.8L113.8 283.4L113.5 282.4L113.9 281.5L113.8 280.9L113.6 280.5L113.2 280.7L113 281.2L112.6 281.4L112 281L111.4 281.1L110.9 280.5V279.8L111 279L110.8 278.8L110.2 278.7L110.1 277.7L110.2 276.8L110.4 276.3V275.8L110 275.4L109.7 275.5L109.2 276.2L108.2 275.9L108 275.6L107.9 275.1L108 274V272.2L108.1 271.8L107.8 271L107.4 270.6L106.9 270.2L106.3 269.6L105.9 269.4L105.5 269.5L105.6 269.1L106 268.9L105.9 268.7L105.3 268.6L105.1 267.5L105.3 267.4L100.8 262.7L100.2 255.1L100.1 250.3L101.6 248.8L103.3 247.2L102.7 243.3L102.1 242.8H101.9L101.6 242.4L100.7 242.6L100.4 242.2L99.9 241.7L100 241.5L98.9 240.5L98.6 240L98.1 239.6L97.7 239.7L97.5 239L98.1 238.6V238.3L97.7 238.2L97.6 237.9L98 237.7L97.7 237.4H98.1V237.1L97.7 237.2L97.3 237.1L97.6 236.9L96.8 236.6L97.4 236.1L97.8 236.2L97.7 235.8L97.9 235.6L97.8 235.4L97.5 235.6L96.9 235.3L97 235L96.8 234.9L96.5 235.3L96.3 235.2L96.4 234.8L96.7 234.5L96.6 234.2L96.8 233.9L97.1 233.8V233.1L97.3 233H97.7L98.2 232.7L99.3 232.3H99.5L100.2 232H100.4L100.7 231.7L100.8 231.1V231.8L101.4 232L101.6 231.8H102.1L103.2 231.7L103 232.1L102.9 232.6L102.7 232.9H102.6L102.7 233.4L103.4 233.7L103.5 233.9L104.1 234L105.3 235L106.1 235.3L106.5 235.1L106.6 235.3L107.2 235.8L108.8 235.1V234.8L108.5 234.6L107.6 234.9L107 234.8L106.8 234.7L106.5 234.6L106 234.9H105.7L105.4 234.6L105.2 234.4V234.4V234.3L105.5 234.1L105.6 233.9L106 233.8L106.4 233.7L106.5 233.8V233.7L106.4 233.6L106.3 233.2H106.7L106.8 233L106.5 232.5L106.2 232.3L105.4 231.8L105 232L104.3 232.9L104 232.7L103.2 232.6L103.5 232.1L103.8 231.4L103.9 231.3V231.2L104 230.8L104.1 230.3L104.2 229.9L104.4 229.2L104.8 228.3L105.1 227.8L105.2 227.5L106 227.3L105.1 227.4L105 227.6L104.7 227.7V227.3V226.8V226.7L104.8 226.3L104.6 226L104.1 225.8L104 225.7V225.7L103.9 225.6L103.7 225.5L103.5 224.8L103.2 224.4L103.4 224.1V224.4L103.7 224.5L103.8 224.8H103.9L104 224.4L103.9 224.1L103.5 223.3L103.6 223L104.2 223.1L104.4 222.4V222L104.1 221.8L104.5 221.1L104.4 220.5L104.3 220.7L103.6 221.1L103.4 221.6L103.1 221.9L103.3 222.7L103.2 223.1L102.9 223.3L102.5 223.5L102.6 223.9V224L102.2 223.9L102 222.8L101.6 222.1L101.4 221.8L101.1 221.3L100.8 220.7L100.6 220.2L100.4 220.1L100.2 219.6L100 219H100.2V219.2L100.4 219.4L100.8 219.5H101H101.4L101.5 219.7H102.1L102 219.3L101.4 219L100.9 219.2L100.8 218.8L101.1 218.2L101 218L100.8 217.9L100.7 217.7V217L100.1 216.7L99.7 217H99.6V218L99.9 218.5L99.6 218.4L99.5 218.1L99.2 217.1L98.8 216.8V216.7L98.9 216.5L98.4 216.2H98.5L99.1 216.3L99.3 216.2L99.7 215.7V215.5V215.3L99.6 214.5L99.4 213.9L99.5 213.5L99.4 212.9L99.3 212.8L99.1 212.7V212.3L99.4 212H99.7L99.5 211.5V211.3L99.2 211L99.1 210.7L99.7 210.3L99.9 209.9V209.4L99.7 209.5V209.5L99.5 209.8L99.1 209.9L98.9 209.8H98.8H98.7H98.5L98.4 210.2L98.2 210.7L98.3 211.2L98 211.6L97.7 211.8L97.4 212L97.1 212.6L96.9 213.2V213.7L96.1 213.4L95.6 213.2L95.5 213.1H95.4V213.1L95.3 213.2H95.2L95 213.4V213.4V213.5V213.6V213.7H95.1H95.3V213.8L95.6 214.2H95.9L95.7 214.9V215.1V215.3L95.4 215.4H95.1V215.5V215.5L94.9 215.7L94.4 215.9H94.2L93.4 216L93.2 216.4L93.1 217V217L93.2 217.4L93.6 217.8L93.8 217.7L94 218.1L93.9 218.4L93.5 218.8L93 218.6L92.7 218.5H92.2L91.9 217.8L92.4 216.3L92.8 215.6L92.9 215.2L92.7 214.7L92.4 214.5V214.2L92.6 213.3L93 212.9L93.9 211.9L95.1 210.9L95.9 210.2L96.6 209.6L97.4 208.7L98.1 208.1L99.5 207.2L99.8 206.9L99.9 206.8L100.2 205.9V205L100.4 204.6L101 204.4H102.5L103.9 204.3L105.5 204L107.1 203.5L108 203.2L109.7 202.6L111.5 201.7L112.6 201L113.3 200.5L113.4 199.9V199.4V198.7L113.6 198.4L113.9 198.2L115.6 197.9L117.2 197.2L117.8 196.7L118.6 196.1L119.3 195L119.6 194.7L120.5 194L120.9 193.6L120.8 193.4L121.3 192.7L121.9 191.3V191.3V191.2V189.8L121.8 189.3V188.3V188.1L121.6 187.7V187.2L121.2 186.5L121 185.8L120.6 185.6L120.3 184.9L120.4 184.7V184.6L120.6 184.4L120.9 184.5L121.4 184.4L121.8 184.2L122 183.9V183.4V183.4L123.2 183.6L123.5 183.8L124.2 183.9L124.8 184.5L125.1 184.7L125.3 185.4V185.6L125.4 185.9L125.6 186.8L125.7 187.1L126.7 187.7H127.2L127.5 188L127.6 187.9L128.3 187.7L129 187.6L129.9 186.8L130.5 186.1V186V185.2V184.3L130.2 184L130.4 183.6L130.9 183.5L130.8 183.4L131.3 183L131.4 183.1H131.9L132 182.9H132.1V182.9L133.3 182.3H133.8L134 182.7L134.3 182.8H134.8L134.9 182.3L136 182L137.1 181.3L137.7 181.4L138 181.2L139.1 180.8L139.6 180.6L139.8 180.9L140.2 180.8H141.6L142.4 180.9L142.9 181.3H143.2L143.8 181.5L144.5 181.2L144.8 181.1L145 181.3L145.4 181.2L145.6 181L146.3 180.8L147.1 180.7L147.7 180.5L148 180.3L148.5 180.2H148.6L148.8 180.1H149.1L149.6 180L150.2 180.5L151.5 180.9L151.7 180.8H151.8H151.9L152.5 180.9L153.3 181L154.5 181.3L154.9 181.5H155.6H155.7V181.4L155.9 181.3L156.5 181.4L157.5 181.7L158 181.8L159.2 181.5L160.9 180.8L161.8 181L162.2 181.3L163.8 182.2L164.4 182.4L165.2 182.5L166.1 182.8L166.6 183.3L167.1 183.6V183.6L167.8 183.9L168.5 184.1L168.8 184.4L169.4 184.6H170L170.3 184.9V185.2L170.1 185.5L170.4 185.4L170.9 185.7L171.6 186L171.7 186.1L172.5 186.5L173 187.4L173.5 187.6H173.7L174.4 187.7L174.7 187.9H174.8H175H175.3L175.9 188.4L176.9 188.9L177.2 189L177.6 189.3L178.4 189.2L178.9 189.8L179.2 190L179.8 190.1L180.3 190.4L181.3 190.7L181.4 191.4L181.7 191.6L182.5 191.4L183.2 192.2L183.8 192.1L184 192.3L184.5 192.2L184.8 192.1L185.1 192.3L186 192.6L186.9 193.5L187.2 193.7L187.6 193.9L188.3 194L188.5 194.2L188.8 194.1L189.7 194.2L190.3 194.4L190.8 194.3L193 195V195.3L193.3 195L193.9 195.2V195.4L194.3 195.5L194.7 195.8L195.2 195.9H195.6L195.7 195.8L196 195.6L196.2 195.8L196.4 195.9L196.6 195.8L196.8 196L197.6 196.1V196.2H198L198.2 196.3L199 195.9L199.3 196.3H200.2L200.3 196H200.6L201.5 196.5L202 196.3L202.1 196.2H202.6L202.7 196.5H203.1V196.2V196L203.3 195.9L203.7 196H206.3L206.6 196.5L207.1 196.9L207.8 196.5L208.2 196.9L208.5 197.1L208.6 197.7L208 197.5L208.3 197.8L208.4 198.1L208.3 198.2L208.9 198.3L209.3 198.6L209.5 198.5L210 198.8L210.2 198.7V198.8V198.8V198.9H210.4L210.2 199.4V199.4V199.6L210.8 199.8L211.3 199.6L211.6 199.3L211.9 199.4L212.1 199.5L212.3 199.9L212.4 200.1H213.1L213.7 200.3V200.4H214.4H214.6H214.8L215.2 200.2H215.3H215.6V200.5L215.7 200.8L216.1 200.6L216.6 200.7L218.1 201.1L218.7 200.7H219.3L220.2 199.9L220.9 199.8L221.9 200.2L222.2 199.7H222.6H223L223.5 199.6L224.3 199.2L225 198.9L225.5 198.8L225.8 198.7L226.4 198.3L226.8 197.7V197.1L226.6 196.2L226.5 195.5L226.9 194.5L227.2 193.9L227.6 193.6L227.7 193.3V192.9L227.2 192.7H226.7L227 191.9L227.1 191.3L226.9 190.7L227.3 190.8L227.7 190.9L228.3 191.3L228.9 191.8L229.5 192.1L230 192.5L230.9 192.8L231.2 193L231.4 193.5L231.5 193.8L232.2 194.5H232.8L233.5 195.1H234.1L235.2 194.8L235.4 194.9L235.8 195.6L236.1 196L235.9 196.4V196.4V196.5V196.5V197.2L235.7 197.7V198.3H235.1L234.8 198.4L233.9 198.1L232.9 197.9L233.2 198.3L233.9 198.4L234.3 199L234.6 198.8H235.2L236 198.3V197.8L236.4 197.2L236.3 196.8L236.6 196.6L236.8 196.9L237.2 196.7L237.5 196.3L237.9 196.1L238 194.8L237.8 194.4H238.3L238.9 194.1H239.5L240.1 194.4H240.5L240.6 194.7H241.6L241.7 194.9L242.3 194.7L242.5 195L242.6 194.9L243.3 195L242.7 194.8L242 194.3L241.5 194.4L241 194.2L240.1 194.1L239.7 193.7L239.1 193.5L239 193.2L238.5 193.1H237.8L237.3 192.9L237.2 193V193.3L237 193.9L237.4 193.8V194.7H236.9L236.6 195.2L236.2 195.4L235.8 195L235.6 194.7L235.4 194.6V194.2L236.1 194L236.6 193.7L236.9 192.9L237.3 192.6L238.6 192.7L239.3 193L240 193.5L240.3 193.7H241.2L241.4 193.6H242.2L242.5 193.5L242.9 193.7L244.1 193.9L245 194.2H245.4L245.8 194.1L246 193.9L246.3 193.6L246.5 193.4V193.2L247 192.8L247.4 192.7L247.8 192.3H248.1L248.5 192.2H248.6L248.7 192.1L249.5 191.9L251.1 191.7L252 191.5L253.2 191.1L254.6 190.5L255.5 189.9L256 189.6L256.8 188.9L257.6 188.2L258.1 187.7L258.4 187.5L258.7 186.9L258.6 186.4H258.2L258 186.1L258.2 185.8L258 184.7L257.6 184.1L258 183.1L258.5 182.9L258.8 182.6L259.6 181.5L261.1 181L261.3 180.7L261.9 180.4H262.1L262.4 179.7L262.7 178.5L263 178.4L263.4 178.2L264 178.1L264.4 177.9L265.4 177.8L265.7 177.5H265.8H266.2H266.7L267.4 177.2L267.5 177.1L267.7 176.8L268 176.5L268.5 176.4H268.6H268.7H268.8L268.9 176.2L269 176.1V176.1H269.1V176.1L269.6 175.9H270.1H270.4L271.2 175.3H271.7L271.9 175.4L272.1 175.2H272.7V175.2V175.2H272.9H273.1H273.2L274 175.1L274.2 175L274.9 175.1L275.2 175.3L275.5 175.5L276 175.4V175.3L276.1 175.2H276.2L276.8 175L277.2 175.1H277.4H278L278.6 175.2L279.4 175.5L279.9 175.4L280.5 176L281.5 176.4L281.6 176.9L282 176.8L282.1 177L283 177.7H283.3L283.7 177.9L284.2 178.3L285.1 178.9L285.7 179.1L286.4 179.3L286.9 179.5L287.2 179.8L288 180.1L289.1 181L289.2 181.2L290.3 181.4L290.5 182.1L290.4 182.6L289.9 182.8L289.8 182.6H289.3L289 182.4H288.8L288.7 182.5L288.6 182.4H288.5L288.4 182.3L288.3 182.6V182.8L287.6 182.4V182.3H287.3V182.5H287.4L287.5 182.6L288.1 183.1H288.5V183.1L288.4 183.2H288.3H288.1L287.9 183.1H287.7H287.6L287.4 183.3L287.3 183.6H286.9H286.8V183.8L287.1 184H287.2L287.5 184.2L287.7 184.3V184.4L287.8 184.5H288V184.5L288.4 184.4L288.5 183.9L288.9 183.5H289.3L289.9 183.4L290.3 183.3L290.4 183.2L290.5 182.9L290.8 182.7L291 183L291.1 183.2V183.3L291.6 183.7L291.1 184.2L291.3 184.4H291.5H291.9L291.8 184.6L291.9 184.7L292.3 184.8L292.4 184.7L292.6 184.6L293.1 184.2L293.2 184.4L293.3 184.9L293.7 184.5L293.9 183.9H293.5L293.3 183.5L292.9 183.7L292.7 183.3H292.5L292 183H291.6V182.6L291.3 182.4L291.4 182L291.5 181.6V181.6V181.4L291.8 181.1L292.2 180.3L292.4 180L292.6 179.7L293 179.3L293.5 179L294 179.1L294.7 179.3L295.5 179.9V180.1L295.8 180.3L296.3 180.7L296.8 180.9L297.7 181L298.2 181.1L298.5 181.5L298.7 181.2L299.1 181.5V181.8L299 182.1H299.4L299.5 181.9L299.8 182.1H300.3L300.5 181.9L301 182L301.5 181.9L301.9 181.7L302.3 182H302.6V182L302.9 181.9L303.8 182.3L304.2 182L304.1 181.9L304.2 181.8L304.6 181.9L304.8 182.1L304.9 182.2L304.7 182.6L305 182.9L305.7 183.1L306 183L306.2 182.9L306.5 182.6L306.4 182.2H306.5H306.6L306.8 182.3L307 182.4L307.1 182.3L306.9 181.9L307.4 181.7L307.8 181.8H308L308.3 182.2L308.5 182.4H308.7L309 182.5L309.2 182.6H309.3H309.8L310.5 182.2L310.6 182.3L310.7 182L311.2 181.7H312L312.4 181.5L312.5 181.4V181.5L312.9 181.6L313.2 181.5V181L313.6 181.1V181.2V181.3L313.5 181.4V181.7H313.6L313.9 182H314.3L314.5 181.9L315.1 181.7H315.6L315.8 181.9L315.4 182.1L315.3 182.3L316.1 182.9V183.1L315.8 183.5L315.7 184.6L315.8 184.8L316.5 185.7L316.7 185.9H317L317.8 186.5L317.9 186.6L318.3 187.1L318.7 187.3L319.3 187.6L319.6 187.5L319.9 187.4L320.2 187.6L321.1 187.3L321.2 187.4H321.6L322.2 187.6L322.1 187.9H322.5L322.9 188.9L323.2 189L323.4 189.4L323.8 189.3L323.9 189.7L324.2 190V190.7L324.3 190.9L324.7 190.8L324.9 191.1L324.7 191.6L324.5 191.7L324.4 191.9L324 191.8H323.7V192.1L324.1 192L324.4 192.2L324.6 192H325.4L325.6 191.8L325.8 192.1L326.1 193L325.3 193.4L324.8 193L324.6 193.1L325.1 193.5L325.7 194.3L325.9 194.1L326.9 193.8L327.2 194.3L327.7 194.5L328.1 195.2V195.6L328.5 196.3L329.5 197.1L329.9 197.6L330.1 197.7L329.7 198.7L328.8 199.4L328.6 199.7V200V200.4L329 200.8L329.2 201L329.8 201.1L330.2 201L330.7 200.8L330.8 200.6V200.3L331 199.9H331.3L331.5 199.7V199.4L331.6 199.2V199L332 199.5H332.6L333.1 199.7L333.4 199.6L333.8 199.5L334.1 199.4L334.4 199.1L334.7 199.2L334.9 199.1V198.8L335 198.7L335.3 198.8L335.4 198.9H335.6L335.9 199.1L336.2 198.9H336.8L337.2 198.7L337.5 198.9L337.8 198.8L337.9 199.1L338.3 199.2L338.4 199.6L338.9 200.1H339.6L339.5 200.4L339.7 200.7H339.9L340 200.6L340.5 200.8L340.2 201.2L340.4 201.6L340.6 201.5H340.7V201.4V201.6L341.1 201.5H341.3H341.4L341.5 201.3L341.3 201.1H341.2L341.6 201.3L341.4 201.6L341.7 201.9L341.5 202.3L341.6 202.5V202.8L341.8 203.2L342.2 203.4L342.6 203.2V203L342.9 202.9L343 203.1L343.2 203.3L343 203.4L343.4 203.7L344.1 204.1L344.7 204.2L344.9 204.5L345.4 204.6L345.8 204.5L346.3 205L346.4 205.3L346.8 205.6L347.3 206.1L348 206.6L347.8 207H347.5L347.1 207.2L347 207.7L347.2 208.1L347.6 208.5L347.9 208.6L348 208.7H348.2L348.3 208.8H348.9V208.7L349 208.6L349.1 208.2V208.2L349.6 208L349.8 207.7L349.6 207.6V207.5L349.5 207.3L349.6 207L350.4 207.7V208L350.5 208.1L351.2 208.6L352 208.8L352.3 209.2L352.7 209.6L353 209.5L354 210.1L354.1 210L355.1 210.5L355.5 210.6L355.9 210.9L356 211.4L356.4 211.7H356.8H357.1L357.6 211.9L358.1 212.3L358.6 212.9V213V213.4L358.8 213.6L358.9 213.7L359 213.8L359.2 214L359.5 214.1L359.6 214.2L360 214.7L360.8 215.2L361.4 215.3L362.1 215.1V215.1L362.5 214.9L362.6 215L363.1 215.2L363.3 215.5L363.2 216L363.3 216.6L363.5 217H364.1L364.4 217.3L365.2 217.6L365.8 217.5L366.4 217.2L366.7 217L367 216.5V216.4L367.1 216.1H367.4L367.6 215.9H367.8L368.1 216.6L368.6 216.8L368.9 216.9L369 217L369.4 217.2L369.6 217.3L369.8 217.4L370.5 218.1L371 218.3L371.8 218.6H372.7L373.6 218.8L374.3 219.3L375 219.5H375.4L375.5 219.4L375.8 219.2H375.9L376.6 219.1H376.7L376.8 219L377 218.7L377.2 218.5V218.5L377.8 218.4L378.6 218.5L378.8 218.4L379.6 217.9V217.7L380 217.5L380.7 217.4H381L381.1 217.9V217.9H381.4V217.9L381.7 217.8L381.9 217.4L382.4 217.3L382.5 217.4V217.4L382.7 217.5L382.9 217.6V217.7L383 217.8L383.1 217.9H383.2V217.9V217.9V217.9L383.4 218.2V218.2V218.3V218.5L383.5 218.6V218.8H383.6L383.9 219V219.1L384 219.3L384.2 219.4L384.5 219.5L384.6 219.8L384.7 219.7L384.8 220L384.9 220.1L385.1 219.8L385.7 219.5L386.1 219.4L386.3 219.3L386.9 219.5L387 219.6L387.1 219.8H387.5V219.7L387.6 219.5V219.5H387.8H388.1L388.5 219.4H388.7H388.8H389L389.4 219.7L389.3 219.8V219.9L389.4 220.1L389.5 220.3L389.9 220.2V219.8H390.2L390.8 219.9L391 219.7L391.6 219.8L391.8 219.9L392 219.4L392.1 218.7V218.1L391.7 218H391.4V217.7V217.6H391.5L391.7 217H391.6L391.7 216.8L391.9 216.3L392.3 215.9L392.5 215.8L392.8 215.6L393 215.3V214.5L392.8 214.2L392.9 214L393 213.9L393.1 213.8L393.2 213.7H393.3H393.4L393.5 213.6L393.8 213.5H394L394.5 213.1L394.8 213.2L395.4 212.9L396.1 212.8L397.5 212.7L398.6 212.4H398.8L398.9 212.3H399.6L399.9 212.2L400.2 212.3L400.7 212.2H401.4H401.5L402.1 212.3H402.2L403.3 212.5H403.5L403.8 212.3V212.3L404 212.2H404.2H404.3V212.2H404.4L404.5 212.1L405.2 212.4H405.3L406 212.2L406.6 212.3V212.3L407 212.2L407.2 212.5H407.5L407.8 212.7L407.9 212.8H408.4L409.1 213.2L409.7 213.5L410 213.6L410.5 213.9L410.6 214.1L411.3 214.6L411.9 215.2L412.6 216.3L413.4 217L414.3 217.3L414.6 217.6L414.9 217.8H415.1L415.2 218.1L415.5 218.6L416 219.2L416.3 219.7L416.5 220L416.8 220.3L417.4 220.6L418.3 220.8L418.9 220.7L419.2 220.5V220.4H419.4L419.8 220.6L420.4 221.4L421.1 221.9L421.7 222.5L422 223.1L422.6 223.7L423 224.8L424 226.2L425.3 227.8L426.3 229.5L427 230.3L427.2 231L427.4 231.3L429.2 234L430.6 235.4L433.6 237.7L435.8 239.5L438.2 241.9L440.1 243.5L441.9 244.7L443.8 245.9L445.6 246.6L449.2 247.8L451.4 248.4L451.8 248.5L453.3 248.4L454.2 248.5H454.5H455.6L456.6 248.3L456.9 248.2L457.2 248.1L458 248.4H459.1L460.1 248.6L460.9 248.7L461.7 249L462.1 249.4L463 249.9L464 250.1H464.4L465.2 250.4L467 250.8L467.4 251.1L468 251.2H468.3L468.6 251.5H469.3L470.1 251.9L471.2 251.8H471.5L472.9 252.9L473.8 253.4H474.3L475.4 253.3L476.5 253.2L476.9 253.6L477.5 253.7L478.6 253.8L479.2 253.7H480L480.5 253.6L481 253.3L481.6 253.1H482.6L482.9 253L483.5 253.2L484.2 253L484.8 252.8L485.3 252.6L486 252.7L486.6 252.4L486.7 252.3H487.8H488.2L488.7 252.2L489.7 251.7L489.9 251.6L490.7 251.5L491.2 251.6L492.4 251.2L492.8 250.9L494.2 249.9L494.5 249.6L495.3 249.2L495.8 248.2L495.6 247.6L495.7 247.1L496 246.8L496.1 246.6L496 246.4L496.3 246H496.5H496.6L496.8 245.9L497 245.6L496.7 245.2L496.8 244.8L497.2 244.5L497.5 244.7V244.7L497.6 244.8V244.8V244.4L497.9 244.5L498.1 244.4L498 244H498.3L498.2 243.5H498.4L498.3 243.1H498.5L498.8 243.2L498.9 243L498.7 242.8L498.8 242.7V242.4L499.1 242.3L499.3 242.1L499.5 241.9L499.7 241.6H499.8L500.3 241.2L500.5 241.1L500.9 240.8L501 240.6H501.1L501.5 240.3L502.4 240.4L502.8 240.2H503.3L503.5 240L503.6 239.7V239.7V239.6L503.5 239.3L504.1 239.1L504.5 239.3V239.3V239.5H504.6L505.2 239.7L505.6 239.6V239.6L505.8 239.3L506.2 239.4L507 239L507.4 239.4H508.1L508 239.5L508.1 239.6L508.3 239.7V239.5L508.4 239.2L509.1 238.6L509.3 238.9V238.9V239V239L509.4 239.1H509.5L509.8 238.5H510.5L510.6 238.9H510.8L511.4 239L512.3 239.1H512.6L513.5 238.8L513.7 238.9L514.1 238.6V238.9L514.5 239.1H515L515.5 238.9L516.2 239L516.5 238.9L516.9 238.5L517.1 238V237.7H517.5V238.3L517.7 238.4L518 238.3H518.1L518.3 238.1L518.5 238.3L518.7 238L519 238.1L519.1 238L519.2 237.9L519.7 238L520.1 237.9L520.3 238.4L520.6 238.5L521.5 238.6L521.6 238.5L521.7 238.3L522.8 238.1L523.1 238.6L523.4 238.4L523.7 238.5L524 238.4L524.3 238.5L524.5 238.9L525.1 239.2H525.7L525.8 239.6L526.2 240L526.7 239.9L527.2 240L527.5 239.9H527.6L527.9 240.1L528.3 241L528.2 241.3L528.5 241.4L528.7 241.8L529.1 241.9H529.6L530 242L530.1 242.4L529.8 242.5L529.6 242.8L529.7 243.3H530.1L529.8 243.5L530.1 243.7L530.2 244.1L530.6 244.6V244.7L532.1 245.7H532.4H532.8L533.2 245.1L533.6 244.8L533.8 245L534 245.4L534.3 245.3L534.2 245.7L534.4 245.8L534.7 246L534.9 246.2L534.8 246.5H535.1L535.2 246.8H535.3L536 246.4L535.9 246.8L536.1 246.9L536.3 247H536.7L536.8 246.8H537.6L537.7 247H538L538.5 247.2L538.8 247.8V248.4L539.2 248.8L539.1 249L539.3 249.5H539.5L539.7 249.8L540 250.3V250.8L540.4 251.2L540.7 251.9V252.4L541.1 252.7V252.7L541.2 252.8V252.8L541.3 253.5L541.5 253.6L541.8 254L542.1 254.6L542 254.8L541.9 254.9L542.2 255.4L542.3 255.7V256.2L542.4 256.8L542.5 257.6L542.4 258.4L542.2 258.6L542 259.8L541.4 260.7L540.8 261.2L540.4 261.9L539.9 263.3V263.7V263.8V263.8V263.8V264.3V264.5H539.8L539.7 264.4V264.4L539.6 264.3V264.3H539.4L539.2 263.8L538.9 263.7V263.9L539.1 264.1L539.2 264.3L539.3 264.5L539.4 264.6L539.9 265.8L539.7 266.4V266.6V266.7V266.7L539.5 267L539.6 267.1L539.8 267.2V267.4L539.9 267.6L539.8 267.8L539.6 268.2V268.2V268.3L539.5 268.4V268.4L539.4 268.7L539.2 268.8L538.9 269.2V269.4H539L538.6 270L538.7 270.1L539.1 269.7V270L538.7 270.2H538.5L538.3 270.7L537.7 271.5L537.6 272.3L537.8 272.8L538.6 274.6L538.7 274.9L539 275.4L539.5 276.6L539.9 276.8L540.1 276.6L540.2 276.8L540.6 277.3L541 277.6L540.8 277.8L541 278.1L541.4 278.3L541.5 278.5L541.4 278.8V278.9V279.1L542 279.5L542.5 279.7L542.6 279.8L543.1 279.7L544 279.8L544.4 280.3H544.5V280.4L544.7 280.6H545L544.9 280.9L544.8 281.1L545.2 281.3L546.1 282L545.7 282.2L545.5 282.7L545.6 282.9L545.1 283.6L545.2 284.3L545.4 284.8L545.2 285.8L545.3 286.2L545 287.9V289L545.1 289.3L545.5 290.2L545 291.2L545.1 292.1V292.9L545 293.3L545.2 293.9L544.7 294.3L544.4 295V295.8L544.6 296.9L545.5 299.6L546.4 302.1L547.5 304.5L548.7 306.7L549.9 308.5L550.7 309.5L551.1 310.5L551.4 311L551.3 311.6L551.4 312V312.1V312.3V313.3L551.6 314.5L552 315.4L552.3 315.7L552.2 315.9L552.3 316.1L552.8 317L553 317.1L553.3 316.8L553.4 317.3L554.7 318.4L554.9 318.8L556.1 319.7L556.4 320.4L557 320.9L557.8 321V321L558.2 321.4L558.6 321.5L558.8 322L558.9 323L558.8 323.3L559 323.9L559.4 324.4L560.9 325.2L561.1 325.5L561 326.6L562 327.7L562.7 328.9L563.4 330L564.6 331.3L566.2 332.7L567.7 334.2L567.9 334.3L568.8 335L569.3 335.2L572 336.8L573.9 337.9L574.5 338.1L574.8 338.3L575.3 338.6L576.4 339.1H576.6L578.2 339.7L579.2 339.9L581.5 340.4L583.5 340.5L584.5 340.4L585.4 340.2L585.8 340L587.1 339.8L588.2 339.6L589.4 339L590 338.8L591 339L592.3 338.7L593 338.4L593.6 337.8L593.9 337.6L594.5 337.3L595.2 337L595.9 336.9L596.7 336L597.9 335.8L599.6 336H600.8L601.8 335.9L602.2 335.8V335.8H602.5H603H603.3H604.9L605.8 335.9H606.3L607.5 335.4L608 335.5L608.3 335.4L608.8 335.3H609.4H610.3L611.9 335.1L613.3 334.1L613.5 334.2H614.1L615.3 333.5L615.7 333L616 332.2V331.1L615.8 330.8L615.9 330.5L616.6 330.6L617.2 330.9L617.7 331L618.4 330.8L618.8 330.5V330.2L618.7 330L619 329.5L618.9 329.3L619.2 329.2L619.8 329.5L619.9 329.4V329.5L620.1 329.6H620.3L620.5 329.3L620.6 329L621.3 328.1L621.7 327.8H621.9L622.9 327.6L623.1 327.7L623.5 328.3L624.2 328.9L624.6 328.8H624.9L625.4 328.7L625.8 328.5L626.2 328.4L626.6 328.1L627 327.7L627.2 328.1L627.9 328.4L628.5 328.2L629.1 328.1L629.6 328L630.3 327.6H630.9H631.1L631.6 327.7L632.1 327.5L632.3 327.9L632.6 328L633 327.9L633.4 327.7L634 328.1H634.6L634.9 327.9L635.3 328.1V328.1L635.7 328.4L636.5 328.7H637L637.9 328.3H638.4L638.9 328.5L639.2 328.4L639.4 328.2H639.6V328.1L640.3 327.8H640.7L640.9 327.9L641.4 327.7L641.8 327.6L642.2 327.8L642.4 327.6L643.1 327.9L644.5 327.8L644.7 328L645 328.6L645.5 329.1L646 329.2L646.9 328.7L647.1 327.9L647.2 327.7L647.6 327.8L648.5 328.1L649 329.1V329.2L649.2 329.6L649.4 329.8L650.1 330.2L650.6 330.5L651.3 330.8H651.6L652.5 330.3L652.7 330.4L653.4 329.9L653.6 329.7L653.2 329.3L653.3 329.2H653.4V329.1H653.8V329.1L654.1 328.9L654.2 329L654.3 329.1L654.4 328.8V328.7H654.5V328.9L654.6 329L654.7 328.9V329.1H654.6L654.7 329.4H654.8V329.4H654.9V329.4L655.4 329.8L655.7 330.1L656.4 330.4V330.3H656.5H656.7L657.2 330.7L658.3 331.2L659.1 332L659.6 332.3H660.5V332.2H660.6V331.8L660.5 331.7L660.9 331.5V331.5H661.3V331.5V331.5H661.4L661.5 331.6L661.6 331.5H661.7L661.8 331.6L662 331.7V331.8L662.1 331.7V331.6H662.3V331.8L662.4 332.1L662.2 332.4L662.5 332.7L663.1 332.9L663.2 333.1L663.3 333.5L663.6 333.8L665 333.9L665.4 334H665.6H666.2L667.1 333.9L667.2 333.7H667.3L667.4 333.6H668.1H668.2V333.6L668.5 334.1V334.5L669 335.3L669.4 335.5L669.7 336.4L670.5 337.1L671.2 337.5L671.5 337.3H672.2L672.3 337.7L672.4 338.4L673.1 338.5L673.7 338.6L674.5 338.4L675.3 338.1V337.8L675.5 337.3L675.3 336.4L675.5 335.9L675.6 335.2L675.5 334.7L675.2 334.3V333.7L675.6 333.4L676.1 333L676.4 332.5L677.2 331.8H677.5L677.6 331.7V331.7H678V331.5L678.4 331.2H678.7L679.1 330.7H679.2L679.3 330.6H679.4L679.6 330.2L679.7 330.3L679.8 330.2L679.9 329.8L680.1 329.4L680.6 329.2L681.3 329.1L681.5 329.3V329.3H681.8L682.1 329V328.9H682.5L682.7 328.6L683 328.3L683.2 327.8L683.5 327.3L683.6 327.2L684 326.6L684.6 326.4H685.4L685.7 326.2L686.1 326.5L686.4 326.1H686.7L686.8 325.9H687.2L687.6 326.2L687.7 325.9H687.8L688.4 325.7L689.1 325.8L689.6 325.7L689.5 325.5L688.9 325.3L689 325H689.1V324.4L689 324.2L689.4 323.8H689.9L690.1 323.7L690.2 323.6V323.4L690.3 323.3L690.7 322.6L691.5 322.8L691.7 322.5L692 322.6L692.5 323.3L692.7 323.4V323.7V323.9H692.8H692.9L693.1 323.8V323.8V323.6L693.5 322.9L693.8 322.7V322.6H693.9V322.3L694.2 322.2L694.6 321.6L695 320.9L695.2 320.8V320.6L695.3 320.4L695.4 320L695.5 319.6L695.6 319.4L695.7 319.1L695.8 318.7L696 318.3L696.7 318.4L697.3 318.7L697.4 318.8L697.7 318.9H697.9L698 319L698.2 319.3H698.3L698.5 319.5L698.7 319.6L698.8 319.9L699.2 320L699.3 319.9V319.7V319.3L699.5 319.4H699.9L700.1 319.2L700.6 319.4L700.9 319.2H701H701.1L701.3 319.3V319.5L701.4 319.7V319.8L701.1 320L701.2 320.2H701.3L701.4 320.4V320.5V320.7L701.1 321.9L700.6 322.6L700.4 323.4L700.1 324.2L699.4 324.7V325L698.9 325.5L698.5 325.9V325.9V325.9V325.9H698.4L698.2 325.8H698.1V325.9L697.8 326.4L697.7 326.5L697 327.2H696.9L696.4 328.3L695.9 329.1L695.6 329.8L695.1 330.3L695 330.4L694.7 330.8L694.6 330.9L694.3 331.2L693.8 332.3L693.3 333.1L693.1 333.3V333.4L692.9 333.9L692.8 334.4L692 335.4L692.2 336.1L693.2 337L694.2 337.5H694.6L695.8 338L696.1 337.8L696 337.6H696.4L697.1 337.9L697.6 338L698.1 338.1L698.5 337.9V337.6H699.3H699.5V337.6V337.6L700.3 337.7H700.8L701 337.6L701.5 337.2H701.6L701.8 337L702.1 336.8L702.3 336.2L703.4 335.6L703.5 335.1L703.6 335H703.7H703.8L703.9 335.4L704.1 335.5L705.8 336.3L706.1 336.4H707L707.1 336.3L707.5 335.7H707.8L708 336.1L708.6 336.2L708.8 336.1V335.8L708.9 335.4H709.3V335.2L709.6 335.3H709.7L710 334.6H710.4V334.5L710.7 334.4H710.8L711 334.3H711.2L711.6 334.1L711.8 333.9V333.9L711.9 333.6L712.1 333.5L712.2 333.4L712.4 333.2L713 333.3L713.3 333.2V333.2H713.4V333.2H713.5L713.7 333.3L714 333.6V333.7L713.9 334.2L714.3 334.1H714.4L714.9 334.3L715 334.1V334.1H715.1L715.2 334L715.3 333.9H715.6H715.7H715.9H716.1L716.4 334L716.6 335.4V336.4L716.7 336.9V337.6L716.4 338.2L716.2 338.7V338.8L716.1 339L715.9 339.5L715.7 340V340.2L715.3 340.8L714.8 341.4V341.4H714.7V341.5V341.6H714.6V341.8V341.8L714.3 342.2L714 342.8L713.9 343L713.7 343.4L713.5 343.3L713.4 343.5V343.5L713.1 343.4L713 344L712.8 344.2L712.7 344.3L712.6 344.6H712.2L711.6 345.1L711 345.2L710.4 345.6L709.8 346.1L709.7 346.2L709.1 346.5L709 346.6L708.4 347V347.2L708.3 347.3L708.2 347.2H708.1L707.9 347.3V347.5L707.2 347.8L707.1 348.1L706.8 348.3L707 348.5V348.6V348.6L706.9 348.8L706.8 348.9L706.4 349.1L706 349.5V349.6H705.9L705.8 349.7H705.7L705.6 350L704.9 350.3H704.8L704.6 350.4V350.4L704.1 350.9H703.9L703.8 351L703.4 351.2H702.8L703 351.5L703.1 351.6V351.7H703H702.9V351.7H702.8V351.7V351.9L702.7 352L702.8 352.3L702.4 353.5V353.6L702.2 353.7L702.3 354.2L701.8 354.7V354.9V354.9V355.1V355.2L701.5 355.3L701.4 355.5L701.5 355.8L701.3 356.1L701 356.3V356.4L701.2 356.6H701.3L701.4 356.9L701.3 357V357.1L701.1 357.4V357.5L701.2 357.7V357.8L701.1 358.1L701 358.5V358.6L701.1 358.8L701.3 359.3V359.5V359.5V359.7L700.8 359.8L700.6 360.4H700.5V360.6L700.4 360.7V360.7V360.7L700.3 360.8V360.8V360.9H700.4V360.9V360.9V361.1H700.3H700.2L700.1 361.2L700.2 361.4L699.7 361.8V362L699.8 362.1L700 362.3L700.4 362.4V362.7H700.3L700.4 362.8V362.8L700.2 363.2H700V363.7L699.4 364L699 364.1L698.7 364.3L698.5 364.2L698.1 364.6L697.8 364.4L697.7 364.6L697.6 364.7L697.2 364.5L697.1 364.3H696.2H696L695.8 364.5L695.6 364.3L695.1 364.4L694.7 364H694.4H694.2L694 364.2L693.8 364L693.5 364.1L692.6 363.9V363.9L692.4 364.1L692.3 364.2L692.1 364.4L692 364.5L691.7 364.4V363.8L691.4 363.6H691.1H690.7L690.4 363.8L689.9 363.6L689.4 363.8L689.3 363.5H688.8L688.4 363.7H688.3L687.6 363.2H687.1L686.8 363.5H686.4L686.2 363.1L685.8 362.7L685.5 362.4L685.6 362.3L685 362.1L684.9 361.9L684.5 361.6L684 361.5V361.5L683.8 361.4H683.7V361.4V361.3L683.1 361.1L682.9 360.8H682.5L682 361.3L681.8 362L681.3 361.9L681.2 361.7L680.8 361.8V361.7L680.6 361.1L679.6 360.4L678.8 360.3L678.4 360.5L678.3 360.8L678.2 361H678.1L678 361.2L677.7 361.1L677.5 360.8L677.1 360.7V360.5L676.8 360.4L676.4 360L676.2 359.9L675.8 359.8L675.4 359.3L675.1 359.2L674.8 359.1L674.4 359.2L674.2 359L673.4 358.8L672.9 359H672.6L672.4 359.2V359.7H672.5L672.8 359.8L672.9 360.2L672.4 360.6V360.7L672.3 360.4H671.9L671.7 360.5L671.8 361V361.1L671.7 361.3H671.3V361.1L671.2 361H670.9L670.5 361.1L670.4 361L669.7 361.1H669.6L669.2 360.9H669H668.5L668 360.8L667.8 361.2L667.6 360.9L667 360.8H666.9L666.8 360.7L666.2 360.6L665.2 360.4H664.5H664.1L663.6 360.5L663.3 360.7L662.7 360.8L662.2 360.9L661.3 360.7L660.7 360.9L660.3 361V361L660.1 360.8L659.8 360.9H659.7L659.6 360.8L659.4 360.6L658.7 360.7L658 361.1L657.6 361L657.4 360.7H657.2L656.9 360.8L656.3 361.3L655.8 362.2L655.6 362.9L655.7 363.3L656 363.6L655 363.2L654.2 362.9L654.1 362.7V362.6L654 362.4L653.9 362.2L653.8 362L653.9 361.6L653.8 361.3L653.4 361.2L653.1 361.4L652.7 361.3L652 361.5L651.8 361.4L651.3 361.2H651.1L650.3 362.1L649.9 362.2L649.3 361.2L648.4 360.1L647.7 359.7L646.8 359.3L646 359.4L645.5 358.8L644.8 358.9L644.5 358.8L643.8 359L643.6 358.9L643.2 359L643.1 358.9L642.2 358.4L641.3 358.1L640.5 357.7L639.7 357.6L639.2 357.5H639.1L638.3 357.6L637.8 357.8L637.3 358L636.7 357.9L635.7 357.3L635.3 357.6L634.6 357.8L633.4 356.9V356.7L633 356.3L632.6 356.2L632.1 356.4L631.6 356.7L631.4 356.8L630.7 357.5L630.5 357L630 356.6L628.6 356.5L627.9 356.2L626.9 356.1L626.2 356.4V356.5L626.1 356.6L625.9 356.7V356.8H625.8L625.6 356.5L625.1 356.3H625L624.6 356.4L624 355.9L623.4 356.2L623.1 356.5V356.2H622.7L622.3 356.6L621.7 356.4V356.5L621.3 356.3L621 356.5L620.9 356.7H620.7V356.6L620.4 356.3L619.8 356.2H619.4H619.2L618.9 355.9L618.7 355.8H618.4L617.9 356L617.5 355.6H617.3L616.8 355.8H616.7V355.9L616.3 355.4L615.6 355.7L615.5 355.2L615.1 355H615V355L614.8 354.9L614.3 354.8H614.1H613.5L613.4 354.9L613 355.1L612.7 355.3L612.6 355.2L612.2 355.4L612.1 354.9L611.9 354.8H611.8L611.5 354.7V354.7L611 354.3L610.8 354.4V354.3L610.3 354H610L609.8 353.8L609.2 353.5L608.7 353.4H608.6L608.1 353.3L607.9 353.1L607.6 353.2H607.5L606.7 353.3L606.5 353.4L606.3 353.3L606 353.4L605.6 353.1L604.4 353.6L603.9 354.1L603.8 354.2L604.2 354.6L604.1 355.4L604.2 355.7V356.3L604.1 357.1V358.7L604 359.2V359.6H604.4L604.3 360.1H604.1H603.8H603.4H603.3L603.6 360.5L604 360.7L604.1 361.1L603.8 361.3L602.9 361.6L604 361.4L604.1 361.8L603.9 362.7L603.8 363.1L603.7 363.9V364.2L603.4 365.6L603.3 366L603.1 367L602.8 367.7L602.4 368.1L601.5 368.3L602.4 368.2L602.7 368L602.1 370.4L601.6 372.9L601.2 374.4L601.1 375.6L601 375.9L600.5 375.8L600.4 375.9L600.7 377V378.1L601.1 379.2L601.3 380.2L601.6 380.6L601.8 380.8L602.4 380.6L602.6 380.8L602.5 381.4L603.7 382.2L603.8 382.4L602.1 383.1L602.3 383.4L603.1 384.2V384.3L602.3 384.5L601.9 384.9L602.2 385.3L602.4 385.8L602.7 387.5L603 388.5L603.3 388.9H603.5L603.6 389.3L604 389.1L604.1 389.3L604.3 389.2L604.4 389.4L604.5 389.5L604.6 389.3L604.7 389.1L604.9 389.2L604.8 389.6L604.9 389.5L605.2 389L605.3 389.2L605.1 389.7V390.2V390.3L605.3 390.4L605.4 390.2L605.7 390.3V390.3L605.6 390L605.7 389.7H605.8L606.1 389.4L606.3 389.7V389.8V389.9H606.4V389.8L606.5 389.4L606.8 389.5L606.9 389.8L607.1 389.4L607.2 389.6L607.3 389.7V389.6L607.4 389.5H607.5L607.6 389.6V389.6L607.8 389.9L608.7 390.3V390H609L609.2 389.9L609.4 390V389.6H609.5L609.7 389.8L609.9 389.9V389.9H610L610.2 389.7L610.4 389.6L610.5 389.7L610.6 389.9L610.7 390.2L610.8 389.9L611.2 389.6H611.4L611.3 389.2L611.6 389.6L612 389.7L612.1 389.4L612.3 389.5L612.4 389.6H612.5L612.4 388.9L612.6 388.8L612.9 389.4V389.2V389L613 388.9L613.2 389.2L613.4 389L613.7 389.1L613.9 388.9L614 389.1L614.1 388.6L614.6 388.7L614.5 388.9L614.6 389.1L614.8 388.6L615 388.4V388.6V388.7L615.1 388.8L615.4 388.2H615.5L615.7 388.1L615.6 388.3L615.5 388.4V388.5L615.8 388.4L615.9 388L616 387.6L616.2 387.7L616.4 387.6V387.9V387.9H616.5L616.7 387.7H616.9V387.9L616.8 388L616.9 388.1L617.1 388H617.4V387.5H617.8L617.9 388H618H618.1L618.2 388.1L618.3 388.2V388.1V387.9L618.2 387.5L618.1 386.9V386.7L618.6 387.4V387.6L618.5 387.8L618.6 388H618.9V387.6L618.8 387.3H618.9L619.2 387.5H619.3L619.5 387.6V387.7L619.4 387.8H619.3L619.2 388.3L619.4 388.2L619.5 388.1L619.6 388.2L619.8 388.3V388.4H619.9L619.8 388.1H620.1V388.5H620.4L620.6 388.8V388.8L620.9 388.9L621.2 388.5L621 388H621.2V388.1H621.4L621.7 388L621.9 388.4L622.1 388.6V388.6L622 388.7H621.9L621.8 388.8L621.9 389V389L622 388.8V388.8L622.2 389L622.3 389.1V389.1H622.4L622.7 389.2V389.2V389.1V388.7L623.1 389.1L623.5 388.8L623.6 389H623.8H623.9V389.1L624.2 389.4L624.3 388.9L624.5 389.1V389.3H624.7L624.8 389.1L625 389.5H625.2L625.1 389.3L625.2 389L625.4 389.3V389.8H625.6L625.8 390.2L626.2 390L626 389.3L626.2 389.6H626.3H626.4H626.6L626.7 389.1L627.2 389.3L627.1 388.7H627.4V388.9L627.5 388.7L627.6 388.6V388.6L627.7 388.9L627.3 389.3L627.6 389.5L627.8 389.2L627.9 388.7L628.3 389H628.9H629.2L629.4 389.1H629.8V388.9H629.3L629 388.7L629.2 388.5V388.2L629.5 388.5L629.7 388.6L629.6 387.8L629.9 388.1L630.1 388.2L630.2 388.3L630 388.4L630.1 388.7L630.3 389.1V388.8H630.6V388.3L631 388.5L631.1 388.4V388L631.2 387.7L631.3 387.8L631.6 388V388L631.8 388.2L632 387.8L632.1 387.7H632.2L632.3 387.9L632.5 388L632.6 387.7H632.7L632.8 387.9L632.6 388.1L632.5 388.4L632.7 388.5L632.8 388.6H632.9V388.5H633.2L633.4 387.8L633.7 388L633.6 387.4H633.8V387.5L634 387.8L633.8 388H634L634.2 388.1L634.3 387.9L634.6 388V388.4H634.5L634.7 388.9L635.2 388.6L634.8 389.5L635 389.6L635.3 389.5L635.4 389.3V389.7L635.3 389.9V390V390.5H635.7L635.8 390.1L636 390.3V390.4L636.2 390.7H636.6L636.8 390.2L636.9 390.3L637 390.5L637.3 390.3H637.4L637.7 389.9L637.9 390.4L638.2 390.2L638.5 390.3L638.6 390.1L639.1 390.3L639.3 390.2V389.8L639.9 390.1V390L640.1 390.1L640.3 390.2L640.4 390.3H640.6L640.5 389.9L640.9 390L641 390.2L641.1 390.1L641.3 389.8L641.6 389.4L641.7 389.6V389.6H641.8H641.9L642.3 389.8H642.4H642.5V389.8V389.9L642.3 390L642.2 390.4L642.4 390.7L642.6 390.4L642.7 390L642.9 390.1L642.7 390.4L642.9 390.6L643.2 390.7L643.4 390.3V390.5L643.2 390.9L643.4 391L643.7 390.8V390.4H643.8V390.4L643.9 390.5L644.1 390.6L644 390.8V390.8V390.9V391.1L643.9 391.2L643.8 391.4L643.9 391.8L644.2 392.1L644.3 392.2H644.4H644.9L645.3 391.9L645.9 391.8H646.1L646.5 391.7L647.1 391.2L647.5 390.7L647.7 389.7L647.8 388.9L647.7 388.6L647.9 388.2L648.3 387.8V387.4L648.5 386.6L648.4 385.7L648 385.4L647.6 385.5L647.3 385.2L646.8 385.1L646.7 384.9L646.3 385V385L645.8 384.9L645.2 385.8V385.9L645.1 386L644.7 385.1H644.1H643.9L643.6 385.5L643.4 385.8V385.9L643.3 386.1L643.4 386.2L643.5 386.4H643.3L643.1 386L642.8 386.1L642.7 386.3L642.5 386.2L642.1 385.7H641.9L641.1 385.9L640.9 386.2L640.4 386.3L640.2 386.4L640 386.2L639.1 387L639 386.4L638.6 386.2L639.9 386.1L640.2 386H640.5L640.9 385.8L643.1 385.1L645 384.6L646 384.4L646.7 384.6L647 384.7L648.9 384.9H649.1L650 384.7H650.6L651.3 384.5L652.7 384.2H653.3L653.6 384H654.2L654.8 384.2L655.9 384.7L656.9 385.4L657.2 385.7L657.9 386H658.1L658.4 386.5L658.9 387.4L659.6 388L659.8 388.1L660.3 388.5L660.9 388.4L661.3 388.5L661.5 389L661.2 389.3L661.4 390.2L661.7 390.8L661.6 391H661.4L661.1 391.5L661.3 392.7L661.6 393.9L662.3 395.1L662.6 395.4L663.4 395.5L664.1 395.8L666.4 396.2L666.6 396.4L666.7 396.8L667.3 396.9L667.6 396.8H668.2H668.5L668.7 397.5H669.1L669.7 397.4H669.9L670 397.8L670.4 398.1L670.6 398.5L670.8 398.7L671 398.8L671.3 399L671.4 399.1H671.5H671.7L672 398.9L672.7 399H673.5L674.2 398.8L674.8 398.5L675.1 398.2L675.5 398L676.7 397.8H677.3H677.6H678.2L678.5 397.7H678.6H678.8V397.8H678.9L679.3 397.9L680 398.7L680.3 399.2L680.6 399.6L681 399.4L681.5 399.6L681.4 400.4L681.9 401L682.4 401.3H682.8L683.3 401.7L683.4 401.6L683.5 401.7H684L684.6 401.8L685.4 401.9L686.1 402.3L685.9 402.6L686 402.9L686.3 403.1L686.6 403L687.2 403.3L687.7 404L688.3 404.5L688.9 404.8L689 405L689.6 405.4V405.5L689.7 405.6L690.1 405.8L690.5 406L691.1 405.9L691.5 405.8L691.9 405.5L692.3 405.4L692.9 404.8L693.3 404.6H693.9L694.3 404.4L695 403.9L695.4 403.8L695.7 404L697 403.6L697.4 403.1L698 403L698.4 403.4H698.9L699.2 403H699.5V403.4L699.8 403.8H700.3V403.8L700.5 404L700.8 404.3L701.1 404.4L701 404.8L701.4 405.4L701.7 405.7L701.8 405.6H702.1L702.9 406.2H703.1H703.5L703.7 406.6L703.6 406.7L703.5 407.2L703.8 407.8L704.3 408L704.7 407.9L705.1 407.6L705.3 407.3L705.4 407.2L705.9 407.5L706.2 407.4L706.5 407.2L706.7 407.3L707 407.5L707.2 407.6L707.7 407.9L708 408L708.7 408.2L708.9 408.1H709.3L709.5 408.3L711 408L711.9 407.6L712.5 407.4L712.9 407.5L713.6 406.8L714 406.7L714.2 406.8L714.4 406.9V406.9L714.5 407L714.7 407.1L715.2 407L715.5 406.6L715.8 406.5L716 406.9L715.9 407.1L715.8 407.3L716.2 408L717.1 407.9V408.3L716.9 408.8L716.6 408.9L716.3 409.3L716.6 409.7L717 410.2L717.7 410.5H718.5L719.4 409.8L719.8 409.1L720.2 408.1L720.5 407.1L720.4 405.8L720.2 404.2V402.5L720 401.9L719.8 401.1L719 400L718.5 399.8L717.9 399.7L717.3 399.8L716.5 400.1L716 400.7L715.7 400.5L716.1 400.1L716.6 399.7L716.9 399.3L718 398.8L719.4 399L720.4 399.2L720.7 399.5L720.8 399.9L721.9 401.5L722.3 401.8L722.7 402.4L723.5 404.6L724.2 405.7L724.7 406.4L725.2 407L725.8 407.2L726.1 407.1L726.6 407.4L727.3 407.5L727.7 407.3L728.7 407.1L729 407.4L729.2 408L729.1 408.5L729.5 409.1V409.5L729.9 410.1L730.3 410.2L731 410.7L731.6 411L732.1 411.3L732.3 411.2L732.5 410.9L732.9 411L733.4 411.8L734.4 412.8L734.5 412.9L735 413.3H735.2H735.3L736 413.2V413.1L736.2 413L736.3 413.2L736.5 413.3L737.1 413.6L737.8 413.7L738.9 413.3L739.5 413.6H739.8L740.4 413.5L742 413.3L742.7 413H743L743.2 413.1L743.6 413.4L744.9 413.5H745.5H746.3L748 413.2L748.6 413.1L749.9 412.7L750.2 412.6L750.9 412.1L751.4 411.4L751.8 410.7L752 409.8L751.8 409.7L751.3 408.9L751 408.4L750.1 408.1L749.8 407.8L749.1 406.7V406.1L749.4 406H749.9L750.1 405.9L750.2 405.8L750.4 405.6H750.6L750.9 405.5L751.3 405.2L751.8 405.1L752 405.5L752.8 406L753.7 406.3L754.5 406.4H755.6L755.9 406.3L756.8 405.9L757.3 405.6L757.8 404.6L757.9 404.3L757.6 403.8L757.5 403.7L757.6 403.5L758.2 403L759.1 402.7L759.5 402.5L760 402L760.3 402.2L761.1 402.3L761.3 402.6L762.1 403.2L762.9 403.4L763.6 403.3L764.2 402.7L764.6 402.3L764.9 402L765.4 402.1L765.9 402L767.3 402.2L768.2 402.6L769.6 403.1L770.2 403H770.4H770.5L770.9 403.1L771.3 402.8L771.7 402.9L772.9 403.6L773.2 404.1L775.2 405.5L775.8 405.8L776.9 406.3L777.4 406.9L777.8 407.2L778.2 407.3L778.6 407.7L780.5 409L780.8 409.3L781.1 409.5L782.1 410.4L782.2 410.5L782.7 410.9L783.5 411.3L784.7 411.9L785.1 412H785.8H786.1H786.2L787.7 411.5L788.1 410.8H788.4L789.1 410.9L790.8 411.1H790.9L791.9 411.3L792 411.4L792.6 412.1L793.5 412.8L794 413.1L794.2 413.3L794.7 413.6L795.9 414.2L796.7 414.5L797.4 414.6L797.9 414.5L798.4 414.3L799.3 414.6L800 414.5H800.1L800.4 414.6H801.1L801.9 415.1L802.2 415.3L802.6 415.5L802.8 415.7L803.4 415.9L803.6 416L803.7 416.1L805 416.6L805.8 416.3L806.1 416.4L806.4 416.8L806.8 417.4L807.9 418.4L808.8 418.8L809 419L809.9 419.4H810.1H810.3L810.7 419.3H811.2L811.3 419.5L811.6 419.9L812.1 420L812.6 419.9L813.3 420.3L813.5 420.8H813.6L813.7 420.9L814.7 421.1L815.4 421.8L816.2 422.3L816.9 423L818.3 424L819.1 424.3L819.2 424.6L819.8 424.8L820.6 425.5L820.8 425.9L821.6 426.6L823.1 427.1L823.6 427.5L823.9 427.6L824 427.7L824.2 428.2L824.5 428.4L825.4 429.6L826 430.2V430.6L826.7 431.3L827.5 432L828.3 432.4L828.9 433.2L829.5 433.8L830.3 434.6L831.1 435.5L831.5 435.6H831.9L832.5 435.9L833.1 436.7L833.4 436.8V437.2L833.7 437.6L834.3 437.9L834.4 438.2L834.9 438.6L835.1 438.7L835.8 439.3L836 440.3L836.5 440.9L837.4 441.4L837.5 441.8L837.9 442.4L838.4 442.9L838.6 443.2L838.8 443.4L839.2 443.8L839.7 444.4L839.9 444.6L840.3 445.4L840.9 445.7L841.1 446L841.7 446.8L842.2 447.4L842.4 447.9L842.8 448.7L843.2 449.5L843.6 449.7L844.7 450L845 450.2L845.5 450.3L845.8 450.6L846.1 451L846.2 451.9L846.7 452.5L847.6 453.2L848.3 453.3L848.7 453.7L849.4 454.1L849.6 454.3L850 454.6L850.1 454.7L850.3 454.9L851.4 455.8L851.7 456.4L852.1 456.8L852.5 457L852.6 457.3L852.9 457.4L853.2 457.6V457.9L853.7 458.4L854.2 458.5L854.5 458.8L854.6 459.1L854.9 459.5L855 459.6L855.4 460.3L856.3 461.1L857 462L857.3 462.2L857.5 462.4L857.8 462.8L858.4 463.3L858.5 463.4L858.8 463.6L859.2 463.9V464L859.3 464.5H859.4L859.6 464.6L860.4 464.9L860.9 465.1L861 465.3L861.6 465.8L862 466.2L862.1 466.3V466.3L862.3 466.5L862.4 466.6L862.9 466.8L863.6 466.9L864 466.8L864.3 466.4L864.4 466.2V465.9L864.5 465.8V465.6L864.6 465.4H864.7L864.8 465.3V465.3V465.3H864.7V465.2H864.8L865.1 465.4V465.4V465.4V465.4H865.2V465.5V465.5L865.1 465.7L865.4 465.6L865.5 465.9L865.9 466L866 466.1L866.2 466.2L866.6 466.5V466.6H866.4L866.2 467L866.4 467.3L868.5 469.4L869.3 470.1L870.4 471.1L871.5 472.1L872.7 473L872.8 473.2L873.5 473.6L873.8 473.8L874.6 474.5L875.4 474.9L875.8 475.3L876.6 475.8L877 476.1L878 476.4L878.5 476.5L879.3 476.3L879.6 476.5L880.2 477.4L880.7 478L881.2 478.6L881.7 479.2L882.6 480.1L882.8 480.3L883.1 480.6L883.5 481L883.7 481.3L883.9 481.6L884.1 481.7L884.4 481.9H884.5L884.7 482H884.8L885 482.2L885.2 482.7L885.3 483.6L885.8 484.5L886.1 484.8L886.3 484.9L887.1 485.3L888.4 486.3L889.7 487.1L890.5 487.4L890.9 487.8L891.6 488.7L892 488.9L892.4 490.1L892.7 490.9L892.9 491.1L893 491.2L893.2 491.4L894 491.8H894.2L894.7 492.3L895.3 492.9L895.9 493.6L896.5 494.2H896.6L896.9 494.5L897.8 495L898.1 495.1H898.3L898.6 495.2L899.2 495V494.9V494.8V494.7L899.6 494.3V494.1L899.8 494L900.3 494.2L900.8 494.7L901.3 495.1L901.6 495.2L901.7 495.3L902.4 495.6L902.9 495.9L903.3 496.4L903.5 496.7L903.6 496.8L903.8 497L904.3 497.5L904.7 497.7L905.4 497.9H905.8L906.2 498.1L906.5 498.3L906.9 498.8L908 499.2L908.4 499.5L908.9 500.3L909.2 500.7L911.3 503.2L911.4 503.7L911.5 504L911.7 504.1L912 504.5L912.2 504.7L912.9 506.1L912.7 506.5L912.2 506.7V507L912.4 507.4L912.5 507.3L912.9 507.5L913 507.6L913.2 507.9V508.3L913.3 509L913.2 509.5L913 509.9L913.2 510.7L913.4 510.9L913.3 511V511L913.1 511.2V511.3L912.8 512.3L912.9 513L911.7 515.9L911.5 517L910.9 518L910.6 518.5L910.5 518.6H910.3L910.1 518.9V519H910L909.7 519.1V519.1L909.8 519.3L909.5 519.5V519.4H909.1V519.7V519.8L909.2 519.9L908.8 520.5L908.5 520.9H908.6H908.7L908.4 521.2L908.3 521.3V521.3L908.1 521.8V521.8L907.6 522.8L907.5 523L907.4 523.4L907.3 523.8V524L906.7 524.3L906.6 524.4L906.2 524.8L906.1 525.1L905.9 525.8L905.1 526.6L904.6 527.3L904 528.4L903.9 528.6L903.8 529.3L903.6 529.9L903.4 530.3L902.8 530.7L902.5 531.5L902.4 531.6L902 532.3L901.9 533.1L901.6 533L901.5 533.1V533.3L901.4 533.4L900.9 534.2L900.7 534.7V534.7L900.6 534.9L900.9 535.1V535.1H900.7L900.5 535.5H900.4L900.3 535.7L900.2 535.8H900V535.9H899.6L899.5 536L899.1 536.4H899L898.9 535.9L898.3 535.2H898.2L898.8 535.9V536.3L898.9 536.7L898.5 536.3L898.3 536.1L898.1 535.9V535.9H897.9H897.8L897.6 536L897.2 536.6L897.1 536.7V537.3L897.2 537.7V537.9L897.1 538.2L897 539.2L896.9 539.3L896.6 539.7L896.4 540.3L896.2 541.1L895.9 541.9L895.7 542V542L895.6 542.1L895.4 542.3L895.3 542.5V542.7L895.2 542.8L895.1 543L895 543.5V543.8L894.8 544.5L894.4 545L893.8 545.6L893.3 545.7V545.9L892.8 546.3L892.3 546.6L892.1 546.4L891.8 546.5V546.6L891.6 547.1L891.3 547.3L891.1 547.6H890.7H890.4V547.8L889.6 548L889.7 548.5L889.5 548.7L889.4 549L889 549.6H888.9V549.6L888.6 549.7L888.2 550.1L888.1 550.6L887.9 550.7H887.8L887.7 551L887.5 551.1L887 551.3L887.2 551.5L887 551.8L886.4 552.4L885.7 552.7L885.2 553.2L884.9 553.6L884.7 553.8L884.4 554.8L884.1 556L883.8 557.3L883.5 558.8L883.6 560.1V561.7V563.5L883.1 565.9V569.1L882.8 570.4L882.2 571.2L882.1 571.5V571.5L881.9 571.8L880.8 573L879.8 574.2L878.8 574.6L878.2 574.8L877.8 574.6H877.7H877.6L877.4 574.7L877.2 574.6H877.1L877 574.8L876.5 575.3L875.1 576L873.9 576.1L873 575.8L871.8 575.1L868.1 573.8L866.3 573.5L864.2 573L864 572.7H863.8L863.6 572.9L862.3 572.5L861.7 572.3L860.9 572L859.6 571.7L858.8 571.3L857.7 570.9L856.5 570.2L856.2 569.7L855.6 569.2L854.8 568.9L854.7 568.7H854.5L853.9 568.9L853.5 568.6L853.1 568.2L852.4 567.9L851.2 567.1L850.6 566.6L849.9 566.1L849.8 565.9L849.7 565.8L849.3 565.4L848.8 565.2H848.1L848 565.4L846.9 565.8L846.7 565.9H846.5V565.9H846.2L845.6 566.5L845.7 566.6L845.5 566.9L844.8 567.2L844.9 567.4L844.7 567.9L844.5 568L844.2 568.3V568.9L843.9 569.4L844.2 569.7L844.1 570.3L844.3 570.7L844.2 570.9H843.8L843.9 571.3L844.6 572L844.8 571.9L845.3 572.7L845.7 573.1L846.4 574V574H846.5V574.2H846.6L846.8 574.5V574.7H846.9V574.7V574.8V574.9L847 575.1L847.2 575.6V576.5L847.1 577.6L846.8 578V578V578.5L846 580.4L844.8 582.3L844.5 583.1L843.6 585.1L842.5 586L841.9 586.5L841 587.7L840.1 589.4L840 589.8L839.9 590.4L839.7 590.5L839.4 591.9L839.2 593.1L838.9 593.6L838.7 594.4L838.4 594.8V595.2L838.5 595.3V595.4V595.5V595.7V595.7V595.8L838.4 595.9L838 596L837.8 596.2L837.7 596.6L838 596.9L838.1 597V597.1V597.2H838V597.4L837.7 597.5V597.6L838 597.7L837.8 597.9L837.9 598.2L837.7 598.3L837.8 598.6L837.7 600.3L837.5 601.4L837.6 601.5V601.5V601.6L837.5 601.9V601.9V602.2L837.6 602.3L837.7 602.6V602.9L837.2 603.1L837.1 603.2V603.3L837.2 603.6L837.5 603.9L837.6 603.7L837.9 604.8L838 605.5L837.8 605.8H837.6V606H838L837.8 606.2H837.6L837.4 606.5V606.8V607V607V607V607.1V607.3L837.5 607.4V608L836.7 607.9L836.2 607.6L835.7 607.3V606.9L834.7 606.4L832.9 606.1L832.5 606.6H831.5L831 606.4L830.5 606.7L829.9 606.6H828.8L828.1 607.2L827.5 607.6L826.7 607.9H825.9L825.2 608L824.7 607.9L824.2 608L824.1 608.2H822.7L822.1 608L821.2 607.4L820.7 607.2L819.6 607.1L818.7 607L818.2 606.9L818.5 607.2V607.4V607.4L818.6 608L818.4 608.1L818.2 608.2V608.2L817.9 608.1V608.1H817.3L816.6 608.3L815.9 609.2L815.6 609.4L815 609.5L814.5 609.4L814 609.1V608.9L814.3 608.8L814.4 608.1L815.9 608.3L816.5 608L817.1 607.8L817 607.5L816.5 607.6V607L816.6 606.1L816.3 605.8L815.3 605.4L814.9 604.9L813.3 604.7L812.6 605L812.4 605.6L812.6 606.6V607.3L813 607.8L814.1 607.9L814.3 608.5L814.1 608.8H813.9L813.7 608.6L812.6 608.7L812.3 608.8L811.9 609L811.8 609.5L811.2 609.9H810.9L811.2 609L811.5 608.3L811.6 606.7V606L811.4 605.3V604.8L811.2 604.3L811 603.5L810.9 602.7L810.8 602.4L810.5 601.9L810.2 601.6L810.1 601.5L810 601.1L809.7 600.5L808.7 599.7L808.1 598.6L807.3 597.3L807.2 596.9L806.7 595.8L806.6 595.5L806.5 594.8L806.2 593.7L805.5 592.2L804.2 589.1L803.6 588.2L802.7 586.7L801.8 585.6L800.4 584L799.8 583.1L799.3 582.3L798.9 581L798 579.2L797.7 578.3L797.2 577.2L796.8 576.5L796.7 576.4L796.3 576L796 575.8L795.4 575.4L794.3 574.6L794 574.3L793.4 573.9L793.5 573.7L793.3 573.6L792.3 573.2L791.7 572.6L791.5 572.4V572.2V572.2L791.4 572.1V572.1V572.1V572V572V572V571.9V571.9L791.3 571.8L791.4 571.6H791.3V571.6V571.6V571.5V571.5V571.5V571.5V571.5L791.1 570.9H791V570.8V570.8V570.8V570.8V570.7V570.7V570.7V570.7V570.6H790.9H791V570.6H790.9L791 570.5V570.5L790.9 570.4V570.4L790.7 570.3V570.3L790.5 570.2H790.6V570.1V570.1L790.5 570V570V570V570V569.9V569.9H790.4V569.8V569.8V569.8L790.5 569.7L790.2 569.5V569.6L790 569.5V569.4V569.4V569.4V569.4L789.8 569.3V569.2V569.2V569.2V569.2V569.2V569.1V569.1V569.1V569.1V569.1V569.1L790.3 568.8V568.8V568.7V568.7V568.7L790.4 568.6L790.3 568.5H790.4V568.5V568.4V568.4L790.5 568.3L789.8 568.2V568.2V568.1L790.4 568L790.3 567.5L789.2 566.6L789 566.7L788.4 566.4L788.5 566.2L788.2 566.3V566H788L787.4 565.6L787 565.4L786.1 565L785.3 564.9H785.2L785.1 564.8L785 564.7H784.9V564.7H784.8V564.7V564.7L784.6 564.6H784.5H784.4V564.7V564.7V564.7L784.3 564.6H784.1V564.5V564.5V564.5V564.5V564.5V564.5H784V564.5V564.4V564.4V564.4V564.4V564.4V564.4L783.8 564.3V564.3H783.7V564.3V564.3H783.6V564.3H783.5V564.3H783.6V564.3H783.5V564.3V564.3H783.4V564.2V564.2L783.3 564.1V564H783.2L783.1 563.8V563.9V563.9L783 563.8V563.8L782.9 563.7V563.7H782.8V563.7H782.7V563.6L782.6 563.5V563.5H782.5V563.5L782.4 563.4L782.2 563.3H782.1V563.2H782H781.8H781.7H781.6H781.5V563.2V563.2V563.2H781.3V563.1H781.2L781.1 563L781 562.9L780.9 562.8V562.7V562.6H780.8L780.7 562.5H780.2V562.3V562.2L780.1 562.1L779.6 562L779.5 561.9V561.9L779.1 561.8L778.9 561.7L778.8 561.6H778.7V561.5H778.6V561.5H778.4H778.2V561.4H778.1V561.4H778V561.4H777.9V561.4L777.6 561.3L777.2 560.7L777.3 560.3L776.8 560.4L776.7 560.3V560.4V561L776.5 561.3H776.4L775.8 561.4L775.6 561.3L775.4 561.2V561.1L775.8 561.3L776.5 561.2L776.7 560.8L776.4 560.6L775.6 560.9V560.8V560.7H775.7V560.7L776.3 560.5L776.4 560.3L776.1 559.9L776 560.3L775.8 560.4V560.4L775.5 560.2L775.1 560.5L775.3 560.8L774.9 560.7H774.8L774.6 560.8L773.6 560.9H772.4V560.8V560.7L772.9 560.5L773.5 560.3L773.2 560L773 559.9H772.5L770.9 559.3L770.4 559.1H769.9L769.5 559.3L768.6 559.1L768.4 558.9L767.9 558.5L767.6 558.4L766.8 558.2L766.6 558L766 557.9L765.5 558.1L765.6 558.5L765.4 558.6L765 558.9L764.2 557.3L763.9 556.9L763.8 556.8L763.5 556.9L762.4 556.7L762.1 557H761.6L761 557.2L760.3 557.5L759.5 557.8L759.4 558.1L759 558.2L758.8 558.9V559V559V559.1V559.1V559.2L758.6 559.6V559.6L758 560.1L757.2 560.3H756.8L756.1 560L754.8 559.8L754 559.7L753.8 560L753.1 559.8L752 560.1L751.6 560.3L750.7 560.6L750.6 560.4L750.5 560.8L749.8 561L749 561.3L748.3 561.5L748.1 561.4L747.4 561.1L747.3 561.2L746.9 561.3H746.6L746.2 561.4H745.9L745.6 561.6L743.2 561.9V561.9L743 562H742.7V562V562V562H742.6V562V562H742.5V562H742.4V562V562H741.8L741.5 562.1H740.5L739.1 562.2H738.9L737.9 562.3H735.5L735.2 562L735 562.2L733.8 562.1L733.5 562L733.3 562.1L732.7 562H732.3L731.9 561.7L731.2 561.8L730.4 561.6L730.2 561.4H729.9L729.1 561.2H728.5V561L727 560.5L726.4 560.1H726.3L725.2 559.6L724.6 559.3L724 559V559.1L723 559.2L722.6 559H722.2H722.1V559.1H722H721.9V559.1L720.5 559.3L716.8 558.7L714.7 557.7L712.3 556.8L710.6 556L708.5 555.1L707.8 554.5L706.8 554L706.1 553.4L705.9 553.3V553.1H705.8L705.5 552.6L705.6 552.5L706.3 552.4L706.6 552.2V551.8L706.3 551L706 550.8L705.8 550.6V550.1L705.7 549.7L705.8 549.4V549L705.6 548.6L704.8 548L703.5 547.5L702.7 547.4H702.3L702.1 547.5L701.9 547.7L701.3 547.8L700.7 548V548L700.3 548.1H700.2H700V548.1H699.8L698.7 548.4V548.4V548.4L698.5 548.6V548.7L697.8 549.1L697.4 549.3L696.4 549.6L695.5 549.7L693.7 550L692.7 549.9L691.7 550L690.6 549.9L689.7 549.7L688.8 549.8L688.1 550.1L687.6 550.4L687.2 550.6H687.1V550.6H687V550.6L686.8 550.7V550.7V550.7V550.7L686.7 550.8V550.8V550.8H686.6V550.8V550.8V550.8H686.5V550.8V550.8V550.8L686.4 550.9V550.9H686.3V550.9V550.9H686.2V550.9V550.9H686V550.9L685.9 551H685.8H685.7V551V551H685.6V551H685.4H685.2L685.1 551.1H685H684.9V551.1H684.8H684.6V551.1V551.1V551.1L684.5 551.2H684.4H684.3H684.2H684.1V551.2L684 551.3H683.9V551.3V551.3L683.8 551.4H683.7L683.5 551.6H683.4V551.6H683.3V551.6V551.6L683.2 551.7V551.7V551.7H683.1H683V551.7V551.7H682.9V551.8V551.8H682.8H682.7H682.3V551.8V551.8H682.2L682.1 551.9H681.9V551.9H681.8H681.5V551.9V551.8H681.4V551.8L681.5 551.7V551.7H681.6V551.7L681.9 551.5L681.7 551L681.4 550.8L681.3 550.7V550.7L681.2 550.8V550.8V550.8L680.6 550.7H680.5L680.3 550.4H680.2V550.3H680.1V550.3H680V550.3V550.3H679.9V550.3V550.3V550.3H679.8V550.3V550.4V550.3L679.7 550.4H679.6V550.5V550.5V550.5H679.5V550.6V550.5V550.6L679.3 550.5V550.5L678.5 550.4L677.7 550.1L676.3 550L676.1 550.9L676.7 551.2L677.2 551.1V551.4L676.9 551.9L676.7 552V552L676.6 551.9L676.5 551.7L676 551.8V551.9L675.7 552.4L675.8 552.5L675.9 552.6L676.2 552.8L675.9 552.9L675.8 553V553.1L675.6 553.3L675.1 553.4L674.9 553.5L674 553.9L673.7 554.1L673.5 553.9L673.1 554L672.5 553.9L672.2 554.1L671.4 554.2H670.8L670.4 554.3L669.7 554.2L669.6 553.8H669.2L669.3 554.2L668.2 554.3H666.7L664.4 554.1L662.7 554L660.3 553.8L660 553.9L659.6 553.7L659.4 553.8L658.9 553.6L658.6 553.7L658.2 553.9L658 553.7L657.5 553.6L656.9 553.8L656.5 553.7L655.6 553.8H655.3L654.2 554.1L653.8 553.9L653.5 554.1L653.2 554L652.7 554.2H651.8L651.7 554.5L651.6 554.6L650.8 554.4H649.5L648.2 554.7H647.1L646.1 555L645.6 555.3L644.9 555.4L644.3 555.6L644.1 555.9L643.8 556L643.3 556.1L643 556L642.4 556.1L641.8 556.2L639.1 557V557H639V557.1H638.9V557.1H638.7V557.2H638.6V557.2V557.2V557.2L638.3 557.3V557.3L637.4 557.5H637.3L637.1 557.7L637 557.6L636.9 557.5L636.8 557.7L636.5 557.6V557.8L636.1 557.9L635.8 557.8V557.9L634.7 558.3L634.3 558.5L633.8 558.4V558.6L633.7 558.7H633.5H633.3L633.1 558.6L633.2 558.8L632.8 559H632.5L632.1 559.2L630.1 559.5H629.8H628.9L627.8 559.4H627.7H627.6L625.8 559.1L625.5 559L625.4 558.9H625.3H625.1L624.9 558.8H624.7L624.3 558.7V558.7H624.2L624.1 558.6H623.9L623.7 558.5L623.1 558.3L622.3 557.9L622 557.5H621.9L621.7 557.4L621.4 557.1L621 556.7L620.5 556.4L620.4 556.3V556.3L620.3 556.2V556.2H620.2L619.6 555.5V555.2H619L618.4 554.5V554.3L617.9 554L617.7 553.7V553.5L617.8 553.1L617.2 553.2L617.1 553.1V552.5L616.9 552.4L616.8 552.2L616.3 551.9L616.2 552L616.1 551.7L616 551.6V551.6V551.5V551.1L615.8 551.2L615.6 551.3L615.1 551L614.7 550.5V550.5H614.6V550.5V550.4H614.5L614.4 550.3L614.3 550.2H614.2L614.1 550.1V550L613.8 549.9V549.9L613.2 549.5L613.1 549.4V549.4H613V549.4L612.9 549.3H612.8L612.7 549.2V549.2L612.4 549H612.3H612.2L611.8 548.8L611.6 548.7H611.5L611.4 548.6V548.6H611.3H611.2L610.7 548.5V548.5H610.6L610.5 548.4V548.4H610.4H610.1L609.9 548.3L609.8 548.4H609.6H609.3V548.4H609.2H609.1H609L608.7 548.5L608.5 548.6L607.6 548.8L607.4 548.7H606.6H606.5V548.5H606.4L605.7 548.4H605.2L604.4 548.6L604 549L603.7 549.1L603.5 549.4H603.4V549.7L603.3 549.9V549.9L603.2 550.1L602.9 549.8L602.5 550.5L602.3 550.6L602.2 550.7V551.8L602.4 552.7V552.8L602.8 554.4V554.8L602.9 555.1V555.2L603.2 555.1L603.4 554.6V553.8L603.6 553.6V555L603.4 555.2L602.9 555.3L603 555.4V555.7L603.1 555.9V556V556.1L603.2 556.3V556.4L603.3 557L603.4 557.4V557.4V557.5L603.5 557.8V558.3V558.3V558.3V558.4V558.4V558.5V558.7H603.6L603.3 559.4V559.5L603.1 559.7V559.8L602.9 560H602.8L602.7 560.1H602.6V560.2H602.5H602.4V560.2L602.3 560.3H602.1H601.9H601.8H601.7V560.3H601.4H601.3L600.8 560.2L600.1 560L598.8 559.4L598.2 559.3L595.8 558.8L594.6 558.5L593.6 557.8L593 557.1L592.7 557L591.5 554.9L591.1 554L590.8 552.9L590.6 551.2L590.5 549.8V549.7V549.7V549.7V549.6V549.2V549.2L590.6 549L590.1 548.2L589.6 547.9L588.3 547.4L587.4 547H587L586.4 546.7L586 546.6L585.7 546.8L585.1 546.7L585 546.5L584.8 546.7H584.4H584.3L582.8 546.5L581.9 546.3L580.6 545.8H580.5V545.8L580.4 545.7V545.7H580.2V545.7H580.1L579.8 545.5L579.7 545.6L578.9 545.3L578.6 545.2V545.2H578.5L577.7 544.9H577L576.5 544.8H576.4V544.8L576.2 544.7L576 544.6L575.6 544.7H575.5L575 544.6H574.4L573.9 544.5L573.5 544.6L572.8 544.5L572.4 544.4L571.9 544.5L571.7 544.4L571.2 544.5L569.4 544.4L569.2 544.3H568.8H568.7V544.3H568.6L568.1 544.2H567.9H567.8H567.7V544.2H567.5H567.4V544.2V544.2V544.2H567.3V544.1V544.1V544.1L565.8 543.9L565.6 544.1L565.3 544H564.8L564.7 543.9L564.5 544.1L564.4 544L563.1 544.1H562.9V544.1L562.1 544.3H561.7L561.4 544.4L561 544.3H560.9L560.6 544.4V544.4V544.4H560.5H560.4H560.2V544.4H559.7V544.4H559.3V544.4L559.1 544.3V544.3H558.9V544.3H558.6V544.3H558.5V544.3H558.4V544.2L558.1 544.3V544.2H557.9V544.2H557.7H557.6V544.1H557.3V544.1V544.1V544.1V544H557.2H557.1V544V544V544H557H556.9V544L556.8 543.9H556.5V543.8H556.4V543.7H556.3V543.7H556.2V543.7L556.1 543.6V543.6V543.6H556H555.9V543.6L555.8 543.4V543.4H555.7V543.4L555.6 543.3V543.3H555.5H555.4V543.3H555.3L555.1 543.2V543.2L555 543.3V543.3H554.9H554.2V543.3V543.3H554.1H554V543.4H553.9V543.4H553.8L553.7 543.5H553.6V543.5V543.5H553.5H553.4V543.5H553.3V543.5H553.2V543.5H553.1V543.5L552.7 543.4V543.4L552.6 543.5L552.1 543.4V543.5L552 543.4H551.9H551.7H551.5V543.4H551.4V543.4H551.1H550.8V543.4H550.6V543.4H550.2L550.1 543.3V543.3V543.3H550H549.9H549.8H549.2L548.9 543.2L548.8 543.3H548.7H548.4H548.3L547.8 543.4L547.6 543.5H547.5V543.5H547.4V543.5V543.5V543.5H547.2H547.1V543.5L547 543.4V543.4H546.8L546.5 543.5H546.3V543.5L546 543.6L545.3 543.8V543.8H545.2L545 543.9V543.9L544.8 544L544.7 544.2L544.2 544.4H544.3L544.2 544V544L544.3 543.7L544 543.6H543.9H543.8H543.7L543.3 543.7L542.8 543.9L542.5 543.6L541.9 543.3L541.2 543.6V543.7L540.6 544.1V544.2L540.7 544.3V544.4L540.3 544.3L539.6 544.7L539.1 545L538.2 545.3L536.2 546.1L535.6 546.3V546.3L535.5 546.4H535.2L535.1 546.5H534.9V546.6H534.8V546.6V546.6V546.7L534.6 546.8V546.8V546.8V546.8V546.8H534.5V546.8V546.9H534.4V546.9V546.9V546.9V547L534.3 546.9V546.9L534.2 547H534.1V547.1V547.1H534L533.9 547.3V547.3V547.3H533.8V547.3V547.3H533.7V547.5V547.5L533.6 547.6V547.7L533.4 547.8H533.5L533.4 547.9V547.9L533.3 548.2V548.2V548.3L533 548.9L532.6 549.4L532.1 549.7L532 549.8V549.8V549.8V549.8L531.7 550V550L531.6 550.1L531.5 550.2L531.4 550.3V550.3H531.2L530.9 550.6L530.6 550.8V550.8L530.5 550.9L530.3 551H530.2L529.9 551.1V551.1L529.6 551.2L529.2 551.3L528.3 551.9L528.2 552H528.1H528V552L527.1 552.3V552.3L526.1 552.4V552.4H526H525.9V552.4H525.8H525.7V552.5V552.5H525.6V552.5L525.5 552.6V552.6L524.9 552.7H524.8L524.7 552.8L524.6 552.9L524 553L523.8 553.2L523 553.3L522.6 553.6L522.2 553.7V553.7L521.5 553.8V553.8H521.3V553.8H521.2H521.1V553.8H520.9L520.8 553.9V553.9L520.7 553.8V553.8H520.6V553.8H520.5V553.8H520.3V553.9L519.8 553.8V553.8L519.1 553.9L519 554.1V554.1L518.2 554.4L517.6 554.7L517.5 554.8H517.4L517.3 554.9H517.2V554.9L516.9 555V555H516.8V555V555H516.7V555L516.6 555.1V555.1H516.5L516.1 555H516H515.8H515.7L515.1 554.7V554.7V554.8L515 554.7L514.6 554.5L514 554.6V554.6L513.9 554.5H513.8V554.4V554.4V554.3H513.7V554.3V554.2H513.5L513.3 554.3L512.3 555L511.3 555.9L511.1 557L511 557.1L510.9 557L511 556.9V556.8V556.6L511.1 556.5V556.2L511 555.9L510.9 556V555.8L511.4 555.1L511.1 554.8L510.6 555.1L510.8 553.9L511.1 553.6L511 553.5H510.9L510.8 553.4L510.3 553.8V554.4L510.1 555.8L510.3 556.2L510 556.9L510.2 557H510.3L510.2 557.1H510.1L509.8 557.2L509.3 557.8L509 558.3L508.9 558.7V558.7H509V558.7V558.7L508.9 558.8L508.8 559.3H508.7V559.6L508.3 560.3L507.7 561.2L507.2 562.4L506.8 563.2V563.2L506.7 563.3V563.3V563.3L506.6 563L506.3 562.9L506.2 563V563.7L506 564.2L504.7 565.6L503.6 566.9L502.7 567.8L501.9 568.5L501.8 568.9L501.3 569.9L500.3 571.3L499 573.4L498.5 574.5L498.2 575.1L497.7 576.8L497.1 578.4L496.6 579.2L495.9 580.4L495.2 581.5L494.4 582.8L493.3 584H493L492.7 584.4L492.5 584.3L492.1 584.6H491.5L491.2 584.4L491.1 584.1L490.6 584.2L490.4 584.5L490.1 584.8L490 585.1L489.7 585.3L489.4 585.7L488.7 586.2L488.5 586.6L488.7 586.7L488.6 587.2V587.4V587.4V587.4V587.4L488.8 587.6V587.9L488.4 588.2V588.7L487.8 589.3L487.1 590.4L486.5 591.3L485.9 592.2L485.7 592.4L485.5 592.2L485.3 592.4L484.2 593.2L483.4 593.9V594.1L482.9 594.5L482.3 595.8L482.1 596.1L482 596.6L481.8 596.9L481.9 597.3L481.3 598.2V598.5L479.9 600.4L479.7 601.1L479.4 601.8L478.9 602.2L478.7 602.4L478.5 602.7L478 602.9L477.5 603.2L477.1 603.1L476.7 602.5L476.3 602.1L475.9 601.9L475.5 602.1L475.3 601.8V601.5L475.2 601.4L474.9 601.3H474.3L473.6 601.5L472.8 601.9L472.3 602.3L471.4 602.5L471 602.7L470.4 603L470.3 603.1L470 603.3L469.3 603H468.5L468.2 602.8L466.8 602.2L466.4 601.9L465.9 601.7L465.5 601.6L464.5 601.7L463.9 602L463 602.4L461.9 603L460.8 603.6L460.2 603.9L459.6 604.3L459.1 604.6L458.6 604.9L458.5 604.8L458.1 604.6L457.4 603.9L456.6 603.3L455.9 603.1L455 602.9L454.1 602.5L453.7 602.2L453.2 602L453.1 601.9L452 601.4L451 601.1L450 601.2L449.4 601.1L448.9 600.9L448.1 601L446.6 601.5L445.5 601.9L443 603.2H442.5L442.2 603.1L441.8 603.2L440.9 603.5H440.6L439.4 603.4L438.1 603.7H437.3L435.4 603.8L434.5 603.6L432.6 603L431 602.7H430.5L428.7 602.8L427.5 602.7H426.7L426 602.4L425.3 602L424.3 601.5L423.5 601.3L422.8 601.1H421.9L421 601.2L419.7 601.7L418.4 602.2L417.4 602.8L417.1 602.7L415.8 603L415.2 602.9L414.6 603.2L414.1 603.5L412.5 604.2L408.8 606.6L407.7 607.3L406.4 608.1L404.7 609.3L403.1 609.5L399.5 610.7L397.9 611.4L397.1 611.6L396.3 611.7L395.8 612H395L393.8 611.6L393.2 611.7L392.8 611.6L392.4 610.8L390.7 609.1L390.1 608.7L389.4 608.5H388.5L387.2 608.7L386.1 609.1L384 609.4H383.2L382.7 609.6L382.5 609.4L380.9 609.3L379.9 608.5L379.7 608H380.3L380.7 608.1L380.9 607.8L381 607.5L381.5 606.5L381.8 605.9V605.8L382.2 605.3L383.3 604.4L384 604L384.6 603.6L385.1 603.4L384.6 604.1L384.4 604.2L384.2 604.8V605.8L384.3 606.7L384.5 607.1L385 607.3H385.7L386 607.2L386.3 607.3L387 607.1L387.5 607.2L387.7 607.1L387.4 606.8L387.6 606.4L388.4 606.6L388.6 606.8L388.7 607H389.2L389.3 606.9L390.3 607.1H390.4L390.6 607.2L391.4 607L391.8 606.7H392.3L392.5 606.4L392.9 606.3L393.1 606H393.6L393.5 605.8L393.2 605.6V605L392.4 604L391.9 603.7L390.9 602.7L390 602.8L389.8 602.9H389.7V602.4L389.1 602.2L389 602.1L388.8 602.8L388.5 603H388.2L388.1 602.6L387.7 602.3L387.4 601.9L387.1 601.4L385.9 600.7V600.2L385.7 599.9L385.5 599.8L385 599.2L384.4 598.8V598.3L384.2 597.9L383.6 597.4L383 597.2L382.7 597.3L382.5 597L382.2 596.9V596.6L382 596.4L381.5 596.1L380.9 596H379.9L379.4 595.7L379.2 595.6L378.8 595.5L378.4 595.6L378 595.2L377.5 594.6V594.3L377.4 594L377 593.2L376.3 592.7L375.6 592.5L375 592.1L374.8 591.9L374.4 591.2L374.3 590.9V590.4L374.2 589.9L374.3 589.7L374.2 589.1L374.4 588.5L374.5 587.9L374.8 587.7L375 587.1L375.4 586.7L375.7 586.2L375.9 585.9L376 585.7L376.1 585.5L376.3 585.2L376.5 584.4L376.7 583.6L377.2 583L377.9 582.9H378.4L378.8 582.7L379 582.5L379.3 580.5V579.8L379.1 578.5L378.4 577.1L378.3 575.9L378.2 574.6L378.3 574.4L378.4 573.1L378.5 572.6L378.8 572.5L379.3 572.4L379.4 572.3L379.5 571.6V571.5V571.5L379.4 571.4L379.6 570.6L379.4 570.3L379.6 569.3L379.4 569L379.5 568.5L379.4 567.7L379 566.9L378.3 566L377.9 565.6L377.6 565.1V563.8L377.4 563.3L377.2 562.9L376.9 562.6L377.3 561.7L377.2 561L377.1 560.6L376.9 560.2L377 559.5L376.8 558.8L376.1 558.1L376 557.8L375.1 557L374.5 556.7L372.7 555.8L371 555.3L369.6 554.9L368.9 554.8L368.3 555L367.5 555.2L367.3 555.5L367 555.6L366.6 555.5V555.1L366.3 554.8L365.9 554.9L365.5 554.7L365.1 554.6L364.8 554.4L364.1 554H363.5L362.8 553.5L362.5 553.4H360.8L359.3 553.5L358.9 553.3L357.9 553.1L357.5 552.9L357.4 552.7L356.6 552.4H355.7L354.8 552.5L354.2 552.7H353.7L352.8 552.9L351.3 553.3L350.9 553.6L350.6 553.9L350.5 554.5L350.9 554.8L351.1 555.2L351 555.4L350.6 555.2L350.5 555.3L350.2 556.1L349.2 556.6L348.6 556.8L348.2 556.7L348.1 557.1L347.8 557.3L347.5 557L346.8 557.4L346.4 557.8L346.2 558L346.1 558.1L346 558.4L346.3 558.7V559.1L346.1 559.8L346.2 560.1L346.5 560.4H346.8L347 560.8L346.6 561.2V561.7H346.9V561.7L347 562.3L347.2 562.4L347.1 562.9L347.2 563.5L347.7 563.7V564.6L347.5 565.3L347.1 565.7L346.8 566.4L346.4 566.7L346.1 567.5L346 567.8L345.7 568.3L345.1 568.7L344.5 569.5L343.8 569.9L343.1 570L342.9 570.2L343 570.9L342.6 571.3L342.1 571.6L341.2 572L340.6 572.4L340.3 572.5L339.3 573L338.4 573.5L337.4 573.8L336.8 573.6L335.4 573.3L334.2 573.1L333.6 573.2L332.9 573.1L332.4 573.5L332 573.4L331.6 573.7L331.5 573.5L330.3 573.8L328.5 574.1L327.7 574L327 574.1L326.1 574L325.9 573.9L326.2 573.6L326.3 573.3V573.2V573.2V573.1L326.1 572.6L325.8 572.3L325.1 572L324.5 571.9L323.2 572.1L322.5 572.5L321.9 573.1V573.6L322.2 573.9L322.3 574.3L322.2 574.8L321.9 575.1L320.9 575.4L320.5 575.5L320.4 575.3L319.2 574.9V575.4L318.8 576.3L318.3 576.5L318 576.4L317.4 576.7L317.1 577L316.6 576.8V576.6L317.1 576.3L317.2 576.2V576.2L317.4 575.9L317.3 575.5L317.9 575L317.8 574.4L317.5 574.2H317.2L316.7 573.6L316.4 573.8L316.1 573.7L315.8 573.4V573.3L314.9 573.5L314.6 573.6V574.1L314.2 574.9L313.5 575L313.2 574.9L312.6 574.8L312.3 575L311.9 575.9L311.4 575.8L310.7 576.8L310.1 577.7L309.7 578.2L309 579.3L308.9 579.8L309.1 580.2L308.9 580.4L308.5 581.5L308.3 582.4L308.8 582.6V582.9L308.4 583.1L308.3 583.4L307.6 584L307.2 584.1L306.3 585.9L305.8 586.2V586.7L305.5 587L305.1 587.1L304.7 587.8L304.5 588.1L304.2 588.3L303.7 588.7L303.4 588.8L303 589.2V589.2L302.5 589.8L302.4 589.9L302.2 590L302.1 590.2H302L301.9 590.5H301.5L301.2 590.7L301.1 591.2L300.8 591.5H300.6L300.2 592.2H299.7L299.6 592.5L299.2 592.6L299 593.1H298.7L298.3 593.4L298.1 593.7L297.8 593.8L297.4 594.5L295.6 594.8L295.3 595.6L295.1 595.4L294.8 595.7L294.2 595.9L294.1 596.2L293.5 596.1L293.6 596.5H293.7V596.5V596.6L292.6 597L292.3 596.9H292.2L292.1 596.8H292V596.8V596.7H291.6L291.4 597L290.9 596.7L290.1 596.8L289 597.6L288.3 597.8L287.3 598.2L286.1 597.7H285.6L285 597.1L284.9 596.1L284.3 595.6L283.6 595.2L282.7 594.2L283 593.1L281.5 588.7L280.3 588.1H279.9L278.9 587.6V586.9L278.5 586.2L278.2 585.8L277.7 585.5L277.1 585.3L276.6 585.2L276.2 585.3L276 585L275.8 584.9L275.2 584.6L274.8 584.1L274.4 584L273.8 583.9L273.2 583.7L272.6 583L271.8 582.7H271.3L271 582.9L269.5 583.2V583.4L269.2 583.5L269.1 582.8L268.9 582.3H268.5L267.8 581.7L267 581.2L265.4 581L263.9 581.1L263.5 581.3L260.1 583.6L258.5 584.7L257 586.1L254.7 588.8L254 589.5L253.3 590.4L252.8 591.4L252.4 592.6L251.4 594.9V596.1L251.5 597L251.8 597.5V597.7L252.1 598L252.3 598.5V599.1V599.4L252.6 599.8L252.7 599.9L253.1 600.1L253.5 600.2L253.7 600.3H253.8L253.9 600.5V600.8L254.1 602L254.8 602.6L255.1 603L256.1 603.4L256.2 603.6L256.3 603.8L256.4 604.1L256.6 604.7L257 605.1L257.4 605.9H257.5L257.3 606.3L257 606.9L256.9 607.1L256.4 607.6L256.5 607.9L256.4 607.7L256.3 607.5V607.4V607.4L256.5 607.2L256.7 607.1L256.8 606.8L256.4 606.6H256.3L256.2 606.7L256.1 607.1L255.7 607.5L255.4 607.9V608.4L255.5 608.6H256H255.7V608.8H256.1V609.2V609.3L256.5 609.8V609.8L256.8 610.4L257.1 610.6L257.5 610.8L257.6 610.7L257.8 610.9L257.9 611L257.8 611.8L258.1 612H258.4L258.6 612.5H258.9L259.7 613L259.9 613.3L260.1 613.5L260.2 613.6V614.4V614.7L260.4 615.2L260.7 615.9L260.9 615.8L261 616.2L260.6 616.6L260.8 616.9L261.1 617.2L261.2 617.9L261.4 618.4L261.7 618.8L262.2 618.9L262.8 619.9L263 620.1V620.5L263.2 620.6L263.4 620.7L263.5 620.9V620.9L264 621.3V621.3L264.1 621.4L264.2 621.6V621.6V621.7V621.7L263.8 621.5H263.6L263.3 622V622.2L263 622.8L262.8 623.3L262.9 623.5L263 623.6L262.6 623.7L262.4 624.1L262.1 624.4V624.8V625L262.3 625.4L262.1 626.1L262.3 626.7L262.1 627.1L262.2 627.5H261.9L261.7 627.9L261.6 628.5H261.7V628.7H261.4L261.3 629.2V629.4L261.2 629.8L260.8 630.4L260.7 631L260.3 632V632.1L260.4 632.2L260.3 632.3L260.2 632.6L260.1 633L260 633.2L259.9 633.4L259.8 633.8L259.4 634.5L258.9 635.3L258.8 635.6L258.4 636.3L257.9 637L257.8 637.4L257.5 638.1L257.4 638.4L257.3 638.8L256.9 639.2L256.6 639.7L256.2 640.5L255.7 641.3L255.1 641.9L255 642.5L254.8 642.8L254.7 643.4L254.4 643.7L253.8 644.1L253.3 644L253.1 644.2L253 644L252.5 644.1L251.9 644.6L250.9 645.8L250.4 646.3L250.1 646.8V647.2L249.8 647.5L249.4 648.1L249.2 648.7L249.5 649L249.8 649.5L249.5 649.8L248.8 650.4L248.4 650.5L248.1 650.6L247.7 651.2L246.9 652H246.7L246.1 652.1L245.1 652.9L244.8 653.3L244.6 653.8L244.3 654.8V655.8L244.6 656.3V657L244.7 657.4L244.6 657.6V657.9L244.4 658.3H244L243.9 658.4V658.5H243.4L243.2 658.4L242.9 658.6L242.3 659.5L241.8 660V660.3L241.3 661L241.2 661.5L240.7 661.3L240.2 661.5L239.7 662L239.3 662.7L238.7 663.2L238.4 663.4L238.1 664.1L237.2 665.4L237.1 665.7L236.2 667.3L236.1 667.5L235.5 668.3L235.1 669.5L234.5 670.3L234.1 670.7L234 670.9L233.6 671.7L233.5 671.8L233.3 672.2L232.6 673.4L231.5 675L231 675.9L230.7 676.2L230.4 677L229.9 677.6L228.7 679.1L228.2 679.9H227.9L227.8 680.3L226.9 680.4L225.9 682.4L225.5 682.6L224.7 683.7L224.3 684.6L223.5 685.3L221.3 686.4L221.1 686.7L220.6 687.4L219.6 688.3L219.5 688.2L218.9 688.8L218.5 689L217.9 689.6L217.6 689.8L217.2 689.9L216.9 690.5L216.7 690.8L216.3 691L216.2 691.3H215.9L215.5 691.7L215.6 692.1L215.1 692.4L214.7 692.8L213.7 694.2L213.4 694.4L213.3 694.7L213.2 695.4L213.1 695.8L212.6 696.3L212.4 697L212.2 697.4L211.7 697.9L211.9 698.2L211.8 698.5L211.1 698.7L210.8 698.3L210.9 697.6L210.6 697.5L210.5 697.1L210.9 696.9L210.6 696.4L210.3 696.6L209.4 696.9L209 698.2V698.8L209.2 699.4L208.9 700.4V701.9L209.1 702.3L208.9 702.5L209.1 703.4L208.6 703.9L208.2 704L207.6 704.7L207.1 704.9L206.6 705.3L205.6 704.2H205.3L203.4 705.3L202.5 706.4L202.1 706.7L201.1 708.4L200.5 709.1L199.3 710.8L199.1 711.1L197.9 714.1L196.6 716.5L195.7 717.9L195.5 718.4L195 719.1L194.5 720.1L194.1 721.4L194 722.3L194.1 723.1L194.5 723.3L195.2 723.1V723.3L194.7 723.4H194.2L193.9 723.8L193.7 724.6L191.9 730.1L192.2 730.5L192 730.9L192.2 731.1L191.8 731.7L191.5 732.6L191.6 732.8V733.2L191.3 733.4L191.2 734.1L190.8 734.8V735.5L190.1 735.8H189.9L189.6 736.1L189.3 737.4L189.4 738.4L189.7 739.2L189.3 739.7L189.4 740.1L188.7 740.3V741L188.5 741.2V741.7L188.1 742L187.7 742.9L187.6 743L187.3 744.2L186.5 744.3L185.5 744.8L185.2 745.2L185.1 745.6L185.2 746.4L184.9 747.1L184.6 747.7L184 748.3L183.7 749L183.4 749.9L182.2 751.2L182 751.9L182.2 752.4L182.6 752.7V753L182.3 753.2V753.5L181.5 754.4L181.1 755.4L180.6 755.9L180.2 755.8L179.9 755.9L179.5 755.7L179 756L178 757.2L177.8 757.6L177.4 758L177.3 758.5L176.9 759.2L176.5 759V758.7L176 758.3V758L175.3 757.9L175.2 757.8L175.5 757.6L175.1 757V756.5L174.5 756.3L173.9 755.5L173.3 755.2V754.9L172.9 754.6L172.3 754.4L172.1 753.6L171.9 753.2L171.8 752.5L171.4 752.1L171.5 751.3L171.7 751L171.3 750.6L170.9 750.5L169.8 748.9L169.3 748.7L168.8 748.3L167.6 746.7L166.7 746.1L165.6 745.1L165 744.3L164.4 743.4L163.8 742L162.7 737.9L162.2 735.9L161.5 734.1L160.7 732.5L160.4 731.8L159.6 730L158.9 728.7L157.6 726.7L156.6 725.6L155.5 724.5L154.3 723.8L153.8 723.5L151.9 722.9L151.5 722.6L151.8 722.4V722.1L151.3 721.6L150.5 721.1L149.5 720.6L148.4 720.1L147.9 719.9L146.9 719.3L146.3 719L145.4 718.9H145.2L143.9 718.7L143.2 718.6L142.4 718.7L141.3 718.4H140.3L139.7 718.6L138.3 718.7L137.9 718.6L137.4 718.7L136.1 718.4L135.7 718.3H135L134.3 718.4L133.1 718.8L132.6 718.7L132.4 718.9L132 718.8V718.9L131.5 719L131.3 718.9L130.1 719.1L128.1 719.8H127.7L125.4 720.6V720.7L123.9 721.1L123.6 721.2L123.1 720.9L122.6 721L120.4 720.9L120.3 721.1H119.9L119.5 720.7L118.7 720.5L117.7 720.7L117.3 720.5L116.7 719.8L116.2 719.3L116 718.9L115 718.4L113.9 718.3L113.6 718.1L113.5 717.6L114.1 717.5H114.5L115 717.4L115.9 717L116.6 716.7L117.4 716.8L117.7 716.6L118.3 716.1L118.8 715.8L119.4 715.3L120.2 714.3L120.7 713.6L121 712.9L121.3 711.7L121.5 710.7L121.4 710.3L121.5 709.7L121.7 708.5L122 708.1L122.1 707.5L122.6 707.8L123 707.9L123.4 708.3L124.5 708.5L125.6 708.3H125.9L126.5 707.5L126.9 706.7L127.4 705.5L128 704.4L128.1 703.8V703.2L127.9 701.2L127 698.6L126.3 697.3L125.8 696.9L125.3 696.4L125.1 696L124.8 695.9L124.6 695.5L124.1 695.1L123.9 694.6L124.1 694.2V693.7L123.9 693.1L123.1 691.3L122.7 690.3L122.2 689.5L121.5 688.3L120.2 687.2L118.5 686.3L118.3 686L117.5 685.7L117.6 685.5L117.5 685L117 684.5L117.6 683.5L118.6 683.1L119.4 683.2L119.6 683.4H119.8L120.3 682.9L121.2 681.5L121.6 679.9V679.2H120.5L120.7 678.9H121.7L121.9 678.2L121.8 676.8L121.7 676.2L121.5 675.6L120.7 674.2L120 673L119.6 672.2L119.5 671.1L119.1 669.7L117.9 667.8L117.8 667.4L117.2 666.7L115.2 664.6L114.5 663.9L113.8 663.4L113.1 663.1L112.1 662.2L111.3 661.5L110.6 661.2L110.5 661.1L109.6 660.6L109 660.4L108.5 660.1L107.2 659.6L106.7 659.3L105.9 658.6L105.1 657.5L104.7 657L104.4 656.3L103.8 655.5L103 654.9L102.6 654.4L101.6 653.9L100.3 653.5L99.4 653.4L98.9 653.1L97.8 652.6H97Z" fill="black"/>
</svg>
