<svg width="1000" height="1000" viewBox="0 0 1000 1000" fill="none" xmlns="http://www.w3.org/2000/svg">
<path fill-rule="evenodd" clip-rule="evenodd" d="M167.038 945.85L164.777 943.946L159.422 942.518L149.426 942.637L148.95 941.209L145.856 940.733L143 941.923L144.309 938.829L148.117 937.639L150.259 933.593L153.591 934.426L155.971 932.046L159.541 931.451L170.727 927.881L177.51 923.597L180.961 920.86L181.556 919.194L184.174 918.242L186.435 916.1L185.84 915.029L187.863 913.363L190.719 915.148L192.147 914.315L193.932 909.317L188.696 906.818L187.863 904.2L195.241 907.889L200.834 908.841L207.26 906.342L215.471 901.939L220.469 898.369L222.373 895.632L224.634 889.801L222.016 886.112L224.634 876.949L227.49 868.619L229.751 867.072L232.25 868.738L231.298 872.189L235.106 873.141L237.962 870.88L238.676 868.5L237.248 866.477L234.749 865.525L231.893 866.001L230.108 861.122L231.179 860.646L232.845 857.076L229.632 856.6L229.394 858.385L225.11 863.621L221.897 864.216L222.73 860.289L221.302 858.861L222.016 853.982L223.206 851.602L223.682 847.08L222.849 842.201L219.874 839.583L218.803 837.441L220.469 834.109L226.657 824.589L227.252 820.662L226.3 817.33L223.325 812.451L217.732 811.023L214.4 805.311L211.901 804.002L210.711 804.716L208.212 800.908L209.759 801.622L212.377 800.194L212.853 797.933L210.592 795.791L210.949 794.125L214.995 791.626L215.828 789.96L218.803 790.436L221.897 786.866L220.35 785.2L220.945 781.273L224.277 782.106L226.657 779.012L226.895 775.204L224.991 771.396L226.062 769.492L227.014 765.089L230.346 761.995L231.774 758.068L234.63 757.711L237.248 759.972L236.891 753.546L234.749 752.832L232.964 749.857L233.44 747.001L231.774 745.216L231.298 742.717L228.68 741.646L225.467 738.909L226.419 736.053L229.275 734.268L228.68 731.888L230.822 727.366L232.845 725.581L232.012 722.606L232.607 721.059L236.653 716.775V714.275L239.39 712.253L241.532 709.515L241.77 704.874L240.937 702.613L244.388 697.139L249.862 694.759L253.194 691.308L256.645 685.12L256.764 682.026L258.311 677.147L260.215 674.172L261.881 667.984L260.929 663.343L261.524 660.368L263.547 657.274L267.95 655.489L269.735 653.109L272.234 646.445L272.71 644.065L274.852 640.138L274.376 638.353L274.257 630.38L276.042 628.714L281.635 625.263L283.777 622.645L284.372 620.027L286.395 617.409L288.656 616.457L292.821 613.482L300.437 611.578L302.341 609.555L308.648 606.818L309.243 604.795L313.646 599.797L316.859 593.371L318.525 591.705L319.715 586.707L324.118 583.97L329.711 582.304L332.924 574.569L334.352 571.951L337.684 571.237L343.872 567.905L346.847 568.381L351.726 564.335L351.845 562.788L356.248 558.623L363.388 555.529L363.507 553.506L367.553 552.673L369.576 549.817L375.645 547.08V543.748L377.906 543.986L381.476 541.487L384.689 543.034L388.259 543.51L391.829 542.201L393.257 545.414L400.516 550.769L402.182 553.03L406.466 556.481L411.226 558.861L413.487 558.98L414.915 556.6L416.581 556.362L419.556 557.671L425.506 558.504L426.815 556.957L431.218 556.243L433.955 554.101L438.596 553.03L441.452 550.531H445.736L453.471 549.936L456.446 550.769L464.657 554.934L469.06 555.886L470.964 559.575L472.987 559.456L475.248 561.479L473.344 566.12L470.845 566.596L467.275 575.64L466.204 581.352L466.561 586.826L467.394 591.467L472.273 596.346L473.106 598.369L474.415 611.697L475.724 613.839L479.77 616.338L477.628 619.194L476.557 622.169L475.843 630.023L476.2 632.76L478.223 638.591L477.747 642.399L478.699 646.445L479.532 656.203L476.438 656.441L474.534 659.297L473.344 666.794L473.463 670.364L470.488 678.813L470.369 683.811L468.465 687.262L467.156 701.661L467.989 706.659L466.918 713.562L467.513 721.297L468.584 725.462L470.607 728.913L472.035 729.508L477.747 728.556L478.699 729.389L477.271 735.696L475.605 736.172L473.582 734.03L470.25 732.245L470.131 731.055L466.799 731.293L461.92 733.911L457.517 731.412L451.567 732.126L448.592 733.911L445.974 737.124L442.404 744.026L442.166 748.191L438.477 753.903L438.358 758.782L437.644 764.137L440.5 766.16L443.356 769.254L446.212 770.563L443.594 771.753L442.047 774.252V777.584L440.143 780.321L440.381 784.843L443.118 787.104L444.427 791.388L446.926 792.221L445.379 795.434L445.736 797.1L447.997 799.123L446.45 799.599L446.688 803.526L448.711 806.025L449.901 809.119L455.256 813.284L454.78 814.474L451.686 813.998L450.377 815.783L450.496 817.925L448.83 816.735L446.688 816.973L444.665 814.236L442.166 814.474L439.548 816.14L437.882 819.829L438.834 823.28L437.763 825.66L439.429 828.754L437.168 832.324L438.001 834.585L440.381 836.965L439.667 838.393L441.095 840.059L437.049 838.869L435.74 841.725L437.644 842.796L435.145 844.343L431.456 839.94L428.957 840.654L427.767 845.176L431.575 848.984L431.932 851.721L427.886 849.698L426.577 852.673L423.245 851.959L420.984 853.149L420.865 855.172L425.744 858.266L425.625 859.694L428.957 860.646L428.362 862.074L425.625 861.955L422.531 860.408L420.627 862.669L420.746 866.239L425.149 870.166L423.007 869.214L420.984 869.69L417.771 872.427L416.581 876.83L414.439 874.688L408.489 876.949L410.631 880.638L405.276 877.663L401.944 875.045L400.754 876.235L401.944 879.21L400.754 880.4H395.875L396.232 882.304L402.896 883.613L404.8 883.018L405.99 887.183L405.276 889.206L402.539 890.634L401.944 888.968L394.685 893.609L392.186 891.229L389.687 892.895L391.829 897.298L394.328 901.106L391.71 900.868L390.52 899.559L389.449 901.344L384.332 900.63L383.618 903.843L381.238 901.463L380.405 899.202L376.954 898.845L375.407 900.154L377.549 902.296L379.215 907.413L378.025 907.889L377.073 910.745L373.86 909.198L371.837 910.031L371.718 911.578L369.695 912.53L366.125 908.603L366.006 906.342L362.912 905.033L360.532 906.223L359.461 910.745L361.127 910.983L362.793 913.839L361.484 915.505L360.413 913.72L358.628 914.077L355.534 918.48L356.129 923.002L354.582 920.384L354.701 917.171L353.511 911.697L351.964 907.651L348.156 907.532L346.847 912.768L347.442 914.315L344.348 913.006L340.778 914.672L341.254 919.908L342.444 920.622L342.087 922.883L344.229 927.762L340.302 924.43L339.112 920.86L335.423 918.956L332.805 919.789L330.425 918.837L328.164 916.695L325.903 918.123L326.26 919.432L323.285 921.931L318.882 921.455L317.692 919.67L313.646 918.361L311.266 919.551L307.101 918.599L302.817 916.933L301.27 921.455L304.007 925.858L309.481 926.929L310.076 925.62L314.241 925.858L316.502 928.952L319.358 930.38L316.978 934.545L314.122 934.783L311.147 930.023L307.22 930.261L303.888 929.666L300.318 926.215L297.581 924.787L300.08 923.835L298.771 921.693L299.009 918.718L297.938 915.505L296.034 918.837L294.368 919.908L291.988 918.837L291.155 920.86L287.942 921.217L287.347 922.288H293.297L294.963 925.382L295.201 927.762L297.224 931.451L302.936 938.948L305.554 939.186L303.531 942.399L303.769 944.779L306.268 948.468L304.364 947.397L301.746 948.23L301.627 951.681L299.366 954.18L300.318 957.155L297.819 956.798L298.057 953.347L297.462 949.182L294.606 943.827L295.32 941.09L292.702 939.067L290.203 933.474L290.084 931.332L288.299 929.19L286.99 925.144L283.42 924.192L278.779 926.81L277.946 923.121L270.687 918.956L272.115 921.693V924.787L274.733 930.023L275.804 930.618L280.207 928.476L282.825 929.904L285.681 939.781L283.301 939.662L282.468 941.328L283.658 943.589L282.825 947.159L280.564 943.589L274.971 938.829L272.71 939.9L271.758 943.113L269.378 941.328L266.76 936.687L268.069 933.355L265.451 930.499L263.309 930.856L262.595 932.879L260.691 932.76L259.382 929.19L255.574 927.167L250.933 922.526L248.91 918.956L246.887 919.194L247.363 926.691L250.1 929.428L251.171 932.879L249.981 934.783L246.768 937.044V939.067L243.317 939.9L240.104 944.303L239.033 947.754L237.129 948.468L235.344 951.562L233.44 945.969L235.939 939.543L235.701 937.52L232.964 936.925L231.417 938.591L229.751 936.211L227.847 935.616L225.824 937.282L227.014 941.09L226.062 942.637L227.252 944.779L224.634 949.301L226.3 954.18L225.943 961.082L224.991 964.533L223.206 964.652L222.849 960.606L220.469 961.558L217.851 959.892L217.256 961.558L218.803 962.986L217.732 964.89L215.709 964.652L214.519 967.389L210.949 967.746L212.734 964.176L212.139 961.201L214.519 957.274L213.924 954.061L216.066 951.086L216.185 947.516L217.613 945.136L215.114 942.756L212.853 942.28L209.164 943.232L207.617 934.545L205.118 935.378L203.928 940.733L204.88 946.564L203.928 949.658L204.642 951.562L203.214 952.276L203.333 954.894L201.667 956.917L200.358 955.727L201.786 954.537L202.738 951.086L200.12 950.253V945.969L198.692 943.827L195.717 945.136L195.836 949.182L194.051 947.873L192.028 948.944L191.314 952.752L189.886 948.587L186.435 947.278L187.506 942.756L183.46 942.161L182.746 943.946L179.533 940.852H172.512L172.155 944.66L170.965 947.159L166.562 947.278L167.038 945.85Z" fill="black"/>
<path fill-rule="evenodd" clip-rule="evenodd" d="M829.154 50.8498L832.129 51.2068L835.937 45.6138L837.722 44.6618L843.434 39.5448L846.766 38.5928L852.121 39.9018L854.858 45.0188L855.096 47.8748L857 51.0878L855.929 62.6308L854.025 63.7018L849.622 64.4158L847.361 66.0818L846.766 64.8918L843.315 63.7018L839.983 64.5348L838.436 62.7498L835.699 56.9188L832.962 56.3238L830.225 54.3008L829.154 50.8498Z" fill="black"/>
<path fill-rule="evenodd" clip-rule="evenodd" d="M652.439 195.078L653.391 194.84L655.89 190.318L654.224 189.247L656.723 186.272L657.437 183.535L655.533 179.608L656.485 174.848L660.174 172.587L664.101 168.66L667.076 164.852L671.36 164.495L674.097 166.161L677.191 164.852L679.214 162.591L680.523 158.783L680.761 155.332L678.619 149.62L675.406 146.883L674.93 142.837H669.099L667.195 144.265L661.84 145.336L664.458 147.478L665.648 146.05L668.147 146.288L669.099 143.789L674.811 143.908L671.955 146.169L674.454 147.478L673.74 148.549L668.266 147.716L666.124 149.144L663.625 148.43L659.936 145.455L655.176 139.505L656.961 132.96L653.867 128.438L657.199 126.058L656.128 123.202L657.794 121.655L659.103 122.726L658.984 125.582L657.675 127.01L659.103 129.39L661.602 131.413L668.266 132.008L671.003 133.555L675.406 131.77L678.857 132.841H682.308L688.139 129.152L689.686 124.749L688.734 122.25L689.924 121.06L693.851 120.108L697.541 121.893L708.727 120.584L716.462 117.609L721.817 113.801L725.149 109.398L727.767 107.613L729.314 104.876V100.235L727.886 99.4021L729.076 96.4271L728.243 94.9991L729.314 91.7861L729.195 88.8111L736.097 82.7421L738.12 77.744L738.358 73.579L735.383 68.7L738.001 63.107L735.978 55.61L739.905 53.468L740.738 51.564L739.548 50.136L743.951 45.852L745.736 44.781L749.544 44.186L752.519 41.806L752.995 39.188L756.684 33L756.922 37.522L761.682 41.092L763.943 41.806L767.037 41.449L767.751 40.259L771.44 43.591L772.035 45.852L769.536 48.708L768.822 57.871L769.893 58.704L769.536 61.322L770.131 66.558L771.559 70.485L775.129 74.65H776.795L778.699 77.149L784.292 80.2431L786.91 84.0511L786.315 85.4791L782.745 86.5501L780.008 90.7151L778.223 96.7841L777.866 99.9971L779.175 101.306V104.757L782.269 107.613L780.484 108.565L778.342 107.732L772.273 109.279L770.25 112.492L768.346 113.682L766.799 117.847L765.252 126.296L766.085 127.486L765.847 132.841L766.918 133.674L766.085 136.53L765.728 141.766L766.799 146.169L769.655 147.478L770.131 151.405L769.893 156.403L767.156 157.712L761.92 157.117L759.421 158.664L757.993 158.069L755.613 160.211L754.899 162.115L752.876 159.973L751.448 160.568L748.83 157.236L745.022 157.95L741.214 159.854L739.905 161.401L735.026 160.925L733.479 159.854L732.408 157.355L729.433 156.76L726.339 157.712L723.602 160.33L719.913 162.234L717.057 162.472L712.178 165.685L706.347 173.658L702.658 177.109V178.537L697.898 179.013L696.589 177.823L694.208 178.656L693.256 176.871L687.901 175.443L687.187 174.015L683.26 173.182L680.761 174.848L675.882 173.42L672.312 173.777L670.289 176.276L665.767 178.775L664.458 180.56L660.65 182.464L657.437 190.199L659.46 194.364L657.556 193.531L654.105 195.197L652.439 195.078Z" fill="black"/>
<path fill-rule="evenodd" clip-rule="evenodd" d="M509.282 442.122L507.021 439.266L503.213 437.6L501.547 434.982L492.741 432.245L490.48 430.341L493.812 426.533L499.405 418.56L505.474 412.491L507.14 406.541L503.213 400.472L503.808 399.163L508.33 397.854L509.52 402.614L515.351 404.875L518.803 404.518L521.421 400.591L522.492 402.138L522.135 406.898L519.041 409.278L516.541 408.445L514.637 409.754L513.685 414.752L516.541 416.894L517.255 419.988L519.636 422.368L519.398 423.915L512.733 432.84L512.376 436.291L510.234 442.003L509.282 442.122Z" fill="black"/>
</svg>
