<svg width="1000" height="1000" viewBox="0 0 1000 1000" fill="none" xmlns="http://www.w3.org/2000/svg">
<path fill-rule="evenodd" clip-rule="evenodd" d="M574.114 910.463L573.958 909.21L577.248 909.837L577.718 909.21L579.441 907.016L575.994 906.076L575.524 902.63L571.451 899.809L573.331 899.653L577.718 893.699L578.188 891.506L583.358 892.759L587.745 892.132L588.998 890.095L586.335 887.745L587.902 881.792L592.915 874.898L595.579 873.958V869.884L591.662 864.244L592.915 862.364L593.699 854.373L592.132 849.986L597.302 850.3V853.277L601.063 856.253L603.256 855.47L601.846 859.7L605.449 862.52L609.68 862.207L614.693 863.931L617.357 863.617L619.08 869.571L618.767 872.234L620.96 882.732L623.781 883.985L626.757 881.635L631.301 885.395L634.748 885.082L636.471 890.252L633.651 897.459L638.978 898.713L640.232 903.726L636.941 903.57L637.725 905.45L636.315 910.15L635.845 909.837V909.837V909.837L633.495 913.91H632.084L629.264 919.237L631.614 923.154L627.854 925.818L625.817 915.634L621.43 917.357L619.394 923.154L616.887 926.601L614.537 927.228L613.91 922.214H608.27L606.076 923.937L606.86 926.601L604.039 930.205L601.689 930.361L598.869 933.495L595.892 933.651L595.736 938.195L594.012 939.762L595.736 942.895L592.132 945.089L589.782 949.319V956.839L590.722 958.25L589.155 962.166L586.648 962.793L585.552 965.457L583.201 964.83L580.695 966.397L581.791 968.433L577.248 970L578.188 967.65L575.054 969.687L571.764 966.397L574.741 966.083L572.077 964.203L575.681 959.973L568.944 960.6L566.907 954.803L564.087 957.309L562.99 951.356L569.414 946.342L572.077 940.702L580.538 940.232L583.515 936.002L588.058 936.472L592.445 932.711L590.252 923.154L592.759 918.767L591.819 916.887L589.469 918.767L585.082 919.707L581.478 919.081L580.381 914.38L575.994 914.224L574.114 910.463Z" fill="black"/>
<path fill-rule="evenodd" clip-rule="evenodd" d="M178.82 933.338L177.88 932.555L171.77 933.495L174.59 941.956L171.3 943.366L168.793 941.486L167.226 937.412L158.452 938.509L155.319 937.412L153.909 939.605L151.715 937.412L152.655 935.689L149.365 934.278L147.328 937.099L144.822 936.159L142.001 932.712L140.591 934.748L135.421 935.375L136.831 937.569L134.951 940.545L129.937 937.412L131.661 934.905L129.154 932.868L126.804 935.532L123.827 934.435L121.163 937.255L120.067 935.062L114.426 931.458L112.076 932.712L105.026 930.988L106.906 930.048L102.362 925.661L100.169 927.698L93.9018 922.841L93.4318 924.721L86.2247 925.975L82.9345 923.938L81.9944 920.804L76.1974 920.648V917.984L73.5339 915.321L69.3036 918.924L69.617 915.791L67.8936 915.164L62.8799 918.297L60.9998 922.371L58.963 919.864L55.2028 920.021L52.8526 922.998L50.0325 923.781L47.6823 921.118L40.3186 924.408L38.9085 919.708L37.3417 924.721L35.4616 921.274L36.715 920.491L34.0515 917.671L32.1714 918.611L31.858 922.684L28.7245 919.864L28.0978 914.537L24.6509 915.164L23.0842 911.874L21.6741 912.97L19.1673 905.763L17.6005 906.703L16.6605 903.413L17.6005 900.123L16.1904 898.4L16.3471 893.856L18.3839 890.252V887.902L24.0242 884.769L23.3975 886.649L27.0011 889.469L29.6646 889.782L31.2313 887.119L34.5215 888.059L36.8717 892.289L43.6088 892.603L44.3921 893.229L44.8622 893.386H45.9589L46.7423 893.073L48.6224 892.289L49.5624 891.819L50.3458 890.879L54.2627 887.432L56.6129 883.045L56.7696 881.792L56.4562 879.755L55.9862 879.285L61.1565 873.331L61.6265 872.705L63.1933 868.474L64.6034 860.954L63.35 845.6L61.6265 839.176L57.7096 833.849L54.8894 835.102L49.8758 830.402L45.1755 830.872L49.0924 825.702L49.2491 822.412L53.3227 824.292L54.1061 826.172L59.7464 825.075L69.147 817.398L74.944 817.555L78.2342 815.518L79.6443 819.121L87.008 822.882L89.8282 821.785L96.4086 815.205L98.7588 809.721L97.192 806.744L98.2887 804.081L102.049 801.26L101.892 797.03L106.749 798.127L109.726 802.357L108.786 804.864L110.353 807.057L115.523 809.251L120.85 809.564L132.757 805.804L137.614 802.984L142.001 798.597L144.822 791.233L144.195 783.243L142.001 780.266L136.518 779.796L132.757 776.349L138.084 778.229L140.748 777.446L143.881 774.469L144.195 778.072L146.858 779.796L147.798 782.773L151.715 781.989L152.185 778.072L156.102 774.469L163.779 774.782L169.42 773.059L172.867 770.395L178.194 759.585L178.507 758.801L179.447 753.004L181.17 750.184L181.327 742.507L178.35 739.217H175.53L177.88 736.71L181.484 739.843L184.147 740L186.497 737.336L189.161 740.94L191.824 741.723L195.271 740.313L196.681 737.65L194.018 735.613L198.091 733.106L202.008 733.263L204.515 730.599V726.839L201.852 723.392L204.202 719.475L207.649 723.706L212.349 721.356L214.542 715.715L213.289 713.522L216.266 711.798L217.049 714.305L222.22 712.738L227.703 718.222L233.657 716.812L236.32 714.462L239.454 707.725L245.251 708.195L245.564 709.448L242.431 715.088L244.938 719.475L248.698 721.826L252.615 722.452L255.122 726.996L257.785 729.189L260.919 728.876L265.619 725.272L262.799 720.572L265.149 714.462L264.365 710.232L267.186 707.411L267.812 703.651V694.721L263.739 692.84L261.859 690.177L257.315 690.96L253.711 688.924L254.338 686.103L262.172 684.38L264.052 680.933L270.162 682.5L275.176 679.21L277.996 684.223H280.66L285.987 680.463L280.503 690.96L287.083 696.131L292.881 698.011H299.148L301.028 693.937L304.318 693.781L306.355 690.49L305.258 687.67L310.272 682.03L309.018 677.173L312.465 679.836L312.152 682.5L314.502 687.827L323.589 690.647L326.879 689.864L331.109 685.79L335.183 686.73L333.773 689.237L337.69 695.347L335.653 698.637L336.123 701.458L338.787 703.651L338.003 705.375L340.823 711.955L339.1 712.895L339.57 719.162L338.003 724.489L337.22 731.853L334.713 729.973H330.013L327.819 731.696L329.856 736.24L331.893 737.023L328.603 738.747L327.349 742.507L329.543 744.544L328.916 747.834L325.469 752.064L321.709 753.944L320.769 751.594L307.765 750.654L307.608 753.004L311.525 753.787L320.142 757.704L322.962 760.525L325.312 759.114L329.543 760.838L328.289 766.008L323.119 770.082L320.769 770.552L314.815 768.985L308.078 771.022L306.041 773.529L303.848 771.962L296.014 773.059L292.41 774.782L286.77 779.326L280.973 786.376L281.286 789.666L279.093 794.21L276.9 800.947L277.056 805.491L281.286 810.348L286.3 812.228L286.143 814.264L283.167 814.108L280.503 819.748L282.07 821.158L290.374 821.628L289.12 814.578L293.194 827.269L288.964 824.918L289.12 828.835L287.554 824.448L283.167 826.015V823.978L279.406 824.605L277.213 833.849L278.623 834.946L278.153 839.489L286.143 838.236L285.987 836.356L290.374 835.572L290.844 837.296L295.231 835.729L296.327 840.899L294.917 841.213L291.94 837.766L277.37 840.899L277.526 845.756L288.964 853.904L287.083 857.037L288.964 859.074L285.673 858.29L282.54 859.544L281.6 862.834L282.383 870.355L279.876 879.598L281.13 888.216L277.84 886.336L274.706 891.662L277.37 894.639L280.816 896.049L280.66 897.773L283.323 905.45L285.36 905.763L283.323 909.054L284.733 909.367L288.337 913.911L287.554 919.081L291.784 926.758L291 929.421L289.12 925.818L285.83 924.564L286.77 929.891L283.48 932.085L285.047 936.472L280.816 934.122L274.393 936.159V938.979L270.319 940.232L269.692 937.099L272.043 935.532L268.596 933.652L269.222 924.251L270.162 924.408L272.669 916.731L266.089 919.238L261.545 916.104L257.472 915.634L257.942 912.814L254.652 914.381L255.905 917.827L253.085 918.924L253.398 920.961L250.421 924.408L246.191 920.804L244.938 922.371L245.721 926.758L242.431 928.638L237.104 923.938L235.224 924.564L235.38 927.855L239.611 932.398L236.164 937.412L234.127 937.255L233.187 934.122L232.09 938.039L226.92 946.499L225.04 940.075L220.339 936.785L218.146 929.421L219.869 928.011L218.616 924.878L214.542 926.288L212.349 919.551L209.842 924.251L206.865 924.094L203.732 921.274L200.598 923.311L197.778 921.588L196.368 924.878L195.428 920.648L191.041 917.357L189.631 918.611L191.354 922.371L187.594 922.998L189.631 928.481L187.124 931.772L186.027 928.638L183.521 930.832L183.051 933.652L178.82 933.338Z" fill="black"/>
<path fill-rule="evenodd" clip-rule="evenodd" d="M900.001 49.8418L912.535 39.9712L916.295 37.3077L901.098 49.6851L900.001 52.0352L901.411 57.3622L902.978 57.0489L906.581 50.9385L906.111 55.9522L908.618 62.0625L911.595 63.4726L920.526 64.5693L926.009 63.3159L932.59 57.6756L933.216 54.5421L931.493 50.9385L928.516 49.6851L928.203 45.1415L931.65 46.3949L932.12 43.8881L935.723 41.0679L933.53 38.2477L936.193 37.4644L940.11 39.3445L940.58 41.8513L943.714 42.008L946.22 39.9712L943.087 33.3908L947.317 36.9943L947.787 36.8377L947.631 35.2709V35.2709L946.22 32.6074L949.354 30.1006L951.234 33.7041L951.704 37.621L954.994 41.5379L959.695 42.3213L960.635 38.7178L963.298 37.3077L963.612 40.7546L965.648 41.0679L966.745 38.0911L969.409 39.5012L974.422 38.2477L977.086 40.9112L982.099 39.6578L982.883 44.5148L981.943 48.5884L980.063 49.3718L978.339 54.3854L976.459 53.4453L970.035 62.0625L960.478 60.3391L957.188 60.6524L952.958 63.0026L952.017 67.3895L955.308 69.8963L957.188 73.1865V76.9468L952.644 79.4536V82.4304L950.137 84.4672L948.101 83.5272L947.317 83.8405L941.05 82.4304L941.364 88.0708L936.663 88.8541L936.35 91.361L932.903 93.5544L928.359 94.1811L929.769 98.8814L925.853 100.135L920.682 105.618L917.705 104.992L914.572 107.342L904.075 106.872L902.038 109.065H898.278L894.047 111.886L891.227 115.802L888.877 115.019L885.9 118.623L880.416 120.973L870.389 119.719L869.292 121.443L864.749 120.816L863.025 117.996L860.675 119.406L857.855 116.429L854.878 117.683L853.468 121.443L848.925 117.839L847.044 115.176L842.658 113.139L845.321 112.199L846.574 108.752L842.188 108.439L842.344 106.402L846.731 102.328L845.321 96.3746L847.985 95.2779L852.371 90.5776L853.155 84.6239L858.952 83.6838L866.002 76.6334L867.256 65.9794L870.233 64.5693L874.306 65.3527L885.273 64.8827L890.914 62.5326L891.54 60.0257L896.397 63.4726L898.904 58.929L894.674 54.072L897.024 55.0121L896.397 50.6252L900.001 49.8418Z" fill="black"/>
</svg>
