<svg width="1000" height="1000" viewBox="0 0 1000 1000" fill="none" xmlns="http://www.w3.org/2000/svg">
<path fill-rule="evenodd" clip-rule="evenodd" d="M900.107 899.167L900.514 899.302V899.574L899.7 899.845L899.428 899.981L899.292 900.795L899.428 901.202L899.157 901.745L898.75 902.423L898.478 902.966L898.885 903.644L899.835 904.322V904.594L900.514 905.408L901.328 905.815H901.599L902.006 905.95H902.142H902.277H902.413V906.357L902.142 906.493L901.735 906.629L900.921 906.493V906.222L900.785 906.086L900.649 905.95L899.971 906.222L899.428 906.629L899.021 906.9L898.478 906.493H897.393L896.036 906.222L895.358 905.815L894.544 905.272L893.594 904.322L893.323 903.78H892.645V903.373L893.594 902.83L893.73 902.423L893.459 902.016L893.594 901.745H894.273L894.815 901.473L895.222 901.202L895.494 900.659L896.308 899.981L896.715 899.845L897.529 899.302L898.071 899.031L898.75 898.76L899.564 898.895L900.107 899.167Z" fill="black"/>
<path fill-rule="evenodd" clip-rule="evenodd" d="M913.674 901.201L913.945 901.336L914.352 901.472H914.759L914.895 901.608V901.336L915.302 901.201L915.438 901.608L915.574 901.743H915.981V902.015H915.574L915.438 902.286L915.574 902.557L915.709 902.964V903.643L916.116 904.05L915.845 904.186L915.709 904.457L915.574 904.728L915.438 905L915.302 905.407V905.678L915.167 906.085L914.624 906.492L913.81 906.763H913.131L912.589 906.628H911.91L910.825 906.085L910.147 905.678L909.061 905.542H908.654L907.84 905.407L907.705 905.135H907.162L906.89 905.271L906.619 905.135L907.162 904.457L907.569 903.914L907.976 903.507L908.112 903.1V901.743V900.794L908.519 900.658L909.197 900.522L910.282 900.387H910.554H910.825L911.91 900.658L912.724 900.929L913.403 901.065L913.674 901.201Z" fill="black"/>
<path fill-rule="evenodd" clip-rule="evenodd" d="M920.052 897.538L920.459 897.674V897.809V897.945L920.731 898.352H921.002V898.216L921.273 898.352V898.488H921.002L920.866 898.895L921.002 899.573L920.866 899.845L920.731 899.98V900.116L920.595 900.252L920.324 900.387H920.052L919.917 900.252H919.509L919.374 899.98L919.238 899.845H918.967V899.709V899.573L919.102 899.166L919.238 899.03L919.374 898.759L919.509 898.352V898.216V898.081H919.781V897.945L920.052 897.538Z" fill="black"/>
<path fill-rule="evenodd" clip-rule="evenodd" d="M958.311 833.501V832.959L958.446 832.687H958.718L959.125 832.416L959.26 832.009L959.667 831.466L960.21 831.738L961.16 831.602L962.788 829.974L963.195 829.431L963.331 828.888L963.602 828.617L964.28 828.346L964.552 828.481L965.23 828.753L965.773 829.567L965.637 830.109L966.044 830.652L966.858 831.195L968.486 832.28L968.893 832.552L969.165 832.823L969.979 833.908L970.793 834.722L971.742 835.401L972.149 835.943L972.285 836.35L972.149 836.893L971.471 838.25L970.657 839.335L970.386 839.878L969.436 840.421L968.351 841.099L967.265 841.913L966.858 842.32L966.722 842.591L965.501 843.27L964.552 842.998L963.873 842.863L963.195 842.456L962.652 842.184L962.381 841.37L961.974 840.556L960.889 839.064L959.939 838.114L958.989 837.164L958.311 836.893L958.039 836.486L957.632 836.35L957.09 835.808V834.994L956.818 834.722V834.315L957.225 834.18L957.768 834.044L958.311 833.501Z" fill="black"/>
<path fill-rule="evenodd" clip-rule="evenodd" d="M964.144 649.393L964.28 649.258V649.258V648.986V648.986H964.009L963.873 648.715V648.172L964.009 647.901H964.144L964.28 647.765L964.416 647.223V646.951L964.28 646.816V646.409L964.416 645.866L964.687 645.459L965.637 645.052L965.908 644.781V644.645L965.772 644.374L965.908 644.238H966.044H966.179L966.315 643.288L966.722 642.474L967.129 641.796L967.401 641.66H967.672H968.486L968.622 641.796L968.757 642.067V642.067L969.436 642.203L969.978 642.61L970.792 643.017L970.928 643.288L970.657 643.831V644.374L970.792 645.052L971.199 645.595L971.471 646.002L972.149 646.951L972.692 647.358L973.37 647.901L974.184 648.172L975.27 648.579H975.541H975.948L976.219 648.444L976.355 648.579V648.308H976.626V648.172L976.762 648.444V648.715L976.491 648.986L976.084 649.529L975.134 649.801L974.456 650.208L974.048 650.75L973.913 650.886H973.641H973.37L972.556 651.293L972.285 651.157L972.149 651.293L972.013 651.429H971.606L971.335 651.7L971.064 651.836H970.928L970.657 651.564H970.385L969.164 652.243L968.893 652.378L968.757 652.243L967.943 651.971L967.401 651.836H966.994L966.315 651.429L965.23 650.886L965.094 650.615H964.958H964.687L964.551 650.479L964.416 650.208L964.551 649.936V649.801L964.144 649.393Z" fill="black"/>
<path fill-rule="evenodd" clip-rule="evenodd" d="M940.129 543.025L940.536 542.89L940.943 543.025L941.35 543.161L941.757 543.568L942.571 543.839L943.114 543.704L943.249 543.975L943.114 544.111L942.842 544.246V544.382L942.978 544.789L942.842 544.925V545.196L942.571 545.739H942.435H941.757L940.943 545.332L940.265 545.06L940.129 544.789L940.4 544.246V543.839V543.568L940.129 543.297V543.025Z" fill="black"/>
<path fill-rule="evenodd" clip-rule="evenodd" d="M946.916 538.413V538.141L947.052 538.006H947.459V537.87L947.594 537.734L947.866 537.87V537.87H948.137V538.006L948.273 538.141H948.408L948.544 538.277H948.68V538.413H948.951L949.494 539.091L949.901 538.955L950.172 538.82L950.308 538.548V538.413L950.036 538.277L950.308 538.141L950.579 538.277L950.85 538.955V539.227L951.122 539.634H951.393L951.664 540.312V540.719L951.936 540.855V540.991L951.8 541.126V542.076L951.936 542.347L952.207 542.483V542.619L952.343 542.754L952.207 542.89L952.071 543.026L951.936 543.297H952.071V543.433L951.936 543.568L951.664 543.433L951.393 543.161L950.85 543.297L950.443 543.161L949.629 543.297L949.358 543.568H948.951L949.087 543.026L948.68 542.89V542.483V542.076L948.544 541.533L948.408 541.398L947.866 540.991L947.594 540.583L947.73 540.448L947.594 540.312L947.052 540.176L946.78 539.905L946.645 539.769L946.916 539.227H947.187L947.323 539.091V538.955L947.187 538.548L946.916 538.413Z" fill="black"/>
<path fill-rule="evenodd" clip-rule="evenodd" d="M909.876 486.722L908.926 486.451L907.841 486.315H907.434L907.162 486.586H907.027L906.755 486.315V485.908H906.348L905.941 485.637L905.806 485.365V485.094H906.213L906.077 484.687L905.806 484.28L906.213 484.008V483.601L905.941 483.33L905.67 483.059L905.941 482.923L906.213 482.516L906.484 481.566L906.755 481.295L907.162 481.159L907.569 480.888L907.841 480.752L908.383 480.481L908.79 479.938L909.062 479.667L909.333 479.531L909.604 479.803L910.283 479.667H910.554L910.825 479.803L912.047 480.481L912.318 480.752L912.861 480.617L913.675 480.888L914.217 481.159L915.031 481.702L915.574 482.38L915.845 482.652L915.981 483.059L915.845 483.33V483.737L916.117 484.008L915.845 484.551H915.574L915.167 484.822L914.896 485.094L914.624 485.365L913.81 485.772L913.268 486.044L912.589 486.179L912.047 486.315L911.64 486.586L910.825 486.722L910.69 486.993L910.418 486.858L910.283 486.586H910.011L909.876 486.722Z" fill="black"/>
<path fill-rule="evenodd" clip-rule="evenodd" d="M880.162 426.212H879.619L879.212 425.94V425.805L879.076 425.94L878.669 425.805L878.534 425.533L878.262 424.855V424.584L878.127 424.448L877.855 423.77L877.584 423.634L877.312 423.498V423.227L877.72 422.82L877.584 422.684V422.548V422.413L877.312 422.006L877.448 421.87L877.584 421.599H877.991H878.262L878.398 421.463L878.534 421.192L878.669 421.056V420.92L878.805 420.513L879.212 420.242L879.755 420.106H880.026L880.162 419.971L880.297 420.242H880.433L880.569 420.513L880.704 420.378L880.84 420.649H881.111V420.92L880.976 421.192H881.111V421.327L881.383 421.463H881.654L881.79 421.87H882.061L881.925 422.006L882.197 422.277V422.548L882.332 422.956L882.468 423.363L882.739 423.634H882.604H882.468L882.332 423.77H882.197V423.905L882.061 424.312L881.925 424.177L882.061 424.448H881.925V424.584L881.79 424.448L881.111 424.584L880.976 424.719L880.569 424.991V425.262L880.297 425.398L880.433 425.805L880.297 426.076L880.162 426.212Z" fill="black"/>
<path fill-rule="evenodd" clip-rule="evenodd" d="M973.912 741.516L974.048 741.38L974.319 741.516L975.269 741.109H975.541L976.49 740.837L977.169 740.702L977.711 740.43L977.983 740.295L977.847 740.159H977.983L978.118 740.023H978.797L979.204 740.43L979.611 740.566H980.018H980.289H980.832H981.103H981.781H982.46H983.138L983.41 740.837L984.088 741.244H984.224L984.359 741.516L984.495 741.787V741.923L984.631 742.194L985.173 742.601L985.309 742.737H985.58V742.873V743.415V743.958L985.445 744.501V744.908V745.315V745.722V746.129L985.309 746.4V746.536L985.173 746.807L985.038 747.078V747.35L985.173 747.485V747.757L985.038 748.299V749.114L985.173 750.335V751.963V752.234L985.309 752.641L985.852 753.319H985.987V753.591H986.259L985.987 753.726L986.123 753.998V754.269V754.676V755.083L985.987 755.219V755.897V756.168V756.304V756.44V756.711H985.852V756.847L985.987 756.983H986.123L985.987 757.118H985.852V757.118V757.39H985.716L985.58 757.254L985.445 757.39L985.58 757.525H985.309V757.525L985.445 757.39L985.309 757.254L985.038 756.983V757.118H984.902V756.983L984.359 756.847V756.847H984.224V756.983L984.088 756.847L984.224 756.44L984.088 756.304L983.952 756.168L983.681 756.033V756.033L983.545 755.761H983.41L983.274 755.49L983.003 755.354L982.867 755.219L982.053 754.812L981.374 754.405H981.103L980.696 754.269L979.611 754.405H979.475L979.204 754.812H979.068L978.932 754.947L978.661 755.083L978.525 755.49V755.626L978.39 755.49L978.254 755.354L978.118 755.083L977.847 754.812L977.44 754.405L977.169 754.269L976.355 753.998L976.083 753.726L975.812 753.591L975.541 753.455L975.134 753.319L974.998 753.184L974.591 752.912L974.319 752.777L973.912 752.641L973.641 752.777L973.234 752.641H972.963H972.691L972.556 752.37L972.149 752.234H972.013L971.877 752.37L971.742 752.098L971.606 751.691L971.47 751.149L971.335 750.742L971.199 750.47L970.928 750.335H970.792L970.521 750.063L970.385 749.928L970.249 750.063H970.114V749.928L969.842 749.792L969.571 749.656L969.164 749.521L968.893 748.571V747.078V746.264L969.3 746.129L969.707 745.45L969.842 744.229L969.978 743.822L970.114 743.28V743.008L969.842 742.737V742.33L969.707 742.194V742.059H969.842L969.978 741.923L970.385 742.059V741.787L970.656 741.923L971.063 741.787L971.335 741.652L971.47 741.38L971.606 741.516H971.742L971.877 741.244V741.244L972.013 741.38V741.516L972.284 741.38V741.652H972.556L972.691 741.516L972.556 741.38L972.691 741.244V741.38L973.098 741.516L973.641 741.38L973.912 741.516V741.516Z" fill="black"/>
<path fill-rule="evenodd" clip-rule="evenodd" d="M212.382 208.458L212.653 208.322L212.789 208.458H213.06V208.322L213.196 208.458V208.322H213.467V208.458L213.603 208.187H213.739H214.01L214.146 208.322H214.282V208.458L214.146 208.729H214.282L214.146 209.001L213.875 208.865L213.739 209.001L213.875 209.136L214.01 209.408L213.739 209.543V209.95H214.01L213.875 210.086V210.222V210.357V210.357V210.493V210.9L213.739 211.036L213.603 210.9L213.467 211.036V211.171H213.603L213.332 211.443V211.578L213.196 211.714H213.06L212.789 211.578V211.307V211.443L212.653 211.307L212.382 211.171L212.246 211.307H212.111V211.307H211.975V211.443H211.839L211.704 211.307H211.839V211.036V210.9V210.357L211.975 210.086V209.95L211.704 209.543H211.432V209.408L211.297 209.272V209.136H211.161V209.001L211.025 208.729L211.161 208.594H211.568H211.839V208.458L211.975 208.322H212.246H212.111H212.382V208.458Z" fill="black"/>
<path fill-rule="evenodd" clip-rule="evenodd" d="M111.986 165.585L112.258 165.721H112.529L112.122 166.399L111.579 166.535L111.037 166.264L110.494 166.671L110.358 167.213L110.087 166.942H109.816H109.409L109.002 167.078L108.73 167.213L108.459 167.349L108.052 167.892H107.645L107.509 167.756L107.238 167.485L107.102 167.349L106.966 167.62L106.831 167.892L106.424 167.756L106.559 167.62L107.102 167.213L107.509 166.942L107.645 166.399L108.188 166.128V165.857H108.459L108.188 165.721H107.645L107.238 165.857L106.831 165.585L106.559 165.314L106.288 164.771L106.017 164.635H105.881H105.067V164.5V164.364L105.474 163.957L105.338 163.686L104.931 163.55H104.66H104.389V163.279H104.66H104.931L105.338 163.143L104.931 162.872L104.796 162.329H105.067L105.474 162.872H105.745L106.017 162.736L106.424 162.465L106.831 162.193H107.102L107.238 162.465L107.78 162.329H108.052L108.459 162.6L108.323 162.872L108.459 163.007L108.73 163.143L108.866 163.007H109.002L109.137 163.279L109.409 163.55H109.68L109.951 163.686L110.087 163.957H110.358L110.63 164.093L110.765 164.364L111.037 164.5L110.901 164.771L111.579 165.042L111.851 165.314L111.986 165.585Z" fill="black"/>
<path fill-rule="evenodd" clip-rule="evenodd" d="M14.8431 98.5633L14.7074 98.8347V98.8347L14.436 98.5633L14.5717 98.8347L14.3004 98.9704V98.8347H14.029L14.1647 98.699L13.8933 98.5633H14.1647L13.8933 98.4277H13.622L13.4863 98.1563L13.622 98.0206L13.8933 97.885L14.1647 98.0206H14.436H14.3004V97.885L14.436 97.7493L14.1647 97.885L14.029 97.6136L14.3004 97.478L14.5717 97.2066L14.3004 97.3423L14.1647 97.478L14.029 97.3423L14.1647 97.2066V97.2066L14.436 96.9353L14.7074 96.7996H14.8431L14.9787 97.0709L15.1144 96.9353L15.2501 97.0709L15.3857 96.9353L15.7928 96.6639H16.1998L16.0641 96.5283L16.3355 96.3926L16.4711 96.5283L16.6068 96.3926V96.5283L16.4711 96.6639L16.7425 96.9353V96.7996H17.0138L17.2852 96.6639L17.4208 96.7996L17.2852 96.9353V97.0709H17.4208L17.5565 97.2066V97.478H17.6922V97.3423H17.8279L17.9635 97.2066V97.3423L18.0992 97.478H17.8279V97.885L17.6922 97.7493L17.5565 98.0206L17.6922 98.1563L17.5565 98.292H17.4208L17.2852 98.4277H17.0138V98.5633V98.699L16.8781 98.5633L16.7425 98.8347H16.6068V98.5633L16.1998 98.699H16.0641H15.9284V98.9704L15.6571 98.8347V98.5633L15.5214 98.699H15.3857L15.2501 98.8347L15.1144 98.699L14.8431 98.9704V98.5633Z" fill="black"/>
<path fill-rule="evenodd" clip-rule="evenodd" d="M33.2939 98.2912L33.4296 98.4269L33.5653 98.2912L33.701 98.4269L33.5653 98.5626L33.701 98.6982L33.8366 98.5626L33.9723 98.6982V98.6982L34.108 98.9696L34.515 99.1053H34.6507L34.7863 98.8339H34.922V98.6982H35.0577V98.8339L35.1934 98.9696L35.0577 99.2409L35.1934 99.3766V99.5123L35.329 99.7836H35.6004H35.8717V99.9193H36.0074L35.8717 99.7836H36.1431L36.0074 100.055V100.191L36.2787 100.462L36.5501 100.326V100.191L36.6858 100.055V99.9193L36.5501 99.5123L36.4144 99.648L36.2787 99.2409L36.4144 99.1053V98.9696L36.1431 98.8339L36.2787 98.6982L36.1431 98.5626L36.0074 98.4269V98.2912L36.2787 98.1556H36.1431V98.0199H36.2787L36.4144 97.8842L36.8214 97.7485V97.6129L37.0928 97.4772L36.9571 97.2059H37.0928L37.6355 97.3415H37.7711V97.2059H37.9068H38.0425V97.0702H38.4495L38.5852 96.9345H38.7209L39.1279 96.7988L39.2635 96.9345L39.3992 96.7988H39.6706H39.5349L39.6706 96.6632L39.9419 96.5275H40.2132L40.3489 96.6632H40.4846L40.6203 96.5275L40.7559 96.6632H41.0273V96.7988H41.163L41.2986 96.9345L41.4343 96.7988L41.57 96.6632H41.977L42.1127 96.9345H42.2483L42.1127 97.0702L42.384 97.3415L42.6554 97.2059V97.0702H42.791L42.9267 96.7988V96.6632V96.6632L43.198 96.7988H43.0624L43.198 97.0702H43.3337L43.4694 97.2059H43.8764V97.4772L44.1478 97.3415V97.4772H44.5548L44.4191 97.6129L44.5548 97.8842L44.6904 98.0199H44.9618H45.2331L45.3688 98.1556H45.5045V98.2912H45.6402H45.7758V98.2912V98.5626V98.9696L45.9115 99.2409L46.0472 99.5123H46.1828L46.5899 99.648L46.7255 99.5123L46.8612 99.648L46.9969 99.3766L47.1326 99.5123L47.2682 99.3766V99.5123L47.4039 99.3766H47.6752L47.9466 99.2409H48.0823H48.2179H48.3536L48.625 99.1053V99.2409L49.032 99.1053V98.9696L48.8963 98.8339L49.032 98.6982H48.8963L49.032 98.5626H48.8963L49.032 98.4269L48.7606 98.2912H49.032L49.1676 98.4269V98.5626H49.3033L49.5747 98.4269H49.439V98.2912H49.846H49.9817L50.1173 98.4269V98.5626L50.253 98.8339H50.7957H50.9314L51.0671 98.6982V98.5626H50.9314V98.4269L51.2027 98.5626L51.3384 98.4269L51.0671 98.0199L51.2027 97.6129H51.3384H51.4741H51.7454L51.8811 97.4772L51.4741 97.3415H51.6097H51.8811L52.0168 97.4772L52.2881 97.3415V97.3415L52.4238 97.2059H52.2881V97.0702V97.0702H52.5595H52.6951V97.2059V97.3415H52.8308L52.9665 97.4772L53.1021 97.3415H53.3735H53.2378L53.3735 97.2059H53.6448L53.5092 97.0702H53.7805L53.6448 96.9345L53.5092 96.7988L53.2378 96.6632H53.6448L53.7805 96.5275L54.0519 96.6632L53.9162 96.3918L53.7805 96.5275L53.3735 96.2561V96.2561L53.5092 96.1205L53.7805 96.2561V96.1205V96.1205L54.1875 95.9848L54.3232 96.1205L54.4589 95.8491V95.7135H54.3232V95.5778H53.6448L53.5092 95.4421H53.7805L53.3735 95.3064H53.6448L53.5092 95.1708L53.6448 94.8994L53.9162 95.0351V94.8994H53.7805L53.9162 94.7637H53.7805V94.6281H53.6448L53.5092 94.7637L53.3735 94.6281H53.1021H53.2378L53.1021 94.3567H53.3735H53.5092H53.7805V94.2211H53.9162H54.1875L54.0519 94.0854H54.1875V94.0854H54.4589L54.3232 93.814V93.6784H54.1875H54.0519V93.5427H53.9162L53.6448 93.1357H54.0519H54.1875H54.3232L54.4589 93.407V93.5427L54.5945 93.6784H54.8659V93.5427V93.5427H55.1372V93.407H55.4086L55.1372 93.2713H55.2729H55.5443L55.4086 93H55.5443H55.8156L56.0869 93.1357L55.8156 93.2713V93.2713H56.0869V93.407L55.9513 93.5427H56.0869L55.6799 93.6784V93.814L55.8156 93.9497L56.0869 93.814V93.9497V93.9497L56.2226 94.0854H56.0869L56.2226 94.2211L56.0869 94.3567V94.4924H56.2226V94.7637H56.3583V94.8994V95.0351H56.2226L56.3583 95.1708H56.494L56.7653 95.0351V95.0351V94.8994H56.901V95.0351L57.1723 94.8994V94.8994H57.5793V94.8994H57.8507L57.715 94.7637L57.9864 94.6281V94.6281H58.122L58.2577 94.4924H58.3934L58.529 94.6281H58.3934L58.6647 94.8994H58.8004H58.9361L59.2074 94.7637V94.6281L59.7501 94.7637L59.6144 94.8994L59.3431 95.1708H59.4788L59.3431 95.3064L59.0717 95.1708V95.3064L58.8004 95.4421L58.9361 95.5778H59.2074V95.7135H59.0717L59.3431 95.8491H59.0717V96.1205H59.3431H59.4788V96.2561L59.2074 96.3918H59.3431L59.2074 96.5275H59.6144L59.4788 96.6632H59.2074V96.5275L58.9361 96.6632V96.7988L58.8004 96.6632L58.6647 96.7988L58.529 97.0702L58.6647 97.2059L58.8004 97.0702V97.3415H58.6647L58.3934 97.4772H58.2577L58.122 97.6129V97.8842L58.2577 98.0199H58.3934V98.1556L58.529 98.5626H58.9361V98.2912L59.2074 98.4269L59.4788 98.5626V98.4269H59.7501V98.1556L59.8858 98.0199H60.0214L60.1571 98.1556L60.0214 98.2912H60.1571V98.4269L60.4285 98.2912H60.5641V98.2912H60.6998H60.8355V98.1556L61.3782 98.0199V97.8842L61.1068 97.7485H61.2425V97.4772H61.5138V97.7485L61.6495 97.6129L61.7852 97.7485L61.9209 97.6129L61.7852 97.4772L61.9209 97.3415H62.4636L62.7349 98.0199H63.1419L63.2776 97.8842V98.2912L63.956 98.5626L64.0916 98.1556H64.363L64.4986 98.2912L64.6343 98.4269L64.9057 98.1556L65.177 98.2912L65.3127 98.1556L65.177 98.0199L65.3127 97.8842L65.584 97.7485H66.1267L66.3981 98.1556L66.9408 98.0199L67.8905 98.1556L68.0261 98.2912V98.4269L67.7548 98.9696L67.6191 99.1053L67.7548 99.2409L68.0261 99.1053L68.2975 99.2409H68.4331L68.8402 99.1053V99.2409V99.5123L68.9758 99.7836L69.2472 99.9193L69.3829 100.055H69.9255L70.0612 99.7836L69.9255 99.2409L70.0612 99.1053H70.3326H70.7396L70.8753 99.2409L71.1466 98.9696H71.4179L71.6893 99.1053H71.9606L72.232 98.8339L72.3677 98.9696L72.232 99.1053L72.3677 99.5123H72.639L72.9103 99.648L73.1817 99.5123L73.5887 99.3766L73.7244 99.2409L73.8601 98.9696L73.9957 98.8339L74.2671 98.6982L74.4027 98.5626H74.8098V98.1556L74.9454 97.8842H75.2168H75.6238L75.7595 98.0199L75.8951 97.8842L76.0308 97.4772L76.1665 97.3415L76.5735 97.2059V97.0702L76.8448 96.9345L76.7092 96.6632V96.2561L76.8448 95.9848H77.1162L77.2519 95.7135V95.4421L77.3875 95.3064H77.6589L77.9302 95.8491L78.2016 95.9848L78.4729 96.2561V96.6632H78.8799L79.1513 96.5275V96.3918L79.4226 96.2561L79.5583 96.1205V95.8491L79.4226 95.4421V95.4421V95.1708L79.8296 95.0351L80.101 94.8994L80.2367 94.7637L80.508 94.3567H80.915L81.322 94.4924H81.5934V94.6281V94.6281H81.322L81.0507 94.8994L81.322 95.0351L81.1864 95.1708L81.322 95.3064L81.4577 95.4421L81.5934 95.5778L81.8647 95.3064V95.3064H82.0004L82.1361 94.8994L82.2718 95.0351V95.1708L82.5431 95.0351H82.8144H82.9501V95.0351V95.3064H83.0858H83.2215L83.3571 95.0351L83.7642 95.1708V95.1708H84.1712L84.0355 95.3064L83.8998 95.4421L84.0355 95.5778L84.1712 95.4421H84.3068H84.4425V95.5778L84.3068 95.7135L84.4425 95.9848L84.0355 96.5275L83.3571 97.2059L82.6788 97.4772H82.4074L82.1361 97.6129L81.4577 97.4772L81.322 97.3415V97.2059L81.0507 97.0702H80.915L80.6437 97.2059V97.4772L80.3723 97.6129H80.2367H80.101L79.8296 97.7485L79.287 97.8842L79.1513 97.7485H78.8799H78.7443H78.6086L78.4729 97.6129L78.2016 97.7485V98.0199L77.3875 98.5626V98.8339L77.5232 98.9696V99.1053L77.6589 99.2409H77.9302H78.3372L78.6086 99.3766L78.7443 99.5123L79.0156 99.648L78.8799 99.7836V99.9193H78.4729V100.191L77.9302 100.326L77.6589 100.462V100.869L77.5232 101.005L77.2519 100.869V101.14L77.3875 101.412L77.5232 101.683L77.6589 101.547H77.9302L78.4729 101.683L78.7443 102.09L78.2016 102.361L77.7946 102.497L77.9302 102.768H77.6589L76.8448 102.904H76.3022H76.0308H75.7595L75.4881 103.311L74.9454 103.582V103.854L75.2168 103.989L74.9454 104.125H74.8098L74.6741 104.261H74.2671H74.1314V104.532H74.2671L73.9957 104.668H73.5887L73.453 104.939V105.075H73.7244L73.5887 105.211H73.3174V105.211L73.5887 105.482H73.8601L73.9957 105.211V105.211L74.1314 105.075L74.5384 105.211V105.075L75.0811 105.211V105.346H75.2168H75.4881L76.3022 105.075L76.5735 104.939L76.7092 105.075L76.9805 105.211L77.2519 105.346V105.211H77.5232L77.6589 105.346H77.7946L77.9302 105.211H78.0659H78.2016H78.4729L78.6086 105.075L78.7443 105.211H78.8799L79.4226 105.482L79.694 105.618L80.508 105.753L80.6437 105.618L81.0507 105.211V105.075L81.1864 104.804V104.939H81.4577L81.7291 104.804L82.0004 104.939L82.6788 105.075H82.9501L83.2215 104.939L83.3571 104.804L83.7642 104.668H83.8998H84.0355H84.3068H84.5782L84.7139 104.396H84.9852L85.1209 104.125V103.989L85.3922 103.854V103.718V103.582H85.1209L85.2566 103.311L85.5279 103.447L85.6636 103.582V103.447V103.447L85.7992 103.311H85.9349L85.7992 103.447L85.9349 103.718L86.3419 103.854L86.4776 103.718H86.8846H87.156L87.2916 103.989L87.563 104.261L88.2413 104.668L88.6484 104.804H89.0554H89.5981H90.0051L90.4121 104.939L91.0905 104.804H91.4975L91.6332 104.668V104.396L91.9045 104.261L92.3115 104.125H92.4472H92.7185L92.8542 104.261L92.7185 104.396L92.5829 104.532L92.8542 104.804H92.7185V104.939L92.5829 105.075L92.4472 105.346H92.5829V105.346L92.7185 105.482H92.9899L92.7185 105.753V105.753L93.2612 106.296L93.5326 106.432H93.3969L93.5326 106.567L93.6683 106.703L94.0753 106.839L94.2109 106.974H94.0753L93.9396 107.246L94.0753 107.381V107.517L94.3466 107.788V108.06L94.2109 108.331L94.3466 108.738L94.2109 108.874H94.0753L93.9396 109.009V109.281L94.2109 109.416L94.3466 109.281H94.4823L94.618 109.145H94.8893L95.025 108.602L95.2963 108.467V108.331V108.195H95.1607H95.025L94.8893 108.06H95.025H95.2963L95.5677 107.924L95.7033 107.517V107.246L95.839 107.11V106.974L95.5677 106.839H95.432L95.9747 106.567L96.1104 106.432L96.246 106.296L95.9747 105.753L96.1104 105.346L95.9747 105.075H96.1104L96.246 104.668L96.3817 104.532L96.246 104.125H96.3817V103.989H96.653L96.5174 104.125V104.261H96.653L96.7887 104.125L96.9244 104.261L97.0601 104.125V104.261L97.1957 104.532L97.4671 104.668L97.6028 104.804V104.668L97.7384 104.804H97.6028V105.211L97.7384 105.482L98.0098 105.618L98.1454 105.346H98.4168V105.482V105.618V105.753L98.5525 105.889L98.9595 106.025V106.025L99.2308 105.889V105.753V105.753H99.6378L99.7735 105.618L99.6378 105.482L99.9092 105.346L99.7735 105.075L99.6378 104.939L99.5022 105.075V104.939V104.804L99.2308 104.668V104.668L99.5022 104.532L99.6378 104.668L99.7735 104.532L99.9092 104.125V104.125L100.045 103.854L100.181 103.04V102.904L100.045 102.768H99.9092V102.633L100.181 102.497V102.633H100.316V102.768H100.452V102.633L100.723 102.361L100.995 102.497V102.633V102.768L101.266 102.633H101.402H101.673V102.633H101.809H101.944L101.809 102.768L102.08 102.904L102.216 102.768V102.904L102.487 102.768V102.633H102.623H102.758L102.894 102.497V102.497L103.301 102.361L103.437 102.226L103.572 102.497V102.768L103.708 102.633L103.979 102.768V103.04L104.115 103.175L103.844 103.311H103.572L103.708 103.447H103.165V103.582H103.03L102.623 103.718L102.487 103.854H102.758L102.623 104.125L103.03 104.261H103.572L103.979 104.396L103.708 104.532H103.572L103.165 104.668H102.894V104.668L102.487 104.532H101.944L101.809 104.668V104.804L102.08 104.939V105.075L101.809 105.211L101.673 105.346L101.402 105.482L101.537 105.753H101.673H101.944L102.08 105.618H102.351L102.623 105.753L102.894 105.889L103.165 105.753H103.301L103.437 105.618V105.346L103.301 105.211H103.572H103.708H103.844L104.251 105.346L104.115 105.482V105.618L103.844 105.753L103.708 105.618L103.165 105.889L103.301 106.16H103.437L103.844 106.025L103.979 105.889L103.844 105.753L104.386 105.482H104.522L104.658 105.753H105.065L105.336 105.618L105.472 105.753L105.607 105.482L105.879 105.618V105.753L105.607 105.889L105.065 106.16L104.658 106.296V106.432L104.793 106.567L104.658 106.703L104.793 106.839L104.522 106.974H104.251H104.115L103.301 107.381H102.894L102.758 107.517H102.623L102.351 107.788L102.08 108.331V108.738L101.809 109.009L101.944 109.416V109.552L102.08 109.823L102.216 109.959V110.095L102.351 110.23L102.08 110.773L102.216 111.18V111.451L102.487 111.994L102.758 112.401H102.894L102.623 112.537H102.351L101.944 112.401L101.809 112.537L101.673 112.401L101.537 112.537V112.673L101.402 112.944V113.08L101.673 113.622V113.894L101.537 114.436V114.572H101.673V114.843H101.809L101.944 114.979L102.08 114.843V114.708L102.216 114.436H102.487L102.623 114.301L102.894 113.894L103.165 113.758L103.572 113.894L103.708 114.029V114.301H103.844V114.301V114.436L103.708 114.572L103.979 114.708L104.251 114.301L104.658 114.029H104.793L104.929 114.165L105.065 114.301H105.336L105.472 114.165L105.607 114.301L105.743 114.165L105.607 114.029L105.336 113.487V113.215V113.08H104.929L104.793 113.215L104.522 112.673L104.658 112.13L104.929 112.266L105.336 112.13L105.607 111.858L105.743 111.587L105.607 111.316L106.15 111.044V110.773L106.286 110.637L106.421 109.959L106.693 109.688V109.552L107.1 109.009L107.236 108.602L107.507 108.467L107.643 108.331L108.05 108.195V108.06L108.321 107.788L108.457 107.246H108.592H108.728L108.999 107.11H109.135L109.406 107.246L109.678 107.381V107.381H109.949H110.085L109.949 107.246H110.356V106.974L110.22 106.703H110.085V106.567L110.356 106.296L110.627 106.16L111.17 105.889L111.441 106.16L111.713 105.753V105.889L112.12 105.753H112.662L113.069 105.889L112.934 106.16L113.205 106.296V106.567H112.798V106.974L112.934 107.517L113.341 107.653L113.612 107.246V106.839H114.019V106.296L113.748 106.16L114.019 105.889L113.748 105.753L114.29 105.618L114.426 105.211L114.155 105.075L114.562 104.804H114.698V104.668H114.562L114.426 104.396V104.396H114.698L114.969 104.261V104.125L115.105 103.989L115.512 104.396L115.376 105.075L115.647 105.346L115.919 105.211V104.804L116.326 104.396L116.597 104.939L116.733 105.075L116.461 105.346L117.004 105.618L116.461 105.753L116.597 106.025L115.919 106.296L115.783 106.16H115.647L115.512 106.296L116.19 106.839L116.054 107.11L116.733 107.517L116.326 107.788L116.461 108.331L116.054 108.602L116.19 109.009L116.054 109.145H115.647L115.105 109.416L114.833 109.823L114.29 109.959L113.883 110.366H113.476L113.069 110.637L112.798 111.18L112.391 111.316V111.587L112.255 111.723L111.577 112.13L111.441 112.537L111.17 112.944L111.034 113.08L110.899 113.215V113.758L110.763 113.894L110.492 114.572V114.843L110.356 114.979V115.25L110.22 115.386L110.356 115.657L110.627 115.522V115.522H110.899H111.17L111.306 115.657H111.441L111.713 115.115H111.984H112.255L112.662 114.843L113.069 113.758H113.341L114.29 114.301L114.562 113.894L114.019 113.215L114.833 112.266H115.512L116.19 111.858L116.597 111.451L117.547 111.044H117.954L118.089 110.637L118.496 110.23L119.039 109.823L119.175 109.416L118.903 109.009H119.31L119.175 108.738L119.446 108.602L119.175 108.195L119.717 108.331L120.26 108.467L120.667 108.195L120.938 107.517H122.024L121.888 107.788H122.295L122.431 107.517L122.702 107.11H122.838L122.974 107.653H123.516L123.652 107.924V108.467H123.788L124.059 108.195H124.602V108.602L124.737 108.738L124.873 109.145H125.144L125.416 108.602L125.687 108.331H126.501V108.195L126.772 108.331L126.637 108.602L127.044 108.738L127.315 109.009L127.858 109.145L128.807 109.281L129.35 109.145V109.281L129.893 109.688L129.35 110.23L129.757 111.044L130.029 111.18L129.893 111.316L130.3 111.451L130.029 111.723L129.621 112.537L129.757 112.944L129.486 113.215L129.079 113.622L128.943 114.029L128.536 114.436L128.672 114.708L129.214 115.386V116.336L129.35 116.878V117.15L129.486 117.421L129.893 117.557L130.3 117.692H130.843L131.792 117.15V116.878L131.928 116.607V116.2L132.064 115.522V115.115V114.843V114.572L132.199 114.301V113.894L131.792 113.487L131.657 113.215L131.928 113.08L131.792 112.673V112.401H132.064V112.13L132.335 111.587L132.471 111.451L132.742 111.858H132.878V111.587H133.285L133.692 111.451L133.963 111.587V111.044L134.37 111.18L134.506 111.451L134.641 111.18H134.913V111.723H135.184L135.455 111.994L135.727 111.858L135.591 111.587L135.727 111.451V111.18L136.405 110.909L136.676 111.18V111.723V111.858L137.219 111.723L137.898 112.13L138.169 111.723L138.44 111.994L138.847 111.858L138.983 112.537L139.39 112.808H139.797H140.068L140.34 112.537L140.475 112.673H141.154L141.018 112.13H141.425L141.832 112.537L141.018 113.758L141.425 113.894L141.832 113.758L141.968 113.351L142.646 113.215L143.053 113.758L143.46 113.622V113.215L143.596 113.08L144.003 113.622L144.274 113.894L144.545 114.029L144.817 114.436L143.867 114.843V114.979L143.596 114.843H143.324L143.189 115.115L143.46 115.25V115.522V115.657L143.324 115.793L143.189 115.929L143.46 116.2L143.324 116.471L142.375 116.607L142.239 116.471H141.968L141.561 116.336L141.154 115.929L141.018 115.657L140.204 115.25H139.933L139.797 115.386L139.661 115.522L139.933 115.793V116.471H140.204V116.607L139.933 116.878L140.34 117.285L140.204 117.421L138.305 117.692L138.169 117.964L137.898 118.235V118.642L138.033 118.778L138.305 118.913L138.712 119.049H139.661L140.611 119.32L141.018 119.049L141.154 119.32H141.968L142.51 119.592V119.592H142.103L141.968 119.728L141.289 119.999H140.611L140.068 120.406L139.526 120.542L139.39 120.406H139.119L138.847 120.542H138.44L138.169 120.677V120.813L138.305 121.084H138.169L138.033 121.22L138.169 121.627V121.763L138.305 122.034L138.44 122.305H138.576H138.847L138.983 122.17L139.119 122.034H139.254H139.39L139.254 122.17L139.526 122.305L139.661 122.17L139.933 122.305H140.204L140.475 122.441V122.712L140.611 122.848L140.882 122.984H141.289H141.696L142.782 122.17L142.917 121.898L143.324 121.627H143.867V121.356V120.813H144.41L144.817 120.949H145.088L145.767 120.677L145.902 120.542H146.309L146.581 119.999L146.988 119.863V119.456H147.395L147.666 119.592L148.073 119.728H148.616L148.751 119.456L149.43 119.592L149.837 119.049H150.786L151.058 119.456L151.6 119.999L150.922 120.406L151.193 120.677L151.736 120.542L152.279 121.084H152.686L152.55 121.356L152.822 121.898H153.093H154.721V121.491H155.535L155.671 122.441L155.264 122.577V122.848H155.671L155.942 123.391V123.933H155.671L155.399 123.662H154.857L154.585 123.526H154.043L152.822 122.712L152.686 122.441H152.143V122.712H151.736V122.984L151.872 123.119V123.391L151.465 123.933L150.379 123.798L150.244 123.526L149.023 122.712L148.48 122.848L148.344 123.119V123.391L148.209 123.662L148.073 123.391V123.119L147.937 122.712L147.666 122.577L147.259 123.119L147.395 123.391L147.802 123.526V123.933L147.53 124.069L147.666 124.34H147.937L148.344 124.747L148.209 125.426L147.937 125.968H147.666L147.395 126.511L146.716 126.647L146.581 126.511L146.445 126.24H146.174H146.038L145.767 126.511V127.054L145.902 127.597L145.36 128.682L144.41 129.36L144.274 129.632L143.867 129.36H143.596L143.324 129.632L143.46 130.039L143.053 129.767H142.917H142.646L142.239 129.632L141.696 129.496L140.882 129.089L140.747 128.953L140.068 129.089L139.254 128.818L138.576 128.682L138.033 128.139L136.676 127.868H135.727L135.591 127.461H135.32L135.184 127.325H134.913L133.692 127.054L133.42 127.325H133.285L132.742 127.461L132.471 127.597L132.335 127.868V128.682V129.089L132.878 129.632L133.149 129.767H133.692L133.963 129.903L134.234 130.039L134.641 129.903H135.048H135.32H135.862L135.998 130.039L135.862 130.174H136.134L136.405 130.039H136.541L136.269 130.581L136.405 130.853V130.988L136.676 131.124L136.812 131.667L137.219 131.531V130.988L138.712 131.124L139.39 131.531L140.068 131.667L140.475 132.481L140.882 132.752H141.154L141.289 133.023L142.646 133.837L142.782 133.973V134.109L142.51 134.244L142.239 134.38L141.696 134.651L140.882 135.33L140.747 135.737L140.611 136.008V136.415L140.475 136.551H140.204V136.687V136.822L140.068 136.958L139.933 136.822H139.797L139.526 137.094H139.39L139.119 137.229V137.365L138.983 137.772V138.179L139.254 138.315H139.797H140.204L140.611 138.179L141.018 137.908L141.154 137.636V137.365L141.561 136.822L141.832 136.415L141.968 136.28V136.008L142.646 135.873L143.324 135.466L143.867 134.787V134.651L144.138 134.516H144.274H144.545V135.059L144.41 135.466L144.681 135.737L145.088 135.873L145.36 135.737H146.038V135.601V135.33L146.174 135.194L146.309 135.059L146.445 134.787V134.651V134.38V134.38L146.581 133.973H147.53L147.666 133.837L148.073 133.566L148.48 132.752L149.023 132.209V132.074L149.294 131.938H149.43V131.802L150.108 131.531H150.244L150.379 131.667L150.515 131.531L150.651 131.395L150.786 130.988L150.922 130.853L151.193 130.581L151.736 130.31V130.174L152.007 130.039L152.55 130.174L152.686 130.039V129.903L152.822 129.767H152.957H153.093H153.229L153.093 129.632L153.229 129.496L153.364 129.632L153.5 129.496L153.771 129.632V129.632L153.907 129.496L154.043 129.632H154.178L154.043 129.36L154.314 129.496L154.45 129.767H154.314V129.903L154.178 129.767L153.907 129.903V130.174H154.043V130.446V130.446L153.907 130.581V130.853H154.043V130.988L154.178 131.26L154.45 131.395H154.857L155.128 131.26V131.124L154.992 130.988V130.853V130.717L155.128 130.581V130.581H155.264V130.446L155.128 130.31L154.992 130.446L155.264 130.174H155.535L155.671 129.903V129.632L155.942 129.496H156.213L156.756 130.31H157.027H157.163V130.581V130.446H157.299H157.434L157.57 130.717L157.706 131.26H157.57L157.434 131.531V131.938L157.163 132.209V132.616L157.434 132.752V133.023L157.299 134.109L157.027 134.787L156.892 135.194L156.349 135.466V135.466L156.078 135.737L155.806 135.601L155.399 135.737V135.601H155.535L155.399 135.33L155.128 135.194L154.857 135.059L154.585 135.194L154.45 135.466V135.737L154.721 135.873L154.857 136.008L155.128 136.415L155.399 136.551L155.535 136.822L155.671 136.958L155.806 137.094L155.671 137.501V137.636L155.535 137.772V137.908L155.942 138.315L156.078 138.586L156.485 138.722H156.756L156.892 138.857H156.62H156.485L156.078 138.993L155.535 139.536V140.35L155.399 140.757L155.671 141.028L155.942 142.385L155.806 142.656V143.606L154.992 145.098L154.857 145.777L154.585 145.912L154.314 145.641H153.771L153.364 145.505L153.229 145.641L153.364 145.777L154.178 146.319L154.45 146.726H155.128L155.806 146.998H156.078L156.485 146.591L156.756 145.641L157.163 144.827L157.706 144.149L157.434 143.47H157.841L158.384 142.113L158.655 141.435L159.469 141.028V140.35V140.078H159.741L160.012 140.214L160.826 140.485L160.962 140.621L161.098 141.164L161.64 142.52L161.912 142.656L163.404 144.963L164.082 146.184L163.811 146.998L164.354 147.269L165.439 147.133L165.846 147.405L166.253 147.54L166.66 148.083L167.474 148.219L167.881 147.133V146.048L168.695 145.505L168.831 145.234V144.963V144.827L168.424 144.42V144.284L168.017 143.877L167.474 143.47V143.063L167.067 142.385V142.113L166.931 141.842L167.067 141.435V141.299L166.796 141.164L166.253 140.621V140.485L166.389 140.078L166.253 139.943L166.66 139.807L166.796 139.536L166.524 139.4H166.389L166.117 139.264V138.993L165.575 138.857L165.168 138.722V138.586L165.032 138.45H165.168L165.032 138.315H165.168L165.439 138.179V138.043L165.032 137.772V137.501L164.625 136.822L163.811 136.008L163.54 135.601L163.268 135.33L163.133 134.923L162.997 134.38L163.133 134.109V133.702L163.675 133.43L163.811 133.023L163.675 132.752L163.268 132.345L162.997 131.395L163.268 131.124V130.853V130.581V130.31H163.675L163.947 130.446V130.853H164.218L163.947 131.26L164.625 131.802L165.032 131.938L166.117 132.888L166.796 133.023H167.203L167.474 132.481L167.881 132.209L168.56 132.481L168.831 132.752L168.967 133.023L168.695 133.295L168.831 133.43H168.56V133.566H168.424L168.831 133.973L168.967 134.109H169.238H169.916L170.188 134.38L170.323 134.244L170.188 134.109V133.837L170.459 133.566V133.295L170.595 133.159L170.73 133.43L171.137 133.295L171.409 133.43L171.68 133.702L171.816 133.837L171.68 133.973H171.544H171.409V134.244L171.544 134.38L171.68 134.651H171.409V134.787H171.544L171.68 134.923H171.544H171.273V134.923L171.137 135.059L171.273 135.194L171.68 135.33V135.059L171.816 134.923H172.087L172.494 135.466V135.466L172.087 135.33H171.951L171.816 135.601H171.544L171.409 135.737L171.273 136.008V136.28L171.002 136.687L170.595 137.094L170.73 137.365L171.002 137.501L171.273 137.908H171.409H171.951L172.223 138.043L172.494 137.772V137.501L172.358 137.229L172.494 136.958H172.63L172.765 136.822L172.63 136.415H172.765L173.172 136.551L173.308 136.822L173.444 137.094L173.715 136.958H173.986L174.122 136.822L174.258 136.687L174.529 136.415L174.393 136.28L174.665 136.008H174.936L175.207 136.144L175.343 136.415V136.551H175.479L175.615 136.415L175.75 136.551V136.687H175.343H174.8L174.393 136.958L174.665 138.179V138.722L174.393 138.993L174.529 139.536L175.072 139.943L174.936 140.757H174.8V140.892L174.529 141.164V141.299H174.665L175.072 141.164L175.479 141.299L175.886 140.892H176.293L176.429 141.299L176.022 141.978L176.157 142.385V142.52L176.022 142.385L175.75 142.113V142.52V142.656H175.207H175.072H174.936L174.8 142.385H174.665L174.393 142.792L173.851 143.199V143.335L174.122 143.47H174.258L174.529 143.335L174.8 143.47L175.207 142.928L175.343 143.335L176.022 143.47V143.742L175.75 144.013V145.098L176.564 144.42H177.107L177.921 144.149L178.192 144.556H179.006L178.599 144.963L177.921 145.234L177.107 146.319L176.971 146.862L176.564 147.405L175.479 147.676L174.8 148.49L174.936 149.033L175.207 149.168L175.479 149.033L175.207 149.304H175.072L174.258 150.254V150.661L174.529 150.932L174.8 150.797L175.207 150.661L175.479 150.525H175.886H176.293V150.39L176.7 150.254V150.118L177.921 149.982L178.192 149.575L178.328 149.44L178.464 149.304L178.599 149.44L178.871 149.304L179.006 149.575V149.847L179.549 149.982L179.956 149.847L180.092 149.982H180.499L180.634 150.254L180.906 149.982H181.177V149.847L181.448 149.575L181.855 149.304L182.669 148.49V148.354H182.941L183.076 148.49L182.941 148.626L182.669 148.761V149.033L182.127 149.982H181.855V150.254L181.991 150.39L181.584 150.525L181.448 150.39L180.906 150.525V150.797H181.041L180.906 150.932H180.77H180.634V151.204L181.041 152.289L181.584 152.967L182.262 153.51L181.991 154.188L181.72 154.46H181.448L181.584 154.867L181.177 155.545H181.041L181.177 155.816L181.041 156.223H180.906L181.041 156.359L180.906 156.495L181.041 156.63V156.63L180.634 156.495L180.499 156.766V157.173L180.77 157.716L181.177 158.53L181.72 159.344L182.127 159.751H183.212L183.348 160.022V160.429L183.619 160.565L183.891 160.701H184.162L184.705 160.429L184.569 160.158L185.112 160.429L185.519 160.701V160.836L186.061 160.972L186.197 161.243H186.333H186.468H186.604V161.108V160.972V160.701V160.565L187.147 160.429L187.825 160.836H188.096H188.368L188.503 161.108V161.515L188.91 161.379L189.453 161.243L189.724 161.65V161.786V162.329H189.996L190.403 161.922L190.538 162.057L190.403 161.786L190.538 161.65V161.922L190.674 161.786L190.81 161.922V161.922H191.081L191.217 162.057V162.057L191.081 161.786L191.217 161.65L191.353 161.379L191.488 161.515L191.624 161.65L191.76 161.786L191.895 162.329L191.76 162.464H191.488V162.6L191.624 162.736L191.76 163.007H191.895V163.55L191.488 163.821L191.624 163.957L191.76 164.092H191.895V164.228V164.228L192.167 164.771L192.302 164.906L192.167 165.042L192.438 165.178H192.574V165.313L192.709 165.585L192.574 165.721L192.709 165.992H192.981L193.116 165.856L193.252 165.585L193.659 165.721V165.856L193.523 165.992L193.795 166.399L194.066 166.67L194.337 166.399H194.744L194.88 166.67L195.016 166.806V167.077L194.88 167.349H194.744L194.609 167.213L194.202 167.349V167.484L194.066 167.62L193.93 167.484L193.523 167.349V167.349L193.388 167.213H193.252V167.484L193.388 167.62L193.252 167.756L193.116 167.62L192.981 167.891L192.574 168.027V168.163L192.302 168.298L192.438 168.57L192.302 168.705H191.895L191.76 168.57H191.217H190.538H189.996L189.182 168.298H189.046V168.705L188.91 168.57L188.775 168.705L188.639 169.112L188.91 169.384V169.791L189.046 169.926V170.062L189.182 170.333V171.012L188.368 171.419H187.961L187.825 171.69L187.554 172.233L187.418 172.368L187.282 172.504L186.74 172.911V173.047L186.333 172.911H186.197L185.79 172.775L185.654 173.183L185.926 173.59L186.197 173.725L186.061 173.861L185.926 174.268L185.654 174.946L185.519 175.353V175.489H185.654L185.926 175.625L186.197 176.167L186.061 176.574V176.981L186.197 177.117L186.061 177.524H186.333L186.468 177.66L186.875 178.202L187.147 178.338L187.554 178.067L187.689 177.931L187.825 177.795V177.117L187.961 176.574L188.368 176.439L189.453 176.032L190.267 175.896L190.81 175.625H190.945L191.353 175.76L191.488 175.896H191.76H192.167H192.574H193.116L193.523 175.76L193.659 175.625V175.353V175.082L193.93 175.218L194.066 175.353L194.202 175.218L194.744 175.896L195.965 176.574L196.101 176.846V177.117H195.965L195.83 176.981L195.694 177.117L195.558 177.66V178.609V178.881H195.965L196.101 179.016L196.237 179.423L196.372 179.559L196.508 179.423L196.644 179.288L196.779 179.016L196.644 178.338L196.779 178.202V177.931V177.66L196.915 177.253V176.981L196.644 176.846H197.051H197.322L197.593 176.574L197.865 176.439L198.543 176.167H198.95H199.086V175.896L199.222 175.76H199.357L199.493 175.489L199.764 175.353L200.036 175.082V175.082L200.443 174.946L200.578 175.082L200.714 174.946L200.85 174.811L200.714 174.675L200.85 174.539L200.985 174.811H201.121L200.985 174.675H201.257L201.664 174.132L201.799 173.997V173.861L201.935 173.997V173.861V173.59L202.071 173.861L203.02 173.318L202.885 172.504L203.156 172.233L203.292 172.368L203.563 172.504H203.699L203.97 172.368V172.233H204.106H204.241L204.377 172.368L204.241 172.911L204.513 173.047L204.377 173.318L204.648 173.59L204.784 173.861L204.513 173.997V174.132H204.241L203.97 174.404L203.834 174.268V174.268V174.539L203.563 174.404V174.539L203.292 174.811L203.563 175.082L203.292 175.218V175.76L203.156 176.032H203.02V176.167L202.885 176.303L203.02 176.574L203.156 176.439V176.71L203.02 176.846V177.388L203.156 177.795V178.067L203.292 178.338V178.609H203.02L202.885 178.474L202.613 178.609L202.342 178.202H202.206H202.071V178.338L202.206 178.609L202.071 178.745L201.799 178.609V178.745L202.071 179.423L202.206 179.695V180.102L201.799 180.373V180.78L201.528 180.916L201.257 181.323V181.594L201.392 181.73L201.664 181.866L201.799 182.137L201.528 182.273L201.392 182.68L200.578 182.408H200.443L200.307 182.544L200.036 182.951L199.9 183.222V183.494L199.764 183.765L199.493 183.901L199.357 183.629L199.086 183.494V183.358V183.222L198.95 183.087L198.679 182.951H198.543V183.087V183.222V183.358L198.679 183.629V184.036L198.815 184.308L199.086 184.443L199.222 184.579L199.493 184.443L199.629 184.579H199.9L200.036 184.715L200.578 185.122V185.393L200.85 185.664V185.8L201.121 185.936L200.985 186.207L201.528 186.614L201.664 187.021L201.528 187.157L201.392 187.564L201.664 188.378L201.935 188.514V188.921L201.664 189.328L201.528 189.599L201.664 189.735V190.006L201.528 189.87L201.392 190.006L201.528 190.277L201.935 190.413V190.549H202.071V190.684L202.206 191.091L202.071 191.227V191.227L202.206 191.77L202.071 191.905L202.206 192.448L202.342 192.584V192.991H202.478L202.342 193.262V193.262V193.398L202.613 193.533H202.478L202.613 193.669L202.478 193.805L202.206 193.669V193.669V193.94L202.071 193.805L202.206 194.076L201.935 193.94L201.799 193.669L201.664 193.805L201.528 193.669H201.392L201.257 193.533L201.121 193.398L200.714 193.262L200.036 193.669H199.764H199.629L199.357 193.805L199.086 193.669L198.815 193.533L198.679 193.669L198.272 193.533L198 193.262H197.865L197.593 193.398H197.322L197.186 193.533L197.322 193.669L197.458 193.94L197.865 194.347L198.272 194.754L198.679 195.026H198.95H199.222L199.357 194.89H199.493V194.89L199.764 195.026H200.036L200.171 195.161L200.714 195.297L200.985 195.704L201.257 195.976H201.392L201.664 196.111L201.799 196.247L201.528 196.383V196.518V196.79L201.392 196.518L201.257 196.383L200.985 196.518L200.443 196.654H200.171V196.925H199.9L199.764 196.79L199.493 196.925H199.357L199.086 197.197V197.604V197.739V197.875H198.815H198.679H198.543H198.272L198.407 198.146V198.282L198.543 198.418L198.679 198.689L198.815 198.825H198.95L199.357 198.96L199.629 199.096L199.764 199.232L200.307 199.367L200.85 199.503L201.257 199.367H201.392L201.664 199.232L201.799 198.825L202.206 198.553L202.478 198.282L202.749 198.146H203.02H203.156L203.427 198.011L203.563 198.146V198.282H203.699L203.563 198.146H203.834V198.146L204.106 198.282L204.377 198.146L204.513 198.282L204.648 198.146L204.784 198.553L205.055 198.689L205.191 199.096H205.327V198.825L205.598 198.553H206.141L206.548 199.367L207.226 199.91V200.995L207.362 201.267L207.226 201.538L207.498 201.674L207.769 201.809L208.04 201.538L208.176 201.402L208.04 201.267L208.176 201.131L208.312 201.267V200.995L208.447 201.131L208.312 200.86L208.447 201.131H208.719V200.995L208.854 201.131V200.995L208.99 201.131L208.854 201.402L208.719 201.674L208.854 202.081H208.719L208.583 202.352L208.719 202.623L208.854 202.488V202.623L209.126 202.895L209.397 202.759H209.533V202.488V202.488L209.668 202.623V202.895H209.804L209.94 203.03L210.347 202.895L210.482 202.759V202.623H210.347L210.482 202.488H210.618V202.216L210.889 202.081L211.296 202.488V202.623L211.432 202.488L211.703 202.895L211.975 202.759L212.11 202.488L212.246 202.759V202.488H212.517V202.759V203.437V203.573H212.246L212.382 203.709V203.709H212.246L212.11 203.845H211.975H211.568L211.703 203.98V204.116L211.568 203.98V204.116L211.703 204.252V204.387L211.839 204.252V204.387L212.11 204.523L212.246 204.659V204.659L212.382 204.794H212.11L211.975 204.659V204.659L212.11 204.93L211.975 204.794L212.11 204.93V205.066L211.839 204.794L211.975 205.201L211.703 204.93L211.839 205.201L211.975 205.608L211.839 205.744L211.703 205.608H211.432L211.296 205.473L211.025 205.608V205.473L210.889 205.337L210.754 205.608H210.618L210.482 205.473H210.347L210.211 205.608L210.347 205.744H210.482V206.015H210.347V206.287V206.558L210.754 206.694V206.829V206.965V207.236V207.101L210.482 207.236L210.618 207.372L210.482 207.508H210.347V207.643H210.211V207.508V207.372H209.94V207.372L209.668 207.643V207.779L209.397 207.643L209.261 207.779V207.643L209.126 207.779L208.99 207.643L208.719 208.05V207.915V208.05H208.583L208.312 207.915L208.176 208.05V207.915L208.04 207.779L207.905 207.915V208.186L207.633 208.05L207.498 208.186H207.226V207.915L206.955 208.05H206.819L206.684 207.915H206.548V207.779V207.643V207.508L206.412 207.372V207.508L206.141 207.372V207.508H206.005V207.236L205.869 207.372H205.734V207.236L205.869 207.101L206.005 206.965L205.598 206.694L205.327 206.829V206.965V207.101V207.372V207.643L205.055 207.779L205.191 208.05L204.92 208.186V208.457V208.457L204.648 208.322L204.513 208.05V207.779H204.377L204.513 207.372V207.236L204.377 207.101L204.106 206.965L203.699 207.101L203.156 207.236V207.508V207.643L202.885 207.779L202.749 207.915L202.885 208.05L202.749 208.186V208.322H202.613L202.749 208.457L202.613 208.593V208.864L202.749 209H203.02L203.292 209.271L203.02 209.678H202.478H202.613L202.478 209.814L202.613 209.95V210.085L202.342 209.95L202.206 210.085L202.071 209.95L201.664 210.085H201.528H201.121L200.578 209.95V209.814L200.307 209.543L199.9 209.678L199.764 209.543L199.357 209.678L199.222 209.814L198.95 209.95L198.815 210.221L198.543 210.085L198.272 210.221L198 209.95H197.865L197.186 209.814H196.779H196.101L195.965 209.543L195.694 209.271H195.423L195.016 209L194.744 208.864L194.473 208.729L194.202 208.322H193.795L193.523 207.915L193.116 207.508L192.438 207.101V207.101H192.709L193.252 206.694L193.388 206.422L193.116 206.287L192.981 206.151L192.845 206.287V206.422L192.709 206.558H192.438L192.167 206.694L192.031 206.829L191.624 206.694L191.081 206.422L190.403 206.015H190.131H189.996H189.86L189.453 205.88L188.91 205.473L188.775 205.066L188.368 204.794H188.096L187.418 204.116L187.011 203.98L186.74 203.573V203.437L186.333 202.759L186.061 202.623V202.488H185.926L185.79 202.759L185.654 202.895H185.247L185.112 203.03L185.247 203.302L185.383 203.573L185.926 204.116L186.197 204.523L186.468 204.794L186.604 204.93L186.333 205.473V205.473H186.061H185.926H185.79H185.247L185.112 205.744L185.383 205.88L185.519 206.015H185.79L186.061 206.151L186.468 206.015L186.333 205.88H186.604L186.875 206.015L187.418 205.88L187.961 206.015L188.368 206.287L188.775 206.694V207.101L189.046 207.236L189.453 207.508L190.403 207.643L190.945 208.05V208.322L191.353 208.457L191.217 208.593H191.488L191.895 208.729V209L192.167 209.407L192.709 209.678L192.574 209.95L192.031 210.221L190.267 209.95L189.724 209.543H189.453L189.182 209.271H189.046V209.407L189.724 209.95L189.996 210.085V210.357L190.131 210.628V210.899H190.267L190.403 210.764H190.674H190.81V210.764L191.353 210.899V211.035H191.488V211.171H191.76V211.171H192.031L192.167 211.035H192.302L192.981 210.764H193.252L193.388 210.899L193.93 211.035L194.202 211.171V211.306L194.337 211.442L194.609 211.306H194.744H195.016L195.287 211.442L195.423 211.306L195.83 211.442L195.965 211.578L195.558 211.849H195.151L195.016 212.256L195.151 212.392V212.256L195.287 212.392L195.151 212.663L194.88 213.07L194.609 213.206L194.066 213.613L193.93 213.477L193.388 213.613L193.252 213.477L192.981 213.206L192.709 212.935H192.438H192.167L192.574 213.07L192.845 213.206L193.116 213.613L193.252 213.884L193.388 214.02H193.659H194.066H194.337L195.016 213.613L195.151 213.342V213.206L195.287 212.935L195.83 212.663H196.237H196.779L197.186 212.799L197.322 212.935L197.458 212.799V212.663L197.729 212.528L198.815 213.206L199.086 213.613L198.815 214.02V214.156L199.357 214.291L199.764 214.427L200.578 214.698V214.97V215.241L200.443 215.377L200.307 215.512L200.443 215.648L200.714 215.919L200.307 216.462H199.764H199.222L198.272 215.919H197.865L196.915 215.241L196.237 214.97L196.915 215.648L197.322 215.919L197.593 216.462L198.543 217.276V217.547H198.407L198.136 217.683L198.272 217.819L198 218.226L197.593 218.361L197.458 218.497V218.633H197.593H197.458L197.593 218.904V218.904H197.322V219.176V219.176V219.447L197.186 219.718L197.051 219.583V219.718L196.644 219.447L196.508 219.176H196.372H196.237L196.372 219.04H196.237L196.101 218.768V218.497L195.965 218.226H195.83H195.558L195.151 218.09L195.558 217.412L195.423 216.733L195.287 216.326L194.609 216.055L194.473 215.784H194.066L193.795 215.648H193.659L193.388 215.377L193.116 215.241L193.252 215.648L193.388 215.784L193.523 215.919L193.795 216.055V216.191H193.93L194.066 216.326H194.202H194.473L194.609 216.462L194.744 216.598L195.016 216.733L194.88 217.005V217.547L194.744 217.683H194.609L194.473 218.09L194.609 218.361V218.361L194.744 218.633V218.633V218.904H194.609V219.04L194.744 219.176L194.609 219.311H194.473L194.609 219.447H194.337H194.473L194.609 219.718H194.473L194.337 219.583H194.202L194.066 219.176H193.93H193.795V219.447H193.659L193.388 219.718H193.116V219.583V219.447L192.981 219.718V219.718L192.845 219.447V219.311L192.709 218.904L192.981 218.633H193.116L193.252 218.497V218.09V217.819L192.981 217.683V217.547L192.574 217.14V216.733L192.302 216.191H192.167L192.031 216.326L192.167 216.462V216.869L192.031 217.14H191.76V217.276L191.624 217.14L191.217 217.547V217.683L191.488 217.819V217.954L191.624 218.226L191.76 218.361H192.167L192.302 218.497L192.167 218.633H191.895L191.76 218.904V219.04L191.624 219.311H191.488L191.353 219.583H191.217V219.718H190.945V219.718L191.081 219.854L190.945 219.99H190.81H190.538V219.99H190.403V220.125L190.131 220.261H189.996L189.724 219.854V219.583H189.589V219.311L189.724 219.04L189.589 218.768L189.317 218.497H189.182L189.317 218.361L188.775 218.497V218.768H188.91L189.182 219.04L189.317 219.176L189.453 219.311L189.317 219.447H189.182V219.583H189.046V219.854L189.182 219.99V220.261L188.91 220.125V220.397L188.775 220.261H188.503L188.232 220.532L187.825 220.668V220.668L187.689 220.804L187.825 220.939H187.554H187.282L187.011 220.804L187.147 220.668H187.011L186.74 220.397H186.604V220.261L186.468 219.99L186.333 219.854L186.468 220.125V220.261L186.197 220.125V220.261H186.061V220.261L185.79 220.125V220.261L185.654 220.125L185.519 219.718V219.854L185.383 219.583H185.654L185.247 219.447V219.311L185.112 219.176H184.976L185.112 219.04H185.247H185.112L185.247 218.768V218.633V218.633V218.497H184.976V218.361H185.247V218.361L185.383 218.226H185.519L185.247 218.09V217.954L185.519 217.819H185.654L185.79 217.683L185.654 217.547H185.926V217.683H186.197H186.468V217.276L186.604 217.14H186.74V216.869V216.598L187.011 216.326L186.875 216.191L187.011 216.055V215.919L186.74 216.055L186.468 216.191L186.333 216.055H185.926H185.79L185.926 216.191V216.462L186.061 216.598V217.005L185.79 217.14H185.519L185.654 217.005L185.247 216.869L184.976 215.919L185.247 215.377L184.569 214.563L182.805 215.105L183.348 214.02L181.991 212.392L181.041 212.799L180.499 212.256L179.82 211.306L179.685 210.899H179.278L179.006 211.306H178.735L178.464 211.035L177.785 210.221L177.921 209.543L177.65 209.407L176.971 209.814L176.836 209.678L176.971 209.271L176.429 208.457L175.886 208.593L175.615 208.322V208.457L175.343 208.593L174.936 208.322L174.8 208.186L174.936 208.05L175.479 208.186V207.779V207.508L175.207 207.372L174.936 207.508H174.393L173.715 207.643L173.986 207.372L174.665 206.694L174.529 206.287L174.122 206.015L174.8 205.608L174.936 205.473L174.8 205.201L174.936 204.93L174.8 204.523L174.393 204.387H173.851H173.579L173.308 204.116V203.845H173.444V203.573L173.172 203.302H173.037L172.765 203.166L172.494 202.623L172.358 202.895L171.951 202.623L171.816 202.352L171.68 202.216L171.544 201.809H171.273L171.002 201.402L171.137 201.267L170.73 200.995V200.86V200.86L170.595 200.724L170.459 200.588H170.323V200.453L170.188 200.317V200.181L170.459 200.046L170.188 199.91L170.323 199.774H170.459V199.639L170.595 199.503V199.367V199.096V199.096L170.73 198.825L170.866 198.96V198.825L170.73 198.418L170.323 198.282H170.052V198.146L170.188 198.011H170.052L169.781 198.146L169.645 198.282L169.509 198.011H169.645L169.374 197.875V197.739H169.645L169.781 197.875H169.916V197.468L170.052 197.197L169.781 196.518H169.645V196.518L169.916 196.247H170.188L169.916 195.976L169.645 196.111L169.374 195.84L169.645 195.704L170.052 195.84L170.323 195.704L170.188 195.297H169.916H169.645H169.509L169.374 195.161V195.026L169.238 194.89V194.89L169.102 194.619V194.347V194.212V194.076H169.374L169.102 193.94V193.533L169.374 193.398L169.645 193.262V193.126L169.374 193.262L168.967 192.855V192.719L168.831 192.448H168.967L168.831 192.041L168.695 192.177H168.424L168.288 192.041L168.424 191.905L168.288 191.634L168.56 191.498L168.424 191.091L168.56 190.684L168.967 190.549H169.509L169.645 190.277V190.006V189.735L169.509 189.599L168.967 189.328L168.831 188.785L169.238 188.242L168.967 188.106L168.56 187.971L168.288 187.835L167.745 188.106L167.474 187.971L167.338 187.835L167.067 187.699L166.66 187.292L166.253 187.021L165.982 186.75H165.846L165.71 186.885H165.575L165.303 186.75V186.478H165.168H165.032H164.896L164.625 185.936L164.761 185.8L164.489 185.664L164.354 185.8V185.529L164.218 185.664V185.257L164.082 185.122L163.947 184.986V184.85L164.082 184.715V184.579H163.947H163.811V184.308H163.675H163.404L163.268 184.036V184.036V183.765L162.997 183.901H162.861L162.726 183.629H162.861H163.133L163.268 183.494V183.358L162.997 183.222H162.726H162.454V182.68H162.183V182.544L162.047 182.408V182.273L162.319 182.137H162.183V181.866H162.047V181.73H162.319L162.454 181.459L162.59 181.323L162.861 180.78L162.726 180.644L162.319 181.052L162.047 181.187L161.912 181.323L161.776 181.459L161.64 181.323L161.776 181.187V181.052L161.505 180.78L161.64 180.509L161.912 180.373L161.776 179.966H161.64L161.776 179.695H161.64H161.098V179.559L161.233 179.423H161.64V179.152L161.505 178.745H161.233L160.962 178.338L160.419 178.745L160.012 178.067L159.876 178.202L159.605 178.067L159.334 177.524L159.198 177.66L158.791 177.795L158.113 177.524L157.977 177.388L157.706 177.524L157.57 177.253L157.841 176.981L157.706 176.846L157.434 177.117L156.892 176.846L157.027 176.574H156.892H156.756L156.213 176.439L155.942 176.032H155.806L155.128 175.625L155.535 175.082V174.675L155.264 174.811L155.128 174.404L155.399 174.268V173.861L155.806 173.318L156.213 172.911H156.485L156.62 172.64H157.163L158.113 170.469L157.57 170.062L156.485 169.655L155.942 169.248L155.264 169.112L154.45 169.384L153.5 168.841V168.163L153.771 167.891H154.314H154.585H154.992H155.399L155.806 167.484L155.671 167.077L155.535 166.942L155.128 167.077H154.992H154.857V167.077H154.585L154.45 167.213L154.043 166.942H153.907H153.5L153.229 166.806L152.55 166.399L152.279 166.263L152.143 166.399V166.806L151.872 166.942L151.465 166.67L151.329 166.399H151.058L150.922 166.942L150.379 167.213L149.837 166.942H149.43L149.294 167.213H149.023V166.806L148.48 166.67H148.073V167.213L147.666 167.349L146.852 167.077L146.174 167.484L146.038 168.705L145.767 168.841L145.495 168.705L145.36 168.163L144.817 167.891L144.274 168.434L143.46 168.163L142.917 168.027L142.646 167.484L142.51 167.213H142.239L141.832 166.942L142.103 166.535V165.585L141.696 165.313L141.832 165.042L142.239 164.771H142.646H143.189V164.228L142.375 163.55L141.018 163.957L140.611 164.499L140.204 164.771L139.933 164.364L139.661 163.957L138.305 164.092L137.49 163.55V163.143L136.269 163.278L135.591 162.736L135.998 161.922L135.455 161.515L134.777 161.922L133.013 160.836L132.878 160.972L132.064 160.836L131.521 160.972L130.571 160.429L130.164 160.158L129.486 160.294L129.214 160.158V159.751L129.486 159.48L129.079 159.073L129.35 158.123L129.486 156.63L130.3 156.359L130.029 155.952L130.3 155.681L130.707 155.138L131.25 155.002L132.199 154.595L132.064 153.917H131.385L131.114 153.781V153.239L130.571 152.832L130.164 153.103H129.893H129.35L129.214 152.832H128.4L127.993 153.239L127.451 153.103L127.179 152.425L126.637 151.746L127.044 150.525H127.179L127.044 150.254L126.772 149.982V149.711H126.908L127.044 149.44H126.908H126.772L126.501 149.847V150.39L126.23 150.525L125.687 150.39L125.28 150.118H125.009L124.873 149.847H124.602L124.466 149.982L124.33 150.525H124.059V150.661H123.652L123.788 150.525H123.381L122.838 150.39L123.381 149.982V149.168L123.245 149.033L123.516 148.897V148.626L123.381 148.49H123.788V148.354V147.947L122.838 147.812L122.702 148.083L122.431 148.219V147.947L122.295 147.812V147.54H122.431L122.295 147.269L122.838 147.133L122.974 146.998L123.109 146.726L123.516 146.591L123.923 146.726L124.602 146.455H125.416H126.23L126.772 146.319L126.908 146.184L126.772 145.912L126.501 145.641L126.094 145.37L125.687 145.505L125.144 145.37L124.602 145.098L123.788 144.827L123.516 144.556L123.381 144.691H122.702L122.295 144.42L122.024 143.877H121.345L120.938 143.335L120.396 143.606H119.853L119.717 143.742L119.446 144.149L119.039 144.556V144.827L119.175 144.963V145.098L119.039 145.234L119.175 145.505V145.777L119.039 145.505L118.768 145.641V145.777L118.632 146.319H118.361L118.225 146.184L118.089 146.048L117.818 146.455L117.682 146.591L117.547 146.319L117.004 146.455L116.868 146.726L116.326 146.862L115.376 146.726L115.105 146.862H114.698V146.591L114.426 146.319L114.155 146.455H113.341L113.205 146.184L112.798 145.777L112.527 145.912L112.391 145.777L112.12 145.505L112.527 145.098L112.391 144.827H111.577L110.627 144.556L110.492 144.149L109.949 143.199H109.542L108.864 143.47L108.592 142.928L108.457 142.52L107.914 141.842L107.371 141.978L106.964 141.842H106.557H106.014L105.743 141.571V141.299L106.15 140.214L107.236 139.264H107.643V139.129L107.236 138.722L106.964 138.043L107.236 136.144L107.371 135.601L107.236 135.33L106.693 135.601L106.014 136.28L105.607 136.144L105.743 135.194L105.336 134.923L104.793 135.466L103.844 135.601L103.165 134.923V134.244L102.351 133.973L101.944 133.43L101.266 133.702V133.973L100.995 134.109H100.452L100.181 133.566H99.0952L97.6028 133.159L97.3314 132.616L97.4671 132.345L97.7384 132.209V131.938V131.531L97.6028 131.26L97.4671 130.988V130.853L97.3314 130.717H97.0601V130.717V130.853L96.7887 130.988V130.853L96.653 130.988V131.124H96.5174V131.26L96.3817 131.395L96.5174 131.531L96.3817 131.667H96.246V131.802L96.1104 131.667H95.9747V131.531L96.246 131.26V131.124L96.5174 130.853L96.653 130.581H96.7887L97.0601 130.174L96.9244 129.903L96.7887 129.632L96.5174 129.496L95.839 129.632L95.7033 129.496L95.432 129.225L95.2963 129.36L95.1607 129.496L94.8893 129.632V129.767L94.7536 130.039L94.8893 130.174V130.31H94.618L94.4823 130.446L94.2109 130.31L94.0753 130.174L93.8039 129.632L93.1256 130.31L92.9899 130.717V130.988L93.1256 131.26L93.2612 131.395L93.5326 131.531V131.667L93.3969 131.802L92.4472 131.531V131.531L92.3115 131.938L92.4472 132.074L92.3115 132.209L92.4472 132.481H92.1759L92.0402 132.752V132.481H91.9045L91.6332 132.752H91.4975L91.6332 132.888L91.3618 133.159L91.0905 133.023L90.8191 132.888H90.6835L90.5478 133.295L90.4121 133.566L90.2764 133.702V133.837L90.1408 133.973L90.0051 134.244L89.4624 134.109H89.0554L89.1911 133.973L89.0554 133.837H88.6484L88.377 134.244H87.97L87.6987 133.973V134.244H87.2916V134.244H87.0203V134.38H86.8846V134.651L86.7489 134.923L86.6133 135.059H86.3419V134.923L86.2063 134.651L86.3419 134.516L86.0706 134.38L85.9349 134.516V134.651L85.7992 134.787V134.516H85.5279V134.787V135.059H85.6636L85.5279 135.33V135.601H85.1209L84.8495 135.737V135.601L84.9852 135.466V135.33H84.7139V135.33L84.9852 135.194L84.8495 134.923V134.651L85.5279 133.837L84.9852 133.566L84.5782 133.702L84.1712 133.837L84.0355 133.973H83.8998L83.6285 133.837L83.0858 133.973V133.837V133.566V133.43L82.5431 133.566L82.2718 133.973H82.0004L81.5934 133.837L81.322 134.109L81.0507 134.38L80.7794 134.651L80.508 134.516V134.109L80.6437 133.837L80.7794 133.702L80.6437 133.566H80.508H80.3723L80.6437 133.295V133.023H80.508V132.888L80.3723 132.616L80.508 132.481L80.7794 132.616L80.915 132.481L80.6437 132.209L80.7794 131.667L80.508 131.802H80.2367L80.6437 131.667L80.508 131.531L80.7794 131.26V131.395L81.0507 131.26L81.1864 131.124L81.322 131.26L81.4577 130.988H81.5934V130.853H81.7291H81.8647H82.0004V130.853H82.2718H82.5431V130.717L82.6788 130.581L82.8144 130.717H83.2215L83.3571 130.581L83.4928 130.717V130.581H83.8998V130.446H84.1712L84.4425 130.31L84.5782 130.581V130.446L84.7139 130.581L84.5782 130.31L84.8495 130.174H85.1209L85.3922 130.31L85.5279 130.174H85.7992V130.31L86.0706 130.174L86.2063 130.31H86.3419V130.039H86.4776H86.7489H86.8846L87.0203 129.903L87.2916 130.039V129.903L87.4273 129.767L87.563 129.903L87.6987 129.767L87.156 129.496V129.36L87.97 129.089L88.1057 128.953H88.377L88.5127 129.089L88.784 128.953L89.0554 128.818V128.682L89.3267 128.546L89.5981 128.411L89.3267 128.004L89.0554 127.868L88.9197 128.004L88.784 128.275H88.6484H88.377L87.97 128.411H87.8343V128.139V127.868L87.6987 127.732V127.461H87.563H87.4273H87.156H87.2916L87.0203 127.325L87.156 127.189L86.8846 126.918L86.7489 126.782L86.6133 126.647V126.918L86.3419 126.782L86.2063 126.511L86.0706 126.647L85.9349 126.511L85.6636 126.375L85.5279 126.511L85.3922 126.375V126.511H85.2566L85.1209 126.104V126.24L84.9852 126.375V126.24H84.7139L84.3068 126.104L84.4425 125.968L84.1712 125.697H84.0355L83.8998 125.561H83.7642H83.6285L83.4928 125.833L83.2215 125.697V125.833V125.968L82.4074 125.697L82.5431 125.561L82.6788 125.426L82.5431 125.29H82.4074L82.2718 125.154L82.1361 125.29L82.0004 125.019L81.4577 124.205V123.798L81.1864 123.255L81.0507 122.712L81.1864 122.17L81.0507 122.441H80.915L80.6437 122.305L80.915 122.17L81.0507 121.898V121.898H81.322V122.034L81.4577 121.898L82.1361 122.034L82.2718 121.898H82.1361L82.2718 121.763H82.1361L82.0004 121.627H82.2718V121.627V121.491L82.4074 121.356H82.9501V121.22L83.0858 121.356L83.3571 121.22L83.7642 120.949V120.949L84.5782 120.677H85.6636L86.3419 120.406L87.563 120.27H88.2413L88.9197 119.863L89.1911 120.135H90.1408L90.5478 120.542L90.8191 120.406L90.6835 119.999L90.2764 119.728L90.9548 119.32L91.9045 119.185L92.7185 118.913H93.5326L93.8039 118.642L94.0753 119.049L94.8893 119.185L95.432 119.32H95.9747L96.1104 118.778L96.246 118.371L95.432 117.828L95.1607 117.285L94.7536 117.15L94.2109 117.014H93.8039L93.5326 117.15L93.1256 117.014H92.4472L92.3115 116.878L91.9045 116.607H91.6332L91.4975 116.743H91.3618L90.9548 116.471H90.8191H90.5478H90.2764L90.0051 116.607L89.3267 116.743L88.9197 116.878H88.784H88.2413V116.743H87.8343L87.6987 116.878H87.0203H86.4776L86.0706 116.743L85.9349 116.878L85.7992 117.014H85.6636L85.5279 117.15H85.2566L85.1209 117.014H84.9852L84.8495 117.15H84.7139L84.5782 117.285L84.4425 117.15L84.0355 117.421H83.4928H83.2215H83.0858V117.285H82.9501H82.8144L82.1361 117.421H81.4577H81.0507H80.915H80.6437H80.3723L79.4226 117.15H79.287H79.4226L79.287 117.014V116.878L79.1513 117.014V116.743H78.8799V116.471H78.6086L78.7443 116.2H78.6086H78.3372V116.064H78.2016V115.929L77.9302 116.064V116.064L77.6589 116.2H77.5232V116.064H77.2519L77.1162 115.929L76.8448 116.064V115.929H76.5735L76.4378 115.793H76.3022V115.522L76.0308 115.386L75.8951 115.522L75.6238 115.386L75.4881 115.25H75.6238L75.8951 114.979V114.708L75.7595 114.436L75.6238 114.029H75.4881H75.3525L75.2168 114.301H75.0811V114.165V113.894H74.8098L74.6741 114.029L74.8098 114.301H74.6741L74.8098 114.572H74.6741L74.8098 114.708H74.6741L74.5384 114.979H74.2671L73.9957 115.115L73.8601 115.25L73.9957 115.115L73.8601 114.979L74.1314 114.843L73.9957 114.436L73.7244 114.301L73.453 114.436L73.5887 114.165L73.3174 113.894L73.046 113.758L72.7747 114.029L71.9606 114.843L71.825 115.25L71.9606 115.386L72.5033 114.979L72.9103 114.843L73.3174 114.979H73.453L73.7244 115.522L73.453 115.793H73.1817V115.793V115.929L72.9103 116.064L72.7747 115.929H72.5033L72.232 116.064L71.825 115.929V115.929H71.4179H71.2823H71.1466H70.8753L70.3326 115.793V115.522L70.4682 115.386V115.115L70.1969 114.843V114.708H70.0612V114.436H69.7899L69.6542 114.165V114.029L69.5185 113.894L69.1115 114.436H68.9758L68.7045 114.572L68.8402 114.843V115.115H68.7045V115.25L68.9758 115.657H69.1115V115.793V116.064V116.2H68.8402H68.7045L68.5688 116.336V116.607H68.8402V116.743L68.9758 116.878H68.8402L68.5688 117.014H68.4331L68.2975 117.15L67.6191 116.878H67.3478V117.15H67.2121V117.285L67.3478 117.421H67.8905L68.1618 117.557H68.7045H68.8402H69.6542L70.1969 117.692V118.099L70.3326 117.964L70.4682 118.235L70.3326 118.642L70.4682 118.778V119.049V119.185V119.32L70.3326 119.185V119.592H70.1969L70.3326 119.728L70.0612 119.863H69.9255L69.6542 119.999L69.5185 120.406L68.9758 120.677H68.7045L68.5688 120.949L67.3478 121.084H67.2121L67.0764 120.949L66.9408 120.813L67.0764 120.677H66.9408H66.8051H66.6694V120.949L66.9408 121.22H66.6694L66.5337 121.491H66.3981V121.491H66.2624L66.1267 121.356L65.991 121.491L66.1267 121.763H65.991V121.627L65.7197 121.356L65.584 121.491V121.763L65.3127 121.627V121.763L65.177 121.627L65.0413 121.491H64.9057V121.356V121.22L64.6343 121.356V121.627L64.77 121.763V121.898H64.4986V122.034L64.2273 122.17H63.956V121.898L63.8203 121.763L63.5489 121.898L63.2776 121.763L63.4133 121.627L63.5489 121.491L63.4133 121.356L63.2776 121.491L63.0062 121.356H63.1419L63.4133 121.22H63.2776H63.0062H62.8706L62.5992 121.491V121.356L62.4636 121.22H62.3279L62.1922 121.491H62.0565H61.7852L62.0565 121.356L61.6495 121.491L61.3782 121.356L61.5138 121.22L61.6495 121.084H61.3782V121.084L61.5138 120.949H61.3782L61.1068 120.813L60.9712 121.084L60.8355 120.949H60.4285V121.084L60.2928 121.22H60.0214V121.22L59.8858 121.356L59.7501 121.22H59.8858H59.6144H59.4788L59.7501 120.813L59.4788 120.949H59.3431L59.2074 120.813V120.677L59.0717 120.813V120.677L58.8004 120.542V120.27L59.0717 120.135H58.9361H58.8004L58.529 119.999L58.8004 119.592L58.6647 119.728L58.9361 119.32L58.6647 119.456L58.8004 119.185L59.0717 118.913L59.4788 118.778H59.6144L60.0214 118.506V118.371L59.7501 118.099L59.6144 117.964L59.2074 118.506L58.9361 118.642H58.8004L58.6647 118.778H58.529V118.642L58.8004 118.371H58.9361L59.0717 118.235H58.8004L58.6647 118.371L58.2577 118.235L58.3934 117.964L58.122 117.828V117.964L57.9864 117.828L57.8507 117.421H57.5793L57.308 117.557L57.1723 117.421L57.308 117.285L57.4437 117.15H57.5793V117.014L57.4437 116.878L57.308 117.014V116.743L56.494 116.878V116.743H56.3583H56.2226H56.0869H55.8156V116.743V117.014L55.5443 117.15L55.4086 116.878V117.014H55.2729L55.4086 116.607L55.2729 116.064H55.5443H55.6799V115.929L55.8156 115.657V115.657L55.6799 115.793H55.4086L55.2729 115.657H55.1372L55.0016 115.386H55.1372H55.2729L55.4086 115.522V115.115H55.6799L55.8156 115.25L55.9513 115.386L55.8156 115.657H55.9513H56.2226H56.494V115.522L56.7653 115.657L56.901 115.522V115.386H57.1723L57.4437 115.115V114.843L58.2577 114.436H58.9361L59.7501 113.758L60.4285 113.622L60.6998 113.215L60.9712 113.08L62.0565 113.215L62.4636 112.944L62.1922 112.401L61.7852 112.266V112.13L61.6495 111.994L61.5138 111.858L61.3782 111.723L61.2425 111.451L60.9712 111.18L60.6998 110.909V110.909H60.5641H60.2928L59.7501 110.773H59.4788V111.18H59.3431L59.2074 111.723L58.9361 111.994L58.8004 111.858V111.587L58.2577 111.723H58.3934V111.858L58.122 111.994V111.723H57.9864L57.715 111.587L57.5793 111.858H57.1723H57.0367H56.7653L56.6296 112.13H56.3583L56.2226 111.994L56.3583 111.858L56.2226 111.723L56.3583 111.587L56.2226 111.723L56.0869 111.587L55.9513 111.723H55.8156H55.5443V111.587L55.4086 111.723H55.2729V111.451H55.1372H55.0016L55.4086 111.316V111.316L55.2729 111.044H55.5443H55.6799L56.2226 110.909L56.0869 110.773H55.9513L56.0869 110.637V110.502H55.6799L55.5443 110.366L55.4086 110.502L55.1372 110.637L55.2729 110.502L55.1372 110.366H55.4086V110.23H55.8156L55.9513 110.095L55.8156 109.959V109.959L55.9513 109.823L55.8156 109.688L55.9513 109.552L56.494 109.416H56.6296H56.7653L56.6296 109.281L56.7653 109.145H56.494L56.6296 109.009L56.7653 108.874H57.1723V108.738H57.308L57.4437 108.602H57.5793V108.467L57.4437 108.331V108.06H57.715L57.9864 107.924L58.2577 107.788V107.653L58.529 107.517L58.8004 107.381L59.6144 107.11L60.9712 107.246V107.246H61.3782L61.7852 107.381L61.9209 107.246L62.0565 106.974L62.1922 106.703L62.0565 106.567V106.432L62.1922 106.296L61.9209 106.16V106.16V106.025L62.4636 105.753L62.1922 105.618V105.482L62.4636 105.618L62.5992 105.482H63.0062V105.211H62.8706L62.7349 105.075H62.8706H63.1419V105.075L63.5489 104.804H63.8203L64.0916 104.668L64.2273 104.532H64.363L64.77 104.125L65.177 103.989V103.854V103.311V103.04L65.0413 102.768L64.9057 102.633L64.6343 102.497L64.2273 102.633H63.956L63.6846 102.904H63.4133L63.2776 103.04L63.1419 103.175H63.0062H62.8706V103.175L62.7349 103.311H62.4636H62.3279H62.1922L61.9209 103.447H61.3782L61.2425 103.175H61.1068H60.8355L60.6998 103.311H60.1571V103.175H60.0214L59.8858 103.04V102.904H59.7501L59.8858 102.768H60.0214H60.1571L60.5641 102.633L60.4285 102.361H60.5641V102.226L60.2928 102.09H59.8858L60.0214 101.954L60.4285 101.819V101.412H60.2928L60.1571 101.14L60.0214 101.005H59.8858H59.6144L59.3431 101.276H59.2074V101.412H58.9361H58.8004H58.6647H58.529V101.547L58.3934 101.683L58.2577 101.547H58.3934V101.412L58.122 101.276L57.9864 101.412L57.8507 101.276H57.5793L57.4437 101.412L57.308 101.683H57.4437L57.308 101.819H57.4437H57.308L57.1723 101.954V102.09L57.0367 102.361L57.1723 102.633L57.0367 102.768H56.901L56.7653 102.904H56.6296V102.768L56.494 102.904V103.175H56.3583H56.0869V103.04L55.9513 103.175H55.6799H55.5443H55.4086H55.2729V103.04V102.768H55.0016L54.7302 103.04V103.175H54.4589L54.3232 103.582H54.1875L54.0519 103.718H53.7805V103.854L53.9162 103.989L53.6448 104.125H53.5092V103.989H53.3735V104.125H53.2378V104.261L52.8308 104.396L52.5595 104.261V104.125V103.854L52.6951 103.718L52.5595 103.582L52.4238 103.718H52.2881V103.582L52.1524 103.854V103.989H52.0168L51.8811 103.854H52.0168V103.718L51.4741 103.582L51.3384 103.718L51.4741 103.854H51.3384V103.582L51.4741 103.447L51.3384 103.311V103.175L51.0671 102.904V103.175H50.9314L50.7957 103.311V103.311H50.66L50.5244 103.582H50.3887V103.447L50.253 103.175H50.1173L49.9817 103.311H49.846L49.9817 103.718L49.846 103.854L49.9817 104.125V104.261L49.846 104.396H49.7103V104.396L49.439 104.532V104.396L49.3033 104.532L49.1676 104.396V104.668H48.8963L49.032 104.261H49.3033L49.1676 104.125V103.989L48.8963 103.718H48.625L48.3536 103.582H48.0823V103.854H47.8109L47.6752 103.718L47.8109 103.447H47.6752V103.175H47.8109L47.6752 103.04L47.8109 102.768V102.633L48.0823 102.497L48.2179 102.361L48.4893 102.09L48.625 101.954L48.4893 101.683L48.2179 101.547V101.412V101.276H47.8109L47.4039 101.412V101.683V101.954V102.09L47.1326 102.226L46.9969 102.09V102.361V102.361L46.5899 102.497L46.4542 102.361L46.3185 102.497H46.0472V102.633L46.1828 102.904L46.0472 103.175L45.9115 103.04H45.7758L45.6402 103.311H45.5045V103.447H45.3688L45.2331 103.582L44.9618 103.718V103.854V103.989L44.8261 104.125L44.6904 104.261L44.5548 103.989H44.4191V104.125L44.2834 104.261V104.261H44.0121L43.8764 104.396L43.7407 104.261L43.3337 104.125V103.989H43.0624L42.9267 103.718V103.447H42.791L42.9267 103.718H42.791L42.6554 103.854V103.854L42.5197 103.989H42.384L42.1127 104.261L41.977 104.125L41.7056 103.989L41.57 104.125L41.4343 104.396H41.2986V104.396H41.163H40.8916L41.0273 104.261H41.163V104.125L41.0273 103.989L40.8916 103.854H40.6203V103.718V103.447L40.4846 103.311V103.175L40.3489 103.04V103.04H39.9419L39.8062 103.175H39.9419V103.447H39.6706H39.5349V103.447H39.3992H39.1279V103.311L39.2635 103.175H39.5349L39.6706 103.04H39.8062L39.5349 102.768L39.2635 102.633L39.1279 102.904L38.9922 102.768V102.633H38.5852V102.633H38.3138V103.04L38.1782 102.904H38.0425L37.7711 102.768L37.6355 102.904L37.4998 102.768L37.9068 102.497H38.0425L38.1782 102.226V102.09L38.3138 101.683H38.0425V101.819L37.7711 102.09L37.4998 101.954L37.2285 101.819H37.0928H36.9571L36.8214 101.547V101.819L36.6858 101.954H36.5501L36.6858 101.819V101.683V101.547L36.5501 101.412V101.14L36.4144 101.005H36.1431L35.8717 101.14H35.7361L35.8717 101.412L36.0074 101.547L35.8717 101.683V101.819V101.954L36.1431 102.09L36.0074 102.226V102.361V102.768L35.8717 102.904L35.7361 102.768L35.4647 102.904H35.329V103.04V103.04L35.0577 103.175H34.922V102.768H34.7863L34.6507 102.904L34.515 103.04V103.175L34.2437 103.311V103.311V103.447V103.582L34.108 103.718L34.2437 103.854L34.6507 103.989V104.125L34.922 104.261L34.7863 104.532V104.396L34.6507 104.668V104.804H34.3793V104.939H34.2437L34.515 105.075L34.2437 105.211H34.3793L34.2437 105.482L34.108 105.618L33.9723 105.753L33.701 105.889V106.025H33.4296H33.2939V106.025H33.0226V106.16L32.7513 106.296L32.4799 106.16H32.3442V106.025H32.2086L32.4799 105.753V105.618L32.6156 105.482L32.8869 105.346L33.1583 104.939V104.939L33.2939 104.804L33.1583 104.532L32.8869 104.668H32.7513H32.6156L32.3442 104.804H32.2086L32.0729 104.939L31.9372 105.075H31.8015L31.6659 105.211H31.5302L31.3945 105.075L31.5302 104.939H31.6659L31.8015 104.804H31.5302V104.804L31.6659 104.532H31.9372V104.396H32.0729L32.2086 104.261L32.6156 104.125V103.718H32.2086H32.0729V103.582V103.311V103.311L31.9372 103.447H31.8015V103.311L32.2086 103.175V103.04H32.4799V102.904H32.3442V102.768L32.4799 102.904L32.7513 102.768V102.633L32.4799 102.361L32.3442 102.497L32.4799 102.226L32.2086 101.954H32.4799V101.954H32.7513V101.819L33.0226 101.683H33.2939V101.683L33.0226 101.547V101.547V101.412L33.1583 101.276L33.2939 101.14V101.005L33.4296 101.14L33.5653 101.005H33.701V100.869H33.8366L33.9723 100.733L33.5653 100.598L33.4296 100.462L33.5653 100.326L33.4296 100.055V100.191H33.1583V99.9193V99.7836H32.8869L33.0226 99.648H32.8869V99.7836L32.6156 99.9193V99.7836L32.4799 99.648V99.5123H32.7513L32.4799 99.3766V99.2409L32.3442 99.1053V98.8339L32.2086 98.6982V98.8339L31.9372 98.6982L31.8015 98.8339H31.6659L31.8015 98.6982L31.6659 98.5626V98.4269L31.9372 98.2912L32.0729 98.0199L32.4799 97.7485H32.6156L32.7513 97.8842H33.1583L33.0226 98.0199V98.2912L33.1583 98.4269L33.2939 98.2912Z" fill="black"/>
<path fill-rule="evenodd" clip-rule="evenodd" d="M30.7156 96.2559L30.8513 96.3915L31.2583 96.2559L31.5297 96.3915H31.6653H31.9367H32.3437V96.5272L32.4794 96.6629L32.3437 96.7985H31.9367L31.6653 97.0699V97.3412H31.394V97.6126L30.987 97.4769V97.6126L30.8513 97.4769L30.7156 97.7483L30.3086 97.8839L29.9016 97.7483L29.7659 97.8839L29.9016 98.0196L29.7659 98.1553L29.6302 98.0196L29.2232 98.1553L29.0875 98.0196V97.7483H28.9519V97.6126H28.8162V97.6126H28.5449V97.8839H28.8162L28.6805 98.0196L28.5449 98.2909H28.4092L28.2735 98.0196L28.1378 98.1553V98.2909L28.2735 98.4266V98.5623L28.1378 98.698L28.0022 98.8336H27.8665L27.7308 99.105L27.8665 99.2407H27.7308H27.4595V99.2407L27.1881 99.3763L27.3238 98.9693L27.0525 99.105V99.2407L26.7811 99.3763L26.6454 99.2407H26.7811L26.9168 99.105L27.0525 98.9693L27.1881 98.8336L27.3238 98.4266L27.0525 98.5623V98.4266L26.9168 98.5623L26.5098 98.8336L26.7811 98.5623V98.2909L26.9168 98.0196H27.3238H27.1881V97.8839H27.0525V97.8839L27.3238 97.7483L27.4595 97.6126H27.0525L26.9168 97.4769L27.0525 97.3412H27.3238H27.4595H27.5951V97.4769L27.8665 97.3412V97.2056H28.2735V96.9342L28.4092 96.7985V97.0699L28.2735 97.3412L28.4092 97.0699L28.5449 96.9342H28.6805L28.8162 96.6629V96.5272V96.3915L28.9519 96.6629L29.0875 96.3915L29.2232 96.6629L29.3589 96.5272L29.6302 96.6629L29.7659 96.7985L29.9016 96.6629H30.0373V96.5272L30.3086 96.3915H30.1729L30.4443 96.2559L30.5799 96.3915L30.7156 96.2559Z" fill="black"/>
</svg>
