<svg width="1052" height="1052" viewBox="0 0 1052 1052" fill="none" xmlns="http://www.w3.org/2000/svg">
<g clip-path="url(#clip0_41_297)">
<path fill-rule="evenodd" clip-rule="evenodd" d="M525.868 226L523.326 227.213L520.526 227.25L506.778 233.25L494.106 241.355L488.071 244.342L474.475 249.557L468.932 253.092L458.117 262.682L449.815 268.201L448.008 270.269L445.037 272.4L440.416 275.719L432.729 280.068L427.077 281.564L426.216 282.754L419.061 285.215L416.608 286.742L414.217 287.17L402.069 292.217L401.204 293.174L400 293.755V293.754L381.461 302.699L378.201 304.275L377.338 305.15L372.737 307.262L371.715 308.377L359.791 312.17L351.428 313.713L346.873 313.703L327.17 310.869L324.385 310.879L321.018 310.889L319.252 310.366L313.733 310.139L308.842 309.039L293.063 306.858L280.832 306.546L268.061 307.417L263.119 308.284L260.08 308.018L253.91 306.037L230.99 298.683L226.432 298.681L224.346 298.166L211.428 300.337L200.543 303.359L194.635 303.617L193.451 304.422L189.231 304.557L188.02 304.594L181.516 302.742L177.029 302.347L172.401 302.583L168.67 303.984L160.295 309.154L148.656 315.009L146.529 316.777L141.938 318.978L141.158 319.931L133.565 324.148L122.551 329.134L118.606 331.56L115.697 334.046L112.684 335.279L110.684 335.381L86.1076 336.623L77.0412 338.75L72.6506 339.068L71.9206 338.373L67.3893 337.83L59.4284 336.879L56.0026 337.332L54.5807 338.146L46.6295 340.021L43.6764 340.154L40.0807 340.062L24.2799 337.25L23.3249 337.08L16.1296 336.824L13.6647 337.422L7.64713 340.125L2.06313 344.55L0 347.947C3.13618 349.156 5.26185 347.53 7.39744 345.896C9.54899 344.25 11.7106 342.597 14.9258 343.826C16.4964 344.427 28.36 353.236 32.1774 356.071C32.4921 356.305 32.7522 356.498 32.9473 356.643C34.0297 357.446 35.5549 359.387 36.252 360.549C36.6392 361.194 36.9051 361.773 37.1435 362.293C37.8294 363.786 38.2879 364.785 40.7559 365.451C44.3682 366.428 45.7838 365.518 47.1007 364.672C48.0074 364.089 48.8674 363.536 50.3653 363.65C54.5637 365.753 61.4281 370.201 62.9825 374.865C63.1828 375.466 63.2816 376.127 63.3815 376.796C63.4811 377.463 63.5818 378.137 63.7855 378.768C65.076 379.88 66.5287 380.604 67.9811 381.328C69.5545 382.112 71.1277 382.896 72.4945 384.174C72.536 386.317 73.4762 388.467 74.4043 390.59C75.0378 392.039 75.6657 393.475 75.9984 394.887C77.2642 396.15 78.65 395.95 80.0731 395.744C80.6127 395.666 81.1576 395.588 81.7035 395.588C84.0433 395.588 85.5658 396.831 87.1435 398.12C87.8616 398.707 88.5911 399.302 89.4144 399.795L91.3167 399.693C91.8573 399.151 92.2736 398.519 92.6884 397.89C93.2168 397.089 93.7427 396.291 94.5198 395.687C95.906 395.265 97.4164 395.475 98.9331 395.687C100.985 395.972 103.049 396.26 104.832 394.986C105.987 394.161 106.633 392.788 107.179 391.627C107.596 390.742 107.954 389.98 108.436 389.681C110.067 391.31 112.798 392.888 115.045 391.482C115.821 391.672 116.511 392.028 117.196 392.382C118.122 392.86 119.039 393.334 120.149 393.386C122.781 393.509 124.764 392.782 127.024 391.652C132.634 388.845 131.711 385.951 130.622 382.536C129.628 379.421 128.496 375.872 132.063 371.56C134.836 370.995 135.731 368.838 136.62 366.699C137.039 365.688 137.457 364.682 138.071 363.849C140.728 370.381 140.801 371.61 134.768 375.765C132.715 378.693 135.122 385.734 138.772 386.679C140.015 386.5 141.223 385.88 142.174 385.076C143.245 384.17 143.9 382.973 144.557 381.771C144.99 380.979 145.424 380.185 145.979 379.472C147.003 378.156 169.894 360.405 171.61 359.546C172.559 359.071 173.898 358.767 174.991 358.519C175.102 358.493 175.21 358.469 175.315 358.445C178.14 359.535 179.52 359.051 181.084 358.502C182.003 358.18 182.984 357.835 184.36 357.775C185.585 357.722 186.847 357.959 188.112 358.196C190.527 358.65 192.951 359.106 195.139 357.543C197.61 355.777 199.51 352.451 201.326 349.272C203.294 345.827 205.163 342.553 207.555 341.623C208.554 341.235 209.631 341.048 210.716 340.861C211.674 340.695 212.639 340.528 213.561 340.221C216.544 339.228 220.671 338.472 223.674 339.721L222.871 340.82C222.355 340.954 221.822 341.087 221.282 341.222C219.292 341.72 217.193 342.245 215.364 342.924C214.844 343.117 214.318 343.434 213.797 343.749C213.208 344.104 212.625 344.456 212.059 344.625C211.453 344.805 210.836 344.886 210.224 344.965C208.917 345.135 207.635 345.302 206.553 346.43C205.694 347.324 204.911 349.239 204.004 351.455C202.339 355.523 200.26 360.605 196.541 362.246C194.622 363.093 192.447 362.872 190.292 362.653C188.617 362.483 186.954 362.314 185.43 362.648C183.041 363.771 182.001 365.257 180.976 366.721C180.224 367.795 179.481 368.857 178.219 369.757C176.832 370.749 175.116 371.444 173.42 372.131C172.234 372.612 171.058 373.089 170.01 373.66C168.112 374.695 166.624 375.859 165.075 377.07C163.314 378.448 161.474 379.887 158.864 381.269C158.271 381.583 157.493 382.016 156.994 382.472C156.474 382.949 155.951 383.689 155.561 384.275C153.999 386.617 153.28 392.182 155.893 394.085C156.04 395.855 156.264 398.671 155.194 400.193C154.291 401.009 152.248 401.376 151.088 401.195C150.263 400.486 149.682 398.74 149.686 397.691C150.26 396.753 150.574 394.958 150.287 393.886L149.086 392.783L147.082 393.285C146.152 394.712 144.799 395.457 143.428 396.213C142.767 396.577 142.101 396.944 141.477 397.39C141.226 397.569 140.959 397.861 140.712 398.132C140.594 398.261 140.481 398.385 140.375 398.49C139.107 399.758 137.801 400.749 136.49 401.743C135.548 402.458 134.604 403.174 133.668 403.997C131.668 405.757 130.872 409.339 130.082 412.898C129.557 415.261 129.034 417.614 128.162 419.417C127.443 420.904 126.338 421.87 125.253 422.819C124.272 423.677 123.307 424.521 122.655 425.724V426.726C128.395 433.165 129.404 439.273 128.463 447.65C130.059 448.531 131.152 450.351 131.266 452.156C130.398 453.304 130.143 455.26 130.565 456.595C132.297 462.079 136.308 462.037 140.535 461.994C144.395 461.954 148.436 461.912 151.09 466.072C152.7 467.89 153.176 470.258 153.647 472.598C154.066 474.686 154.482 476.752 155.694 478.388C158.898 482.713 161.679 483.504 164.786 484.387C166.204 484.79 167.689 485.212 169.313 485.997C170.429 486.537 171.461 487.319 172.503 488.109C173.771 489.069 175.053 490.041 176.52 490.601C178.976 491.54 183.05 491.129 186.626 490.768C189.642 490.463 192.303 490.195 193.34 490.802C194.832 491.677 195.863 493.083 196.886 494.477C198.91 497.236 200.901 499.949 206.356 498.412C209.144 497.625 210.194 496.137 211.396 494.436C213.362 491.651 215.733 488.294 226.782 486.496C230.954 485.816 238.235 486.646 244.072 487.311C248.117 487.772 251.468 488.154 252.612 487.9C256.096 487.124 266.532 477.073 266.629 473.281C266.652 472.391 263.896 465.207 263.326 464.371C263.088 464.021 262.736 463.709 262.37 463.387C261.956 463.02 261.524 462.639 261.223 462.169C262.878 462.789 264.169 464.064 265.288 465.17C266.178 466.049 266.959 466.821 267.731 467.074L269.434 466.675L270.133 465.072L269.233 463.47L269.434 461.767C270.198 461.997 272.59 462.361 273.336 462.169C274.435 461.887 275.399 461.144 276.377 460.39C277.34 459.648 278.315 458.896 279.444 458.564C280.116 458.366 281.054 458.161 282.112 457.931C285.5 457.191 290.125 456.181 291.258 454.261C291.316 453.737 291.341 453.178 291.366 452.608C291.432 451.132 291.501 449.579 292.158 448.353L293.561 448.251C294.034 449.459 295.036 451.806 295.963 452.66C297.977 454.514 304.524 455.622 307.176 455.363C308.41 455.243 309.337 454.751 310.267 454.257C310.904 453.919 311.543 453.581 312.282 453.361C316.505 452.105 322.235 452.304 325.5 455.564C325.284 456.857 325.227 458.265 325.398 459.568C326.678 461.631 328.569 461.318 330.484 461.001C331.233 460.877 331.986 460.752 332.707 460.769C333.372 460.784 334.039 460.875 334.71 460.966C335.439 461.066 336.172 461.166 336.912 461.169C338.266 460.579 339.231 459.195 340.175 457.84C341.697 455.657 343.165 453.55 346.123 454.964L346.623 456.865C346.023 459.168 345.088 460.004 344.232 460.77C343.695 461.25 343.19 461.702 342.818 462.47C342.421 463.292 342.22 464.285 342.016 465.292C341.599 467.356 341.171 469.476 339.014 470.281C338.186 469.771 337.284 468.5 337.01 467.578C336.498 467.227 335.285 467.307 333.767 467.406C329.56 467.682 323.004 468.113 322.494 459.968C318.889 456.091 313.691 457.814 309.644 459.837C308.039 460.639 306.262 461.233 304.49 461.826C302.255 462.573 300.027 463.317 298.164 464.474C296.57 465.465 291.92 469.927 290.754 471.484C290.246 472.16 289.921 472.978 289.595 473.797C289.273 474.607 288.951 475.416 288.453 476.089C287.822 476.941 287.163 477.75 286.504 478.557C285.402 479.91 284.303 481.258 283.348 482.796C282.699 483.841 282.307 485.033 281.913 486.232C281.377 487.863 280.837 489.506 279.642 490.806C278.474 492.075 277.486 492.545 276.489 493.019C274.714 493.862 272.914 494.718 270.033 500.117C268.657 502.774 268.519 505.172 268.391 507.387C268.296 509.025 268.207 510.562 267.629 512.031C267.112 513.341 266.31 514.643 265.527 515.915C265.105 516.599 264.689 517.274 264.326 517.937C262.449 521.356 258.395 530.874 257.717 534.558C257.422 536.163 257.658 537.705 257.897 539.258C258.057 540.305 258.219 541.356 258.219 542.435C258.219 543.047 258.143 543.769 258.065 544.524C257.897 546.143 257.713 547.913 258.219 549.078C261.388 550.497 263.726 547.845 266.165 545.079C268.077 542.91 270.052 540.671 272.537 540.268C273.366 540.133 274.216 540.133 275.053 540.133C277.064 540.133 279.008 540.134 280.445 538.266C281.687 536.651 281.109 533.979 280.506 531.194C279.392 526.045 278.193 520.509 288.252 520.543C288.934 522.33 287.976 524.359 286.905 526.628C285.691 529.199 284.333 532.077 285.049 535.26C286.155 540.182 295.117 540.199 297.367 536.363C298.121 535.076 298.184 533.578 298.248 532.054C298.315 530.446 298.384 528.807 299.268 527.352C300.423 525.449 301.774 523.849 303.129 522.245C304.964 520.072 306.807 517.89 308.178 514.938C309.099 512.954 309.12 510.659 309.141 508.369C309.174 504.857 309.206 501.358 312.482 499.018C314.864 497.316 316.705 497.915 318.554 498.517C318.997 498.661 319.44 498.805 319.891 498.918C320.47 499.063 321.053 499.16 321.628 499.255C323.486 499.564 325.269 499.859 326.6 501.723C326.89 502.129 327.127 502.599 327.367 503.075C327.894 504.12 328.438 505.2 329.604 505.727C331.272 506.479 333.852 505.919 335.51 505.324L337.311 505.926L336.711 507.527C333.633 509.955 328.438 509.012 325.998 506.127C325.064 505.763 324.235 505.056 323.381 504.327C321.262 502.518 318.988 500.578 314.586 503.424C312.477 505.966 312.902 508.417 313.345 510.972C313.584 512.353 313.829 513.764 313.682 515.236C313.535 516.703 310.382 523.44 309.578 525.049C308.143 527.92 304.464 542.879 304.975 545.674L306.275 546.373C307.758 546.189 314.524 541.882 320.888 537.831C325.563 534.855 330.02 532.017 332.006 531.055C336.901 528.682 343.055 528.307 348.992 527.945C354.815 527.59 360.429 527.248 364.443 525.047C366.094 524.142 367.53 522.744 368.945 521.366C370.459 519.891 371.95 518.44 373.654 517.641C375.278 516.88 376.482 516.412 377.511 516.013C379.865 515.098 381.303 514.54 384.766 511.631C386.228 510.403 387.414 508.723 388.579 507.072C389.392 505.921 390.196 504.783 391.076 503.822C391.623 503.226 392.41 502.661 393.2 502.095C393.874 501.612 394.551 501.126 395.08 500.619C395.853 499.879 396.423 498.983 396.993 498.089C397.587 497.156 398.181 496.225 399.001 495.475V495.49C399.064 495.433 399.119 495.37 399.185 495.315C399.24 495.268 399.295 495.223 399.351 495.179C399.561 495.015 399.779 494.87 400 494.733V494.724C401.238 493.957 402.654 493.597 404.077 493.234C405.931 492.762 407.796 492.287 409.296 490.906C410.859 489.469 411.839 487.648 412.801 485.862C414.273 483.127 415.702 480.473 419.111 479.397C421.461 478.655 423.599 479.226 425.757 479.802C427.555 480.282 429.366 480.766 431.324 480.496C433.065 479.603 434.022 478.185 434.987 476.755C436.171 475.002 437.367 473.23 440.035 472.387C445.716 470.593 462.128 469.313 467.367 472.186C468.493 472.802 470.441 474.547 472.242 476.161L472.242 476.161L472.243 476.162C473.35 477.153 474.402 478.096 475.173 478.695C475.808 479.189 476.98 480.426 478.134 481.644C479.449 483.03 480.739 484.392 481.183 484.6C482.516 485.225 485.124 485.133 487.628 485.045H487.629C489.349 484.984 491.02 484.925 492.195 485.102C495.51 485.599 498.932 486.902 502.376 488.212C506.954 489.954 511.571 491.711 516.023 491.609C521.664 491.482 531.109 483.465 534.345 479.096C534.958 478.269 535.471 477.415 535.976 476.575L535.976 476.574C537.176 474.578 538.328 472.661 540.652 471.387C543.098 470.046 545.478 469.934 547.994 469.815C549.024 469.767 550.076 469.717 551.165 469.582C552.415 468.864 553.516 467.828 554.614 466.795C557.707 463.886 560.777 460.997 567.083 465.277C567.372 465.473 567.658 465.642 567.937 465.807C568.651 466.23 569.323 466.627 569.886 467.379C570.988 467.833 572.868 467.824 573.992 467.481C575.817 465.579 580.636 464.218 583.105 465.176C583.669 465.79 584.338 466.259 585.006 466.727C585.675 467.196 586.343 467.665 586.908 468.279L585.706 467.379C586.904 468.344 587.736 469.506 588.58 470.683C589.063 471.357 589.55 472.036 590.111 472.686L590.31 474.289C588.924 474.563 587.267 474.581 585.577 474.598C582.677 474.629 579.681 474.66 577.796 475.99C577.076 478.479 576.81 481.041 576.545 483.607C576.199 486.953 575.852 490.306 574.493 493.51C573.596 495.626 571.357 497.748 569.173 499.819C566.678 502.184 564.254 504.482 563.98 506.627C563.574 509.795 567.609 520.066 570.689 521.244C571.669 521.619 572.82 521.449 574.225 521.24C577.405 520.769 581.882 520.105 588.607 525.151C588.958 525.414 589.302 525.699 589.639 526H589.636C589.737 526.089 589.837 526.18 589.936 526.272C590.049 526.377 590.162 526.485 590.274 526.594C590.41 526.727 590.546 526.862 590.681 527H590.684C592.645 529.003 594.408 531.527 596.174 534.054C597.893 536.514 599.615 538.978 601.525 540.971C604.982 541.728 607.028 541.175 610.035 540.361C610.387 540.266 610.752 540.167 611.134 540.066L612.034 539.068L613.337 539.268C613.147 542.152 610.681 543.173 608.332 543.871C602.185 545.7 595.029 544.601 590.211 540.168C588.9 538.962 588.126 537.822 587.391 536.741C586.186 534.967 585.088 533.351 581.902 531.857C579.578 530.768 576.214 530.324 573.119 529.915C569.782 529.475 566.757 529.076 565.681 527.953C565.368 527.627 565.088 527.31 564.835 527H564.836C564.767 526.916 564.7 526.833 564.635 526.751C564.436 526.496 564.254 526.246 564.086 526H564.082C562.629 523.87 562.364 522.05 562.082 520.108C561.91 518.929 561.732 517.705 561.278 516.34C560.618 514.358 559.637 513.104 558.742 511.959C557.195 509.982 555.904 508.331 556.971 503.824C557.27 502.57 558.006 499.656 558.674 498.617C559.369 497.536 560.2 496.525 561.027 495.519C563.275 492.785 565.495 490.084 564.881 486.104L565.783 484.701C566.2 481.704 564.604 480.036 562.178 478.693C561.864 478.651 561.555 478.632 561.254 478.637C557.43 478.692 554.65 482.348 552.362 485.357C551.948 485.901 551.55 486.425 551.164 486.902C550.493 487.733 549.793 488.428 549.094 489.121L549.093 489.121C548.263 489.944 547.435 490.765 546.661 491.811C544.514 494.708 541.252 494.984 537.995 495.26C536.472 495.389 534.951 495.517 533.545 495.914C530.878 496.666 529.037 498.148 527.151 499.666C524.73 501.615 522.235 503.624 517.825 504.225C515.145 504.59 514.034 504.235 512.793 503.838C512.042 503.598 511.242 503.343 510.016 503.223C508.662 503.09 507.288 503.416 505.922 503.741L505.922 503.741C504.497 504.079 503.081 504.415 501.707 504.225C500.316 504.031 499.052 503.486 497.775 502.936C496.193 502.253 494.59 501.561 492.696 501.52C490.202 501.465 487.884 502.035 485.568 502.604C482.922 503.254 480.278 503.904 477.377 503.621C474.753 503.365 471.117 501.995 467.472 500.621C462.937 498.913 458.388 497.199 455.75 497.615C454.401 497.828 453.331 498.571 452.25 499.319C451.855 499.594 451.458 499.869 451.045 500.119L449.565 503.086C449.526 503.14 449.486 503.197 449.443 503.257C449.402 503.314 449.36 503.374 449.315 503.437C448.024 505.26 445.068 509.435 440.536 513.02C435.682 516.858 432.678 512.934 432.678 512.934C431.604 513.522 430.437 513.93 429.276 514.337C428.043 514.769 426.817 515.199 425.715 515.838C424.391 516.607 422.659 517.832 421.51 518.842C420.293 519.913 419.211 521.193 418.127 522.476C417.085 523.708 416.041 524.944 414.872 526H414.863C414.839 526.022 414.815 526.045 414.791 526.069C414.762 526.096 414.733 526.124 414.703 526.15L414.654 526.194C414.382 526.43 414.085 526.659 413.789 526.889L413.645 527H413.668C413.225 527.344 412.764 527.683 412.3 528.024C410.941 529.024 409.562 530.039 408.561 531.223C408.367 531.452 408.163 531.674 407.96 531.896C407.543 532.351 407.126 532.805 406.793 533.324C405.896 534.72 405.657 536.391 405.417 538.071C405.149 539.949 404.879 541.839 403.688 543.371C403.174 544.03 402.5 544.772 401.777 545.566L401.777 545.566C401.155 546.249 400.497 546.972 399.877 547.715C398.49 549.37 397.285 551.122 397.082 552.781L399 556.619V556.619L399.484 557.588C399.474 557.849 399.449 558.11 399.413 558.371C399.373 558.665 399.32 558.959 399.263 559.252C399.236 559.395 399.207 559.538 399.178 559.68C399.04 560.363 398.905 561.038 398.883 561.691C398.864 562.267 399.158 562.936 399.482 563.67C399.662 564.079 399.851 564.509 400 564.955V564.929C400.169 565.432 400.288 565.957 400.285 566.498C400.574 566.672 400.893 566.875 401.234 567.092C403.849 568.757 407.784 571.263 409.795 567.803C409.849 567.06 409.852 566.303 409.854 565.544C409.858 564.142 409.862 562.734 410.195 561.395C411.02 559.974 414.636 559.359 417.335 558.9C418.19 558.755 418.953 558.625 419.506 558.49L420.607 559.09L421.209 560.893C420.349 561.608 419.445 562.288 418.506 562.895C418.444 564.193 419.177 565.21 419.927 566.25C420.577 567.151 421.239 568.069 421.408 569.203C421.366 570.315 420.807 571.085 420.24 571.866C419.774 572.508 419.303 573.157 419.108 574.01C419.216 574.883 419.903 576.349 420.709 576.811C421.197 576.811 421.706 576.82 422.229 576.831C425.547 576.895 429.418 576.969 431.822 574.609V571.404C432.569 570.157 440.112 565.372 441.832 564.996L442.635 566.6C441.982 567.545 441.425 568.625 441.034 569.705C441.779 570.549 442.421 571.906 442.635 573.008C442.187 573.927 440.602 574.739 439.631 574.809C439.397 575.928 439.373 577.182 439.532 578.313C438.762 579.619 436.932 580.302 435.483 580.844L435.471 580.848C435.318 580.905 435.169 580.961 435.026 581.016C434.551 581.969 434.566 583.081 434.581 584.185C434.602 585.682 434.622 587.165 433.424 588.225C432.781 588.794 431.959 589.019 431.127 589.247C430.188 589.505 429.237 589.766 428.518 590.527C425.651 595.648 428.242 598.003 430.133 599.72C430.819 600.343 431.413 600.882 431.62 601.439C431.914 602.231 431.999 603.408 432.092 604.689V604.69C432.341 608.114 432.644 612.287 437.127 611.852L438.328 610.65C438.186 609.765 437.777 609.034 437.374 608.313C436.851 607.378 436.338 606.46 436.426 605.244L437.328 604.242C438.191 604.851 439.052 605.91 439.531 606.846L441.531 606.746C442.087 605.644 441.817 604.516 441.542 603.369C441.358 602.599 441.172 601.822 441.232 601.039L442.334 599.838C442.407 598.52 442.217 596.872 441.734 595.633C443.181 594.849 444.349 593.35 445.134 591.93L446.836 591.627C447.833 592.743 447.71 595.484 447.596 598.022C447.529 599.526 447.464 600.959 447.639 601.94L449.439 602.539C450.584 602.031 452.324 601.908 453.545 602.139L454.147 600.438C453.735 599.175 453.443 597.844 453.245 596.533C454.319 596.429 455.177 596.882 456.067 597.353C457.183 597.942 458.349 598.558 460.053 598.135C460.533 597.179 460.448 595.365 459.954 594.432L458.15 593.73C456.902 592.45 456.777 590.966 456.651 589.479C456.56 588.401 456.468 587.323 455.949 586.32C455.117 585.614 453.807 585.04 452.744 584.818L451.945 583.217C452 582.971 452.072 582.626 452.158 582.218C452.586 580.186 453.344 576.586 453.848 575.807L454.448 577.709C455.215 579.659 456.163 580.296 457.201 580.994C457.825 581.414 458.482 581.855 459.153 582.617C460.74 584.421 461.342 586.077 461.87 587.533C462.854 590.243 463.585 592.256 469.965 593.229L469.164 592.428L468.865 590.725C469.851 590.089 470.824 589.419 471.768 588.721C471.306 587.773 470.458 587.378 469.609 586.982C468.882 586.643 468.154 586.304 467.664 585.617C467.318 585.134 467.049 584.439 466.783 583.751C466.584 583.238 466.387 582.728 466.16 582.312L466.56 580.912L468.263 580.211L468.164 578.309C467.334 577.545 466.552 576.694 465.861 575.805L466.261 573.902C466.956 573.203 467.825 572.886 468.698 572.568L468.698 572.567C469.496 572.277 470.296 571.985 470.967 571.4C470.281 570.614 469.228 569.807 468.264 569.398L468.866 567.695L470.467 566.895C474.468 566.767 474.509 570.22 474.543 573.078C474.548 573.503 474.553 573.916 474.571 574.301C474.647 575.962 476.122 582.689 476.973 584.014C478.971 582.091 479.389 579.79 479.746 577.827C480.024 576.302 480.264 574.982 481.178 574.203L482.38 574.902C482.999 576.422 484.725 579.339 486.686 579.107L487.586 578.207L488.988 578.105C490.492 576.545 490.729 572.708 489.889 570.801C489.453 570.447 488.911 569.935 488.328 569.385L488.328 569.384L488.327 569.384C487.086 568.213 485.66 566.867 484.686 566.494C483.807 566.158 482.953 566.042 482.117 565.927C480.619 565.723 479.182 565.526 477.775 564.09L478.677 562.99L481.179 562.889L481.38 561.287C480.278 561.044 478.974 560.476 478.076 559.785L477.275 558.184C477.879 557.337 479.092 556.493 480.078 556.18L482.082 556.582C482.924 557.23 483.711 558.091 484.283 558.986C485.161 559.478 486.671 559.893 487.688 559.785L488.889 558.684C488.178 556.927 488.631 555.789 489.156 554.47C489.341 554.006 489.534 553.52 489.69 552.977C489.882 552.302 489.987 551.57 490.092 550.839C490.419 548.566 490.745 546.298 493.694 545.77L495.295 546.369C496.524 548.849 495.165 550.987 493.491 552.777C493.012 555.618 493.02 559.564 493.092 562.488C494.472 562.652 495.916 562.599 497.296 562.488L497.798 563.891C497.271 564.514 496.567 565.03 495.861 565.547C494.642 566.44 493.417 567.338 493.092 568.799C493.362 569.774 493.831 571.01 494.493 571.801L496.596 571.902C498.368 571.036 498.583 570.181 498.881 568.993C498.986 568.574 499.102 568.114 499.299 567.598C499.501 567.071 499.901 566.503 500.298 565.939C500.597 565.514 500.893 565.093 501.102 564.693C502.175 564.424 503.255 563.95 504.206 563.393L503.606 561.49L504.104 560.086L505.707 559.287L506.207 557.385C505.163 555.099 504.525 552.249 504.104 549.773C505.458 550.015 506.838 550.182 508.209 550.275C509.61 549.035 509.311 547.448 509.011 545.855C508.811 544.795 508.61 543.733 508.91 542.768L510.31 541.766C511.271 542.234 511.705 543.127 512.146 544.034C512.465 544.69 512.787 545.353 513.314 545.869C514.911 546.406 516.854 546.274 518.639 546.152C519.115 546.12 519.579 546.088 520.023 546.07L521.324 547.172L521.123 548.775C521.442 549.381 521.798 549.964 522.155 550.546L522.156 550.547C522.735 551.494 523.314 552.44 523.727 553.479L522.827 554.883C519.689 556.45 516.857 554.206 514.816 552.076L513.814 553.58C513.977 555.42 513.314 557.415 512.213 558.887L512.312 560.688C513.972 560.958 515.553 562.502 516.018 564.094C514.905 565.477 509.771 565.942 508.01 565.896L506.807 566.797C506.948 568.12 506.155 569.322 505.415 570.444L505.414 570.445C505.199 570.771 504.989 571.091 504.807 571.404C504.913 571.724 505.023 572.044 505.133 572.363C505.678 573.943 506.223 575.521 506.307 577.211L507.609 578.311C508.403 578.217 508.909 577.753 509.442 577.266C510.063 576.696 510.72 576.095 511.912 576.01L512.914 574.607C512.688 572.877 512.667 570.227 514.016 568.902C514.981 569.606 515.276 570.757 515.568 571.896C515.89 573.153 516.209 574.395 517.42 575.008C518.9 575.104 520.571 575.032 522.023 574.709L522.627 573.006C522.124 571.944 522.007 570.137 522.227 569.002L523.426 567.799C524.442 568.096 525.901 568.194 526.932 567.9C527.335 566.078 527.979 564.3 528.732 562.594L530.135 562.092C530.206 563.064 531.017 564.649 531.936 565.096C534.138 565.361 536.122 563.893 538.095 562.433C539.462 561.422 540.823 560.415 542.248 559.99C542.321 560.822 542.593 561.608 542.862 562.388L542.862 562.389C543.224 563.437 543.583 564.475 543.449 565.596C540.506 565.733 539.495 566.663 538.436 567.638C537.743 568.277 537.029 568.934 535.738 569.4C534.696 569.776 533.58 569.984 532.463 570.192C531.541 570.364 530.618 570.536 529.734 570.803C529.27 571.826 528.643 572.836 527.932 573.705L528.031 575.607L529.531 576.51C530.94 576.342 532.351 576.106 533.738 575.809L535.24 576.709L535.84 578.611C536.926 580.186 539.586 580.319 541.247 579.815C541.46 579.388 541.707 578.969 541.954 578.548C542.608 577.435 543.268 576.313 543.348 575.008L542.748 573.107L543.248 571.604L545.449 571.404C546.294 570.822 546.977 569.197 546.953 568.199C547.636 567.385 548.528 566.62 549.455 566.098C549.563 567.74 550.026 570.185 551.557 571.104L551.459 572.807L550.057 573.705C549.253 575.143 549.048 575.984 548.875 576.694C548.59 577.863 548.392 578.678 545.75 581.215L545.85 583.117C546.765 582.985 547.663 582.776 548.559 582.566C549.748 582.289 550.934 582.012 552.158 581.916L552.859 583.518C552.507 584.806 552.312 586.187 552.257 587.522L553.06 589.225L554.762 589.826L556.363 589.025C557.446 585.287 559.635 578.353 564.674 578.412L565.674 579.713C565.487 580.621 565.03 581.368 564.573 582.115C564.116 582.863 563.658 583.61 563.473 584.52C563.786 585.507 564.626 586.718 565.473 587.322L565.873 589.326L564.472 590.324L561.97 590.426L559.765 592.83L559.367 594.733L560.068 596.434C561.124 597.012 562.243 597.518 563.371 597.936C564.284 597.814 565.221 597.672 566.172 597.528C570.022 596.946 574.103 596.329 577.789 596.832C578.015 595.302 580.691 592.559 581.994 591.727H583.394L583.996 593.531C583.926 593.865 583.852 594.199 583.777 594.533C583.411 596.183 583.044 597.838 583.096 599.537L581.895 600.738L579.793 601.039C579.292 601.986 578.579 602.918 577.79 603.643L575.686 603.944L574.286 602.942H572.383C571.461 603.441 570.453 604.364 569.881 605.244L567.979 605.744C566.649 603.969 563.243 603.272 561.17 603.643C560.365 604.767 558.665 606.252 557.164 605.947L556.264 604.545L554.264 604.645C553.403 605.391 552.224 606.054 551.159 606.447C550.388 607.645 549.835 609 549.291 610.335C548.486 612.307 547.699 614.237 546.254 615.559L544.352 615.658L543.35 614.254C543.35 613.43 543.522 611.642 543.684 609.959V609.958C543.851 608.212 544.008 606.578 543.952 606.246C543.152 605.46 542.015 605.188 540.893 604.921C539.045 604.48 537.237 604.048 537.044 601.34C538.249 600.658 541.177 600.85 543.85 601.026C545.399 601.127 546.862 601.223 547.856 601.141C548.695 600.649 549.517 599.2 549.557 598.236C550.233 598.186 550.949 598.264 551.669 598.343C552.957 598.483 554.257 598.625 555.364 598.035L554.692 597.102C554.419 596.72 554.101 596.458 553.781 596.195C553.535 595.994 553.288 595.791 553.061 595.533C552.392 594.773 551.96 593.826 551.528 592.88C551.139 592.026 550.75 591.173 550.188 590.459L549.456 589.525C548.23 588.86 546.658 588.796 545.166 588.734C544.573 588.71 543.992 588.686 543.45 588.625L542.747 589.826C543.081 590.401 543.486 590.914 543.889 591.424L543.889 591.425C544.497 592.195 545.102 592.961 545.452 593.93L544.95 595.332C544.59 595.346 544.21 595.352 543.82 595.358C542.107 595.385 540.188 595.415 538.743 596.133C537.524 594.938 537.411 593.313 537.297 591.674C537.18 589.989 537.061 588.288 535.739 587.021C533.86 585.22 531.968 585.138 530.203 585.061C528.967 585.007 527.794 584.956 526.732 584.318C526.034 583.9 525.528 583.31 525.021 582.719C524.427 582.026 523.832 581.332 522.927 580.914C521.276 581.084 520.131 582.407 519.096 583.604C519.004 583.711 518.912 583.816 518.821 583.92C517.663 583.765 515.67 584.075 514.718 584.82L514.114 586.523L514.616 588.324L515.317 588.824C516.688 590.389 518.395 591.923 520.124 593.33C519.338 594.015 518.529 595.071 518.12 596.035C518.974 596.721 519.768 597.558 520.422 598.436L519.92 599.938C518.079 600.709 518.039 602.197 517.997 603.708C517.969 604.751 517.94 605.805 517.321 606.645L515.317 606.246L514.917 604.344C514.013 603.925 512.476 603.855 511.515 604.043C511.121 602.739 510.823 601.383 510.613 600.037L508.911 599.436L507.909 598.135L507.81 596.232C508.973 595.026 510.03 593.478 510.413 591.828L509.913 589.926L508.611 588.924C507.665 589.103 506.347 590.066 505.907 590.928L504.405 590.426L503.602 588.822L502.001 589.123L500.8 590.326C498.837 589.547 493.497 587.736 491.588 587.824L489.986 588.725L490.386 590.527L492.189 591.127C492.713 591.845 493.156 592.614 493.6 593.384L493.6 593.385L493.6 593.385C493.98 594.045 494.361 594.706 494.792 595.334C496.276 595.215 497.814 595.186 499.298 595.334L500.097 596.436L499.197 597.936C499.043 599.034 499.355 600.96 500.097 601.842C500.627 602.268 501.294 602.552 501.958 602.834C502.866 603.219 503.768 603.602 504.302 604.346C502.406 605.046 498.111 606.195 496.193 606.045L494.691 605.246C494.575 603.906 494.312 602.521 493.893 601.242C493.367 600.992 492.747 600.824 492.118 600.655C490.908 600.328 489.663 599.992 488.986 599.037C488.792 597.974 488.147 596.613 487.383 595.836L485.582 595.232L483.379 597.635C478.119 598.459 477.257 599.197 475.435 600.758C474.642 601.438 473.666 602.274 472.064 603.342C472.591 604.044 474.15 604.569 474.969 604.645C476.776 604.153 478.597 603.462 480.176 602.441L481.879 602.941C482.939 605.727 485.56 606.631 488.106 607.51C488.217 607.548 488.329 607.587 488.439 607.625C488.555 607.665 488.67 607.706 488.785 607.746C489.048 608.807 488.833 609.472 488.591 610.218C488.479 610.563 488.362 610.925 488.283 611.352L488.257 611.492C487.471 615.767 486.973 618.471 481.377 618.16L480.775 616.258C481.37 614.42 481.63 612.37 481.377 610.449L479.975 610.051L478.674 610.951L477.172 610.149L475.569 610.85C475.319 611.873 474.575 613.166 473.768 613.856L472.064 613.652C471.52 613.075 471.108 612.325 470.694 611.571C469.95 610.216 469.199 608.849 467.66 608.447L466.859 609.848C467.146 611.099 467.514 612.351 467.961 613.555L466.56 614.557L466.16 616.459C467.15 618.083 467.742 620.173 467.86 622.062L466.461 623.064C465.161 623.266 463.408 623.215 462.155 622.764L460.855 621.561C460.85 620.263 460.705 618.931 460.453 617.658L458.953 616.758L457.551 617.357C456.904 619.089 454.893 620.022 453.145 620.059C452.126 619.431 450.976 618.929 449.84 618.559L448.039 619.16L447.639 621.061L449.139 621.863L448.739 623.766C449.141 624.633 450.253 625.711 451.144 626.066C451.883 626.875 452.139 628.756 451.845 629.773C451.115 630.606 450.342 631.409 449.542 632.176L447.839 632.076C448.317 629.596 445.995 627.849 444.237 626.568L442.335 627.068C442.273 628.274 442.411 629.3 442.532 630.203C442.863 632.671 443.07 634.215 438.732 635.982L437.628 635.078C437.722 633.903 437.947 632.717 438.232 631.574L437.23 630.572C435.36 631.334 432.868 632.883 431.222 634.076L429.021 633.979L428.218 632.375L426.316 632.475C425.292 634.76 423.206 641.282 424.816 643.387C426.083 644.257 428.113 643.879 429.764 643.571L429.765 643.571C430.142 643.501 430.498 643.434 430.822 643.387L432.324 644.289L432.924 645.59C431.799 646.86 430.387 647.95 428.92 648.795L428.32 650.496C427.51 651.199 426.741 651.648 426.069 652.042C424.277 653.09 423.172 653.736 423.814 657.705C423.338 658.722 422.637 659.604 421.928 660.494L421.928 660.495C421.225 661.378 420.515 662.271 420.011 663.312C419.419 664.537 419.24 665.802 419.064 667.049C418.885 668.312 418.709 669.556 418.109 670.719C417.682 671.545 417.095 672.283 416.518 673.009C416.041 673.608 415.571 674.199 415.204 674.824C414.81 675.497 414.6 676.405 414.4 677.264L414.4 677.265C414.305 677.674 414.213 678.072 414.105 678.428C412.672 683.119 412.599 688.015 419.009 687.842C421.355 687.778 423.171 686.288 424.722 685.015C425.783 684.144 426.72 683.375 427.619 683.234C434.95 685.86 437.564 679.859 439.815 674.694C440.883 672.243 441.869 669.981 443.238 668.916C444.57 668.505 445.964 668.213 447.341 668.014C448.665 666.264 450.452 665.431 452.203 664.615C454.059 663.75 455.874 662.904 457.052 661.006C458.012 659.459 458.219 657.708 458.428 655.941C458.565 654.782 458.702 653.616 459.054 652.497C460.846 646.796 468.096 641.407 473.972 641.084L475.374 641.984L475.776 644.088C474.97 645.217 473.552 645.869 471.977 646.594C469.9 647.549 467.55 648.63 465.966 651.096C464.881 652.783 464.937 654.698 464.992 656.592V656.592C465.017 657.442 465.042 658.287 464.964 659.106C464.872 660.071 464.523 661.057 464.178 662.03C463.879 662.875 463.584 663.71 463.464 664.512C462.351 671.918 471.478 670.758 475.977 669.918C478.829 666.809 493.129 652.052 496.802 653.598C495.765 658.116 481.965 669.834 477.78 672.721C477.172 673.14 476.401 673.559 475.604 673.992C474.182 674.765 472.678 675.582 471.872 676.525C465.702 677.349 464.939 676.64 462.753 674.611C461.87 673.791 460.755 672.756 458.958 671.52C457.924 671.231 455.979 671.455 455.153 672.219C454.43 673.323 454.023 674.356 453.599 675.428C453.345 676.072 453.086 676.729 452.749 677.426C452.194 678.573 451.458 679.483 450.706 680.412L450.706 680.412C450.385 680.809 450.061 681.209 449.747 681.633C449.31 682.222 449.037 682.89 448.765 683.557C448.602 683.955 448.44 684.353 448.243 684.734C447.855 685.487 447.322 686.137 446.79 686.788C446.258 687.437 445.726 688.087 445.339 688.838C443.654 692.103 440.614 699.691 441.538 703.156C442.326 704.325 444.141 704.619 445.656 704.865C446.045 704.928 446.414 704.988 446.741 705.058C448.786 708.314 447.738 710.302 446.708 712.254C446.138 713.334 445.573 714.404 445.542 715.672C445.516 716.665 445.854 717.525 446.185 718.364C446.556 719.307 446.917 720.224 446.741 721.279C446.651 721.821 446.442 722.346 446.228 722.883C445.976 723.518 445.717 724.17 445.641 724.883C445.45 726.71 447.006 734.822 448.044 736.496C450.104 739.815 452.848 739.919 455.384 740.015C457.049 740.078 458.625 740.137 459.858 741.101L462.661 745.506C463.074 746.171 463.265 746.852 463.455 747.528C463.595 748.027 463.734 748.524 463.962 749.01C465.108 751.456 469.592 752.857 472.071 752.615C472.698 752.553 473.333 752.388 473.975 752.222L473.976 752.221L473.977 752.221C474.636 752.05 475.303 751.877 475.975 751.812C477.612 752.375 478.528 753.078 479.35 753.709C481.059 755.021 482.364 756.022 488.893 754.818C489.888 755.26 490.937 756.044 491.694 756.82C493.398 757.057 496.172 757.07 497.3 755.519C497.626 755.624 497.943 755.731 498.251 755.837C498.638 755.97 499.011 756.103 499.375 756.232C502.979 757.51 505.619 758.447 509.817 756.019C512.1 753.265 512.93 745.716 511.419 742.601C511.058 741.858 510.507 741.12 509.959 740.385C509.413 739.654 508.87 738.925 508.517 738.197C506.901 734.865 505.148 728.258 506.514 724.681C506.872 723.748 508.14 722.427 509.086 721.442C509.322 721.195 509.539 720.97 509.716 720.777C509.916 720.715 510.121 720.649 510.33 720.583C512.568 719.868 515.259 719.009 517.327 720.476L517.425 722.277C516.4 723.552 515.288 724.164 514.143 724.793C513.378 725.214 512.599 725.643 511.821 726.283C510.107 732.382 513.986 739.142 517.626 743.702C517.906 744.867 517.735 745.712 517.55 746.628C517.463 747.058 517.373 747.505 517.325 748.007C517.201 749.305 517.449 750.59 517.697 751.875C518.001 753.448 518.305 755.021 517.927 756.62C517.595 758.018 516.925 759.235 516.243 760.472L516.243 760.472C515.518 761.788 514.78 763.126 514.425 764.728C515.474 766.72 515.91 770.279 513.523 771.536C513.675 775.175 509.301 778.135 506.013 778.343C502.487 778.579 501.677 780.553 500.767 782.767C500.374 783.724 499.963 784.726 499.306 785.652C498.417 786.102 497.477 786.417 496.537 786.733C495.714 787.01 494.891 787.287 494.101 787.654L493.497 789.357L493.899 791.458L494.136 791.617C495.494 792.524 496.905 793.468 498.504 793.861C499.059 794.667 499.479 795.309 499.826 795.839L499.827 795.84C501.36 798.183 501.438 798.303 505.214 800.568C508.815 802.729 510.482 801.555 512.532 800.112C513.781 799.233 515.171 798.254 517.227 797.867C517.401 797.265 517.538 796.645 517.675 796.023C517.953 794.76 518.233 793.49 518.829 792.359C520.941 790.904 524.818 788.069 524.936 785.249C528.623 774.04 533.834 771.126 538.193 768.689C540.84 767.209 543.173 765.904 544.659 763.025C545.307 761.768 545.274 760.614 545.238 759.408C545.215 758.614 545.191 757.799 545.36 756.917L546.76 756.417L548.463 757.118C548.917 756.451 549.128 755.674 549.337 754.906C549.608 753.908 549.875 752.924 550.666 752.212L551.568 751.81C552.337 752.646 553.049 753.565 553.67 754.515C554.291 754.49 560.715 752.718 560.979 752.511L561.879 751.111C561.638 749.5 560.757 748.505 559.881 747.517C558.841 746.343 557.809 745.179 557.875 743.001C558.312 743.016 558.769 743.053 559.236 743.092L559.446 743.11C562.097 743.337 564.996 743.586 566.183 740.599L566.785 742.4L568.488 743.002L570.391 742.502C571.305 741.505 572.403 740.453 573.534 739.372L573.535 739.371C575.7 737.3 577.98 735.119 579.301 732.992C580.377 731.258 580.618 729.238 580.853 727.265C581.075 725.401 581.292 723.578 582.205 722.078L583.606 721.976C584.297 722.866 585.079 723.717 585.908 724.48C585.937 724.719 585.971 724.985 586.009 725.273C586.056 725.622 586.108 726.004 586.164 726.412C586.645 729.92 587.383 735.301 586.707 737.498C585.56 738.69 584.103 739.681 582.688 740.643C582.216 740.963 581.75 741.281 581.301 741.601L580.703 743.205C581.197 744.33 582.308 745.127 583.458 745.952C585.518 747.43 587.706 749 586.707 752.714L585.207 753.916L583.203 753.516C582.977 753.309 582.751 753.102 582.524 752.896C581.529 751.99 580.533 751.083 579.602 750.111C578.141 749.699 574.668 751.762 573.492 752.715L572.791 754.416C572.855 755.156 573.018 755.889 573.18 756.62C573.467 757.913 573.754 759.202 573.492 760.523L572.191 761.523C571.137 761.52 570.128 761.21 569.115 760.898L569.114 760.898C568.347 760.662 567.578 760.425 566.785 760.32L564.482 762.724C564.03 762.996 563.653 763.089 563.306 763.175C562.688 763.328 562.164 763.457 561.476 764.527C560.626 765.849 560.607 767.188 560.587 768.606C560.559 770.573 560.528 772.694 558.277 775.141C557.031 776.495 555.641 776.767 554.331 777.023C553.288 777.227 552.296 777.421 551.469 778.144C550.975 779.187 550.845 784.58 550.719 789.812V789.814C550.621 793.855 550.526 797.8 550.267 799.568C550.069 800.917 549.456 802.15 548.85 803.368C548.044 804.986 547.253 806.577 547.465 808.377C548.395 810.148 550.293 810.801 552.102 811.424C552.535 811.573 552.963 811.72 553.371 811.881C561.225 814.976 563.339 811.014 565.438 807.08C566.526 805.041 567.61 803.009 569.488 801.973L569.791 803.674C569.554 804.209 569.259 804.937 568.918 805.773C567.497 809.266 565.3 814.665 563.383 815.988C562.044 816.913 560.235 817.22 558.489 817.517C557.536 817.679 556.601 817.838 555.772 818.092C553.98 819.414 553.141 822.987 554.573 824.799C555.517 825.44 556.946 825.904 558.076 826C559.274 825.764 560.333 824.984 561.375 824.219C562.202 823.61 563.019 823.009 563.883 822.697C564.753 822.383 565.709 822.297 566.677 822.21C567.839 822.105 569.02 821.998 570.092 821.494C571.035 821.05 571.815 820.274 572.57 819.523L572.57 819.522C573.264 818.832 573.937 818.162 574.696 817.791C575.303 817.745 579.43 814.586 579.801 814.086L580.203 812.186C580.667 812.912 581.398 812.284 582.246 811.558C582.831 811.057 583.471 810.509 584.115 810.324C584.628 810.178 585.378 809.841 586.242 809.453C588.042 808.646 590.338 807.615 592.016 807.615C593.086 807.615 594.198 807.489 595.227 807.326L598.232 804.383L603.146 797.723L608.951 786.11L610.385 783.783L612.084 781.026L612.609 780.174L613.584 778.367L633.25 741.914L634.107 740.258L647.445 714.416L652.57 701.187L658.146 686.806L666.195 669.119L671.119 662.293L688.255 638.547L692.097 634.105L698.505 628.912L701.244 626.695L703.464 626.119L709.359 626.129L711.341 625.635L719.785 625.926L732.466 627.588L733.431 628.205L741.002 628.898L748.656 629.601L752.156 629.404L760.621 624.597L764.349 623.535L765.14 622.976L765.523 621.795L780.291 614.101L782.564 612.92L819.012 593.949L819.279 593.81L827.283 582.732L836.84 568.109L838.434 568.328L840.049 570.353L843.576 572.121L847.221 570.853L850.561 569.695L854.385 569.656L857.818 570.17L867.979 574.308L875.689 572.74L881.35 572.918L887.35 578.757L891.17 582.478L895.891 584.316L897.961 584.453L902.557 581.896L903.555 581.152L907.141 578.476L915.559 575.726L918.662 575.461L922.816 576.679L926.295 578.472L928.344 579.531L931.213 579.504L936.139 578.357L945.187 574.976L948.037 573.222L950.209 566.922L951.551 565.89L955.465 566.718L960.443 570.517L962.082 571.158L963.4 571.67L969.359 571.437L971.918 563.406L973.758 564.019L974.84 560L976.07 555.441L977.019 554.572L978.113 552.283L977.859 550.48L976.97 549.23L974.286 552.08L973.243 551.224L972.419 548.013L973.433 545.572L975.005 543.047L976.374 544.998L978.595 543.724L981.068 543.783L982.921 546.357L985.001 547.127L985.167 547.91L984.068 549.644L982.328 551.152L982.103 552.88L982.666 553.505L984.103 553.73L986.447 557.793L987.478 557.783L989.857 555.958L992.566 556.093L994.699 554.035L996.133 554.181L996.382 555.199L994.25 557.65L995.293 558.663L994.67 560.318L995.08 561.962L995.885 562.664L997.799 563.039L998.467 563.533L999.482 564.283L1001.78 562.931L1002.6 565.357L1010.31 563.728L1014.23 562.433L1020.64 557.587L1023.99 558.267L1026.13 557.386L1025.53 542.867L1025.43 542.579L1023.89 538.092L1024.8 532.744L1026.12 529.516L1026.34 527H1026.34L1026.77 522.049L1025.89 512.715L1023.98 500.203L1023.77 498.836L1023.97 493.811L1025.64 484.924L1026.31 470.787L1028.92 459.381L1028.85 457.512L1028.82 456.871L1026.02 455.322L1004.75 449.928L999.615 447.305L997.363 445.283L993.974 441.072L992.879 437.565L991.752 433.947L990.531 431.289L989.084 430.123L984.515 428.045L981.634 427.283L980.441 427.451L972.269 424.147L969.853 422.049L966.841 415.875L964.912 414.481L960.992 413.573L960.465 413.542L951.57 413.032L948.207 411.959L945.998 409.112L943.332 405.209L941.039 399.026L940.393 397.576L940.268 392.985L943.034 389.901L945.744 389.565L948.526 388.361L951.129 384.776L952.28 379.85L954.817 377.787L962.657 377.508L972.053 377.172L976.981 375.11L977.756 372.338L977.662 370.766L976.279 367.639L974.432 366.004L974 365.158L974.404 362.943L976.642 363.162L980.626 362.342L982.945 362.637L984.308 363.569L984.921 369.689L986.65 370.851L988.431 369.423L993.302 360.12L995.042 358.22L996.073 357.82L996.753 358.802L997.368 359.691L997.622 361.576L997.173 365.189L993.636 371.812L995.083 372.82L999.318 373.416L1003.95 373.301L1005.78 372.344L1007.72 365.734L1009.22 364.387L1011.7 364.838L1015.56 368.342L1019.77 373.226L1022.16 374.492L1024.07 374.084L1025.97 371.795L1027.4 366.045L1029.16 361.482L1030.81 359.271L1032.63 358.936L1032.79 358.629L1033.44 357.357L1034.14 355.074L1035.96 353.566L1042.26 351.867L1043.29 350.759L1044.11 347.672L1044.44 346.431L1043.95 344.867L1043.83 339.923L1046.02 335.273L1045.68 332.136L1044.2 328.224L1043.36 323.363L1043.33 319.986L1051.3 308.773L1051.53 307.949L1052.39 304.84L1051.62 299.191L1045.66 285.267L1043.24 282.304L1038.4 278.183L1037.68 276.777L1036.41 269.8L1036.3 269.433L1033.45 260.248L1033.27 258.053L1032.04 253.978L1030.82 252.342L1029.71 243.875L1029.46 234.611L1027.64 227.564L1017.54 227.6L995.012 227.684L988.612 227.19L988.616 227.585L975.899 227.696H973.999L931.196 227.713L930.042 227.59L926.391 227.207L901.044 227.449L898.491 227.945L889.288 227.64L886.219 227.046L875.612 227.462L874.02 228.03L870.495 227.438L842.417 227.336L836.024 227.315L822.592 227.614L822.598 228.005L819.952 227.482L811.858 227.45L798.915 227.403L754.952 227.255L710.989 227.131L667.03 227.02H666.643L661.606 227.395L631.043 226.846L623.088 226.703L622.809 226.697L620.341 227.199L617.932 226.838L606.583 227.139L587.046 226.614L579.223 226.401L575.059 226.288L567.466 226.626L562.579 226.06L552.196 227.062L548.669 226.404H535.417L530.913 226.406L525.868 226ZM447.745 498.613L446.143 499.014C444.864 499.961 443.969 501.819 443.539 503.318L441.836 504.02C441.401 503.253 441.019 502.46 440.636 501.667L440.636 501.667C440.254 500.874 439.871 500.081 439.436 499.314H437.534C436.91 499.76 436.197 500.203 435.459 500.662L435.459 500.662C432.227 502.673 428.524 504.976 429.823 509.025L432.327 511.328L436.249 511.66C437.265 511.66 438.958 510.983 440.313 509.854C441.214 509.103 443.212 506.855 444.682 505.201C445.423 504.367 446.03 503.685 446.295 503.42C447.086 502.63 449.145 499.814 449.145 499.814L447.745 498.613ZM424.615 583.615C423.511 583.908 422.772 584.622 422.019 585.349L422.019 585.35C421.552 585.801 421.08 586.257 420.512 586.621C417.17 585.323 415.551 586.999 413.661 588.955C413.32 589.307 412.971 589.669 412.601 590.023L410.5 590.324C409.533 589.79 408.591 589.09 407.797 588.322L406.195 588.623C405.397 589.324 404.798 590.993 404.795 592.027C403.519 592.598 401.213 595.233 400.109 596.495L400 596.619C398.193 596.557 396.085 597.483 395.082 599.035L395.184 601.338L394.182 602.738C393.077 602.864 391.325 602.552 390.377 601.94C389.434 602.295 388.329 602.857 387.875 603.342C386.764 603.958 385.226 604.335 383.969 604.441C383.344 605.408 382.835 606.378 382.336 607.329C381.295 609.314 380.296 611.219 378.364 612.854C377.382 613.685 375.663 614.441 374.092 615.133C372.577 615.8 371.2 616.406 370.756 616.959C370.835 617.715 371.151 618.381 371.462 619.038C371.911 619.986 372.351 620.914 372.055 622.063C373.623 622.626 375.927 621.805 377.063 620.66L379.264 620.863C379.946 621.387 380.488 622.031 381.031 622.675C381.566 623.309 382.101 623.944 382.77 624.467L384.672 624.867C385.526 624.379 386.202 623.698 386.882 623.014C387.387 622.506 387.893 621.996 388.475 621.563L389.875 622.766C390.328 624.03 390.579 625.434 390.678 626.77L392.682 627.071C393.324 626.623 393.972 626.178 394.621 625.732C395.854 624.885 397.088 624.037 398.287 623.168L398.887 621.465L399 621.443L400 621.252L400.99 621.062L401.691 619.461C400.805 617.956 400.092 617.121 399.448 616.658C398.604 616.046 397.88 616.08 397.048 616.118C396.191 616.158 395.219 616.204 393.881 615.557L393.582 613.855L394.381 612.453C395.992 611.963 397.504 612.31 399 612.743V612.752C399.161 612.799 399.322 612.846 399.482 612.894L399.488 612.895C401 613.343 402.506 613.789 404.09 613.455C404.915 612.69 405.351 612.092 405.71 611.6C406.452 610.583 406.866 610.017 409.699 609.35L409.998 608.047L408.799 606.945L408.498 605.244C409.312 604.502 410.547 603.844 411.602 603.541L413.102 604.342L413.403 606.445C414.198 607.214 415.139 607.913 416.106 608.449L418.108 608.348L419.41 607.346L421.112 607.549C421.425 608.536 422.269 609.747 423.116 610.352L424.815 609.447L425.217 607.545C426.179 607.359 427.138 606.956 428.019 606.543L427.218 604.943L425.715 604.039V600.736C425.023 600.309 424.278 599.996 423.535 599.683L423.534 599.683C422.626 599.301 421.719 598.92 420.912 598.332C421.183 597.112 421.547 595.89 422.011 594.73L421.411 592.926C421.853 592.02 422.699 591.688 423.565 591.348C424.366 591.033 425.184 590.712 425.714 589.924C425.768 589.584 425.834 589.233 425.902 588.877L425.902 588.874C426.195 587.324 426.51 585.663 425.917 584.219L424.615 583.615ZM288.582 459.73C290.093 458.929 291.495 458.185 293.178 458.107C294.019 458.069 294.933 458.195 295.963 458.566C295.601 460.495 291.995 461.766 288.999 462.822C287.635 463.302 286.397 463.739 285.65 464.172C284.571 464.798 283.598 465.827 282.609 466.871C280.59 469.004 278.508 471.203 275.338 470.18C275.393 465.024 280.219 463.188 284.357 461.614C284.988 461.373 285.604 461.139 286.184 460.9C287.043 460.547 287.826 460.131 288.582 459.73ZM141.619 468.312L142.637 467.197L144.963 468.022L146.836 470.268L149.828 474.922L152.576 479.201L155.017 482.066L156.916 483.291L160.582 485.662L161.082 486.91L160.547 488.098L158.111 490.178L157.105 492.002L157.277 492.783L158.637 492.84L160.846 491.467L163.699 490.635L164.736 490.774L166.027 491.537L171.709 497.41L173.238 498.092L177.234 498.731L182.017 498.651L182.592 499.82L182.375 500.924L181.592 501.801L179.613 502.541L177.144 502.738L174.849 503.719L173.596 504.996L173.322 506.121L172.777 508.385L171.531 509.977L165.437 512.592L163.523 512.467L161.434 511.481L159.199 511.44L157.307 512.572L156.531 512.654L155.557 512.758L149.988 508.848L146.221 507.654L141.838 507.65L138.051 509.99L133.635 508.182L129.889 508.168L128.283 507.568L128.66 506.305L131.432 505.393L134.644 502.119L136.223 498.426L138.09 494.051L141.396 478.211L141.619 468.312ZM247.895 491.682C249.589 491.04 251.278 490.4 253.111 490.502L252.811 491.906C252.261 492.222 251.676 492.493 251.09 492.764C250.031 493.253 248.969 493.744 248.105 494.51L247.906 495.711C248.931 495.922 250.193 496.654 250.908 497.414L251.41 499.316C251.311 499.407 250.886 500.899 250.381 502.673C249.702 505.058 248.879 507.951 248.508 508.627C247.461 510.533 245.927 511.692 244.442 512.815C243.276 513.696 242.14 514.554 241.295 515.732C241.069 516.565 241.103 517.36 241.136 518.146C241.161 518.745 241.186 519.339 241.096 519.939C240.963 520.827 240.444 521.754 239.926 522.679C239.517 523.41 239.108 524.139 238.893 524.846C238.811 525.115 237.08 536.986 237.025 537.594C236.929 538.647 236.819 539.715 236.289 540.664L234.887 541.666C232.548 541.861 230.453 541.549 228.336 541.235C227.013 541.038 225.682 540.84 224.277 540.764C222.8 540.684 221.528 541.16 220.275 541.628C219.107 542.065 217.956 542.496 216.668 542.465C215.634 542.44 214.056 541.839 213.262 541.166C212.327 540.375 212.026 539.295 211.711 538.165C211.384 536.992 211.042 535.767 209.961 534.758C209.674 534.656 209.364 534.56 209.043 534.46C207.663 534.03 206.091 533.541 205.354 532.354C204.898 531.334 204.929 529.439 205.455 528.447C204.644 527.871 203.745 527.474 202.844 527.076C202.132 526.762 201.42 526.448 200.75 526.045C199.383 526.056 197.989 526.211 196.645 526.447C193.35 524.817 192.161 524.459 191.72 523.678C191.26 522.864 191.613 521.59 191.238 517.936C191.138 516.964 190.647 515.926 190.159 514.896C189.795 514.127 189.433 513.362 189.236 512.631C189.286 511.64 189.722 510.792 190.152 509.954C190.585 509.112 191.013 508.28 191.037 507.324C191.055 506.62 190.855 505.743 190.659 504.886C190.526 504.301 190.394 503.725 190.336 503.221C191.396 502.085 193.359 501.817 194.806 501.62L194.809 501.619C200.226 500.881 202.416 501.896 204.593 502.905C206.232 503.665 207.864 504.422 210.861 504.422C215.176 504.422 217.538 502.934 220.082 501.33C221.477 500.451 222.926 499.538 224.781 498.816C226.173 498.275 227.08 498.226 228.063 498.173C229.456 498.097 231.001 498.014 234.291 496.512L232.289 496.211L231.287 494.709L231.186 492.906C232.231 492.557 233.248 492.651 234.293 492.747C234.524 492.768 234.756 492.79 234.99 492.807C237.905 493.015 241.208 493.21 244.102 492.807C245.409 492.624 246.653 492.153 247.895 491.682ZM245.265 519.96C246.478 517.139 248.104 513.356 251.227 513.129C251.745 513.091 252.304 513.153 252.91 513.332C255.228 517.603 250.861 522.32 247.002 523.744L245.402 523.143L244.701 521.24C244.881 520.852 245.067 520.419 245.265 519.96ZM373.084 560.455C373.824 559.239 375.134 558.615 376.488 558.611C376.94 558.61 377.396 558.678 377.838 558.816L378.574 559.982C377.724 561.923 376.373 564.424 373.941 564.445C373.28 563.533 373.025 561.528 373.084 560.455ZM261.922 591.727L263.523 591.025L264.826 592.125C265.616 593.607 265.558 595.13 265.499 596.686C265.468 597.494 265.437 598.309 265.523 599.133C266.028 599.594 266.494 600.198 266.968 600.812C268.347 602.599 269.789 604.468 272.432 603.139L273.834 599.732C274.479 601.299 276.425 602.078 277.939 602.535C277.981 603.443 277.713 604.265 277.448 605.077C277.136 606.037 276.827 606.983 277.039 608.043L278.34 609.145L277.74 610.846L276.238 611.848L275.938 613.75L277.139 614.852L278.84 614.553L280.043 615.754L278.939 616.957C279.175 618.057 279.053 619.97 278.441 620.959C277.26 621.286 276.05 621.574 274.836 621.76C274.819 621.966 276.417 638.683 276.539 639.182C276.937 639.715 277.384 640.176 277.817 640.621C278.992 641.83 280.061 642.929 279.742 645.088L278.84 646.49C277.725 646.909 276.655 646.796 275.58 646.683C274.582 646.577 273.58 646.471 272.533 646.791C270.761 647.921 269.694 649.461 268.68 650.923C266.841 653.575 265.18 655.971 259.816 655.201C258.953 654.623 257.986 653.635 257.514 652.699L255.313 652.496L254.111 651.396L253.709 649.293L252.51 648.191C251.857 649.136 251.299 650.215 250.906 651.295L249.305 652.098L247.504 651.496L246.803 649.892L245.1 649.191L243.699 650.193C243.464 651.272 242.82 652.562 242.098 653.398C241.311 653.856 240.438 654.062 239.568 654.266C238.596 654.494 237.627 654.722 236.789 655.301C236.431 655.548 236.159 655.806 235.9 656.052C235.378 656.548 234.907 656.995 233.889 657.203L232.887 653.599L231.586 652.398C231.124 652.296 230.628 652.221 230.122 652.144C228.679 651.924 227.152 651.691 226.078 650.797C226.008 650.587 225.937 650.361 225.863 650.125C225.413 648.685 224.845 646.872 223.576 646.191C222.485 645.711 221.331 645.846 220.158 645.984C219.198 646.097 218.227 646.212 217.268 645.99L216.566 644.388C216.943 641.68 220.669 639.913 224.081 638.294C226.122 637.326 228.052 636.41 229.084 635.379C230.186 634.276 230.511 632.781 230.838 631.281C231.163 629.786 231.49 628.286 232.588 627.168C233.413 626.886 234.331 626.914 235.234 626.942C236.343 626.976 237.429 627.009 238.293 626.467L239.393 625.166C238.974 623.479 239.708 621.938 240.424 620.432C241.348 618.49 242.243 616.608 240.596 614.553L240.695 612.951C241.269 612.439 242.05 612.053 242.844 611.66C244.261 610.959 245.718 610.239 246.102 608.748C246.246 608.185 246.28 607.617 246.315 607.044C246.36 606.289 246.406 605.523 246.705 604.74C247.574 603.713 249.077 603.358 250.832 602.943C253.458 602.323 256.647 601.569 259.119 598.232C259.991 597.054 260.539 595.491 261.07 593.976C261.344 593.193 261.614 592.424 261.922 591.727ZM149.369 602.642C149.794 601.986 150.217 601.334 150.689 600.736L152.893 602.74C154.845 602.138 156.436 602.71 158.197 603.539C159.545 603.362 160.933 603.026 162.203 602.539C163.257 603.248 164.043 605.793 164.203 606.943L164.096 607.203C162.646 610.721 162.102 612.043 162.102 616.054L160.199 616.457C159.446 617.289 159.331 618.484 159.215 619.679C159.138 620.475 159.061 621.271 158.797 621.961C158.311 622.439 157.731 622.725 157.17 623.002C156.712 623.228 156.267 623.448 155.894 623.761C154.18 625.202 154.366 627.617 154.536 629.821C154.61 630.777 154.681 631.693 154.592 632.472C151.979 633.868 147.892 632.258 145.381 631.07L143.68 631.873C143.6 632.017 143.52 632.161 143.44 632.306C142.411 634.173 141.356 636.088 139.176 636.779L137.174 636.379C136.413 635.708 136.225 635.041 136.037 634.377C135.923 633.975 135.81 633.575 135.57 633.174C135.463 632.997 130.578 628.943 130.365 628.87C129.38 629.271 128.614 629.952 127.842 630.637C127.309 631.111 126.773 631.587 126.16 631.975L124.057 631.873C122.557 630.699 121.281 629.194 121.453 627.168L119.951 626.367C118.999 627.237 117.674 627.694 116.43 628.123C115.155 628.563 113.964 628.974 113.346 629.769C112.909 630.33 112.654 630.934 112.399 631.535C112.015 632.441 111.634 633.34 110.641 634.076C110.078 634.209 109.526 634.365 108.98 634.52C106.889 635.112 104.875 635.682 102.633 634.879C102.701 633.162 103.305 631.413 104.033 629.871C103.959 628.695 103.518 627.141 102.832 626.166L102.934 624.564C102.968 624.511 103.002 624.455 103.037 624.399C103.287 623.998 103.569 623.545 103.936 623.262L104.135 621.66L101.531 619.457L101.732 617.857C102.718 616.539 104.038 616.408 105.397 616.273C105.91 616.222 106.429 616.171 106.938 616.055C107.959 615.821 108.788 615.175 109.635 614.515C110.702 613.684 111.799 612.83 113.346 612.75C114.22 612.704 116.079 613.47 116.748 614.053C117.816 614.211 118.692 613.838 119.566 613.467C120.323 613.145 121.079 612.824 121.955 612.852C122.883 612.881 123.682 613.49 124.579 614.173C125.911 615.189 127.459 616.368 129.965 616.055C133.926 615.559 137.341 612.796 140.522 610.223C141.563 609.381 142.579 608.559 143.58 607.844C144.018 607.53 144.515 607.264 145.009 607C145.566 606.702 146.12 606.405 146.586 606.043C147.755 605.133 148.565 603.882 149.369 602.642ZM182.387 623.04C183.187 622.588 183.968 622.146 184.967 622.109C185.208 622.1 185.462 622.116 185.732 622.16C186.406 622.27 187.058 622.653 187.699 623.029C188.352 623.412 188.994 623.789 189.635 623.861L190.635 625.264L190.535 627.365C189.875 628.325 189.274 629.34 188.732 630.369C188.873 631.553 189.214 632.761 189.633 633.873C189.392 634.805 188.599 636.084 187.832 636.678L186.432 636.777L185.43 635.477L184.027 636.377C183.638 637.222 183.343 637.937 183.078 638.581C182.298 640.476 181.774 641.75 179.822 643.886C178.656 644.245 177.114 644.256 175.92 644.085L175.117 645.488C175.775 646.007 176.205 647.388 176.119 648.191C174.696 649.968 173.183 649.573 171.598 649.159C170.819 648.956 170.023 648.748 169.211 648.791C168.22 648.842 167.289 649.283 166.359 649.722C164.909 650.408 163.462 651.091 161.803 650.295C161.1 649.457 160.454 648.535 159.9 647.59C159.095 647.811 158.42 648.231 157.754 648.644C156.802 649.236 155.868 649.816 154.596 649.793L153.293 648.591C151.722 647.946 149.325 648.408 147.223 648.814C146.41 648.971 145.642 649.119 144.982 649.191C144.096 648.742 143.264 647.248 143.18 646.291C144.247 643.631 149.846 640.747 154.078 638.568C155.469 637.851 156.712 637.211 157.598 636.68C159.382 635.609 160.216 633.78 160.995 632.073C161.675 630.581 162.313 629.183 163.506 628.467C164.833 627.67 166.379 627.547 167.891 627.426C169.215 627.32 170.512 627.217 171.613 626.666C172.054 626.446 172.454 626.089 172.863 625.725C173.316 625.321 173.779 624.908 174.318 624.662C175.48 624.134 176.629 624.138 177.782 624.142C178.723 624.145 179.667 624.148 180.625 623.863C181.274 623.67 181.835 623.353 182.387 623.04ZM356.823 629.472C357.598 628.957 358.378 628.439 359.838 628.27L361.638 628.871C361.435 630.659 360.343 632.28 359.036 633.475L359.636 634.875C360.729 635.33 362.648 635.307 363.742 634.875L364.545 636.479L363.441 637.682C363.514 638.626 363.837 639.496 364.162 640.37C364.443 641.124 364.724 641.879 364.846 642.688C364.004 643.419 362.928 643.781 361.854 644.142C361.196 644.362 360.539 644.583 359.938 644.888C359.577 645.377 359.27 645.899 358.968 646.412C358.053 647.965 357.184 649.441 355.032 649.695C354.554 649.155 354.264 648.448 353.976 647.746C353.566 646.747 353.161 645.761 352.229 645.289C351.73 645.892 351.442 646.555 351.159 647.208C350.763 648.123 350.375 649.017 349.426 649.695C348.621 650.27 347.686 650.431 346.743 650.593C345.803 650.755 344.855 650.918 344.02 651.496L342.118 651.096C341.231 650.647 340.401 649.147 340.317 648.191C339.66 647.725 338.791 647.334 337.891 646.929C335.944 646.053 333.846 645.109 333.407 643.186L334.309 641.787C335.755 641.516 336.839 640.758 337.931 639.993C338.738 639.428 339.55 638.859 340.516 638.482L341.717 639.783L343.621 640.186C347.192 638.586 347.954 634.952 348.667 631.549L348.725 631.274L350.326 630.475C354.346 631.119 355.579 630.3 356.823 629.472ZM136.836 652.69L138.184 652.432L140.186 653.183L141.09 654.815L140.297 659.54L139.195 660.112L138.061 659.11L136.289 653.329L136.836 652.69ZM217.258 655.57C218.291 654.795 219.369 653.987 220.672 653.799C221.27 654.951 222.258 656.096 223.174 657.004C222.323 658.912 222.749 663.173 223.275 665.213C223.056 666.165 222.266 667.521 221.473 668.115L219.272 667.914C218.351 667.143 217.963 665.7 217.607 664.377C217.466 663.853 217.33 663.348 217.168 662.91L215.365 662.308L214.064 663.31L213.463 664.912L213.963 666.814C213.371 667.237 212.715 667.836 212.012 668.478C209.471 670.798 206.318 673.678 203.354 670.818C203.364 669.661 203.247 668.437 202.953 667.316C201.133 667.881 200.655 670.551 200.315 672.448C200.258 672.766 200.205 673.062 200.15 673.322L199.047 674.523L197.145 675.023L196.744 673.02L197.445 671.42L196.443 669.916C195.262 669.877 193.772 669.506 192.74 668.918L191.938 667.316C191.972 664.204 193.339 663.195 195.186 661.832C195.647 661.492 196.137 661.129 196.645 660.707C197.804 660.465 199.094 660.664 200.357 660.859C201.931 661.102 203.464 661.339 204.652 660.707C206.067 658.969 207.607 657.19 209.459 655.904H211.363C213.818 658.15 215.471 656.91 217.258 655.57ZM239.094 670.418C240.096 668.021 242.871 666.601 245.529 666.566C246.738 666.551 247.923 666.819 248.906 667.414C249.63 668.156 250.234 669.619 250.408 670.619C248.655 673.161 242.185 674.157 239.895 672.022L239.094 670.418ZM291.355 673.221C292.639 672.136 296.031 670.56 297.666 670.217L298.367 671.42C298.762 674.003 293.737 681.579 291.559 683.135C291.086 683.472 290.501 683.701 289.914 683.931C289.325 684.162 288.734 684.393 288.252 684.736C287.082 685.572 286.429 686.919 285.789 688.237C284.648 690.59 283.552 692.85 279.645 691.943L278.443 690.842C277.404 687.095 284.134 680.459 286.752 678.227C287.586 677.516 288.306 676.633 289.029 675.747C289.762 674.849 290.497 673.947 291.355 673.221ZM316.488 673.223C317.415 672.727 322.492 670.34 323.295 670.221L324.297 671.621L324.396 673.721C323.748 674.361 323.304 675.143 322.864 675.916C322.457 676.634 322.053 677.345 321.494 677.928C320.866 678.583 320.042 678.877 319.211 679.173C318.381 679.469 317.544 679.767 316.887 680.43C316.011 682.715 316.327 684.477 316.62 686.113C317.011 688.298 317.363 690.259 314.785 692.945L314.768 692.963C313.968 693.795 313.148 694.647 311.982 694.947C309.701 695.044 307.44 693.097 305.603 691.515C305.243 691.205 304.899 690.909 304.574 690.645C303.629 687.404 304.702 686.41 305.99 685.217C306.642 684.613 307.349 683.959 307.877 682.936C308.406 681.911 308.502 680.793 308.599 679.667C308.669 678.848 308.74 678.024 308.979 677.229C309.669 676.369 310.522 676.258 311.415 676.141C311.8 676.091 312.192 676.04 312.582 675.928C313.588 675.637 314.301 674.994 314.994 674.369C315.471 673.939 315.94 673.517 316.488 673.223ZM220.873 681.834C222.861 680.413 229.505 679.225 233.004 679.246C233.504 679.249 233.942 679.275 234.291 679.33L234.99 680.934C236.415 682.026 238.446 682.569 240.195 682.836L240.094 685.84L238.492 686.639L238.691 688.342L239.996 689.344L240.695 691.045L239.693 692.246C237.988 693.316 234.382 692.135 231.861 691.31C231.306 691.128 230.803 690.964 230.385 690.844C228.399 692.561 225.447 691.108 223.977 689.444L222.273 690.243C221.871 691.876 218.849 696.076 217.568 697.253C216.785 697.355 216.035 697.289 215.29 697.224C214.716 697.173 214.146 697.123 213.564 697.151C212.246 697.212 210.96 697.496 209.656 697.784C208.261 698.093 206.847 698.405 205.354 698.453L204.355 697.151C204.554 694.586 203.785 693.722 202.978 692.817C202.474 692.251 201.956 691.669 201.65 690.645L202.852 689.441L204.754 689.741L205.455 688.643C204.692 687.866 204.046 686.501 203.854 685.438L204.453 683.739L206.557 683.438C208.017 684.645 210.492 686.568 212.463 686.44L213.463 684.938L215.164 684.639C215.595 685.545 216.444 686.565 217.268 687.141L218.77 686.639C219.001 685.046 219.485 682.826 220.873 681.834ZM186.23 682.633L187.631 681.635C189.268 681.715 192.53 683.37 193.238 684.935L192.537 686.138C190.623 685.927 188.698 685.846 186.776 685.766C186.561 685.757 186.346 685.748 186.131 685.738L185.531 684.336L186.23 682.633ZM342.33 683.557L343.039 683.231L344.48 683.758L345.451 684.922L345.15 685.947L345.654 687.746L345.265 688.223L344.146 688.006L342.488 688.815L341.056 688.678L340.406 687.746L342.33 683.557ZM270.787 692.27L273.07 690.738L274.107 690.961L274.682 692.049L274.223 693.078L271.846 693.742L270.883 693.287L270.787 692.27ZM335.83 695.352L337.879 694.223L338.611 695.235L337.169 699.651L336.232 700.766L334.133 698.598L334.268 697.262L335.83 695.352ZM166.404 695.752C166.953 694.978 168.454 694.495 169.496 694.444C169.645 694.437 169.784 694.437 169.91 694.447L172.914 696.25L174.715 695.648L176.52 696.25C177.195 697.435 178.229 698.352 179.247 699.256C179.509 699.488 179.77 699.72 180.023 699.955C181.955 699.63 189.166 699.706 190.834 700.555L191.834 701.858C191.853 703.29 191.934 704.743 192.135 706.163C192.729 707.002 193.615 707.351 194.512 707.704C195.11 707.94 195.714 708.178 196.238 708.565L196.842 710.467C196.44 711.334 195.329 712.417 194.438 712.772L194.039 713.87C192.335 715.04 190.421 715.845 188.503 716.652C187.64 717.015 186.776 717.379 185.93 717.776L184.928 719.477C185.238 720.332 185.759 721.031 186.28 721.73C186.801 722.429 187.321 723.128 187.631 723.983L186.83 725.684C183.519 726.979 179.456 726.55 175.657 726.15C172.398 725.806 169.334 725.482 167.107 726.286C166.591 726.472 166.038 726.854 165.481 727.238C165.018 727.557 164.553 727.878 164.105 728.089L161.902 727.987C160.973 727.323 160.414 726.396 159.853 725.464C158.992 724.033 158.124 722.592 155.896 722.081C155.043 722.199 154.212 722.42 153.383 722.64C152.168 722.963 150.957 723.285 149.688 723.282L148.686 722.483C148.964 721.695 149.201 720.733 149.453 719.713C150.302 716.276 151.314 712.18 154.594 711.87L155.594 710.37L155.585 710.288C155.359 708.079 155.122 705.763 155.494 703.561C156.024 702.849 157.216 702.558 158.72 702.191C160.649 701.72 163.09 701.124 165.305 699.354C165.444 698.17 165.848 696.808 166.404 695.752ZM357.033 695.35L359.236 695.051C359.995 695.446 360.849 695.919 361.441 696.552C361.527 697.259 361.753 697.843 361.972 698.411C362.335 699.35 362.68 700.242 362.341 701.558C362.129 702.382 361.69 703.053 361.242 703.734C360.44 704.958 359.613 706.218 360.038 708.467C360.334 710.032 361.056 711.494 361.766 712.932C363.229 715.897 364.642 718.76 362.173 722.216C361.309 723.428 359.73 724.096 358.236 723.984C357.588 721.855 357.784 719.83 357.984 717.768C358.12 716.368 358.257 714.951 358.134 713.472C357.011 712.295 354.45 712.388 352.69 712.453C352.452 712.462 352.229 712.47 352.026 712.474L350.725 713.572V714.976L352.026 716.076L352.628 717.877C352.29 718.798 351.171 720.053 350.226 720.383C349.614 721.371 349.49 723.285 349.726 724.387L348.824 725.887L347.222 726.69L345.922 725.989C345.474 724.367 344.157 722.665 342.418 722.383C340.728 722.886 339.422 724.44 338.912 726.088L341.015 726.49L342.015 727.789C342.088 729.197 341.609 730.581 341.129 731.968C340.523 733.722 339.914 735.481 340.416 737.303L341.515 738.602L341.816 740.807C341.543 741.761 340.862 742.943 340.113 743.609L338.514 742.806C337.945 741.819 337.255 740.866 336.512 740.004L335.107 741.103L334.507 742.709L332.804 742.607C332.871 741.18 332.777 739.716 332.605 738.3L331.004 738.601C330.399 739.32 330.068 740.035 329.758 740.705C329.178 741.956 328.672 743.049 326.599 743.707L324.595 743.307L323.695 742.008C323.536 738.086 323.18 737.229 322.534 735.673C322.201 734.871 321.791 733.883 321.291 732.195L322.293 730.693L324.094 730.293L325.598 731.092L327.299 730.793C327.619 729.724 327.7 728.626 327.782 727.527C327.847 726.644 327.913 725.759 328.102 724.887L327.2 723.485C326.217 722.947 325.172 722.887 324.119 722.826C323.442 722.788 322.763 722.749 322.094 722.583C322.971 721.927 323.347 720.997 323.724 720.062C323.989 719.405 324.256 718.746 324.698 718.178C324.959 717.842 325.243 717.57 325.52 717.305C326.02 716.827 326.501 716.367 326.799 715.575L328.702 714.975L329.602 713.571C329.186 711.75 329.087 709.257 330.002 707.567C330.859 706.854 332.799 706.741 333.806 707.067C334.878 706.552 335.94 705.949 336.91 705.262C337.895 703.006 341.222 698.572 343.519 697.655C344.396 697.304 345.516 697.09 346.615 696.879C347.354 696.738 348.084 696.598 348.724 696.42C349.158 696.3 349.572 696.116 349.983 695.933C350.791 695.573 351.592 695.217 352.527 695.35L353.33 696.953L354.631 697.654C355.205 696.783 356.159 695.909 357.033 695.35ZM87.714 695.606C88.8192 695.511 89.9235 695.416 91.0156 695.15C94.5325 699.425 95.434 699.441 101.229 698.956L101.828 700.356C101.575 701.097 101.1 702.195 100.528 702.761C99.837 702.614 99.1123 702.419 98.3676 702.22C95.4075 701.425 92.1311 700.545 89.4144 702.259C88.8132 703.4 87.4056 704.313 86.0671 705.18C85.3499 705.645 84.6525 706.098 84.1097 706.565L82.4066 706.463L82.3046 705.061C82.6899 704.383 83.1994 703.69 83.7178 702.985C84.633 701.741 85.5756 700.46 85.9101 699.155C85.597 698.367 84.539 697.366 83.707 697.153L84.9082 695.951C85.8396 695.767 86.7771 695.686 87.714 695.606ZM295.561 696.449C295.853 696.377 296.158 696.335 296.475 696.318C297.482 696.266 298.596 696.461 299.723 696.658C301.077 696.894 302.448 697.134 303.672 696.952L305.172 697.852C305.628 698.895 306.206 699.934 306.875 700.855L306.572 702.758C305.774 703.347 304.11 703.526 303.17 703.36C302.704 704.417 302.751 706.303 303.17 707.364C302.137 708.82 301.382 710.696 301.17 712.469C301.332 712.912 301.513 713.342 301.692 713.767C302.286 715.179 302.86 716.542 302.67 718.176L301.268 719.278C301.216 722.472 301.874 723.51 303.771 725.885C304.211 730.76 300.448 730.844 296.876 730.924C295.356 730.958 293.87 730.991 292.758 731.393C292.173 731.604 291.685 731.859 291.227 732.099C290.092 732.692 289.139 733.191 287.352 732.694C286.386 732.426 285.748 731.722 285.062 730.963C284.258 730.076 283.388 729.114 281.846 728.688C281.664 727.77 281.714 726.245 282.145 725.385C281.107 725.54 279.252 725.223 278.443 724.483L277.742 722.882C278.068 722.613 278.471 722.344 278.88 722.069C279.5 721.655 280.135 721.229 280.547 720.78C281.82 719.391 282.367 716.784 282.883 714.32C283.354 712.075 283.8 709.948 284.748 708.965L286.752 708.363C287.249 707.372 287.691 706.304 288.137 705.227C289.713 701.423 291.336 697.505 295.561 696.449ZM109.939 699.955C110.518 699.787 111.161 699.719 111.838 699.723C113.516 699.73 115.397 700.166 116.988 700.536C117.323 700.613 117.645 700.688 117.949 700.755L118.047 702.156L116.648 703.259C115.112 703.416 113.471 703.403 111.943 703.157L110.439 703.96L109.439 703.56L109.141 701.455L109.939 699.955ZM213.664 732.191C214.473 730.662 215.713 729.119 217.568 728.988L219.07 729.891C219.525 730.935 220.104 731.971 220.773 732.893C221.443 733.161 222.371 733.345 223.316 733.533C224.737 733.814 226.196 734.104 226.881 734.699L227.781 736.301L227.582 738.4C227.074 739.217 226.444 739.553 225.771 739.912C225.447 740.085 225.113 740.263 224.777 740.502C221.337 742.96 221.901 745.394 222.63 748.536C222.784 749.196 222.944 749.888 223.076 750.617L222.273 752.018L222.975 753.619C223.136 753.678 223.301 753.738 223.47 753.798C225.468 754.516 227.918 755.395 228.482 757.626L228.281 759.827C227.288 760.428 225.367 760.54 224.277 760.225L223.875 761.627C226.872 762.677 227.634 766.909 227.781 769.639C229.338 770.887 229.322 773.752 229.082 775.547L228.182 776.945C227.225 777.467 226.205 777.831 225.184 778.194C224.44 778.459 223.695 778.724 222.975 779.051L222.375 780.75C222.894 782.384 224.367 783.635 225.68 784.655L225.277 786.055C224.662 786.615 224.011 786.9 223.344 787.191C222.958 787.359 222.568 787.53 222.176 787.758C221.426 788.193 220.788 788.648 220.19 789.076C218.402 790.352 216.966 791.376 213.963 790.862C209.389 787.488 208.048 788.158 205.838 789.26C204.862 789.747 203.718 790.318 202.051 790.663L202.028 790.595C201.465 788.926 200.821 787.016 199.545 785.756L199.447 783.952C200.135 783.021 200.756 781.999 201.248 780.952L200.748 779.149L199.147 779.45C198.791 780.686 195.521 786.056 194.541 786.757C195.344 786.943 196.421 787.755 196.844 788.458L196.645 790.161L195.242 791.061C193.9 791.24 192.255 791.199 190.938 790.862C190.268 790.007 190.069 788.174 190.334 787.159L188.533 786.956C184.854 789.643 181.643 787.088 178.794 784.82C178.327 784.448 177.87 784.085 177.422 783.753C176.264 782.895 175.246 782.436 174.328 782.023C172.491 781.195 171.058 780.549 169.713 777.247C164.144 774.169 159.122 766.195 165.107 760.927C166.331 759.85 167.615 759.324 168.925 758.787C169.747 758.45 170.58 758.108 171.414 757.624C171.767 757.419 172.126 757.205 172.492 756.987C174.776 755.626 177.296 754.126 179.924 753.919L181.527 754.62L181.428 756.221C180.662 756.714 179.78 756.996 178.904 757.276C177.447 757.742 176.003 758.203 175.119 759.624L174.918 761.227C176.827 762.144 178.535 761.125 180.16 760.157C180.531 759.936 180.897 759.718 181.26 759.526C182.119 759.071 183.108 758.674 184.111 758.271C185.667 757.646 187.256 757.008 188.438 756.122C190.299 754.725 189.747 752.272 189.156 749.645C188.721 747.709 188.264 745.678 188.736 743.907C190.229 741.742 193.256 741.565 195.682 741.422C195.805 741.415 195.926 741.408 196.045 741.401C196.821 740.943 197.222 740.224 197.622 739.509C198.064 738.717 198.504 737.929 199.447 737.499L201.051 738.399L201.752 740.002L203.252 741.002L204.855 740.602L205.855 739.2C206.045 738.115 205.675 737.141 205.313 736.188C204.574 734.242 203.871 732.39 208.059 729.889L209.961 730.289C210.595 731.213 211.265 732.12 211.963 732.994L213.664 732.191ZM249.694 731.047C250.403 730.718 251.022 730.431 251.883 730.447C252.049 730.45 252.224 730.465 252.41 730.493C256.083 733.284 254.644 735.951 253.158 738.706C252.696 739.562 252.229 740.426 251.91 741.306C252.084 743.288 253.017 745.063 253.992 746.917C255.08 748.987 256.22 751.156 256.414 753.823C256.539 755.534 255.473 759.714 254.613 761.231C253.46 763.266 251.923 765.153 250.378 767.047C248.653 769.164 246.919 771.291 245.703 773.647C245.51 774.02 245.397 774.326 245.297 774.594C245.049 775.262 244.888 775.696 243.801 776.349C242.698 777.011 241.131 777.246 239.895 776.851L238.594 775.849L238.094 773.946L238.492 772.544C238.27 771.826 237.584 771.309 236.864 770.766C236.238 770.294 235.586 769.802 235.189 769.142C232.93 765.374 234.543 756.245 238.594 754.122C237.332 754.263 236.083 754.253 234.834 754.244C233.229 754.231 231.623 754.219 229.984 754.524L228.582 753.622L227.883 750.019C227.575 749.697 227.246 749.39 226.917 749.083C225.981 748.21 225.043 747.334 224.578 746.112L224.777 744.011C225.854 743.064 226.321 742.204 226.844 741.241C227.089 740.792 227.345 740.32 227.682 739.806C227.971 739.364 228.406 738.942 228.843 738.518C229.219 738.153 229.596 737.787 229.887 737.403L231.785 736.801C232.143 735.884 233.437 734.817 234.389 734.598L236.092 735.299L237.992 734.699C238.316 733.778 239.402 732.59 240.297 732.197C241.278 732.111 242.239 732.119 243.189 732.127C245.113 732.143 246.993 732.159 248.906 731.394C249.189 731.281 249.447 731.161 249.694 731.047ZM261.922 734.297L264.023 733.096C265.377 733.061 266.823 733.23 268.127 733.596C268.889 734.499 269.528 735.524 270.173 736.558C270.757 737.494 271.345 738.437 272.033 739.303C275.463 739.862 275.712 742.559 275.956 745.207C276.08 746.55 276.203 747.881 276.738 748.914C277.847 749.405 278.988 749.842 280.141 750.215C279.925 751.508 279.872 752.916 280.043 754.219L281.242 755.522V757.424C278.407 760.855 279.812 768.996 282.545 772.242C283.363 772.408 284.006 772.05 284.648 771.691C285.29 771.332 285.932 770.973 286.75 771.139C288.148 774.278 287.961 779.86 284.746 781.853C283.346 781.797 281.901 781.603 280.543 781.251C279.164 782.895 274.999 783.352 273.234 782.251L272.836 784.154L271.133 784.957C269.539 784.902 268.151 783.226 267.629 781.851L266.025 781.15C265.055 781.214 263.639 781.79 262.92 782.453C261.925 782.607 260.067 782.313 259.318 781.551C258.363 781.541 257.565 781.94 256.755 782.344C255.488 782.977 254.19 783.625 252.209 782.752L252.811 781.551C252.847 780.611 252.198 779.176 251.508 778.547L252.408 777.045C253.91 776.459 255.34 776.569 256.746 776.678C257.912 776.768 259.06 776.857 260.219 776.547C261.921 775.321 262.268 774.355 262.537 773.606C263.021 772.261 263.252 771.619 270.631 771.44C271.27 770.475 271.814 769.35 272.133 768.236L271.332 766.633C269.926 765.411 265.831 764.708 264.023 765.031L262.621 766.033C261.991 766.956 261.722 768.759 261.922 769.838L261.021 771.34C254.65 769.085 261.986 757.799 264.822 755.322L264.525 753.719C260.939 750.956 257.753 743.09 259.217 738.701C259.491 737.878 260.159 736.927 260.805 736.007C261.225 735.409 261.635 734.824 261.922 734.297ZM376.059 780.652L379.662 780.453L380.865 781.455C380.811 782.431 381.177 783.33 381.549 784.245C381.877 785.05 382.209 785.867 382.265 786.758L381.365 788.16C380.277 788.721 379.175 789.26 378.059 789.76C377.955 789.924 377.852 790.089 377.749 790.255C376.964 791.51 376.166 792.788 375.156 793.867C374.068 794.276 372.137 794.344 371.051 793.867C369.664 793.003 368.572 790.893 368.85 789.262C369.413 788.748 370.047 788.411 370.669 788.079C371.572 787.599 372.451 787.131 373.055 786.158C373.374 785.645 373.56 785.036 373.743 784.433C373.914 783.873 374.083 783.319 374.355 782.853C374.56 782.505 374.836 782.213 375.116 781.917C375.47 781.542 375.83 781.16 376.059 780.652ZM341.727 793.646L342.5 792.377L344.807 792.502L346.191 794.678L346.779 796.789L345.555 799.791L343.961 799.424L341.834 795.527L341.727 793.646ZM357.294 806.053C357.578 804.694 357.876 803.269 358.738 802.277L360.141 802.779C360.145 805.563 361.229 806.455 362.605 807.587C363.124 808.014 363.685 808.476 364.244 809.086L363.644 810.787L362.242 811.889C359.45 812.191 357.415 810.223 356.936 807.584C357.075 807.104 357.184 806.583 357.294 806.053Z" fill="black"/>
</g>
<defs>
<clipPath id="clip0_41_297">
<rect width="1052" height="1052" fill="white"/>
</clipPath>
</defs>
</svg>
