<svg width="338" height="337" viewBox="0 0 338 337" fill="none" xmlns="http://www.w3.org/2000/svg">
<path fill-rule="evenodd" clip-rule="evenodd" d="M295.025 315.079L295.17 313.828L295.508 312.72L295.652 311.854L295.797 311.276L295.942 310.169L296.377 308.869L296.473 308.243L296.763 307.81L297.536 305.98L298.115 303.958L298.308 302.418L297.97 298.759L297.825 297.989L297.342 296.544L297.149 296.207L296.522 295.437L295.459 294.571L294.735 293.8L293.866 293.367L293.19 293.078L291.645 292.212L291.017 291.393L290.148 290.912L288.892 289.419L288.072 288.745L285.706 286.338L284.836 285.472L283.726 284.749L282.519 284.22L281.312 283.835L279.766 282.776L279.332 282.246L279.235 281.572L279.477 281.091L279.863 280.754L280.587 280.417L281.312 280.176L281.939 279.887L283.243 279.069L283.822 278.78L284.209 279.02L285.464 278.491L285.609 278.539L285.416 279.839L284.885 280.657L284.643 281.235L284.402 281.62L284.209 282.487L284.305 283.305L284.74 284.268L285.561 285.183L286.623 285.953L287.106 285.809L287.347 285.905L287.54 286.242L287.83 286.386L288.361 286.483L288.072 286.916L288.603 287.301L289.037 286.675L288.844 286.434L289.086 286.386L290.148 287.205L290.003 287.59L290.534 287.927L291.21 288.071L292.514 288.168L292.804 287.782L292.997 287.831L291.886 289.082L292.079 289.371L291.886 289.66L292.224 290.719L292.562 290.815L292.948 290.767L293.286 290.527L293.576 290.478L294.204 290.767H294.494L295.508 290.286L295.314 290.623L295.797 291.008L297.053 291.489V291.971L297.342 292.163L297.825 292.212L297.97 292.404L298.356 292.212L298.308 291.826L298.839 292.212L298.405 293.126L297.825 293.56L297.584 294.33V295.148L297.68 295.341L297.777 296.159L298.067 296.785L298.26 296.737V297.459L298.55 297.989L298.308 298.952L298.405 299.674L298.839 299.963L298.791 300.492L298.936 300.637L298.646 301.311L298.743 301.84L298.646 302.322L298.791 302.61L298.598 303.188L298.694 303.333L298.501 303.814L298.453 304.247L298.26 304.873V305.692H298.55L298.212 306.51L298.356 306.703L298.26 307.28L297.777 308.339L296.86 309.784L296.618 310.41L296.184 311.18L296.087 311.469L296.232 311.758L295.894 312.769L295.701 313.202V313.587L295.508 314.502V315.368L295.701 315.513L295.846 316.283L295.797 316.668V317.775L295.942 318.064L296.039 319.653L295.99 320.231L296.328 320.808L296.039 321.145L296.328 321.579L296.28 322.301L296.618 322.445L296.328 322.686L296.232 323.023L296.28 323.504L296.618 323.456L297.101 322.879L296.86 323.504L297.294 323.601L297.584 323.264L297.97 323.119L297.922 323.36L298.115 323.938L299.081 323.841L299.274 323.601L299.129 323.167H299.467L299.95 322.83V322.205L299.419 321.434L299.226 321.386L299.032 320.857L299.95 320.712L300.384 320.423V320.183L300.771 319.605L301.254 319.075L301.592 318.498L301.543 317.631L301.736 317.246L302.219 316.716L303.861 313.876L304.972 312.817L304.923 312.624L305.599 312.528L306.613 312.046L307.386 311.613L307.917 310.939L308.11 311.035L308.69 310.554L309.366 309.832L309.655 309.399L309.897 309.35L310.283 308.773L310.138 308.339L310.331 307.617L310.283 307.04L309.462 306.317L309.366 305.595L309.076 305.114L308.979 304.536L308.593 303.621L307.965 302.659L307.144 302.129L306.662 301.936L306.227 301.888L306.13 301.599L306.565 300.492L307.048 299.481L307.676 297.748L307.82 297.074L308.062 296.544L308.69 295.389L309.752 294.185L310.669 292.934L311.152 292.019L312.214 290.238L312.746 288.793L312.89 287.879V287.157L312.456 286.386L312.214 286.097L311.152 285.472L309.897 284.605L308.738 283.883L307.386 283.353L306.227 282.583L305.744 282.198L305.068 281.572L304.489 280.85L304.247 280.465L303.523 278.828L303.137 277.384L302.847 275.843L302.364 274.88L302.074 274.495L301.447 274.11L300.433 273.917L299.226 273.965L298.984 273.869L299.032 273.099L298.888 272.425H299.274L300.191 272.762L301.592 273.58L302.606 274.495L302.895 274.976L303.088 275.795L303.378 277.384L303.571 278.25L303.909 279.117L304.682 280.224L305.648 281.331L306.855 282.246L307.482 282.583L308.786 283.498L310.331 284.749L311.635 285.568L312.504 285.857L312.987 286.242L313.277 286.723L313.663 288.071L313.711 289.179L313.566 289.949L313.132 291.201L312.697 292.019L312.118 292.934L311.2 294.137L310.476 295.004L309.897 295.485L309.269 296.159L308.979 296.641L308.786 297.267L308.738 297.844L308.4 299.722L308.448 301.262L308.496 301.936L308.593 302.322L309.221 303.381L309.752 305.018L310.042 305.547L310.959 306.125L312.166 306.703L312.504 307.521L313.325 308.725L313.277 308.869L312.89 309.447L312.311 310.073L311.152 311.18L309.993 312.143L308.303 313.154L307 313.78L305.986 314.454L304.682 315.85L303.909 316.668L303.04 317.872L302.606 318.642L302.123 319.605L301.64 320.471L300.771 322.301L300.674 322.734L300.24 323.264L299.37 323.89L298.936 324.082L298.356 324.227L297.342 324.275L296.522 323.986L296.039 323.456L295.846 322.493V321.675L295.701 320.664L295.604 319.268L295.701 318.883L295.314 317.15L295.073 315.802L295.025 315.079Z" fill="black"/>
<path fill-rule="evenodd" clip-rule="evenodd" d="M42.8773 139.984L42.7324 139.84L42.7807 139.406L41.9116 138.829L40.8976 138.395L40.2699 138.01L38.8213 137.24L38.1453 137.047L38.0004 137.24H37.6142L37.5659 136.855L37.8073 136.518L37.5176 136.133L37.083 135.892L36.6484 136.229L36.8416 135.699H37.0347L38.1453 136.421L38.6282 136.614L39.6422 136.807L40.801 137.288L41.6702 137.432L42.0082 137.288L42.7324 136.566L43.0222 136.084L43.3602 136.566L43.8913 137.529L44.1327 138.155L44.0844 138.636L44.181 139.021L44.5673 139.214V139.406L44.0844 139.888L43.4567 140.08L42.8773 139.984Z" fill="black"/>
<path fill-rule="evenodd" clip-rule="evenodd" d="M30.081 134.592L29.067 134.543L28.4392 134.351L27.715 133.918L27.5701 133.436L27.0872 133.003L26.0732 131.414L25.7352 131.173L25.4455 131.51L25.011 131.366L24.5764 130.548L24.6247 129.97L24.335 129.296L24.3832 128.863L24.6247 128.477L25.1558 128.429L25.2041 128.237L24.8178 128.14L24.4798 127.948L25.0592 127.803L25.7352 126.841L26.0732 126.552L25.6387 128.14L25.5904 129.055L25.687 129.97L25.8801 130.403L26.363 131.077L27.6184 132.329L28.1012 132.666L29.5981 132.955L30.7087 133.147H31.6744L32.6401 133.34L33.5575 133.821L32.3504 133.484L31.3847 133.629L30.6121 133.918L30.3707 134.11L30.081 134.592Z" fill="black"/>
<path fill-rule="evenodd" clip-rule="evenodd" d="M30.7088 15.1012L29.2602 16.2085L29.0188 16.5936L27.7634 17.8453L26.9425 18.9045L26.3631 19.771L25.3491 20.5413L24.5765 20.8783L24.0454 20.6376L23.9971 20.3006L24.5765 19.4822L25.1559 18.9526L25.9285 17.7972L26.4596 16.6417L27.2322 15.4863L27.7634 14.9086L28.4394 13.9939L28.6325 13.5606L29.3085 12.6459L29.7431 12.4052L30.1776 12.2607H30.8054L31.5296 12.4533L32.3988 12.9829L32.6402 13.3199L32.2539 13.5606L32.0125 13.3199H31.5296L31.5779 13.6087L32.3505 13.8013L31.9159 14.2827L30.7088 15.1012Z" fill="black"/>
</svg>
