<svg width="1000" height="1000" viewBox="0 0 1000 1000" fill="none" xmlns="http://www.w3.org/2000/svg">
<path d="M757.933 605.758C757.616 606.049 757.293 606.406 757.189 606.816C757.259 607.192 757.236 607.65 757.733 607.659C758.054 607.707 758.534 607.764 758.781 607.559C759.071 607.259 759.05 606.782 759.013 606.396C758.875 606.077 758.862 605.596 758.658 605.367C758.354 605.31 758.175 605.624 757.933 605.758ZM758.655 490.288C759.139 487.715 759.644 485.142 760.308 482.611C760.902 481.42 761.531 480.243 762.283 479.142C762.823 478.318 763.551 477.632 764.087 476.798C764.261 476.483 764.674 476.231 764.694 475.869C764.557 475.14 764.548 474.406 764.563 473.662C764.415 473.281 764.255 472.914 763.784 472.924C763.429 472.919 763.01 472.962 762.69 473.119C761.718 473.858 760.666 474.53 759.927 475.516C759.477 476.121 758.874 476.598 758.244 476.993C757.831 477.212 757.263 477.246 757.101 477.756C756.572 478.528 756.244 479.419 755.806 480.238C755.211 480.853 754.624 481.506 754.216 482.249C754.129 482.845 754.169 483.483 753.78 483.979C753.259 484.989 752.479 485.847 751.841 486.776C751.608 487.615 751.168 488.43 751.269 489.325C751.334 490.107 751.539 490.888 751.82 491.617C752.079 492.108 752.218 492.694 752.737 492.985C753.381 493.509 754.024 494.067 754.728 494.5C755.099 494.567 755.513 494.567 755.66 494.986C755.972 495.22 755.824 495.849 756.31 495.816C756.804 495.706 757.34 495.763 757.817 495.687C758.143 495.449 758.47 495.21 758.54 494.782C758.789 494.338 758.438 493.843 758.377 493.381C758.162 492.904 758.236 492.404 758.315 491.903C758.365 491.355 758.542 490.826 758.655 490.288ZM761.423 595.556C760.773 596.032 760.073 596.556 759.225 596.509C758.663 596.447 758.239 596.823 757.779 597.08C757.236 597.181 756.689 597.438 756.154 597.176C755.71 597.009 755.218 597.142 754.77 597.209C754.375 597.376 753.985 597.695 753.586 597.771C753.208 597.576 752.821 597.443 752.396 597.566C751.681 597.7 750.887 597.252 750.242 597.729C749.787 597.895 749.411 598.172 749.114 598.558C748.673 598.858 748.235 599.168 747.736 599.368C747.758 599.706 747.584 600.235 747.243 600.021C747.257 599.563 747.245 599.106 747.145 598.653C747.608 598.196 748.16 597.7 748.861 597.795C749.261 597.757 749.683 597.619 750.043 597.462C750.405 597.262 750.362 596.809 750.647 596.599C751.611 595.927 752.263 594.917 752.954 593.983C752.925 593.468 752.591 592.906 752.948 592.444C753.21 591.734 753.961 591.362 754.235 590.647C754.834 590.376 755.42 590.004 755.872 589.537C756.102 589.289 756.163 588.589 756.597 588.889C757.145 589.151 757.841 589.042 758.27 589.528C758.638 589.833 759.074 590.109 759.515 590.261C759.866 590.171 760.349 590.328 760.537 589.933C760.964 589.947 761.483 589.885 761.844 590.085C762.122 590.466 762.142 590.79 761.679 591.005C761.258 591.062 760.992 591.253 760.963 591.705C760.768 592.177 761.344 592.163 761.499 592.506C761.734 592.811 762.14 592.906 762.298 593.292C762.493 593.507 762.48 594.14 762.819 594.078C763.377 593.84 764.008 593.778 764.602 593.707C765.079 593.883 765.582 593.807 766.073 593.888C766.433 593.54 766.749 593.149 767.239 592.982C767.707 592.635 768.214 592.301 768.772 592.125C769.495 592.02 770.12 592.434 770.679 592.839C771.097 593.001 771.316 592.506 771.621 592.439C772.168 592.768 772.813 592.93 773.436 592.739C774.116 592.859 774.808 592.868 775.494 592.935C775.825 592.882 776.295 592.949 776.33 593.354C776.503 593.726 776.076 594.05 775.765 594.174C775.056 594.541 774.271 594.188 773.577 593.959C773.204 593.745 772.821 593.573 772.382 593.65C771.868 593.726 771.333 593.397 770.865 593.716C770.486 593.888 770.185 594.198 769.752 594.259C768.9 594.574 767.996 594.779 767.086 594.655C766.022 594.655 764.954 594.622 763.893 594.622C762.975 594.66 762.223 595.16 761.423 595.556ZM714.297 404.667C713.979 405.087 713.49 405.415 713.38 405.954C713.078 406.306 713.096 406.735 713.116 407.169C713.085 408.103 713.187 409.051 713.346 409.961C713.526 410.257 713.754 410.729 714.144 410.624C715.116 409.594 716.064 408.537 716.983 407.469C717.217 407.036 717.435 406.597 717.391 406.092C717.416 405.239 717.565 404.377 717.512 403.528C717.393 403.142 717.502 402.613 717.049 402.442C716.756 402.361 716.281 402.475 716.035 402.699C715.414 403.314 714.872 404.005 714.297 404.667ZM736.059 385.607C734.832 385.459 733.561 385.421 732.369 385.13C732.068 384.83 731.61 384.615 731.658 384.125C731.62 383.767 731.2 383.553 730.867 383.529C730.534 383.534 730.134 383.791 730 384.115C729.613 384.83 729.113 385.502 728.433 385.959C728.103 386.221 728.143 386.731 727.968 387.093C727.799 387.608 727.925 388.17 727.886 388.704C728.254 389.481 728.597 390.272 728.75 391.125C728.929 391.692 728.888 392.321 728.839 392.897C728.467 393.55 728.082 394.198 727.501 394.694C726.92 395.237 726.399 395.847 725.72 396.276C725.4 396.605 725.577 397.024 726.036 397.029C726.524 397.133 727.027 396.843 727.529 396.819C728.15 396.667 728.777 396.628 729.409 396.728C730.002 396.79 730.558 397.043 731.136 397.181C732.059 398.058 732.79 399.106 733.597 400.088C733.79 401.818 733.574 403.552 733.499 405.282C733.419 406.006 732.99 406.607 732.546 407.155C732.206 407.483 732.176 407.874 732.737 407.841C733.635 407.812 734.477 407.46 735.326 407.202C736.323 406.645 737.357 406.14 738.367 405.62C738.803 405.196 739.165 404.667 739.772 404.486C740.176 404.377 740.421 404.124 740.476 403.705C740.725 402.942 740.617 402.113 740.745 401.327C740.833 400.431 741.07 399.549 741.509 398.758C741.794 398.12 742.35 397.648 742.755 397.086C743.609 396.609 744.49 396.195 745.428 395.914C746.625 395.575 747.873 395.404 749.072 395.084C749.937 394.679 750.834 394.313 751.658 393.846C752.052 393.317 752.665 392.907 752.772 392.216C753.09 391.52 752.991 390.753 752.985 390.01C752.842 388.737 752.759 387.46 752.799 386.178C752.804 385.302 752.773 384.41 752.672 383.548C752.594 383.038 752.05 383.276 751.831 383.562C751.5 383.958 751 384.091 750.501 384.024C750.069 383.896 749.712 383.524 749.484 383.124C749.022 382.847 748.492 382.5 747.95 382.771C747.44 382.89 747.249 383.51 746.757 383.7C745.996 384.063 745.734 384.92 745.258 385.54C744.829 385.988 744.326 386.388 743.776 386.65C743.106 386.807 742.473 386.512 741.873 386.255C740.409 385.954 738.931 385.721 737.434 385.688C736.976 385.659 736.517 385.63 736.059 385.607ZM918.002 339.861C919.35 339.26 920.677 338.603 922.101 338.203C923.067 337.864 924.075 337.626 924.94 337.059C925.825 336.611 926.7 335.92 927.748 336.049C928.356 336.149 928.752 335.567 929.129 335.181C930.015 335.072 930.901 335.11 931.788 335.181C932.501 334.881 933.208 334.562 933.989 334.495C934.446 334.452 934.831 334.886 935.309 334.857C935.859 334.972 936.409 335.034 936.958 334.876C937.755 334.724 938.556 334.614 939.37 334.662C939.88 334.924 939.753 335.572 939.862 336.049C940.177 336.316 940.523 336.373 940.903 336.211C941.347 336.244 941.599 335.653 942.039 335.872C942.507 335.82 942.572 336.306 942.845 336.563C943.045 336.978 943.49 336.83 943.86 336.849C944.237 336.835 944.517 336.492 944.294 336.134C943.956 335.896 943.685 335.606 943.587 335.191C943.413 334.8 943.684 334.362 943.703 333.947C943.973 333.637 944.237 333.323 944.669 333.271C945.013 333.17 945.477 333.385 945.574 332.899C945.851 332.494 946.373 332.198 946.31 331.65C946.318 331.15 946.569 330.659 946.896 330.292C947.095 329.992 947.639 329.887 947.642 329.516C947.707 329.106 947.005 329.173 947.248 328.648C947.192 328.286 946.946 327.976 947.051 327.571C947.343 327.185 947.984 327.362 948.372 327.066C948.778 326.895 949.235 326.614 949.404 326.218C949.271 325.827 949.333 325.479 949.609 325.175C949.71 324.803 950.189 324.622 950.464 324.922C950.863 325.17 951.33 325.484 951.812 325.284C952.161 325.036 952.422 324.631 952.821 324.422C953.13 324.226 953.581 324.426 953.774 323.998C954.234 323.683 954.024 323.078 953.874 322.644C953.807 322.277 953.745 321.786 954.262 321.815C954.658 321.624 954.908 322.12 955.221 322.287C955.505 322.444 956.031 322.33 956.068 321.934C956.286 321.615 956.789 321.563 956.947 321.186C957.366 320.853 957.916 320.538 957.981 319.957C958.126 319.504 957.671 319.347 957.384 319.104C957.08 318.889 956.641 318.784 956.799 318.317C957.282 318.032 957.841 318.146 958.375 318.127C958.839 317.679 958.163 317.736 957.839 317.636C957.384 317.579 956.895 317.503 956.45 317.541C955.904 317.951 955.182 317.87 954.534 317.889C954.157 318.127 953.797 318.503 953.392 318.637C952.744 318.537 952.3 317.86 951.6 317.984C951.22 317.97 950.709 318.46 950.445 318.012C950.139 317.503 950.45 316.835 950.081 316.335C949.526 315.539 949.762 314.52 949.709 313.609C949.657 313.104 949.464 312.614 949.315 312.123C948.389 311.861 947.419 312.066 946.476 311.903C946.044 311.88 945.671 311.565 945.541 311.151C945.386 310.655 944.781 310.617 944.392 310.36C943.768 310.283 943.143 310.217 942.521 310.121C942.094 309.754 942.187 309.168 942.127 308.663C942.164 308.082 942.054 307.472 942.182 306.91C942.422 306.314 942.811 305.771 943.269 305.337C943.739 305.118 944.23 305.023 944.747 305.075C945.127 305.232 945.451 305.661 945.829 305.766C946.158 305.642 946.571 305.48 946.755 305.199C946.721 304.865 946.812 304.365 946.544 304.155C946.156 303.917 945.511 303.855 945.495 303.288C945.522 302.926 945.886 302.673 946.247 302.63C946.583 302.497 947.067 302.778 947.257 302.359C947.908 301.768 948.215 300.886 948.947 300.381C949.715 299.647 950.769 299.323 951.58 298.642C952.259 298.566 952.937 298.513 953.612 298.642C953.962 298.58 954.454 298.814 954.629 298.394C954.95 298.132 954.994 297.718 954.895 297.346C954.631 296.936 954.322 296.474 954.268 296.007C954.47 295.692 954.529 295.192 954.996 295.216C955.446 295.006 955.976 295.216 956.413 295.044C956.926 294.797 957.303 294.377 957.685 293.963C958.54 293.739 959.431 293.691 960.305 293.662C960.88 293.534 961.37 293.2 961.723 292.728C961.319 292.771 960.827 292.576 960.551 292.971C960.039 293.329 959.398 293.005 958.824 293.062C958.446 293.162 958.014 293.219 957.743 292.862C957.438 292.676 957.306 292.176 956.881 292.295C956.214 292.347 955.446 292.605 955.114 293.219C955.125 293.658 954.815 294.034 954.368 294.053C953.841 294.106 953.259 293.924 952.815 294.296C952.281 294.63 951.672 294.797 951.088 295.016C950.26 294.711 949.392 294.525 948.505 294.592C948.074 294.639 947.75 294.22 947.526 293.896C947.293 293.624 947.535 293.091 947.075 293.005C946.633 292.666 946.038 292.824 945.604 293.1C944.907 293.605 944.163 294.053 943.4 294.463C943.044 294.735 942.654 294.916 942.199 294.916C941.338 294.925 940.682 295.564 939.859 295.735C939.156 295.85 938.677 296.417 938.07 296.722C937.782 296.922 937.347 297.236 937.401 296.626C937.366 296.107 937.532 295.535 937.157 295.106C936.807 294.801 936.234 294.806 935.779 294.687C934.596 294.673 933.408 294.711 932.231 294.539C931.858 294.458 931.397 294.52 931.127 294.782C930.734 295.368 930.278 296.055 929.51 296.107C929.144 296.274 928.793 295.997 928.715 295.635C928.524 295.278 928.787 294.811 928.426 294.52C928.195 294.229 927.745 294.11 927.396 294.082C926.804 294.21 926.304 294.563 925.984 295.078C925.48 295.702 924.534 295.859 924.199 296.636C923.925 296.955 923.741 297.484 923.247 297.465C922.843 297.551 922.438 297.656 922.067 297.408C921.399 297.66 920.74 298.027 920.013 298.146C919.468 298.27 918.912 297.98 918.36 297.937C917.897 298.061 917.471 298.394 916.964 298.437C916.466 298.59 915.965 298.69 915.451 298.551C915.007 298.509 914.564 298.47 914.203 298.185C913.507 297.846 912.714 297.57 911.942 297.718C911.112 298.251 910.181 298.613 909.437 299.276C908.985 299.671 908.334 300.076 908.451 300.772C908.444 301.32 908.831 301.797 908.845 302.354C909.095 303.107 909.413 303.85 909.628 304.608C909.553 305.814 909.482 307.072 908.966 308.172C908.652 308.787 907.889 308.92 907.542 309.507C907.093 310.021 906.894 310.703 906.67 311.336C906.518 312.018 906.241 312.647 905.869 313.238C905.314 314.167 904.363 314.772 903.557 315.473C903.024 315.887 902.479 316.326 901.871 316.607C900.291 317.064 898.728 317.598 897.138 318.012C895.802 318.155 894.481 318.432 893.235 318.946C892.621 319.189 891.905 319.17 891.319 319.447C890.62 320 889.971 320.667 889.083 320.895C888.672 321.072 888.179 321.029 887.845 320.714C887.443 320.481 886.92 320.576 886.466 320.509C885.758 320.533 885.022 320.39 884.367 320.733C883.602 321.043 882.795 321.229 882.008 321.448C881.33 321.853 880.701 322.363 879.91 322.52C879.17 322.725 878.381 323.011 877.611 322.844C877.164 322.654 876.714 322.482 876.218 322.554C875.82 322.535 875.434 322.782 875.132 323.021C874.633 323.516 873.988 323.859 873.634 324.493C872.978 325.327 872.665 326.375 872.277 327.352C872.08 328.062 871.874 328.767 871.525 329.42C871.546 329.906 871.872 330.264 872.115 330.654C872.53 330.645 872.796 330.902 873.033 331.207C873.359 331.565 873.456 332.017 873.437 332.489C873.589 333.475 873.318 334.448 873.198 335.42C872.882 336.187 872.512 336.935 872.443 337.774C872.119 339.718 871.691 341.657 871.623 343.63C871.687 345.031 871.453 346.418 871.328 347.809C870.526 348.857 869.967 350.077 869.13 351.097C868.471 351.836 867.725 352.493 867.029 353.199C866.52 353.756 866.039 354.333 865.715 355.024C865.423 355.605 865.433 356.32 865.178 356.911C864.49 357.616 863.663 358.164 862.859 358.726C862.495 358.578 861.981 358.874 862.391 359.126C862.787 359.174 863.178 359.226 863.352 359.636C863.616 360.032 863.853 360.461 864.335 360.623C864.668 360.689 865.104 360.561 865.422 360.418C865.933 360.137 866.249 359.612 866.716 359.293C867.074 359.145 867.431 358.888 867.794 359.174C868.123 359.331 868.493 359.055 868.82 358.974C869.257 358.774 869.546 358.421 869.783 358.011C870.122 357.544 870.633 357.211 871.095 356.868C871.618 356.487 872.235 356.305 872.811 356.039C873.374 355.662 874.009 355.295 874.708 355.391C875.515 355.414 876.334 355.348 877.068 354.985C877.466 354.895 877.775 354.69 877.947 354.309C878.581 353.537 878.849 352.55 879.008 351.578C879.179 351.059 879.263 350.397 879.816 350.154C880.512 349.973 881.17 349.701 881.765 349.291C882.448 349.01 883.202 348.853 883.727 348.295C884.698 347.49 885.528 346.503 886.558 345.77C887.633 345.222 888.661 344.583 889.703 343.983C891.123 343.568 892.536 343.092 893.99 342.825C894.681 342.791 895.389 342.539 896.055 342.83C896.641 342.92 897.131 343.311 897.681 343.473C898.939 343.378 900.199 343.368 901.459 343.382C902.31 343.077 903.111 342.582 904.036 342.563C905.022 342.429 906.025 342.324 906.989 342.091C907.909 341.705 908.801 341.233 909.694 340.804C910.577 340.742 911.464 340.452 912.34 340.695C913.037 340.823 913.733 340.962 914.443 340.847C915.284 340.895 915.98 340.328 916.792 340.194C917.195 340.085 917.599 339.97 918.002 339.861ZM950.213 291.494C950.583 291.28 951.146 291.127 951.176 290.627C951.064 290.265 950.872 289.931 950.436 290.012C949.967 290.155 949.609 290.617 949.651 291.118C949.634 291.404 950.004 291.442 950.213 291.494ZM951 331.898C950.625 331.803 950.022 331.574 949.863 332.084C950.159 332.322 950.58 332.222 950.784 332.432C950.946 332.175 951.808 332.132 951.141 331.946C951.094 331.932 951.047 331.912 951 331.898ZM949.556 332.561C949.204 332.422 948.746 332.808 949.042 333.123C949.339 333.333 949.855 333.199 949.854 332.78C949.832 332.694 949.634 332.637 949.556 332.561ZM863.68 365.636C863.206 365.474 862.698 365.512 862.304 365.841C862.106 366.007 861.537 366.25 861.871 366.546C862.709 366.76 863.605 366.703 864.38 366.308C864.928 366.188 864.433 365.798 864.124 365.75C863.987 365.664 863.833 365.659 863.68 365.636ZM584.952 322.077C584.899 321.543 584.794 320.838 585.258 320.462C585.491 320.333 585.056 319.723 585.504 319.685C585.546 319.342 584.656 319.766 584.884 319.375C585.201 319.328 585.584 319.013 585.06 318.837C584.758 318.594 584.071 318.98 584.354 319.371C584.469 319.776 584.382 320.209 584.59 320.586C584.688 321.105 584.65 321.653 584.653 322.187C584.512 322.53 585.053 322.954 585.113 322.468C585.059 322.339 585.006 322.206 584.952 322.077ZM533.912 329.277C533.377 329.43 532.823 329.401 532.282 329.454C531.81 329.482 531.554 329.902 531.221 330.178C531.551 330.364 531.671 330.831 531.341 331.069C530.916 331.512 530.198 331.517 529.745 331.107C529.304 331.021 529.415 330.521 528.985 330.44C528.716 330.278 529.1 329.682 529.442 329.916C529.868 330.221 529.876 329.354 529.473 329.349C529.084 329.13 528.626 329.263 528.201 329.225C527.933 329.449 527.947 330.04 527.495 329.897C526.962 329.83 526.417 329.883 525.919 330.073C525.515 330.326 525.042 330.697 525.212 331.241C525.217 331.87 525.954 332.103 526.475 332.179C526.817 332.151 527.017 331.727 527.406 331.87C527.758 332.089 528.104 332.022 528.45 331.865C529.027 331.679 529.624 331.75 530.17 331.998C530.6 331.936 530.866 332.351 531.286 332.322C531.479 332.804 531.405 333.352 531.754 333.771C532.008 334.209 532.227 334.705 532.73 334.9C532.986 335.31 533.476 335.277 533.123 334.814C532.727 334.49 532.524 333.957 532.737 333.471C532.918 332.932 532.689 332.294 533.124 331.846C533.481 331.126 534.115 330.431 534.962 330.373C535.098 329.992 534.782 329.582 534.634 329.225C534.286 329.053 534.169 328.853 533.912 329.277ZM300.199 691.002C300.31 690.311 300.322 689.596 300.724 688.996C300.807 688.467 301.026 687.933 300.787 687.409C300.683 686.985 300.647 686.518 300.246 686.256C299.906 685.846 299.51 685.513 299.012 685.313C298.365 685.003 297.773 684.526 297.027 684.512C295.912 684.302 294.79 684.169 293.656 684.155C292.802 684.15 291.926 684.107 291.085 684.174C290.598 684.46 290.052 684.679 289.77 685.198C289.339 685.88 289.153 686.699 288.793 687.428C288.505 687.981 287.998 688.396 287.715 688.963C287.471 689.339 287.028 689.696 287.036 690.154C287.265 690.53 287.439 690.964 287.9 691.102C288.714 691.598 289.644 691.865 290.54 692.17C291.254 692.327 291.991 692.398 292.703 692.513C293.556 693.051 294.474 693.494 295.403 693.861C296.154 693.861 296.931 694.09 297.647 693.785C298.362 693.518 299.206 693.69 299.739 694.238C300.271 694.328 300.913 694.295 301.249 693.814C301.234 693.38 301.527 692.908 301.208 692.532C301.007 692.184 300.494 692.236 300.254 692.031C300.167 691.693 300.207 691.345 300.199 691.002ZM140.604 671.238L133.03 671.274L117.352 676.754H117.169C115.458 677.11 113.677 676.778 112.097 676.072C111.081 675.922 110.018 676.355 108.974 676.278C107.959 676.212 107.346 675.179 106.901 674.356C106.778 673.638 105.944 673.349 105.831 672.755C105.923 671.682 106.814 670.849 107.33 669.936C108.485 668.635 109.774 667.375 111.296 666.509C111.325 665.404 110.769 664.392 110.31 663.418C109.758 662.088 109.03 660.864 108.148 659.728C106.949 657.852 105.508 656.153 103.844 654.674C100.497 652.313 97.2961 649.748 93.9577 647.372C92.6229 646.938 91.2037 646.691 89.8502 646.277C88.7268 646.115 87.8052 645.488 86.8727 644.887C84.1264 643.657 81.5146 642.146 78.7472 640.958C77.116 640.331 75.5616 639.508 74.2582 638.329C73.5544 637.465 72.41 637.485 71.4159 637.203C70.0834 636.394 68.5103 636.341 67.0208 636.025C64.4354 635.272 61.9056 634.304 59.3128 633.559C57.4592 632.928 55.5295 632.566 53.5721 632.494C51.2658 632.534 49.0367 631.919 46.7814 631.525C45.5977 631.123 44.3271 631.503 43.1649 631.038C41.7055 629.847 40.3601 628.447 39.0194 627.101C39.1095 626.406 38.8022 625.597 39.2551 625.005C39.9268 623.686 41.0411 622.717 41.9242 621.551C42.6369 620.474 43.8048 619.804 44.4231 618.665C45.2003 617.769 45.2734 616.57 45.7248 615.522C45.8654 614.8 46.7495 614.573 46.9519 614.148C46.507 613.224 47.3565 612.403 48.22 612.227C49.5451 612.096 50.7884 611.527 51.8697 610.757C53.0633 610.158 54.0177 609.225 55.1111 608.486C56.8401 607.607 58.0083 606.014 59.468 604.781C60.5323 604.075 61.3618 603.123 62.1248 602.109C63.9214 599.641 66.4174 597.764 68.0518 595.17C69.4757 593.431 70.6311 591.4 70.9028 589.138C70.9484 588.127 71.3522 587.084 71.0958 586.093C70.613 584.757 70.6239 583.252 69.8896 582.022C69.1556 582.239 68.2229 582.453 67.6984 581.738C67.1481 581.01 66.2817 580.719 65.419 580.528C64.8491 580.105 64.4275 579.26 64.6648 578.543C64.9 577.956 65.0456 577.181 65.8388 577.231C66.5792 577.189 67.0988 576.722 66.9874 575.98C67.0338 575.307 68.0247 574.852 67.427 574.214C67.6351 573.327 68.4394 572.55 69.0746 571.86C69.7755 571.66 70.6405 571.838 71.402 571.777C72.3196 571.671 73.1819 571.878 74.0065 572.275C74.6695 572.706 75.2745 572.411 75.7978 571.92C76.0095 571.203 76.5062 570.747 77.1785 570.453C77.8885 569.718 79.1431 569.96 79.7083 569.047C80.1841 568.367 80.8917 568.626 81.5582 568.823C81.621 569.826 83.1903 569.824 83.5804 569.085C83.8961 568.342 84.3249 567.308 85.2861 567.477C85.701 568.135 86.31 568.334 87.0587 568.203C87.6991 567.972 87.6468 567.01 88.5003 567.107C89.8247 567.581 91.2201 567.111 92.4884 566.679C93.1256 566.15 94.0213 565.947 94.8198 566.065C95.7978 566.734 96.9918 566.418 98.1011 566.488C99.4674 567.237 101.066 566.826 102.543 566.822C104.185 566.761 105.88 566.811 107.352 567.629C108.31 567.856 109.365 567.663 110.361 567.727C111.032 568.288 111.912 568.441 112.64 568.895C113.145 569.429 113.846 569.18 114.435 569.504C115.675 569.749 117.023 569.345 118.229 569.888C118.918 570.302 119.736 570.722 120.211 571.372C120.546 571.888 119.486 572.444 120.475 572.935C121.088 573.167 121.853 572.969 122.472 572.73C123.339 572.732 123.662 573.812 124.49 574.006C126.133 574.707 127.983 575.091 129.345 576.315C130.301 577.26 131.45 578.029 132.801 578.233C134.374 578.468 135.732 579.291 137.142 579.971C139.042 581.235 140.839 582.667 142.905 583.664C144.183 584.49 145.695 585.033 146.696 586.216C150.524 587.474 154.107 589.34 157.713 591.114C159.867 591.998 162.116 592.673 164.357 593.316C166.881 594.137 169.538 594.401 172.18 594.471C174.617 594.721 177.051 594.45 179.486 594.317C181.366 593.25 183.357 592.403 185.291 591.442C188.898 589.789 192.351 587.803 195.573 585.489C196.446 585.148 195.978 583.933 196.792 583.5C197.565 583.505 198.434 583.577 198.979 582.924C199.81 582.141 201.022 581.74 201.556 580.687C201.695 579.671 201.73 578.574 201.67 577.531C201.399 576.491 202.235 576.929 202.617 577.459C203.457 577.842 204.613 577.839 205.359 577.21C205.605 576.105 206.714 575.461 206.836 574.303C206.514 573.474 206.747 572.628 207.033 571.825C207.685 571.769 208.334 571.652 208.99 571.682C210.362 571.651 211.974 571.781 212.987 570.688C213.592 569.922 214.4 570.668 215.099 570.837C216.604 570.644 217.941 569.734 219.245 568.975C220.508 568.471 221.507 567.515 222.788 567.06C224.103 566.657 224.724 565.298 225.943 564.737C227.03 564.311 227.899 563.546 228.795 562.819C230.22 561.735 231.122 560.159 232.438 558.959C232.063 557.996 231.293 557.119 231.483 556.01C231.832 555.26 231.402 554.361 231.882 553.679C232.745 552.505 233.863 551.491 234.616 550.222C235.265 549.689 234.811 548.926 234.605 548.285C234.973 547.398 236.221 547.421 236.729 548.17C237.049 548.996 237.917 548.596 238.534 548.411C239.004 547.985 239.55 547.601 240.247 547.761C241.033 547.921 241.927 547.105 242.586 547.722C243.076 548.194 243.419 548.799 243.206 549.502C243.125 550.24 242.384 551.025 242.837 551.729C243.636 552.58 242.472 553.511 242.301 554.39C242.071 555.636 241.382 556.678 240.58 557.63C239.206 559.117 237.734 560.587 235.974 561.609C235.3 561.706 234.988 562.733 234.338 562.48C233.46 562.286 234.87 561.342 234.569 560.933C234.275 560.47 233.698 559.722 233.127 559.926C232.295 560.196 232.269 561.223 231.521 561.62C229.998 563.466 228.28 565.179 226.29 566.53C224.428 567.847 222.255 568.615 220.312 569.78C219.276 570.602 218.047 571.117 216.856 571.64C216.316 571.855 215.22 571.731 215.501 572.601C215.308 573.19 215.772 574.197 216.393 573.508C217.686 573.258 218.609 572.143 219.879 571.808C220.423 571.358 221.249 571.731 221.671 571.213C222.294 570.802 222.064 569.935 222.609 569.521C223.206 569.197 223.69 570.001 224.364 569.728C224.893 569.921 225.922 569.805 225.563 569.029C225.649 568.117 226.579 568.573 226.899 569.109C228.758 568.887 230.718 568.548 232.277 567.465C233.062 567.162 232.859 566.399 233.089 565.856C233.963 565.435 233.732 564.434 233.782 563.646C234.408 563.305 234.08 564.673 234.139 565.137C234.609 566.401 234.647 567.8 235.11 569.083C235.693 570.16 236.696 570.994 237.525 571.902C238.346 572.954 239.433 573.85 239.95 575.1C240.189 576.255 239.915 577.504 240.157 578.685C240.143 579.198 240.17 580.322 239.419 580.116C238.749 580.417 238.195 581.116 237.874 581.781C237.784 582.644 236.883 582.754 236.214 582.972C235.49 583.395 234.637 583.066 234.077 582.522C233.442 582.336 232.576 582.121 231.975 582.477C231.132 582.902 230.645 583.676 230.343 584.541C230.192 585.232 229.753 585.694 229.148 586.035C228.553 586.173 227.81 585.953 227.277 586.544C226.634 586.859 226.286 587.541 226.604 588.217C226.609 588.97 225.763 589.117 225.718 589.885C225.034 591.351 224.701 592.937 224.705 594.552C224.762 595.823 224.636 597.162 225.116 598.366C225.502 599.91 226.292 601.281 227.053 602.663C227.669 604.287 229.366 605.071 230.28 606.487C231.401 608.328 233.186 609.643 234.239 611.528C235.515 613.402 236.942 615.268 238.893 616.482C240.412 617.727 242.221 618.482 243.961 619.354C244.733 619.644 245.367 620.105 245.805 620.811C246.957 621.806 248.38 622.474 249.823 622.938C251.8 623.444 253.425 624.724 255.218 625.644C257.28 626.596 258.855 628.288 260.789 629.44C261.716 630.195 262.93 630.165 264.047 630.399C265.058 630.795 265.76 631.844 266.781 632.248C268.004 632.746 269.419 632.861 270.48 633.678C271.103 634.372 272.028 634.243 272.871 634.335C273.757 634.738 274.543 635.42 275.533 635.634C276.972 636.308 278.557 636.384 280.107 636.604C282.882 637.149 285.606 637.957 288.382 638.513C291.932 638.632 295.493 638.681 299.045 638.815C300.98 638.845 303.047 638.329 304.87 639.174C305.921 639.453 307.072 639.242 308.163 639.274C308.986 639.447 309.547 638.808 310.186 638.41C311.825 638.119 313.548 638.057 315.22 637.853C315.994 637.972 316.444 637.369 316.953 636.898C317.564 636.714 318.311 636.918 318.957 636.692C319.775 636.718 320.337 636.16 320.838 635.585C321.274 634.696 322.348 634.676 323.136 634.244C323.863 633.544 324.287 632.5 325.065 631.826C326.046 631.375 326.057 629.93 327.195 629.722C328.051 629.969 328.527 630.784 329.295 631.199C329.833 632.021 330.345 632.855 331.18 633.413C332.233 633.76 333.334 634.149 334.461 634.218C335.312 634.341 335.729 635.068 336.285 635.629C337.785 637.352 340.038 637.99 341.969 639.077C342.607 639.25 343.461 639.601 343.115 640.408C342.685 641.351 342.105 642.245 341.62 643.167C340.97 644.181 339.953 644.958 338.818 645.35C338.053 645.894 337.293 645.114 336.489 645.087C335.638 644.754 334.821 645.216 334.287 645.872C333.525 646.627 332.993 647.542 332.451 648.449C331.992 649.242 331.127 649.48 330.403 649.951C329.063 650.539 327.89 651.464 326.519 651.98C325.431 652.161 324.94 653.304 323.92 653.603C323.002 653.816 322.024 653.211 321.078 653.514C319.924 653.605 319.026 654.366 317.92 654.623C316.251 655.279 314.446 654.946 312.699 655.025C310.771 654.696 308.8 654.489 306.847 654.63C305.83 654.639 305.598 655.767 304.86 656.258C304.219 656.934 303.261 656.779 302.471 656.498C301.828 656.281 300.567 656.309 300.77 655.328C300.476 654.428 300.144 653.115 298.982 653.071C297.855 653.277 296.915 652.49 295.86 652.309C294.729 652.706 293.493 652.634 292.302 652.642C291.638 652.608 290.943 652.643 290.529 652.023C290.002 651.255 289.178 650.435 288.166 650.784C287.842 651.538 287.39 652.317 286.591 652.63C286.032 652.867 285.296 652.558 285.191 651.909C284.768 651.29 284.128 651.234 283.439 651.308C283.011 650.694 282.328 650.362 281.581 650.369C281.035 650.008 280.46 649.565 279.776 649.417C278.928 649.291 278.17 648.627 277.313 648.742C276.065 648.717 275.312 649.779 274.554 650.606C273.516 651.103 272.596 651.861 271.933 652.821C271.208 653.447 271.34 654.635 270.53 655.147C269.634 656.143 268.314 656.453 267.193 657.111C266.308 657.359 265.307 657.145 264.378 657.217C262.8 657.074 261.019 656.942 259.875 655.699C259.142 654.776 257.827 654.226 257.64 652.962C257.755 652.518 258.831 652.736 259.272 652.877C259.849 653.237 260.774 653.265 261.149 652.631C261.457 652.05 261.784 651.539 262.313 651.14C262.689 650.632 262.91 649.968 263.641 649.873C264.674 649.599 265.151 648.565 265.916 647.951C267.019 647.517 267.619 646.31 267.487 645.161C266.785 644.083 265.474 643.672 264.495 642.892C263.893 642.294 263.004 642.313 262.322 641.895C261.69 641.192 260.736 641.512 259.905 641.444C258.981 641.865 257.875 642.058 256.951 641.54C256.471 640.857 255.626 640.524 254.811 640.539C253.842 640.723 253.038 640.172 252.225 639.734C251.418 639.552 251.14 638.724 250.521 638.291C248.776 637.009 246.58 636.539 244.452 636.555C243.331 636.325 242.204 635.747 241.721 634.663C241.531 633.559 240.767 632.72 240.391 631.694C240.082 631.131 239.594 630.408 238.869 630.804C238.258 631.23 237.504 631.061 237.651 630.168C237.295 629.551 236.487 629.213 235.878 628.817C235.028 628.232 234.095 627.861 233.072 627.721C232.34 627.177 232.413 626.146 231.89 625.433C231.683 624.902 231.113 624.009 230.508 624.562C229.762 624.636 228.904 624.532 228.198 624.194C227.864 623.454 227.342 622.795 226.614 622.41C225.869 621.783 225.343 620.853 225.196 619.903C224.809 619.159 224.026 619.339 223.324 619.334C222.807 618.677 221.902 618.454 221.452 617.749C220.705 616.514 219.644 615.546 218.737 614.437C217.285 612.902 216.916 610.7 215.484 609.151C214.616 607.912 213.868 606.548 212.743 605.511C212.239 604.831 211.255 605.18 210.702 604.688C210.068 604.262 209.982 603.584 209.577 603.091C209.066 602.405 208.173 602.438 207.519 601.941C207.326 601.052 206.515 600.287 205.564 600.416C203.565 600.955 201.869 602.233 199.97 603.039C199.177 603.564 198.231 603.638 197.328 603.37C196.983 603.99 196.638 604.609 196.294 605.229C195.075 605.733 194.226 606.804 193.044 607.373C191.969 607.393 190.694 606.926 189.795 607.707C189.614 608.87 188.532 609.691 188.318 610.835C188.382 611.466 188.317 612.211 187.579 612.377C186.451 612.358 185.385 613.089 184.969 614.134C184.214 614.81 183.291 615.356 182.438 615.932C181.466 616.611 180.478 617.355 179.235 617.368C178.105 617.432 177.177 618.056 176.214 618.568C175.64 618.864 174.91 618.729 174.727 619.451C173.716 620.005 173.331 621.104 172.843 622.082C172.229 622.984 172.306 624.071 172.122 625.1C172.083 625.812 171.868 626.449 171.274 626.883C170.552 627.326 170.952 628.449 170.093 628.751C168.801 629.208 167.383 629.361 166.014 629.436C165.102 628.418 163.832 627.867 162.858 626.921C162.24 626.021 161.829 626.631 162.153 627.467C162.747 628.144 163.644 628.632 164.352 629.238C164.891 629.664 165.76 630.031 165.021 630.584C165.234 631.444 166.137 631.034 166.38 631.698C166.902 632.255 166.769 633.054 166.133 633.391C165.66 634.109 166.1 634.661 166.605 635.202C167.059 635.714 167.224 636.569 166.595 637.006C165.891 637.363 165.997 638.171 165.489 638.684C164.122 639.777 162.641 640.757 161.231 641.807C159.486 642.585 157.858 643.628 156.067 644.305C155.35 644.464 154.638 645.169 153.903 644.828C154.094 643.816 153.196 643.13 152.413 642.696C151.822 642.098 151.033 642.556 150.32 642.608C149.482 642.486 149.247 643.102 148.758 643.485C147.786 643.689 146.854 642.95 145.888 642.807C144.992 643.11 144.095 643.793 143.565 644.628C142.811 645.364 142.72 646.469 142.972 647.448C142.13 648.315 141.8 649.485 141.681 650.658C141.557 652.207 141.366 653.78 141.777 655.304C141.933 656.941 142.605 658.472 142.771 660.101C143.033 661.464 142.929 662.831 142.773 664.199C142.789 665.603 142.039 666.888 142.234 668.303C141.787 669.302 140.978 670.174 140.604 671.238ZM715.032 660.08L712.234 659.314L708.215 657.36L704.364 655.978L701.685 654.549L698.838 653.167L695.489 652.452L693.145 652.642L691.638 653.691L690.633 654.93L688.959 655.978L687.619 656.693L686.615 657.884L685.108 659.314L683.768 660.362L682.094 661.267L680.252 662.649L679.247 664.079L677.405 665.318L675.73 666.366L671.544 667.605L669.367 668.129L667.86 668.32L665.851 668.129L664.009 667.224L662.837 667.081H660.828L659.32 667.224L657.479 666.7L654.632 666.176L652.455 665.318L649.943 663.174L647.599 661.935L632.194 653.167L625.614 650.355L625.793 649.069L623.654 652.261L611.765 662.316L607.579 660.028L591.671 648.068L536.078 621.097L531.055 623.051L520.673 622.336L515.817 623.051H512.636L511.631 622.527L508.952 622.193L506.942 621.812L505.603 620.763L503.593 620.239H502.589L501.082 620.573L499.407 620.049H497.398L493.881 618.667L490.114 619L489.277 620.954L488.272 622.717L487.267 624.814L486.43 626.243V628.149L486.262 629.913L485.593 631.342L483.918 632.915L482.746 634.678L482.076 635.726L481.239 636.965L480.234 638.013L478.895 639.634L478.392 641.54L478.057 644.351L477.723 646.305L477.22 648.258L476.048 649.831L475.211 651.07L473.536 652.309L471.527 653.167L469.852 653.691L468.178 654.406L466.504 654.739L464.327 655.454L462.82 655.835H460.14H458.131L455.452 656.169H454.112H451.601L449.926 656.359L447.749 656.883L445.74 657.408L444.568 657.932L443.563 658.98L442.224 659.886L440.047 661.458L438.875 663.269L437.367 664.698L437.2 666.08L436.53 668.558L435.526 670.655L434.521 672.609L433.516 674.181L433.014 676.85L432.679 678.756L432.512 680.709L432.009 682.282L431.172 683.902L429.665 685.093L427.655 685.76L422.967 688.381L420.79 689.287L420.12 689.811L419.283 691.05L418.613 692.098L417.943 693.146L417.106 693.671L415.767 694.576L367.289 710.785C367.061 709.712 366.781 708.662 366.719 707.57C366.471 706.819 365.937 706.117 365.398 705.522C364.385 704.678 363.946 703.434 363.349 702.301C362.155 701.101 360.775 700.063 359.429 699.023C358.263 698.343 356.938 697.91 355.669 697.434C354.446 696.849 353.098 696.876 351.777 696.768C350.094 697.41 348.267 697.601 346.65 698.418C345.524 699.101 344.18 698.72 342.933 698.817C341.827 698.958 340.8 698.594 339.772 698.232C337.674 697.72 335.602 697.119 333.606 696.286C332.772 696.175 332.448 695.388 331.972 694.804C331.035 692.975 330.714 690.89 330.508 688.858C331.094 686.744 331.815 684.601 331.689 682.381C331.851 681.049 332.237 679.719 332.785 678.487C333.216 677.862 333.968 677.416 334.661 677.088C335.676 676.388 336.925 676.597 338.077 676.741C339.151 677.279 340.121 678.064 340.909 678.989C341.744 680.128 342.387 681.43 343.022 682.698C343.495 683.616 343.899 684.677 344.691 685.35C346.863 687.076 349.541 687.9 352.115 688.82C353.096 688.875 354.106 688.721 354.961 688.191C356.204 687.475 357.641 687.616 359.015 687.619C359.452 686.974 359.964 686.36 360.354 685.695C360.73 684.668 359.992 683.768 359.701 682.815C359.447 681.767 358.267 681.314 358.028 680.239C358.05 679.309 358.356 678.302 358.216 677.348C357.977 676.562 357.954 675.78 358.25 675.005C358.612 674.331 358.729 673.391 359.47 673.03C359.869 672.688 361.156 672.716 360.606 671.943C360.152 671.332 360.487 670.463 361.139 670.149C361.702 669.189 361.77 667.977 362.09 666.904C362.136 665.002 362.065 663.087 362.338 661.192C362.399 659.941 362.578 658.629 362.212 657.415C361.796 656.632 362.16 655.841 362.356 655.052C363.425 652.514 364.708 649.996 366.553 647.923C367.408 646.696 368.715 645.94 369.72 644.861C370.048 644.008 369.9 643.018 369.797 642.111C369.228 639.821 369.688 637.449 369.387 635.126C369.397 634.488 369.064 633.565 369.945 633.439C369.924 632.479 370.035 631.467 369.695 630.556C369.253 629.925 369.37 629.224 369.797 628.626C370.521 627.697 371.043 626.374 372.257 626.021C372.89 625.847 373.555 625.712 373.732 624.98C374.421 624.14 374.261 623.03 374.641 622.063C375.354 621.26 375.843 620.232 376.039 619.159C376.455 617.815 375.34 616.775 374.629 615.777C373.965 614.588 372.551 614.43 371.381 614.031C370.527 614.124 369.851 614.862 369.074 615.206C368.24 615.426 367.458 616.111 366.585 615.98C365.557 615.593 364.748 616.534 363.926 617.015C362.082 618.762 360.362 620.658 358.565 622.463C358.217 622.998 357.35 623.322 357.39 624.014C357.113 624.832 358.277 624.912 358.276 625.672C356.692 628.029 355.107 630.386 353.523 632.743C352.876 633.394 352.851 634.314 352.465 635.094C352.077 635.67 351.247 634.995 350.743 634.821C349.977 634.619 349.637 635.501 349.388 636.079C349.299 636.943 348.138 636.836 347.937 636.107C346.988 635.165 346.788 633.813 346.247 632.638C346.023 631.552 345.219 630.766 344.465 630.012C344.004 629.348 343.196 629.635 342.513 629.579C341.773 629.508 341.202 629.965 341.32 630.738C341.433 631.731 342.41 632.481 343.258 632.94C343.881 633.192 344.427 633.496 344.835 634.058C344.621 634.921 345.603 635.289 346.036 635.885C346.23 636.629 345.511 637.376 344.838 637.679C343.934 638.23 342.794 638.069 342.02 637.37C340.926 636.457 339.563 636.036 338.319 635.393C337.198 634.864 336.385 633.925 335.395 633.216C333.939 632.702 332.147 632.956 330.962 631.789C330.153 631.086 330.04 629.963 329.328 629.189C328.718 628.604 327.836 628.318 327.21 627.712C326.7 627.166 326.76 626.191 326.951 625.502C327.054 624.77 327.674 624.366 328.32 624.129C329.815 623.78 330.925 622.64 332.357 622.154C333.64 621.537 335.072 621.833 336.444 621.738C338.046 621.881 339.554 621.299 341.093 620.953C343.306 620.336 345.345 619.203 347.546 618.532C351.292 617.331 354.781 615.431 358.587 614.411C359.27 613.74 359.904 612.894 360.328 612.006C360.451 611.291 360.565 610.567 361.4 610.424C363.182 609.91 365.106 609.729 366.704 608.714C368.252 608.103 369.307 606.781 370.556 605.74C372.093 603.981 373.469 602.067 374.828 600.162C375.369 599.291 376.091 598.47 376.452 597.524C376.662 596.736 376.414 595.692 377.281 595.271C378.688 593.804 379.197 591.756 380.112 589.98C379.399 589.459 378.583 589.048 377.935 588.457C377.537 587.614 376.551 587.588 375.787 587.254C374.966 586.743 374.171 585.925 374.243 584.883C374.234 583.774 373.961 582.455 374.729 581.542C374.627 580.825 375.256 580.479 375.533 579.878C374.698 579.058 373.955 578.055 372.898 577.527C371.721 576.89 370.384 576.896 369.088 577.036C367.169 577.289 365.386 578.21 363.722 579.154C362.696 580.039 361.694 581.067 361.452 582.451C361.508 582.977 361.886 584.106 360.987 583.833C360.361 583.742 360.129 582.776 360.237 582.213C360.459 580.869 361.253 579.726 362.293 578.874C363.673 577.858 365.328 577.191 366.992 576.775C368.697 576.243 370.502 576.192 372.27 576.344C373.094 576.364 373.802 576.684 374.449 577.173C375.245 577.352 375.457 578.395 376.208 578.544C376.7 578.218 377.071 577.554 377.591 577.171C379.905 575.202 382.334 573.333 384.988 571.835C386.169 571.31 387.217 570.541 387.952 569.465C390.563 566.518 392.771 563.256 395.114 560.1C396.771 557.954 398.205 555.645 399.308 553.166C400.069 551.356 401.193 549.755 402.29 548.138C403.601 545.546 404.691 542.826 405.369 539.994C405.275 539.107 405.648 538.083 404.971 537.366C403.889 536.006 403.654 534.244 403.399 532.576C402.558 531.2 401.17 530.123 400.572 528.575C400.158 527.914 399.722 527.07 398.869 526.958C396.879 526.511 395.032 525.62 393.042 525.174C392.073 523.743 391.336 522.186 390.543 520.658C389.939 519.231 388.824 518.15 387.821 517.002C387.197 516.454 387.39 515.575 387.177 514.892C386.867 514.327 386.576 513.806 386.248 513.356C384.007 514.315 381.767 515.274 379.526 516.233C378.894 516.753 378.315 515.926 378.124 515.358C380.376 514.366 382.628 513.374 384.879 512.382C385.707 512.234 385.989 511.676 385.952 510.878C385.271 510.184 384.575 509.492 384.093 508.637C383.732 507.4 383.245 506.146 382.937 504.904C382.029 504.117 381.955 502.431 380.635 502.158C380.334 501.279 379.88 500.346 380.096 499.403C380.462 497.941 381.906 497.21 383.23 496.785C384.623 496.544 385.262 495.126 385.657 493.914C386.587 493.607 387.553 494.039 388.5 494.089C389.498 493.81 390.451 493.111 391.517 493.009C392.778 492.902 394.128 493.275 395.304 492.71C397.291 492.093 398.587 490.385 400.193 489.173C401.256 488.049 402.962 487.684 403.81 486.358C404.822 485.288 404.338 483.563 405.262 482.454C406.127 481.498 406.262 480.174 406.188 478.938C406.346 477.927 406.326 476.918 406.188 475.902C406.563 474.927 407.525 474.295 408.49 473.985C409.651 473.702 410.987 473.636 411.89 472.748C413.032 471.985 414.232 471.299 415.368 470.519C416.257 469.779 417.51 469.812 418.355 469.009C419.084 467.999 419.075 466.507 418.343 465.477C417.765 464.968 418.258 464.154 417.709 463.655C417.952 462.962 418.498 462.534 419.095 462.15C420.43 461.685 421.852 461.422 423.197 460.952C424.2 460.43 425.308 460.959 426.079 461.651C426.695 462.228 427.229 463.005 427.431 463.832C427.896 464.005 428.748 463.636 429.346 463.549C430.897 463.06 431.761 461.561 432.988 460.587C434.098 458.994 435.48 457.611 436.615 456.031C437.167 454.95 438.207 453.909 438.04 452.623C438.033 450.986 437.384 449.425 437.501 447.787C437.847 447.253 437.812 446.275 438.613 446.271C439.443 446.22 439.588 445.497 439.696 444.814C440.157 443.728 439.662 442.595 439.79 441.467C439.784 440.579 438.937 440.762 438.313 440.544C437.523 439.359 438.644 437.957 438.182 436.691C437.936 434.736 436.492 433.183 434.768 432.348C434.018 432.335 433.732 431.451 433.933 430.847C434.156 429.978 435.09 430.384 435.502 429.844C435.85 429.367 435.842 428.405 436.618 428.351C437.231 428.362 437.65 429.197 438.392 429.143C439.661 429.66 441.025 429.566 442.362 429.462C443.626 429.59 444.651 428.761 445.844 428.509C446.819 428.352 447.597 427.795 448.357 427.202C449 426.208 450.135 425.526 450.516 424.387C451.031 423.44 450.146 422.54 450.157 421.593C450.568 420.5 449.492 419.305 450.218 418.291C450.44 417.617 450.638 416.815 451.438 416.619C452.582 415.854 454.086 416.545 455.224 415.841C456.214 415.292 456.807 414.316 457.072 413.24C457.234 411.888 458.601 411.18 458.951 409.914C459.172 409.118 459.923 409.119 460.591 408.959C461.303 408.811 462.182 408.921 462.769 409.396C463.544 409.71 463.168 410.588 462.908 411.129C462.258 411.736 462.354 412.679 462.832 413.366C463.378 414.361 464.178 415.196 465.196 415.718C466.052 415.988 466.49 416.734 466.968 417.433C467.138 418.297 467.895 418.782 468.429 419.418C468.94 420.22 470.019 420.051 470.742 420.579C471.904 421.008 472.862 421.936 473.172 423.151C473.024 424.214 473.474 425.211 474.206 425.963C474.913 426.171 475.268 426.764 475.773 427.212C476.952 428.172 478.462 428.397 479.882 428.776C482.847 429.673 485.939 430.158 489.041 430.013C490.737 429.884 492.404 430.28 494.092 430.299C496.604 430.379 499.084 429.934 501.53 429.418C502.83 429.048 504.195 429.386 505.485 428.988C506.859 428.84 508.286 428.986 509.64 428.605C511.018 428.388 512.204 427.541 513.121 426.52C514.091 425.78 514.964 424.864 516.018 424.263C517.166 424.037 517.55 422.535 518.77 422.483C519.555 422.225 520.511 422.678 521.158 422.091C522.374 421.41 522.448 419.878 523.287 418.874C523.742 418.05 524.396 417.422 525.202 416.945C526.59 415.88 527.662 414.47 529.078 413.43C529.618 412.426 530.313 411.54 531.146 410.762C532.454 409.014 534.005 407.449 535.535 405.914C536.155 404.619 537.345 403.764 538.164 402.605C539.165 401.085 540.564 399.907 541.669 398.471C542.872 397.253 543.553 395.684 544.336 394.188C544.89 392.398 544.975 390.487 545.209 388.63C545.507 387.042 545.059 385.461 544.484 383.989C543.609 383.205 542.268 383.546 541.189 383.267C540.543 382.692 540.191 381.624 540.846 380.92C541.195 380.303 541.534 379.707 542.14 379.292C542.995 378.763 543.619 377.98 543.947 377.031C544.196 375.503 544.907 374.092 545.135 372.556C545.381 371.217 545.575 369.71 544.766 368.523C544.161 367.584 543.319 366.858 542.275 366.453C541.745 366.023 541.941 365.098 541.753 364.459C541.404 363.653 542.053 363.033 542.422 362.372C542.791 361.39 544 361.813 544.736 361.433C545.943 360.835 546.251 359.444 546.551 358.248C547.034 357.051 546.581 355.811 546.242 354.641C546.242 353.569 546.458 352.479 546.223 351.404C545.899 350.255 546.308 349.137 546.507 348.005C545.792 347.149 545.582 346.048 545.372 344.984C545.262 343.386 545.287 341.713 545.882 340.201C546.444 339.713 546.617 339.19 546.241 338.487C545.886 337.919 545.875 337.286 545.916 336.633C546.173 335.513 546.487 334.396 546.507 333.232C547.261 332.897 547.378 332.05 547.717 331.382C547.832 330.429 548.75 329.549 549.747 329.706C550.533 329.484 551.302 330.323 552.016 329.847C553.247 329.508 553.882 328.112 555.223 328.038C555.815 328.054 556.324 328.641 556.954 328.759C557.897 329.38 558.937 327.902 559.842 328.666C561.089 329.289 561.254 330.912 562.443 331.605C563.118 331.935 563.527 332.501 563.809 333.181C564.513 333.696 565.464 333.908 566.256 334.32C566.906 334.88 567.652 334.453 568.371 334.29C569.143 334.049 569.943 333.919 570.724 333.816C571.537 333.322 572.4 333.755 573.07 334.275C574.192 334.977 574.593 336.253 575.235 337.33C577.044 338.379 578.907 339.332 580.703 340.403C581.268 340.711 582.048 340.591 582.651 340.484C583.522 340.306 583.712 339.347 584.45 338.969C585.163 338.647 585.853 338.31 586.308 337.638C587.033 337.101 588.153 336.675 588.966 337.304C589.684 337.827 590.788 337.867 591.211 338.716C591.57 339.52 591.713 340.496 592.444 341.091C594.232 342.389 594.868 344.59 595.799 346.492C596.549 347.846 596.804 349.461 597.806 350.663C598.127 351.409 598.928 351.507 599.607 351.769C601.372 351.627 603.08 352.255 604.847 352.103C605.932 351.881 607.012 351.459 608.034 351.01C610.235 350.138 612.021 348.552 614.082 347.433C614.651 346.622 615.631 346.031 615.852 345.034C615.843 344.313 616.669 343.846 617.305 344.118C617.835 344.484 618.463 344.955 618.399 345.693C618.546 346.43 618.057 347.312 618.602 347.918C618.905 348.641 619.656 348.445 620.213 348.457C621.403 348.996 621.815 350.284 622.048 351.469C622.628 352.7 622.753 354.117 622.571 355.458C622.228 356.143 623.297 356.586 622.387 357.078C621.702 357.662 621.51 358.677 622.01 359.441C622.871 359.552 623.099 358.423 623.762 358.099C624.299 357.584 625.186 357.785 625.095 358.631C624.676 359.111 623.97 359.408 623.967 360.128C623.86 360.905 624.653 361.193 625.227 361.442C624.437 361.997 623.691 362.611 622.968 363.249C622.661 363.539 621.815 364.546 622.469 364.635C623.216 364.113 624.121 363.785 625.03 364.015C625.802 364.566 626.965 364.358 627.391 363.482C627.742 362.876 627.49 362.104 627 361.628C626.61 361.154 626.947 360.385 626.983 359.814C627.173 359.194 627.785 358.619 627.791 358.011C627.711 357.317 626.896 356.933 626.343 357.392C625.633 356.486 625.107 355.458 624.497 354.486C624.077 353.122 623.606 351.765 623.04 350.447C622.672 349.266 622.13 348.142 621.236 347.269C620.754 346.602 619.704 346.513 619.486 345.669C619.269 344.615 619.278 343.198 618.165 342.682C617.434 342.526 616.684 342.359 616.002 342C615.761 341.19 615.185 340.559 614.377 340.285C613.993 338.806 613.332 337.406 612.632 336.05C611.376 334.025 611.498 331.521 610.634 329.355C609.773 328.581 609.722 327.413 609.324 326.396C608.79 325.518 609.42 324.576 609.714 323.72C610.54 322.076 610.826 320.206 610.642 318.382C610.533 317.546 610.401 316.47 611.127 315.887C612.029 315.892 612.931 315.915 613.822 315.758C614.895 315.127 615.514 313.914 616.51 313.152C616.784 312.438 616.741 311.568 616.855 310.79C616.875 309.209 616.907 307.619 617.296 306.073C617.657 305.436 617.226 304.75 617.434 304.121C617.488 303.316 618.357 303.104 618.975 303.407C620.103 304.039 621.384 305.095 622.73 304.472C623.412 304.016 624.22 303.78 625.048 303.682C625.802 303.337 626.119 304.29 626.629 304.669C627.342 305.15 628.325 305.19 629.183 305.166C630.436 305.469 631.72 305.73 633.023 305.642C633.678 305.928 634.202 306.575 634.97 306.691C635.871 307.194 636.984 306.472 637.123 305.499C637.76 305.128 638.37 304.679 639.144 304.821C640.598 304.837 641.814 303.965 643.08 303.359C643.641 302.97 644.582 303.494 644.893 302.813C645.143 302.066 645.84 301.867 646.526 302.195C647.57 302.252 647.687 303.444 648.411 303.954C649.061 304.314 649.259 304.955 649.383 305.642C650.039 305.738 650.602 306.099 651.201 306.357C652.661 306.555 654.15 306.237 655.622 306.262C656.489 305.841 657.488 305.343 658.032 304.494C658.346 303.601 658.189 302.535 658.824 301.745C659.244 301.249 658.598 300.111 659.512 300.108C660.226 300.267 660.313 301.248 661.158 301.062C662.051 301.372 662.976 300.699 663.814 301.221C664.492 301.691 665.161 301.109 665.845 300.964C666.567 300.785 667.248 300.827 667.846 301.306C668.789 300.954 669.776 300.709 670.678 300.256C671.946 299.818 672.718 298.652 673.722 297.86C674.984 296.842 676.708 297.562 678.135 297.07C679.484 296.453 680.881 297.149 682.173 297.589C683.384 298.129 684.731 298.12 686.014 297.875C686.809 298.538 687.571 299.26 688.426 299.841C689.546 300.601 690.91 300.833 691.992 301.655C693.067 302.557 694.787 302.089 695.726 303.195C696.562 304.166 697.91 303.979 699.012 304.403C700.216 305.869 701.895 306.835 703.126 308.272C703.532 308.924 704.227 309.14 704.92 309.359C706.498 308.858 708.167 308.827 709.794 309.073C710.468 308.287 711.247 307.465 712.342 307.379C712.812 307.779 713.332 308.178 714.077 307.977C714.737 308.006 714.963 308.929 715.407 309.359C715.094 310.437 714.51 311.449 713.573 312.098C713.192 312.977 712.843 313.991 712.896 314.982C711.925 316.032 711.142 317.328 709.794 317.936C708.92 318.186 708.334 318.828 707.726 319.461C707.441 320.347 706.741 321.299 707.389 322.199C708.179 324.35 708.192 326.698 708.169 328.971C708.043 330.716 708.387 332.423 708.739 334.123C708.499 335.133 708.145 336.16 708.041 337.22C708.105 339.321 708.773 341.407 709.794 343.239C709.716 344.552 710.081 345.844 709.794 347.147C709.255 347.644 709.078 348.292 709.055 349.005C709.237 350.204 709.453 351.402 709.214 352.61C709.636 354.045 710.743 355.242 711.137 356.707C711.588 357.589 711.275 358.553 711.304 359.473C711.979 360.783 712.13 362.335 713.101 363.48C713.706 364.629 714.747 365.386 715.777 366.129C716.432 366.825 717.372 366.915 718.252 367.134C719.862 367.246 721.469 366.905 723.087 367.018C723.615 367.434 724.159 367.841 724.217 368.566C724.816 369.854 724.372 371.249 724.269 372.593C724.174 373.318 724.299 373.967 724.87 374.464C725.26 375.15 725.837 375.814 726.041 376.558C726.159 377.246 725.778 377.966 725.007 377.882C723.404 379.363 721.714 380.754 720.281 382.409C719.916 383.531 720.015 384.768 719.344 385.78C718.89 387.149 717.694 388.14 716.315 388.49C715.223 388.735 714.015 388.601 712.931 388.329C711.416 387.978 710.092 386.99 708.544 386.817C707.321 386.945 706.682 385.761 705.727 385.261C705.115 385.072 704.622 384.395 704.624 383.764C704.504 383.021 704.936 382.061 704.258 381.538C702.944 380.936 701.569 380.332 700.155 379.958C698.847 380.214 697.566 380.782 696.31 381.272C694.776 382.423 693.337 383.725 691.86 384.957C690.989 386.167 690.126 387.398 689.137 388.525C687.676 390.078 686.75 392.004 685.628 393.797C685.463 395.924 685.627 398.123 685.854 400.262C686.358 401.31 686.581 402.47 687.01 403.556C687.544 404.252 688.095 405.081 688.826 405.558C689.783 405.927 690.833 405.637 691.774 405.997C692.16 406.549 692.785 406.974 693.017 407.607C693.1 408.6 693.944 409.264 694.718 409.758C695.559 410.262 696.624 409.673 697.387 410.333C697.46 411.041 697.532 411.75 697.797 412.418C698.453 413.174 699.422 413.695 699.974 414.582C700.231 415.274 700.875 415.776 701.027 416.5C701.042 417.107 700.785 417.746 700.784 418.386C701.243 419.209 701.131 420.154 700.678 420.951C700.15 421.406 699.464 421.805 698.716 421.817C698.157 422.565 697.523 423.292 697.182 424.171C696.458 425.397 696.792 426.962 696.023 428.151C695.553 428.68 695.343 429.269 695.467 429.979C695.638 430.735 695.851 431.606 696.424 432.171C696.981 433.029 697.884 433.554 698.436 434.406C698.721 435.135 698.363 436.035 698.347 436.827C697.701 437.663 697.34 438.683 696.835 439.595C696.311 440.878 696.849 442.218 696.87 443.529C696.558 444.131 695.902 444.701 695.168 444.753C694.565 445.031 693.582 444.538 693.55 445.48C693.036 446.339 693.23 447.314 693.133 448.259C693.2 449.182 692.58 450.028 692.83 450.933C693.247 452.302 693.378 453.734 693.698 455.13C693.836 456.29 694.012 457.435 694.44 458.533C694.705 460.065 695.467 461.442 695.836 462.942C696.322 465.529 697.403 467.939 698.634 470.249C699.471 472.087 700.334 473.91 701.332 475.669C702.121 477.379 703.205 478.911 704.194 480.504C705.36 482.625 706.778 484.58 708.321 486.44C709.583 488.455 711.038 490.341 712.32 492.342C713.385 493.339 714.381 494.42 715.333 495.534C716.812 496.478 717.935 497.85 719.412 498.793C720.588 499.437 721.265 500.605 722.198 501.519C723.898 503.059 725.304 504.879 726.988 506.433C727.532 506.725 728.313 506.554 728.922 506.876C729.517 507.598 730.229 508.193 730.99 508.734C731.675 508.685 732.343 508.767 732.989 509.007C733.728 509.392 734.194 510.227 734.83 510.783C736.089 511.382 736.925 512.526 737.932 513.452C739.479 514.446 740.78 515.736 742.116 516.987C743.498 518.008 744.988 518.9 746.388 519.908C747.296 520.527 748.411 521.165 749.53 520.986C750.48 520.502 751.258 519.655 752.077 518.957C753.06 518.293 753.12 516.722 754.367 516.423C755.418 515.855 756.626 516.124 757.724 515.786C758.189 515.201 758.817 515.065 759.532 515.167C760.16 515.336 761.287 515.918 760.649 516.692C759.657 517.969 758.24 518.966 757.704 520.557C757.747 521.437 756.858 521.799 756.134 521.97C755.005 522.137 754.258 523.006 753.458 523.735C751.97 525.046 750.84 526.677 749.932 528.43C749.663 529.275 748.875 529.74 748.486 530.498C747.967 531.338 747.536 532.209 747.32 533.175C747.137 533.994 746.323 534.391 746.118 535.184C745.806 536.254 745.087 537.071 744.347 537.868C743.352 538.73 743.515 540.166 743.149 541.29C741.949 542.836 742.291 544.966 741.559 546.69C740.882 547.731 740.887 549.009 740.384 550.111C740.108 550.889 739.665 551.545 738.966 552.002C738.442 552.714 737.802 551.879 737.341 551.525C736.65 550.914 736.927 549.96 736.948 549.148C736.875 548.098 737.549 547.182 737.489 546.147C737.362 545.38 737.811 544.387 737.122 543.84C736.02 543.244 734.937 542.518 733.755 542.077C732.674 541.964 731.533 541.797 730.468 541.807C729.897 542.432 729.018 542.172 728.34 542.526C727.029 543.023 726.322 544.33 725.388 545.271C724.081 545.889 723.206 547.047 722.043 547.872C720.174 549.112 719.13 551.134 718.104 553.057C717.252 554.307 716.961 555.867 715.982 557.025C715.378 557.671 714.551 558.089 714.004 558.816C713.257 560.062 712.514 561.448 712.674 562.945C712.322 563.963 711.758 564.936 711.663 566.044C711.683 566.947 711.601 567.829 711.231 568.668C711.019 570.738 711.7 572.769 712.039 574.797C712.985 577.666 714.375 580.39 716.156 582.835C717.794 584.247 719.347 585.771 720.929 587.254C722.287 588.836 723.753 590.326 725.081 591.934C725.988 591.92 727.032 591.826 727.654 592.624C728.061 593.467 728.466 594.475 728.35 595.442C728.272 596.337 727.797 597.443 728.7 598.081C728.92 598.884 728.917 599.848 728.355 600.511C728.6 601.218 728.383 602.004 727.977 602.605C727.689 603.445 726.693 603.337 725.992 603.18C724.965 602.048 723.839 601.016 722.534 600.21C721.809 599.604 720.871 599.464 719.97 599.654C719.05 599.818 718.359 599.148 717.776 598.543C716.692 597.407 715.005 598.056 713.683 597.509C713.014 597.517 712.276 597.124 712.502 596.352C712.841 595.232 712.041 594.182 711.116 593.62C710.289 593.571 709.523 593.076 708.852 592.57C708.386 591.897 708.277 590.861 708.712 590.129C708.951 589.215 709.992 589.428 710.716 589.409C711.246 589.103 711.695 588.275 711.268 587.664C710.751 586.837 710.735 585.745 709.875 585.162C708.751 584.554 708.895 583.176 708.908 582.091C709.031 581.346 708.046 581.134 707.726 580.545C707.13 578.748 707.161 576.824 706.546 575.035C706.076 573.759 706.031 572.412 705.867 571.078C705.465 569.074 705.548 567.035 705.363 565.011C705.841 563.446 705.892 561.806 706.31 560.228C706.709 559.583 706.217 558.821 706.644 558.28C707.097 557.886 707.404 556.827 706.651 556.659C706.116 555.983 706.057 554.942 706.101 554.068C706.329 553.364 706.446 552.593 706.605 551.889C707.037 551.371 707.708 551.284 707.874 550.525C707.428 549.662 706.946 548.715 707.267 547.729C707.269 546.639 707.777 545.655 708.52 544.879C709.177 544.007 710.188 543.418 711.306 543.567C712.205 543.157 712.71 542.03 713.782 541.852C714.624 541.924 715.751 541.649 715.916 540.68C716.186 539.921 717.007 540.005 717.653 539.936C718.443 539.848 718.964 539.256 719.258 538.556C719.43 537.764 720.285 537.589 720.84 537.129C721.438 536.707 722.067 536.674 722.744 536.896C723.455 537.075 723.97 536.586 724.605 536.389C725.249 536.241 725.912 535.925 725.904 535.168C726.381 534.744 727.229 535.011 727.85 534.856C729.255 534.899 730.755 534.669 732.086 535.185C732.661 535.369 733.419 535.794 733.204 536.493C732.988 537.124 732.827 537.936 733.605 538.222C734.172 538.645 735.025 538.632 735.553 538.183C735.87 537.524 736.757 536.718 737.466 537.253C737.996 537.73 737.788 538.747 738.744 538.421C739.297 537.723 739.596 536.875 740.158 536.179C740.596 534.969 741.086 533.692 742.127 532.859C742.676 532.41 743.057 531.869 742.88 531.134C742.771 530.168 743.244 528.824 742.236 528.237C741.775 527.715 741.132 527.539 740.478 527.816C739.879 528.202 739.126 528.324 738.449 528.033C737.697 527.425 736.68 527.328 736.025 526.579C735.483 525.888 734.622 525.958 733.834 525.854C733.106 525.796 732.51 525.478 731.937 525.147C730.971 524.659 729.871 525.46 728.949 524.842C728.46 524.286 728.006 523.657 727.371 523.22C726.25 522.932 725.337 522.025 724.163 521.981C723.403 521.937 723.893 523.138 723.383 523.554C723.04 524.24 722.074 523.876 721.817 523.316C721.336 522.83 721.731 521.887 720.834 522.003C720.167 521.937 719.397 522.18 719.029 521.443C718.55 520.675 717.686 520.519 716.884 520.266C716.108 520.461 716.327 519.228 715.725 518.971C715.242 518.701 714.347 518.515 714.013 518.727C713.648 519.329 714.02 520.149 713.191 520.409C712.077 520.482 711.238 519.551 710.68 518.693C709.697 518.583 708.844 518.015 707.881 517.884C707.065 517.972 706.478 517.443 705.968 516.874C705.281 516.044 704.603 515.219 703.721 514.58C703.192 513.982 702.447 513.759 701.67 513.88C700.253 514.966 699.59 516.712 698.626 518.168C698.473 519.318 698.093 520.438 697.65 521.522C697.536 522.137 697.393 522.855 697.489 523.451C699.242 525.313 700.743 527.419 702.369 529.403C703.025 530.195 703.704 531.238 704.807 531.321C705.339 531.625 705.703 532.313 706.438 532.335C707.943 532.208 709.486 532.215 711.011 532.226C711.912 532.522 712.808 532.929 713.782 532.989C714.627 533.065 715.341 533.641 715.419 534.513C715.397 535.486 716.042 536.424 715.702 537.373C715.096 537.846 714.84 538.561 714.52 539.231C713.381 539.069 712.351 539.584 711.271 539.851C709.726 539.685 708.137 539.54 706.653 540.108C704.697 540.189 702.725 540.17 700.784 539.851C699.765 540.689 699.648 542.158 698.742 543.083C697.967 543.566 698.372 544.527 698.273 545.283C697.777 545.829 697.473 546.718 697.929 547.374C697.808 548.231 697.22 549.068 696.826 549.87C696.04 551.258 695.851 553.061 694.433 554.003C693.849 553.886 692.923 554.17 693.103 554.909C693.34 555.883 693.405 557.139 692.41 557.713C691.076 558.807 689.425 560.05 687.601 559.6C686.956 559.931 686.437 560.742 686.202 561.475C685.715 561.897 685.009 562.143 684.559 562.672C684.013 562.962 683.252 563.344 682.673 562.911C682.04 562.789 681.506 563.582 681.01 563.954C679.453 564.976 677.62 565.671 676.361 567.107C676.003 567.783 675.236 567.81 674.6 567.523C673.979 567.273 673.353 566.736 672.868 567.489C673.089 568.43 672.282 569.079 671.625 569.608C670.433 569.997 669.112 569.711 667.884 569.544C666.361 569.139 664.796 569.544 663.373 570.12C662.651 570.85 662.373 571.952 661.881 572.856C661.344 573.42 661.563 574.138 661.642 574.827C660.799 575.802 660.774 577.135 660.608 578.353C660.833 579.421 660.01 580.205 659.473 581.032C659.087 581.557 658.811 582.25 659.317 582.796C660.057 583.784 660.642 584.966 660.573 586.205C658.964 587.958 657.312 589.701 656.009 591.701C655.697 592.252 655.198 592.882 655.734 593.459C656.601 592.108 657.633 590.875 658.541 589.551C659.455 589.071 660.237 588.382 660.648 587.414C661.003 586.844 661.598 586.388 662.271 586.764C663.179 586.548 664.099 586.136 664.985 585.79C665.662 585.566 665.528 584.503 666.369 584.596C667.074 584.907 667.761 585.625 668.555 585.162C669.492 584.757 669.943 586.018 670.837 585.956C671.643 586.142 670.951 587.414 671.728 587.529C672.642 588.1 673.658 587.657 674.64 587.693C675.115 588.501 675.607 589.541 676.638 589.686C677.393 589.722 677.723 588.66 678.433 588.423C679.295 588.026 680.313 588.781 681.143 588.167C681.712 587.58 682.51 587.98 682.708 588.692C683.405 589.185 684.423 589.15 685.249 588.974C687.048 588.323 688.943 589.001 690.776 588.66C691.648 589.089 692.311 590.003 692.917 590.788C693.226 591.673 693.95 591.247 694.62 591.088C695.324 590.748 695.767 591.55 696.246 591.944C697.024 592.444 696.892 593.466 697.534 594.078C698.191 594.057 698.844 594.084 699.491 594.206C700.406 594.712 701.193 595.543 702.261 595.794C703.174 595.601 703.874 596.233 704.62 596.649C706.12 597.375 706.799 598.981 707.726 600.273C707.827 601.163 708.348 602.057 708.021 602.942C709.342 603.025 710.715 602.815 711.862 602.132C712.386 601.54 711.92 600.966 711.766 600.349C711.418 599.326 712.307 598.192 713.388 598.319C714.233 598.706 715.141 598.675 716.047 598.653C717.101 598.411 717.731 599.419 718.518 599.919C719.082 600.626 720 600.686 720.821 600.478C721.784 600.156 722.41 601.037 723.151 601.468C724.128 601.954 724.789 602.845 725.595 603.522C726.463 603.637 726.265 604.525 726.798 604.96C727.171 605.516 727.658 606.117 728.405 605.848C729.252 606.155 729.344 605.32 729.244 604.685C729.111 604.057 729.517 603.536 729.564 602.905C729.998 601.998 730.63 602.914 731.174 603.231C731.781 603.965 732.745 603.634 733.574 603.704C734.166 604.023 734.287 604.994 734.762 605.192C735.549 605.232 734.972 603.939 735.79 603.847C736.241 603.278 736.85 602.813 737.6 602.772C738.365 602.665 738.484 601.886 738.892 601.369C739.475 601.063 740.057 600.712 740.664 601.179C740.975 601.83 741.462 602.608 742.247 602.657C742.92 602.574 743.485 603.12 744.132 602.986C745.673 602.963 746.8 601.638 748.345 601.655C749.476 602.355 750.538 603.267 751.151 604.466C751.017 605.18 751.314 605.784 751.689 606.369C752.006 607.438 752.744 608.273 753.219 609.263C753.809 610.28 753.236 611.368 752.924 612.377C753.211 614.215 752.899 616.065 752.437 617.848C752.165 618.756 751.902 619.817 750.95 620.226C750.377 620.829 749.865 619.625 749.157 620.108C748.261 620.48 747.496 621.203 746.63 621.679C745.645 622.104 745.155 623.047 744.553 623.873C743.892 625.123 743.656 626.58 743.235 627.933C743.163 629.033 743.039 630.207 743.389 631.278C743.847 633.395 744.688 635.385 745.497 637.385C746.914 639.763 748.633 641.965 750.525 643.987C751.133 644.804 751.973 645.326 752.875 645.767C753.495 646.045 754.17 646.202 754.48 646.883C754.924 647.929 755.047 649.117 755.73 650.069C756.519 650.354 757.197 650.913 757.667 651.602C758.335 652.29 757.961 653.21 757.65 653.977C757.998 654.492 758.165 655.392 758.88 655.409C759.859 656.128 759.702 657.412 759.747 658.479C760.087 659.711 759.978 660.965 759.866 662.22C760.28 662.784 760.605 663.593 761.311 663.809C762.091 663.936 761.457 665.082 760.814 665.046C760.016 665.34 760.466 666.261 760.836 666.75C761.393 667.038 762.048 667.455 761.673 668.193C761.456 668.776 760.439 667.947 759.965 668.466C759.174 668.891 759.586 669.615 759.774 670.283C759.963 670.943 760.926 670.945 761.49 671.227C762.196 671.61 762.109 672.299 761.504 672.738C760.981 673.076 760.2 672.619 759.573 672.663C758.693 672.694 757.776 672.287 756.937 672.648C756.303 672.839 756.851 673.898 756.025 674.181C754.9 673.201 753.677 672.093 752.085 672.132C751.089 672.305 750.352 671.481 749.418 671.276C748.579 671 747.536 670.306 747.754 669.29C748.107 668.401 748.399 667.418 749.083 666.7C749.861 666.431 749.411 665.494 749.526 664.865C749.744 663.445 748.572 662.424 747.624 661.562C746.926 661.148 745.991 661.212 745.205 660.957C744.11 661.082 743.313 661.987 742.299 662.365C741.655 662.532 741.028 662.583 740.53 663.132C740.014 663.587 739.269 663.541 738.914 664.211C738.515 665.071 737.807 664.388 737.353 663.96C736.945 662.78 736.352 661.589 735.836 660.417C736.069 659.946 736.944 659.666 737.415 659.266C737.259 658.301 736.615 657.57 735.943 656.905C735.266 656.133 734.252 655.987 733.374 655.552C732.695 655.085 731.942 655.294 731.211 655.502C730.49 654.877 729.592 654.556 728.7 654.263C727.376 654.184 726.023 653.827 724.712 654.12C724.173 653.644 723.561 653.362 722.832 653.393C721.903 653.398 720.941 653.688 720.093 654.079C718.929 654.541 717.859 655.158 716.915 655.985C716.317 656.54 715.357 656.888 715.407 657.836C716.161 658.568 714.953 659.271 715.032 660.08Z" fill="black"/>
</svg>
