<svg width="578" height="578" viewBox="0 0 578 578" fill="none" xmlns="http://www.w3.org/2000/svg">
<g clip-path="url(#clip0_66_2)">
<path d="M420.293 425.287C420.602 425.298 420.912 425.371 421.223 425.508C421.738 425.734 422.16 426.063 422.507 426.463M423.444 444.856C423.165 444.386 421.973 443.274 421.485 443.012M420.459 439.764C420.397 438.919 420.136 438.09 420.242 437.22C420.33 436.498 420.892 435.907 421.079 435.213C421.169 434.88 421.144 434.393 421.16 434.046C421.173 433.765 421.295 433.493 421.295 433.218C421.295 431.693 420.965 430.251 420.146 428.973C420.055 428.831 419.714 428.271 419.592 428.186M534.878 427.548C536.186 428.715 536.955 429.826 538.919 429.388C539.052 429.359 539.752 429.102 539.81 428.999M543.052 432.689C543.706 433.731 542.922 435.16 543.12 436.27C543.28 437.166 543.72 438.002 543.998 438.861L544.065 438.902M28.9749 262.212C29.2674 262.327 29.5599 262.444 29.8516 262.569C30.1098 262.678 30.5138 263.018 30.6627 263.251M24.8926 265.938C23.8888 265.51 22.7875 264.212 22.339 263.762C21.4616 262.881 19.8135 260.907 21.5014 259.924C21.7907 259.755 22.4818 259.632 22.7984 259.72C24.1914 260.104 25.0993 260.796 26.3527 261.253C27.2317 261.573 28.1068 261.875 28.9749 262.213M522.408 384.561C523.025 385.716 523.957 387.056 524.338 387.6C524.439 387.744 525.214 388.391 525.378 388.469M518.28 385.864C518.689 385.368 519.239 385.061 519.64 384.543M492.606 334.556C492.743 334.386 492.853 334.231 492.882 334.116C492.977 333.737 492.725 333.342 492.869 332.962C492.946 332.759 493.369 332.302 493.518 332.012C493.472 331.879 493.403 331.756 493.326 331.637M495.435 329.907C495.946 330.235 496.291 330.233 496.727 330.305M440.699 239.798C440.903 239.68 441.081 239.556 441.199 239.422C441.359 239.241 441.424 239.001 441.551 238.798L441.483 238.54C441.938 237.816 441.745 236.029 442.01 235.135C442.049 235.006 442.11 234.884 442.169 234.761M443.241 244.539C442.651 244.452 442.059 244.623 441.524 244.467C441.301 244.402 441.097 244.257 440.956 244.074C440.683 243.719 440.606 243.287 440.368 242.917M445.679 241.51C445.698 241.888 445.713 242.334 445.722 242.773M504.443 385.708L504.3 385.701C503.041 385.587 501.642 384.549 500.396 385.281C500.323 385.452 500.304 385.667 500.315 385.851L500.423 386.041C500.658 386.189 501.353 386.349 501.64 386.381M497.774 384.995C498.195 385.259 498.841 384.849 498.923 384.399L498.802 384.208C498.363 383.941 497.873 383.829 497.397 383.657M494.097 320.123C494.475 320.398 494.343 320.079 494.571 320.551C494.665 320.746 494.684 321.037 494.842 321.203C495.267 321.647 497.01 322.231 497.625 322.614C497.884 322.775 498.102 322.992 498.309 323.227M502.064 316.214C501.731 316.547 501.41 316.874 501.206 317.214C500.921 317.691 500.57 318.504 500.449 319.046C500.351 319.479 500.474 319.738 500.502 320.144C500.552 320.859 500.226 321.075 500.465 321.863M497.875 308.817C497.969 308.868 498.06 308.925 498.138 308.994C498.35 309.179 498.5 309.439 498.668 309.686M487.99 313.538C488.664 313.807 489.383 314.199 489.964 314.923C490.425 315.495 491.017 316.028 491.355 316.686L491.471 316.935M446.394 298.229C446.16 297.633 445.489 297.339 445.211 296.813C445.252 296.32 445.292 295.244 444.995 294.872C444.874 294.721 444.651 294.612 444.428 294.498M440.808 289.865C440.937 289.247 440.858 288.732 441.496 288.24C442.245 287.661 442.8 288.123 443.576 288.104C444.015 288.093 444.172 287.655 444.765 287.859C445.454 288.096 445.756 289.076 446.171 289.637C446.595 290.212 447.557 290.142 447.805 291.17C447.977 291.874 447.847 292.576 448.198 293.259C448.673 294.187 449.519 294.26 450.021 294.941C450.35 295.386 450.257 295.706 450.791 296.365C450.719 297.164 450.746 297.892 450.858 298.671C450.664 298.924 450.462 298.913 450.29 299.064C450.017 299.304 449.885 299.738 449.655 300.013L449.47 300.05M446.629 284.479L446.471 284.57C446.391 284.611 444.363 285.057 444.175 285.085C443.91 285.125 441.308 284.731 441.094 284.624C440.971 284.562 439.705 283.169 439.567 282.983C439.241 282.542 437.888 281.556 437.837 281.205L437.905 280.947C438.018 280.9 438.146 280.851 438.269 280.838M453.048 283.19C452.478 282.839 451.747 282.357 449.906 282.511M446.165 275.86C446.788 275.824 447.46 276.099 448.079 275.984C449.007 275.813 449.971 275.087 450.845 274.636M436.837 279.741L436.688 279.919H436.431C435.917 279.647 435.293 278.2 435.27 277.626C435.694 276.987 435.772 277.176 435.877 276.283C436.047 276.099 436.288 276.006 436.48 275.858M402.318 252.535C402.771 252.566 403.35 252.777 404.217 253.542C404.552 253.838 404.817 254.238 405.149 254.534C405.488 254.833 405.913 255.014 406.231 255.348C406.539 255.669 406.783 256.131 407.109 256.406C407.444 256.688 407.836 256.606 408.172 256.84C408.385 256.989 408.474 257.248 408.704 257.383L408.836 257.399M400.246 256.612C400.332 255.952 400.397 255.13 400.352 254.938C400.342 254.895 400.325 254.848 400.305 254.798M430.901 199.861L430.929 199.691C431.115 198.759 431.67 198.6 431.822 198.009C432.003 197.301 431.198 196.586 430.295 197.357M426.903 198.348C426.07 198.396 425.512 197.642 424.889 197.195L424.727 197.344L424.741 197.574C424.889 197.756 425 197.977 425.079 198.198C426.029 198.555 426.768 201.401 427.187 202.078C427.197 202.094 428.608 203.467 428.66 203.502C429.152 203.411 429.288 203.292 429.495 203.126M434.232 196.527C434.215 196.468 434.208 196.41 434.214 196.354C434.909 195.247 433.739 193.559 434.808 192.827C434.948 192.781 435.203 192.804 435.322 192.894C435.397 193.067 435.54 193.594 435.376 193.735M435.456 191.674C435.647 191.508 435.972 191.479 436.214 191.47C437.058 192.064 436.333 193.165 436.781 194.006C437.133 194.669 437.965 194.994 438.716 195.358M393.839 374.198C394.23 373.91 394.482 373.406 394.88 373.1C395.137 372.902 395.481 372.72 395.801 372.517M394.799 366.575C394.333 367.229 392.019 369.07 391.272 369.356C390.173 369.778 388.933 368.181 388.259 368.502C388.103 368.679 388.056 368.909 387.894 369.085C387.595 369.412 386.664 370.254 386.232 370.265C386.025 370.27 385.785 370.201 385.569 370.193C385.123 370.174 384.629 370.245 384.191 370.115C383.439 369.891 382.837 369.656 382.016 369.695C381.431 369.723 380.997 370.132 380.532 370.427M393.853 374.958C393.836 375.418 394.346 375.568 394.353 376.016C394.012 376.917 393.231 377.155 392.61 377.753C392.431 377.926 392.383 378.151 392.204 378.308M362.77 356.264C362.745 356.1 362.714 355.939 362.667 355.791C362.405 354.953 361.737 354.888 361.707 353.608C361.691 352.897 361.881 351.163 361.707 350.609C361.588 350.228 360.756 349.911 360.464 349.606C359.846 348.959 359.804 347.792 359.315 347.002C359.178 346.781 358.908 346.464 358.855 346.216C358.791 345.912 359.197 345.217 359.328 345.144M361.298 345.062C361.3 345.186 361.31 345.296 361.329 345.388C361.714 347.225 366.187 349.383 365.924 351.505C366.255 351.926 366.614 352.329 366.915 352.763M354.697 338.384C355.058 338.545 355.355 338.784 355.771 338.894C355.88 338.923 356.007 338.983 356.114 338.998C356.646 339.074 357.429 339.052 357.964 338.984C358.295 338.943 358.648 338.762 358.978 338.754C359.272 338.746 359.539 338.822 359.807 338.894M359.14 344.126L358.42 344.512C357.677 343.701 357.635 342.946 356.585 342.349C355.936 341.979 355.118 342.104 354.478 341.562C353.934 341.103 353.543 340.447 353.14 339.799M342.648 303.514C342.394 303.049 342.16 302.579 342.02 302.09C341.832 301.428 341.508 300.668 341.538 299.97C341.547 299.793 341.536 299.606 341.453 299.445M327.133 283.514C326.217 284.444 325.9 283.69 324.969 284.157C324.436 284.424 324.457 285.001 324.202 285.43M341.831 298.468C341.897 298.101 342.047 297.838 342.075 297.437C342.137 296.525 341.701 295.381 341.075 294.698C340.731 294.322 338.61 293.207 337.981 292.676C337.572 292.332 337.316 291.865 336.913 291.509C336.672 291.297 336.33 291.253 336.089 291.048C335.643 290.669 335.28 290.136 334.832 289.773C334.197 289.257 333.693 288.89 333.17 288.24C332.602 287.533 331.698 285.271 331.301 284.264M320.037 287.291L320.293 287.372C320.407 287.327 320.53 287.192 320.59 287.087L320.631 286.803L320.536 286.586C319.857 285.982 318.904 286.462 318.145 286.179C317.544 285.955 316.87 285.761 316.308 285.433C315.718 285.089 314.879 284.478 314.227 284.307C313.5 284.115 312.885 284.127 312.14 284.075M303.052 287.631C303.798 288.047 304.575 288.315 305.254 287.861L305.362 287.645C305.395 287.379 305.257 287.231 305.119 287.034M307.552 285.635C307.144 285.296 305.943 284.951 305.404 284.876C304.967 284.815 304.298 285.123 303.624 285.25M334.021 302.7C333.942 302.891 333.979 303.066 333.94 303.256C333.793 303.969 333.33 304.49 333.386 305.278C333.412 305.649 333.685 306.066 333.805 306.417C333.943 306.822 333.928 307.297 334.049 307.719C334.142 308.049 334.322 308.287 334.498 308.536M248.709 303.208C248.224 302.929 247.679 302.737 247.206 302.414C246.353 301.833 241.829 297.645 241.598 296.907C241.67 296.781 241.779 296.655 241.896 296.568C242.057 296.602 242.221 296.658 242.368 296.73V296.893M247.893 298.207C248.39 299.457 248.73 300.806 249.612 301.859L249.819 302.124M241.062 292.066C241.32 292.444 241.708 292.826 242.396 293.218C242.726 293.405 243.14 293.485 243.566 293.513M240.936 294.399C241.007 294.539 241.014 294.795 240.964 294.941L240.775 294.995C240.397 294.779 239.666 293.535 239.256 292.325M261.056 252.355L261.007 252.24C260.58 251.139 259.665 250.287 259.151 249.256C259.076 249.104 259.009 248.938 258.989 248.768C259.063 248.641 259.169 248.516 259.287 248.429C259.425 248.422 259.661 248.486 259.759 248.591L259.826 248.754M262.349 248.24C262.139 248.487 261.999 248.772 262.083 249.174C262.163 249.554 262.852 250.316 263.425 251.151M327.481 195.227C327.101 195.308 326.779 195.562 326.414 195.689C325.985 195.403 326.039 194.366 325.995 193.898L326.172 193.749M325.184 190.738C323.917 191.917 322.97 190.787 323.198 190.182C323.38 190.035 323.609 189.954 323.766 189.775C324.021 189.481 324.309 188.492 324.591 188.363C324.747 188.293 325.42 188.413 325.753 188.282C326.013 188.178 326.093 187.979 326.415 188.037C326.586 188.068 328.274 188.397 328.359 188.451M291.758 188.052C291.642 188.319 291.563 188.655 291.472 188.919C291.187 189.755 290.73 190.583 290.404 191.402C290.151 192.038 289.841 193.027 289.796 193.707C289.771 194.097 289.837 194.489 289.811 194.874C289.779 195.344 289.619 195.831 289.608 196.298C289.601 196.56 289.796 197.017 289.986 197.206C290.101 197.321 290.576 197.598 291.129 197.875M310.183 185.549C309.375 185.43 308.886 186.081 308.336 186.356C307.924 186.564 305.722 187.491 305.376 187.523C304.868 187.571 304.38 187.442 303.891 187.346C302.798 187.133 302.234 186.67 301.782 185.624C301.371 185.432 300.68 185.24 300.228 185.204L299.999 185.299C299.598 186.197 296.926 186.485 295.293 186.443M303.635 198.631C303.441 196.776 302.976 194.533 303.849 193.071C305.75 189.889 306.947 192.111 308.091 191.66C308.187 191.621 308.311 191.495 308.388 191.425C309.095 190.773 309.008 190.119 309.251 189.38M230.667 175.726C230.894 175.716 231.187 175.68 231.573 175.614C231.969 175.545 232.844 174.957 232.923 174.718L233.152 174.623C233.354 174.719 233.492 174.909 233.639 175.07C233.881 175.146 234.151 175.088 234.396 175.057C235.066 175.368 234.619 176.465 235.437 176.888C236.241 177.304 237.362 177.566 238.277 177.752M228.857 183.603C228.786 184.005 228.938 184.628 228.938 185.068C228.836 185.237 228.589 185.279 228.412 185.295C227.348 185.396 227.232 183.91 226.736 183.292C226.364 182.829 224.946 181.81 224.363 181.27C224.229 181.146 224.184 180.976 224.021 180.862C223.952 180.488 223.62 180.019 223.629 179.682C223.652 178.773 224.62 178.433 224.697 177.54C225.25 176.963 225.41 177.002 225.774 176.439M88.1184 192.623C87.7065 192.64 87.2526 192.856 86.8345 192.746C86.7261 192.717 86.6177 192.662 86.5148 192.619C86.2207 192.497 85.9329 192.178 85.6319 192.014C85.3557 191.862 85.0399 191.829 84.7622 191.697C84.6733 191.655 84.5727 191.603 84.4962 191.539C83.9737 191.098 81.2251 187.304 80.8211 186.587C80.5754 186.152 80.481 185.68 80.2127 185.245C79.9343 184.794 79.3976 184.526 79.1457 184.065C78.9718 183.746 78.7776 183.162 78.8213 182.803C78.8564 182.514 79.0981 181.876 79.2806 181.65C79.6503 181.192 80.1815 180.843 80.5645 180.388C80.8421 180.059 81.5667 179.14 82.1142 178.535M276.545 199.771C277.431 199.955 278.403 200.108 279.244 200.125C279.697 200.085 280.411 200.252 280.824 200.125C281.978 199.771 283.268 198.934 284.513 199.053C285.006 199.262 285.045 199.795 285.296 200.179C285.496 200.486 285.941 200.67 286.223 200.951M449.237 151.948C449.05 151.784 448.826 151.64 448.631 151.496L448.578 151.252C448.743 150.889 448.998 150.503 449.078 150.112C449.193 149.546 448.837 148.627 449.159 148.2L449.429 148.024C449.845 147.905 450.01 148.287 450.349 148.349C450.642 148.403 451.051 148.157 451.335 148.064C451.494 148.075 451.61 148.136 451.714 148.218M396.844 41.498C396.909 41.0807 396.88 40.7322 396.676 40.5514C395.71 40.1928 396.092 39.9359 395.744 39.2493C395.604 39.2023 395.459 39.1349 395.338 39.0457C395.312 38.8625 394.834 38.3935 394.65 38.1899C394.65 38.1899 394.246 37.8203 394.081 37.7968L393.96 37.5932C394.078 37.374 394.676 36.7656 394.676 36.7656C395.738 37.0452 396.797 36.5848 397.688 37.1047C397.955 37.2597 398.535 37.6708 399.107 38.1171" stroke="black" stroke-width="2" stroke-miterlimit="3.8637"/>
<path d="M400.183 39.3832L400.233 39.1718L400.356 39.0692C400.399 39.0567 400.456 39.0888 400.484 39.1162C400.553 39.2704 400.512 39.7019 400.442 39.8381L400.28 39.7481C400.253 39.6204 400.227 39.5053 400.183 39.3832ZM400.378 40.0808C400.678 39.9736 400.583 40.1818 400.488 40.4355C400.278 40.5162 400.361 40.1662 400.378 40.0808ZM400.329 40.6962L400.47 40.7221L400.477 40.8286C400.456 40.8568 400.421 40.8896 400.408 40.9225C400.36 41.0345 400.267 41.3657 400.218 41.4385C400.094 41.6202 398.95 42.3664 398.755 42.2567C398.897 42.0203 399.095 42.0109 399.3 41.8895C399.918 41.5262 399.967 41.0361 400.329 40.6962ZM398.298 42.53L398.315 42.4157C398.44 42.3765 398.535 42.2442 398.668 42.245L398.711 42.321C398.613 42.4345 398.441 42.4979 398.298 42.53ZM398.069 42.588L398.054 42.7148C397.847 42.8471 397.827 43.1447 397.645 43.2347L397.515 43.2183C397.585 42.9724 397.829 42.7539 398.004 42.5739L398.069 42.588ZM397.258 43.4477C397.12 43.4939 397.068 43.6285 396.936 43.6724L396.86 43.6489C396.907 43.5792 396.961 43.5017 397.028 43.4524C397.098 43.4265 397.188 43.4304 397.258 43.4477ZM452.225 149.905L452.309 149.991C452.257 150.039 452.176 150.073 452.106 150.08L452.063 150.041L452.114 149.953L452.225 149.905ZM450.93 152.886L450.867 152.974L450.761 152.928L450.694 152.798L450.711 152.696L450.771 152.678C450.834 152.733 450.891 152.81 450.93 152.886ZM228.462 175.455C228.619 175.353 228.784 175.259 228.951 175.175L228.848 175.526C228.723 175.477 228.593 175.475 228.462 175.455ZM227.277 176.138C227.27 176.08 227.279 176.012 227.3 175.958L227.398 175.896L227.452 175.972L227.45 176.024L227.277 176.138ZM86.9234 176.871L87.0084 176.903L87.049 177.006L86.9756 177.105L86.8563 177.062C86.8235 176.887 86.7697 176.902 86.9234 176.871ZM86.4367 177.038L86.4562 177.134C86.4234 177.188 86.3173 177.199 86.2627 177.197L86.198 177.123L86.2191 177.069C86.2846 177.041 86.368 177.029 86.4367 177.038ZM88.1604 177.111L88.3218 177.07C88.3601 177.293 88.3858 177.52 88.4357 177.74L88.2516 177.772C88.0606 177.704 87.8406 177.545 87.7805 177.333C87.878 177.316 87.9724 177.296 88.0723 177.292L88.1604 177.111ZM84.3753 178.083H84.4712L84.5039 178.115L84.4712 178.199C84.4298 178.227 84.3573 178.242 84.3097 178.219V178.144L84.3753 178.083ZM83.7139 178.558L83.7256 178.483C83.7552 178.42 83.8441 178.375 83.9096 178.368L83.9517 178.411L83.9299 178.486L83.8659 178.538L83.7139 178.558ZM90.6477 178.998L90.831 179.01L90.9472 179.128L90.9144 179.203C90.831 179.215 90.707 179.191 90.6446 179.126L90.6477 178.998ZM91.809 179.23L91.8285 179.378L91.7529 179.462L91.6234 179.494L91.5704 179.43C91.5867 179.324 91.646 179.251 91.7006 179.164L91.8082 179.228L91.809 179.23ZM241.048 179.508C241.02 179.586 240.945 179.757 240.861 179.793C240.75 179.551 240.674 179.288 240.616 179.032L239.787 178.476C240.596 178.66 240.836 178.548 241.048 179.508ZM92.3215 180.201L92.4611 180.137L92.5469 180.255V180.361L92.4049 180.329L92.3215 180.201ZM93.202 182.547C93.3206 182.592 93.4376 182.706 93.5015 182.814L93.447 182.911L93.2644 182.877C93.1256 182.694 93.0718 182.884 93.202 182.547ZM241.211 184.344L241.148 184.216C241.22 184.017 241.471 183.673 241.377 183.465L241.443 183.359L241.56 183.393C241.565 183.583 241.545 183.975 241.46 184.147C241.374 184.194 241.267 184.259 241.211 184.344ZM234.384 184.4C234.441 184.311 234.537 184.297 234.613 184.233L234.709 184.255L234.752 184.373C234.647 184.411 234.558 184.486 234.449 184.507L234.384 184.4ZM232.375 184.813C232.46 184.768 232.58 184.721 232.677 184.733L232.688 184.828L232.634 184.86L232.375 184.813ZM231.039 184.813L231.149 184.772C231.284 184.886 231.448 184.979 231.607 185.055L231.572 185.172C231.31 185.332 231.11 185.068 231.039 184.813ZM292.851 186.898C292.851 186.784 292.941 186.679 293.032 186.62L293.107 186.695L293.105 186.78C293.055 186.854 292.937 186.897 292.851 186.898ZM310.218 187.869L310.079 187.844L310.059 187.769L310.126 187.654L310.108 187.527L310.334 187.5L310.384 187.66L310.304 187.818L310.218 187.869ZM94.9983 188.406C94.9647 188.461 94.8969 188.512 94.8361 188.532C94.8119 188.463 94.7635 188.394 94.7292 188.329L94.7409 188.222L94.8711 188.117L94.9983 188.406ZM329.713 189.581C329.726 189.472 329.77 189.389 329.87 189.338L329.954 189.404L329.929 189.531L329.885 189.573L329.713 189.581ZM94.3135 189.153L94.3977 189.303C94.3728 189.548 94.2402 189.828 94.1349 190.047C94.0538 189.83 94.0522 189.47 94.0756 189.237L94.1193 189.173L94.3135 189.153ZM330.96 190.047C331.055 190.04 331.17 190.077 331.249 190.128C331.209 190.177 331.148 190.239 331.084 190.253L330.968 190.206L330.96 190.047ZM331.307 190.843C331.242 190.757 331.193 190.661 331.174 190.552L331.209 190.469C331.322 190.56 331.461 190.584 331.603 190.564L331.613 190.671C331.559 190.764 331.411 190.836 331.307 190.843ZM93.0866 191.909C93.0382 192.335 93.0765 192.658 92.7138 192.959C92.3878 193.23 91.4807 193.293 91.568 192.656C91.8129 192.363 92.6319 192.46 93.0866 191.909ZM329.086 194.507L329.12 194.422C329.236 194.345 329.473 194.331 329.605 194.349L329.716 194.277L329.627 194.401C329.54 194.443 329.206 194.561 329.117 194.56C329.095 194.559 329.074 194.524 329.086 194.507ZM438.686 197.605L438.652 197.491C438.811 197.325 439.101 197.271 439.137 197.006L439.237 196.924C439.365 196.941 439.473 197.006 439.6 196.963L439.69 197.045L439.625 197.213C439.326 197.356 438.996 197.487 438.686 197.605ZM435.009 197.895L435.217 197.944C435.283 198.032 435.351 198.123 435.402 198.221L435.292 198.256L435.074 198.174L434.977 198.027L435.009 197.895ZM292.813 198.708L292.837 198.571L293.13 198.375L293.144 198.215L293.272 198.367L293.257 198.537C293.172 198.685 292.961 198.69 292.813 198.708ZM297.305 200.328C297.303 200.453 297.232 200.685 297.123 200.761C296.962 200.799 296.803 200.835 296.638 200.847L296.532 200.792L296.438 200.63L296.536 200.589C296.665 200.638 296.833 200.658 296.965 200.609C297.028 200.562 297.087 200.492 297.121 200.42L297.305 200.328ZM274.667 200.923C274.646 200.812 274.655 200.529 274.774 200.48L274.881 200.513C274.939 200.669 274.757 200.822 274.667 200.923ZM300.471 201.504C300.286 201.438 300.149 201.386 299.992 201.271L300.08 201.241C300.264 201.313 302.404 201.071 302.569 200.954C302.655 200.755 302.664 200.532 302.69 200.319C303.192 200.156 302.7 200.81 302.693 201.17C302.627 201.234 302.498 201.225 302.423 201.218C301.587 201.131 301.202 201.373 300.471 201.504ZM274.523 201.741C274.517 201.687 274.566 201.62 274.602 201.583C274.688 201.595 274.781 201.658 274.845 201.716L274.844 201.78C274.758 201.848 274.607 201.781 274.523 201.741ZM430.746 201.564L430.84 201.637C430.829 201.71 430.794 201.788 430.753 201.848L430.661 201.856L430.595 201.763L430.626 201.653L430.746 201.564ZM277.829 202.467L277.876 202.34L278.015 202.333L278.09 202.398L278.088 202.449C278.036 202.491 277.941 202.531 277.873 202.508L277.829 202.467ZM276.832 202.34C277.022 202.311 277.214 202.334 277.402 202.362L277.441 202.48C277.285 202.542 276.98 202.531 276.84 202.426L276.832 202.34ZM280.568 202.597L280.592 202.481C280.683 202.427 280.799 202.377 280.906 202.37L280.893 202.517C280.765 202.496 280.691 202.618 280.568 202.597ZM279.693 202.78L279.783 202.622C279.86 202.615 279.947 202.588 280.011 202.542L280.236 202.578L280.211 202.674C280.062 202.765 279.863 202.773 279.693 202.78ZM283.36 202.75C283.456 202.734 283.665 202.701 283.747 202.768L283.745 202.852C283.634 202.901 283.526 202.887 283.411 202.868L283.36 202.75ZM285.523 202.709L285.725 202.787L285.678 202.904L285.583 202.87C285.549 202.827 285.531 202.762 285.523 202.709ZM443.277 232.862C443.371 232.909 443.495 232.961 443.551 233.057L443.503 233.168L443.339 233.238L443.197 233.157L443.199 232.972L443.277 232.862ZM443.546 233.35L443.768 233.411L443.748 233.543L443.64 233.56L443.558 233.473L443.546 233.35ZM443.812 233.896L443.87 233.738L444.056 234.107C444.026 234.198 443.987 234.156 443.91 234.134C443.832 234.037 443.838 234.025 443.812 233.896ZM444.281 234.892L444.377 234.958L444.384 235.065L444.334 235.147C444.095 235.212 444.178 235.018 444.281 234.892ZM444.515 238.042L444.629 237.949C444.682 238.013 444.689 238.132 444.657 238.206L444.586 238.246L444.523 238.191L444.515 238.042ZM444.43 240.03L444.544 240.007C444.579 240.033 444.608 240.087 444.609 240.131L444.575 240.199L444.506 240.214C444.455 240.176 444.434 240.087 444.43 240.03ZM439.411 241.03L439.534 241.049L439.596 241.104C439.603 241.165 439.599 241.237 439.578 241.296C439.529 241.301 439.478 241.243 439.436 241.221L439.411 241.03ZM486.688 240.688C486.653 241.143 486.532 241.7 485.984 241.742L485.952 241.699C486.008 241.552 486.059 241.38 486.057 241.222L486.295 241.119L486.34 241.003L486.189 241.054L486.104 241.02C486.075 240.902 486.2 240.695 486.293 240.629C486.455 240.593 486.536 240.608 486.688 240.688ZM445.048 244.276L445.128 244.3C445.167 244.38 445.169 244.389 445.16 244.477C445.095 244.545 445.038 244.591 444.962 244.648L444.905 244.565L444.937 244.386L445.048 244.276ZM258.221 245.525C258.311 245.607 258.44 245.709 258.456 245.838L258.38 245.942L258.272 245.919C258.209 245.788 258.166 245.675 258.221 245.525ZM261.756 245.868C261.809 245.774 261.892 245.674 261.985 245.616L262.061 245.644C262.058 245.728 262.072 245.824 262.104 245.901C262.187 245.945 262.355 245.907 262.437 245.881L262.625 246.044C262.665 246.171 262.666 246.403 262.596 246.521L262.415 246.492C262.227 246.302 262.121 246.164 261.862 246.071L261.756 245.868ZM423.73 250.585L423.78 250.48L423.872 250.457L423.94 250.523L423.932 250.618L423.86 250.685L423.73 250.585ZM399.375 252.133L399.453 252.041C399.602 252.088 399.807 252.164 399.885 252.308C399.876 252.405 399.826 252.532 399.747 252.592C399.57 252.477 399.476 252.307 399.375 252.133ZM400.286 252.996C400.101 252.92 400.112 252.867 400.065 252.682C400.222 252.685 400.462 252.688 400.58 252.802C400.506 252.911 400.416 252.96 400.286 252.996ZM263.049 252.699L263.123 252.823L263.044 253.008C262.908 253.056 262.777 252.957 262.638 252.947L262.699 252.831C262.814 252.784 262.927 252.732 263.049 252.699ZM410.259 258.301L410.19 258.251L410.182 258.181L410.227 258.092L410.336 258.059L410.405 258.108L410.396 258.197L410.259 258.301ZM400.329 258.074L400.489 258.123C400.489 258.228 400.513 258.338 400.544 258.438L400.494 258.517C400.4 258.496 400.293 258.43 400.237 258.351L400.236 258.232L400.329 258.074ZM411.356 258.658L411.516 258.668L411.523 258.796L411.423 258.889L411.327 258.864L411.356 258.658ZM411.74 259.053L411.758 258.941L411.889 258.896L412.009 258.948L412.003 259.002C411.942 259.02 411.876 259.059 411.834 259.109L411.74 259.053ZM412.513 259.486C412.419 259.383 412.274 259.347 412.163 259.268L412.264 259.208L412.448 259.32L412.513 259.486ZM402.636 259.942L402.768 259.925C402.814 259.974 402.834 260.061 402.843 260.124L402.745 260.191L402.619 260.112L402.636 259.942ZM413.17 260.928L413.263 260.872L413.351 260.901L413.369 261.008L413.309 261.081L413.234 261.096L413.17 260.928ZM414.2 261.662L414.131 261.649C414.085 261.483 413.868 261.427 413.739 261.339L413.849 261.299C413.98 261.384 414.093 261.462 414.202 261.577L414.2 261.662ZM410.311 261.989C410.425 262.109 410.682 262.106 410.831 262.102L410.872 262.167C410.764 262.209 410.324 262.299 410.29 262.107L410.311 261.989ZM409.931 262.154L409.893 262.333C409.788 262.427 409.566 262.451 409.449 262.373L409.456 262.292C409.615 262.245 409.778 262.226 409.931 262.154ZM413.131 262.512C413.171 262.551 413.231 262.578 413.283 262.593C413.493 262.537 413.704 262.481 413.904 262.399C413.902 262.357 413.908 262.3 413.935 262.266C414.046 262.277 414.251 262.281 414.323 262.374C414.149 262.558 413.39 262.768 413.136 262.688L413.131 262.512ZM407.906 263.082C407.902 263.198 407.826 263.296 407.775 263.396C407.608 263.569 406.878 263.598 406.651 263.559L406.696 263.486C407.116 263.45 407.268 263.442 407.401 263.388C407.52 263.341 407.627 263.257 407.906 263.082ZM29.8351 263.764L29.7922 263.903C29.7259 263.932 29.6097 263.948 29.5465 263.901L29.5247 263.785C29.616 263.821 29.747 263.803 29.8351 263.764ZM30.7102 265.478L30.6338 265.542C30.2173 265.656 29.2595 265.292 28.8711 265.127L28.999 265.062C29.2283 265.211 29.4444 265.239 29.715 265.191C29.9428 265.394 30.2095 265.395 30.4957 265.34L30.7102 265.478ZM452.537 274.916C452.611 274.87 452.684 274.789 452.716 274.709L452.845 274.64L452.983 274.686L453.036 274.806L452.992 274.862C452.786 274.833 452.726 274.909 452.559 274.992L452.537 274.916ZM438.374 275.72L438.474 275.607L438.531 275.624L438.514 275.719L438.446 275.786L438.374 275.72ZM439.851 275.828L439.962 275.736C440.088 275.702 440.39 275.808 440.419 275.948L440.365 275.984C440.187 275.905 440.017 275.902 439.851 275.828ZM454.317 276.163C454.258 276.133 454.192 276.069 454.171 276.003L454.195 275.951L454.27 275.975C454.308 276.024 454.32 276.103 454.317 276.163ZM443.489 276.272C443.575 276.157 443.696 276.02 443.849 276.017L443.944 276.085L443.888 276.152C443.745 276.181 443.647 276.259 443.489 276.272ZM444.409 276.345L444.535 276.292L444.602 276.341L444.57 276.516C444.508 276.465 444.454 276.414 444.409 276.345ZM454.884 276.757C454.819 276.706 454.745 276.626 454.72 276.544L454.771 276.476L454.852 276.478C454.926 276.6 454.968 276.649 454.884 276.757ZM456.055 278.175L456.139 278.173L456.234 278.252C456.262 278.329 456.303 278.402 456.28 278.487L456.078 278.288L456.055 278.175ZM456.585 278.768L456.872 278.779C457.157 279.116 457.087 279.93 456.594 280.047L456.544 279.959C456.879 279.347 456.585 279.278 456.585 278.768ZM455.518 282.053L455.807 281.78C455.938 281.799 455.909 281.779 455.904 281.918C455.822 282.035 455.656 282.101 455.518 282.053ZM454.685 282.667C454.806 282.568 454.887 282.425 455.043 282.377L455.078 282.447C454.997 282.572 454.904 282.71 454.783 282.798L454.725 282.78L454.685 282.667ZM328.962 282.872L328.575 282.912L328.514 282.77C328.577 282.385 328.882 282.025 329.266 281.932C329.424 281.959 329.858 282.092 329.936 282.258C329.986 282.393 329.979 282.616 329.936 282.749L329.795 282.73L329.55 282.422L329.265 282.404C329.091 282.492 328.986 282.681 328.962 282.872ZM448.014 283.384C448.055 283.281 448.194 283.178 448.294 283.143L448.4 283.167C448.366 283.28 448.262 283.294 448.201 283.378L448.014 283.384ZM310.069 285.096L309.982 285.03C310.104 284.949 310.246 284.92 310.376 284.853L310.561 284.878L310.592 284.986C310.425 285.059 310.246 285.062 310.069 285.096ZM299.066 285.254C299.272 285.205 299.505 285.282 299.65 285.443L299.699 285.598L299.65 285.656C299.554 285.627 299.08 285.502 299.024 285.423L299.066 285.254ZM300.402 285.704L300.555 285.722L300.676 285.816L300.659 285.9C300.568 285.915 300.435 285.887 300.367 285.82L300.402 285.704ZM301.482 286.069L301.531 286.011L301.645 285.988L301.745 286.032L301.792 286.102L301.779 286.192L301.718 286.233C301.634 286.192 301.555 286.129 301.482 286.069ZM323.181 286.949L323.23 286.866L323.402 286.859C323.38 286.927 323.33 286.983 323.281 287.032L323.2 287.036L323.181 286.949ZM239.48 290.404L239.702 290.456C239.815 290.641 239.924 290.711 239.939 290.965L239.812 290.983C239.693 290.896 239.417 290.566 239.48 290.404ZM441.378 291.762L441.552 291.788L441.568 291.922L441.487 291.967L441.382 291.893L441.378 291.762ZM443.203 293.014C443.256 293.016 443.399 293.035 443.431 293.09L443.374 293.178L443.267 293.192L443.193 293.119L443.203 293.014ZM316.519 294.111L316.607 294.197C316.53 294.244 316.355 294.217 316.282 294.17C316.354 294.135 316.441 294.122 316.519 294.111ZM245.191 293.949L245.393 294.006L245.485 294.183L245.399 294.266C245.286 294.206 245.18 294.129 245.082 294.048L245.191 293.949ZM317.038 294.392L316.992 294.202C317.233 294.253 317.313 294.316 317.426 294.568L317.385 294.636C317.26 294.579 317.135 294.49 317.038 294.392ZM318.589 295.282C318.49 295.325 318.343 295.338 318.241 295.295L318.194 295.214L318.255 295.145C318.367 295.188 318.49 295.212 318.589 295.282ZM326.576 295.327L326.642 295.265L326.748 295.289L326.825 295.397L326.813 295.478C326.762 295.484 326.699 295.468 326.653 295.446L326.576 295.327ZM321.731 295.541C321.831 295.453 321.976 295.411 322.106 295.4L322.163 295.46C322.053 295.615 321.883 295.644 321.731 295.541ZM323.09 295.59L323.23 295.541L323.327 295.558L323.28 295.643C323.106 295.716 322.925 295.623 322.748 295.608L322.707 295.517L323.09 295.59ZM318.809 295.409C318.877 295.436 319.272 295.707 319.281 295.76C319.124 295.759 318.948 295.732 318.814 295.647L318.764 295.529L318.809 295.409ZM320.378 296.085C320.432 296.036 320.5 295.991 320.568 295.967C320.617 295.933 320.667 296.037 320.614 296.052C320.554 296.092 320.476 296.124 320.404 296.133L320.378 296.085ZM330.02 296.734L330.12 296.802L330.167 296.919L330.12 297.008L330.014 296.999L329.951 296.951L330.02 296.734ZM246.857 297.148L246.773 297.088L246.738 296.97L246.793 296.87L246.883 296.898L246.929 296.968C246.933 297.03 246.89 297.102 246.857 297.148ZM330.67 297.208C330.75 297.243 330.803 297.389 330.814 297.466L330.791 297.535C330.777 297.54 330.599 297.399 330.581 297.381L330.67 297.208ZM447.521 299.37C447.638 299.386 447.757 299.407 447.843 299.493L447.806 299.581L447.657 299.608C447.588 299.536 447.538 299.476 447.521 299.37ZM333.482 299.165C333.572 299.252 333.573 299.446 333.616 299.567L333.588 299.652C333.478 299.6 333.334 299.365 333.346 299.237L333.482 299.165ZM271.79 302.684L271.755 302.561L271.822 302.456L271.929 302.484L271.984 302.57L271.79 302.684ZM273.226 303.16L273.284 303.171L273.304 303.267L273.249 303.314L273.202 303.277L273.226 303.16ZM250.413 303.688C250.52 303.787 250.772 303.821 250.815 303.935C250.723 303.985 250.56 304.019 250.457 303.986C250.4 303.938 250.346 303.872 250.317 303.804L250.413 303.688ZM271.542 304.428L271.451 304.432L271.389 304.372L271.385 304.271L271.439 304.224L271.497 304.252L271.542 304.428ZM273.712 303.924C273.79 304 273.886 304.169 273.881 304.283C273.638 304.484 273.373 304.532 273.086 304.437L273.116 304.347C273.255 304.319 273.385 304.302 273.528 304.293L273.663 304.178C273.659 304.094 273.685 304.001 273.712 303.924ZM488.979 305.001L488.816 305.101L488.759 305.068L488.741 304.986L488.791 304.919L488.877 304.917L488.979 305.001ZM490.783 305.589L490.968 305.585L491.074 305.659L490.984 305.735L490.895 305.737L490.783 305.589ZM484.975 304.971L485.009 305.206C484.918 305.227 484.828 305.264 484.744 305.307C484.604 305.491 484.573 305.773 484.339 305.867L484.218 305.804C484.235 305.618 484.415 305.073 484.562 304.971C484.699 304.991 484.84 304.986 484.975 304.971ZM342.879 305.946C343.011 305.549 342.959 305.408 342.945 305.027L343.017 304.939L343.089 305.037C343.146 305.549 343.174 305.54 342.98 306.029L342.879 305.946ZM494.526 306.744L494.661 306.675L494.802 306.808L494.787 306.923C494.693 306.927 494.573 306.815 494.526 306.744ZM342.023 306.909C342.041 306.812 342.128 306.709 342.212 306.663L342.301 306.681C342.322 306.743 342.19 306.889 342.15 306.942L342.023 306.909ZM341.648 307.633C341.651 307.518 341.693 307.374 341.769 307.285L341.885 307.235L341.889 307.32C341.816 307.418 341.787 307.533 341.726 307.639L341.648 307.633ZM485.459 307.889L485.588 307.994L485.526 308.098L485.424 308.131L485.407 308.009L485.459 307.889ZM495.951 307.989L496.119 307.942L496.217 308.052L496.17 308.135C496.089 308.11 496.011 308.045 495.951 307.989ZM336.318 309.897L336.314 310.002L336.182 310.042C336.047 309.975 335.881 309.911 335.766 309.813L335.79 309.698L336.318 309.897ZM341.552 310.932C341.461 310.796 341.4 310.564 341.486 310.409L341.562 310.401C341.621 310.486 341.684 310.757 341.65 310.859L341.552 310.932ZM499.713 311.029L499.87 310.987L500.036 311.121L500.062 311.254C499.981 311.253 499.896 311.224 499.824 311.192L499.713 311.029ZM338.84 311.932C338.993 311.963 339.117 311.988 339.247 312.086L339.313 312.211L339.305 312.295C339.149 312.246 339.043 312.133 338.891 312.076L338.84 311.932ZM486.566 311.827C486.633 311.918 486.739 312.149 486.694 312.268L486.624 312.303L486.507 312.181L486.488 311.985L486.566 311.827ZM340.408 313.04L340.517 312.994C340.564 313.121 340.727 313.272 340.837 313.342L341.085 313.352C341.214 313.264 341.303 312.931 341.322 312.791L341.542 312.855C341.57 313.134 341.523 313.468 341.45 313.736C341.288 313.847 340.957 313.923 340.765 313.865C340.543 313.692 340.387 313.322 340.408 313.04ZM502.438 313.712L502.574 313.786L502.647 313.937C502.618 314.125 502.416 314.308 502.242 314.363L502.168 314.286C502.148 314.19 502.136 314.084 502.149 313.987C502.277 313.93 502.359 313.822 502.438 313.712ZM492.502 318.371L492.676 318.415C492.741 318.465 492.771 318.577 492.77 318.653L492.672 318.676L492.538 318.531L492.502 318.371ZM500.571 323.512L500.724 323.544L500.771 323.722L500.576 323.938L500.426 323.986C500.36 323.808 500.457 323.644 500.571 323.512ZM499.979 324.127L500.126 324.148L500.17 324.267L500.06 324.321L499.937 324.259L499.979 324.127ZM493.637 329.595L493.75 329.722L493.739 329.913L493.618 329.979C493.572 329.93 493.527 329.843 493.536 329.773L493.637 329.595ZM498.006 331.491L498.107 331.48L498.195 331.547L498.198 331.642L498.121 331.692L498.014 331.673L498.006 331.491ZM326.057 332.302L326.3 332.318C326.316 332.36 326.308 332.416 326.293 332.457L326.211 332.491L326.1 332.419L326.057 332.302ZM498.89 332.169L499.108 332.204L499.268 332.349L499.196 332.542L499.053 332.627C499.038 332.619 498.872 332.293 498.798 332.213L498.89 332.169ZM492.364 336.044L492.486 336.028L492.55 336.142L492.499 336.273L492.392 336.296L492.328 336.239L492.364 336.044ZM498.825 336.856C498.758 336.783 498.714 336.631 498.736 336.534L498.871 336.517L498.929 336.647C498.906 336.718 498.874 336.798 498.825 336.856ZM494.627 337.41L494.738 337.452L494.781 337.576L494.704 337.63L494.597 337.601L494.558 337.53L494.627 337.41ZM499.405 338.079C499.328 338.017 499.219 337.88 499.215 337.774L499.36 337.752L499.483 337.89L499.405 338.079ZM352.317 337.909L352.434 337.917C352.452 338.064 352.645 338.162 352.739 338.26L352.736 338.376L352.618 338.404C352.448 338.342 352.306 338.088 352.317 337.909ZM499.747 338.527C499.763 338.607 499.753 338.716 499.709 338.787L499.629 338.779C499.58 338.687 499.583 338.563 499.611 338.465L499.694 338.457L499.747 338.527ZM496.851 338.403L497.062 338.591L497.046 338.84L496.866 338.839L496.759 338.612L496.851 338.403ZM361.221 339.281C361.569 339.27 362.097 339.803 361.911 340.171C361.774 339.961 361.69 339.619 361.451 339.489C361.384 339.5 361.302 339.497 361.239 339.47L361.197 339.399L361.221 339.281ZM499.91 340.187L499.854 340.269C499.716 340.099 499.592 339.925 499.482 339.734L499.587 339.627C499.82 339.81 499.889 339.87 499.91 340.187ZM360.958 343.35C361.009 343.386 361.074 343.419 361.136 343.43L361.186 343.494L361.13 343.585L361.036 343.57C360.993 343.512 360.956 343.424 360.958 343.35ZM367.161 355.086L367.13 355.18L367.035 355.244L366.981 355.181C367.029 354.962 366.915 354.754 366.818 354.567C366.8 354.486 366.917 354.521 366.935 354.44C367.04 354.648 367.116 354.858 367.161 355.086ZM365.506 357.987C364.783 358.271 364.861 358.98 363.865 358.335C363.762 358.269 363.519 358.143 363.489 358.002L363.531 357.916L363.657 357.937C363.808 358.139 364.227 358.393 364.468 358.482C364.842 358.392 365.124 358.103 365.43 357.901C365.526 357.84 365.561 357.955 365.506 357.987ZM396.572 365.488C396.514 365.456 396.392 365.283 396.529 365.276C397.076 365.254 398.428 365.211 398.359 366.103C398.157 366.49 398.143 366.95 397.634 367.064C397.586 367.065 397.545 367.001 397.557 366.957C397.737 366.778 398.09 366.43 398.126 366.179C397.874 365.543 397.24 365.299 396.572 365.488ZM396.658 368.941C396.628 368.744 396.653 368.531 396.772 368.366L396.834 368.334L396.92 368.354L396.952 368.408C396.909 368.596 396.876 368.789 396.86 368.981C396.786 368.982 396.718 368.992 396.658 368.941ZM396.519 370.609L396.497 370.312C396.557 370.19 396.571 370.147 396.666 370.067L396.749 370.054C396.786 370.176 396.762 370.321 396.764 370.447C396.715 370.537 396.606 370.571 396.519 370.609ZM379.608 375.371C379.052 375.021 379.05 373.762 378.916 373.177C378.855 372.916 378.739 372.716 378.698 372.432C378.669 372.244 378.959 371.679 379.16 371.645L379.235 371.718C379.195 371.827 378.944 372.41 378.943 372.445C378.898 373.51 379.353 374.383 379.608 375.371ZM382.827 377.113C382.306 377.118 381.826 376.977 381.339 376.836L381.348 376.72L381.462 376.682C381.679 376.731 382.718 376.938 382.827 377.028V377.113ZM385.001 378.649L384.95 378.788C384.586 378.666 384.174 378.482 384.001 378.114L384.021 378.03L384.147 377.997C384.272 378.093 384.38 378.288 384.438 378.431C384.608 378.543 384.814 378.571 385.001 378.649ZM391.493 379.496C391.495 379.834 391.498 379.986 391.285 380.284L391.094 380.317C390.588 380.074 390.568 380.102 390.042 380.144C389.849 380.159 389.738 380.049 389.574 379.987C389.335 379.897 388.345 380.022 388.057 380.008C387.941 379.932 387.843 379.849 387.738 379.756C387.723 379.6 387.734 379.398 387.702 379.247C387.601 379.2 385.59 379.211 385.324 379.189L385.196 379.062L385.183 378.934L385.236 378.882C385.366 378.968 387.121 379.119 387.413 379.164C387.523 379.114 387.628 379.07 387.741 379.034C387.828 379.286 387.915 379.451 388.085 379.659C388.77 379.827 390.638 380.002 391.27 379.806L391.493 379.496ZM494.476 383.021L494.551 382.83C494.643 382.792 494.847 382.662 494.944 382.69L495.008 382.786C494.951 382.839 494.555 383.024 494.476 383.021ZM521.322 381.559C521.189 381.751 521.057 381.931 520.94 382.134C520.924 382.433 520.965 382.74 520.997 383.036L520.966 383.09L520.88 383.08L520.806 383.005C520.799 382.48 520.781 381.956 520.802 381.431L520.887 381.411C521.044 381.444 521.148 381.545 521.322 381.559ZM495.198 382.837L495.217 382.678C495.364 382.714 495.511 382.79 495.632 382.876L495.707 383.035L495.686 383.164L495.602 383.206C495.504 383.134 495.521 382.994 495.422 382.92C495.344 382.906 495.267 382.87 495.198 382.837ZM505.961 386.748L506.058 386.652C506.191 386.912 506.306 387.142 506.484 387.372L506.358 387.374L505.961 386.748ZM508.181 387.217L508.201 387.101C508.601 386.878 508.848 387.74 509.009 387.917C508.763 387.648 508.511 387.379 508.181 387.217ZM517.89 387.416L518.03 387.469C517.953 387.635 517.86 387.79 517.786 387.958C517.765 387.841 517.697 387.58 517.732 387.48L517.89 387.416ZM532.675 388.717L532.96 388.524C533.135 388.648 533.087 388.653 533.28 388.65C533.448 388.343 534.407 387.81 534.21 387.361L534.113 387.277C534.029 387.248 533.908 387.282 533.828 387.309L533.764 387.257L533.731 387.162L533.828 387.065C534.101 386.967 534.462 387.19 534.582 387.436L533.387 388.927L533.271 388.96C533.144 388.938 533.018 388.876 532.921 388.79C532.657 388.79 532.615 389 532.675 388.717ZM531.095 389.136C530.972 389.14 530.106 389.129 530.034 389.014L530.087 388.949C530.341 388.897 530.931 388.839 531.107 389.095L531.095 389.136ZM532.157 389.197L531.89 389.115C531.532 389.144 530.9 389.916 530.417 389.779L530.365 389.65C530.844 389.465 531.523 389.046 531.775 388.955C531.914 388.991 532.052 389.043 532.178 389.112C532.212 389.104 532.551 389 532.405 389.074L532.157 389.197ZM509.378 388.541L509.365 388.285L509.206 388.073L509.343 387.966C509.444 388.145 509.624 388.329 509.61 388.551C509.317 388.867 508.658 388.945 508.247 388.948C506.731 388.958 505.219 390.671 503.615 390.085C505.167 389.945 506.36 389.431 507.827 388.887C508.328 388.7 508.89 388.877 509.378 388.541ZM502.526 390.428L502.25 390.504C501.814 390.391 501.389 390.257 500.97 390.096C499.446 389.515 497.933 388.911 496.416 388.317C495.969 388.142 495.425 388.084 495.004 387.897C494.271 387.571 494.022 386.869 493.343 386.477C493.296 386.451 493.23 386.345 493.195 386.3C493.238 385.876 493.423 385.748 493.616 385.406L493.732 385.363C493.711 387.326 494.666 387.483 496.172 388.073C498.1 388.83 500.275 389.923 502.333 390.334C502.402 390.346 502.483 390.368 502.526 390.428ZM517.251 389.927L517.73 390.912C517.52 390.736 517.279 390.716 517.052 390.576C516.997 390.485 516.937 390.396 516.912 390.29C516.972 390.183 517.197 389.573 517.303 389.555L517.389 389.587C517.355 389.699 517.292 389.812 517.251 389.927ZM528.593 389.921L528.7 390.016L528.625 390.068V390.112L528.486 390.201C528.124 390.475 528.112 390.79 527.898 391.145C527.696 391.478 526.976 391.885 526.66 392.19C526.623 392.206 526.594 392.143 526.596 392.117C526.728 391.683 527.506 391.577 527.738 391.22C527.99 390.833 528.115 390.351 528.391 389.952L528.593 389.921ZM526.424 394.807L526.466 394.871L526.339 395.137L526.096 395.255C525.685 395.214 525.215 394.668 524.851 394.483C524.622 394.366 524.291 394.36 524.088 394.177C523.871 393.982 523.837 393.696 523.513 393.593C523.047 393.748 522.719 393.314 522.407 393.055C522.05 393.021 520.458 393.599 519.778 393.617C519.048 393.334 518.862 392.948 518.554 392.261C518.487 392.113 518.48 391.934 518.395 391.793C518.379 391.769 518.178 391.543 518.209 391.556L518.437 391.655C518.783 392.558 519.247 392.852 519.852 393.477C520.711 393.763 521.894 392.529 522.642 392.906C522.76 393.037 522.884 393.2 523.014 393.318C523.215 393.501 523.478 393.423 523.705 393.539C523.882 393.632 525.518 394.83 525.714 394.992C525.794 395.059 525.931 395.212 526.055 395.2C526.215 395.126 526.323 394.945 526.424 394.807ZM418.815 426.187C418.847 426.245 418.801 426.333 418.785 426.39C418.754 426.403 418.702 426.365 418.678 426.348L418.647 426.274L418.678 426.21L418.815 426.187ZM531.991 428.425L531.979 428.245L532.392 428.107L532.509 428.137C532.702 428.248 532.059 428.402 531.991 428.425ZM423.281 428.659L423.123 428.617L422.907 428.214L422.918 428.097L423.024 428.076C423.15 428.234 423.19 428.475 423.281 428.659ZM423.325 428.915L423.421 428.893C423.591 429.073 423.779 429.343 423.723 429.604L423.659 429.593C423.469 429.236 423.735 429.331 423.325 428.915ZM524.641 430.311L524.471 430.206C524.408 429.978 524.412 429.639 524.532 429.428L524.882 429.268L524.914 429.374L524.775 429.427L524.629 429.64C524.624 429.868 524.572 430.088 524.641 430.311ZM524.885 431.151C524.967 431.486 524.991 431.786 525.036 432.118L524.93 432.107C524.857 431.939 524.803 431.764 524.727 431.598C524.733 431.438 524.824 431.294 524.885 431.151ZM525.169 433.49L525.02 433.364C524.999 433.189 524.971 433.014 525.019 432.842C525.093 433.05 525.119 433.274 525.169 433.49ZM424.857 431.607C425.396 432.538 425.336 433.3 425.484 433.53H425.44L425.312 433.446C425.198 433.22 425.247 432.915 425.161 432.66C425.04 432.302 424.869 431.946 424.719 431.599L424.857 431.607ZM426.791 434.607L426.696 434.587C426.651 434.436 426.546 434.228 426.416 434.13L426.556 434.088C426.717 434.207 426.789 434.412 426.791 434.607ZM426.984 434.785L427.253 435.465L427.051 435.446L426.837 434.84L426.984 434.785ZM526.045 435.785C525.807 435.795 525.814 435.588 525.249 435.639C525.076 435.655 524.905 435.637 524.742 435.577C524.952 435.193 525.038 434.683 525.076 434.245C525.226 434.648 525.365 435.074 525.651 435.403L525.611 435.488C525.706 435.538 526.025 435.687 526.045 435.785ZM427.721 435.943L427.774 435.879C427.883 435.883 428.068 435.965 428.125 436.067C428.158 436.097 428.113 436.168 428.072 436.153C427.944 436.12 427.82 436.023 427.721 435.943ZM533.156 436.187C533.02 436.171 531.74 436.144 531.726 436.139L531.713 436.043L531.777 435.957C532.174 435.928 532.533 435.942 532.932 435.965L533.156 436.187ZM529.694 436.922L529.567 437.178C528.901 437.699 528.058 437.08 527.553 436.629L527.363 436.46C527.186 436.305 526.935 436.237 526.819 436.024C526.81 436.009 526.815 435.988 526.838 435.995C527.097 436.099 527.311 436.227 527.516 436.426C527.847 436.748 528.788 437.487 529.302 437.212C529.436 437.14 529.537 436.995 529.694 436.922ZM430.437 436.629C430.67 436.666 430.837 436.94 430.975 437.106C430.991 437.123 431.284 437.416 431.175 437.375C430.817 437.242 430.559 437.006 430.437 436.629ZM535.366 437.873C534.838 437.721 534.451 437.12 534.121 436.697C535.067 437.489 534.796 437.672 536.157 437.371C536.425 437.311 536.809 437.17 537.069 437.155C537.239 437.145 538.394 437.489 538.604 437.598C538.893 437.746 539.113 437.953 539.381 438.127C539.651 438.303 539.945 438.325 540.21 438.486C539.694 438.939 538.81 437.828 538.148 437.802C537.82 437.787 537.494 437.524 537.165 437.431C536.982 437.379 535.648 437.823 535.366 437.873ZM433.017 439.389L432.879 439.358C432.948 439.177 432.94 439.003 432.94 438.815C432.847 438.596 432.666 438.481 432.46 438.382L432.609 438.369C433.142 438.535 433.154 438.946 433.017 439.389ZM542.737 440.308C542.874 440.34 543.023 440.363 543.129 440.467L543.193 440.701L543.098 440.711C542.918 440.644 542.792 440.49 542.737 440.308ZM420.262 441.763L420.209 441.839C420.023 441.745 419.423 441.602 419.391 441.565C419.345 441.482 419.332 441.323 419.399 441.247L419.624 441.256C419.845 441.413 420.056 441.59 420.262 441.763ZM429.525 442.41L429.483 442.294C430.301 442.048 430.546 441.124 431.267 440.826C431.617 440.68 433.138 440.248 432.86 439.593L433.03 439.752L432.957 440.093C432.471 440.686 432.304 440.487 431.72 440.739C431.221 440.954 430.872 441.396 430.502 441.773C430.318 441.96 429.792 442.432 429.525 442.41ZM429.316 442.645C429.437 442.699 429.567 442.766 429.666 442.857L429.71 442.984L429.646 443.005C429.477 442.877 429.408 442.873 429.316 442.645ZM543.679 442.442L543.728 442.498L543.845 442.529C543.897 442.71 543.973 442.893 544.079 443.051L544.058 443.145L544.016 443.178L543.952 443.125C543.936 442.922 543.831 442.734 543.676 442.604L543.679 442.442ZM544.6 443.921C544.964 444.037 545.196 444.259 545.185 444.686C544.961 444.736 544.643 444.085 544.6 443.921ZM424.506 446.632L424.486 446.728C424.456 446.782 424.372 446.795 424.318 446.803C424.179 446.624 424.041 446.423 423.987 446.199L424.059 446.146H424.136L424.506 446.632ZM424.92 446.875C425.038 446.936 425.257 447.288 425.19 447.436C425.027 447.357 424.963 447.028 424.92 446.875ZM427.562 449.221C427.23 449.151 426.408 448.544 426.252 448.24L426.337 448.175C426.803 448.494 427.004 448.832 427.6 448.891L427.792 448.762C427.997 448.289 428.383 446.764 428.508 446.162C428.547 445.981 428.486 445.75 428.525 445.577C428.596 445.269 428.829 445.036 428.87 444.702C428.907 444.412 428.814 444.192 428.908 443.872C428.981 443.621 429.188 443.474 429.36 443.294L429.53 443.379C429.002 443.776 429.098 444.078 429.07 444.668C429.054 445.014 428.823 445.173 428.747 445.468C428.552 446.241 428.395 448.994 427.562 449.221ZM404.625 456.1L404.613 455.983C404.695 455.816 404.894 455.363 405.065 455.298C405.172 455.298 405.244 455.3 405.34 455.362L405.394 455.553C405.282 455.729 404.867 456.14 404.625 456.1ZM357.446 455.662C357.651 455.794 357.872 455.838 358.073 455.976L358.095 456.104C358.032 456.155 357.935 456.202 357.851 456.202C357.704 456.088 357.56 455.973 357.425 455.843C357.403 455.8 357.446 455.714 357.446 455.662ZM358.689 456.365L358.701 456.227C358.899 456.145 359.079 456.072 359.302 456.095L359.353 455.752L359.45 455.783C359.629 456.614 359.436 458.339 358.324 458.346C358.129 458.207 357.853 457.587 357.894 457.359L357.967 457.315L358.02 457.325C358.16 457.57 358.318 458.295 358.739 458.096C358.834 458.051 358.96 457.966 358.999 457.861C359.158 457.429 359.367 456.856 359.337 456.378C359.3 456.332 359.248 456.294 359.199 456.263L359.093 456.252C358.979 456.326 358.91 456.445 358.777 456.489L358.693 456.363H358.689V456.365ZM384.542 500.548L384.511 500.793C384.456 500.879 384.38 500.974 384.291 501.029C384.004 500.866 384.36 500.578 384.542 500.548ZM383.726 501.83C383.87 502.09 383.888 502.281 383.974 502.553L383.923 502.66L383.818 502.704C383.615 502.575 383.415 502.342 383.315 502.122C383.436 501.981 383.573 501.923 383.726 501.83ZM389.177 502.058C389.16 502.348 389.165 502.751 389.035 503.007L388.95 503.05L388.897 503.029C388.851 502.806 388.864 502.575 388.819 502.348C388.848 502.244 388.9 502.136 388.965 502.049C389.037 502.049 389.103 502.081 389.177 502.058ZM384.509 503.517C384.239 503.574 384.203 503.433 384.105 503.194L384.147 503.115L384.231 503.093C384.411 503.223 384.441 503.317 384.509 503.517ZM385.151 504.355C385.878 504.621 385.696 505.515 387.34 504.69C387.859 504.428 388.136 503.993 388.69 503.723C388.854 503.643 389.064 503.258 389.149 503.382L389.163 503.537C389.13 503.679 389.031 503.746 388.919 503.819C388.832 503.878 388.715 503.901 388.616 503.938C388.132 504.122 387.788 504.529 387.38 504.851L387.277 504.909C386.677 505.17 385.058 505.452 385.151 504.355ZM403.243 363.986C402.945 363.986 402.704 364.137 402.704 364.325C402.704 364.513 402.946 364.664 403.243 364.664C403.54 364.664 403.782 364.513 403.782 364.325C403.782 364.137 403.541 363.986 403.243 363.986Z" fill="black" stroke="black" stroke-width="3" stroke-miterlimit="3.8637" stroke-linejoin="round"/>
</g>
<defs>
<clipPath id="clip0_66_2">
<rect width="578" height="578" fill="white"/>
</clipPath>
</defs>
</svg>
