<svg width="1000" height="1000" viewBox="0 0 1000 1000" fill="none" xmlns="http://www.w3.org/2000/svg">
<path fill-rule="evenodd" clip-rule="evenodd" d="M594.505 464.715L599.59 443.5L614.405 445.078L623.786 431.577L626.153 439.642L608.97 466.907L606.866 481.547L629.659 487.333L636.673 459.718L646.842 462.523L640.004 489.349L647.894 491.278L648.245 506.006L659.729 502.061L656.222 493.119L667.268 464.978L673.405 477.865L684.626 477.251L691.114 496.363L683.487 501.623L650.699 513.633L652.716 521.348L644.913 551.242L625.101 583.152L639.215 583.854L724.339 640.311L728.196 673.624L714.17 682.216L702.072 675.728L693.744 679.761L680.243 677.394L642.634 681.953L640.618 702.642L632.114 719.299L636.147 724.997L651.225 716.581L649.384 703.957L681.909 681.514L690.5 681.777L683.487 699.486L661.219 722.63L665.34 728.766L663.674 748.579L677.525 750.683L683.925 736.481L686.73 753.401L695.322 749.105L706.631 757.521L713.206 748.667L726.443 756.907L726.531 764.885L738.19 748.842L748.447 756.118L747.921 763.57L758.792 786.714L762.474 785.487L763 806.527L746.519 812.137L742.311 822.833L709.962 816.258L694.708 827.567L687.958 841.944L663.236 856.935L641.757 854.568L617.649 841.944L600.028 856.234L588.544 872.627L578.55 900.943L579.251 916.811L584.686 921.457L606.428 920.318L612.214 927.068L610.46 939.692L601.431 951.439L577.848 961.083L558.387 955.823L527.177 956.086L514.378 962.398L506.839 947.319L491.059 949.774L485.536 960.82L470.282 968.71L466.512 978.002L447.138 976.512L426.361 961.872L412.773 956.787L405.584 942.41L417.77 924.175L420.312 904.888L411.195 893.93L413.211 880.517L427.237 872.539L425.396 863.072L425.484 812.488L422.591 803.984L427.588 792.588L428.377 667.926L406.373 634.525L413.211 636.103V609.014L393.661 611.556L406.811 628.213L402.866 631.281L380.599 603.754L344.48 572.457L330.366 528.887L321.512 476.112L328.788 475.761L336.327 494.083L347.549 498.554L354.913 493.207L375.164 491.979L409.792 484.265L425.659 477.339L459.323 479.531L468.441 472.254L500.001 482.424L528.492 482.073L543.659 486.807L549.006 467.17L531.736 459.017L532.963 434.558L570.222 447.445L594.505 464.715Z" fill="black"/>
<path fill-rule="evenodd" clip-rule="evenodd" d="M343.779 55.0494L358.156 27.7852L366.221 22.0868L406.197 25.1552L419.786 21.2979L420.487 35.7628L429.604 30.5905L444.946 36.7271L438.809 41.8118L484.308 59.9588L494.916 68.2871L502.63 81.6124L507.189 132.371L502.893 133.686L514.553 173.224L501.841 181.815L487.727 198.033L469.142 197.507L463.882 206.975L469.931 239.237L477.821 259.137L483.081 261.329L476.769 275.881L483.431 286.489L477.733 297.798L464.145 302.795L457.57 284.473L424.695 297.71L419.347 318.312L412.334 330.322L400.236 338.563L380.336 343.823L377.004 324.01L362.101 327.166L367.361 346.277L325.982 356.447L268.473 358.112L250.765 345.488L239.894 327.604L237.001 316.12L243.488 296.834L252.518 289.382L249.011 283.158L283.727 233.1L294.072 211.008L293.02 204.258L307.046 156.918L308.011 134.212L332.294 128.865L327.297 120.098L310.641 124.744L305.118 115.452L345.094 103.266L337.905 77.7551L323.265 82.0507L329.314 92.0447L288.374 107.123L274.785 65.7447L289.338 54.3481L314.235 52.1564L339.921 57.6794L343.779 55.0494V55.0494Z" fill="black"/>
</svg>
