<svg width="1000" height="1000" viewBox="0 0 1000 1000" fill="none" xmlns="http://www.w3.org/2000/svg">
<path fill-rule="evenodd" clip-rule="evenodd" d="M487.102 68.5572L488.417 68.2998L489.045 68.6619C489.06 69.0788 488.796 69.7344 488.476 70.0093H487.62C487.537 69.5285 487.349 68.9792 487.102 68.5572Z" fill="black"/>
<path fill-rule="evenodd" clip-rule="evenodd" d="M488.227 67.3261C488.462 67.2801 488.706 67.3207 488.913 67.4405L489.541 67.8026C489.837 67.9734 490.024 68.2844 490.036 68.6259C490.051 69.0259 489.939 69.4415 489.802 69.7697C489.667 70.0941 489.446 70.4835 489.123 70.7616C488.943 70.9163 488.713 71.0014 488.476 71.0014H487.62C487.137 71.0014 486.724 70.6538 486.642 70.178C486.577 69.7989 486.425 69.3654 486.246 69.0593C486.083 68.7818 486.065 68.4427 486.197 68.1494C486.329 67.8561 486.595 67.6452 486.911 67.5834L488.227 67.3261Z" fill="black"/>
<path fill-rule="evenodd" clip-rule="evenodd" d="M525.235 131.031C525.287 131.354 525.142 132.245 525.405 132.433C525.327 132.528 525.246 132.63 525.151 132.71C524.792 132.12 524.852 131.561 525.235 131.031Z" fill="black"/>
<path fill-rule="evenodd" clip-rule="evenodd" d="M525.463 130.066C525.853 130.158 526.149 130.476 526.214 130.872C526.231 130.975 526.236 131.075 526.238 131.149C526.24 131.227 526.24 131.306 526.239 131.376C526.238 131.426 526.237 131.471 526.236 131.514C526.234 131.606 526.232 131.686 526.233 131.772C526.233 131.822 526.235 131.861 526.237 131.892C526.316 132.014 526.368 132.153 526.388 132.3C526.425 132.571 526.347 132.846 526.174 133.059C526.17 133.065 526.165 133.071 526.159 133.078C526.09 133.163 525.957 133.327 525.792 133.467C525.57 133.655 525.278 133.736 524.992 133.689C524.705 133.643 524.453 133.473 524.303 133.225C524.035 132.785 523.892 132.298 523.925 131.784C523.957 131.277 524.157 130.829 524.43 130.45C524.665 130.125 525.073 129.974 525.463 130.066ZM526.245 131.975C526.246 131.976 526.246 131.977 526.245 131.975Z" fill="black"/>
<path fill-rule="evenodd" clip-rule="evenodd" d="M527.201 132.965C527.175 132.483 527.294 132.01 527.26 131.536L527.745 131.34C527.944 131.674 527.921 132.23 527.745 132.572C527.553 132.684 527.369 132.82 527.201 132.965Z" fill="black"/>
<path fill-rule="evenodd" clip-rule="evenodd" d="M527.372 130.42C527.826 130.235 528.346 130.41 528.597 130.831C528.819 131.204 528.882 131.624 528.878 131.965C528.873 132.311 528.798 132.692 528.627 133.025C528.54 133.194 528.407 133.334 528.243 133.429C528.116 133.503 527.982 133.601 527.847 133.717C527.56 133.963 527.158 134.025 526.811 133.876C526.464 133.728 526.231 133.395 526.21 133.018C526.193 132.707 526.222 132.408 526.242 132.188C526.243 132.177 526.244 132.165 526.245 132.154C526.269 131.906 526.281 131.748 526.271 131.605C526.24 131.177 526.489 130.778 526.887 130.616L527.372 130.42Z" fill="black"/>
<path fill-rule="evenodd" clip-rule="evenodd" d="M546.482 171.434L546.143 171.373C546.281 170.98 546.385 170.453 546.341 170.033C546.647 169.558 546.84 169.262 547.248 168.902C548.31 168.588 549.242 169.649 549.434 170.598C549.318 171.028 549.144 171.382 548.926 171.763C548.28 172.258 546.991 172.019 546.482 171.434Z" fill="black"/>
<path fill-rule="evenodd" clip-rule="evenodd" d="M547.698 169.845C547.575 169.978 547.473 170.117 547.342 170.313C547.339 170.489 547.321 170.666 547.295 170.837C547.387 170.902 547.561 170.986 547.802 171.023C547.983 171.05 548.116 171.038 548.203 171.019C548.281 170.868 548.346 170.728 548.398 170.585C548.316 170.378 548.178 170.168 548.01 170.02C547.888 169.912 547.785 169.862 547.698 169.845ZM546.018 172.359L545.967 172.349C545.681 172.298 545.432 172.124 545.285 171.872C545.139 171.621 545.11 171.319 545.206 171.044C545.317 170.728 545.377 170.356 545.354 170.135C545.331 169.91 545.385 169.685 545.507 169.495C545.51 169.491 545.513 169.487 545.515 169.482C545.821 169.009 546.076 168.613 546.591 168.158C546.7 168.062 546.828 167.991 546.967 167.95C547.916 167.67 548.758 168.033 549.325 168.533C549.878 169.023 550.268 169.717 550.407 170.4C550.437 170.552 550.432 170.708 550.392 170.857C550.244 171.403 550.025 171.84 549.787 172.255C549.722 172.37 549.634 172.47 549.53 172.55C548.91 173.025 548.113 173.077 547.503 172.984C547.006 172.909 546.453 172.71 546.018 172.359Z" fill="black"/>
<path fill-rule="evenodd" clip-rule="evenodd" d="M578.878 280.554L579.076 281.312C579.521 281.62 580.1 281.78 580.514 282.07C581.322 282.638 581.314 285.3 581.381 286.214C580.93 286.375 580.929 287.52 581.006 287.893C580.78 288.586 580.013 288.692 579.366 288.784C579.074 289.155 578.976 289.652 578.652 289.989C575.182 290.896 573.462 282.939 575.875 281.079L576.303 280.971C576.412 280.634 576.501 280.435 576.474 280.073L578.878 280.554Z" fill="black"/>
<path fill-rule="evenodd" clip-rule="evenodd" d="M575.817 279.33C576.049 279.124 576.365 279.039 576.669 279.1L579.072 279.581C579.444 279.656 579.741 279.936 579.837 280.303L579.931 280.661C580.013 280.701 580.107 280.745 580.217 280.795C580.229 280.8 580.24 280.805 580.251 280.81C580.481 280.914 580.801 281.06 581.084 281.258C581.556 281.59 581.792 282.122 581.922 282.517C582.066 282.948 582.152 283.435 582.209 283.888C582.29 284.529 582.325 285.241 582.348 285.721C582.356 285.898 582.363 286.043 582.37 286.141C582.395 286.475 582.25 286.791 581.999 286.991C581.992 287.023 581.985 287.061 581.979 287.105C581.963 287.222 581.958 287.353 581.96 287.474C581.962 287.533 581.965 287.585 581.969 287.627C581.971 287.647 581.973 287.664 581.975 287.676C581.976 287.688 581.977 287.694 581.978 287.694C582.012 287.863 582.002 288.037 581.949 288.2C581.721 288.902 581.205 289.281 580.723 289.481C580.477 289.583 580.215 289.647 579.982 289.691C579.963 289.73 579.942 289.774 579.918 289.824L579.916 289.828C579.817 290.035 579.653 290.38 579.367 290.677C579.24 290.808 579.08 290.902 578.903 290.948C577.593 291.291 576.481 290.756 575.694 289.922C574.931 289.115 574.405 287.977 574.099 286.827C573.789 285.667 573.677 284.397 573.818 283.261C573.956 282.157 574.36 280.994 575.27 280.293C575.336 280.242 575.409 280.199 575.486 280.166C575.486 280.16 575.485 280.154 575.485 280.148C575.462 279.838 575.584 279.536 575.817 279.33ZM577.258 281.242C577.254 281.254 577.25 281.265 577.247 281.276C577.142 281.601 576.877 281.849 576.547 281.932L576.355 281.981C576.106 282.251 575.882 282.748 575.787 283.506C575.681 284.356 575.763 285.368 576.016 286.316C576.271 287.274 576.676 288.072 577.136 288.56C577.461 288.903 577.768 289.057 578.08 289.067C578.094 289.039 578.109 289.008 578.126 288.973C578.134 288.955 578.143 288.936 578.152 288.916C578.239 288.733 578.379 288.435 578.585 288.172C578.743 287.97 578.973 287.837 579.227 287.801C579.58 287.751 579.802 287.715 579.965 287.647C579.97 287.645 579.976 287.642 579.981 287.64C579.969 287.39 579.977 287.108 580.012 286.843C580.042 286.616 580.1 286.339 580.22 286.078C580.255 286.002 580.302 285.912 580.365 285.819C580.363 285.779 580.361 285.739 580.359 285.697C580.337 285.237 580.312 284.698 580.241 284.137C580.191 283.739 580.124 283.396 580.039 283.141C579.976 282.952 579.927 282.879 579.917 282.864C579.802 282.789 579.648 282.716 579.395 282.601C579.388 282.597 579.38 282.594 579.372 282.59C579.136 282.483 578.809 282.334 578.512 282.128C578.317 281.993 578.177 281.793 578.117 281.564L578.075 281.405L577.258 281.242Z" fill="black"/>
<path fill-rule="evenodd" clip-rule="evenodd" d="M584.847 372.642C584.53 372.561 584.191 372.472 583.861 372.473C584.039 371.779 585.123 368.825 585.424 368.363C585.482 368.274 586.126 367.911 586.211 367.863C588.228 368.519 589.758 364.489 589.613 362.954C589.529 362.048 589.27 361.345 589.111 360.456C589.346 359.596 589.807 358.909 590.304 358.191C592.533 357.523 596.658 359.593 595.277 362.236C594.86 363.033 594.486 364.013 593.887 364.694L593.769 365.869L593.601 365.896L593.066 365.168C592.504 364.941 591.321 364.964 590.925 365.496C590.311 366.318 589.394 367.266 588.916 368.15C587.837 370.149 588.961 370.427 585.948 372.002C585.573 372.198 585.213 372.43 584.847 372.642Z" fill="black"/>
<path fill-rule="evenodd" clip-rule="evenodd" d="M590.899 359.078C590.558 359.584 590.296 360.023 590.132 360.51C590.179 360.74 590.232 360.96 590.289 361.195C590.311 361.284 590.333 361.375 590.355 361.469C590.454 361.883 590.552 362.338 590.601 362.861M589.789 368.622C589.563 369.042 589.455 369.362 589.376 369.643C589.361 369.694 589.346 369.752 589.329 369.816C589.267 370.053 589.185 370.367 589.063 370.64C588.684 371.488 587.934 372.084 586.408 372.882L585.948 372.003L586.408 372.882C586.408 372.882 586.408 372.882 586.408 372.882C586.184 372.999 585.985 373.118 585.763 373.252C585.635 373.33 585.498 373.411 585.344 373.501C585.119 373.632 584.851 373.668 584.598 373.603C584.255 373.514 584.043 373.465 583.865 373.466C583.558 373.467 583.267 373.326 583.079 373.083C582.89 372.841 582.824 372.525 582.9 372.227C583.005 371.82 583.34 370.859 583.667 369.983C583.835 369.535 584.009 369.089 584.162 368.722C584.299 368.392 584.458 368.029 584.593 367.821L584.594 367.821C584.694 367.667 584.824 367.565 584.851 367.545C584.852 367.544 584.853 367.543 584.854 367.542C584.905 367.501 584.959 367.464 585.003 367.433C585.094 367.372 585.2 367.306 585.295 367.249C585.467 367.145 585.641 367.046 585.702 367.011C585.709 367.007 585.715 367.004 585.719 367.002C585.962 366.863 586.252 366.833 586.518 366.92C586.647 366.962 586.794 366.959 587.03 366.787C587.292 366.596 587.583 366.243 587.854 365.751C588.119 365.271 588.331 364.72 588.467 364.207C588.608 363.676 588.646 363.266 588.626 363.047L588.626 363.047C588.59 362.663 588.517 362.314 588.425 361.928C588.407 361.853 588.388 361.774 588.368 361.693C588.291 361.374 588.203 361.014 588.135 360.63C588.109 360.485 588.116 360.337 588.154 360.195C588.439 359.151 588.996 358.337 589.488 357.626C589.616 357.441 589.804 357.305 590.019 357.241C591.491 356.8 593.385 357.266 594.698 358.149C595.373 358.603 595.99 359.228 596.314 360.02C596.653 360.849 596.635 361.779 596.156 362.696L596.156 362.697C596.061 362.878 595.966 363.074 595.862 363.29L595.846 363.324C595.749 363.526 595.644 363.745 595.533 363.962C595.346 364.326 595.123 364.722 594.844 365.089L594.757 365.968C594.712 366.415 594.372 366.776 593.928 366.848L593.76 366.876C593.392 366.935 593.022 366.784 592.801 366.484M594.397 361.777C594.609 361.373 594.593 361.053 594.478 360.771C594.347 360.452 594.053 360.106 593.591 359.796C592.751 359.231 591.665 358.981 590.899 359.078" fill="black"/>
<path fill-rule="evenodd" clip-rule="evenodd" d="M597.69 424.748C597.86 424.911 599.555 425.927 599.737 426.014L599.987 426.685C599.87 428.169 598.239 428.836 596.974 428.915C596.726 428.349 596.48 427.781 596.252 427.206C596.601 426.095 596.75 425.55 597.69 424.748Z" fill="black"/>
<path fill-rule="evenodd" clip-rule="evenodd" d="M598.34 423.999C597.971 423.678 597.42 423.673 597.045 423.993C596.503 424.456 596.142 424.888 595.872 425.398C595.642 425.833 595.494 426.305 595.345 426.783C595.332 426.825 595.319 426.867 595.305 426.908C595.237 427.126 595.246 427.36 595.33 427.572C595.565 428.164 595.816 428.745 596.066 429.314C596.233 429.696 596.621 429.932 597.037 429.906C597.795 429.858 598.687 429.636 599.436 429.168C600.202 428.69 600.886 427.903 600.976 426.763C600.987 426.619 600.967 426.473 600.917 426.338L600.666 425.667C600.577 425.427 600.398 425.231 600.166 425.12C600.166 425.12 600.165 425.119 600.161 425.117C600.139 425.105 600.044 425.051 599.867 424.947C599.685 424.84 599.456 424.703 599.226 424.562C598.995 424.422 598.769 424.281 598.593 424.168C598.504 424.111 598.433 424.064 598.383 424.029C598.361 424.014 598.347 424.004 598.34 423.999ZM597.305 427.165C597.394 427.383 597.486 427.6 597.579 427.818C597.871 427.743 598.152 427.631 598.386 427.485C598.709 427.283 598.895 427.054 598.967 426.788L598.934 426.7C598.715 426.573 598.442 426.408 598.193 426.257C598.066 426.18 597.939 426.101 597.818 426.026C597.738 426.13 597.678 426.227 597.627 426.325C597.511 426.543 597.427 426.783 597.305 427.165Z" fill="black"/>
<path fill-rule="evenodd" clip-rule="evenodd" d="M598.588 463.096C598.3 462.433 598.718 461.587 599.283 461.21C599.404 461.241 599.635 461.565 599.641 461.691C599.873 461.613 600.155 461.551 600.347 461.742C600.315 462.562 600.043 462.895 599.449 463.356C599.094 463.299 598.874 463.294 598.588 463.096Z" fill="black"/>
<path fill-rule="evenodd" clip-rule="evenodd" d="M598.733 460.384C598.967 460.228 599.256 460.179 599.528 460.249C599.82 460.323 600.013 460.505 600.072 460.56C600.095 460.582 600.118 460.605 600.14 460.628C600.425 460.651 600.76 460.755 601.044 461.036C601.243 461.232 601.35 461.502 601.339 461.781C601.318 462.299 601.217 462.765 600.959 463.195C600.714 463.603 600.374 463.894 600.058 464.14C599.841 464.308 599.563 464.379 599.292 464.336C599.26 464.33 599.224 464.325 599.184 464.32C598.911 464.283 598.474 464.223 598.023 463.912C597.871 463.806 597.751 463.661 597.678 463.491C597.399 462.849 597.488 462.184 597.697 461.671C597.906 461.159 598.274 460.69 598.733 460.384Z" fill="black"/>
<path fill-rule="evenodd" clip-rule="evenodd" d="M600.154 513.668L600.236 514.422C600.081 514.691 599.591 514.97 599.311 515.063L598.95 514.978L598.809 514.585C598.861 514.291 599.1 513.796 599.372 513.638L600.154 513.668Z" fill="black"/>
<path fill-rule="evenodd" clip-rule="evenodd" d="M598.873 512.78C599.036 512.685 599.222 512.639 599.411 512.646L600.192 512.677C600.683 512.696 601.086 513.072 601.14 513.56L601.222 514.315C601.245 514.524 601.201 514.736 601.095 514.918C600.896 515.263 600.57 515.505 600.361 515.641C600.126 515.793 599.857 515.927 599.623 516.004C599.449 516.062 599.263 516.07 599.084 516.028L598.723 515.944C598.397 515.867 598.131 515.63 598.017 515.315L597.875 514.922C597.816 514.759 597.801 514.583 597.832 514.412C597.881 514.133 598 513.831 598.141 513.578C598.269 513.347 598.504 512.995 598.873 512.78Z" fill="black"/>
<path fill-rule="evenodd" clip-rule="evenodd" d="M591.686 536.565C591.416 536.028 590.96 535.545 590.742 534.998L591.137 534.27C591.535 534.175 591.769 533.823 592.142 533.742C592.371 534.8 592.616 535.61 592.803 536.735L592.552 536.847C592.368 536.626 591.949 536.625 591.686 536.565Z" fill="black"/>
<path fill-rule="evenodd" clip-rule="evenodd" d="M592.679 532.908C592.9 533.05 593.056 533.275 593.112 533.532C593.184 533.866 593.264 534.197 593.346 534.534C593.499 535.168 593.658 535.825 593.782 536.572C593.856 537.018 593.62 537.458 593.207 537.641L592.955 537.753C592.606 537.909 592.204 537.848 591.918 537.611C591.879 537.603 591.831 537.595 591.759 537.584C591.754 537.584 591.749 537.583 591.743 537.582C591.675 537.572 591.568 537.556 591.468 537.533C591.178 537.468 590.934 537.277 590.8 537.012C590.713 536.839 590.598 536.671 590.437 536.436C590.417 536.407 590.396 536.376 590.375 536.345C590.202 536.091 589.974 535.752 589.82 535.365C589.711 535.091 589.73 534.784 589.87 534.525L590.265 533.797C590.398 533.551 590.63 533.373 590.902 533.306C590.908 533.303 590.948 533.282 591.075 533.192C591.083 533.186 591.091 533.18 591.101 533.173C591.24 533.073 591.54 532.858 591.931 532.773C592.189 532.717 592.458 532.765 592.679 532.908Z" fill="black"/>
<path fill-rule="evenodd" clip-rule="evenodd" d="M583.465 577.408L583.656 577.967C583.656 578.587 582.786 579.74 582.286 580.144C581.253 580.371 578.734 579.634 578.022 580.441L577.995 580.191C577.606 580.095 576.889 580.22 576.598 580.523C575.99 580.595 573.772 579.639 573.48 579.063C573.508 578.297 573.471 577.377 573.824 576.687C574.534 575.81 578.563 576.632 578.787 576.585C580.745 576.178 580.284 576.226 581.906 576.788C582.452 576.978 582.98 577.058 583.465 577.408Z" fill="black"/>
<path fill-rule="evenodd" clip-rule="evenodd" d="M574.511 577.39C574.511 577.39 574.512 577.39 574.515 577.388C574.513 577.39 574.511 577.39 574.511 577.39ZM574.625 577.351C574.705 577.331 574.817 577.31 574.966 577.296C575.36 577.257 575.869 577.271 576.41 577.315C576.944 577.357 577.468 577.425 577.886 577.482C577.934 577.488 577.981 577.495 578.027 577.501C578.176 577.521 578.312 577.54 578.42 577.553C578.49 577.561 578.563 577.57 578.628 577.575C578.659 577.577 578.701 577.58 578.746 577.58L578.747 577.58C578.775 577.581 578.875 577.582 578.991 577.558M574.625 577.351C574.577 577.508 574.542 577.701 574.52 577.94C574.497 578.185 574.491 578.417 574.486 578.671C574.506 578.685 574.528 578.7 574.551 578.716C574.755 578.849 575.03 578.997 575.332 579.133C575.632 579.269 575.933 579.383 576.18 579.456C576.24 579.474 576.292 579.488 576.335 579.498C576.584 579.362 576.843 579.284 577.051 579.239C577.395 579.164 577.813 579.135 578.189 579.218C578.373 579.16 578.553 579.126 578.712 579.104C579.167 579.042 579.663 579.058 580.1 579.086C580.32 579.1 580.54 579.119 580.746 579.136L580.757 579.137C580.969 579.155 581.165 579.172 581.348 579.183C581.562 579.197 581.727 579.2 581.85 579.197C581.994 579.044 582.173 578.827 582.337 578.583C582.455 578.408 582.548 578.244 582.607 578.11C582.614 578.095 582.62 578.081 582.625 578.067C582.557 578.037 582.481 578.009 582.394 577.98C582.291 577.945 582.185 577.914 582.057 577.876L582.031 577.868C581.898 577.828 581.743 577.782 581.582 577.726L581.907 576.789L581.583 577.727M577.385 581.2C577.351 581.211 577.324 581.221 577.303 581.231C577.297 581.234 577.293 581.236 577.289 581.238C577.133 581.388 576.933 581.483 576.718 581.509C576.342 581.554 575.913 581.447 575.616 581.358C575.267 581.255 574.88 581.107 574.514 580.941C574.148 580.776 573.776 580.58 573.463 580.375C573.307 580.273 573.149 580.157 573.01 580.031C572.881 579.915 572.713 579.742 572.597 579.513C572.521 579.363 572.485 579.196 572.491 579.028C572.494 578.94 572.496 578.84 572.499 578.731C572.506 578.437 572.514 578.083 572.544 577.756C572.588 577.292 572.683 576.745 572.942 576.237C572.973 576.176 573.011 576.118 573.054 576.064C573.306 575.753 573.642 575.588 573.91 575.496C574.189 575.4 574.489 575.349 574.773 575.321C575.341 575.265 575.986 575.29 576.569 575.337C577.159 575.384 577.729 575.458 578.152 575.515C578.207 575.523 578.258 575.53 578.307 575.536C578.451 575.556 578.568 575.572 578.661 575.583C578.68 575.586 578.696 575.587 578.71 575.589C578.76 575.579 578.807 575.569 578.854 575.559C579.2 575.486 579.482 575.428 579.707 575.389C579.996 575.34 580.273 575.309 580.568 575.336C580.862 575.364 581.114 575.446 581.346 575.529C581.445 575.565 581.536 575.599 581.634 575.635C581.796 575.695 581.974 575.762 582.232 575.852L582.233 575.852C582.345 575.891 582.461 575.926 582.595 575.965C582.606 575.969 582.616 575.972 582.627 575.975C582.748 576.011 582.887 576.052 583.026 576.098C583.336 576.202 583.692 576.348 584.047 576.605C584.214 576.725 584.339 576.893 584.405 577.088L584.597 577.646C584.632 577.75 584.65 577.859 584.65 577.968C584.65 578.327 584.532 578.664 584.421 578.915C584.302 579.184 584.146 579.45 583.984 579.691C583.669 580.158 583.263 580.632 582.912 580.916C582.793 581.013 582.652 581.08 582.502 581.113C582.093 581.203 581.616 581.188 581.225 581.164C581.015 581.151 580.797 581.132 580.589 581.115L580.589 581.115L580.587 581.114C580.375 581.096 580.171 581.079 579.971 581.066C579.56 581.039 579.228 581.036 578.979 581.07C578.83 581.09 578.763 581.117 578.742 581.126C578.482 581.4 578.087 581.503 577.724 581.388C577.597 581.347 577.483 581.283 577.385 581.2ZM574.315 578.534C574.315 578.534 574.316 578.535 574.318 578.538C574.316 578.536 574.315 578.534 574.315 578.534Z" fill="black"/>
<path fill-rule="evenodd" clip-rule="evenodd" d="M625.599 619.338L627.042 619.026C627.119 619.195 627.153 619.404 627.15 619.588C626.545 620.164 625.93 620.19 625.639 621.088L625.142 621.308C625.093 621.502 624.852 621.749 624.663 621.809L624.582 621.64C625.191 620.624 625.345 620.581 625.599 619.338Z" fill="black"/>
<path fill-rule="evenodd" clip-rule="evenodd" d="M626.833 618.057C627.29 617.958 627.753 618.191 627.946 618.617C628.095 618.947 628.146 619.308 628.142 619.605C628.137 619.871 628.026 620.124 627.834 620.307C627.623 620.507 627.418 620.653 627.247 620.767C627.161 620.824 627.098 620.863 627.046 620.897C626.975 620.942 626.923 620.975 626.855 621.023C626.721 621.119 626.65 621.189 626.583 621.394C626.496 621.663 626.299 621.882 626.04 621.996L625.851 622.079C625.79 622.165 625.726 622.239 625.669 622.297C625.516 622.456 625.273 622.657 624.962 622.755C624.49 622.904 623.98 622.683 623.767 622.236L623.686 622.067C623.543 621.767 623.56 621.415 623.731 621.13C623.889 620.867 624 620.691 624.086 620.555C624.196 620.381 624.265 620.273 624.336 620.131C624.426 619.951 624.507 619.727 624.627 619.139C624.706 618.753 625.005 618.451 625.39 618.368L626.833 618.057Z" fill="black"/>
<path fill-rule="evenodd" clip-rule="evenodd" d="M588.408 732.046C587.502 729.777 584.852 731.126 584.151 730.81C583.879 730.173 582.513 729.233 581.954 728.901C581.946 728.848 581.892 728.561 581.901 728.536C582.202 727.701 582.591 726.821 582.826 725.97C582.993 725.366 582.94 724.559 583.159 723.986C583.277 723.676 583.936 722.992 584.092 722.652C584.519 721.72 584.793 720.36 584.972 719.331C584.529 718.174 584.642 718.636 584.72 717.337L585.088 716.894L585.338 716.982L585.953 716.596L586.062 716.85C586.519 716.491 588.45 714.227 589.014 714.257L589.27 713.813C593.597 712.619 592.802 709.323 595.959 708.299C596.571 708.549 597.365 709.282 597.633 709.893L598.242 710.096C598.324 710.493 598.234 711.975 597.851 712.165C597.619 711.936 596.504 712.042 596.213 712.087L595.855 713.678L596.07 714.243L595.927 714.548C594.961 714.745 594.691 715.908 593.46 716.224C593.14 716.931 592.758 717.698 592.569 718.455L592.78 719.298L592.295 720.045L592.312 721L592.995 721.68L593.093 722.693L593.256 722.919L594.141 723.268L594.212 724.023C593.543 724.641 593.597 724.803 593.386 725.584L591.777 725.309C591.538 724.923 591.252 724.525 591.046 724.121C590.374 723.802 589.261 724.447 588.757 724.818L588.106 726.152C588.213 727.369 588.382 728.134 589.674 728.725C589.594 729.84 588.983 730.82 588.964 731.857L588.741 732.134C588.688 732.12 588.448 732.035 588.408 732.046Z" fill="black"/>
<path fill-rule="evenodd" clip-rule="evenodd" d="M595.653 707.355C595.876 707.283 596.117 707.292 596.334 707.38C596.789 707.566 597.241 707.895 597.606 708.239C597.857 708.476 598.111 708.762 598.313 709.074L598.555 709.155C598.892 709.266 599.142 709.549 599.214 709.896C599.289 710.259 599.269 710.861 599.204 711.341C599.169 711.598 599.113 711.888 599.02 712.149C598.973 712.28 598.907 712.434 598.81 712.582C598.718 712.722 598.555 712.923 598.291 713.054C597.99 713.203 597.641 713.187 597.359 713.027C597.291 713.019 597.192 713.014 597.064 713.015C597.05 713.015 597.035 713.016 597.021 713.016L596.889 713.604L596.997 713.89C597.093 714.141 597.083 714.421 596.968 714.664L596.825 714.969C596.692 715.253 596.433 715.457 596.126 715.52C596.002 715.545 595.908 715.615 595.507 716.03C595.223 716.325 594.814 716.746 594.187 717.02C593.95 717.537 593.735 718.007 593.595 718.467L593.743 719.056C593.81 719.323 593.762 719.606 593.613 719.837L593.292 720.331L593.297 720.581L593.695 720.978C593.858 721.14 593.96 721.355 593.982 721.585L594.038 722.161L594.505 722.345C594.852 722.482 595.093 722.803 595.129 723.175L595.2 723.93C595.229 724.238 595.113 724.542 594.885 724.752C594.587 725.028 594.548 725.114 594.533 725.148L594.533 725.148C594.519 725.179 594.501 725.228 594.47 725.347C594.463 725.375 594.452 725.419 594.439 725.472C594.413 725.578 594.377 725.719 594.344 725.842C594.211 726.336 593.724 726.648 593.22 726.562L591.61 726.287C591.329 726.24 591.083 726.073 590.933 725.831C590.881 725.747 590.815 725.645 590.742 725.534C590.647 725.388 590.541 725.224 590.438 725.056C590.37 725.073 590.292 725.098 590.203 725.134C589.967 725.227 589.727 725.361 589.535 725.486L589.121 726.335C589.169 726.777 589.228 727.027 589.325 727.215C589.415 727.387 589.584 727.593 590.087 727.822C590.464 727.995 590.694 728.383 590.664 728.796C590.616 729.459 590.419 730.07 590.265 730.548C590.257 730.574 590.249 730.599 590.241 730.624C590.069 731.157 589.962 731.525 589.956 731.875C589.952 732.095 589.875 732.308 589.737 732.479L589.513 732.757C589.264 733.065 588.856 733.196 588.474 733.09C588.45 733.083 588.426 733.075 588.414 733.072L588.37 733.057C588.339 733.048 588.311 733.039 588.284 733.031C588.284 733.031 588.284 733.031 588.284 733.031C587.936 732.987 587.624 732.759 587.487 732.414C587.342 732.052 587.164 731.904 587.008 731.824C586.824 731.73 586.569 731.682 586.219 731.688C585.925 731.693 585.641 731.731 585.328 731.773C585.257 731.782 585.185 731.792 585.111 731.802C584.928 731.825 584.715 731.85 584.513 731.853C584.33 731.856 584.034 731.846 583.743 731.715C583.516 731.612 583.336 731.429 583.239 731.2C583.239 731.201 583.239 731.2 583.237 731.198C583.23 731.186 583.185 731.111 583.055 730.976C582.92 730.835 582.743 730.678 582.54 730.516C582.135 730.191 581.692 729.899 581.447 729.754C581.19 729.602 581.016 729.342 580.972 729.046C580.972 729.047 580.972 729.045 580.971 729.04C580.97 729.033 580.967 729.018 580.963 728.992C580.957 728.958 580.949 728.912 580.942 728.866C580.935 728.822 580.926 728.767 580.92 728.717C580.917 728.693 580.913 728.656 580.91 728.614C580.909 728.594 580.907 728.558 580.909 728.513C580.909 728.49 580.911 728.454 580.917 728.411C580.921 728.375 580.933 728.296 580.968 728.2C581.087 727.869 581.207 727.561 581.322 727.265C581.531 726.726 581.725 726.228 581.87 725.705C581.92 725.521 581.943 725.297 581.976 724.958C581.979 724.929 581.982 724.898 581.986 724.867C582.019 724.533 582.068 724.06 582.231 723.633M589.933 714.65L589.874 714.752C589.727 715.008 589.475 715.182 589.191 715.233C589.149 715.26 589.085 715.305 588.999 715.374C588.775 715.553 588.497 715.813 588.198 716.111C587.963 716.344 587.732 716.584 587.517 716.807C587.46 716.866 587.404 716.923 587.349 716.979C587.119 717.218 586.856 717.488 586.675 717.63C586.446 717.81 586.149 717.88 585.865 717.822L585.865 717.822C585.803 717.861 585.738 717.892 585.671 717.916C585.666 717.973 585.661 718.024 585.657 718.069C585.655 718.089 585.653 718.108 585.652 718.126C585.642 718.23 585.64 718.275 585.639 718.291C585.643 718.305 585.651 718.332 585.668 718.377C585.694 718.45 585.725 718.531 585.769 718.643C585.803 718.731 585.845 718.838 585.898 718.977C585.962 719.144 585.98 719.325 585.949 719.501C585.772 720.518 585.482 722 584.994 723.065M585.185 715.907C584.862 715.875 584.538 716.003 584.325 716.26L583.956 716.703C583.822 716.866 583.742 717.067 583.729 717.278C583.713 717.547 583.696 717.733 583.681 717.883C583.68 717.903 583.678 717.923 583.676 717.942L583.675 717.953C583.662 718.095 583.644 718.281 583.662 718.477C583.682 718.699 583.741 718.884 583.801 719.051C583.834 719.143 583.881 719.262 583.934 719.4C583.938 719.41 583.942 719.42 583.946 719.431C583.769 720.409 583.525 721.507 583.19 722.239C583.192 722.235 583.191 722.236 583.188 722.241C583.18 722.254 583.154 722.295 583.097 722.374C583.027 722.469 582.943 722.575 582.845 722.699L582.832 722.715C582.735 722.838 582.622 722.982 582.525 723.117C582.443 723.233 582.311 723.424 582.232 723.632M583.19 722.239C583.19 722.239 583.19 722.239 583.19 722.239ZM585.919 715.605C585.746 715.611 585.576 715.662 585.426 715.756L585.185 715.907M585.919 715.605C585.921 715.603 585.923 715.601 585.925 715.599C585.975 715.547 586.028 715.492 586.082 715.435C586.299 715.211 586.548 714.953 586.799 714.704C587.11 714.395 587.449 714.072 587.76 713.824C587.914 713.701 588.087 713.575 588.263 713.478C588.285 713.465 588.312 713.451 588.342 713.435L588.41 713.318C588.54 713.092 588.754 712.926 589.006 712.857C589.959 712.594 590.59 712.228 591.056 711.834C591.531 711.433 591.874 710.971 592.229 710.441C592.292 710.346 592.356 710.248 592.421 710.148C593.069 709.156 593.869 707.934 595.653 707.355M589.249 715.201C589.249 715.202 589.243 715.205 589.231 715.21C589.243 715.203 589.249 715.201 589.249 715.201ZM589.933 714.65C590.943 714.322 591.716 713.875 592.337 713.35C593.029 712.765 593.496 712.115 593.878 711.544C593.941 711.45 594.001 711.359 594.06 711.27C594.649 710.381 595.056 709.767 595.885 709.389C595.997 709.467 596.12 709.566 596.244 709.682C596.5 709.923 596.663 710.153 596.723 710.291C596.828 710.53 597.023 710.718 597.265 710.815C597.26 710.887 597.252 710.96 597.243 711.032C597.174 711.031 597.107 711.03 597.044 711.031C596.648 711.035 596.25 711.077 596.064 711.106C595.66 711.167 595.335 711.47 595.245 711.869L594.887 713.46C594.853 713.614 594.855 713.774 594.894 713.925C594.565 714.14 594.32 714.398 594.147 714.581C594.123 714.606 594.1 714.63 594.079 714.653C593.745 714.998 593.537 715.18 593.213 715.263C592.922 715.337 592.68 715.541 592.556 715.815C592.511 715.913 592.463 716.017 592.413 716.125C592.134 716.731 591.79 717.477 591.606 718.214C591.567 718.372 591.567 718.538 591.606 718.696L591.713 719.12L591.463 719.505C591.355 719.671 591.3 719.865 591.303 720.062L591.319 721.017C591.324 721.275 591.429 721.52 591.611 721.702L592.041 722.131L592.105 722.788C592.122 722.963 592.185 723.13 592.287 723.272L592.45 723.499C592.561 723.653 592.715 723.773 592.892 723.842L592.991 723.881C592.885 724.023 592.796 724.172 592.722 724.336C592.704 724.376 592.688 724.416 592.672 724.456L592.377 724.405C592.361 724.381 592.346 724.358 592.331 724.335C592.176 724.098 592.046 723.899 591.93 723.67C591.83 723.476 591.669 723.319 591.472 723.225C590.738 722.876 589.943 723.103 589.474 723.288C588.946 723.496 588.466 723.8 588.169 724.019C588.04 724.114 587.936 724.239 587.865 724.383L587.214 725.717C587.135 725.879 587.102 726.059 587.118 726.239C587.17 726.841 587.247 727.52 587.565 728.131C587.802 728.585 588.139 728.949 588.582 729.25C588.523 729.482 588.443 729.731 588.351 730.017L588.346 730.033C588.321 730.11 588.295 730.191 588.269 730.275C588.155 730.193 588.035 730.12 587.91 730.057C587.321 729.756 586.699 729.695 586.186 729.704C585.764 729.711 585.341 729.768 585.026 729.811C584.966 729.819 584.909 729.827 584.857 729.834C584.802 729.841 584.752 729.847 584.708 729.852C584.635 729.761 584.56 729.678 584.488 729.604C584.273 729.378 584.023 729.161 583.78 728.966C583.521 728.76 583.253 728.566 583.011 728.401C583.047 728.308 583.084 728.212 583.122 728.115C583.353 727.518 583.612 726.849 583.782 726.234L583.783 726.233C583.882 725.874 583.921 725.471 583.95 725.171C583.953 725.134 583.957 725.099 583.96 725.065C583.994 724.722 584.026 724.51 584.076 724.365C584.083 724.354 584.102 724.324 584.139 724.272C584.204 724.181 584.288 724.074 584.39 723.945L584.41 723.919C584.501 723.804 584.605 723.672 584.697 723.547C584.787 723.425 584.909 723.249 584.994 723.066M584.432 729.868C584.432 729.868 584.435 729.868 584.439 729.868C584.434 729.868 584.432 729.868 584.432 729.868ZM581.901 728.536L581.902 728.536L581.901 728.536Z" fill="black"/>
<path fill-rule="evenodd" clip-rule="evenodd" d="M578.571 748.955C578.888 749.249 578.897 749.495 578.948 749.883C578.515 750.119 578.268 750.055 577.754 750.035C577.224 751.831 577.137 751.633 575.767 753.15L575.077 752.858C574.68 752.643 575.01 748.944 574.117 747.828C573.809 747.645 573.267 747.416 573.014 747.171C572.419 746.596 572.907 744.945 571.633 744.656L570.772 744.954L570.55 744.866C570.21 744.391 569.835 743.893 569.57 743.369L569.828 742.838C569.929 742.443 569.459 741.739 569.205 741.487C569.388 739.708 571.351 738.237 570.931 737.053C571.132 736.517 571.706 736.175 571.975 735.692C573.01 733.836 574.938 732.951 576.036 731.121C576.071 731.063 576.181 731 576.234 730.956C579.004 731.228 577.671 734.818 578.267 736.308C578.273 736.741 577.446 737.501 577.141 737.723C576.823 739.499 577.51 741.248 579.476 741.677C579.824 742.312 580.086 743.39 579.857 744.121C579.346 745.753 578.893 747.283 578.571 748.955Z" fill="black"/>
<path fill-rule="evenodd" clip-rule="evenodd" d="M575.617 730.179C575.818 730.019 576.074 729.943 576.331 729.969C577.273 730.061 577.992 730.464 578.454 731.135C578.877 731.751 579.007 732.483 579.055 733.098C579.09 733.549 579.086 734.043 579.082 734.467C579.081 734.614 579.079 734.752 579.08 734.878C579.082 735.443 579.119 735.765 579.188 735.939C579.234 736.053 579.258 736.173 579.259 736.295C579.264 736.685 579.096 737.01 578.987 737.191C578.861 737.401 578.704 737.596 578.559 737.757C578.401 737.933 578.229 738.1 578.072 738.241C578.021 738.824 578.118 739.342 578.329 739.741C578.566 740.189 578.982 740.554 579.687 740.707C579.968 740.769 580.208 740.948 580.346 741.2C580.576 741.619 580.761 742.15 580.859 742.685C580.954 743.208 580.985 743.839 580.804 744.417C580.342 745.894 579.937 747.255 579.634 748.702C579.703 748.82 579.759 748.943 579.802 749.074C579.876 749.299 579.906 749.544 579.924 749.691C579.927 749.714 579.93 749.734 579.932 749.752C579.986 750.159 579.784 750.556 579.424 750.753C579.074 750.945 578.757 751.019 578.478 751.043C578.309 751.54 578.139 751.914 577.884 752.272C577.712 752.514 577.515 752.731 577.305 752.955C577.251 753.011 577.196 753.07 577.139 753.131C576.96 753.32 576.756 753.535 576.504 753.815C576.221 754.128 575.771 754.228 575.382 754.064L574.691 753.772C574.662 753.76 574.632 753.746 574.604 753.73C574.318 753.575 574.18 753.336 574.123 753.223C574.058 753.092 574.02 752.962 573.995 752.865C573.947 752.668 573.918 752.443 573.898 752.236C573.872 751.975 573.851 751.647 573.83 751.313C573.818 751.124 573.806 750.934 573.793 750.752C573.755 750.215 573.703 749.692 573.615 749.248C573.55 748.921 573.477 748.706 573.417 748.575C573.399 748.566 573.381 748.557 573.362 748.547C573.284 748.507 573.193 748.46 573.074 748.396C572.873 748.288 572.561 748.113 572.325 747.884M575.617 730.179C575.615 730.18 575.614 730.182 575.612 730.183C575.61 730.184 575.608 730.185 575.606 730.187C575.592 730.197 575.563 730.217 575.538 730.236C575.507 730.259 575.457 730.297 575.403 730.346C575.356 730.389 575.265 730.478 575.186 730.608L575.185 730.611C574.725 731.378 574.085 731.961 573.318 732.659L573.314 732.663C572.576 733.335 571.715 734.12 571.108 735.209L571.108 735.209C571.055 735.304 570.971 735.393 570.763 735.611C570.746 735.629 570.728 735.649 570.708 735.669C570.509 735.879 570.181 736.227 570.002 736.704C569.92 736.923 569.918 737.164 569.996 737.385L569.996 737.385C569.996 737.385 569.997 737.386 569.997 737.39C569.997 737.394 569.998 737.405 569.997 737.423C569.993 737.463 569.979 737.532 569.938 737.639C569.85 737.869 569.69 738.142 569.453 738.521C569.422 738.57 569.39 738.621 569.356 738.674C568.935 739.343 568.329 740.304 568.218 741.386C568.187 741.685 568.294 741.982 568.508 742.193C568.522 742.208 568.565 742.254 568.621 742.332C568.676 742.407 568.729 742.491 568.773 742.574C568.789 742.604 568.803 742.631 568.814 742.655L568.677 742.937C568.542 743.216 568.545 743.542 568.685 743.818C568.955 744.351 569.322 744.858 569.621 745.273C569.663 745.331 569.704 745.388 569.743 745.443C569.854 745.597 570.006 745.717 570.182 745.787L570.404 745.876C570.625 745.964 570.871 745.97 571.096 745.891L571.531 745.741C571.554 745.798 571.58 745.884 571.608 746.014C571.629 746.11 571.646 746.209 571.667 746.328C571.669 746.342 571.672 746.356 571.674 746.37C571.697 746.499 571.725 746.655 571.762 746.808C571.83 747.092 571.965 747.536 572.324 747.883M568.854 742.766C568.853 742.766 568.853 742.764 568.852 742.759C568.853 742.764 568.854 742.766 568.854 742.766ZM576.603 732.066C576.032 732.872 575.34 733.502 574.734 734.054C574.706 734.079 574.678 734.105 574.65 734.13C573.89 734.823 573.269 735.408 572.842 736.175M576.603 732.066C576.713 732.125 576.775 732.196 576.819 732.26C576.944 732.441 577.037 732.749 577.077 733.253C577.105 733.611 577.102 733.969 577.098 734.363C577.096 734.529 577.095 734.703 577.096 734.885C577.097 735.298 577.109 735.798 577.219 736.267C577.183 736.315 577.138 736.37 577.082 736.432C576.882 736.655 576.65 736.853 576.557 736.921C576.35 737.072 576.209 737.296 576.164 737.548C575.975 738.603 576.072 739.719 576.575 740.67C577.022 741.512 577.76 742.166 578.762 742.507C578.821 742.669 578.872 742.852 578.907 743.041C578.972 743.399 578.958 743.672 578.91 743.824L578.91 743.825C578.397 745.463 577.93 747.037 577.597 748.767C577.578 748.864 577.574 748.962 577.584 749.058C577.218 749.121 576.91 749.387 576.802 749.755C576.537 750.654 576.42 750.907 576.267 751.122C576.18 751.244 576.066 751.375 575.858 751.597C575.851 751.603 575.845 751.61 575.838 751.617C575.83 751.501 575.823 751.378 575.815 751.247C575.802 751.052 575.789 750.84 575.773 750.609C575.733 750.055 575.674 749.431 575.561 748.861C575.454 748.324 575.272 747.683 574.892 747.208C574.817 747.115 574.726 747.035 574.623 746.974C574.519 746.913 574.406 746.853 574.308 746.802C574.281 746.788 574.255 746.775 574.229 746.762C574.155 746.723 574.086 746.687 574.015 746.649C573.923 746.6 573.847 746.556 573.787 746.518C573.763 746.501 573.744 746.489 573.731 746.479C573.722 746.457 573.708 746.414 573.691 746.344C573.67 746.257 573.652 746.158 573.628 746.027C573.626 746.013 573.624 745.999 573.621 745.985C573.601 745.871 573.577 745.734 573.548 745.598C573.484 745.301 573.374 744.892 573.116 744.522C572.833 744.116 572.413 743.815 571.853 743.688C571.672 743.647 571.484 743.657 571.309 743.718L571.02 743.818C570.901 743.651 570.791 743.49 570.691 743.332L570.721 743.27C570.749 743.21 570.772 743.148 570.789 743.084C570.874 742.752 570.822 742.444 570.767 742.238C570.708 742.018 570.616 741.814 570.526 741.643C570.449 741.498 570.359 741.354 570.266 741.221C570.409 740.735 570.725 740.23 571.121 739.596L571.136 739.572C571.36 739.214 571.623 738.786 571.79 738.351C571.913 738.032 572.01 737.645 571.975 737.227C572.016 737.177 572.072 737.115 572.147 737.036C572.165 737.017 572.186 736.995 572.208 736.972C572.378 736.796 572.655 736.51 572.841 736.175" fill="black"/>
<path fill-rule="evenodd" clip-rule="evenodd" d="M567.966 760.057C568.265 760.091 568.72 760.321 568.899 760.571L568.842 760.991L566.931 762.846C566.008 762.797 564.625 763.357 564.372 763.316L563.932 762.975L563.832 762.189L564.257 761.411C565.167 760.944 567.416 760.588 567.966 760.057Z" fill="black"/>
<path fill-rule="evenodd" clip-rule="evenodd" d="M567.276 759.343C567.489 759.137 567.783 759.037 568.077 759.071C568.39 759.106 568.701 759.227 568.947 759.359C569.185 759.487 569.491 759.694 569.706 759.993C569.854 760.2 569.917 760.455 569.882 760.706L569.825 761.126C569.795 761.345 569.692 761.549 569.533 761.703L567.622 763.558C567.423 763.75 567.154 763.851 566.878 763.837C566.59 763.821 566.152 763.907 565.651 764.038C565.565 764.06 565.447 764.092 565.33 764.124C565.201 764.159 565.074 764.194 564.995 764.214C564.898 764.239 564.791 764.265 564.69 764.283L564.687 764.283C564.62 764.295 564.425 764.33 564.214 764.296C564.05 764.27 563.895 764.202 563.763 764.1L563.323 763.758C563.116 763.597 562.981 763.36 562.948 763.1L562.848 762.315C562.821 762.107 562.861 761.897 562.961 761.714L563.386 760.935C563.482 760.761 563.627 760.619 563.804 760.528C564.291 760.278 565.045 760.066 565.672 759.889C565.776 759.86 565.877 759.832 565.973 759.804C566.344 759.698 566.669 759.599 566.928 759.5C567.144 759.418 567.241 759.362 567.269 759.345C567.28 759.339 567.281 759.338 567.276 759.343ZM566.741 761.648C566.667 761.669 566.593 761.691 566.52 761.712C566.401 761.746 566.286 761.779 566.174 761.81C565.767 761.926 565.413 762.027 565.134 762.122C565.139 762.121 565.144 762.119 565.149 762.118C565.518 762.022 566.021 761.9 566.519 761.862L566.741 761.648Z" fill="black"/>
<path fill-rule="evenodd" clip-rule="evenodd" d="M529.984 841.043C531.511 841.82 533.622 841.487 534.919 842.533C534.968 842.701 534.57 845.488 534.547 845.81L533.704 846.977C532.911 847.297 531.986 846.808 531.266 847.005L529.186 847.57L528.175 849.07L528.271 850.028C528.078 850.297 527.535 850.484 527.218 850.461C527.043 850.835 526.437 851.804 525.981 851.907C525.321 851.504 524.219 852.317 523.323 851.876C522.794 852.182 521.582 852.691 520.938 852.577L520.638 852.208C520.723 851.728 520.84 850.605 520.636 850.132C520.222 849.848 518.799 848.967 518.268 849.039C517.079 849.496 516.607 851.667 515.359 851.812C515.268 851.453 515.311 850.751 515.541 850.441C515.918 849.936 516.584 849.565 516.94 849.053C517.88 847.698 518.645 846.259 519.672 844.933C521.227 844.385 521.812 845.21 524.521 844.148C525.833 843.633 526.58 842.821 527.646 842.025C527.983 841.774 528.569 841.576 528.956 841.338C529.034 841.289 529.839 841.085 529.984 841.043Z" fill="black"/>
<path fill-rule="evenodd" clip-rule="evenodd" d="M529.709 840.09C529.951 840.02 530.21 840.045 530.434 840.159C530.963 840.428 531.592 840.53 532.406 840.661C532.501 840.676 532.598 840.692 532.698 840.708C533.561 840.85 534.664 841.053 535.541 841.76C535.698 841.887 535.813 842.058 535.87 842.252C535.919 842.417 535.915 842.577 535.915 842.598C535.915 842.599 535.915 842.6 535.915 842.6C535.915 842.658 535.911 842.719 535.908 842.774C535.9 842.887 535.887 843.026 535.871 843.175C535.84 843.476 535.793 843.859 535.744 844.239C535.712 844.49 535.679 844.746 535.649 844.978C535.634 845.097 535.619 845.209 535.606 845.313C535.586 845.467 535.569 845.6 535.556 845.703C535.55 845.755 535.545 845.798 535.542 845.831L535.537 845.87C535.536 845.88 535.536 845.884 535.536 845.883C535.523 846.066 535.459 846.241 535.351 846.39L534.509 847.558C534.399 847.71 534.249 847.828 534.075 847.898C533.405 848.167 532.729 848.076 532.323 848.02C531.804 847.949 531.643 847.93 531.527 847.962L529.803 848.43L529.198 849.327L529.258 849.928C529.282 850.168 529.218 850.408 529.078 850.604C528.817 850.969 528.422 851.173 528.151 851.279C528.056 851.316 527.952 851.35 527.843 851.378C527.74 851.545 527.621 851.721 527.493 851.888C527.356 852.067 527.19 852.261 527.005 852.428C526.838 852.577 526.561 852.793 526.199 852.874C525.967 852.927 525.725 852.894 525.516 852.783C525.505 852.783 525.491 852.783 525.473 852.784C525.353 852.792 525.211 852.821 524.952 852.875L524.943 852.877C524.929 852.88 524.914 852.883 524.9 852.886C524.566 852.956 524.007 853.073 523.413 852.947C523.139 853.079 522.817 853.214 522.49 853.324C522.029 853.479 521.355 853.658 520.765 853.554C520.531 853.512 520.319 853.388 520.168 853.203L519.868 852.833C519.686 852.61 519.611 852.319 519.661 852.035C519.696 851.835 519.741 851.481 519.754 851.131C519.759 850.985 519.758 850.853 519.751 850.741C519.549 850.615 519.295 850.466 519.038 850.332C518.821 850.219 518.625 850.129 518.47 850.073C518.466 850.072 518.462 850.071 518.459 850.07C518.398 850.12 518.326 850.19 518.241 850.29C518.08 850.479 517.93 850.699 517.744 850.972C517.715 851.014 517.685 851.058 517.654 851.103C517.446 851.407 517.182 851.785 516.863 852.094C516.534 852.413 516.078 852.727 515.473 852.797C514.98 852.854 514.52 852.538 514.398 852.057C514.314 851.729 514.306 851.338 514.343 851.001C514.377 850.688 514.47 850.219 514.745 849.849L514.746 849.848C514.998 849.51 515.327 849.23 515.56 849.033C515.575 849.02 515.59 849.007 515.605 848.994C515.881 848.759 516.033 848.619 516.125 848.487M529.387 842.236C529.183 842.353 528.956 842.458 528.78 842.539C528.753 842.552 528.727 842.564 528.702 842.576C528.451 842.693 528.313 842.766 528.24 842.82M529.387 842.236C529.395 842.233 529.404 842.23 529.415 842.227C529.491 842.204 529.593 842.176 529.706 842.145C529.766 842.129 529.832 842.111 529.899 842.093C530.635 842.392 531.433 842.517 532.089 842.621C532.188 842.636 532.284 842.651 532.377 842.666C533.018 842.772 533.508 842.88 533.888 843.056C533.859 843.321 533.819 843.65 533.776 843.989C533.748 844.206 533.719 844.434 533.69 844.652C533.651 844.953 533.615 845.234 533.59 845.441L533.117 846.096C532.998 846.1 532.834 846.088 532.592 846.054C532.559 846.05 532.521 846.044 532.481 846.038C532.133 845.987 531.547 845.9 531.006 846.047L528.926 846.612C528.697 846.675 528.497 846.817 528.364 847.015L527.352 848.515C527.222 848.707 527.164 848.938 527.187 849.169L527.217 849.469C526.834 849.469 526.482 849.691 526.318 850.042C526.264 850.16 526.107 850.434 525.916 850.683C525.878 850.734 525.841 850.779 525.807 850.818C525.642 850.796 525.487 850.795 525.353 850.804C525.082 850.82 524.801 850.879 524.598 850.922C524.577 850.926 524.557 850.93 524.538 850.934C524.018 851.043 523.858 851.033 523.762 850.986C523.465 850.839 523.114 850.851 522.827 851.016C522.622 851.135 522.247 851.312 521.857 851.443C521.811 851.459 521.766 851.473 521.721 851.487C521.728 851.393 521.733 851.298 521.737 851.203C521.745 850.977 521.744 850.733 521.722 850.498C521.702 850.278 521.659 849.998 521.547 849.739C521.473 849.568 521.352 849.421 521.198 849.315C520.964 849.153 520.47 848.84 519.954 848.572C519.697 848.438 519.412 848.303 519.139 848.205C519.036 848.168 518.901 848.124 518.749 848.091C518.791 848.024 518.833 847.958 518.874 847.892C518.955 847.763 519.034 847.636 519.113 847.51C519.49 846.911 519.862 846.336 520.269 845.788C520.601 845.706 520.873 845.711 521.286 845.719C521.398 845.722 521.52 845.724 521.657 845.725C522.449 845.731 523.399 845.653 524.883 845.071C526.003 844.632 526.832 843.955 527.562 843.358C527.796 843.167 528.02 842.984 528.24 842.82M516.125 848.487C516.492 847.958 516.83 847.418 517.182 846.855C517.265 846.723 517.348 846.589 517.434 846.454C517.873 845.754 518.343 845.029 518.888 844.325C519.004 844.175 519.162 844.061 519.342 843.997C520.178 843.703 520.849 843.721 521.394 843.735C521.49 843.738 521.582 843.74 521.671 843.741C522.237 843.745 522.934 843.704 524.159 843.224M529.709 840.09C529.677 840.099 529.615 840.115 529.531 840.138ZM529.531 840.138C529.438 840.162 529.319 840.194 529.184 840.23ZM529.184 840.23C529.068 840.262 528.945 840.296 528.844 840.327ZM528.844 840.327C528.794 840.342 528.74 840.359 528.691 840.376ZM528.691 840.376C528.667 840.384 528.636 840.395 528.603 840.409ZM528.603 840.409C528.582 840.417 528.511 840.446 528.434 840.494ZM528.434 840.494C528.317 840.566 528.165 840.637 527.942 840.741C527.917 840.753 527.89 840.765 527.862 840.778C527.64 840.882 527.316 841.034 527.053 841.23C526.691 841.5 526.39 841.745 526.117 841.969C525.465 842.501 524.967 842.907 524.159 843.224" fill="black"/>
<path fill-rule="evenodd" clip-rule="evenodd" d="M455.916 934.181C455.831 933.947 455.813 933.609 455.866 933.366C456.961 933.055 457.851 933.383 458.812 933.928L459.613 933.85L460.163 934.164L460.499 933.972L460.883 934.032C460.697 934.938 460.731 936.242 461.462 936.927C461.654 936.679 461.905 935.065 461.979 934.686L461.264 934.402L461.156 934.117L461.273 933.532C461.624 933.689 462.479 933.886 462.845 933.657C463.119 932.092 462.957 932.37 463.558 931.196C465.263 930.6 464.968 931.084 466.526 929.794L467.299 929.97C468.424 928.69 469.198 929.252 470.696 929.554L471.223 929.057C471.494 928.882 472.273 929.142 472.52 929.263L473.158 929.074L473.798 928.295L473.75 927.875L473.229 927.252L473.541 926.439L474.596 925.776C474.984 925.657 475.659 925.88 475.973 926.101L477.056 925.634L477.421 924.879C476.576 922.802 478.021 920.939 479.052 919.283C479.361 918.787 479.576 918.207 479.899 917.722C479.974 917.611 480.319 917.408 480.373 917.306C480.655 916.766 480.958 915.934 481.138 915.35C481.364 914.619 480.973 913.797 480.995 913.075C481.025 912.111 482.514 909.606 482.975 908.718C482.993 908.682 483.573 908.222 483.641 908.166C486.186 907.939 485.147 909.17 487.267 909.997C487.393 911.34 487.89 911.705 489.04 912.374C489.183 912.899 489.636 914.132 490.093 914.49C491.394 914.931 493.554 914.67 494.98 914.625C495.134 914.833 494.892 915.877 494.797 916.169C494.618 916.72 494.463 917.306 494.254 917.845C494.093 918.259 493.678 918.656 493.551 919.073C492.906 921.193 492.736 922.755 491.2 924.547C489.419 924.937 488.019 925.701 487.577 927.54C485.717 928.451 484.242 929.461 483.288 931.422C480.576 931.671 481.091 934.43 478.674 934.517C478.171 934.876 477.909 936.022 477.528 936.108L476.289 935.898L475.583 936.744L475.55 937.855C474.387 938.704 473.617 941.977 473.484 943.251C473.468 943.403 473.531 943.484 473.562 943.634C473.749 944.554 473.721 945.401 473.723 946.338C473.723 946.372 473.579 946.604 473.557 946.646L472.976 946.978L473.63 947.489C473.64 948.374 473.641 950.938 473.34 951.778C473.113 952.414 472.61 952.542 472.715 953.542C472.36 953.641 471.873 953.996 471.686 954.317L471.298 954.229L470.966 954.391L470.989 954.788L469.772 955.363L470.072 956.013C469.511 956.899 469.076 957.819 468.008 958.207H467.756L467.653 957.671C465.957 958.973 464.012 956.894 462.285 956.805C461.402 956.27 460.382 954.783 460.329 953.728L460.086 953.528C459.755 952.885 460.327 951.911 460.547 951.287L459.916 950.915L459.76 950.214L460.039 949.429L459.603 948.921C459.633 948.158 459.072 947.022 458.582 946.47L457.673 946.263C458.9 944.853 459.48 942.939 459.544 941.063L460.518 940.231C460.758 939.846 460.512 939.171 460.432 938.772C460.247 937.836 458.918 937.123 458.206 936.673C457.55 934.884 457.74 935.206 455.916 934.181Z" fill="black"/>
<path fill-rule="evenodd" clip-rule="evenodd" d="M483.769 909.34C483.688 909.491 483.591 909.669 483.486 909.859C483.441 909.942 483.394 910.027 483.347 910.114C483.143 910.486 482.919 910.901 482.71 911.316C482.499 911.732 482.311 912.132 482.176 912.475C482.109 912.646 482.06 912.791 482.028 912.909C482.012 912.967 482.001 913.014 481.995 913.05C481.992 913.067 481.99 913.081 481.989 913.09L481.988 913.102C481.988 913.104 481.988 913.105 481.988 913.105L480.996 913.075L481.988 913.105C481.982 913.276 482.013 913.444 482.064 913.719C482.081 913.812 482.101 913.918 482.122 914.041C482.191 914.442 482.275 915.034 482.087 915.642M484.021 909.135C483.986 909.163 483.951 909.191 483.916 909.22C483.862 909.263 483.812 909.305 483.769 909.34M484.021 909.135C484.401 909.119 484.588 909.154 484.675 909.183C484.733 909.202 484.764 909.217 484.856 909.327C484.871 909.344 484.894 909.374 484.924 909.412C485.039 909.559 485.254 909.833 485.482 910.05C485.716 910.272 486.001 910.484 486.365 910.676C486.474 911.207 486.67 911.665 487.006 912.071C487.336 912.47 487.765 912.766 488.206 913.033C488.295 913.297 488.411 913.603 488.545 913.901C488.65 914.136 488.775 914.383 488.915 914.608C489.047 914.819 489.234 915.077 489.482 915.271C489.57 915.34 489.669 915.394 489.775 915.429C490.6 915.71 491.615 915.748 492.508 915.732C492.969 915.724 493.43 915.699 493.854 915.675C493.872 915.674 493.889 915.674 493.906 915.673C493.885 915.758 493.866 915.825 493.854 915.861L493.854 915.863C493.781 916.086 493.719 916.292 493.66 916.488C493.553 916.84 493.457 917.158 493.33 917.485M486.848 908.611C486.989 908.745 487.21 908.91 487.629 909.073C487.978 909.209 488.221 909.531 488.256 909.905C488.308 910.458 488.421 910.669 488.535 910.806C488.688 910.991 488.942 911.169 489.54 911.517C489.764 911.647 489.929 911.861 489.998 912.112C490.056 912.327 490.188 912.718 490.354 913.088C490.437 913.272 490.52 913.432 490.598 913.556C490.611 913.578 490.624 913.597 490.635 913.614C491.1 913.725 491.73 913.761 492.473 913.748C492.892 913.74 493.32 913.718 493.743 913.694C493.807 913.691 493.871 913.687 493.936 913.683C494.286 913.663 494.635 913.643 494.949 913.633C495.275 913.623 495.585 913.773 495.779 914.036C495.937 914.249 495.983 914.473 496 914.581C496.021 914.71 496.024 914.833 496.022 914.932C496.018 915.132 495.991 915.343 495.961 915.526C495.902 915.89 495.807 916.272 495.741 916.475C495.694 916.621 495.643 916.787 495.59 916.964C495.469 917.36 495.333 917.81 495.179 918.204L495.179 918.204C495.059 918.514 494.861 918.799 494.741 918.972C494.729 918.989 494.718 919.005 494.708 919.02C494.555 919.243 494.512 919.324 494.5 919.364C494.387 919.735 494.287 920.102 494.188 920.467C493.76 922.04 493.342 923.572 491.954 925.193C491.814 925.356 491.624 925.47 491.413 925.516C490.589 925.697 489.949 925.945 489.482 926.295C489.039 926.625 488.71 927.077 488.542 927.772C488.473 928.059 488.28 928.301 488.014 928.431C486.236 929.302 484.994 930.186 484.181 931.857C484.029 932.169 483.725 932.379 483.379 932.41C482.889 932.455 482.597 932.604 482.381 932.775C482.138 932.969 481.946 933.225 481.684 933.6C481.669 933.621 481.654 933.642 481.638 933.665C481.407 933.996 481.095 934.444 480.664 934.798C480.257 935.133 479.765 935.373 479.156 935.467C479.09 935.574 479.024 935.703 478.938 935.869L478.93 935.885C478.85 936.04 478.74 936.254 478.616 936.435C478.52 936.575 478.245 936.963 477.748 937.075C477.622 937.104 477.491 937.107 477.364 937.086L476.686 936.971L476.565 937.116L476.543 937.883C476.534 938.19 476.384 938.475 476.136 938.656C476.024 938.738 475.844 938.946 475.632 939.344C475.43 939.723 475.241 940.193 475.074 940.702C474.761 941.661 474.557 942.659 474.484 943.243C474.499 943.29 474.518 943.356 474.534 943.433L474.535 943.436C474.72 944.346 474.718 945.202 474.716 945.997C474.716 946.111 474.716 946.224 474.716 946.335L474.716 946.338C474.716 946.485 474.683 946.597 474.674 946.628L474.674 946.628C474.66 946.675 474.645 946.713 474.635 946.736C474.617 946.781 474.598 946.82 474.586 946.844C474.56 946.894 474.532 946.945 474.51 946.982C474.506 946.99 474.501 946.997 474.497 947.005C474.577 947.148 474.621 947.31 474.623 947.478C474.628 947.928 474.631 948.81 474.594 949.692C474.575 950.133 474.546 950.585 474.5 950.989C474.457 951.373 474.391 951.787 474.275 952.112M480.671 918.357C480.69 918.343 480.713 918.325 480.743 918.302L480.747 918.3C480.793 918.264 480.866 918.21 480.932 918.154C480.966 918.124 481.013 918.083 481.06 918.033C481.1 917.991 481.182 917.9 481.251 917.771L481.251 917.771L481.254 917.765C481.576 917.147 481.9 916.25 482.087 915.642M476.35 924.816C476.001 923.623 476.219 922.51 476.616 921.545C476.959 920.715 477.475 919.909 477.91 919.231C478.016 919.065 478.118 918.907 478.21 918.759L478.21 918.758C478.328 918.57 478.431 918.362 478.561 918.1L478.582 918.057C478.713 917.794 478.873 917.474 479.075 917.172L479.077 917.168C479.14 917.075 479.206 917.007 479.245 916.968C479.288 916.926 479.331 916.889 479.365 916.861C479.425 916.811 479.491 916.761 479.536 916.728L479.547 916.719C479.553 916.714 479.56 916.709 479.565 916.705C479.789 916.239 480.035 915.564 480.191 915.058L480.191 915.057C480.229 914.934 480.23 914.75 480.166 914.377C480.157 914.326 480.146 914.267 480.134 914.202C480.076 913.896 479.992 913.451 480.004 913.045L480.004 913.044C480.017 912.619 480.174 912.144 480.33 911.749C480.497 911.324 480.716 910.861 480.939 910.42C481.163 909.977 481.399 909.539 481.606 909.162C481.659 909.064 481.71 908.972 481.757 908.885C481.898 908.627 482.014 908.418 482.094 908.261L482.097 908.256C482.151 908.154 482.212 908.083 482.225 908.068L482.226 908.067C482.249 908.04 482.269 908.02 482.28 908.008C482.304 907.984 482.326 907.964 482.341 907.951C482.371 907.923 482.406 907.893 482.438 907.866C482.504 907.811 482.586 907.743 482.665 907.679C482.745 907.614 482.826 907.549 482.891 907.497L482.973 907.431L483.001 907.409L483.009 907.402L483.012 907.4L483.012 907.399C483.167 907.273 483.355 907.196 483.554 907.178C484.245 907.116 484.813 907.14 485.294 907.298C485.822 907.471 486.141 907.773 486.372 908.046C486.472 908.164 486.537 908.249 486.591 908.319C486.674 908.426 486.731 908.5 486.848 908.611" fill="black"/>
<path fill-rule="evenodd" clip-rule="evenodd" d="M617.64 867.077H383.279V864.242H617.64V867.077Z" fill="#A6A6A6"/>
</svg>
