<svg width="1668" height="1668" viewBox="0 0 1668 1668" fill="none" xmlns="http://www.w3.org/2000/svg">
<path d="M771.299 1589.91C772.819 1589.68 775.069 1589.69 776.299 1589.93C777.529 1590.17 776.286 1590.35 773.535 1590.35C770.785 1590.34 769.779 1590.14 771.299 1589.91ZM766.527 1587.65C766.872 1587.09 766.282 1586.63 765.217 1586.63C764.152 1586.63 762.72 1585.96 762.035 1585.13C761.351 1584.31 760.171 1583.63 759.413 1583.63C758.655 1583.63 758.029 1582.62 758.02 1581.38C758.008 1579.56 757.819 1579.42 757.035 1580.63C756.263 1581.83 756.047 1581.62 755.972 1579.63L755.878 1577.13L754.871 1579.89C754.317 1581.4 753.453 1582.39 752.95 1582.08C752.447 1581.77 752.035 1582.13 752.035 1582.89C752.035 1583.92 750.155 1584.3 744.535 1584.41C739.973 1584.51 737.035 1584.16 737.035 1583.54C737.035 1582.98 736.585 1582.79 736.035 1583.13C735.485 1583.47 735.035 1583.27 735.035 1582.69C735.035 1582.11 734.285 1581.63 733.369 1581.63C732.452 1581.63 731.965 1581.37 732.285 1581.05C732.997 1580.34 729.431 1576.63 728.035 1576.63C727.485 1576.63 727.035 1576.18 727.035 1575.63C727.035 1575.08 725.348 1574.58 723.285 1574.51C719.553 1574.4 719.55 1574.39 722.535 1573.63C724.314 1573.18 719.632 1572.87 711.035 1572.88C701.498 1572.89 697.733 1573.17 700.035 1573.7C703.53 1574.5 703.529 1574.5 699.285 1574.29C696.396 1574.15 695.035 1574.49 695.035 1575.36C695.035 1576.3 692.668 1576.63 686.035 1576.63C680.702 1576.63 677.035 1576.22 677.035 1575.63C677.035 1575.08 676.023 1574.62 674.785 1574.62C672.966 1574.6 672.822 1574.42 674.035 1573.63C675.242 1572.85 675.084 1572.66 673.226 1572.65C671.945 1572.64 671.192 1572.19 671.535 1571.63C671.903 1571.04 670.712 1570.63 668.594 1570.63C666.637 1570.63 665.035 1570.17 665.035 1569.6C665.035 1568.91 664.34 1568.93 662.957 1569.67C660.473 1571 654.302 1568.53 653.298 1565.81C652.959 1564.89 652.198 1563.76 651.608 1563.31C650.858 1562.73 650.894 1562.33 651.729 1561.99C653.515 1561.26 652.106 1558.63 649.928 1558.63C648.881 1558.63 648.035 1557.94 648.035 1557.07C648.035 1556.22 647.585 1555.79 647.035 1556.13C646.485 1556.47 646.035 1556.25 646.035 1555.63C646.035 1555.02 645.612 1554.78 645.095 1555.09C644.578 1555.41 643.621 1555.1 642.968 1554.4C642.242 1553.63 640.077 1553.27 637.408 1553.48C634.68 1553.7 633.035 1553.42 633.035 1552.73C633.035 1552.13 631.798 1551.62 630.285 1551.62C628.142 1551.6 627.867 1551.39 629.035 1550.63C630.035 1549.99 630.119 1549.66 629.285 1549.65C626.88 1549.62 626.528 1549.3 625.535 1546.23L624.535 1543.13L616.212 1542.84C608.324 1542.56 607.784 1542.68 605.889 1545.09C604.79 1546.49 603.221 1547.63 602.404 1547.63C601.586 1547.63 601.196 1548.08 601.535 1548.63C601.875 1549.18 601.602 1549.63 600.928 1549.63C600.254 1549.63 599.981 1549.91 600.321 1550.25C602.219 1552.15 592.756 1556.63 586.854 1556.63C584.274 1556.63 583.149 1557.01 583.589 1557.72C584.034 1558.44 583.126 1558.7 580.898 1558.5C578.659 1558.3 577.619 1558.6 577.785 1559.41C577.96 1560.26 576.235 1560.63 572.094 1560.63C568.827 1560.63 565.875 1561.08 565.535 1561.63C565.196 1562.18 563.846 1562.63 562.535 1562.63C561.225 1562.63 559.875 1562.18 559.535 1561.63C558.749 1560.36 553.461 1560.33 551.113 1561.59C549.78 1562.3 548.775 1562.04 547.179 1560.55C546 1559.45 545.035 1558.12 545.035 1557.59C545.035 1557.06 544.223 1556.63 543.231 1556.63C542.238 1556.63 539.707 1555.06 537.605 1553.13C534.635 1550.41 532.935 1549.63 529.969 1549.63C527.87 1549.63 525.908 1549.23 525.608 1548.75C525.309 1548.26 522.067 1547.55 518.406 1547.15C514.42 1546.73 511.047 1545.78 510.002 1544.79C508.048 1542.93 507.663 1537.53 509.404 1536.4C510.026 1535.99 506.598 1535.66 501.785 1535.65C496.629 1535.64 493.035 1535.22 493.035 1534.63C493.035 1534.08 492.36 1533.63 491.535 1533.63C490.71 1533.63 490 1532.84 489.956 1531.88C489.912 1530.9 489.662 1530.66 489.385 1531.35C488.775 1532.85 485.035 1530.82 485.035 1528.98C485.035 1528.28 484.177 1528.04 482.879 1528.38C481.402 1528.77 480.948 1528.58 481.438 1527.79C481.872 1527.09 481.488 1526.63 480.459 1526.63C479.527 1526.63 477.722 1525.51 476.448 1524.13C474.829 1522.38 472.987 1521.59 470.333 1521.5L466.535 1521.37L470.035 1520.63L473.535 1519.89L470.285 1519.64C468.498 1519.5 466.473 1519.33 465.785 1519.26C465.098 1519.19 464.091 1518.12 463.548 1516.88C462.539 1514.58 461.035 1513.83 461.035 1515.63C461.035 1517.89 456.951 1516.41 454.822 1513.38C452.766 1510.46 452.105 1510.16 448.263 1510.44C445.913 1510.61 444.252 1511.17 444.572 1511.69C444.892 1512.21 443.975 1512.63 442.535 1512.63C441.045 1512.63 440.184 1512.2 440.535 1511.63C440.875 1511.08 440.425 1510.63 439.535 1510.63C438.646 1510.63 438.196 1511.08 438.535 1511.63C438.875 1512.18 438.425 1512.63 437.535 1512.63C436.646 1512.63 436.196 1512.18 436.535 1511.63C436.896 1511.05 435.881 1510.63 434.101 1510.63C429.378 1510.63 423.049 1507.52 422.957 1505.15C422.909 1503.94 422.665 1503.66 422.346 1504.46C421.996 1505.34 421.146 1504.7 419.859 1502.58C418.383 1500.16 418.064 1498.42 418.558 1495.5C419.001 1492.88 418.842 1491.63 418.064 1491.63C417.434 1491.63 417.196 1491.18 417.535 1490.63C417.887 1490.06 417.03 1489.63 415.547 1489.63C412.25 1489.63 408.11 1485.08 408.067 1481.42C408.048 1479.78 407.268 1478.29 406.103 1477.67C405.04 1477.1 403.856 1475.64 403.471 1474.43C403.086 1473.22 402.13 1471.58 401.346 1470.8C400.562 1470.02 400.143 1468.79 400.415 1468.09C400.687 1467.38 400.263 1466.55 399.472 1466.25C398.682 1465.94 398.035 1465.11 398.035 1464.39C398.035 1462.15 391.456 1457.63 388.21 1457.63C387.19 1457.63 385.844 1456.51 385.217 1455.13C384.549 1453.67 383.243 1452.63 382.057 1452.63C380.945 1452.63 380.035 1452.18 380.035 1451.63C380.035 1451.08 378.434 1450.63 376.476 1450.63C374.358 1450.63 373.168 1451.04 373.535 1451.63C373.913 1452.24 372.379 1452.63 369.594 1452.63C367.087 1452.63 365.035 1452.18 365.035 1451.63C365.035 1451.08 363.685 1450.63 362.035 1450.63C359.596 1450.63 359.033 1451.05 359.02 1452.88C359.008 1454.7 358.819 1454.84 358.035 1453.63C357.3 1452.49 357.062 1452.92 357.051 1455.38C357.043 1457.17 356.634 1458.63 356.144 1458.63C355.653 1458.63 354.977 1459.73 354.642 1461.06C354.306 1462.4 353.132 1463.78 352.033 1464.13C350.934 1464.48 350.035 1465.17 350.035 1465.66C350.035 1467.12 333.958 1466.7 332.45 1465.19C331.724 1464.46 331.373 1463.63 331.669 1463.33C331.965 1463.04 331.268 1462.29 330.121 1461.68C327.866 1460.47 327.285 1455.98 328.981 1452.87C329.501 1451.91 330.199 1449.43 330.531 1447.35C330.864 1445.28 331.564 1443.84 332.086 1444.16C332.977 1444.71 333.47 1442.67 333.116 1439.91C333.029 1439.23 333.652 1437.62 334.501 1436.33C335.349 1435.03 335.741 1433.67 335.372 1433.3C335.004 1432.93 335.254 1432.63 335.928 1432.63C336.602 1432.63 336.875 1432.18 336.535 1431.63C336.196 1431.08 336.394 1430.63 336.976 1430.63C337.559 1430.63 338.035 1429.53 338.035 1428.19C338.035 1426.85 338.451 1425.49 338.959 1425.18C339.466 1424.87 340.178 1423.26 340.54 1421.61C340.902 1419.96 341.612 1418.87 342.117 1419.18C342.622 1419.49 343.092 1419.05 343.16 1418.19C343.438 1414.73 345.733 1409.63 347.011 1409.63C347.574 1409.63 348.035 1407.85 348.035 1405.68C348.035 1403.3 348.602 1401.41 349.464 1400.93C350.918 1400.12 351.035 1399.83 351.035 1397.07C351.035 1396.22 351.485 1395.79 352.035 1396.13C352.595 1396.48 353.035 1395.7 353.035 1394.38C353.035 1392.04 354.601 1389.93 359.11 1386.22C360.643 1384.96 361.561 1384.71 361.816 1385.47C362.028 1386.11 362.854 1386.63 363.65 1386.63C364.447 1386.63 365.357 1387.31 365.674 1388.13C365.99 1388.96 367.128 1389.63 368.201 1389.63C369.275 1389.63 369.875 1390.08 369.535 1390.63C369.196 1391.18 369.619 1391.63 370.476 1391.63C373.08 1391.63 372.232 1394.5 368.535 1398.2C366.61 1400.12 365.035 1402.13 365.035 1402.66C365.035 1403.2 367.757 1403.63 371.084 1403.63C375.086 1403.63 378.533 1404.31 381.272 1405.63C383.816 1406.86 387.458 1407.63 390.723 1407.63C393.645 1407.63 396.035 1408.08 396.035 1408.63C396.035 1410.23 403.646 1409.81 405.035 1408.13C405.72 1407.31 405.922 1406.63 405.484 1406.63C405.045 1406.63 405.669 1405.59 406.87 1404.31C408.071 1403.03 408.75 1401.68 408.378 1401.31C408.006 1400.94 408.479 1400.63 409.428 1400.63C410.377 1400.63 410.913 1400.24 410.618 1399.77C409.949 1398.68 413.461 1395.39 414.343 1396.27C414.698 1396.63 415.272 1396.18 415.619 1395.27C415.966 1394.37 416.814 1393.63 417.504 1393.63C418.262 1393.63 418.592 1392.74 418.338 1391.38C418.046 1389.81 418.996 1388 421.475 1385.38C423.431 1383.32 425.557 1381.63 426.2 1381.63C426.843 1381.63 427.09 1381.35 426.75 1381.01C426.409 1380.67 426.788 1379.74 427.592 1378.93C428.396 1378.13 428.791 1377.05 428.47 1376.53C428.149 1376.01 428.258 1375.65 428.711 1375.73C431.056 1376.13 432.197 1375.49 431.654 1374.08C431.312 1373.19 431.48 1372.79 432.047 1373.14C432.602 1373.48 433.035 1372.6 433.035 1371.13C433.035 1369.64 433.466 1368.78 434.035 1369.13C434.585 1369.47 435.035 1369.03 435.035 1368.16C435.035 1367.28 435.71 1366.31 436.535 1365.99C437.36 1365.68 438.035 1364.33 438.035 1362.99C438.035 1358.15 442.923 1349.63 445.699 1349.63C447.879 1349.63 448.273 1347.55 446.47 1345.56C444.939 1343.87 444.883 1343.29 446.041 1341.12C446.774 1339.75 447.999 1338.63 448.763 1338.63C449.528 1338.63 449.875 1338.18 449.535 1337.63C449.196 1337.08 449.363 1336.63 449.907 1336.63C450.55 1336.63 450.566 1335.49 449.952 1333.38C449.433 1331.59 449.29 1328.83 449.634 1327.24C450.719 1322.2 450.698 1316.63 449.594 1316.62C449.012 1316.61 449.21 1316.16 450.035 1315.63C451.317 1314.8 451.281 1314.66 449.785 1314.65C447.105 1314.62 447.605 1310.2 450.656 1306.93C452.097 1305.39 453.672 1304.24 454.156 1304.38C454.64 1304.52 455.035 1303.96 455.035 1303.13C455.035 1302.05 456.147 1301.63 459.035 1301.63C462.543 1301.63 463.035 1301.35 463.035 1299.33C463.035 1298.07 463.547 1296.52 464.171 1295.9C465.019 1295.05 464.91 1294.36 463.743 1293.2C461.92 1291.37 460.035 1291.15 460.035 1292.75C460.035 1293.4 458.995 1293.67 457.535 1293.39C455.859 1293.07 455.035 1293.36 455.035 1294.27C455.035 1295.02 454.06 1295.63 452.869 1295.63C451.677 1295.63 450.966 1295.37 451.288 1295.05C452.667 1293.67 447.581 1289.63 444.462 1289.63C442.529 1289.63 441.02 1289.03 440.674 1288.13C440.357 1287.31 439.072 1286.62 437.817 1286.62C435.977 1286.6 435.826 1286.41 437.035 1285.63C438.317 1284.8 438.281 1284.66 436.785 1284.65C435.823 1284.64 435.035 1283.96 435.035 1283.13C435.035 1282.31 434.585 1281.63 434.035 1281.63C433.485 1281.63 433.035 1280.03 433.035 1278.07C433.035 1276.12 432.679 1274.73 432.243 1275C431.807 1275.27 431.346 1274.06 431.219 1272.31C431.092 1270.56 430.742 1268.34 430.443 1267.38C430.112 1266.31 430.526 1265.38 431.492 1265.01C432.586 1264.59 432.779 1264.03 432.108 1263.22C430.843 1261.7 431.134 1257.72 432.493 1257.95C433.066 1258.05 433.423 1257.57 433.285 1256.88C433.148 1256.19 433.598 1255.74 434.285 1255.88C434.973 1256.02 435.412 1255.54 435.261 1254.81C435.11 1254.08 435.416 1253.75 435.942 1254.07C436.467 1254.4 437.184 1254.2 437.535 1253.63C437.887 1253.06 438.542 1252.83 438.991 1253.1C439.441 1253.38 440.365 1252.94 441.045 1252.12C441.724 1251.3 443.549 1250.63 445.099 1250.63C446.649 1250.63 448.196 1250.18 448.535 1249.63C448.875 1249.08 450.814 1248.59 452.845 1248.53C456.16 1248.44 456.281 1248.35 454.035 1247.63C452.369 1247.1 452.119 1246.8 453.285 1246.73C455.266 1246.62 455.617 1243.59 454 1240.57C453.289 1239.24 451.903 1238.63 449.573 1238.63C447.158 1238.63 445.622 1237.92 444.241 1236.17C443.174 1234.81 442.016 1233.98 441.668 1234.33C441.32 1234.68 441.035 1234.39 441.035 1233.69C441.035 1232.98 439.235 1230.26 437.035 1227.63C433.264 1223.13 431.616 1217.63 434.035 1217.63C434.585 1217.63 435.035 1217 435.035 1216.24C435.035 1215.47 435.71 1214.59 436.535 1214.27C437.748 1213.8 438.035 1211.5 438.035 1202.29C438.035 1191.18 439.367 1184.78 442.02 1183.14C442.579 1182.8 443.035 1181.27 443.035 1179.75C443.035 1177.39 446.704 1172.65 448.539 1172.64C448.812 1172.64 449.378 1172.64 449.796 1172.64C450.214 1172.64 451.789 1171.49 453.296 1170.09C454.803 1168.7 456.05 1167.91 456.067 1168.34C456.085 1168.78 456.779 1168.24 457.61 1167.14C458.442 1166.04 459.327 1165.25 459.579 1165.39C459.83 1165.52 460.823 1165.63 461.785 1165.62C463.281 1165.61 463.317 1165.46 462.035 1164.64C460.742 1163.8 460.768 1163.66 462.224 1163.65C464.584 1163.63 469.991 1158.46 470.518 1155.73C470.871 1153.89 470.625 1153.59 469.246 1154.17C465.254 1155.85 463.035 1155.88 463.035 1154.25C463.035 1153.36 462.585 1152.64 462.035 1152.64C461.485 1152.64 461.035 1151.92 461.035 1151.04C461.035 1150.17 460.135 1149.21 459.035 1148.93C457.935 1148.64 457.035 1148 457.035 1147.52C457.035 1147.03 455.737 1146.64 454.15 1146.64C450.818 1146.64 448.035 1143.21 448.035 1139.11C448.035 1137.69 447.679 1136.74 447.243 1137.01C446.467 1137.49 446.004 1135.14 445.691 1129.14C445.606 1127.49 445.016 1125.8 444.382 1125.39C443.747 1124.98 443.21 1122.39 443.189 1119.64C443.167 1116.79 442.48 1113.68 441.593 1112.41C440.736 1111.19 440.035 1109.17 440.035 1107.91C440.035 1106.66 439.585 1105.64 439.035 1105.64C437.412 1105.64 437.726 1078.14 439.365 1076.78C440.119 1076.15 440.515 1074.45 440.28 1072.85C440.019 1071.07 440.454 1069.53 441.45 1068.71C442.322 1067.98 443.035 1066.07 443.035 1064.45C443.035 1062.75 443.456 1061.78 444.035 1062.14C444.585 1062.48 445.035 1062.05 445.035 1061.19C445.035 1060.34 445.71 1059.64 446.535 1059.64C447.38 1059.64 448.035 1058.74 448.035 1057.59C448.035 1056.47 449.16 1054.42 450.535 1053.04C451.91 1051.67 453.092 1050.12 453.16 1049.59C453.229 1049.07 453.342 1048.27 453.41 1047.81C453.659 1046.17 458.488 1039.8 459.164 1040.22C459.546 1040.45 460.173 1038.78 460.557 1036.51C461.048 1033.6 461.515 1032.78 462.13 1033.75C462.872 1034.93 463.302 1032.11 462.994 1028.09C462.971 1027.79 464.474 1026.07 466.334 1024.27C468.912 1021.76 469.874 1019.83 470.381 1016.13C470.747 1013.46 471.719 1010.54 472.543 1009.63C473.366 1008.72 473.739 1007.67 473.371 1007.3C473.003 1006.94 473.479 1006.64 474.428 1006.64C475.377 1006.64 475.9 1006.23 475.591 1005.73C474.767 1004.39 476.049 1001.64 477.492 1001.64C480.091 1001.64 477.025 987.984 474.009 986.119C471.295 984.442 475.854 976.716 479.652 976.557C480.688 976.514 481.042 976.274 480.44 976.025C478.858 975.371 480.541 965.839 482.65 963.509C483.583 962.479 483.938 961.629 483.44 961.62C482.943 961.61 483.105 961.243 483.801 960.802C484.497 960.36 485.326 957.554 485.644 954.567C485.961 951.58 486.629 948.986 487.128 948.802C487.627 948.619 488.035 948.004 488.035 947.435C488.035 946.865 489.395 944.851 491.057 942.958C492.72 941.065 493.847 939.14 493.563 938.681C493.279 938.221 493.748 937.576 494.605 937.247C495.461 936.919 495.914 936.248 495.61 935.756C495.306 935.265 495.728 934.306 496.546 933.627C497.365 932.947 498.035 931.526 498.035 930.468C498.035 927.277 502.55 923.527 505.759 924.052C507.286 924.302 510.673 924.812 513.285 925.185L518.035 925.863L518.154 921.999C518.219 919.874 518.209 917.616 518.132 916.98C518.055 916.345 519.053 913.828 520.351 911.386C522.663 907.038 522.672 906.917 520.8 905.398C519.749 904.545 518.793 903.188 518.675 902.382C518.556 901.576 517.689 900.146 516.747 899.205C514.665 897.122 514.61 896.204 516.457 894.357C517.239 893.575 518.027 892.08 518.207 891.035C518.698 888.194 520.581 886.636 523.523 886.636C525.022 886.636 525.888 886.206 525.536 885.636C525.196 885.086 525.619 884.636 526.477 884.636C527.334 884.636 528.036 884.189 528.036 883.643C528.036 882.005 535.364 873.913 538.6 871.979C539.665 871.342 540.423 870.33 540.286 869.729C540.148 869.128 540.466 868.636 540.991 868.636C541.517 868.636 543.639 867.487 545.708 866.083C548.169 864.413 550.518 863.635 552.501 863.833C554.648 864.048 555.546 863.698 555.579 862.636C555.605 861.811 556.168 861.248 556.831 861.386C557.493 861.523 558.036 860.934 558.036 860.077C558.036 859.219 558.486 858.796 559.036 859.136C559.586 859.476 560.036 859.051 560.036 858.191C560.036 856.007 563.616 849.55 564.395 850.329C564.747 850.681 565.036 850.219 565.036 849.302C565.036 848.355 565.824 847.636 566.861 847.636C569.339 847.636 573.036 843.521 573.036 840.762C573.036 839.521 573.482 838.794 574.036 839.136C574.586 839.476 575.036 839.053 575.036 838.195C575.036 836.991 576.174 836.636 580.036 836.636C583.066 836.636 585.036 837.078 585.036 837.758C585.036 838.566 585.4 838.578 586.335 837.802C587.05 837.209 589.637 836.411 592.085 836.028C594.533 835.645 596.761 835.063 597.036 834.734C597.998 833.583 602.021 831.636 603.439 831.636C604.225 831.636 605.019 831.199 605.202 830.665C605.386 830.131 606.436 829.546 607.536 829.366C608.636 829.186 610.583 828.463 611.864 827.76C613.144 827.057 614.799 826.715 615.541 826.999C616.282 827.284 617.432 826.863 618.096 826.063C618.759 825.264 619.805 824.669 620.419 824.741C622.696 825.01 624.139 824.613 623.667 823.848C623.399 823.415 624.339 822.964 625.757 822.847C627.174 822.73 629.01 822.072 629.838 821.385C630.666 820.698 631.611 820.229 631.939 820.342C633.162 820.765 637.036 819.386 637.036 818.527C637.036 818.037 638.498 817.604 640.286 817.566C643.009 817.507 643.212 817.356 641.536 816.636C640.138 816.035 641.493 815.762 646.036 815.728C651.018 815.692 653.119 816.137 655.036 817.636C656.411 818.711 658.043 819.601 658.663 819.614C659.283 819.626 660.351 820.311 661.036 821.136C663.272 823.83 664.757 822.8 665.276 818.194C665.811 813.451 667.805 810.636 670.631 810.636C671.587 810.636 672.084 810.351 671.736 810.003C671.388 809.655 672.217 808.494 673.579 807.423C674.941 806.352 675.828 805.109 675.551 804.661C675.274 804.212 675.719 803.587 676.541 803.272C677.363 802.952 678.035 801.973 678.035 801.092C678.035 800.21 678.598 798.901 679.285 798.183C679.973 797.464 681.184 795.94 681.977 794.795C683.076 793.207 684.43 792.733 687.673 792.798C690.285 792.85 692.527 792.283 693.481 791.329C695.211 789.599 695.575 786.632 694.057 786.632C693.493 786.632 693.14 783.471 693.225 779.176C693.305 775.076 693.695 771.921 694.09 772.165C694.485 772.409 695.054 771.669 695.354 770.52C695.655 769.37 696.381 768.727 696.968 769.09C697.555 769.453 698.035 769.241 698.035 768.619C698.035 767.998 698.71 766.814 699.535 765.989C700.36 765.164 701.035 764.739 701.035 765.044C701.035 765.801 708.906 761.65 709.599 760.528C709.904 760.035 709.65 759.632 709.035 759.632C708.421 759.632 708.146 759.262 708.425 758.81C708.705 758.358 708.224 756.67 707.358 755.06C705.18 751.012 704.65 737.16 706.598 735.212C707.417 734.393 708.035 731.861 708.035 729.326C708.035 726.605 708.614 724.396 709.524 723.641C710.343 722.961 710.798 722.057 710.535 721.632C710.273 721.206 710.728 720.302 711.546 719.622C712.365 718.943 713.035 717.528 713.035 716.478C713.035 715.428 713.708 714.311 714.53 713.995C715.352 713.68 715.806 713.07 715.541 712.64C715.275 712.21 715.728 711.302 716.546 710.622C717.365 709.943 718.035 708.74 718.035 707.95C718.035 707.16 718.485 706.792 719.035 707.132C719.585 707.472 720.035 707.048 720.035 706.191C720.035 705.333 720.373 704.685 720.785 704.75C722.796 705.068 724.089 704.527 723.52 703.607C723.172 703.043 723.258 702.647 723.711 702.725C725.932 703.111 728.089 702.528 727.567 701.682C727.244 701.16 728.68 700.42 730.758 700.038C732.835 699.656 734.76 699.071 735.035 698.737C736.459 697.012 740.455 695.632 744.022 695.632C748.492 695.632 749.397 694.19 745.535 693.221C744.134 692.869 743.035 691.869 743.035 690.946C743.035 690.04 742.773 689.561 742.452 689.882C741.724 690.61 738.035 687.012 738.035 685.573C738.035 684.99 737.585 684.792 737.035 685.132C736.468 685.482 736.035 684.642 736.035 683.191C736.035 681.783 735.47 680.632 734.78 680.632C733.607 680.632 730.592 675.362 730.489 673.132C730.464 672.582 729.901 671.149 729.239 669.947C728.577 668.746 728.035 667.147 728.035 666.394C728.035 664.215 734.407 658.632 736.892 658.632C738.182 658.632 738.881 658.191 738.52 657.607C738.172 657.043 738.258 656.647 738.711 656.725C743.387 657.538 744.399 654.936 740.535 652.034C739.16 651.002 738.035 649.348 738.035 648.359C738.035 647.37 737.321 645.47 736.447 644.137C734.849 641.698 735.199 636.463 737.121 634.065C737.591 633.479 738.084 631.578 738.216 629.841C738.349 628.105 739.066 626.45 739.81 626.165C740.554 625.879 740.936 625.279 740.659 624.831C740.382 624.383 741.253 623.192 742.595 622.184C743.937 621.176 745.035 619.762 745.035 619.041C745.035 618.321 745.598 617.371 746.285 616.931C748.171 615.725 750.035 611.948 750.035 609.336C750.035 608.059 750.656 606.166 751.413 605.129C752.568 603.551 752.573 603.027 751.446 601.9C749.18 599.633 751.488 591.632 754.408 591.632C755.028 591.632 755.578 590.169 755.63 588.382C755.79 582.916 756.42 579.751 757.248 580.263C757.681 580.531 758.068 579.711 758.109 578.441C758.208 575.292 761.22 570.367 763.856 569.042C765.048 568.443 765.692 567.622 765.287 567.217C764.882 566.811 765.672 566.584 767.043 566.711C768.414 566.839 770.435 566.866 771.535 566.772C773.206 566.629 773.288 566.441 772.035 565.632C770.92 564.911 771.496 564.658 774.285 564.647C776.348 564.639 778.292 564.744 778.606 564.882C778.919 565.019 779.617 564.344 780.156 563.382C780.694 562.419 782.237 561.632 783.585 561.632C784.933 561.632 786.035 561.182 786.035 560.632C786.035 560.082 786.935 559.632 788.035 559.632C789.135 559.632 790.035 559.234 790.035 558.748C790.035 558.262 790.823 557.58 791.785 557.232C796.176 555.645 798.524 553.612 798.223 551.659C798.051 550.544 798.388 549.632 798.973 549.632C799.557 549.632 800.035 548.943 800.035 548.1C800.035 547.258 800.71 546.31 801.535 545.993C802.629 545.574 803.035 543.854 803.035 539.647C803.035 535.757 803.521 533.474 804.524 532.641C805.343 531.961 805.767 531.006 805.465 530.518C805.164 530.031 805.731 529.625 806.726 529.616C808.26 529.603 808.307 529.454 807.035 528.632C806.035 527.985 805.952 527.657 806.785 527.647C807.473 527.639 808.035 526.93 808.035 526.073C808.035 525.215 808.485 524.792 809.035 525.132C809.585 525.472 810.035 525.262 810.035 524.666C810.035 524.07 811.16 523.154 812.535 522.632C813.91 522.109 815.035 521.065 815.035 520.311C815.035 519.558 815.925 518.137 817.012 517.153C818.099 516.169 818.74 514.963 818.438 514.473C818.135 513.983 818.483 513.706 819.211 513.857C819.94 514.008 820.423 513.569 820.285 512.882C820.148 512.194 820.518 511.632 821.107 511.632C822.602 511.632 825.404 508.673 825.738 506.741C827.043 499.192 825.304 492.953 820.577 488.226C815.612 483.261 814.658 481.19 816.595 479.582C818.494 478.006 818.431 474.642 816.477 473.212C815.08 472.191 815.107 471.869 816.738 470.102C817.738 469.018 819.558 467.569 820.783 466.882C823.247 465.498 827.436 465.175 826.66 466.429C826.389 466.868 826.581 467.881 827.086 468.679C827.886 469.944 828.007 469.941 828.02 468.659C828.03 467.68 828.56 467.936 829.602 469.424C830.464 470.654 832.769 472.329 834.724 473.146C839.424 475.11 848.709 475.101 850.678 473.132C851.503 472.307 852.789 471.632 853.535 471.632C854.282 471.632 855.568 472.307 856.393 473.132C857.218 473.957 858.182 474.632 858.535 474.632C860.36 474.632 862.035 477.952 862.035 481.569C862.035 484.746 861.366 486.351 859.011 488.815C855.987 491.979 854.234 496.163 855.43 497.36C855.78 497.709 858.429 497.885 861.317 497.751C864.45 497.606 867.716 498.103 869.413 498.984C872.609 500.642 876.803 500.245 879 498.077C880.28 496.813 879.998 496.632 876.757 496.632C874.364 496.632 872.148 495.847 870.503 494.417C868.357 492.551 867.991 491.449 868.175 487.417C868.295 484.785 868.762 482.632 869.214 482.632C869.666 482.632 870.035 481.943 870.035 481.1C870.035 480.258 870.71 479.31 871.535 478.993C872.398 478.662 873.035 477.169 873.035 475.481C873.035 473.734 874.048 471.452 875.535 469.848C877.402 467.835 878.035 466.055 878.035 462.82C878.035 458.652 879.686 455.632 881.964 455.632C882.553 455.632 883.035 455.182 883.035 454.632C883.035 454.082 883.935 453.632 885.035 453.632C886.147 453.632 887.035 454.298 887.035 455.132C887.035 455.957 887.655 456.632 888.413 456.632C889.171 456.632 890.351 455.957 891.035 455.132C891.72 454.307 892.904 453.632 893.666 453.632C894.787 453.632 894.821 453.261 893.844 451.696C893.179 450.632 892.275 449.983 891.835 450.255C890.418 451.131 890.986 445.539 892.464 444.06C894.088 442.437 899.035 442.114 899.035 443.632C899.035 444.182 899.935 444.632 901.035 444.632C902.135 444.632 903.035 444.155 903.035 443.573C903.035 442.99 903.453 442.772 903.963 443.087C904.474 443.403 905.179 442.754 905.531 441.646C905.984 440.218 907.041 439.632 909.162 439.632C910.807 439.632 911.949 439.294 911.699 438.882C911.45 438.469 911.873 437.551 912.64 436.842C913.408 436.133 914.035 435.851 914.035 436.215C914.035 436.579 914.705 436.321 915.523 435.642C916.397 434.916 917.736 434.725 918.773 435.178C919.742 435.602 920.873 435.878 921.285 435.79C921.698 435.703 922.035 436.113 922.035 436.701C922.035 437.289 923.014 437.627 924.21 437.451C926.086 437.175 928.337 434.522 930.631 429.882C931.677 427.767 939.37 428.322 941.035 430.632C942.41 432.538 944.73 433.564 943.625 431.776C943.334 431.305 945.67 431.775 948.816 432.819C951.962 433.863 956.46 434.986 958.813 435.314C961.165 435.642 963.329 436.298 963.622 436.771C963.914 437.244 965.729 437.632 967.654 437.632C969.579 437.632 970.927 437.264 970.649 436.816C970.372 436.367 972.033 435.905 974.34 435.788C977.891 435.609 978.903 436.024 980.926 438.485C983.088 441.115 983.638 441.304 986.689 440.462C991.04 439.26 992.035 439.965 992.035 444.25C992.035 446.328 991.629 447.499 991.035 447.132C990.485 446.792 990.035 446.959 990.035 447.503C990.035 448.047 989.023 448.688 987.785 448.926C986.017 449.267 986.177 449.389 988.535 449.497C991.944 449.653 997.035 453.547 997.035 455.998C997.035 456.896 996.66 457.632 996.202 457.632C995.744 457.632 995.369 458.307 995.369 459.132C995.369 459.957 996.226 460.632 997.274 460.632C999.835 460.632 1002.02 462.973 1002.11 465.81C1002.17 467.942 1002.24 467.971 1002.94 466.168C1003.65 464.37 1003.77 464.424 1004.36 466.799C1005.28 470.47 1008.53 471.055 1010.58 467.919C1011.78 466.091 1012.52 465.716 1013.33 466.525C1014.64 467.833 1018.04 468.009 1018.04 466.768C1018.04 466.293 1019.22 464.718 1020.67 463.268C1023.28 460.662 1027.04 459.696 1027.04 461.632C1027.04 462.182 1027.52 462.632 1028.11 462.632C1029.49 462.632 1032.04 465.176 1032.04 466.56C1032.04 467.15 1032.71 467.632 1033.54 467.632C1034.36 467.632 1035.07 468.419 1035.11 469.382C1035.18 470.781 1035.31 470.831 1035.78 469.632C1036.1 468.807 1037.07 467.583 1037.95 466.913C1039.81 465.483 1043.42 465.208 1042.58 466.56C1042.26 467.071 1043.02 467.633 1044.27 467.81C1046.06 468.065 1046.59 468.861 1046.82 471.632C1047.19 476.247 1048.95 479.584 1050.93 479.435C1054.45 479.171 1055.93 479.716 1056.49 481.491C1057 483.083 1058.27 483.379 1065.31 483.547C1069.83 483.654 1073.96 484.167 1074.49 484.687C1075.01 485.207 1077.08 485.632 1079.08 485.632C1081.21 485.632 1083.63 486.411 1084.88 487.499C1087.07 489.397 1087.89 494.632 1086 494.632C1085.29 494.632 1085.29 495.233 1086 496.566C1087.55 499.465 1087.25 502.407 1085.29 503.552C1083.62 504.522 1083.62 504.572 1085.29 504.601C1086.36 504.62 1087.04 505.405 1087.04 506.632C1087.04 507.776 1086.37 508.632 1085.48 508.632C1084.62 508.632 1084.2 509.082 1084.54 509.632C1084.88 510.182 1084.65 510.632 1084.04 510.632C1083.42 510.632 1083.17 511.043 1083.48 511.546C1083.79 512.049 1083.48 512.689 1082.79 512.967C1082.03 513.273 1082.23 513.505 1083.29 513.553C1084.86 513.624 1085.49 514.75 1085.15 516.882C1085.09 517.294 1085.5 517.632 1086.08 517.632C1087.35 517.632 1087.19 534.42 1085.91 535.211C1084.31 536.199 1085.01 537.671 1087.54 538.632C1088.91 539.154 1090.04 540.22 1090.04 541C1090.04 542.585 1092.73 543.997 1093.22 542.67C1093.39 542.203 1094.89 541.666 1096.54 541.476C1098.19 541.287 1100.1 540.457 1100.79 539.632C1101.9 538.3 1102.18 538.305 1103.29 539.672C1104.41 541.056 1104.69 541.048 1106.04 539.589C1108.13 537.321 1108.32 535.632 1106.48 535.632C1105.62 535.632 1105.2 535.182 1105.54 534.632C1105.88 534.082 1105.4 533.632 1104.49 533.632C1103.42 533.632 1103.03 533.095 1103.4 532.132C1103.75 531.218 1103.4 530.632 1102.5 530.632C1100.59 530.632 1100.61 527.232 1102.52 525.641C1103.34 524.961 1103.72 523.937 1103.37 523.364C1103.02 522.791 1103.2 522.612 1103.77 522.966C1104.34 523.32 1105.36 522.94 1106.04 522.121C1106.72 521.302 1108.58 520.632 1110.16 520.632C1111.74 520.632 1113.04 520.182 1113.04 519.632C1113.04 517.984 1119.75 518.448 1120.4 520.14C1120.72 520.97 1122.23 522.182 1123.76 522.834C1127.36 524.368 1130.04 526.63 1130.04 528.134C1130.04 530.787 1126.29 533.632 1122.79 533.632C1120.86 533.632 1118.72 534.307 1118.04 535.132C1116.98 536.4 1117.2 536.632 1119.41 536.632C1120.86 536.632 1122.04 537.194 1122.05 537.882C1122.06 538.81 1122.29 538.785 1122.92 537.787C1123.55 536.793 1123.94 537.117 1124.42 539.031C1124.78 540.455 1125.4 541.569 1125.8 541.507C1126.21 541.445 1127.21 541.455 1128.04 541.529C1129.37 541.647 1129.37 541.77 1128.04 542.632C1126.78 543.44 1126.87 543.623 1128.54 543.735C1129.64 543.808 1130.87 543.815 1131.29 543.75C1131.7 543.685 1132.04 544.082 1132.04 544.632C1132.04 545.182 1132.82 545.635 1133.79 545.638C1136.04 545.646 1141.26 549.071 1140.38 549.957C1140.01 550.328 1140.23 550.632 1140.88 550.632C1143.57 550.632 1140.89 560.472 1137.56 562.866C1136 563.983 1132.04 563.772 1132.04 562.573C1132.04 561.99 1131.6 561.78 1131.08 562.107C1130.55 562.433 1129.2 562.126 1128.08 561.425C1126.46 560.417 1125.63 560.405 1124.08 561.371C1122.85 562.139 1121.9 562.228 1121.52 561.611C1120.58 560.091 1114.35 560.457 1112.68 562.132C1111.85 562.957 1110.25 563.632 1109.11 563.632C1107.97 563.632 1107.04 564.082 1107.04 564.632C1107.04 565.182 1106.14 565.632 1105.04 565.632C1103.94 565.632 1103.04 565.092 1103.04 564.432C1103.04 563.498 1102.77 563.498 1101.84 564.432C1100.35 565.913 1093.04 566.03 1093.04 564.573C1093.04 563.99 1092.64 563.76 1092.15 564.061C1091.66 564.363 1090.96 563.602 1090.59 562.37C1089.94 560.193 1089.9 560.186 1089.05 562.132C1088.46 563.484 1088.15 563.646 1088.09 562.632C1088.02 561.332 1087.88 561.325 1087.09 562.584C1086.58 563.383 1086.39 564.395 1086.66 564.834C1086.93 565.273 1086.71 565.632 1086.16 565.632C1085.62 565.632 1084.87 566.591 1084.49 567.764C1083.96 569.439 1083.63 569.6 1082.94 568.514C1082.28 567.476 1082.06 567.671 1082.05 569.298C1082.04 570.49 1081.47 571.671 1080.79 571.922C1080.01 572.207 1080.95 573.662 1083.29 575.781C1087.4 579.513 1088.15 583.064 1085.29 585.24C1083.64 586.489 1083.65 586.57 1085.49 586.6C1086.94 586.624 1087.15 586.92 1086.3 587.767C1085.45 588.615 1085.54 589.284 1086.66 590.403C1087.78 591.523 1088.45 591.615 1089.3 590.767C1090.86 589.204 1093.89 589.344 1095.61 591.06C1097.37 592.819 1097.42 594.347 1095.79 596.168C1091.96 600.429 1091.87 600.632 1093.48 601.248C1094.33 601.575 1094.78 602.244 1094.47 602.737C1094.17 603.229 1094.62 603.632 1095.48 603.632C1096.59 603.632 1097.07 604.703 1097.15 607.382C1097.27 611.055 1097.29 611.07 1097.96 608.132C1098.56 605.487 1098.71 605.774 1099.21 610.55C1099.59 614.154 1100.38 616.413 1101.6 617.3C1102.6 618.032 1102.99 618.66 1102.48 618.695C1101.96 618.73 1102.56 619.169 1103.81 619.67C1105.22 620.238 1106.31 621.753 1106.7 623.688C1107.16 625.99 1107.56 626.449 1108.26 625.462C1108.94 624.515 1109.07 624.78 1108.72 626.382C1108.44 627.619 1108.63 628.688 1109.13 628.757C1113.86 629.409 1120.01 633.374 1120.07 635.81C1120.11 637.647 1122.59 640.742 1123.38 639.949C1123.74 639.591 1124.04 639.786 1124.04 640.382C1124.04 640.977 1123.47 641.692 1122.79 641.969C1122.04 642.271 1122.24 642.506 1123.29 642.553C1124.25 642.596 1125.04 642.997 1125.04 643.443C1125.04 643.889 1125.85 645.127 1126.84 646.193C1127.83 647.259 1128.94 648.919 1129.3 649.882C1129.67 650.844 1130.46 651.632 1131.06 651.632C1131.66 651.632 1131.88 651.182 1131.54 650.632C1130.52 648.994 1141.95 649.4 1143.61 651.06C1145.48 652.931 1145.51 652.826 1142.05 656.746C1140.41 658.608 1139.06 660.439 1139.05 660.814C1139.04 661.19 1138.14 661.783 1137.04 662.132C1134.46 662.949 1134.47 664.67 1137.05 665.345C1139.45 665.974 1140.23 668.572 1139.83 674.633C1139.54 678.988 1139.63 679.139 1142.54 679.359C1144.97 679.543 1145.16 679.427 1143.54 678.752C1141.87 678.057 1142.14 677.847 1145.21 677.485C1149.04 677.033 1152.24 677.699 1152.11 678.921C1152.07 679.312 1152.07 680.419 1152.11 681.382C1152.17 682.878 1152.3 682.842 1153.04 681.132C1153.76 679.461 1153.91 679.672 1153.97 682.413C1154.05 685.983 1156.62 687.909 1158.12 685.527C1158.86 684.359 1159.01 684.376 1159.04 685.632C1159.06 686.855 1159.23 686.882 1159.93 685.775C1160.92 684.211 1164.22 684.958 1166.53 687.269C1167.36 688.097 1168.04 688.292 1168.04 687.703C1168.04 687.071 1170.29 686.632 1173.54 686.632C1178.55 686.632 1179.05 686.831 1179.12 688.882C1179.16 690.119 1179.42 690.569 1179.7 689.882C1180.63 687.57 1187.47 688.396 1190.04 691.132C1191.39 692.567 1193.51 693.632 1195.01 693.632C1196.46 693.632 1198.18 694.168 1198.83 694.823C1199.52 695.51 1202.13 695.903 1205.01 695.75C1209.79 695.496 1214.88 697.457 1213.37 698.971C1213 699.334 1213.15 699.632 1213.69 699.632C1214.22 699.632 1215.28 701.186 1216.02 703.086C1216.77 704.986 1217.68 706.352 1218.06 706.12C1218.43 705.889 1219.56 708.134 1220.58 711.109C1221.59 714.084 1222.74 716.314 1223.15 716.066C1223.55 715.817 1224.16 716.892 1224.5 718.453C1224.95 720.48 1226.1 721.673 1228.53 722.627C1230.4 723.361 1231.9 724.225 1231.87 724.547C1231.52 727.783 1232.26 732.632 1233.11 732.632C1234.53 732.632 1237.04 735.189 1237.04 736.632C1237.04 737.26 1236.48 738.368 1235.79 739.092C1235.1 739.817 1233.69 741.585 1232.65 743.021C1231.61 744.457 1230.12 745.632 1229.34 745.632C1228.56 745.632 1228.18 746.043 1228.49 746.546C1228.8 747.049 1228.54 747.631 1227.92 747.839C1226.59 748.28 1224.95 757.632 1226.2 757.632C1227.49 757.632 1227.2 764.892 1225.79 767.924C1225.1 769.405 1223.98 770.62 1223.29 770.624C1222.6 770.628 1222.04 771.102 1222.04 771.677C1222.04 772.252 1220.91 773.848 1219.54 775.223C1218.16 776.598 1217.04 777.252 1217.04 776.677C1217.04 776.102 1215.46 775.632 1213.54 775.632C1210.88 775.632 1210.04 775.212 1210.02 773.882C1210.01 772.414 1209.86 772.369 1209.08 773.603C1208.57 774.412 1207.83 774.756 1207.44 774.368C1207.05 773.98 1206.14 774.443 1205.42 775.397C1203.68 777.69 1203.71 778.632 1205.54 778.632C1206.36 778.632 1207.04 779.013 1207.04 779.48C1207.04 779.946 1208.83 781.134 1211.01 782.119C1213.2 783.105 1214.75 784.298 1214.45 784.771C1214.16 785.244 1214.62 785.632 1215.48 785.632C1216.37 785.632 1217.04 786.487 1217.04 787.632C1217.04 788.732 1216.7 789.632 1216.29 789.632C1215.88 789.632 1215.54 790.757 1215.54 792.132C1215.54 793.507 1215.88 794.632 1216.29 794.632C1217.65 794.632 1217.07 802.743 1215.61 804.203C1214.82 804.989 1212.86 805.632 1211.23 805.632C1209.61 805.632 1207.72 806.307 1207.04 807.132C1205.97 808.415 1206.29 808.632 1209.22 808.632C1211.1 808.632 1213.2 809.19 1213.88 809.873C1214.87 810.862 1215.32 810.811 1216.08 809.623C1216.9 808.341 1217.17 808.332 1217.96 809.557C1218.69 810.701 1219.41 810.345 1221.59 807.752C1223.26 805.765 1224.88 804.742 1225.8 805.094C1226.62 805.409 1227.91 805.151 1228.67 804.521C1229.74 803.632 1230.94 803.964 1234.02 806.003C1236.21 807.449 1239.39 808.632 1241.09 808.632C1244.69 808.632 1247.04 810.599 1247.04 813.619C1247.04 814.791 1247.49 815.472 1248.04 815.132C1248.59 814.792 1249.11 815.328 1249.19 816.323C1249.28 817.318 1249.45 818.582 1249.58 819.132C1249.7 819.682 1249.86 820.654 1249.92 821.293C1250.07 822.718 1252.63 822.438 1254.25 820.821C1255.89 819.183 1257.99 819.33 1258.68 821.132C1258.99 821.957 1259.88 822.632 1260.65 822.632C1261.42 822.632 1262.05 823.632 1262.05 824.882C1262.07 826.506 1262.31 826.758 1262.92 825.79C1264.21 823.75 1264.99 829.191 1264.25 835.132C1263.68 839.704 1263.57 839.875 1262.95 837.132C1262.29 834.199 1262.27 834.216 1262.16 837.882C1262.02 842.118 1262.25 843.228 1263.19 842.915C1263.86 842.692 1265.5 847.543 1265.2 848.882C1265.11 849.294 1265.49 849.632 1266.04 849.632C1266.59 849.632 1267.05 851.319 1267.05 853.382C1267.07 856.171 1267.32 856.747 1268.04 855.632C1268.86 854.356 1269.01 854.398 1269.02 855.917C1269.03 856.899 1269.77 858.821 1270.67 860.188C1272.19 862.514 1272.18 862.785 1270.42 864.403C1268.23 866.417 1267.81 873.667 1269.81 874.943C1270.51 875.389 1270.82 876.177 1270.5 876.693C1270.18 877.209 1270.4 877.632 1270.98 877.632C1271.56 877.632 1272.05 878.869 1272.05 880.382C1272.07 882.525 1272.28 882.801 1273.04 881.632C1273.69 880.632 1274.01 880.548 1274.02 881.382C1274.03 882.069 1274.97 882.632 1276.1 882.632C1277.23 882.632 1277.91 883.034 1277.6 883.527C1277.3 884.019 1277.72 884.68 1278.54 884.995C1279.37 885.311 1280.04 886.483 1280.04 887.6C1280.04 888.718 1280.6 889.519 1281.29 889.382C1281.98 889.244 1282.43 889.694 1282.29 890.382C1282.15 891.069 1282.74 891.632 1283.6 891.632C1284.46 891.632 1284.88 892.082 1284.54 892.632C1284.2 893.182 1284.62 893.632 1285.48 893.632C1286.51 893.632 1287.04 894.564 1287.05 896.382C1287.07 898.525 1287.28 898.801 1288.04 897.632C1288.85 896.381 1289.03 896.464 1289.14 898.132C1289.22 899.232 1289.18 900.782 1289.07 901.578C1288.9 902.752 1289.14 902.79 1290.36 901.779C1291.38 900.937 1292.07 900.874 1292.51 901.583C1292.87 902.16 1293.85 902.632 1294.69 902.632C1297.64 902.632 1302.04 907.898 1302.04 911.437C1302.04 913.259 1302.44 914.503 1302.92 914.202C1303.41 913.901 1304.05 914.662 1304.34 915.893C1305.67 921.463 1307.94 925.999 1309.51 926.23C1311.96 926.59 1314.99 929.596 1314.41 931.097C1313.86 932.529 1316.55 935.623 1318.36 935.647C1319.05 935.657 1318.92 936.063 1318.04 936.632C1317.1 937.237 1316.99 937.607 1317.75 937.616C1318.42 937.626 1320.78 939.467 1323 941.711C1325.83 944.573 1327.04 946.647 1327.04 948.661C1327.04 950.24 1327.6 951.892 1328.29 952.332C1331.55 954.421 1333.7 964.632 1330.87 964.632C1330.23 964.632 1329.98 964.904 1330.31 965.238C1330.64 965.571 1329.82 966.941 1328.48 968.283C1327.14 969.625 1326.04 971.04 1326.04 971.427C1326.04 972.907 1321.23 977.632 1319.73 977.632C1318.87 977.632 1317.92 978.014 1317.63 978.482C1317.34 978.95 1313.6 979.628 1309.32 979.99C1305.04 980.351 1301.39 981.093 1301.21 981.639C1301.02 982.185 1299.9 982.638 1298.71 982.646C1296.66 982.66 1296.67 982.729 1299.04 983.919C1300.91 984.861 1301.62 986.107 1301.85 988.87C1302.13 992.257 1302.46 992.62 1305.85 993.248C1307.88 993.625 1310.22 994.712 1311.05 995.664C1311.89 996.616 1313.46 997.565 1314.55 997.773C1316.24 998.095 1316.58 999.088 1316.84 1004.39C1317.1 1009.84 1316.91 1010.63 1315.34 1010.65C1313.86 1010.66 1313.8 1010.83 1314.98 1011.58C1315.87 1012.14 1317.15 1012.11 1318.3 1011.49C1319.67 1010.76 1320.82 1010.92 1322.57 1012.06C1323.89 1012.92 1325.77 1013.6 1326.75 1013.56C1328.32 1013.5 1328.29 1013.39 1326.54 1012.63C1325.04 1011.99 1325.75 1011.75 1329.36 1011.7C1332.29 1011.66 1334.74 1012.19 1335.61 1013.06C1337.24 1014.69 1337.55 1021.2 1336.04 1022.13C1335.49 1022.47 1335.03 1023.96 1335.02 1025.44C1335.01 1028.63 1334.36 1029.68 1331.07 1031.94C1329.15 1033.25 1328.98 1033.63 1330.32 1033.63C1331.69 1033.63 1332.04 1034.54 1332.04 1038.05C1332.04 1040.65 1331.52 1042.67 1330.79 1042.97C1330.1 1043.25 1330.58 1043.51 1331.86 1043.55C1334.72 1043.65 1337.04 1045.84 1337.04 1048.45C1337.04 1049.53 1337.71 1050.68 1338.54 1050.99C1341.92 1052.29 1338.16 1058.63 1334 1058.63C1332.74 1058.63 1331.99 1058.92 1332.35 1059.27C1332.7 1059.62 1331.31 1060.81 1329.26 1061.9C1327.21 1062.99 1325.26 1064.31 1324.93 1064.84C1324.59 1065.37 1324.03 1065.76 1323.68 1065.72C1320.51 1065.29 1317.03 1065.81 1317.54 1066.63C1317.88 1067.18 1317.23 1067.63 1316.1 1067.63C1314.97 1067.63 1314.04 1068.13 1314.04 1068.75C1314.04 1069.37 1313.16 1069.63 1312.04 1069.34C1309.88 1068.78 1309.22 1070.17 1311.29 1070.92C1312.26 1071.27 1312.22 1071.9 1311.1 1073.75C1309.17 1076.95 1308.88 1084.63 1310.69 1084.63C1312.51 1084.63 1312.45 1090.36 1310.61 1092.2C1308.95 1093.87 1305.04 1094.12 1305.04 1092.57C1305.04 1091.99 1304.62 1091.77 1304.11 1092.09C1303.6 1092.4 1302.99 1091.64 1302.75 1090.4C1302.37 1088.44 1302.29 1088.5 1302.18 1090.88C1302.1 1092.39 1301.59 1093.63 1301.04 1093.63C1300.49 1093.63 1300.04 1094.24 1300.04 1094.98C1300.04 1096.74 1296.64 1100.63 1295.1 1100.63C1294.44 1100.63 1293.22 1099.96 1292.4 1099.13C1291.57 1098.31 1289.47 1097.58 1287.72 1097.51L1284.54 1097.4L1287.54 1096.63L1290.54 1095.87L1287.54 1095.63C1285.89 1095.5 1283.97 1095.47 1283.28 1095.56C1282.59 1095.65 1280.92 1094.47 1279.56 1092.93C1278.21 1091.39 1277.09 1090.72 1277.07 1091.44C1277.05 1092.16 1276.59 1092.47 1276.04 1092.13C1275.49 1091.79 1275.04 1092.02 1275.04 1092.63C1275.04 1093.25 1274.59 1093.47 1274.04 1093.13C1273.49 1092.79 1273.04 1093.22 1273.04 1094.07C1273.04 1094.98 1272.18 1095.63 1270.98 1095.63C1269.85 1095.63 1269.2 1096.08 1269.54 1096.63C1269.88 1097.18 1269.46 1097.63 1268.6 1097.63C1267.74 1097.63 1267.04 1098.3 1267.04 1099.12C1267.04 1101.36 1271.13 1105.63 1273.28 1105.63C1274.31 1105.63 1274.9 1106.05 1274.59 1106.55C1274.28 1107.06 1275.38 1107.77 1277.04 1108.13C1278.7 1108.5 1279.8 1109.21 1279.49 1109.71C1279.18 1110.22 1279.62 1110.63 1280.48 1110.63C1281.82 1110.63 1282.04 1112.57 1282.04 1124.13C1282.04 1135.69 1281.82 1137.63 1280.48 1137.63C1279.62 1137.63 1279.19 1138.06 1279.51 1138.59C1280.22 1139.73 1274.31 1145.63 1272.47 1145.63C1271.78 1145.63 1270.98 1145.07 1270.7 1144.38C1270.4 1143.64 1270.17 1143.84 1270.12 1144.88C1270.04 1146.53 1266.66 1147.3 1262.19 1146.68C1261.45 1146.58 1261.14 1146.98 1261.5 1147.57C1261.86 1148.15 1261.72 1148.63 1261.19 1148.63C1260.65 1148.63 1260.45 1149.87 1260.74 1151.38C1261.03 1152.89 1261.47 1157.62 1261.73 1161.88C1262.15 1168.89 1262.02 1169.63 1260.37 1169.65C1258.95 1169.66 1258.85 1169.86 1259.9 1170.53C1260.76 1171.07 1260.87 1171.53 1260.18 1171.76C1259.55 1171.98 1259.45 1172.68 1259.93 1173.47C1260.43 1174.27 1262.61 1174.8 1265.4 1174.8C1267.95 1174.8 1270.04 1175.21 1270.04 1175.72C1270.04 1176.22 1270.6 1176.65 1271.29 1176.67C1271.98 1176.68 1273.55 1177.54 1274.79 1178.58C1276.64 1180.12 1277.04 1181.47 1277.04 1186.14C1277.04 1190.98 1276.74 1191.9 1275.04 1192.34C1273.94 1192.63 1273.04 1193.35 1273.04 1193.94C1273.04 1194.53 1272.38 1194.14 1271.57 1193.07C1270.24 1191.32 1270.1 1191.3 1270.07 1192.88C1270.04 1194.41 1268.95 1194.63 1261.48 1194.63C1256.03 1194.63 1253.15 1194.27 1253.54 1193.63C1253.88 1193.08 1253.68 1192.63 1253.1 1192.63C1252.52 1192.63 1252.04 1193.72 1252.04 1195.05C1252.04 1196.38 1251.48 1197.69 1250.79 1197.97C1249.88 1198.34 1249.85 1198.71 1250.66 1199.31C1252.59 1200.72 1251.82 1210.88 1249.64 1212.88C1248.59 1213.84 1248.04 1214.63 1248.42 1214.63C1248.8 1214.63 1248.08 1215.7 1246.82 1217C1245.57 1218.3 1244.25 1219.21 1243.89 1219.01C1243.54 1218.81 1242.98 1219.34 1242.65 1220.2C1242.32 1221.06 1241.6 1221.48 1241.05 1221.14C1240.49 1220.79 1240.04 1220.99 1240.04 1221.57C1240.04 1222.16 1238.24 1222.63 1236.04 1222.63C1233.84 1222.63 1232.04 1223.08 1232.04 1223.63C1232.04 1224.18 1231.14 1224.63 1230.04 1224.63C1228.94 1224.63 1228.04 1224.18 1228.04 1223.63C1228.04 1223.08 1226.33 1222.63 1224.24 1222.63C1222.15 1222.63 1219.9 1222.09 1219.24 1221.43C1218.31 1220.5 1218.04 1220.5 1218.04 1221.43C1218.04 1222.13 1216.63 1222.63 1214.68 1222.63C1211.63 1222.63 1211.36 1222.87 1211.79 1225.13C1212.07 1226.59 1211.81 1227.63 1211.16 1227.63C1210.54 1227.63 1210.09 1227.97 1210.16 1228.38C1210.49 1230.47 1209.76 1231.88 1206.79 1234.94C1204.95 1236.83 1203.69 1239.07 1203.89 1240.08C1204.08 1241.06 1203.79 1241.6 1203.26 1241.27C1202.72 1240.94 1202.03 1241.95 1201.71 1243.53C1201.4 1245.1 1200.46 1247.07 1199.64 1247.89C1198.81 1248.72 1198.34 1249.6 1198.59 1249.85C1198.83 1250.09 1197.91 1250.9 1196.54 1251.63C1195.16 1252.37 1194.04 1253.6 1194.04 1254.36C1194.04 1255.12 1193.59 1255.47 1193.04 1255.13C1192.49 1254.79 1192.04 1255.37 1192.04 1256.42C1192.04 1258.5 1189.11 1261.63 1187.15 1261.63C1186.47 1261.63 1186.2 1262.08 1186.54 1262.63C1186.88 1263.18 1186.46 1263.63 1185.6 1263.63C1184.74 1263.63 1184.04 1264.13 1184.04 1264.74C1184.04 1265.35 1183.44 1265.62 1182.72 1265.34C1181.99 1265.06 1180.82 1265.75 1180.12 1266.88C1179.08 1268.54 1178.67 1268.66 1177.95 1267.53C1177.29 1266.48 1177.07 1266.69 1177.05 1268.38C1177.04 1269.64 1176.49 1270.52 1175.79 1270.38C1175.1 1270.24 1174.65 1270.69 1174.79 1271.38C1174.95 1272.16 1173.89 1272.63 1171.98 1272.63C1170.2 1272.63 1169.18 1272.22 1169.54 1271.63C1169.91 1271.03 1168.49 1270.63 1165.93 1270.63C1163.61 1270.63 1161.99 1270.92 1162.35 1271.27C1163.13 1272.05 1156.67 1275.63 1154.48 1275.63C1153.62 1275.63 1153.21 1276.1 1153.57 1276.68C1154 1277.38 1151.63 1277.62 1146.38 1277.43L1138.54 1277.13L1138.43 1272.89C1138.37 1270.55 1138.91 1267.51 1139.62 1266.14C1140.72 1264.02 1140.7 1263.63 1139.48 1263.63C1138.69 1263.63 1138.04 1262.73 1138.04 1261.63C1138.04 1260.53 1137.56 1259.63 1136.98 1259.63C1136.4 1259.63 1136.26 1260.19 1136.67 1260.88C1137.25 1261.84 1137.09 1261.87 1135.98 1261C1135.19 1260.37 1132.59 1259.54 1130.22 1259.15C1126.01 1258.45 1125.93 1258.49 1127.21 1260.53C1127.93 1261.69 1128.86 1262.63 1129.28 1262.63C1129.7 1262.63 1130.04 1263.53 1130.04 1264.63C1130.04 1265.73 1129.56 1266.63 1128.98 1266.63C1128.4 1266.63 1128.2 1267.08 1128.54 1267.63C1128.88 1268.18 1128.68 1268.63 1128.1 1268.63C1127.41 1268.63 1127.04 1272.71 1127.04 1280.13C1127.04 1286.88 1126.64 1291.63 1126.07 1291.63C1125.54 1291.63 1125.34 1292.25 1125.63 1293C1125.92 1293.76 1125.42 1295.11 1124.53 1296C1123.63 1296.9 1123.17 1297.63 1123.51 1297.63C1123.84 1297.63 1123.18 1298.64 1122.03 1299.87C1120.89 1301.1 1120.42 1302.26 1121 1302.45C1122.6 1302.99 1122.23 1308.58 1120.48 1310.33C1119.58 1311.23 1119.21 1312.58 1119.6 1313.51C1119.97 1314.4 1120.3 1315.69 1120.33 1316.38C1120.35 1317.15 1121.81 1317.63 1124.08 1317.63C1126.12 1317.63 1128.34 1318.29 1129 1319.09C1129.93 1320.21 1130.62 1320.29 1131.99 1319.43C1134.88 1317.63 1137.04 1319.14 1137.04 1322.98C1137.04 1324.85 1137.71 1326.95 1138.54 1327.63C1139.36 1328.32 1140.04 1330.09 1140.04 1331.57C1140.04 1333.23 1141.04 1335.14 1142.62 1336.52C1144.17 1337.86 1144.97 1339.37 1144.62 1340.28C1144.3 1341.11 1144.01 1342.77 1143.97 1343.96C1143.9 1346.06 1143.87 1346.07 1143.04 1344.13C1142.45 1342.75 1142.19 1344.14 1142.21 1348.63C1142.23 1353.33 1142.46 1354.44 1143.04 1352.63C1143.66 1350.7 1143.86 1350.57 1143.94 1352.04C1144.03 1353.83 1144.15 1353.84 1145.9 1352.26C1148.24 1350.14 1154.89 1349.79 1156.11 1351.72C1156.61 1352.5 1157.06 1354.26 1157.12 1355.63L1157.24 1358.13L1158.04 1355.63C1158.8 1353.26 1158.85 1353.3 1158.94 1356.38C1159.02 1358.93 1159.47 1359.63 1161.03 1359.63C1163.95 1359.63 1167.04 1362.71 1167.04 1365.61C1167.04 1367.51 1167.85 1368.5 1170.29 1369.56C1172.08 1370.34 1173.87 1371.46 1174.27 1372.05C1175.34 1373.62 1175.21 1393.63 1174.13 1393.63C1173.63 1393.63 1173.45 1394.64 1173.72 1395.88C1174.12 1397.69 1174 1397.84 1173.14 1396.63C1172.25 1395.39 1172.07 1395.51 1172.05 1397.38C1172.04 1398.62 1171.18 1400.49 1170.12 1401.55C1169.07 1402.6 1168.47 1403.73 1168.79 1404.05C1169.11 1404.37 1168.66 1404.63 1167.79 1404.63C1166.92 1404.63 1165.62 1405.95 1164.91 1407.56C1164.2 1409.17 1163.26 1410.27 1162.83 1410C1162.39 1409.73 1162.04 1409.99 1162.04 1410.57C1162.04 1411.16 1161.25 1411.67 1160.29 1411.71C1159.33 1411.75 1159.06 1412 1159.71 1412.27C1160.42 1412.56 1159.46 1414.29 1157.25 1416.69C1152.17 1422.21 1147.52 1421.87 1145.6 1415.84C1144.9 1413.63 1142.04 1412.71 1142.04 1414.69C1142.04 1415.27 1141.59 1415.47 1141.04 1415.13C1140.49 1414.79 1140.04 1414.99 1140.04 1415.57C1140.04 1416.16 1139.25 1416.68 1138.29 1416.73C1137.19 1416.8 1137.47 1417.09 1139.04 1417.52C1141.29 1418.15 1141.57 1418.8 1141.84 1424.02C1142.05 1427.91 1141.8 1429.6 1141.08 1429.16C1140.5 1428.8 1139.76 1429.21 1139.43 1430.07C1139.1 1430.93 1138.17 1431.63 1137.36 1431.63C1135.72 1431.63 1133.04 1429.28 1133.04 1427.84C1133.04 1426.06 1127.7 1427.94 1124.75 1430.76C1123.12 1432.32 1121.39 1433.35 1120.91 1433.05C1119.97 1432.47 1119.71 1433.78 1120.01 1437.48C1120.23 1440.14 1117.02 1443.62 1114.33 1443.65C1112.81 1443.66 1112.76 1443.81 1114.04 1444.63C1115.11 1445.32 1113.81 1445.64 1109.54 1445.74C1106.24 1445.81 1103.2 1445.82 1102.79 1445.75C1102.38 1445.69 1102.04 1447.21 1102.04 1449.13C1102.04 1451.3 1101.28 1453.39 1100.04 1454.63C1098.94 1455.73 1098.3 1456.63 1098.61 1456.63C1098.92 1456.63 1098.59 1457.25 1097.86 1458C1097.13 1458.75 1095.56 1460.44 1094.36 1461.75C1091.75 1464.6 1088.79 1467.13 1088.06 1467.13C1087.78 1467.13 1087.65 1467.47 1087.79 1467.88C1087.93 1468.29 1087.14 1468.63 1086.04 1468.63C1084.94 1468.63 1084.04 1469.07 1084.04 1469.61C1084.04 1470.15 1082.87 1470.89 1081.45 1471.24C1079.03 1471.85 1078.9 1472.19 1079.48 1476.07C1079.97 1479.35 1079.7 1480.72 1078.22 1482.42C1077.18 1483.62 1076.04 1484.3 1075.69 1483.95C1075.33 1483.59 1075.04 1484 1075.04 1484.86C1075.04 1485.71 1073.91 1486.7 1072.54 1487.04C1071.16 1487.39 1070.04 1488.11 1070.04 1488.65C1070.04 1489.19 1068.89 1489.63 1067.48 1489.63C1065.78 1489.63 1065.16 1490.03 1065.64 1490.8C1066.13 1491.59 1065.82 1491.76 1064.7 1491.33C1063.79 1490.98 1063.04 1491.08 1063.04 1491.54C1063.04 1492.01 1061.69 1492.95 1060.04 1493.63C1058.39 1494.32 1057.04 1495.3 1057.04 1495.83C1057.04 1496.35 1054.9 1496.67 1052.29 1496.53C1048.82 1496.35 1047.62 1496.63 1047.83 1497.58C1048.01 1498.38 1047.53 1498.65 1046.58 1498.29C1045.66 1497.93 1045.04 1498.24 1045.04 1499.06C1045.04 1500.28 1040.65 1502.2 1038.79 1501.8C1038.38 1501.71 1038.04 1502.1 1038.04 1502.68C1038.04 1503.25 1037.25 1503.59 1036.29 1503.43C1035.31 1503.26 1034.65 1503.68 1034.79 1504.38C1034.93 1505.07 1034.7 1505.52 1034.29 1505.38C1033.88 1505.24 1033.33 1505.58 1033.08 1506.13C1032.42 1507.59 1027.98 1509.71 1026.94 1509.07C1026.44 1508.76 1026.04 1508.99 1026.04 1509.57C1026.04 1510.16 1025.36 1510.63 1024.54 1510.63C1023.71 1510.63 1023.04 1511.08 1023.04 1511.63C1023.04 1512.18 1022.14 1512.63 1021.04 1512.63C1019.94 1512.63 1019.04 1512.97 1019.04 1513.39C1019.04 1513.8 1017.65 1514.76 1015.95 1515.51C1013.43 1516.63 1012.43 1516.64 1010.49 1515.6C1008.56 1514.57 1007.81 1514.57 1006.58 1515.6C1005.74 1516.3 1004.15 1516.64 1003.04 1516.35C1001.94 1516.06 1001.04 1516.23 1001.04 1516.73C1001.04 1517.23 999.914 1517.64 998.539 1517.64C997.164 1517.64 996.039 1518.09 996.039 1518.64C996.039 1519.19 995.139 1519.64 994.039 1519.64C992.939 1519.64 992.039 1520.09 992.039 1520.64C992.039 1521.19 991.364 1521.64 990.539 1521.64C989.714 1521.64 989.039 1522.14 989.039 1522.75C989.039 1523.42 987.844 1523.69 986.064 1523.43C984.427 1523.19 982.95 1523.4 982.781 1523.91C982.612 1524.42 979.078 1524.82 974.927 1524.8C968.598 1524.78 967.157 1525.09 965.989 1526.71C965.224 1527.77 963.996 1528.64 963.259 1528.64C962.523 1528.64 962.15 1529.01 962.43 1529.46C962.71 1529.91 959.361 1531.09 954.989 1532.09C950.617 1533.08 947.039 1534.28 947.039 1534.76C947.039 1535.24 945.663 1535.64 943.98 1535.64C942.196 1535.64 941.179 1536.05 941.539 1536.64C941.899 1537.22 940.903 1537.64 939.157 1537.64C937.507 1537.64 935.875 1538.09 935.529 1538.65C935.184 1539.21 934.482 1539.41 933.97 1539.09C933.458 1538.78 933.039 1538.99 933.039 1539.58C933.039 1540.16 931.464 1540.64 929.539 1540.64C927.614 1540.64 926.039 1541.09 926.039 1541.64C926.039 1543.09 921.288 1542.86 920.757 1541.39C920.452 1540.54 919.672 1540.85 918.322 1542.37C917.23 1543.6 916.044 1544.31 915.688 1543.95C915.331 1543.59 915.039 1544.08 915.039 1545.03C915.039 1545.98 914.589 1546.48 914.039 1546.14C913.489 1545.8 913.039 1545.99 913.039 1546.58C913.039 1547.16 912.364 1547.64 911.539 1547.64C910.714 1547.64 910.039 1548.04 910.039 1548.53C910.039 1549.02 908.914 1549.7 907.539 1550.05C906.164 1550.39 905.039 1551.24 905.039 1551.93C905.039 1553.66 901.404 1556.63 899.278 1556.65C897.79 1556.66 897.755 1556.81 899.039 1557.64C900.252 1558.42 900.109 1558.61 898.289 1558.62C897.052 1558.63 896.039 1558.98 896.039 1559.4C896.039 1559.81 895.079 1560.75 893.905 1561.49C892.125 1562.6 891.63 1562.6 890.921 1561.48C890.265 1560.44 890.066 1560.54 890.055 1561.89C890.043 1563.22 889.2 1563.64 886.539 1563.64C884.614 1563.64 883.039 1564.11 883.039 1564.69C883.039 1565.37 879.549 1565.71 873.289 1565.63C859.957 1565.47 860.199 1565.45 862.039 1566.64C863.266 1567.43 863.152 1567.61 861.412 1567.62C860.242 1567.63 858.724 1568.31 858.039 1569.14C857.275 1570.06 855.081 1570.64 852.358 1570.64C849.655 1570.64 848.163 1571.03 848.539 1571.64C848.9 1572.22 847.883 1572.64 846.098 1572.64C844.416 1572.64 843.039 1572.23 843.039 1571.74C843.039 1571.25 841.239 1570.67 839.039 1570.46C836.263 1570.2 835.039 1570.47 835.039 1571.36C835.039 1572.23 833.396 1572.64 829.873 1572.64C827.031 1572.64 824.984 1572.91 825.325 1573.25C826.909 1574.84 818.994 1579.22 816.367 1578.21C815.637 1577.93 815.039 1578.17 815.039 1578.74C815.039 1579.35 812.699 1579.71 809.289 1579.62C806.127 1579.54 802.639 1579.54 801.539 1579.62C799.539 1579.78 799.539 1579.78 801.539 1580.7C803.065 1581.41 802.531 1581.57 799.289 1581.36C796.274 1581.16 795.039 1581.47 795.039 1582.42C795.039 1583.15 794.636 1583.5 794.144 1583.2C793.652 1582.9 792.98 1583.35 792.651 1584.2C792.322 1585.06 791.6 1585.48 791.046 1585.14C790.492 1584.8 790.039 1585.04 790.039 1585.69C790.039 1586.43 788.775 1586.71 786.539 1586.45C784.268 1586.18 783.039 1586.46 783.039 1587.23C783.039 1588.05 780.37 1588.46 774.472 1588.54C768.91 1588.62 766.124 1588.31 766.531 1587.65L766.527 1587.65ZM612.285 1543.94C613.248 1543.69 614.823 1543.69 615.785 1543.94C616.748 1544.19 615.96 1544.4 614.035 1544.4C612.11 1544.4 611.323 1544.19 612.285 1543.94ZM500.848 1536.95C501.57 1536.66 502.432 1536.7 502.765 1537.03C503.097 1537.36 502.506 1537.6 501.452 1537.55C500.287 1537.5 500.05 1537.27 500.848 1536.95ZM386.69 1477.8C385.78 1476.8 385.035 1474.99 385.035 1473.79C385.035 1472.59 384.493 1470.74 383.83 1469.67C382.845 1468.1 382.938 1467.4 384.332 1465.86C385.271 1464.82 385.739 1463.67 385.371 1463.3C385.003 1462.93 385.254 1462.63 385.928 1462.63C386.602 1462.63 386.875 1462.18 386.535 1461.63C385.514 1459.98 390.638 1460.5 393.948 1462.38C396.767 1463.99 397.023 1464.57 397.029 1469.38C397.032 1472.27 396.585 1474.63 396.035 1474.63C395.485 1474.63 395.035 1475.33 395.035 1476.19C395.035 1477.05 394.633 1477.5 394.14 1477.2C393.648 1476.89 392.987 1477.32 392.672 1478.14C391.883 1480.19 388.691 1480.01 386.69 1477.8ZM343.304 1467.94C344.277 1467.69 345.627 1467.7 346.304 1467.98C346.982 1468.25 346.185 1468.46 344.535 1468.44C342.885 1468.42 342.332 1468.19 343.304 1467.94ZM1143.29 1423.13C1143.3 1420.93 1143.5 1420.15 1143.74 1421.39C1143.98 1422.64 1143.97 1424.44 1143.72 1425.39C1143.47 1426.35 1143.28 1425.33 1143.29 1423.13ZM385.785 1405.93C387.023 1405.69 389.048 1405.69 390.285 1405.93C391.523 1406.16 390.51 1406.36 388.035 1406.36C385.56 1406.36 384.548 1406.16 385.785 1405.93ZM397.848 1384.95C398.57 1384.66 399.432 1384.7 399.765 1385.03C400.097 1385.36 399.506 1385.6 398.452 1385.55C397.287 1385.5 397.05 1385.27 397.848 1384.95ZM394.6 1381.42C392.726 1378.74 392.537 1373.76 394.285 1373.09C395.178 1372.75 395.444 1370.38 395.215 1364.8C394.962 1358.64 395.226 1356.72 396.465 1355.69C397.329 1354.97 398.035 1353.94 398.035 1353.39C398.035 1351.96 405.174 1345.63 406.79 1345.63C407.54 1345.63 407.889 1345.2 407.567 1344.68C407.244 1344.16 408.567 1343.43 410.508 1343.07C414.226 1342.37 420.956 1343.23 421.149 1344.43C421.827 1348.61 421.771 1351.02 420.972 1351.98C420.445 1352.61 418.676 1354.71 417.041 1356.63C415.405 1358.56 414.06 1360.5 414.051 1360.94C414.042 1361.39 413.585 1361.47 413.035 1361.13C412.485 1360.79 412.035 1361.35 412.035 1362.38C412.035 1363.41 411.375 1365.12 410.567 1366.19C409.76 1367.26 409.053 1369.26 408.997 1370.63C408.903 1372.93 408.825 1372.97 408.035 1371.13C407.274 1369.36 407.168 1369.44 407.106 1371.88C407.067 1373.39 406.559 1374.63 405.976 1374.63C405.394 1374.63 405.196 1375.08 405.535 1375.63C405.875 1376.18 405.677 1376.63 405.094 1376.63C404.512 1376.63 404.004 1377.87 403.965 1379.38C403.903 1381.82 403.797 1381.9 403.035 1380.13C402.176 1378.13 402.176 1378.13 401.987 1380.13C401.884 1381.23 401.821 1382.38 401.848 1382.67C401.875 1382.97 400.607 1383.31 399.031 1383.44C397.035 1383.59 395.689 1382.97 394.6 1381.42ZM1177.29 1370.14C1176.6 1369.35 1176.04 1368.23 1176.04 1367.64C1176.04 1367.05 1175.42 1366.33 1174.66 1366.04C1172.46 1365.2 1172.94 1357.56 1175.35 1354.88C1179.99 1349.74 1192.04 1354.27 1192.04 1361.15C1192.04 1363.45 1191.03 1365.14 1188 1367.92C1183.72 1371.86 1179.56 1372.72 1177.29 1370.14ZM1193.11 1360.05C1193.16 1358.88 1193.4 1358.65 1193.72 1359.44C1194.01 1360.17 1193.97 1361.03 1193.64 1361.36C1193.31 1361.69 1193.07 1361.1 1193.11 1360.05ZM1138.19 1323.63C1138.19 1322.26 1138.42 1321.69 1138.7 1322.38C1138.98 1323.07 1138.98 1324.19 1138.7 1324.88C1138.42 1325.57 1138.19 1325.01 1138.19 1323.63ZM1288.04 1281.07C1288.04 1280.22 1287.62 1279.77 1287.11 1280.09C1285.93 1280.82 1284.8 1277.4 1285.57 1275.41C1285.88 1274.59 1287.2 1273.35 1288.49 1272.66C1290.47 1271.6 1291.32 1271.69 1293.94 1273.23C1297.61 1275.4 1297.79 1276.75 1294.86 1280.12C1292.41 1282.94 1288.04 1283.54 1288.04 1281.07ZM1142.79 1278.91C1144.57 1278.69 1147.5 1278.69 1149.29 1278.91C1151.07 1279.13 1149.61 1279.31 1146.04 1279.31C1142.46 1279.31 1141 1279.13 1142.79 1278.91ZM1278.31 1185.63C1278.31 1183.16 1278.5 1182.14 1278.74 1183.38C1278.98 1184.62 1278.98 1186.64 1278.74 1187.88C1278.5 1189.12 1278.31 1188.11 1278.31 1185.63ZM1263.19 1165.63C1263.19 1164.26 1263.42 1163.69 1263.7 1164.38C1263.98 1165.07 1263.98 1166.19 1263.7 1166.88C1263.42 1167.57 1263.19 1167.01 1263.19 1165.63ZM1313.11 1088.05C1313.16 1086.88 1313.4 1086.65 1313.72 1087.44C1314.01 1088.17 1313.97 1089.03 1313.64 1089.36C1313.31 1089.69 1313.07 1089.1 1313.11 1088.05ZM1320.85 1066.95C1321.57 1066.66 1322.43 1066.7 1322.76 1067.03C1323.1 1067.36 1322.51 1067.6 1321.45 1067.55C1320.29 1067.5 1320.05 1067.27 1320.85 1066.95ZM1318.19 1002.63C1318.19 1001.26 1318.42 1000.69 1318.7 1001.38C1318.98 1002.07 1318.98 1003.19 1318.7 1003.88C1318.42 1004.57 1318.19 1004.01 1318.19 1002.63ZM1303.19 989.632C1303.19 988.257 1303.42 987.694 1303.7 988.382C1303.98 989.069 1303.98 990.194 1303.7 990.882C1303.42 991.569 1303.19 991.007 1303.19 989.632ZM1328.23 949.132C1328.25 947.482 1328.47 946.928 1328.73 947.901C1328.98 948.874 1328.97 950.224 1328.69 950.901C1328.42 951.578 1328.21 950.782 1328.23 949.132ZM1218.11 800.048C1218.16 798.883 1218.4 798.646 1218.72 799.444C1219.01 800.166 1218.97 801.029 1218.64 801.361C1218.31 801.693 1218.07 801.102 1218.11 800.048ZM1228.27 762.632C1228.27 760.707 1228.47 759.919 1228.72 760.882C1228.98 761.844 1228.98 763.419 1228.72 764.382C1228.47 765.344 1228.27 764.557 1228.27 762.632ZM1095.3 566.939C1096.28 566.685 1097.63 566.702 1098.3 566.976C1098.98 567.25 1098.19 567.457 1096.54 567.437C1094.89 567.416 1094.33 567.192 1095.3 566.939ZM1143.11 553.048C1143.16 551.883 1143.4 551.646 1143.72 552.444C1144.01 553.166 1143.97 554.029 1143.64 554.361C1143.31 554.693 1143.07 554.102 1143.11 553.048ZM1088.23 529.132C1088.25 527.482 1088.47 526.928 1088.73 527.901C1088.98 528.874 1088.97 530.224 1088.69 530.901C1088.42 531.578 1088.21 530.782 1088.23 529.132ZM860.848 495.949C861.57 495.66 862.432 495.695 862.765 496.027C863.097 496.36 862.506 496.596 861.452 496.553C860.287 496.505 860.05 496.268 860.848 495.949ZM863.114 481.048C863.162 479.883 863.399 479.646 863.719 480.444C864.007 481.166 863.972 482.029 863.64 482.361C863.307 482.693 863.071 482.102 863.114 481.048ZM1060.79 481.969C1061.47 481.692 1062.6 481.692 1063.29 481.969C1063.97 482.247 1063.41 482.474 1062.04 482.474C1060.66 482.474 1060.1 482.247 1060.79 481.969ZM1048.19 472.632C1048.19 471.257 1048.42 470.694 1048.7 471.382C1048.98 472.069 1048.98 473.194 1048.7 473.882C1048.42 474.569 1048.19 474.007 1048.19 472.632ZM993.114 443.048C993.162 441.883 993.399 441.646 993.719 442.444C994.007 443.166 993.972 444.029 993.64 444.361C993.307 444.693 993.071 444.102 993.114 443.048ZM903.035 437.573C903.035 436.99 902.585 436.792 902.035 437.132C900.554 438.047 900.802 431.722 902.306 430.218C905.393 427.131 907.885 426.522 910.003 428.336C912.43 430.414 912.747 434.632 910.476 434.632C909.619 434.632 909.196 435.082 909.535 435.632C909.875 436.182 909.2 436.632 908.035 436.632C906.871 436.632 906.196 437.082 906.535 437.632C906.875 438.182 906.227 438.632 905.094 438.632C903.962 438.632 903.035 438.155 903.035 437.573ZM960.426 361.955C957.856 358.556 957.119 358.166 953.785 358.442C951.501 358.631 950.035 358.315 950.035 357.633C950.035 357.017 949.586 356.791 949.037 357.13C947.888 357.841 943.114 352.787 943.067 350.81C943.05 350.083 942.38 348.833 941.578 348.031C940.045 346.499 940.498 344.068 942.739 341.801C943.462 341.069 943.755 339.987 943.39 339.396C942.995 338.758 943.197 338.613 943.888 339.04C944.533 339.439 945.308 339.085 945.631 338.243C945.978 337.34 948.096 336.468 950.874 336.086C955.956 335.386 961.101 333.547 960.535 332.632C959.494 330.947 964.993 332.023 967.455 333.986C969.775 335.836 970.135 336.631 969.316 338.096C968.591 339.39 968.691 340.661 969.661 342.522C971.308 345.678 971.422 348.845 969.943 350.324C969.168 351.099 969.158 351.992 969.908 353.393C970.489 354.48 970.681 355.653 970.334 356C969.986 356.347 970.227 356.632 970.869 356.632C972.485 356.632 972.332 359.478 970.625 361.185C969.849 361.961 969.061 363.021 968.875 363.54C968.688 364.059 967.361 364.775 965.926 365.131C963.72 365.678 962.868 365.186 960.426 361.955ZM1063.04 242.906C1062.21 242.594 1061.17 241.72 1060.72 240.964C1060.28 240.208 1059.49 239.853 1058.97 240.174C1057.89 240.84 1055.04 238.321 1055.04 236.703C1055.04 236.114 1054.59 235.632 1054.04 235.632C1052.6 235.632 1052.8 232.893 1054.29 232.294C1054.97 232.017 1054.57 231.754 1053.38 231.711C1049.95 231.585 1047.8 222.632 1051.2 222.632C1051.73 222.632 1051.88 222.182 1051.54 221.632C1051.2 221.082 1051.55 220.632 1052.32 220.632C1053.09 220.632 1054.54 219.732 1055.54 218.632C1056.56 217.496 1058.62 216.632 1060.28 216.632C1062.38 216.632 1063.37 217.204 1063.75 218.632C1064.1 220.005 1065.11 220.632 1066.95 220.632C1071.15 220.632 1073.78 224.029 1070.29 224.942C1068.62 225.378 1068.62 225.405 1070.29 225.516C1071.25 225.579 1072.04 226.194 1072.05 226.882C1072.06 227.726 1072.4 227.645 1073.1 226.632C1073.96 225.395 1074.09 225.483 1073.81 227.132C1073.63 228.232 1074.37 229.861 1075.46 230.753C1077.32 232.279 1077.34 232.474 1075.74 234.074C1074.8 235.009 1074.03 236.53 1074.02 237.453C1074.01 238.902 1073.87 238.927 1073.04 237.632C1072.22 236.372 1072.06 236.433 1072.05 238.014C1072.02 241.75 1067.07 244.434 1063.04 242.906ZM1022.11 232.882C1022.07 232.194 1020.91 231.632 1019.54 231.632C1018.16 231.632 1017.04 231.155 1017.04 230.573C1017.04 229.99 1016.62 229.768 1016.12 230.08C1015.62 230.391 1013.59 228.762 1011.62 226.459C1008.85 223.226 1008.04 221.394 1008.04 218.42C1008.04 216.133 1008.58 214.361 1009.37 214.057C1010.77 213.518 1011.25 210.632 1009.94 210.632C1009.51 210.632 1008.88 209.725 1008.53 208.617C1008.18 207.509 1007.47 206.861 1006.96 207.176C1006.45 207.492 1006.04 206.598 1006.04 205.191C1006.04 203.783 1006.49 202.632 1007.04 202.632C1007.59 202.632 1008.04 201.93 1008.04 201.073C1008.04 200.215 1008.49 199.792 1009.04 200.132C1009.59 200.472 1010.04 200.262 1010.04 199.666C1010.04 199.07 1011.16 198.154 1012.54 197.632C1013.91 197.109 1015.04 196.065 1015.04 195.311C1015.04 194.558 1015.92 193.137 1017.01 192.153C1018.1 191.169 1018.7 189.905 1018.36 189.343C1018.01 188.782 1018.19 188.612 1018.77 188.966C1019.34 189.32 1020.36 188.94 1021.04 188.121C1022.45 186.428 1032.04 186.002 1032.04 187.632C1032.04 188.182 1033.16 188.632 1034.54 188.632C1036.02 188.632 1037.04 189.205 1037.04 190.038C1037.04 190.952 1037.74 191.261 1039.04 190.921C1040.27 190.599 1041.04 190.891 1041.04 191.682C1041.04 192.387 1041.31 192.686 1041.65 192.346C1042.55 191.455 1045.04 194.201 1045.04 196.074C1045.04 197.628 1046.94 201.644 1048.15 202.632C1050.06 204.201 1052.04 210.185 1052.04 214.427C1052.04 219.324 1050.06 222.632 1047.15 222.632C1046.47 222.632 1046.2 223.082 1046.54 223.632C1046.88 224.182 1046.65 224.632 1046.04 224.632C1045.42 224.632 1045.2 225.082 1045.54 225.632C1045.88 226.182 1045.45 226.632 1044.59 226.632C1043.74 226.632 1043.04 227.082 1043.04 227.632C1043.04 228.182 1042.17 228.632 1041.11 228.632C1040.05 228.632 1038.5 229.307 1037.68 230.132C1036.1 231.705 1030.04 232.235 1030.04 230.798C1030.04 230.34 1029.36 229.965 1028.54 229.965C1027.71 229.965 1027.04 230.34 1027.04 230.798C1027.04 231.257 1026.17 231.632 1025.12 231.632C1024.06 231.632 1022.98 232.194 1022.7 232.882C1022.29 233.882 1022.18 233.882 1022.11 232.882ZM1287.12 176.433C1283.01 175.516 1280.3 173.353 1274.25 166.171C1272.84 164.496 1272.86 157.819 1274.27 155.951C1274.76 155.301 1275.43 152.245 1275.74 149.159C1276.27 144.047 1276.73 143.185 1280.93 139.47C1283.46 137.228 1285.42 134.997 1285.28 134.512C1285.06 133.73 1287.23 133.189 1289.28 133.513C1289.7 133.578 1290.03 133.155 1290.03 132.573C1290.03 131.969 1290.57 131.855 1291.28 132.307C1293.04 133.421 1294.41 133.372 1295.25 132.165C1295.74 131.468 1296.62 131.532 1297.96 132.361C1299.21 133.135 1300.17 133.227 1300.55 132.611C1301.74 130.678 1305.69 131.581 1306.81 134.045C1307.42 135.372 1308.86 136.76 1310.03 137.129C1311.81 137.694 1312.09 138.461 1311.84 141.952C1311.59 145.382 1310.98 146.454 1308.32 148.118C1306.56 149.225 1305.11 150.357 1305.11 150.632C1305.11 150.907 1306.56 152.038 1308.32 153.145C1311.51 155.146 1313.51 160.632 1311.04 160.632C1310.42 160.632 1310.14 161 1310.42 161.449C1310.7 161.899 1310.05 162.899 1308.98 163.67C1307.91 164.442 1307.03 165.444 1307.03 165.898C1307.03 167.311 1302.07 171.769 1301.13 171.192C1300.65 170.892 1299.99 171.671 1299.68 172.925C1299.2 174.82 1293.87 178 1291.96 177.525C1291.73 177.466 1289.55 176.974 1287.12 176.433ZM1313.19 141.632C1313.19 140.257 1313.42 139.694 1313.7 140.382C1313.98 141.069 1313.98 142.194 1313.7 142.882C1313.42 143.569 1313.19 143.007 1313.19 141.632ZM1324.29 98.1358C1323.6 97.3549 1323.04 95.9955 1323.04 95.1148C1323.04 94.2341 1322.67 93.7421 1322.21 94.0214C1320.57 95.0344 1318.37 90.9015 1318.24 86.5678C1318.15 83.5895 1318.7 81.4163 1319.92 79.9549C1323.48 75.685 1333.57 76.1537 1334.75 80.6437C1335.03 81.7371 1335.67 82.6316 1336.15 82.6316C1336.64 82.6316 1337.04 84.4914 1337.04 86.7643C1337.04 89.7501 1336.44 91.4153 1334.88 92.7643C1333.7 93.7913 1333.04 94.6316 1333.42 94.6316C1333.8 94.6316 1333.53 95.2594 1332.82 96.0267C1332.12 96.794 1331.19 97.2154 1330.78 96.9633C1330.36 96.7112 1329.75 97.2084 1329.42 98.0682C1328.68 100.001 1325.96 100.037 1324.29 98.1358Z" fill="black"/>
</svg>
