<svg width="1000" height="1000" viewBox="0 0 1000 1000" fill="none" xmlns="http://www.w3.org/2000/svg">
<path fill-rule="evenodd" clip-rule="evenodd" d="M455.77 860.535L469.473 852.986L478.17 858.156L488.181 869.397H507.381L513.864 863.161L518.705 868.33L524.613 861.766L539.711 867.92L540.449 874.648L549.557 874.074L552.183 886.71L543.977 895.654L538.562 910.998L526.336 917.891L519.525 908.619L511.074 904.352L504.099 907.306L486.13 907.798L481.945 913.132L487.689 916.496L479.976 928.558L471.77 932.496L470.047 941.112L474.232 950.876L476.037 966.63L468.734 975L462.17 965.236L448.877 956.538L452.406 938.896L447.072 929.296L438.21 923.716L432.713 929.378L428.118 916.824L418.682 913.296L422.784 906.485L419.748 891.88L426.641 880.802L421.389 882.361L419.912 872.187L431.81 867.51L443.954 869.233L441.739 858.32L453.965 854.874L455.77 860.535Z" fill="black"/>
<path fill-rule="evenodd" clip-rule="evenodd" d="M281.324 53.211L289.283 37.5388L281.242 24.5744L294.124 29.6617L313.735 24L323.992 37.785L321.448 55.9188L339.336 59.3651L347.295 66.5858L358.782 70.3602L377.655 66.6678L390.291 71.7551L415.809 73.8065L421.635 66.996L433.041 67.8986L439.031 77.9912L450.19 89.6428L459.872 93.8275L465.452 90.8736L474.724 97.4379L498.601 101.869L514.028 124.105L533.228 125.418L531.669 130.505L542.746 138.547L545.7 157.665L560.552 181.625L569.332 190.569L579.834 194.097L595.999 209.687L603.302 210.918L631.61 207.718L659.919 218.631L681.745 220.108L694.627 229.708L709.069 236.354L715.633 243.821L722.772 242.591L728.433 248.17L745.09 251.781L746.321 258.345L737.541 264.089L733.521 275.33L738.936 303.228L742.629 310.859L737.623 320.87L739.428 334.244L733.357 356.973L739.757 367.968L731.305 370.43L737.295 378.307L721.541 387.989L708.084 390.533L688.391 382.164L670.668 386.594L663.283 395.456L663.037 407.19L671.324 417.611L686.914 428.278L689.704 436.237L684.863 439.683L683.222 451.253L677.56 445.263L667.221 449.694L665.991 455.848L653.683 452.155L630.954 457.489L616.266 452.237L597.968 449.94L582.788 454.453L570.398 474.638L569.085 484.566L554.808 493.346L538.479 493.838L532.654 490.474L542.172 486.864L543.567 481.776L536.264 473.735L528.551 477.428L518.048 467.745L491.135 461.017L480.386 454.124L471.278 456.012L459.134 450.268L447.072 448.955L438.21 461.427L423.523 457.735L415.727 459.622L419.994 475.704L413.184 473.735L407.85 481.776L388.404 484.566L382.003 493.592L370.762 480.71L375.357 474.474L367.07 441.078L360.341 441.57V432.708L350.085 435.991L338.187 423.436L320.053 420.565L312.832 414.985L290.924 419.088L279.929 416.872L280.996 407.764L293.55 401.282L290.842 395.702L299.95 383.312L295.683 370.758L289.201 370.922L276.483 358.286L282.391 335.147L281.816 316.275L271.231 297.238V286.407L276.483 286.571L288.791 267.863L288.052 253.914L280.503 238.324V225.441L274.103 221.585L285.262 217.318L289.775 197.215L279.272 196.312L286.739 190.897L291.416 175.717L285.919 168.086L295.929 148.557L298.309 134.772L293.96 120.495L284.278 119.592L270.575 123.203L268.441 116.803L258.431 116.885L254 109.254L269.344 108.269L275.744 89.0684L273.365 80.6169L276.236 67.0781L272.79 64.6985L281.324 53.211Z" fill="black"/>
</svg>
