<svg width="578" height="578" viewBox="0 0 578 578" fill="none" xmlns="http://www.w3.org/2000/svg">
<path d="M474.729 202.06L473.926 202.258L473.661 201.89L474.465 200.983L474.011 200.077L475.939 198.689L476.214 198.859L476.242 199.954L474.729 202.06ZM569.707 111.933L570 116.106L568.345 118.854L565.746 118.986L565.169 118.259L563.656 117.881L561.501 118.589L561.321 118.315L561.794 117.607L563.221 116.89L563.533 115.88L564.772 114.303L564.933 112.943L565.67 112.131L566.719 111.725L568.1 112.131L569.263 111.725L569.707 111.933ZM521.358 48.0251L519.769 48.365L518.068 48.1478L517.869 47.8551L518.068 47.6569L519.836 48.0345L521.585 47.5719L521.358 48.0251ZM523.126 44.6262L522.18 46.4673L521.84 46.2501L522.01 45.3815L521.793 45.221L521.471 45.9574L520.913 45.8536L520.998 44.8434L523.39 43.5782L523.589 44.0975L523.126 44.6262ZM499.443 43.0212L499.934 43.4744L500.606 43.3139L500.842 41.8599L501.163 41.7561L502.761 42.1337L505.891 43.6349L508.415 43.1345L508.689 43.3517L508.585 44.022L507.082 45.3343L508.093 46.0424L508.462 46.0519L509.171 44.9283L511.554 44.8528L513.416 45.306L516.564 43.852L518.597 44.1919L520.63 45.6459L520.516 46.996L519.58 47.2509L519.401 47.0526L520.119 46.4767L519.977 46.2596L519.401 46.6561L518.994 45.9574L518.105 46.033L517.236 45.1927H516.82L515.799 46.9677L516.271 47.0526L516.668 46.5239L516.971 46.5617L517.103 46.9299L516.668 47.6569L513.69 51.0557L513.038 51.3579L509.861 55.1816L508.802 57.7024L508.424 61.2051L505.191 68.6543L502.591 68.8053L502.241 68.4088L503.139 67.8895L503.026 67.0587L504.387 65.9541L504.274 65.397L503.111 66.1335L502.837 65.9541L502.695 64.4718L503.395 63.4521L504.056 63.1311L504.491 63.6126L505.824 63.9053L506.533 64.6795L506.77 64.4246L506.505 62.9045L505.04 60.1099L504.576 56.0596L504.189 55.1249L503.555 54.6623L500.937 54.8511L499.036 55.9935L497.996 57.2398L495.529 62.0265L494.914 62.1115L493.25 61.1013L492.692 61.1862L493.912 62.3664L493.969 64.6701L493.524 65.331L492.087 65.803L491.567 66.615L491.643 67.1626L492.418 67.2947L493.222 66.0957L493.515 66.1429L493.78 67.4836L495.037 66.8982L495.453 69.3624L496.55 71.2884L496.54 72.4308L499.811 75.131L502.572 74.9233L502.865 73.5071L501.891 71.9587L498.715 71.3356L498.819 70.7125L501.759 70.9013L502.78 71.8454L503.423 72.9973L504.075 73.1955L504.085 72.7424L503.3 71.8077L503.659 71.279L503.414 70.3915L504.094 69.4946L504.614 69.5701L507.072 82.6651L508.386 87.1309L508.888 90.5392L512.565 102.199L513.246 103.011L513.596 105.409L512.82 103.955L510.788 104.125L509.332 102.964L509.237 102.369L509.625 101.925L509.029 100.141L506.845 96.761L505.995 96.7232L506.325 97.5824L506.023 98.0072L506.099 98.281L507.309 98.6398L506.997 100.858L507.214 100.962L507.762 100.15L508.282 100.358L508.008 101.321L509.001 104.484L508.821 106.316L509.511 106.429L510.58 105.607L511.393 105.645L511.847 104.644L512.225 104.635L512.707 105.579L513.359 105.853L513.955 107.392L514.352 107.637L514.759 107.165L515.108 107.222L515.392 107.949L515.203 109.337L517.188 121.45L514.9 128.597L510.93 137.255L507.98 142.532L508.037 141.683L509.228 139.69L509.313 138.35L510.391 136.83L510.372 134.479L511.147 133.223L512.707 128.795L512.688 127.237L511.279 124.887L509.748 123.584L509.994 122.904L511.109 123.999L511.317 123.272L509.313 119.052L506.902 115.577L505.834 115.294L504.851 117.239L506.269 118.183L507.677 120.704L506.694 120.345L505.56 119.146L503.877 118.844L503.215 117.976H502.582L504.51 122.007L502.856 122.271L502.515 120.997L501.891 121.45L501.059 121.544L500.804 122.64L501.532 122.998L502.402 124.518L503.196 123.225L504.019 123.055L504.246 124.858L503.612 127.143L504.444 128.408L504.699 129.853L506.08 130.57L506.259 130.4L505.739 129.456L506.165 129.23L507.053 129.569L508.557 130.816L508.453 129.494L509.322 129.862L509.474 131.108L508.906 131.363L508.651 132.137L510.457 133.478L509.767 134.224L509.937 135.867L508.576 138.756L507.299 138.085L506.562 139.502L505.597 139.804L505.437 140.134L506.288 140.323L507.904 138.973L508.594 139.256L507.299 141.456L507.167 143.93L506.581 144.298L505.966 145.997L503.716 147.876L500.795 151.35L499.736 153.918L497.646 155.986L496.578 157.516L495.481 157.582L493.127 159.706L492.031 161.424L491.633 162.699L490.66 163.511L490.943 164.342L489.809 166.598L489.544 165.56L488.334 164.162L488.447 162.444L488.778 161.783L490.849 160.414L491.34 158.469L489.242 160.121L488.334 158.384L485.895 156.014L486.935 153.343L485.223 152.096L485.394 150.605L483.266 150.34L483.115 149.972L483.739 149.991L483.824 149.632L483.597 148.074L482.936 147.007L483.04 145.62L482.614 145.148L480.288 144.978L478.851 144.26L478.605 142.561L477.584 141.758L477.651 139.917L477.036 138.246L477.622 138.68L477.944 138.416L478.993 138.473L478.388 137.916L479.513 135.093L475.041 131.788L474.701 130.91L475.032 129.475L473.633 129.239L472.441 126.51L472.233 125.009L470.985 124.792L469.955 125.868L469.302 125.283L467.317 124.764L465.634 125.623L464.793 125.529L462.372 124.093L460.293 123.508L457.447 121.941L457.778 122.772L458.458 123.168L461.541 124.009L465.19 126.293L466.05 126.303L466.835 125.472L468.3 125.736L469.416 126.671L471.146 125.642L471.817 126.274L471.874 127.728L472.819 129.862L473.529 130.344L474.257 130.362L473.973 131.58L474.436 132.458L477.49 134.526L478.691 135.942L477.613 137.906L476.828 137.916L476.497 138.246L476.875 139.898V142.117L477.896 143.184L478.388 144.808L482.255 146.073L483.304 148.697L482.567 149.83L482.709 150.746L483.058 151.096L484.571 151.143L484.391 152.436L485.999 153.635L485.942 154.324L485.082 155.542L485.176 156.033L486.575 157.818L488.712 159.744L488.599 160.631L488.154 161.188L486.67 161.708L486.509 160.527L486.122 160.197L483.106 158.677L482.567 158.705L481.81 159.621L480.979 161.726L480.875 162.812L481.224 163.143L484.382 162.435L485.205 163.02L485.29 163.69L484.061 165.38V166.334L484.647 167.099L485.857 167.146L487.379 166.57L488.41 166.768L488.797 167.183L488.277 169.563L488.438 170.866L487.776 172.716L487.729 173.528L488.287 174.406L486.859 176.596L485.138 180.59L483.002 190.362L480.279 209.235L479.532 208.631L478.889 205.222L479.003 203.608L480.279 199.803L479.589 197.726L480.128 196.461L481.678 194.686L481.848 194.006L480.487 191.306L479.693 191.089L480.109 191.759L477.367 192.052L476.819 192.59L477.49 193.921L478.795 194.412L478.483 195.196L476.856 195.932L473.926 195.356L472.082 196.036L471.676 196.593L471.761 198.113L471.392 198.595L469.766 197.084L468.461 194.913L468.168 193.836L468.281 192.241L467.847 191.325L467.005 190.56L465.124 190.239L462.571 187.199L462.164 184.829L461.578 185.367L461.711 186.802L462.751 189.427L467.204 192.099L467.459 194.11L468.149 195.639L470.834 198.868L470.787 199.133L469.454 198.925L469.284 199.312L470.371 199.794L470.872 199.482L471.505 199.813L473.169 201.965L474.304 204.722L475.968 205.279L475.552 205.959L475.722 206.223L476.677 206.157L477.367 206.572L478.01 206.015L478.303 206.308L478.643 207.998L477.755 208.612L477.395 207.772L476.885 207.498L476.923 208.668L477.31 209.122L478.766 209.046L480.222 210.283L480.137 211.473L479.4 211.057L478.577 210.991L478.36 211.284L480.156 212.615L480.496 213.21L479.712 214.258L479.56 215.4L478.01 218.837L477.896 219.885L476.63 218.176L475.665 217.553L474.086 216.797L472.763 217.052L473.85 218.166L476.431 219.573L475.476 220.546L475.608 220.989L475.864 221.159L477.102 219.894L476.261 225.955L475.571 226.673L475.259 226.55L475.854 224.596L474.257 224.851L472.706 226.503L472.139 227.702L470.976 227.334L470.153 227.664L469.321 230.261L467.657 229.864L466.703 230.808L463.025 233.084L462.136 232.829L461.616 231.139L461.966 230.516L461.72 229.921L458.562 229.345L457.239 228.637L454.856 229.25L453.901 229.156L453.126 228.25L452.635 226.399L450.829 224.992L449.685 223.378L447.51 222.632L447.246 222.16L447.34 219.809L443.814 215.806L443.7 214.513L445.761 212.539L444.759 208.801L442.282 206.025L440.845 205.846L438.113 204.571L436.893 204.92L435.513 206.233L433.263 206.015L433.962 206.978L435.002 207.016L436.43 206.374L437.706 205.034L438.812 205.43L439.484 206.242L441.053 206.818L442.131 206.714L444.182 209.726L444.268 211.473L444.674 212.313L444.542 212.898L443.209 213.691L443.332 214.588L442.887 215.919L444.409 217.647L444.731 218.478L445.78 218.638L445.43 219.318L446.489 219.479L446.716 219.951L446.773 222.849L446.3 223.595L444.258 224.114L441.488 226.56L440.231 226.503L438.869 226.966L437.366 225.342L436.439 225.087L434.416 225.257L430.871 224.945L429.84 225.682L428.961 225.653L427.496 225.002L427.326 224.417L426.56 223.878L424.234 223.416L423.875 222.585L422.627 222.103L423.27 220.999L421.161 220.649L420.405 221.329L420.15 221.244L420.093 220.376L418.032 219.639L417.276 220.357L416.236 220.14L415.224 220.536L414.175 219.186L412.227 220.555L410.062 220.829L404.03 218.346L402.896 218.148L402.508 218.79L401.213 219.649L400.674 221.405L401.345 221.697L401.865 221.537L401.979 219.998L403.435 219.101L409.022 221.537L412.303 221.443L414.004 220.187L414.628 221.131L415.281 221.32L416.132 220.848L418.401 220.413L420.008 221.811L421.795 221.188L421.87 222.339L423.506 223.293L424.243 224.152L426.503 224.832L429.623 226.56L431.552 225.88L434.246 225.653L436.732 226.173L439.153 227.768L440.382 227.164L441.261 227.183L443.993 225.285L446.669 224.435L447.283 223.718L447.728 223.68L449.193 224.294L451.651 226.739L452.71 229.392L454.611 229.987L456.7 229.317L459.007 230.223L460.756 230.213L461.238 232.649L462.684 233.782L463.904 233.622L465.218 232.895L466.542 231.479L468.036 230.799L469 231.158L469.841 230.789L470.399 229.892L470.314 228.571L470.844 228.136L471.477 228.448L473.737 231.507L475.296 229.666L476.128 227.334L476.431 227.343L476.658 227.919L476.166 229.411L475.013 243.516L476.374 258.216L478.36 271.689L473.614 271L466.967 271.226L446.688 257.688L446.054 256.81L446.13 256.139L447.331 253.279L449.723 249.087L449.524 248.275L448.834 247.859L447.406 247.529L445.827 247.623L442.982 245.452L438.066 245.48L426.947 243.224L419.582 242.364L416.217 241.08L408.199 241.534L406.772 242.1L404.371 242.213L401.279 244.545L400.352 244.8L399.294 244.602L398.528 242.988L397.913 242.591L396.939 243.129L396.041 242.997L395.455 243.337L394.566 242.761L393.886 242.751L392.817 243.327L390.444 245.858L366.015 256.139L252.133 256.396L253.551 206.015L255.154 196.444L315.949 152.07L316.895 144.045L317.826 129.406L319.906 121.214L319.329 119.788L318.138 119.571L317.325 117.673L315.86 116.833L315.245 114.954L314.035 114.275L313.713 113.557L313.903 112.858L314.914 112.594L315.756 111.876L315.699 108.742L315.037 107.845L315.472 106.193L315.964 106.051L317.145 104.758L317.24 103.596L316.105 101.699L314.366 101.482L312.777 99.5745L313.496 97.9978L312.636 97.2614L312.664 96.4494L313.43 95.0143L313.581 93.7586L314.564 92.2858L314.167 90.8319L312.352 90.001L311.756 89.1513L310.291 89.2363L308.854 89.0758L308.646 88.6698L310.187 87.112L310.461 86.3378L309.941 85.2615L307.842 83.8453L307.559 82.9578L307.776 82.3158L308.533 81.7682L309.828 81.9004L310.802 80.116L310.187 79.5967L310.253 78.5299L312.125 76.651L313.685 75.7069L314.829 74.2718L316.039 73.9603L317.826 72.3175L321.523 71.5528L321.806 69.9194L322.941 68.305L323.423 66.9737L324.926 65.5575L327.006 65.4631L329.351 65.8313L331.79 64.3585L333.936 63.9431L335.014 64.5945L335.836 64.604L336.347 65.397L336.98 65.5575L337.368 67.3892L338.172 68.5599L341.32 70.5803L341.604 71.6283L341.112 72.3269L340.11 72.1287L339.429 72.8273L339.977 73.6204L340.611 73.7809L341.963 73.1295L342.322 73.9603L341.783 75.3293L342.209 76.9721L344.941 79.3607L346.132 79.6345L346.945 82.7784L347.985 82.8634L349.668 79.8328L350.302 80.031L350.179 80.6636L350.84 81.3811L352.098 82.0703L354.603 81.5416L355.152 82.7407L357.128 82.8445L359.018 83.6187L359.954 83.2599L360.909 84.1285L362.337 83.7415L363.33 84.5723L364.086 84.0625L367.414 83.7037L367.556 84.1191L367.026 84.8178L366.015 85.1388L366.298 86.6305L367.792 86.47L368.955 85.9696L369.399 86.0923L369.541 86.876L370.43 87.5368L373.72 88.2921L374.06 88.1789L375.006 86.47L377.804 86.2812L380.432 84.9499L380.612 83.732L383.477 81.0035L384.138 79.4268L385.254 78.1239L385.178 77.3497L385.594 76.9909L386.814 77.869L388.043 78.1617L387.154 80.0121L387.145 80.7863L387.457 81.1545L388.27 81.5794L389.905 81.7399L390.596 81.5228L391.021 80.8052L391.891 80.5031L392.562 81.0601L392.902 82.5235L393.356 82.9861L395.351 83.6093L398.121 81.3339L397.223 80.5031L397.573 78.6432L396.476 76.1695L396.637 74.6306L397.1 73.9981L399.908 72.0437L400.995 72.1476L401.761 72.7518L401.052 74.7439L402.187 75.2632L403.624 76.5566L406.573 77.463L410.412 76.7927L411.159 75.8957L412.397 75.367L415.848 75.7825L415.772 73.9981L414.931 73.356L413.617 70.2027L413.674 69.2491L414.137 68.6165L415.782 68.456L417.143 68.8431L417.408 69.2585L417.417 71.8549L417.682 72.1759L418.23 72.2797L421.123 70.8258L421.53 70.8824L422.078 73.441L423.941 73.9225L426.645 72.6479L429.264 73.7337L432.157 72.5063L432.705 72.5158L433.83 73.356L434.738 73.4127L434.927 72.9595L434.01 70.7597L434.246 70.4481L435.702 70.5142L436.345 69.9761L438.51 71.515L439.559 71.1185L439.247 70.5709L439.635 69.0791L440.004 68.9942L440.543 69.504L440.968 71.194L442.528 70.4953L443.889 70.6086L445.695 68.6354L450.167 68.2578L447.643 66.6716L447.51 66.3034L448.011 66.039L450.271 66.9832L451.056 66.4922L451.075 65.3593L451.396 65.0477L452.653 66.294L453.883 66.4922L454.119 65.9069L453.958 64.8589L454.611 64.0092L457.012 64.9155L456.936 64.0941L456.312 63.2633L456.681 63.0839L457.863 63.2444L458.78 62.9895L459.82 63.7354L460.501 63.7448L460.378 63.15L460.709 62.3381L459.082 61.6772L459.498 61.139L460.415 61.0635L461.106 60.5253L460.992 59.0242L461.408 58.9392L462.259 59.6851L464.33 58.4483L465.691 58.5143L466.296 57.9762L467.071 57.9856L468.612 58.2406L469.019 58.656L468.953 59.7512L469.577 60.3554L469.993 60.1382L469.652 58.9014L470.777 57.372L470.238 56.7299L470.248 56.2296L472.583 55.5403L472.243 54.1242L473.339 54.0581L474.285 54.6245L475.296 54.0486L476.384 54.4735L476.667 51.4334L477.131 51.169L478.445 51.4617L478.681 51.0085L477.84 49.5829L478.114 49.4035L479.513 50.1588L479.787 49.9322L479.078 49.007L478.653 47.2226L479.078 46.4578L480.43 47.3925L480.884 47.2603L480.355 46.2501L480.194 45.0228L480.525 44.6168L481.782 45.7309L482.264 44.5129L483.058 43.5688L484.713 42.9646L485.658 43.4272L485.63 44.9378L487.426 46.3351L488.844 46.0424L490.641 44.8056L492.324 44.749L494.177 43.0495L494.347 40L495.207 40.1605L496.124 41.2651L497.486 41.2935L498.705 41.8033L499.443 43.0212Z" fill="black"/>
<path d="M459.016 406.463L459.12 407.077L458.383 406.218L456.379 405.141L455.566 401.78L456.133 399.335L455.547 397.267L455.688 396.333L456.965 394.898L457.154 392.849L458.506 391.489L459.385 391.593L457.428 395.332L457.05 399.458L457.494 403.272L458.033 404.603L458.969 405.755L459.016 406.463ZM359.624 235.165L390.359 245.65L392.742 243.12L393.82 242.544L394.5 242.553L395.389 243.129L395.975 242.789L396.873 242.921L397.847 242.383L398.462 242.78L399.228 244.394L400.286 244.593L401.213 244.338L404.304 242.006L406.706 241.892L408.143 241.326L416.16 240.873L419.526 242.157L426.891 243.016L438.009 245.272L442.925 245.244L445.771 247.416L447.35 247.321L448.777 247.652L449.468 248.067L449.666 248.879L447.274 253.071L446.073 255.932L445.998 256.602L446.631 257.48L466.911 271.019L473.557 270.802L478.303 271.491L480.468 279.78L480.846 282.764L481.763 285.143L481.546 286.002L480.704 286.776L480.099 286.852L479.589 286.361L479.504 284.765L480.184 282.877L480.062 281.971L479.674 281.621L479.239 281.593L478.851 282.027L479.655 282.528L478.795 284.529L479.163 285.237L479.362 287.22L478.313 286.805L476.299 286.757L473.481 285.209L472.063 285.369L471.695 285.672L471.865 286.2L473.595 287.277L473.623 287.616L473.065 287.749L471.931 287.494L469.312 285.926L468.612 286.021L467.639 286.795L466.722 286.04L462.647 285.133L463.205 284.35L463.025 283.34L459.688 281.886L458.799 282.518L457.891 281.215L457.352 281.272L456.776 282.235L456.435 282.292L456.01 280.847L453.873 279.327L453.325 277.156L449.222 275.73L445.449 273.823L445.147 273.096L445.081 270.868L442.046 267.271L443.332 266.034L442.301 263.976L441.677 261.719L441.063 261.341L439.569 261.238L439.493 260.954L440.297 260.558L440.467 260.095L439.834 259.038L440.079 257.971L439.408 257.499L438.51 257.527L438.113 257.244L437.583 256.026L436.071 254.836L436.458 251.928L433.669 249.851L432.147 249.209L429.954 247.189L428.12 246.509L427.969 247.113L428.592 248.624L428.262 249.106L426.465 249.021L425.416 249.596L424.366 249.398L421.748 251.249L420.935 250.918L419.828 249.521L418.873 249.53L418.382 249.974L418.722 250.89L418.429 251.655L412.898 252.995L412.123 254.648V255.705L413.059 256.791L415.224 257.263L415.536 257.716L415.092 258.056L414.26 257.763L413.853 258.16L412.473 260.879L411.376 261.407L407.642 261.426L402.971 262.021L400.371 263.872L395.247 266.043L391.239 271.878L387.419 274.597L385.453 275.022L384.318 276.75L383.155 275.966L381.718 273.219L376.244 271.755L374.089 269.631L370.042 269.82L367.726 269.357L366.856 269.876L366.383 271.189L367.754 269.905L370.647 270.433L372.018 270.027L373.257 269.99L374.401 270.669L375.885 272.303L377.01 272.312L379.373 273.322L380.952 273.379L382.682 276.457L383.666 277.174L384.885 277.146L386.105 275.645L388.279 275.022L392.146 272.048L395.323 266.761L398.793 265.581L402.555 262.909L403.425 262.597L411.357 261.955L413.182 260.964L414.26 258.585L415.791 258.849L416.17 257.093L413.948 256.441L413.002 255.724L412.936 255.035L413.617 253.241L416.916 252.495L419.573 252.523L418.959 250.673L419.327 250.191L420.027 250.22L420.585 251.324L421.332 251.843L423.572 250.918L424.754 249.757L426.115 250.588L426.456 249.7L426.862 249.521L428.914 249.568L429.188 249.021L428.564 247.538L428.895 247.179L430.285 248.615L432.894 249.842L434.123 251.032L435.551 251.702L435.901 252.249L435.532 253.666L435.626 254.959L438.17 258.009L439.503 258.046L439.635 258.33L438.727 259.415L439.106 259.765L439.682 259.727L439.767 260.312L438.642 261.436L438.86 261.738L440.911 261.993L441.403 263.296L442.254 264.24L442.783 265.75L441.602 266.647L441.308 267.308L442.85 268.526L444.447 270.811L444.324 272.794L445.09 274.446L445.988 275.163L448.163 276.108L449.439 276.145L452.862 277.363L453.268 279.629L455.358 281.499L456.473 283.292L457.031 283.217L457.211 282.556L457.513 282.462L459.139 283.774L459.981 282.801L462.344 284L461.89 285.445L462.751 286.163L466.079 286.512L466.977 287.295L469.321 287.069L472.668 288.306L474.323 288.353L474.54 287.513L472.574 285.974L473.358 285.86L477.906 287.919L480.307 287.881L480.582 289.958L481.508 289.788L481.962 287.277L482.595 286.833L482.869 287.494L481.555 291.299L478.974 307.991L478.303 313.316L477.963 319.679L478.388 324.777L480.865 332.991L483.267 335.635L484.429 337.825L484.609 341.385L483.995 346.436L483.371 347.248L482.737 347.295L479.248 346.464L477.15 346.351L471.449 347.824L470.522 349.108L469.728 349.438L468.83 348.862L468.565 348.163L471.515 344.123L472.025 342.924L469.794 337.787L468.565 336.494L468.111 335.503L467.828 330.282L468.291 326.647L469 325.353L469.293 325.759L469.028 326.864L469.218 327.364L471.401 326.949L474.153 327.402L475.022 326.892L475.391 325.57L476.658 324.201L476.913 320.066L476.129 313.278L477.197 311.021L477.462 308.916L478.199 307.453L478.152 306.952L477.774 306.905L476.696 307.556L476.223 307.245L476.753 305.942L478.114 304.856L478.577 304.016L478.804 301.08L478.171 299.059L475.136 298.134L472.829 296.935L470.522 296.482L469.974 296.775L469 298.332L467.62 298.351L467.156 299.418L466.22 299.182L466.447 295.453L465.644 291.384L463.025 289.694L461.938 289.42L461.248 289.712L460.378 292.753L460.699 293.64L461.824 295.047L463.98 295.283L463.479 296.161L462.051 296.482L460.359 296.378L452.862 292.781L451.292 292.479L449.95 292.762L446.66 294.31L446.263 297.332L443.492 297.237L442.178 299.418L440.732 298.833L439.219 299.38L438.633 298.767L437.205 298.266L435.456 297.048L434.851 295.868L434.265 295.434L433.603 295.528L433.282 296.463L431.268 296.246L431.06 295.236L429.481 293.678L429.632 292.526L428.129 292.45L425.747 290.6L423.771 290.496L421.332 289.656L420.641 290.071L420.698 290.883L420.188 291.487L419.223 291.903L418.25 291.771L419.015 292.299L420.159 291.95L420.812 291.45L421.492 290.005L422.211 290.137L422.835 290.836L425.132 290.921L426.248 292.026L427.146 292.082L427.798 292.658L428.904 292.856L428.848 294.254L429.718 294.669L430.871 296.605L433.31 297.18L434.237 296.019L435.002 297.284L436.61 298.634L437.999 299.012L439.512 300.003L441.403 299.305L442.103 300.183L442.547 299.928L443.804 297.662L445.355 298.011L446.943 297.53L447.151 297.247L446.905 296.048L447.406 295.141L447.246 294.433L450.678 292.989L452.569 293.234L458.638 296.321L461.257 297.02L464.396 296.68L465.644 297.804L465.521 298.71L461.323 298.191L457.182 296.199L454.979 295.764L454.147 294.66L453.363 294.792L451.945 295.821L452.115 297.841L452.767 297.974L454.488 296.803L456.369 296.605L456.719 297.058L456.095 298.767L455.131 298.937L454.96 299.361L457.012 300.173L457.173 300.778L456.634 301.797L460.104 301.778L460.907 299.749L461.465 299.135L463.252 298.776L465.341 300.013L466.57 300.334L466.92 300.863L467.128 302.402L466.504 304.271L466.589 304.875L468.537 305.366L469.151 304.734L469.737 305.243L470.447 307.613L469.766 308.435V309.445L471.647 311.078L472.545 312.862L471.855 316.743L472.649 317.999L472.451 318.943L472.678 320.274L471.609 319.84L471.184 320.057L469.577 322.313L467.544 322.153L467.695 323.361L467.45 323.843L464.358 326.26L462.609 326.779L461.077 328.205L460.075 328.497L457.901 328.252L455.622 328.95L452.767 331.311L452.587 334.965L452.843 337.58L453.656 337.891L454.989 336.315L455.651 336.164L455.991 336.891L457.154 336.683L457.863 339.1L458.005 342.716L458.922 345.671L457.608 348.805L457.797 351.156L458.345 352.544L460.245 354.281L461.191 354.187L462.108 353.299L463.554 353.054L464.812 352.346L465.36 352.856L465.256 354.914L464.301 357.51L464.245 359.984L464.869 359.918L464.963 357.888L465.88 356.075L465.918 354.395L466.306 353.233L468.111 351.005L468.981 350.41L469.492 350.354L470.172 351.213L469.189 352.922L467.242 354.933L466.561 356.245L462.997 365.498L462.817 370.454L462.335 370.794L462.221 371.323L462.212 373.419L461.73 375.685L461.645 379.471L462.448 383.804L462.174 387.534L462.486 389.686L462.269 389.894L461.011 388.506L459.442 387.42L457.92 384.72L457.636 382.747L456.993 383.002L457.239 381.831L458.95 380.528L459.073 381.387L460.397 381.34L461.172 381.859L460.945 380.301L461.399 379.811L460.359 378.687L460.349 377.894L460.898 378.593L461.276 378.611L461.238 378.272L459.338 374.032L456.483 371.502L456.038 371.455L455.868 371.993L456.681 373.277L457.627 373.362L458.355 374.004L458.421 374.542L459.707 376.364L459.735 376.903L458.449 378.951L457.929 380.981L457.031 381.869L456.416 383.634L455.944 383.049L455.783 382.029V377.724L455.424 376.704L453.883 374.674L453.968 374.42L455.745 373.976L455.963 373.362L455.509 372.937L454.894 373.749L453.145 374.193L448.541 373.079L444.249 373.504L443.975 373.041L443.965 371.446L443.464 371.644L443.455 372.966L443.058 373.542L442.263 373.438L440.836 372.125L440.978 372.635L442.311 373.881L443.71 374.07L443.455 374.75L442.018 375.656L439.673 376.034L439.068 376.412L438.699 378.545L436.156 378.385L434.624 378.753L433.688 380.424L433.121 380.641L432.809 381.416L432.043 381.548L431.599 382.718L431.136 382.737L429.018 380.764L427.978 380.717L427.628 380.358L427.184 380.5L427.014 381.236L426.323 381.189L425.955 381.548L425.217 381.519L424.026 380.094L423.43 380.887L421.974 380.821L421.303 381.397L419.271 379.046L418.287 378.442L417.21 378.47L416.349 377.545L414.165 377.828L412.69 378.64L412.199 378.215L411.546 376.034L410.696 374.627L408.341 373.57L406.63 374.136L406.347 373.353L405.836 373.032L402.347 373.504L401.014 373.296L399.086 370.974L397.488 370.917L395.9 369.699L393.933 366.536L393.205 363.477L392.364 362.684L393.829 361.712L394.387 360.758L395.077 360.305L395.228 358.945L393.867 355.82L393.148 355.074L392.95 353.347L391.919 351.487L391.191 350.92L388.591 350.977L387.712 350.477L388.762 351.581L390.142 351.373L391.333 351.77L392.6 353.913L392.855 355.547L393.791 356.17L394.472 359.181L391.702 363.156L392.695 364.308L392.884 365.696L394.5 369.34L396.325 370.681L396.448 371.219L395.985 371.54L392.288 371.71L388.402 374.863L383.656 375.571L381.917 376.544L379.477 377.167L380.517 377.45L383.439 376.251L389.31 375.298L391.012 374.372L393.129 372.522L397.847 371.54L398.868 371.587L400.381 373.702L401.629 374.117L401.326 375.335L401.686 376.402L401.534 377.101L402.584 378.517L401.289 380.311L401.175 381.652L399.974 383.483L400.059 385.145L398.698 386.297L398.651 386.74L400.702 384.956L401.714 380.84L403.113 378.914L403.094 378.017L402.064 376.865L402.054 374.542L405.155 373.645L406.611 374.656L407.944 374.108L410.251 374.911L410.904 375.977L411.745 378.848L412.709 379.556L413.532 379.282L414.884 378.092L416.415 378.045L416.86 378.932L418.807 379.423L421.464 382.605L421.785 382.567L422.003 381.793L423.26 381.859L423.95 381.246L425.293 382.152L426.702 382.039L427.694 381.302L428.347 381.906L428.611 381.453L428.971 381.519L430.067 382.926L431.656 383.653L432.346 383.238L432.563 382.379L433.594 381.765L433.669 381.104L434.464 380.49L434.681 379.433L435.154 378.98L436.572 379.272L439.767 378.734L440.042 378.139L439.342 377.337L439.569 376.818L442.5 376.421L447.473 374.146L450.101 374.212L453.202 375.392L454.242 376.44L455.329 379.461L455.074 382.228L455.584 383.927L455.868 387.118L455.339 387.458L454.809 386.561L454.412 387.439L453.807 387.552L451.916 385.626L450.12 385.098L448.711 385.324L448.985 385.721L451.434 385.777L454.251 388.742L454.544 390.857L454.195 391.792L454.176 393.245L453.155 394.275L452.956 396.238L453.713 397.154L451.529 399.76L450.054 400.345L449.874 402.394L449.449 403.112L446.754 404.584L445.478 405.85L445.393 406.737L445.695 407.379L448.172 408.068L447.785 409.966L448.002 410.702L449.288 412.44L451.633 413.384L451.727 414.554L452.228 414.894L453.911 414.469L456.275 414.63L456.596 414.375L456.454 413.459L455.509 411.647L456.738 406.577H457.267L457.589 407.115L460.208 408.418L460.86 412.232L463.479 419.521L463.829 423.939L464.67 427.045L463.639 426.403L463.564 425.667L462.571 425.761L462.59 426.082L463.97 427.347L464.925 427.659L465.266 428.301L465.048 430.227L465.994 434.155L465.805 434.579L466.353 435.061L466.911 435.099L466.759 436.024L467.043 436.534L466.381 438.082L465.228 437.459L464.462 437.525L463.63 436.798L462.221 437.223L461.134 438.762L460.359 439.149L458.95 441.292L458.005 440.99L454.63 441.726L452.304 447.07L449.628 446.74L449.524 447.117L450.205 447.127L450.545 447.769L451.774 447.429L451.897 449.176L451.122 451.621L450.621 451.564L449.004 455.341L448.588 454.991L445.865 455.029L445.667 455.766L444.116 456.908L443.653 458.192L442.66 459.051L442.698 459.844L441.724 461.204L441.412 462.913L440.978 468.851L441.167 471.92L440.892 472.788L441.422 474.299L441.97 478.264L443.445 482.06L444.079 485.713L443.984 486.903L445.487 490.566L447.737 497.647L449.988 502.481L455.622 510.535L457.645 512.621L457.532 512.829L456.345 513.671L453.981 512.255L447.363 507.534L445.487 506.59L388.402 496.901L305.755 379.423L271.227 248.624L359.624 235.165Z" fill="black"/>
<path d="M356.602 324.683L240.906 370.275L240.481 372.295L240.859 373.834L240.745 374.703L238.344 378.668L237.739 380.311L236.576 381.803L237.389 386.249L234.402 385.39L233.362 383.596L233.324 382.558L231.272 382.954L229.287 382.567L226.98 381.368L225.458 379.461L224.834 379.414L224.749 380.094L224.342 380.226L224.106 379.763L224.03 378.272L223.652 377.828L222.092 377.412L220.296 376.308L218.689 376.374L217.601 375.94L217.195 375.203L217.185 372.465L217.819 371.738L216.864 370.492L216.609 368.613L216.798 368.084L217.705 367.584L216.996 366.489L188.789 322.013L289.473 285.664L356.602 324.683Z" fill="black"/>
<path d="M167.598 396.144L185.007 394.711L194.934 436.725L181.429 444.833L179.661 446.117L177.099 444.049L175.728 442.501L172.278 440.707L170.907 439.168L167.758 438.035L160.214 433.522L159.855 432.597L158.852 431.823L156.196 428.367L152.717 425.176L151.005 424.373L149.616 423.231L151.005 422.334L151.213 421.692L149.833 418.425L150.372 417.321L152.395 415.612L155.09 414.639L157.387 412.034L158.304 409.258L167.598 396.144Z" fill="black"/>
<path d="M66.834 337.221L68.1386 338.496L68.4034 339.534L69.5473 339.723L71.0978 340.856L75.9101 342.923L76.2599 342.536L76.4679 343.226L78.1035 344.33L80.0983 346.794L77.8955 346.001L70.4549 340.743L68.5641 339.968L65.8602 338.156L66.2478 337.712L66.7489 337.986L66.3896 337.278L66.5409 337.042L66.834 337.221ZM47.9632 283.188L43.0943 282.981L41.8747 282.367L41.5627 281.517L45.3728 278.902L48.4548 277.845L49.8824 277.023L55.1674 277.807L57.0961 279.11L56.7841 279.478L54.3354 280.243L52.662 281.159L51.3195 282.867L47.9632 283.188ZM113.368 244.102L114.795 244.205L116.006 244.687L117.821 244.168L118.445 244.536L159.008 294.688L92.0296 332.208L87.2363 335.2L82.2728 337.211L79.7012 337.485L76.1937 338.127L75.2294 337.816L72.9698 338.647L72.0716 338.892L71.3058 338.684L70.7953 338.977L69.5001 337.948L69.5284 337.655L70.6062 337.221L68.9612 336.598L68.583 336.116L67.4107 333.643L67.4485 332.642L67.0892 330.942H66.6071L66.5503 331.924L65.066 331.443L64.7162 331.622L66.3329 333.001L66.9947 334.502L67.0892 335.474L66.8529 336.069L66.4463 336.107L65.8413 335.644L63.3926 332L61.6625 330.31L60.7738 328.507L57.2379 325.561L53.7492 323.909L56.8124 324.022L57.3419 322.898L53.9761 323.059L53.0118 321.681L52.7471 321.945L51.9624 321.794L50.8657 321.105L50.497 321.407L50.6861 321.633L52.6998 322.955L52.8322 323.238L52.3216 323.522L48.1996 320.312L49.8541 320.614L50.1093 320.245L50.1472 319.415L49.3152 318.423L49.3246 317.451L50.5348 316.856L51.4424 315.912L51.2911 315.61L50.705 315.978L50.6104 315.733L50.3741 314.061L50.705 312.995L50.0432 313.457L50.1283 315.232L49.8352 315.931L48.0861 317.602L47.6796 319.868L45.2026 318.083L45.0608 317.668L45.4106 317.073L44.5313 316.261L43.8033 314.052L41.9219 311.56L40.4471 310.436L37.4784 308.935L37.5163 308.604L38.2726 308.51L38.1875 308.076L31.9288 303.412L32.5717 302.987L34.3869 303.799L34.8218 304.573L37.1003 305.007L37.7999 304.686L37.4217 304.29L35.8996 303.837L34.8312 302.666L34.8218 301.495L35.9752 300.239L35.8618 299.739L33.536 300.778L32.5717 299.248L31.9004 298.899L32.0233 297.945L31.059 298.521L30.8132 298.323L29.4612 295.66L30.1797 294.688L29.2154 294.49L29.3005 293.706L30.1041 292.337L29.8205 291.516L29.4707 291.478L29.1114 291.941L28.7616 291.563L28.4307 292.073L27.1733 292.139L26.0009 292.781L24.7152 292.734L23.9305 293.744L24.3559 294.112L25.2257 293.394L27.0504 294.924L26.8802 297.02L28.79 297.69L29.811 299.503L31.4466 300.872L31.7964 301.996L31.4466 302.628L27.2584 299.012L12.8028 290.166L8.36872 286.304L8 284.34L8.52944 283.972L8.23636 283.151L9.49378 279.648L10.7701 278.298L11.2995 276.731L15.0813 275.116L17.1896 273.049L18.6077 270.584L19.572 267.242L20.2149 266.071L20.8578 265.59L21.2265 266.071L20.9618 266.949L20.404 267.214L20.3473 268.281L19.676 269.744L21.2738 269.3L23.2403 269.65L27.7311 272.85L31.2386 276.419L32.5149 279.129L31.2953 278.836L30.9739 279.129L30.7848 280.403L33.0916 283.17L34.7178 283.415L37.5352 284.746L40.3525 285.426L41.3925 284.916L43.3684 284.746L44.9568 288.466L45.2782 288.004L45.2404 287.069L44.4179 284.756L46.8949 284.633L47.7458 285.152L47.8025 285.993L50.1093 287.088L50.0243 287.815L50.9508 289.533L51.5842 289.429L50.809 288.155L50.9791 287.626L50.5537 287.078L50.6482 286.531L48.2847 285.426L49.1261 284.067L50.5821 283.557L51.5937 283.576L54.6947 286.776L56.7557 286.531L58.3062 285.549L60.3483 285.445L61.3599 287.286L62.4283 287.437L63.8653 286.956L64.8107 287.201L66.9001 290.562L70.6251 292.573L72.7334 293.357L73.433 292.583L73.5276 290.572L73.8112 290.166L77.5551 290.609L77.8198 290.515L77.6213 290.071L76.8555 289.542L75.1254 289.939L73.8774 289.731L73.3196 290.137L72.6862 291.827L71.5516 292.262L67.3729 290.307L66.7583 288.749L65.2362 286.691L61.8799 286.389L60.7265 284.321L61.3127 282.575L61.7854 282.131L62.9483 282.367L64.2057 283.368L66.418 283.84L67.5525 283.5L68.0441 282.783L67.9212 282.462L66.2194 283.075L65.4725 282.971L63.3264 281.838L61.5679 281.461L60.7643 281.763L60.4712 283.906L59.8945 284.576L55.9426 286.314L54.7136 286.219L54.2125 284.982L52.4067 283.302L52.1798 282.462L52.9173 281.546L56.8408 280.035L57.5782 278.959L54.4678 276.967L72.4593 275.456L76.7137 275.428L78.822 275.588L80.8546 277.042L83.2466 276.551L83.9084 274.559L84.9956 274.965L87.4537 273.171L88.9664 273.445L88.9381 272.945L91.0464 271.547L91.7743 268.47L95.6506 264.948L93.9583 261.275L95.0833 259.821L94.7902 258.915L95.66 258.452L94.4972 255.535L94.4499 254.204L95.8775 251.806L95.8869 250.361L96.5015 249.568L97.1444 246.802L96.8513 245.631L100.368 243.488L101.087 241.902L101.768 241.26L106.92 239.853L109.586 241.326L113.368 244.102Z" fill="black"/>
<path d="M300.771 433.144L300.307 433.701L300.468 434.778H300.109L298.624 430.529L296.223 429.179L296.204 426.913L294.843 425.27L294.332 425.044L293.529 425.695L292.99 424.893L292.46 424.751L292.508 423.458L291.534 422.617L291.269 421.041L290.437 419.917L289.435 419.209L288.442 418.982L286.617 419.049L284.812 417.717L282.599 417.16L280.085 414.469L277.712 410.92L276.057 409.23L273.107 407.549L271.774 406.397L270.952 405.953L269.363 405.906L267.681 405.736L264.712 404.509L264.287 404.736L263.993 406.029L263.625 406.312L261.034 404.207L259.616 404.226L258.557 403.121L253.149 394.303L248.394 389.157L246.598 387.987L244.366 387.543L242.693 388.459L241.766 388.704L240.726 388.497L239.942 389.101L238.278 388.024L239.204 387.618L239.252 387.043L237.399 386.268L235.587 381.965L241.766 345.617L290.437 311.156L373.147 404.226L355.657 422.948L305.129 429.642L302.416 430.104L302.17 431.473L301.243 432.144L301.328 432.899L300.771 433.144Z" fill="black"/>
<path d="M217.129 419.266L217.563 419.832L218.499 420.134L221.44 420.191L221.657 419.209L222.612 419.53L223.312 420.559L223.283 422.259L224.125 423.533L223.851 425.582L222.224 426.177L216.958 425.469L214.954 426.545L214.094 426.517L213.763 426.111L214.065 424.845L214.368 424.883L214.68 425.62L215.266 425.459L215.228 425.053L214.604 424.005L213.205 422.882L213.895 422.41L213.961 421.89L215.124 420.729L214.86 419.53L215.805 419.521L216.42 418.907L217.129 419.266ZM203.562 384.39L204.753 382.124L204.346 380.745L204.677 379.99L209.386 380.16L211.891 379.405L212.231 379.518L211.881 380.528L213.252 380.49L213.706 380.83L213.753 381.718L209.811 388.26L207.135 394.378L206.899 396.814L206.842 399.788L207.551 402.073L208.128 402.573L209.423 402.224L211.276 402.998L212.647 405.396L212.316 406.18L211.702 406.067L210.473 404.792L209.159 404.16L208.535 404.32L208.346 404.82L208.743 407.747L209.064 408.021L209.414 407.606L210.01 408.068L211.257 410.495L211.749 412.61L212.808 413.856L213.129 415.281L212.127 416.499L212.912 418.879L212.799 419.747L212.071 420.389L211.569 421.475L210.407 421.314L210.199 421.843L208.554 423.231L209.215 424.222L208.97 425.723L210.01 427.215L211.305 427.442L211.465 427.782L211.059 428.339L208.951 429.736L206.02 430.076L204.167 430.671L203.855 431.313L182.171 439.085V411.233L200.451 389.658L203.562 384.39ZM198.995 375.401L201.552 372.524L203.562 370.164L217.151 369.22L226.133 374.363L224.125 379.782L222.149 380.368L221.392 381.264L220.929 381.302L220.296 380.802L220.069 381.066L220.504 381.803L219.974 382.397L217.611 383.039L215.266 382.426L214.86 381.906L214.888 381L213.025 379.121L208.138 379.461L205.122 379.225L202.938 378.574L200.782 377.469L198.995 375.401Z" fill="black"/>
<path d="M310.159 88.9153L314.47 88.8303L315.065 89.6895L316.881 90.5203L317.278 91.9742L316.294 93.4471L316.143 94.7028L315.377 96.1379L315.349 96.9592L316.219 97.6957L315.5 99.2724L317.079 101.179L318.819 101.397L319.963 103.294L319.868 104.446L318.686 105.749L318.195 105.891L317.76 107.543L318.422 108.44L318.478 111.584L317.637 112.301L316.625 112.566L316.436 113.264L316.758 113.982L317.968 114.662L315.737 116.54L317.212 117.381L318.025 119.288L319.216 119.505L319.793 120.931L333.218 121.724L328.802 144.364L330.258 151.143L306.783 189.153L313.113 309.268L226.479 337.119L141.518 324.846L167.517 233.737L227.576 178.853L228.918 177.937L229.466 176.257L228.975 174.784L226.479 173.084L227.301 169.44L227.16 164.191L227.755 163.416L229.192 163.35L230.109 162.878L231.641 161.188L232.454 160.745L233.948 160.943L235.858 161.859L237.55 160.49L238.24 157.874L239.167 157.619L241.568 158.044L242.75 156.874L244.329 156.411L245.529 154.551L246.598 154.466L247.231 154.051L247.893 152.106L249.604 151.785L249.547 153.305L250.162 153.758L253.962 153.966L254.35 152.351L255.154 152.144L255.541 149.878L255.976 149.321L256.506 150.18L257.139 150.293L257.404 148.509L258.671 149.963L259.002 148.546L259.994 148.688L260.268 147.649L261.289 147.13L261.564 146.328L262.178 146.233L263.076 147.253L263.776 146.885L264.712 147.026L265.09 145.988L265.894 145.95L266.244 145.336L267.321 144.864L267.567 143.986L268.267 143.543L267.917 141.239L270.262 138.973L270.451 138.491L270.063 137.443L270.659 136.707L270.782 135.102L269.987 134.139L270.233 133.469L271.254 133.242L271.557 134.347L272.748 134.517L274.563 132.373L274.875 130.948L276.038 130.636L277.296 129.787L278.43 129.796L279.64 130.457L281.711 129.456L285.313 129.409L286.939 129.947L288.159 129.551L289.435 129.985L290.938 129.494L291.515 130.542L292.101 130.599L292.479 130.249L295.391 125.264L294.701 124.414L293.292 124.122L293.084 123.829L292.763 121.261L291.713 121.573L290.465 120.27L290.172 117.947L288.385 117.607L287.724 116.748L289.851 114.095L291.137 110.687L292.016 109.469L293.084 105.796L296.214 102.501L296.838 100.528L297.537 99.7916L297.499 98.045L296.942 96.8459L297.358 95.6658L296.176 93.5132L296.422 93.0883L297.707 92.9656L298.946 91.9365L300.383 92.6163L302.576 95.4486L303.134 95.5336L304.08 94.8255L305.498 94.9482L306.471 93.6737L308.202 92.8334L310.461 89.3873L310.159 88.9153Z" fill="black"/>
<path d="M145.408 351.27L145.163 351.345L144.576 350.24L144.529 349.391L145.276 348.994L146.524 349.306L146.808 349.929L146.061 350.561L145.408 351.27ZM167.645 315.572L157.765 328.639L157.274 329.281L157.85 330.348L156.924 330.612L156.905 330.942L157.85 331.273L157.264 332.066L157.926 333.114L158.162 333.416L159.552 333.775L159.892 334.219L159.306 335.068L159.751 335.739L159.042 336.409L159.297 336.994L159.051 337.202L156.858 336.381L153.416 337.58L153.151 337.948L149.88 338.599L147.744 339.572L146.061 340.856L145.229 342.083L144.217 344.651L142.402 346.266L141.74 346.502L138.507 346.313L133.052 343.886L132.579 343.471L132.683 343.197L133.411 343.103L133.506 342.772L132.749 341.781L131.01 342.442L129.383 343.971L129.573 344.944L130.244 345.812L129.629 349.268L131.066 351.383L131.823 353.932L132.91 354.593L134.744 354.706L137.07 355.329L139.906 357.236L142.128 357.718L143.881 358.834L140.511 361.844L137.892 367.933L138.346 368.604L140.747 369.255L141.551 370.228L141.579 371.172L140.814 372.711L141.088 374.41L138.819 375.486L137.798 377.091L135.519 378.045L133.647 379.338L132.201 380.972L128.107 380.198L126.084 381.208L124.571 381.529L124.004 382.775L125.318 386.098L125.309 387.467L122.189 389.922L119.419 384.635L116.412 380.283L116.176 379.697L116.422 378.961L115.476 377.686L115.505 376.733L114.795 374.797L113.822 374.051L113.878 372.833L112.432 370.36L113.084 370.265L112.29 368.113L111.439 368.084L110.645 367.235L108.206 365.951L105.956 364.166L93.0318 356.188L84.608 350.486L84.2393 350.165L84.3433 349.797L83.5491 349.551L80.1267 346.785L78.1318 344.321L76.4962 343.216L76.2882 342.527L73.2534 339.572L73.0076 338.647L75.2672 337.816L76.2882 332.398L147.744 288.496L167.645 315.572Z" fill="black"/>
<path d="M113.321 200.492L116.091 199.171L118.984 199.69L123.437 199.916L126.037 200.728L127.871 202.277L128.079 205.458L128.939 206.544L132.059 208.121L133.704 207.866L134.98 209.093L136.342 208.782L137.817 207.583L140.294 206.676L142.43 206.214L144.576 206.185L156.234 208.319L157.34 209.169L159.155 208.225L161.405 208.13L162.7 207.63L166.501 204.769L168.089 204.042L171.871 204.099L174.499 204.769L175.171 205.496L176.078 204.958L178.149 205.166L179.661 204.316L182.942 207.243L186.951 210.189L188.009 211.642L188.331 214.163L191.536 216.533L192.737 217.789L191.479 218.62L191.129 220.395L190.534 221.093L190.146 222.472L157.34 304.075L116.261 256.868L117.821 244.177L116.006 244.687L114.795 244.205L115.779 243.828L119.636 241.014L120.08 239.551L120.09 237.606L119.201 232.442L118.908 232.092L116.261 231.214L115.514 229.723L115.845 228.59L117.84 225.974L117.868 224.955L117.509 222.896L116.147 219.837L115.193 211.444L114.588 210.066L112.772 209.197L112.63 208.867L112.734 207.583L114.54 201.578L113.321 200.492Z" fill="black"/>
<path d="M143.881 358.834L146.354 359.408L149.531 361.882L152.008 362.939L154.485 360.116L157.311 358.351L160.488 358.001L163.674 358.351L166.142 362.939L167.21 363.647L166.851 366.47L165.083 368.236L163.674 368.944L162.606 372.475L170.746 372.824L174.272 370.709H184.88L185.239 361.532L186.648 359.059V356.944L187.357 354.47L184.53 353.762L182.053 352.346L179.935 353.054L177.808 356.236L177.109 356.585L176.4 357.642L173.923 358.001V352.705L171.805 349.523L170.387 346.351L167.56 342.47L166.501 336.466L164.374 332.935L158.124 333.397L150.026 326.734L207.225 312.1L217.152 353.762L226.133 361.882L220.933 372.996L201.17 375.383L198.995 375.401L195.582 374.335L194.278 374.627L182.942 397.543L151.005 422.334L149.616 423.231L144.851 419.945L140.984 416.433L140.615 414.337L138.989 411.316L134.697 406.152L130.111 402.347L129.45 400.751L129.279 399.109L127.464 395.955L124.165 392.632L124.089 392.075L122.737 391.272L122.151 389.941V385.741L121.191 380.077L140.483 361.882L143.881 358.834Z" fill="black"/>
<path d="M198.995 375.401L200.744 377.45L201.378 378.196L201.255 378.678L201.85 379.669L201.709 381.708L202.219 382.067L203.656 381.878L203.874 382.105L202.465 383.71L202.673 384.55L203.562 384.39L203.24 389.686L198.003 396.465L197.218 398.174L195.563 398.419L194.618 398.976L194.259 401.516L191.602 405.359L189.607 411.231L188.851 409.994L188.331 409.768L187.811 410.117L185.674 409.824L184.351 409.182L181.297 409.06L181.751 407.832L180.295 407.596L180.919 406.831L180.711 405.491L181.864 403.99L181.694 403.829L178.536 402.422L177.421 399.892L171.417 398.108L167.598 396.144L170.216 392.141L174.083 395.596L179.056 393.397L181.07 390.026L177.222 385.806L180.815 380.783L184.133 379.716L186.383 376.695L188.7 376.053L190.874 376.232L192.065 375.987L194.278 374.627L195.582 374.335L198.995 375.401Z" fill="black"/>
<path d="M199.09 151.124L199.269 152.474L198.749 154.211L197.435 156.685L197.18 158.469L198.069 160.537L205.774 166.457L207.958 168.534L208.903 170.044L211.059 170.96L211.626 170.545L211.796 169.289L212.543 168.392L215.294 168.704L216.703 169.412L217.545 170.592L217.469 173.604L218.802 174.84L219.322 176.285L219.984 176.549L220.456 177.541L221.26 177.899L223.529 177.994L225.827 177.371L226.706 177.673L227.576 178.853L174.613 238.457L116.091 199.171L113.321 200.492L110.948 199.577L110.711 198.189L113.236 192.448L113.358 191.74L112.64 188.37L113.254 185.669L115.665 185.547L117.613 184.338L118.643 184.055L124.136 184.546L125.64 185.122L127.001 185.037L128.154 184.47L130.471 184.754L134.328 183.866L136.181 182.469L137.675 182.507L139.169 182.799L140.521 184.744L143.187 186.123L146.032 185.877L148.623 184.537L149.341 184.971L150.041 186.935L150.712 187.35L152.216 187.001L155.109 187.303L155.903 187.123L157.122 186.057L157.557 186.104L158.436 187.067L159.864 187.246L160.535 186.991L163.353 184.744L164.308 182.459L165.631 180.939L165.953 179.438L165.461 177.739L165.735 177.286L168.033 176.134L168.524 174.557L171.219 172.792L172.334 170.743L173.752 169.676L174.613 167.769L176.891 166.598L177.648 165.125L178.725 164.559L178.262 162.472L178.442 161.736L178.706 161.424L181.817 160.952L184.228 159.253L184.398 158.365L182.592 156.968L182.753 155.58L185.996 154.221L188.161 152.474L189.333 151.926L191.659 151.756L192.576 151.313L195.923 151.369L198.447 150.406L199.09 151.124Z" fill="black"/>
<path d="M258.983 451.375L259.162 452.584L260.372 453.906L260.741 455.435L260.892 457.22L260.363 459.438L259.37 460.524L257.773 461.242L255.702 462.035L254.312 462.12L252.79 461.808L251.476 461.1L250.474 459.665L248.904 458.343L247.997 455.652L248.611 453.434L248.243 452.697L245.992 450.903L244.782 450.469L242.324 450.526L242.277 451.668L241.209 452.187L240.528 451.451L239.677 451.328L237.484 452.697L236.444 452.811L233.778 451.3L231.745 449.402L231.887 448.562L233.91 445.333L234.042 443.69L235.082 442.727L238.42 441.047L241.691 440.103L243.251 440.15L244.461 439.328L246.626 439.234L248.914 441.047L249.216 441.66L249.235 442.378L248.649 444.379L249.122 448.194L249.613 449.931L251.022 451.366L252.696 451.168L253.584 451.498L255.437 450.884L257.489 451.678L258.009 451.328L258.056 450.658L258.727 450.847L258.983 451.375ZM211.021 428.348L211.135 428.82L212.808 430.208L214.018 431.945L214.396 432.002L214.387 431.247L213.631 430.142L213.148 426.819L214.737 427.64L215.266 432.323L216.268 436.524L218.046 441.774L222.943 449.166L223.312 450.677L223.359 453.056L224.399 456.757L224.597 458.702L226.517 463.092L228.332 465.934L230.554 468.37L232.473 469.182L236.245 474.677L238.505 476.489L241.294 479.397L242.778 479.473L243.09 478.708L243.487 478.651L245.34 478.991L246.73 480.115L249.878 481.276L252.506 484.174L253.216 484.599L254.246 484.571L254.965 485.572L256.808 486.997L257.754 487.384L258.831 487.016L259.323 487.243L260.051 487.781L263.001 489.235L265.941 489.122L272.143 490.132L274.516 491.388L276.171 490.906L277.522 490.991L284.32 495.211L285.02 495.315L286.022 494.824L288.442 496.24L290.919 496.401L291.439 496.089L292.167 499.082L291.808 500.451L289.87 499.753L272.758 491.189L266.281 491.218L254.265 486.809L253.66 486.421L249.935 481.569L244.149 480.577L243.147 480.983L242.296 483.325L234.09 496.986L232.445 496.845L231.026 495.57L228.597 495.523L228.077 494.673L226.866 494.607L226.214 493.625L225.628 493.861L224.891 493.408L224.673 493.748L223.331 492.785L223.208 492.067L222.366 491.218L222.508 490.113L222.385 489.377L221.988 489.112L222.12 488.584L220.192 485.081L217.885 482.475L217.355 482.551L216.684 480.964L216.126 480.861L214.926 479.369H214.368L213.98 478.576L213.3 478.311L213.12 477.49L213.574 477.358L213.687 476.669L212.127 476.367L211.655 475.838L212.241 475.394L212.137 475.054L210.548 474.96L210.274 473.317L209.802 472.496L209.007 472.222L208.988 471.589L208.412 471.089L208.1 470.985L207.826 471.325L206.927 470.843L206.852 470.154L206.294 469.965L204.857 468.134L202.645 466.774L202.068 466.585L201.586 466.954L200.933 466.264L200.243 466.708L199.931 466.548L199.837 465.811L198.475 464.555L198.4 463.706L197.218 463.064L196.584 463.139L195.138 462.101L195.696 461.496L195.431 460.892L193.937 459.457L191.801 458.702L189.73 455.492L184.89 451.838L181.637 450.866L180.408 448.977L180.578 447.448L179.727 446.183L180.408 444.278L179.727 442.727L178.39 436.524L206.28 428.348H211.021Z" fill="black"/>
<path d="M320.596 489.735L320.227 491.029L321.683 491.756L321.343 492.398L320.161 492.341L316.89 489.679L316.276 488.47L318.214 489.688L320.596 489.735ZM315.236 488.244L315.396 488.48L315.255 488.678L313.997 488.442L313.439 488.735L313.297 488.499L313.647 487.677L313.335 486.384L314.441 486.11L314.867 485.638L314.848 487.828L315.236 488.244ZM305.687 486.431L305.233 487.705L305.242 489.178L304.826 489.32L303.976 487.951L304.562 486.969L304.628 486.044L305.791 485.298L305.687 486.431ZM309.128 483.41L310.055 484.741L310.679 484.76L311.01 486.233L311.719 487.413L311.114 487.781L309.629 487.857L307.077 489.679L305.914 487.29L306.793 485.449L306.301 483.901L306.783 483.646L308.561 484.005L308.703 483.476L309.128 483.41ZM300.771 433.144L301.291 432.814L301.205 432.059L302.132 431.388L320.927 406.984L453.779 510.355L455.764 512.291L457.333 513.235L457.466 513.867L457.163 514.358L457.504 514.698L459.404 514.774L459.271 513.886L457.797 512.527L458.884 512.621L459.763 512.291L461.663 512.621L461.569 513.301L463.488 515.642L463.063 517.389L464.084 518.682L464.226 519.485L463.885 522.988L464.954 526.075L464.689 527.264L463.441 529.115L462.486 529.596L460.482 529.984L458.789 529.615L458.014 530.267L456.558 530.38L455.357 530.918L453.561 532.08L450.413 532.023L447.841 534.685L445.96 534.534L444.627 534.987L444.249 535.809L441.999 537.763L438.094 537.499L437.347 538.188L435.012 539L434.161 538.896L433.338 537.329L430.502 536.517L429.935 535.913L429.566 534.563L425.992 532.523L424.064 529.634L422.882 529.795L422.523 531.23L421.473 530.767L420.481 530.796L419.942 531.334L419.62 532.401L418.93 532.599L417.796 532.514L415.233 531.334L413.57 532.089L412.548 531.862L411.811 529.804L407.056 530.276L405.184 529.832L403.955 530.796L403.302 529.124L402.328 528.501L400.967 528.18L400.674 527.567L399.842 527.179L399.624 526.481L401.685 525.622L401.667 525.008L402.168 524.187L401.657 522.591L401.96 521.902L401.685 521.08L401.203 520.476L399.275 519.825L398.452 518.975L394.67 518.239L392.959 515.869L390.993 515.387L389.858 515.444L389.281 514.868L388.147 512.319L387.022 511.545L386.956 510.94L387.797 508.524L386.256 506.286L385.642 506.305L383.949 507.995L381.085 508.835L379.373 510.365L378.57 510.638L377 510.459L375.355 509.553L371.536 505.38L369.333 504.162L363.131 501.83L361.987 499.734L357.959 501.055L349.99 496.41L349.64 496.354L323.187 512.187L314.706 508.656L291.902 500.451L292.262 499.082L291.534 496.089L292.593 495.598L293.056 494.796L294.304 495.561L295.76 495.816L297.008 497.203L297.925 497.638L299.57 497.468L300.288 497.043L301.565 497.59L304.609 497.515L305.063 497.921L305.441 499.035L306.84 498.978L307.682 499.639L312.333 499.054L312.976 499.526L313.071 501.122L313.77 501.669L315.255 501.612L318.989 500.583L320.662 502.434L321.116 503.406L321.854 503.718L323.726 503.491L327.772 501.584L331.431 501.707L333.085 500.734L334.135 499.394L335.77 498.44L337.68 498.563L336.498 497.855L337.86 494.522L336.952 492.785L336.044 492.237L335.647 490.557L335.818 487.923L335.392 484.146L335.94 482.909L335.383 482.05L336.158 480.445L335.033 479.52L334.04 474.148L331.998 473.024L330.523 472.807L328.916 471.212L326.76 470.437L326.77 469.946L327.734 469.729L327.309 467.681L325.181 466.434L324.104 466.368L323.366 464.574L323.461 463.489L322.799 459.316L323.328 458.428L322.553 456.785L321.958 456.445L320.927 457.39L320.294 458.57L319.698 458.522L318.318 456.578V455.548L317.268 454.236L317.429 452.735L316.654 452.612L315.727 451.281L313.193 449.279L310.253 444.795L309.346 444.389L308.41 443.209L306.897 442.557L305.952 441.179L305.536 438.913L303.333 436.411L302.671 434.834L301.045 434.561L300.771 433.144Z" fill="black"/>
</svg>
