<svg width="1000" height="1000" viewBox="0 0 1000 1000" fill="none" xmlns="http://www.w3.org/2000/svg">
<path fill-rule="evenodd" clip-rule="evenodd" d="M36.7876 708.672L37.9332 709.245L38.7924 708.744L39.1503 709.675L40.4391 710.677L41.2267 712.324L40.5823 712.753L39.2219 712.109L37.432 711.966L36.6444 714.114L35.2841 714.615L34.4249 714.4L34.067 714.973L33.5658 714.328L32.7782 714.686L31.4179 714.615L30.9167 713.326L29.7711 713.254L29.5563 712.395L28.554 712.037L28.2676 712.682L27.9812 711.464L27.4084 711.822L27.9096 710.892L27.6232 710.534L26.1913 709.889L25.4037 709.03L24.0434 708.744L23.6138 709.317L23.041 708.815L23.1126 707.025H23.6854L24.0434 706.238L25.4037 706.166L26.1913 705.737L26.5493 704.448L28.0528 703.732L29.4847 703.804L29.5563 703.374L30.6303 703.804L31.0599 704.663H31.7043L32.3486 705.45L34.2101 705.952L35.3557 706.023L36.6444 707.741L36.7876 708.672Z" fill="black"/>
<path fill-rule="evenodd" clip-rule="evenodd" d="M954.446 329.638L953.516 329.208L951.941 326.559L949.506 321.118L948.432 320.044L947.358 317.967L946.642 317.323L944.924 314.531L943.922 311.595L943.062 307.085L943.134 305.509L943.707 303.505L944.566 301.715L945.21 299.28L945.568 298.708L947 297.705L948.074 295.915L948.575 293.195L949.578 290.546L950.365 289.758L951.153 289.257H952.513L955.52 290.116L957.597 290.474L961.177 290.259L966.403 288.326L968.408 287.181L972.274 285.391L971.415 287.825L970.842 288.398L970.699 289.328L969.84 291.476L969.41 293.553L969.339 295.629L969.768 298.063L970.842 301.643L971.272 302.431L971.701 304.221L972.918 308.23L973.348 310.378L973.849 313.17L974.207 314.387L976.069 318.468L976.212 320.044L975.639 322.836V326.344L976.069 330.497L976.928 334.148L976.999 335.365L976.57 336.439L975.711 337.298L974.708 337.943L973.062 338.014L970.413 336.439L968.981 335.437L967.907 334.435L965.616 332.573L965.043 332.358L961.821 331.929L959.745 331.857L958.241 331.428L956.666 331.213L954.446 329.638Z" fill="black"/>
</svg>
