<svg width="578" height="578" viewBox="0 0 578 578" fill="none" xmlns="http://www.w3.org/2000/svg">
<path fill-rule="evenodd" clip-rule="evenodd" d="M77 50.0775L77.7791 49.2277L78.0624 49.8651L78.204 50.1484L78.3456 50.6441L82.4534 49.7234L82.1701 48.8735L82.0993 48.307L82.2409 48.5902L82.4534 48.8027L82.7367 49.0152L83.0908 49.086L83.3741 49.0152L83.5866 48.9444L83.9407 48.6611L84.224 48.3778L84.5073 48.1653L84.7197 48.2361V47.9528L85.428 47.3154L85.9946 46.4655L86.2779 46.2531L89.1816 46.8905L90.244 47.3154L91.5896 47.4571L91.9437 47.5987L92.7228 47.2446L94.635 46.678L94.7058 46.9613L95.2724 47.882L96.6889 47.9528L96.4056 47.103L95.6265 44.6241L96.4056 42.7827L97.3263 42.287L97.7512 42.1453L99.1677 41.9329H100.372L101.434 41.7912L101.717 41.9329L102.213 42.0745H102.426L103.063 42.1453H103.488L103.913 42.0745L103.559 40.7289L103.205 39.3832L102.496 36.7628L103.205 35.842L103.559 35.3463L104.267 34.3548L104.975 33.2924L106.038 31.5926L106.392 30.9552L107.312 31.2385L109.366 31.3802L109.933 32.7258L110.429 34.9922L110.783 35.6296L110.57 36.5503L110.783 37.3293L112.624 37.4002V37.6126L116.59 37.8251L116.024 37.046L116.732 36.9752L117.936 36.9044H119.423L119.777 37.471L121.619 37.4002L124.735 37.2585L125.868 38.5333L126.506 38.0376L124.735 35.2755L124.381 34.6381L132.738 29.1847L133.234 29.8221L134.367 31.5218L135.854 30.6719L137.2 30.3178L137.908 30.1054L138.687 28.7597L139.749 27.6974L140.245 27.1308L140.529 26.8475L141.378 26.2101L142.299 25.5018L143.149 24.8644V23.8021L142.937 22.8814L143.574 22.6689V22.5273L144.141 22.1023L144.495 21.8898L144.636 21.4649H144.99L145.061 21.6774L145.486 21.4649L146.124 21.1816L147.398 20.615L148.815 19.5527L149.24 19.1277L148.602 18.4903L147.328 17.2863L147.257 17.1447L147.469 16.7197L146.761 16.0115L147.894 14.9492H147.823L148.177 14.595L149.169 15.2325L149.594 14.8075L149.948 14.5242L150.019 14.595L152.639 12.4703L152.427 12.2579L152.923 11.9746L152.569 11.3372L152.993 11.1247L152.923 10.9122L153.348 10.6289L157.172 11.4788L157.314 11.6205L157.455 11.5496L159.863 12.0454L162.909 9L163.121 9.14165L163.263 9.42494L163.546 9.77906L163.688 9.84988L163.759 9.49576L163.971 9.70823L164.042 9.9207L164.325 10.0624L164.396 10.204L164.538 10.2748L165.033 10.4873H165.388V10.204L165.529 10.1332L166.45 9.35412L166.592 9.28329L166.733 9.35412L167.087 9.9207L167.654 10.3456L168.575 11.0539V11.3372V11.4788V11.6913L169 11.9746L169.283 12.0454L169.495 12.1871L169.849 12.1162L170.133 11.9038L170.204 11.9746L170.912 12.5412L171.337 13.3202L171.691 13.8868L171.832 14.0285L172.187 14.5242L172.612 14.9492L172.682 15.1616L173.036 15.3741L173.461 15.4449L173.674 15.5866L174.028 15.7282H174.453L174.949 15.6574L175.161 15.799L175.586 16.1532L176.082 16.4365L176.294 16.2948L176.436 16.4365L176.648 16.3656L176.861 16.8614L177.073 17.0739L177.569 17.3572L177.782 17.4988L178.136 17.5696L178.348 17.7113L178.702 18.1362L179.127 17.7113L181.394 16.1532L181.96 15.5157L182.243 14.9492L182.385 14.8783H183.306L184.368 14.6659L185.218 14.2409L186.847 13.391L187.626 13.1786L188.122 12.9661L188.547 12.8245L189.255 12.3995L189.892 11.7621L190.601 11.0539H191.592H192.938L193.646 11.1247L194.354 11.0539H196.054L197.329 10.9831H198.745L198.816 10.9122L199.454 11.4788H199.524L199.595 11.9038L199.737 12.3287L199.808 12.7536L199.949 13.391L200.091 14.2409L200.233 14.6659L200.374 15.0908L200.516 15.3033L200.658 15.5157L200.941 15.6574H201.153H201.578L202.145 15.4449L202.782 15.1616H203.207L203.42 15.3033L203.561 15.4449L203.632 15.799L203.703 15.6574L204.128 14.8075L204.411 14.3826L204.765 13.8868L205.403 12.9661L205.615 12.612L206.536 11.3372L206.89 10.8414L207.032 10.9831L207.386 10.9122L207.669 10.9831L207.952 11.2663L208.023 11.4788L207.74 11.6913L207.811 12.612L208.023 13.0369L208.873 13.7452L210.006 14.595L210.077 14.5242L210.644 14.8075L210.856 15.2325H211.069V15.6574L211.139 15.7282L212.06 15.5866L214.326 14.4534L215.389 13.7452L215.601 13.391L216.522 14.1701L218.293 15.7282L218.505 17.003L220.488 17.9237L220.842 18.7028L222.329 17.7821L222.542 18.1362L222.684 18.2779V18.4903L222.471 18.7736L222.542 19.0569L222.471 19.2694L222.684 19.4819L222.754 19.6235L223.038 19.836L223.746 18.5612L223.958 18.3487L224.1 18.4903L223.888 18.632L223.746 18.9153V19.1986L223.888 19.4819L224.313 19.6943L224.737 19.7651L225.092 19.6235L225.517 19.4819L225.871 19.5527V19.6943L225.375 19.9068L225.092 20.3317L224.454 20.4734L224.242 20.4026L224.029 20.8983L224.242 21.2524L224.383 21.6066L224.808 22.1023L224.95 22.4564L225.8 22.9522L226.862 23.5188L227.854 24.1562L227.925 24.652L228.208 25.1477L228.42 25.7143L228.633 25.6435L228.774 26.0684L228.562 26.2809L229.837 27.4849L231.537 29.1847L231.891 29.4679L232.245 29.8929H232.032L231.607 30.7428L231.749 31.451L232.174 32.5842L233.165 35.1338L233.449 35.7004V35.9129L233.024 36.0545L232.882 36.267L232.953 36.7628H232.457V36.8336L232.811 37.1169L233.378 37.5418L234.865 38.8875L235.644 39.5249L235.998 39.879L236.494 40.2331L237.273 40.9413L238.265 41.862L241.664 41.2954L242.585 41.083L244.143 42.1453L245.56 43.066L246.197 43.5618L246.48 44.5533L247.613 48.2361L247.755 48.8027L248.038 49.7942L248.817 51.2107L249.455 52.4855L252.925 51.3524L252.571 50.5025L254.908 49.8651L255.9 53.5479L255.404 53.6895L255.687 54.3978L255.546 54.4686L255.687 54.7519H255.758L255.829 54.8227L256.112 55.8142L257.458 55.4601L257.883 56.9474L259.158 56.5933L260.999 58.4347L262.274 59.7095L264.186 61.6926L263.195 64.1714L263.62 64.8088L263.832 64.738L263.903 65.0921L264.399 66.7918L266.311 66.2961L267.161 68.9165L267.586 70.758L267.231 70.8288L267.444 71.7495L267.869 71.6078L268.223 73.0243L268.435 72.9535L268.719 73.0243L268.931 72.9535L269.144 73.0951L269.427 73.0243L269.569 73.2368L269.923 73.1659V72.8827L270.135 72.9535L270.277 72.8118L271.127 72.4577L271.198 72.5285L271.41 72.3161H272.047L273.322 72.4577H275.022L275.659 72.5285L275.801 71.537L275.943 70.9704L276.084 70.333L276.368 69.1998L276.58 67.925L278.492 68.7041L280.192 69.4123L280.617 69.554L280.546 70.0497L280.334 71.0412L280.192 72.1036L280.051 72.9535L279.909 73.3076L279.059 73.4492L278.776 74.2283L278.563 74.9365V75.5739L278.422 77.9111V80.1775L278.209 80.1066V80.1775L278.492 80.4608L278.422 80.9565L277.926 82.3022L278.563 83.0812L278.492 83.5062L278.28 84.4977L278.776 86.6224L277.147 88.4638L276.793 89.6678L276.509 90.801L276.155 91.7217L275.659 92.2882L274.81 93.1381L274.88 93.6339L275.164 95.3337L275.376 96.7501L275.447 97.5292L277.855 96.7501L278.492 97.8833L279.696 99.5831L279.484 99.9372L280.051 100.858L280.617 101.92L280.334 102.204L280.83 102.912L281.396 103.974L281.609 104.257L281.184 104.541L280.759 104.966L280.192 105.603L279.909 106.099L279.555 106.595L278.988 107.232L277.997 107.728L276.651 108.578L275.164 109.428L276.014 110.773L275.376 111.127V112.331H275.872H279.342H281.679L282.6 113.039L283.521 113.677L284.442 114.385L285.008 114.456L285.15 114.668L285.504 115.164L285.433 115.377L285.575 115.589L285.433 115.802L285.716 115.872L285.858 116.014L285.929 115.872H286.141L286.283 116.014V116.227L286.141 116.439V116.651L286.495 117.218H286.425L286.071 117.289L285.716 117.218L285.646 117.289L285.858 117.643L285.929 118.21L285.858 118.351L285.716 118.422H285.433L285.15 118.564L284.937 118.705L285.008 118.918L285.362 119.059L285.221 119.201L284.867 119.272L285.929 120.122L286.354 120.405L287.416 120.901L288.549 121.467L289.541 121.397H290.532L290.886 122.813L291.099 123.096L291.241 123.167V123.592L291.453 123.663L291.595 123.592L292.02 124.938H291.453L291.595 125.788L292.728 125.859L292.94 126.142L293.082 126.213L293.153 126.142L293.365 125.929L293.578 126.992L293.649 127.558L294.286 128.267L294.569 128.621L295.065 128.833L295.49 129.046L296.269 129.683L296.765 130.037L297.331 131.029L297.756 131.524L298.465 132.303H298.748H299.527L299.739 133.082L299.952 133.791L300.023 134.145L300.235 134.711L300.731 134.641L302.997 134.145L304.414 133.862L305.051 133.72L304.768 135.986L305.759 136.128V136.27L306.751 135.703L307.176 136.553L307.601 137.403L308.309 138.89L308.521 138.748L309.655 138.182H310.15L310.717 138.04L311.567 137.686L312.629 137.615H313.196L313.762 136.907L314.187 136.553L313.762 135.986L314.187 135.632L314.046 135.49L314.471 135.136L314.966 134.711L315.25 134.995L315.462 135.49L316.383 134.641L316.737 135.066L316.879 134.924L317.233 135.278L316.879 135.561L317.233 135.986L316.879 136.27L316.808 136.482L316.949 137.119L317.304 137.686L317.658 138.819L317.799 139.102V139.386L317.941 140.236L318.437 140.802L319.145 141.44L319.712 141.865L319.145 143.281L320.774 145.406L321.199 145.052L321.695 145.335L323.465 146.256L324.103 146.539V146.681L324.386 146.751L324.457 146.893L324.811 147.035L326.369 148.31L326.511 148.38L328.281 146.539L329.06 146.893H329.556L329.485 147.035L330.193 147.106L330.973 147.247L331.114 146.893L331.61 147.035L331.539 147.46L332.318 147.743L332.389 147.46L333.026 147.53L332.885 147.955L333.451 148.097L335.08 149.514L336.001 148.947L338.692 150.009L339.4 148.451L339.967 148.947L340.18 149.159L340.321 149.584L340.534 149.655L340.888 149.938L341.029 150.08L341.95 150.505L342.163 150.788L342.375 150.93L342.588 151.213L342.8 151.709L342.942 152.134L343.083 152.276L343.296 152.346L343.508 152.559L343.579 152.417L345.137 152.913L347.545 153.834L347.616 154.117L348.041 155.179L348.608 156.596L348.891 156.737L349.103 156.596L349.457 156.737L349.953 156.95H350.236L350.732 156.808L351.37 158.083L351.653 158.508L351.724 158.933L352.149 160.279L352.007 161.553L351.582 161.837L349.528 162.97V163.182L349.032 163.395L348.891 163.607L348.537 163.537L348.324 163.607L348.041 163.537L347.758 163.607L347.12 164.103L347.049 164.528L346.908 164.811L346.766 165.024L346.695 165.449L346.412 165.661L346.341 166.228L346.2 166.299L346.483 166.865L346.766 167.29L347.12 167.503L347.404 167.786L347.545 168.353L347.049 168.707L346.695 169.132L346.624 169.486L346.27 169.769L345.916 170.265L345.704 170.69L345.42 170.902L345.137 171.044L344.925 172.106L344.712 172.389L344.216 172.744L344.146 173.027L344.004 173.169L343.933 173.452L344.075 173.877L344.216 174.089L344.5 174.797L344.783 175.647L342.375 176.214L341.667 176.356L341.596 176.639L341.384 176.78L341.171 176.568L341.242 176.214H340.888L340.18 176.285L339.967 176.356H339.825L339.684 176.072V176.426L339.542 176.639L339.188 176.78L339.259 177.205H339.188L338.976 176.922H338.763L338.976 177.205L338.763 177.276L338.621 177.135V177.347L338.551 177.489L338.267 177.63L338.126 177.489V177.205L337.772 177.418L337.701 177.489L337.488 177.347L337.347 177.772L337.205 177.843L337.134 177.772L337.276 177.489L337.134 177.418L336.992 177.63V177.418L336.922 177.347L336.78 177.701L336.709 177.63V177.347L336.568 177.418L336.284 177.701L336.072 177.772L335.718 177.843L335.364 178.268L335.08 178.551L335.434 178.905L336.78 180.392L336.922 180.18L337.772 180.747L337.347 181.101L337.984 181.667L338.267 181.809L339.825 182.517L339.684 182.871L340.604 183.296L339.825 184.5L340.817 185.35L342.233 186.412L343.012 187.05L343.721 186.837L345.208 187.121L346.27 187.404L346.624 187.687L347.191 187.971L347.616 188.254L348.253 188.608L349.457 189.175L350.024 189.458L351.228 190.308L351.653 189.883L352.149 190.095L352.22 190.024L352.857 190.449L353.14 190.52L353.423 190.733V190.804L353.99 191.37L353.919 191.653L353.99 191.795L354.557 192.22L354.627 192.645L354.486 192.787H354.415L354.344 193.07L354.415 193.424L354.698 193.707L354.911 194.274L355.123 194.557L355.194 194.982L355.052 195.195L355.123 195.336L355.265 195.69V196.257V196.611L355.336 197.319L354.698 197.532L353.778 197.815L352.432 198.311L351.37 198.382L350.378 198.594L349.882 199.161L349.174 199.515V199.656L349.032 199.586L348.537 199.869L348.324 199.727L347.899 199.869V200.081L347.758 200.223L347.545 200.152L347.404 200.011L347.191 199.94L347.049 200.011V200.294L346.837 200.365L346.412 199.869L346.27 199.798L345.987 199.94L345.845 200.081V200.365L345.491 200.435L345.35 200.294V200.152L345.279 200.011L344.854 199.869L344.641 199.515H344.429L344.287 199.727L344.358 199.869V200.011L344.004 199.94V199.586L343.862 199.515H343.65L343.579 199.727V200.011L343.721 200.294L343.579 200.506H343.296L343.083 200.365L342.8 200.152V199.94L342.658 199.798L342.446 199.869L342.304 200.011L342.163 199.94H342.021L341.738 199.656L341.242 199.798L341.029 199.869L340.817 200.081H340.534L340.392 200.011L340.321 200.294L340.25 200.365L339.825 200.223L339.684 200.294L339.755 200.577L339.471 200.506L338.976 200.294L338.763 200.506H338.621L338.409 200.294L337.913 200.081L337.559 200.294L337.63 200.577L337.417 200.719L337.134 200.577L336.497 200.435L336.213 200.506L336.001 200.577L335.647 200.86V201.144L335.505 201.285V201.569L335.151 201.994L335.009 202.631L334.797 202.914L335.08 203.198L334.797 203.552L334.939 203.623L334.868 203.693L335.08 203.906L335.293 203.835L335.222 204.331L335.009 204.402L334.939 204.26H334.797L334.726 204.047L334.372 204.189V204.402L334.514 204.543V204.685L334.726 204.756V204.897L334.868 204.968L335.009 204.685L335.08 204.756V204.968L334.868 205.251L334.655 205.322L334.726 205.464L335.293 205.393L335.364 205.464L335.505 205.889L335.364 206.031H335.222L335.08 205.889L334.655 206.172L334.868 206.81L337.134 207.659L337.842 210.138L338.267 212.475L338.621 212.971L339.117 213.255L340.392 213.75L345.704 213.325L348.183 213.75L353.14 213.892L354.84 214.246L356.752 215.238L358.806 216.371L360.293 219.204L360.364 219.487L360.718 222.037L360.577 226.64L361.143 228.057L361.639 228.906L362.135 229.331L362.701 229.686L363.622 229.969L367.092 228.836L367.801 228.977L368.721 229.331L369.925 229.969L370.988 230.677L371.483 230.89H372.05L373.254 230.819L373.75 230.677L376.158 229.898L377.503 229.756L378.637 229.898L379.416 230.181L379.982 230.465L381.186 231.173L382.036 231.244L383.382 230.677L383.948 230.606L394.147 233.014L395.917 233.581L396.909 233.722L398.609 233.51L399.459 234.006L400.167 236.272L400.238 236.839L401.513 238.538L402.362 239.247L402.575 239.742L402.433 241.726L403.283 245.762L404.558 246.966L406.824 248.879L407.178 249.233L407.462 250.649L407.887 252.561L412.561 256.032L412.986 256.244L413.482 256.386L414.119 256.457L415.252 256.386L416.244 256.244H417.094L417.519 256.103L417.944 255.89L418.298 255.607L418.581 255.324L418.864 254.899L419.148 254.403L419.289 253.765L419.785 252.066L420.989 249.729L422.547 245.904L424.388 242.221L426.159 240.097L426.584 239.53L426.796 238.822L427.292 237.618L427.434 236.91L427.646 236.485L427.576 235.847L427.717 235.139L427.788 234.926L428 234.714L428.921 234.218L430.196 233.085L430.55 231.173L430.975 229.969L431.542 229.261L432.533 228.623L433.666 228.411L438.978 227.49L439.403 227.278L439.899 226.923L440.607 226.357L441.386 224.94L442.59 223.453L443.511 222.886L446.981 222.178L447.477 222.391L448.539 222.957L450.097 224.87L451.443 226.569L453.001 227.915L454.843 229.827L455.976 231.031L456.826 231.527L457.463 232.589L457.817 232.943L461.004 235.422L462.137 236.06L463.271 236.414L463.837 236.555H464.545L467.095 235.989L468.157 236.06L468.795 236.485L469.149 237.122L469.715 237.618L471.344 238.184L475.24 242.009L476.727 243.921L477.506 246.046V246.541L477.364 247.037L477.081 247.533L476.019 247.958L473.965 249.091L471.698 250.295L470.778 250.366L470.424 250.295L469.078 249.799L465.82 247.25L464.191 245.904L461.712 245.054L459.588 245.55L458.242 246.329L457.18 248.029L456.542 252.986L455.763 254.474L454.63 255.749L454.134 256.032L452.435 256.386L450.735 256.103L447.973 255.465H447.76L447.335 255.536L446.627 255.89L446.273 256.386L446.202 256.74L446.131 257.236L446.344 258.652L446.415 258.865L446.698 259.361V259.856L447.264 261.131L447.76 261.769L448.823 262.406L449.531 263.327L450.31 263.893L450.806 264.531L450.735 264.814L450.522 265.168L450.451 265.38L450.664 268.284L451.018 269.772L451.585 270.976L452.293 272.888L452.647 274.021L453.001 275.437L453.284 275.933L454.347 276.854L455.267 277.775L455.834 278.624L456.188 279.333L456.471 279.899L456.684 280.041L457.038 280.395L457.463 280.466L458.242 280.537L458.525 280.678L458.95 280.82L460.154 281.316L461.287 281.812L462.491 282.095L464.474 282.024L465.183 282.166L468.016 283.44L468.441 283.865L468.724 284.22L469.22 285.211L469.361 286.061L469.432 287.052L469.291 288.115L469.149 288.54L468.441 290.169L468.228 290.664L468.087 291.231L468.016 292.152L468.087 292.577L468.228 292.931L468.299 293.072L467.52 293.568V293.71L467.732 293.993V294.206L467.52 294.135L467.378 293.851V293.639L467.591 293.497L467.449 293.285L467.166 293.427L466.812 293.922L466.528 293.993L466.458 294.347L466.316 294.631L466.174 294.701L465.962 294.418L465.395 293.993L465.254 294.064V294.276L465.395 294.489L465.537 294.631L465.608 294.843L465.395 295.126V295.622L465.324 295.693L465.041 296.118V296.259L464.97 296.33L464.545 296.401L464.474 296.472V296.755L464.687 296.897H464.899L465.112 297.039V297.251L464.829 297.747L464.545 297.959L464.262 297.818L464.12 297.463L463.766 297.534L463.695 297.676L463.908 297.888L464.05 298.101L464.262 298.243L464.474 298.526L464.404 298.667L464.262 298.951H464.05L463.908 298.809L463.695 298.88L463.483 299.022L463.554 299.305L463.341 299.447L463.129 299.376V299.234L462.987 299.022H462.846L462.562 299.234L462.421 299.588L462.491 299.801L462.421 300.084H462.137L462.067 300.296L462.35 300.438L462.421 300.721V300.792L462.775 300.721L462.987 300.58L463.058 301.075L463.341 301.217L463.554 301.146L463.625 301.217V301.5L463.483 301.784V301.996L463.412 302.209L463.483 302.775L463.271 302.704L463.058 302.492L462.987 302.209L462.633 302.279L462.562 302.35L462.704 302.775L462.208 305.891L461.783 308.512L461.925 308.937L462.067 309.22L462.421 309.503L462.775 309.716V310.849L462.633 311.345L462.775 311.416V311.911L462.633 312.195L462.35 312.407L462.421 312.69L462.633 312.903L462.704 312.974L463.271 313.257L462.846 313.611L462.633 313.965L462.704 314.249L462.916 314.603H462.35L461.996 314.744H461.783L461.642 314.815L461.287 314.744L460.721 314.603L460.367 314.744H459.446L458.879 314.815L458.809 315.948L458.313 315.807L457.463 315.594L456.684 315.453L456.117 316.019L455.622 315.948L454.559 316.09L454.134 316.161L453.922 316.373L453.709 316.727L454.205 317.082L454.701 317.365L454.843 317.577V317.719L454.418 318.144L454.772 318.569L455.055 318.781L454.772 319.135L454.701 319.419L454.559 319.914L453.922 319.985L453.851 320.339L453.78 320.623L453.426 320.764L452.93 320.835L452.364 320.906L451.726 320.835L451.372 320.977H450.168L449.602 320.835L449.035 320.694L448.61 320.835L448.114 321.118L447.902 321.331L447.335 321.402L446.627 321.331L445.99 321.189L445.494 321.118L444.786 321.189L444.715 321.827L444.644 322.11L443.936 322.181L443.511 322.322L442.732 322.677L442.378 322.606L441.882 322.677L441.457 322.96L441.669 323.526L441.386 323.951L441.882 324.164L442.236 324.589L441.528 325.155L441.386 325.368L441.457 325.722L441.315 326.147L441.74 326.359L441.599 327.138L441.811 327.493L441.74 328.201L441.599 328.909V329.617V329.901L441.244 330.467L441.103 330.892L441.244 331.175L441.386 332.025L441.244 332.309L440.961 332.45L440.536 332.663L440.182 332.946L439.757 333.229L439.474 333.513L439.332 333.867V334.292L439.545 334.858L439.828 335.283L439.686 335.779L439.899 336.062V336.487L439.828 336.912L439.686 337.266L439.403 338.258L439.474 338.612L439.403 339.533L439.261 339.887L439.332 340.028V340.595L439.12 341.232L438.836 342.932L438.695 343.569L438.482 344.49L438.412 344.986L438.27 345.34L437.916 346.119L437.491 346.757V347.181L437.349 347.606L437.066 348.102L436.641 348.385H436.499V348.527L436.358 348.881V349.448L436.145 349.802V350.369L436.428 350.581L436.499 350.723L436.57 351.077L436.641 351.218V351.643L436.712 351.856L436.995 352.139L437.208 352.493V352.776L437.42 353.343L437.632 353.626L437.845 353.839L437.916 354.193L437.987 354.476L438.128 354.689L438.199 355.184L438.624 355.609L438.836 356.176L439.12 356.318L439.545 356.672L439.828 357.168L439.97 357.38H440.607L440.749 357.451L440.678 357.592L440.395 357.947V358.372L440.324 358.655V358.938V359.221V359.292L440.253 359.576L440.324 360.071L440.465 360.355L440.324 360.496L440.182 360.78L440.111 360.992L439.899 361.417L440.111 361.842L440.324 362.125L440.678 362.408L440.749 362.833L440.89 363.258L440.961 363.329L440.89 363.896L440.961 364.25L441.174 364.604L441.103 364.887L441.174 365.383L441.103 365.666L441.244 366.02L441.315 366.304L441.599 366.516L441.74 366.941L442.094 367.154L442.165 367.437L442.448 367.791L442.661 367.933L442.519 368.287L442.732 368.358L442.944 368.712L443.157 368.853L443.44 368.924L443.582 369.066L444.007 369.208L444.148 369.42H444.361H444.502L444.644 369.562L444.786 369.774L444.927 369.845V370.128L445.14 370.412H445.281L445.565 370.624L445.635 370.766L445.919 370.978L446.131 371.12L446.273 371.261L446.627 371.474H446.839L447.264 371.616H447.477L447.619 371.686L448.044 371.616L448.256 371.686L448.681 372.111L448.893 372.465V372.82L448.964 373.174L449.106 373.386L449.46 373.599L449.814 374.236L449.743 375.015L449.318 375.511L449.177 375.723L449.035 375.865L448.752 376.148V376.29L449.035 376.502L449.389 377.14V377.281L449.672 378.202L449.602 378.627L449.814 379.052L449.956 379.689L449.885 379.76L449.531 380.468L449.318 380.681V380.964L449.389 381.106L449.531 381.46L450.239 382.027V382.31L450.027 382.947L449.814 383.16L449.743 383.372V383.726L449.389 384.08V384.222L449.46 384.93L449.531 385.143L449.602 385.568V385.851L449.956 386.418L450.027 386.913L450.31 387.055L450.381 387.197L450.664 387.622L450.876 387.905L451.018 388.188L450.947 388.471L450.876 388.755L450.947 389.251L450.806 389.463V389.675L451.089 390.171V390.525V390.596L451.301 391.092V391.446L451.372 391.517L451.797 392.013L452.08 392.296V392.508V392.65L452.01 392.863L452.222 393.217L452.576 393.712L452.718 393.925L453.072 394.137L453.143 394.562V394.775V395.058V395.412L453.072 395.625L453.426 396.12L453.639 396.262L453.78 396.474L453.922 396.616L453.993 396.97L453.922 397.537L453.993 397.749L454.559 398.103L455.197 398.458L455.48 398.67L455.834 398.812L455.976 399.024H456.117H456.471L456.684 398.882H457.18L457.392 398.812L457.746 398.882L458.313 398.741L458.596 399.378L458.738 399.52L459.021 399.732L459.446 400.299L459.729 401.078L459.8 401.857L459.871 402.07L460.154 402.353L460.367 402.565L460.508 402.707L460.792 402.778H461.075L461.287 402.919L461.571 403.061L462.421 403.415H462.633L462.775 403.557L463.058 403.698L463.625 403.769L463.979 403.628L464.12 403.486L464.262 403.274L464.758 403.061L465.112 403.274H465.324L465.678 403.415L466.103 403.769H466.316L466.882 404.053L466.812 404.548L466.953 404.902L467.237 405.54L467.52 405.965V406.177L467.591 406.602V406.886L467.52 407.31L468.016 407.735L468.228 408.09L468.441 408.231L468.511 408.302L468.866 408.444L469.291 408.514H469.503L469.857 408.585L470.14 408.373L470.424 408.444L470.636 408.585H470.849L471.132 408.514H471.486L471.982 408.302L472.336 408.373L472.761 408.302H473.186L473.823 408.727L474.106 409.01L474.177 409.152L474.461 409.294L474.815 409.364H475.452L475.665 409.577L476.09 409.86L476.373 410.143L476.444 410.285L476.585 410.427L477.081 410.639L477.648 410.781L477.789 410.993L477.86 411.206V411.418L478.002 411.702L477.931 411.914V412.197L477.86 412.339L478.002 412.764L478.356 413.047L478.498 413.118L478.781 413.33L479.206 413.614L479.277 413.755L479.56 413.968L480.056 414.605L480.268 414.889L480.339 415.384L480.481 415.597L480.622 415.809L480.976 415.951L481.401 416.305L481.755 416.376H481.897L482.251 416.447H482.393L482.534 416.588L482.818 416.659L483.101 416.942L483.455 417.084L483.809 417.58V417.651L483.88 418.076L483.809 418.217L483.951 418.359V418.925L484.163 419.138L484.022 419.35L484.093 419.563L484.234 419.634L484.163 419.775L484.447 420.2L484.588 420.271V420.484L484.801 420.625L484.73 420.838L484.942 420.979L484.872 421.334L484.942 421.475L485.226 421.617L485.58 422.042V422.538L485.438 422.75L485.509 423.033L485.438 423.246L485.297 423.529L485.509 424.096L485.651 424.237L485.863 424.45V424.804L485.934 425.016H486.076L486.359 425.087L486.996 425.158L487.35 425.441L487.492 425.654V425.866L487.775 426.079L487.988 426.149V426.716L488.059 427.07L488.129 427.212V427.495L488.059 427.708L488.2 427.991L488.625 428.274L488.767 428.841H488.979L489.263 429.053L489.404 429.266L489.475 429.62L489.546 429.903L489.829 430.328L489.971 430.541L490.254 430.753L490.467 431.107L490.75 431.249L490.821 431.815L491.033 432.028L491.458 432.169L491.741 432.382L491.954 432.594L492.237 432.524L492.804 432.665L493.229 432.949L493.37 433.232L493.583 433.515L493.866 433.586L494.149 434.011H494.22L494.574 434.223L494.716 434.294L494.858 434.577L495.141 435.002L495.353 435.144L495.92 434.861L496.345 434.719L496.628 434.648L497.124 434.577H497.407L497.832 434.861H498.045L498.611 434.932L499.036 435.002L499.178 435.144L499.32 435.286H499.39L499.603 435.144L499.815 435.286L500.169 435.711L500.524 435.923L501.019 436.348L501.232 436.419L501.657 436.561L501.94 436.49L501.869 436.773L501.94 437.269L501.869 437.481L501.444 437.906L501.303 438.331L501.161 438.402L500.453 439.252L499.957 440.102V440.243L500.382 440.527L500.807 440.952L501.019 441.377V441.589L500.949 441.872L500.665 442.439L500.807 442.864V443.147L500.736 443.43L500.807 443.643L500.878 443.926L500.807 444.139V444.493L500.665 444.705L500.524 445.343L500.311 445.626L500.028 446.122L499.815 446.263V446.547V446.759V447.113L499.674 447.396L499.603 447.892L499.107 448.246L498.399 448.742L498.257 448.955L497.832 449.238L497.195 449.804L496.982 449.875L496.699 450.088L496.487 450.442L495.991 450.654L495.637 450.725L494.999 450.867L494.574 451.079L494.362 451.15L493.866 451.575L493.087 452.142L493.016 452.283L493.087 452.567L492.945 452.921L492.733 453.771L492.521 454.266L492.379 454.479V454.62L492.308 455.116L492.166 455.329L492.025 455.47L492.096 455.541L491.671 455.966L491.175 456.533L491.104 456.674L491.033 457.312V458.303L489.263 459.224L487.35 460.357L486.005 462.624L485.226 463.119L484.588 463.544L483.526 464.111L481.472 465.032L480.693 465.315L480.126 465.598L479.56 465.74L479.347 465.881L479.489 466.165V466.519L479.631 466.731L479.418 466.873L479.347 467.085L479.418 467.439L479.631 467.652V467.864L479.347 468.077L479.277 468.219L479.347 468.431V468.785H479.489V468.998L479.418 469.21L479.064 469.423V469.706H479.206L479.277 469.918L479.135 470.202L479.064 470.06L479.135 469.989L479.064 469.777H478.922L478.781 469.989L478.852 470.131L478.71 470.202L478.498 470.06V470.272L478.285 470.414L478.143 470.272L477.86 470.343V470.556L477.931 470.697L477.86 470.839L477.931 471.122L478.073 471.193L478.214 471.547L478.356 471.901L478.214 471.972V472.185L478.639 472.326L478.71 472.468L478.993 472.751L478.922 472.964L478.852 473.105L478.71 473.672L478.568 473.743V474.026L478.427 474.309V474.451L478.214 474.734L477.789 474.663L477.648 474.947L477.364 475.159L477.294 475.372L477.01 475.584V475.867L477.152 476.009V476.08L476.869 476.576L476.939 476.788L476.798 476.93L476.231 477.284L476.373 477.567L476.302 477.709L476.373 477.851L476.231 478.063L476.019 478.346L475.806 478.559L475.665 478.63V478.842L475.381 479.055L475.169 478.984L474.956 479.055L474.744 479.267L474.531 479.196L474.39 479.125L474.177 478.842L473.965 478.7L473.682 478.771L473.611 478.984L473.398 479.055L473.115 479.125L472.973 479.196L472.619 479.055L472.265 478.984L472.194 479.055L471.911 479.267L471.769 479.479L471.698 479.692L471.415 479.975L471.061 479.338H470.636L470.424 479.409V479.692V480.117L469.857 480.4L469.432 480.754L469.22 480.825L469.149 480.967H469.007V481.321L469.078 481.533L468.936 481.746L468.653 481.887L468.37 481.817V481.604L468.299 481.533L468.37 481.25L468.299 481.038L468.157 480.825L468.228 480.613L468.087 480.4L467.591 480.329L467.307 479.975L467.024 479.834L466.953 479.692L466.458 479.479L466.387 479.621L466.103 479.479L465.678 479.763L465.537 479.904L464.97 480.188H464.829L464.404 479.763L464.05 479.338L463.837 479.196L463.695 479.055V478.842L463.271 478.417L463.2 478.205L463.058 478.134L462.775 477.851L462.704 477.709H462.421L462.208 477.78H461.996L461.642 478.063H461.287L461.146 478.275L461.075 478.205L460.721 477.992L460.367 477.921L459.942 478.417L459.588 478.488L459.304 478.346L459.163 478.205L459.092 478.417L458.879 478.771V478.842L458.738 479.479L458.525 479.763L458.171 480.046L458.1 480.329L457.959 480.542L458.1 480.825L457.959 481.038L458.03 481.392V481.604L458.171 481.887L458.242 482.312L457.251 481.392L457.109 481.25H456.967L456.684 481.038L456.259 481.108L456.047 480.967L455.763 480.613L455.551 480.542L455.338 480.329L454.984 480.259L454.63 479.834L454.347 479.621H454.205L454.063 479.834V479.975L453.78 480.117L453.639 480.259L453.355 480.4L453.143 480.471L452.859 480.329L452.718 480.471L452.647 480.754L452.505 480.825L452.293 481.392L452.151 481.462L452.222 481.604L452.364 481.817V482.1L452.151 482.171V482.242L452.364 482.454L452.222 483.091L452.08 483.304L451.726 483.446L451.443 483.729L451.301 484.012H450.876L450.451 484.225L450.381 484.366L449.885 484.862L449.602 484.933L449.46 485.145L449.389 485.358L449.177 485.499L448.893 485.712L448.681 486.137L448.256 486.349L448.114 486.562L447.902 486.633H447.76L447.548 486.774L447.406 486.633L447.194 486.42L447.052 486.349L446.981 486.491L446.698 486.703L446.415 486.845L446.06 486.916L445.565 487.341L445.281 487.412L445.14 487.553L444.786 487.482H444.644L444.573 487.624L444.502 487.907V488.262L444.644 488.686L444.573 488.828L444.502 489.111L444.644 490.174L444.715 490.315L445.423 490.67L445.494 491.236V491.519L445.777 491.59L445.919 491.732L446.06 491.803L446.344 492.369L446.273 492.582L446.415 492.794L446.344 492.936L446.556 493.29V493.573L446.485 493.857L446.627 494.14L447.052 494.423L447.123 494.636L447.264 494.777L447.406 494.919L447.548 495.061L447.76 495.273L447.902 495.415L448.185 495.486L448.114 495.91L448.185 496.052L448.398 496.265V496.548L448.681 496.69L448.752 496.973L448.823 497.185L449.106 497.752L449.247 497.823L449.318 498.035H449.672L449.956 498.248H450.097L450.31 498.531L450.593 498.743L450.664 498.956L450.735 499.31L450.593 499.452L450.451 499.806V500.018L450.381 500.16H450.239V500.302L450.31 500.585L450.239 501.364V501.647L449.743 501.718H449.389L449.177 501.86L449.247 501.93L449.177 502.214L449.035 502.355L448.823 502.78L448.539 502.993L448.114 503.347V503.701L447.973 503.914L447.902 504.409L447.689 504.763L447.76 504.976L447.831 505.118L447.76 505.472L447.477 505.897L447.264 505.967L446.627 506.038L446.415 506.251V506.463L446.556 506.746L446.627 507.03L447.123 507.171L447.548 507.242L447.689 507.526L447.831 507.667L447.902 507.809L448.185 508.092L448.044 508.517L447.973 508.8L447.831 509.296L447.619 509.579L447.406 509.721L447.264 509.933V510.217L446.839 510.713L446.415 510.996L446.627 511.208L446.698 511.35V511.917L446.202 512.058L445.919 512.129L446.344 512.341L447.335 512.908L447.052 513.758V514.041L446.91 514.112L446.698 514.325L446.415 514.254L446.344 514.466L446.485 514.679V515.033L446.415 515.316V515.529L446.273 515.812L446.202 515.953L446.06 516.237L445.848 516.308V516.52L445.706 516.874V517.228L445.635 517.653V518.22L445.494 518.574L445.423 518.999L445.494 519.211H445.423L445.281 519.353L445.069 519.707L444.715 519.99L444.573 520.132L444.644 520.486L444.573 520.628L444.431 521.124L444.573 521.619L444.431 521.973L444.502 522.044L444.29 522.398L444.431 522.611L444.502 523.036L444.431 523.319L444.644 523.248H445.211L445.706 523.107L445.99 523.248L447.194 523.602L447.477 523.815L447.619 523.744L447.76 523.956V524.098L448.114 524.523L448.256 524.877L448.823 525.302H448.964L449.247 525.444H449.389L449.602 525.798L449.814 525.94L450.239 526.648L450.31 526.931L450.522 527.285V527.427L450.735 527.569L451.231 527.781L451.514 528.064L451.797 528.206L452.01 528.631L452.293 528.489H452.647L453.072 528.843L453.214 529.056L453.355 529.41L453.568 529.693L454.063 529.976L454.347 530.401L454.488 530.614L454.701 530.826L455.055 531.11L455.197 531.039L455.409 531.322L455.48 531.889L455.622 532.243L455.834 532.455V532.88L455.905 533.022L456.117 533.093V533.305L456.471 534.084L456.542 534.368V534.863L456.613 535.005L456.401 535.217L456.33 535.501L456.117 535.784L455.976 535.926L455.905 536.067L456.047 536.209L455.976 536.351L455.622 536.846L455.48 537.059L455.267 537.13L455.055 537.342V537.625V537.98L454.984 538.121L454.913 538.475L454.701 538.617L454.984 539.042L455.055 539.184V539.325L454.772 539.75L454.843 539.963L454.772 540.246L454.843 540.388L454.63 540.742L454.418 541.025V541.45L454.276 541.521L454.205 541.733L454.347 542.087L454.276 542.229V542.654L454.205 542.725L454.134 543.008L454.205 543.15L453.709 543.433L453.284 543.716L453.143 544L452.93 544.283L453.001 544.424L452.789 544.991V545.274L452.859 545.558L452.718 545.628L452.647 545.841L452.718 546.053L452.647 546.408L452.222 546.762H452.01L451.797 546.549L451.443 546.408L451.089 546.62H450.664L450.027 546.549L449.672 546.62L449.389 546.762L448.964 546.903H448.61L448.468 546.832L448.398 546.903V547.257L448.539 547.399L448.681 547.824L448.61 547.966L448.681 548.249L448.61 548.532L448.681 548.745L448.398 548.957L447.902 549.099L447.477 549.382L447.406 549.807V550.02L447.123 550.303L447.052 550.515L446.698 550.94L446.485 551.365L446.627 551.719L446.556 552.003V552.286L446.769 552.64L446.698 553.207V553.419L446.91 553.631L446.698 553.915V554.056L446.556 554.269L446.485 554.34L446.415 554.481L446.273 554.836L446.06 555.048L446.131 555.19L445.848 555.402H445.423L445.281 555.544L444.998 555.685L444.856 555.756L444.502 555.898V556.04L444.29 556.252L444.148 556.394L443.723 556.606L443.652 556.535V556.323L443.44 556.04L443.369 555.827L443.015 555.402L442.873 555.119L442.803 555.331L442.59 555.544L442.448 555.615L442.024 555.756L441.669 555.685L441.457 555.402L440.89 555.331L440.82 555.615L440.607 555.827L440.536 556.04L440.607 556.181H440.253L440.182 556.252H439.97H439.616H439.332L439.12 556.606L438.978 556.535L438.695 556.677L438.482 556.535V556.464L438.341 556.535H438.199L437.916 556.606L437.632 556.748L437.42 556.819L436.995 556.464V556.606L437.066 556.889L436.712 557.314L436.641 557.668L436.428 557.952V558.235L436.287 558.093L436.074 558.235L436.004 558.023L435.791 557.81V557.598L435.579 557.243L435.366 557.173L435.295 557.314H435.154L435.012 557.031L434.516 556.889L434.445 556.96L434.304 556.889L434.375 556.748H434.162L433.95 557.031V556.819L433.737 556.535L433.525 556.464L433.383 556.11H433.312L433.241 555.969L433.029 555.756V555.615L432.816 555.473L432.887 555.26L432.604 555.048L432.533 554.906L432.25 554.977L432.108 555.048L431.967 555.402L431.542 555.119L431.612 554.765L431.4 554.623L431.188 554.34L431.046 554.269L430.692 553.915L430.267 553.702L430.125 553.419H429.984L429.559 552.923L429.488 552.569L429.771 551.719L429.842 551.294L430.125 550.94L430.196 550.515L430.125 550.09L429.984 549.807L429.7 549.665L429.559 549.807L429.063 549.878L428.709 550.161L428.496 550.303L428.142 550.728L428.071 550.94L427.859 551.082L427.576 551.365H427.434L427.221 551.223L427.151 551.082L426.938 550.799L426.867 550.586L426.584 550.515L426.301 550.657L426.017 551.011L425.592 551.294L425.522 551.578L425.451 551.79L425.522 552.357L425.451 552.569L425.309 552.64L425.38 552.782L425.309 552.852L424.743 552.994L424.672 552.852L424.459 552.711L423.893 552.852V552.923L423.964 553.136L424.247 553.207L424.388 553.419H424.672L424.459 553.631H424.388L424.247 553.915L424.034 554.127L423.751 554.269L423.68 554.481L423.468 554.694L423.255 554.836H422.972L422.83 554.906L422.476 554.977L422.405 554.836L422.476 554.694L422.122 554.411L421.768 554.552L421.485 554.623H421.131L420.847 554.765L420.706 554.552L420.352 554.269H419.927L419.714 554.34L419.36 554.765L419.077 554.906L418.793 555.119L418.439 555.19L418.298 555.331L418.369 555.615V556.323L418.156 556.535L417.873 556.677L417.802 556.748L417.519 556.819L417.589 556.96L417.448 557.102L417.306 557.385L417.377 557.598L417.165 557.668L416.81 558.023L416.385 557.881L416.315 557.668L416.102 557.598L416.031 557.456L415.819 557.243L415.677 557.314L415.394 557.173L415.181 557.031L414.686 556.819V556.96L414.402 557.385L414.19 557.598L414.119 558.023L413.765 558.377L413.553 558.66L413.411 558.731L413.128 558.66L412.844 558.589L412.632 558.447L412.561 558.235H412.419L412.278 557.952L411.994 557.668L411.782 557.81L411.711 558.023L411.499 558.093L411.145 558.447L410.932 558.589L410.578 558.447L410.153 559.014H410.011L409.87 558.802L409.516 559.014L409.232 559.156H409.091L408.737 559.227L408.524 559.439L408.241 559.51L407.816 559.439L407.674 559.368L407.462 559.297L407.391 559.581L407.108 559.793L406.966 559.722L406.612 559.935L406.541 559.722H406.329L406.187 559.439L405.904 559.156L405.762 559.227L405.408 559.014L405.195 558.802L405.054 558.731L404.77 558.802L404.487 558.731L404.204 558.872L404.062 559.014L403.85 559.51L403.566 559.793L403.212 560.006L403.071 559.864H402.929L402.717 559.722L402.575 559.793L402.292 559.651L402.15 559.439V559.297L401.867 559.085L401.796 558.802L401.725 558.66H401.513L401.158 558.518L400.804 558.235L400.663 558.093L400.733 557.81L400.663 557.739L400.309 557.598L400.025 557.314L399.6 557.102L399.671 556.96L399.529 556.889L399.317 556.677L399.175 556.606L399.034 556.677L398.821 556.535L398.609 556.464L398.538 556.252L398.326 556.323L397.971 556.252L397.901 556.181L397.617 556.04L397.546 555.898H397.334L397.192 555.615H396.98L396.909 555.473L396.767 555.402L396.555 555.19L396.484 554.977L396.342 554.906L396.13 554.977L395.988 554.694L395.705 554.481L395.634 554.34L395.351 554.198H395.209L395.068 554.056H394.855L394.714 553.915V553.773L394.501 553.702L394.147 553.915L393.722 554.127H393.58L393.368 554.269H393.155L393.297 554.34L393.155 554.552L393.297 554.765L393.155 554.906L393.085 555.402L393.155 555.615L393.014 556.181L392.801 556.535L393.014 556.748L392.943 556.889L392.801 557.314L392.872 557.456L392.73 558.377L392.518 558.589L392.093 558.943H391.81L391.456 559.085L391.172 559.156H390.96L390.535 559.227L390.393 559.368L390.11 559.439L389.756 559.651L389.614 559.581L389.26 559.651L389.118 559.722H389.048L388.977 559.439L388.694 559.156L388.623 558.802L388.481 558.731L388.41 558.377L388.339 558.306L388.269 558.023L387.985 557.952L387.844 558.093H387.56L387.49 558.235L387.419 558.447L387.206 558.235L387.135 558.377V558.589L386.64 558.447L386.498 558.023V557.739L386.356 557.668V557.456L386.073 557.173H385.861L385.577 556.889V556.748L385.436 556.606L385.011 556.464L384.869 556.252H384.302H384.161L383.948 556.394L383.594 556.535L383.098 556.819V557.102L383.169 557.314L383.098 557.527L383.169 557.81L383.311 558.164L383.169 558.235L383.028 558.447L382.744 558.589L382.603 558.802L382.319 559.014L382.036 559.368L382.249 559.581L382.107 559.864L381.824 560.076L381.54 560.218L381.328 560.501L381.115 560.643H380.832L380.62 560.714L380.549 560.643H380.053L379.841 560.501L379.628 560.289L379.132 560.006L378.991 560.218L379.062 560.714L378.92 560.785L378.849 561.28L378.707 561.422L378.566 561.918L378.282 561.847L378.212 562.13H378.353L378.282 562.414L377.928 562.697L377.858 562.839L377.433 563.618L377.149 563.688L377.433 564.043L377.22 564.326L376.866 564.113L377.008 564.467L376.937 564.538H376.512L376.441 564.609L376.229 564.963L376.087 565.034V565.247L375.733 565.53L375.591 565.459L375.308 565.601L374.812 565.317L374.67 565.105L374.529 565.034L374.387 565.105H373.962L373.75 565.176L372.9 565.105L372.475 564.751L372.263 564.68V564.822L372.404 564.963L372.263 565.105L371.979 565.176V565.317L372.192 565.247L372.05 565.53L371.625 565.601L371.554 565.884L371.342 566.096L371.271 566.167L371.129 566.805L371.2 567.017L370.988 567.442H370.704V567.584H370.846L370.775 567.867L370.421 568.079L370.279 568.15L370.138 568.221L370.067 568.434H369.713V568.859L369.359 568.788L369.43 569H369.217L368.934 568.929L368.58 568.15L368.367 567.938H368.155L368.013 567.725L367.801 567.655V567.725H367.447V567.796L367.092 567.867L366.809 567.584L366.597 567.725H366.455V567.584L366.313 567.655L365.959 567.584L365.818 567.442L365.747 567.088L365.18 566.805L364.968 567.017L364.614 566.946L364.472 566.805L363.835 566.734L363.268 566.663H363.055L362.985 566.521L362.56 566.451L362.347 566.521L361.993 566.451L361.568 566.309H361.427L361.002 565.955L360.577 565.671L360.152 565.955L359.868 566.026L359.798 565.813L359.373 565.742L359.443 566.096L358.948 565.742L358.664 565.601L358.523 565.459L358.452 565.247L358.31 565.176L358.098 565.105L358.027 564.892L357.956 564.751L358.239 564.538L358.31 564.255L358.169 563.83L357.815 563.547V563.334L357.602 563.122L357.673 562.839L357.531 562.484L357.673 562.343V562.059L356.611 561.068L356.256 560.643L355.973 560.431L355.832 560.218L355.619 560.076L355.407 559.935L355.477 559.864L355.832 559.793V559.651L355.548 559.51L355.619 559.368L355.761 559.227V558.66L355.69 558.589L355.832 558.447L355.619 558.235L355.548 558.093L355.407 558.023L355.336 557.739L355.123 557.668V557.81H354.769L354.486 558.093L354.344 557.881L354.203 557.952L354.061 558.235L353.778 558.306V558.235L353.423 558.518L353.353 558.377L353.14 558.306L353.211 558.164V557.81L353.282 557.598L353.494 557.314V557.173L353.353 557.314L353.069 557.102V557.031L353.423 556.889L353.211 556.748H352.928L352.503 556.323L352.22 556.252L352.078 556.04L352.149 555.827L352.29 555.685L352.361 555.402L352.432 555.19L352.361 555.119V554.836L352.29 554.481L352.361 554.411V554.198L352.22 553.986L352.361 553.631L352.644 553.207H352.786L352.715 552.994V552.782L352.857 552.498L353.14 552.427L352.999 551.932H353.069L353.282 551.79L353.353 551.578L353.211 551.153V551.011L352.999 550.586L353.211 550.515H353.423V550.232L353.636 550.02H353.778L353.848 549.736L353.99 549.878L354.061 550.161L354.273 550.444L354.486 550.374L354.557 550.657L354.486 550.799L354.84 551.082L355.052 551.223L355.123 550.869L355.265 550.657L355.69 550.515L355.902 550.586L356.186 550.799L356.115 551.011L356.186 551.153H356.469L356.611 550.869H356.752L356.823 551.082L356.965 551.153L357.248 550.869L357.815 550.586L358.735 550.444L359.019 550.303L359.302 550.374L359.868 550.232L360.01 550.161L360.435 550.09L360.718 550.02H361.002L361.214 549.807L361.285 549.665L361.497 549.524H361.922L362.064 549.311L362.135 548.957L362.206 548.745L362.843 548.036L363.126 546.974L363.339 546.408L363.48 546.195L363.622 545.983L363.905 545.628L363.976 545.345L364.118 544.849L364.047 544.495H363.835V544.07L363.693 543.645L363.48 543.22L363.41 542.866L363.268 542.583L363.197 542.158V541.946L363.055 541.804L362.985 541.592L362.631 541.308L362.56 541.025L362.701 540.812L362.631 540.6L362.418 540.246L361.922 539.608L361.851 539.396L361.71 538.829L361.851 538.617L362.135 538.404L362.276 538.192L362.347 537.909L362.489 537.838L362.701 537.625L362.772 537.484L363.126 537.271L363.41 536.917L363.48 536.776L363.693 536.634L363.976 536.563L364.401 536.067L364.614 535.996L365.18 535.642L365.251 535.572L365.18 535.359L365.393 535.217L365.463 535.076L365.251 534.793V534.509L365.534 534.438L365.605 534.368L365.818 534.438L366.384 534.509L366.597 534.438L366.667 534.226L366.526 534.084L366.384 533.801V533.518L366.172 533.305L366.243 533.234L366.597 533.164L366.88 532.809L367.588 532.384L367.73 532.314L368.58 531.96L368.721 531.676L368.863 531.605L368.651 531.251L368.721 530.968L368.651 530.826L368.721 530.26L369.146 530.118L369.713 530.331H370.067L370.209 530.472L370.35 530.331L370.421 530.189L370.563 530.047L370.492 529.906L370.279 529.268L369.855 528.985L369.571 528.489L369.359 528.418L369.217 527.993L369.288 527.569L369.146 527.285L369.5 526.719H369.642L369.784 526.577L369.713 526.435L369.784 526.294L369.713 526.081L370.138 525.727V525.515L370.279 525.444L370.492 525.515L370.988 525.444L371.554 525.515L371.767 525.727L372.404 525.869L372.546 525.727L373.112 525.302L373.75 524.948L373.891 524.665L374.387 524.24L374.316 523.744L374.387 523.602L374.104 523.461V523.177L374.387 522.682L374.316 522.328L374.387 522.186L374.246 521.832L374.387 521.549L374.316 521.194L374.033 520.911L373.962 520.699L374.033 520.415L373.891 520.345L373.821 520.132L373.608 519.778L373.537 519.565L373.467 519.282L373.396 518.999V518.716V518.361L373.75 517.937L373.891 517.866L374.033 518.007L374.175 517.299L374.387 517.512H374.67L374.812 517.157L374.741 516.803L375.025 516.378L375.095 516.095L375.308 515.953L375.237 515.458L375.025 515.387V515.174V514.608V514.112L375.095 514.183L375.379 513.97V513.687H375.308L375.379 513.475L375.591 513.333L375.733 513.404L376.158 513.616L376.441 513.9L376.654 513.758L376.795 513.546L377.079 513.333L377.291 512.979L377.362 512.766L377.503 512.554V512.129H377.928L378.566 511.492L378.424 510.996L378.353 510.854L377.928 510.358L377.787 510.146L377.716 509.933L377.433 509.65L377.008 509.509L376.866 509.367V508.8L376.795 508.517V508.092L376.583 507.667L376.299 507.455L375.945 507.242L375.733 507.171L375.308 506.251L375.166 505.755L374.883 505.472L374.812 505.33V504.693L374.67 504.622L374.387 504.693L374.175 504.763L373.679 505.259L373.325 505.472L372.829 505.613L372.687 505.472L372.475 505.401L372.263 505.472H371.979L371.838 505.897L371.625 505.826L371.271 506.18L370.917 506.038L370.492 506.18H370.35L369.925 505.826L369.855 505.897L369.43 506.038L369.005 505.967H368.58L368.226 506.322L367.659 506.392L367.588 506.605H367.305L367.376 506.746L367.092 507.171L367.163 507.667L367.234 507.809V508.021L366.951 508.163L366.809 508.517L366.597 508.659L366.313 508.8L366.172 508.942H366.03L365.676 509.084H365.393L365.251 508.729L364.968 508.446L364.826 508.092H364.684L364.33 507.596V507.313V506.746L364.118 506.605L364.047 506.463L363.835 506.109L363.551 506.038L363.41 505.826L363.339 505.613L363.268 505.047L363.055 505.259L362.914 504.976L362.701 504.763L362.418 504.905V505.188L362.276 505.259H361.851L361.71 505.472L361.356 505.188H361.214L361.072 505.33L360.86 505.259L360.293 505.118L360.152 504.976L360.01 504.622L359.868 504.48L359.302 504.268H359.019L358.594 504.409L358.523 504.268L358.452 503.984V503.843L358.664 503.63L358.806 503.347L358.735 502.922V502.214L358.664 501.789L358.594 501.506V501.222L358.098 500.939L357.673 501.01L357.531 501.293L357.177 500.797L356.965 500.868L356.469 500.939L356.398 500.797L356.115 500.443L355.619 500.302L355.477 500.089V499.806L355.407 499.522H355.123L355.052 499.735L354.769 500.018L354.557 500.514L353.636 500.726L353.494 500.868L353.423 501.364L353.282 501.506L352.928 501.435L352.361 501.222H351.865L351.653 501.151L351.37 500.868L351.157 500.797L350.945 500.656H350.591L350.378 500.302H349.812L349.387 500.16V500.018L349.103 499.806L349.032 499.593L348.749 499.452L348.678 499.31L347.899 499.027L347.758 498.956L347.545 498.602L347.262 498.389L347.12 498.248H346.908L346.695 498.389L346.483 498.673L346.412 498.956L346.2 499.31L346.058 499.452L346.129 499.593L345.916 499.806L345.704 499.664L345.491 499.381L345.35 499.31L344.925 498.956H344.783L344.641 498.743L344.358 498.602L344.216 498.248L344.004 497.752L343.933 497.894L343.437 498.248L343.296 498.035L342.729 498.106L342.588 498.248L342.304 498.106L341.808 498.46L341.242 498.389H341.171L340.888 498.673L340.604 498.389L340.18 498.743H339.967L339.613 498.673L339.471 498.814L339.259 498.602H338.976L338.834 498.248L338.621 497.964L338.551 497.61V496.831H338.692L338.763 496.619V496.335L338.976 495.981L339.188 495.84L339.4 495.556H339.542H339.825L339.896 495.486L339.967 494.919L340.25 494.282L340.18 493.998L339.967 493.786L339.896 493.502L340.109 493.219L340.038 492.936L339.967 492.653L340.109 492.511H340.18L340.392 492.299L340.321 492.015L340.109 491.944H339.825L339.755 491.803V491.378L339.896 491.307L340.109 490.67V490.315L340.321 490.103L340.534 490.032L340.675 490.103L341.1 490.174H341.384V489.536H341.596L341.313 489.253L341.242 488.97L340.888 488.545L341.029 488.191L340.959 487.978L340.888 487.695L340.817 487.412L340.959 486.987L341.1 486.845H341.242L341.454 486.562L341.525 486.491V485.783L341.454 485.499L341.525 485.075L341.454 484.65V484.437L341.879 484.366L342.021 484.083L342.304 484.012L342.871 483.8L342.729 482.879V482.029L342.588 481.604V481.25L342.658 480.896L342.163 480.754L341.808 480.613L341.667 480.683L341.525 480.613L341.313 480.683L340.746 480.542L340.534 480.471L340.321 480.683H340.038L339.755 480.754L339.613 480.613H339.33L339.046 480.683V480.825L338.551 481.038V481.25L338.692 481.462L338.409 481.675L338.055 481.604L337.63 481.746L337.347 481.25L337.134 481.108L337.063 480.896L336.78 480.825L336.638 480.896L336.001 480.754L335.718 481.038L335.576 481.108L335.151 480.896V480.683L334.939 480.329V480.259L334.726 480.046H334.443L334.301 479.975L334.018 479.692L334.089 479.055L334.16 478.842L333.947 478.559L333.593 478.417L333.451 478.275L333.38 478.063L333.593 477.992L333.522 477.638L333.38 477.284L333.239 477.142L333.026 477.001L332.601 477.213L332.389 477.001L332.106 476.717H331.681L331.397 476.859L331.043 476.788L330.76 476.859L330.477 476.788L330.123 476.576H329.91L329.627 476.505L329.414 476.292L329.273 476.434L329.131 476.788L328.919 476.93L328.635 476.788L328.21 476.647L328.069 476.788L327.573 477.001V477.213L327.148 477.709L326.652 477.851H326.369L326.015 477.496L326.086 477.142V476.859L325.873 476.222L325.944 475.726L325.448 475.372L325.307 475.018L325.236 474.947L325.094 474.522L324.882 474.451L324.669 474.026L324.386 473.53H324.244L324.173 473.389L324.103 473.105L324.032 472.751L323.536 472.539L323.394 472.468L323.465 472.043L323.394 471.831L323.182 471.547L323.04 471.406L322.899 471.051L322.828 470.627L322.615 470.202L322.474 470.131L322.403 469.918L322.332 469.352V468.856L322.474 468.643L322.757 468.36L322.899 468.006V467.439L323.04 467.298L322.969 466.944L322.899 466.802L323.182 466.165L323.324 465.952V465.881L323.111 465.315L323.04 465.173L322.899 464.819L322.757 464.677L322.828 464.394L322.757 463.898L322.828 463.686L322.757 463.473V462.482L322.686 462.411L322.545 462.199L322.474 461.844L322.19 461.986L322.049 461.915L321.907 461.632V461.349L321.836 461.207L321.411 460.853L321.482 460.428L321.341 460.357L321.128 460.499L320.986 460.428L320.561 460.215L320.207 460.286L320.137 460.145L319.641 459.932L319.428 459.791L319.216 459.861L318.933 460.074L318.578 460.003V460.215L318.295 460.853L318.083 461.136L318.153 461.561L318.224 461.915L318.153 462.128L317.729 462.34L317.516 462.482L316.879 462.907L316.666 463.048L316.312 463.261L316.241 463.19L315.958 463.119L316.029 462.907V462.765L315.745 462.694V462.199L315.462 461.915L315.321 461.49L315.108 461.136L315.462 460.64L315.533 460.428L315.462 459.861L315.533 459.578L315.391 459.295L315.25 459.224L315.037 459.295H314.683L314.329 459.082V458.728V458.587L314.117 458.091V457.878L313.975 457.666L314.046 457.241L314.187 456.958L314.046 456.674L313.975 456.249L314.046 456.108V455.754L314.117 455.329L314.046 454.904L313.904 454.62V454.408L313.762 454.125V453.912L313.408 453.7V453.346L313.196 453.133L313.054 452.992L313.125 452.637L312.842 452.283L312.7 451.858L312.913 451.717V451.575L313.196 451.221H313.408L313.55 451.008L313.692 450.725L313.762 450.584L313.621 450.442L313.55 450.088L313.337 449.734L313.267 449.309L313.125 449.096L313.054 448.884L312.913 448.671L312.842 448.105L312.629 447.821L312.417 447.538L312.275 447.467L312.133 447.609L311.85 447.751L311.354 447.892L311.071 447.751L310.788 447.892H310.505H310.434L310.292 447.538L309.726 446.972L309.442 447.042L309.23 446.901V446.547L308.946 445.838L308.592 445.484L308.309 445.201L308.167 444.847L307.884 444.493L307.105 445.272L306.893 445.413L306.822 445.626L306.893 445.98L306.963 446.334V446.688V446.972L306.751 447.113L306.68 447.396L306.255 447.326L305.476 447.609V447.751L305.334 447.963L304.06 448.388L303.918 448.246L303.635 447.68H303.351L303.21 447.467L302.926 447.042L302.856 446.83L302.572 446.688L302.289 446.617L302.006 446.051L301.793 445.98L301.652 445.697L301.439 445.343L301.227 445.201H300.873L300.518 445.059L300.448 444.918L300.306 444.634H299.881L299.739 444.493H299.173L298.606 444.139L298.465 444.068L298.323 444.139L298.181 444.351H297.827L297.473 444.493L297.19 444.422L297.119 444.493L296.836 444.422L296.552 444.493L296.411 444.564L296.127 444.634L295.702 445.13L295.773 445.201L295.844 445.768L295.773 445.909L295.561 445.98H295.348L294.923 445.838L294.569 445.768L294.286 445.555H294.074L293.719 445.343L293.507 445.201L293.153 444.705L292.94 444.776L292.799 444.564H292.586L292.232 444.634L292.09 444.139L291.949 444.068L291.878 443.855L291.666 443.147L291.382 443.005L291.17 442.935L290.957 442.793L290.745 442.722L290.32 442.793L290.107 442.722L289.895 442.581L289.612 442.651L289.328 442.226L289.116 442.085L288.691 441.589L288.337 441.872L288.195 441.731L287.841 441.66L287.274 441.235V441.022V440.81L287.204 440.668L286.779 440.243L286.708 440.102L286.85 440.031L286.566 439.96L286 440.102L285.787 440.172L285.575 440.385L285.008 440.314L284.937 440.172L284.583 439.677L284.512 439.535L284.442 439.252L284.229 439.039L284.017 439.11L283.946 438.968H283.45L283.379 439.039L282.813 439.11L282.529 439.181L281.821 438.473L281.75 438.331L281.963 437.906L282.034 437.694L282.104 437.623L282.246 437.694L282.813 437.623L282.883 437.552L283.308 437.481L283.45 437.41L284.017 437.127L284.087 436.985L283.733 436.49L283.521 436.419V436.206L282.883 435.711L282.813 435.357L282.671 435.073L282.883 434.507L283.025 434.648L283.521 434.79L283.733 434.648L283.946 434.719L284.512 434.648L284.796 434.436L284.937 434.507L285.079 434.719L285.433 434.648L285.787 434.79L286.283 434.861L286.637 434.719L286.85 434.932H287.133L287.345 435.144L287.487 435.002L287.416 434.79L287.204 434.507L286.495 434.011V433.657L286.425 433.373V433.09V432.807L286.495 432.594L286.425 432.382L286.141 432.311L286.212 432.028L286.141 431.815L285.929 431.674L285.716 431.178L285.575 431.107L285.221 430.824L284.3 429.761L284.017 429.195L283.875 429.124L283.733 428.912L283.521 428.416L283.096 428.345L282.954 428.203L282.6 427.92L282.034 427.637L281.892 426.999L281.325 426.929L281.255 426.574L281.113 426.362L279.767 426.291L279.413 426.149L278.917 426.22L278.634 426.079L278.351 426.22L278.138 426.574L278.067 426.645V426.858L277.501 427.212V427.424V427.991L277.643 428.203L277.501 428.628L277.643 428.77V429.053L277.572 429.337L277.43 429.407L276.863 429.195H276.58L276.368 429.337L276.155 429.478L276.084 429.62L275.872 429.195L275.589 429.337L275.164 428.912L274.597 429.266L274.385 429.407L273.606 429.195L272.968 429.266L272.472 428.982L271.835 428.912L271.693 428.77H270.985L270.773 429.053L270.277 429.832L270.135 430.045L269.994 429.974V430.186L270.064 430.399L269.994 430.47L269.923 430.753L269.569 430.895L269.215 431.107L269.144 431.39V431.674L268.931 431.886L268.081 432.028L267.798 432.453H267.727L267.586 432.594L267.444 432.665L267.09 432.878L266.948 433.019L266.877 433.303L267.019 433.444L266.877 433.657L266.24 434.011L265.815 434.294L265.248 434.223H264.824L264.54 434.153L264.469 434.223H263.62L263.336 433.94L263.124 434.223H262.982H262.77H262.628L262.486 434.436L262.203 434.577L261.92 434.507L261.778 434.577L261.566 434.507L261.424 434.294L261.353 434.153L260.999 434.294H260.787L260.22 434.507L259.937 434.79L259.583 434.861L259.37 434.719L258.945 434.79L258.591 434.436L258.379 434.507L258.308 434.294L258.166 434.011H258.024L257.812 434.153L257.67 434.436L257.458 434.577L257.316 434.79L257.67 435.215L258.024 435.357L258.095 435.498L258.237 435.923L258.591 436.277L258.733 436.348L258.804 436.49L258.945 436.561L259.016 436.844L259.158 437.34V437.481L259.299 437.765V438.119L259.37 438.26L259.158 438.544L258.874 438.685L258.804 438.968L258.945 439.11L259.158 439.748H259.724L260.22 439.96L260.503 440.314H260.716L260.787 440.385L260.999 440.527H261.424L261.991 440.668L262.274 440.81L262.699 441.235L262.911 441.164L263.265 441.377V441.589L263.549 441.801L263.903 441.872L263.974 441.943L263.832 442.368L264.044 442.722L264.115 442.935L264.328 443.218L263.974 443.714L263.903 443.785V444.139L264.399 444.422L264.682 444.493L264.753 444.634L265.178 444.847L265.461 445.059V445.626L266.098 445.838L266.665 446.192L266.736 446.405L266.807 446.759L267.019 447.255L267.09 447.326V447.609L267.231 447.751L267.515 448.388L267.586 448.884L267.515 448.955L267.231 449.025L267.019 449.309L267.231 449.804L267.373 449.875L267.515 450.3L267.444 450.442V450.796L267.373 450.867V451.079L267.231 451.363L267.161 451.575L266.948 451.929L266.807 452L266.594 452.212L266.382 452.283L266.098 452.425H265.886L265.178 452.708L264.824 452.779L264.753 452.708L264.611 452.85L264.399 452.708L264.044 452.921L263.974 453.204L263.761 453.346L263.832 453.487L264.044 453.983L264.186 454.054L264.328 454.266H264.469L264.753 454.408L264.965 454.266H265.036L265.107 454.62V455.045L265.036 455.329L265.178 455.4L265.248 455.824L264.965 456.108L264.682 456.674H264.824L265.178 456.887L265.248 457.099V458.091L265.178 458.445L264.894 458.657L264.824 458.587L264.469 458.728L263.761 458.657H263.62L263.336 458.87V459.153L263.195 459.507V459.932V460.357H262.982L262.911 460.215H262.557L262.203 460.357V460.711L262.061 460.924L261.778 461.207V461.419L261.92 461.703L261.991 461.774L262.132 461.986V462.482H261.991L261.778 462.34L261.07 462.128L260.857 462.269L260.787 462.553L260.362 462.907L260.008 463.048L259.866 462.978H259.724L259.512 462.765L259.653 462.553L259.724 462.34V462.199L259.795 462.057L259.866 461.419L259.937 461.065L259.795 460.995L259.512 461.136L259.37 461.278H259.016L258.804 461.065L258.662 460.995L258.166 461.207L257.812 461.278L257.104 461.065L256.962 461.419L256.466 461.561L256.112 461.632L255.9 461.774L256.112 462.199L256.041 463.119L255.475 463.403L255.262 463.473L255.05 463.828L254.979 464.252L254.767 464.819L254.696 465.032L254.625 465.244L254.696 465.527L254.625 465.74L254.342 465.881V466.094L254.271 466.165L253.775 466.235L253.633 466.59L253.421 466.731V467.156L253.633 467.439V467.652L253.492 467.864L253.279 468.006L252.996 468.431L252.784 468.643H252.5L252.288 468.502L252.146 468.36L251.934 468.077L251.58 466.802H251.013L250.8 466.731L250.234 467.015L250.092 467.227L249.667 467.439L249.455 467.51L249.526 467.652L249.313 468.148L249.101 468.289L248.747 468.36L248.463 468.785L247.968 469.352L247.826 469.706L247.613 470.06V470.839L247.543 470.981L247.33 471.193L247.188 471.689L246.976 471.901L246.834 472.255L246.409 472.539L246.551 472.61L246.622 473.247L246.693 473.318L247.968 474.734L248.109 475.301L248.18 475.584L248.322 476.151L248.534 476.505L249.384 477.142L249.951 477.355V477.851L250.021 478.063L250.305 478.205L250.659 478.417L251.225 478.488V478.7L251.367 478.559L251.509 478.7V478.984V479.125L251.792 479.196V479.338L251.509 479.55L250.871 479.763L250.092 479.975L249.384 480.188L248.959 480.542L248.038 481.179L247.543 481.392H247.188L246.551 481.604L246.268 481.817L245.63 482.737L244.214 483.587L244.001 483.8L243.222 484.72L242.514 485.57L242.16 485.995L242.018 486.349L241.735 486.42L241.381 486.349L241.027 486.208L240.531 485.854L240.035 485.358L239.398 484.65L238.619 484.437L238.194 484.508L237.698 484.72L237.627 484.862L237.344 484.791H237.132L236.848 484.933L236.636 485.145L236.282 485.004L236.069 485.075L235.573 485.358L235.503 485.429L235.149 485.783L234.653 486.066L234.157 486.491L233.874 486.349H233.661L233.307 486.491L233.024 486.279L232.882 485.783L232.953 485.358L232.741 484.862L232.599 484.791L232.528 484.579L232.457 483.729L232.67 483.446L232.599 483.233L232.457 482.737L232.245 482.525L232.174 482.242L232.245 481.958L231.961 481.533V481.179L232.174 480.825L232.245 480.542L232.316 480.471L232.386 480.046V479.763L232.245 479.055V478.771L232.528 477.992L232.811 477.709L232.741 477.567L232.67 477.213L232.528 477.001V476.717L232.457 476.434L232.528 476.292H232.386L232.316 476.08L232.386 476.009L232.316 475.584L232.103 475.797L231.82 475.726L231.607 475.938L231.395 476.08L231.041 475.584L230.687 475.23L230.333 475.443L230.191 475.301L230.12 475.088L229.908 474.947L229.766 475.088H229.624V474.947L229.341 474.734L229.129 474.805L228.774 474.734V474.239L228.987 474.168L228.845 473.884L228.704 474.026L228.491 474.097L228.137 474.026L227.925 474.097L227.854 474.026L227.57 474.097L227.145 473.814L226.862 473.601L226.437 473.318H226.296L226.154 473.389L226.012 472.964V472.751L225.871 472.68L225.517 472.61V472.255H225.375L225.233 472.468L225.162 472.397L224.879 472.61L224.667 472.539L224.596 472.61L223.958 472.255H223.746L223.604 472.114L223.109 471.831L222.825 471.547H221.621L221.267 471.264L221.126 471.122L220.842 470.839L220.559 470.981L220.488 470.697L220.063 470.414L219.78 470.131L219.709 469.989L219.497 469.847L219.355 469.564L218.859 469.139L218.434 468.927H218.293L217.938 468.998L217.726 469.139L217.301 468.998L217.089 469.068L216.734 468.785L215.672 468.006L214.61 467.156L214.397 467.085L213.618 467.015L213.547 466.802H213.335V466.66L213.193 466.59L212.981 466.66L212.768 466.802L212.627 466.66L212.698 466.165L212.556 465.952L212.698 465.74L212.556 465.598L212.698 465.315L212.556 465.244V464.961L212.485 464.819L212.131 464.748L211.989 464.89L211.777 465.315L211.423 465.811L211.139 466.023L211.069 466.802L210.856 466.944L210.714 467.227L210.502 467.51L210.219 467.723H210.077L209.865 467.864L209.794 468.077L209.51 468.36L209.298 468.006H209.156L209.086 467.794L208.519 467.298L208.165 467.156L207.669 467.085L207.244 467.227H207.032L206.89 467.015L206.678 466.731L206.323 466.66L206.182 466.235L206.04 465.173L205.686 464.819L205.261 464.607L204.907 464.465H204.553L204.128 464.536L203.632 464.323L203.207 464.04L203.066 463.403L202.995 463.048L202.641 462.624L203.278 462.199L202.711 461.915V461.632L202.853 460.995V460.782L202.145 460.215L202.216 460.074L202.074 459.861L202.003 459.578L201.437 459.224L201.295 459.153L200.587 458.445L200.02 458.091L198.887 457.595L198.391 457.383L197.471 456.745L196.975 456.462L196.408 456.108L196.054 455.329L195.7 454.55L195.558 454.196L194.779 453.204L194.425 452.567L194.071 451.646L193.929 451.292L194.142 451.079L194.213 450.584L194.425 449.167L194.496 448.955L194.567 448.53L194.283 448.176L194.213 447.821L194.071 447.892H193.859L193.434 447.963L193.221 448.105L193.15 448.317L192.796 448.388L192.3 448.813L192.159 449.096L191.946 449.025L191.592 449.309H191.309L190.884 449.38L190.671 449.663H190.53L190.247 450.017H189.963L189.892 449.946L189.538 450.017H189.397L189.113 450.3L188.901 450.725L188.83 451.221L188.688 451.433L188.193 451.079L187.768 450.654L187.626 450.371L187.272 449.592L186.989 449.663L186.918 449.592H186.564L186.139 449.734L185.855 449.804V449.663L185.643 449.38V449.238L185.501 449.096L185.218 449.025L185.431 448.742L185.076 448.53L185.006 448.246L184.864 448.034H184.651L184.297 447.821L184.227 447.68L183.943 447.609L183.802 447.751L183.518 447.821V447.963L183.093 448.105V448.6H182.952L182.668 448.813L182.527 448.955L182.243 449.167L182.173 449.096L182.102 449.238V449.38L181.819 449.309L181.606 449.45L181.464 449.663L181.252 449.946L180.969 450.229L180.827 450.159L180.402 449.946L180.685 449.38L180.473 449.167L180.331 448.459L180.827 448.034H180.969L181.039 447.751L180.756 447.255L180.26 447.184L180.19 447.042L179.977 446.972H179.835L179.552 446.901L179.269 447.042L178.986 447.255H178.136L177.923 447.042H177.711L177.64 446.83L177.711 446.547L177.498 446.334H177.215L176.79 446.192H176.224L175.728 445.768L175.586 445.413V445.059L175.444 444.988L174.807 444.422L174.878 444.139H174.595V443.926L174.878 443.855L174.949 443.785L175.09 443.36L174.878 443.005V442.226L174.807 441.518L174.665 441.235L174.311 441.093L173.957 440.668L173.886 440.243L173.391 440.597L172.895 440.456L172.541 440.739L172.47 441.022L171.549 441.235L171.337 441.164L171.053 441.235L170.77 440.881L170.558 440.81L170.699 440.527L170.345 440.172L170.416 440.102L170.274 439.535H170.062L169.849 439.464H169.637L168.858 439.535L168.716 439.606L168.504 439.535L168.079 439.677L167.229 439.606L166.237 439.889L165.671 439.818L165.388 439.96L165.246 439.606L165.033 439.464L164.892 439.11V438.756L164.75 438.473L164.679 438.402L164.467 438.189L164.042 437.835L163.759 437.765L163.192 437.41L162.838 437.623L162.625 437.481L162.059 437.41L161.988 437.481L161.563 437.198H161.28L161.138 437.127H160.926L160.784 436.702L160.572 436.206V435.852L160.501 435.498V435.002L160.784 434.577L160.43 434.436L160.359 434.294L160.147 434.153L159.863 433.586L159.792 433.232L159.651 432.949L159.297 432.453L159.155 432.24L158.801 432.028H158.659V431.815L158.518 431.745L158.588 431.39L158.093 431.249L157.597 431.178L157.243 431.036L156.96 430.965L156.605 430.753L156.322 430.541L155.756 430.186L155.543 430.257L155.331 430.116H154.835L154.693 429.974L154.481 429.903L154.339 430.045L153.843 429.974L153.702 429.832L153.277 429.691L153.064 429.832H152.781L152.569 429.62L152.285 429.549L151.223 429.195L151.081 429.053L151.01 428.841L150.94 428.699L151.081 428.345L150.94 427.991L150.869 427.849L150.727 427.353L150.869 427.212L150.585 427.07L150.444 426.858V426.645L150.231 426.433L149.948 425.866L149.736 425.654L149.523 425.583L149.452 425.016L149.311 424.733V424.521V423.883L149.736 423.033V422.75L149.877 422.254L150.019 422.113L150.161 421.9V421.688L150.373 421.263L150.09 420.484L149.806 420.413L149.594 419.917L149.381 419.35L149.169 419.138L148.673 418.855L148.319 418.925L147.115 418.501L146.265 418.288L145.415 418.005L145.061 417.934L144.636 417.013L144.495 416.872L143.716 416.163L143.291 416.022L142.512 415.384L142.582 414.747L142.724 414.393L142.441 414.11V413.968L142.582 413.543V413.472L142.299 413.047L142.157 412.551L141.52 412.339V410.568V410.073L141.378 409.435L140.953 409.294L140.741 409.01L140.387 408.869L140.245 409.01L139.679 408.939L139.254 408.727L139.112 408.939H138.9L138.475 408.798L138.404 408.585L137.625 408.798L137.271 408.514L136.987 408.231L136.633 408.019H136.492L136.421 407.735L135.783 407.523L135.288 406.815L135.429 406.673L135.146 406.39L134.65 405.965H134.367L134.154 405.894H132.95L132.384 406.177L132.03 405.823L131.322 405.54L130.613 404.407L130.118 403.698L129.693 402.636L129.338 402.565L128.772 402.14H128.63L128.489 401.999H128.205L128.064 402.07L127.78 401.928L127.639 402.14H127.072L126.222 401.574L125.726 401.503L125.443 401.574L125.302 401.432L125.089 401.361L124.664 400.866L124.522 400.936L123.956 400.157L123.673 400.228L123.531 400.157L123.318 399.874H123.177L122.964 399.662L122.044 399.237L121.619 399.166L121.194 398.387L120.981 398.103H120.84L120.486 397.749L120.061 397.537L119.848 397.466L119.494 396.97H119.352L119.14 396.829L118.786 396.545L118.432 396.262V396.12L118.644 395.837L118.857 395.766V395.554L118.644 395.058H118.502V394.846L118.644 394.775L118.786 394.421L118.644 393.996L118.502 393.217L118.786 393.004L118.857 392.508L118.927 392.225V391.871L118.786 391.517V391.092L118.502 390.313V390.03L118.786 389.817H119.211L119.423 389.888L120.273 389.746L121.265 389.675L121.052 389.251V388.896L120.981 388.755V388.542L120.84 388.188L120.91 387.834L120.769 386.984L120.981 386.701V386.559V386.205L121.052 385.922L120.91 385.709L121.123 385.426L121.194 385.214L121.335 384.93L121.265 384.789L121.194 384.435L121.335 384.293V384.08L121.406 383.726L121.548 383.443V383.16L121.406 382.876L121.477 382.522L121.265 382.027L121.052 381.672L120.91 381.531L120.84 381.247L120.91 381.106L120.769 380.893V380.752L121.194 380.823L121.477 380.964H121.973L122.114 381.035L122.256 381.106L122.469 381.177L122.681 380.893V380.681L122.964 380.539L123.531 380.185L123.389 379.973L123.248 379.619L123.035 379.477L122.823 379.619H122.61L122.469 379.76H122.044L121.76 380.044L121.831 379.619L122.327 379.194L122.398 379.052L122.539 378.769L122.823 378.91L123.035 379.406L123.248 379.619L123.531 380.185L123.743 380.114L124.168 380.185L124.452 380.256L125.089 380.327L125.302 379.902L125.372 379.689L125.585 379.902L125.939 380.398H126.081L126.293 380.893L126.647 381.177L127.355 381.247L127.639 381.389L127.851 381.247L128.205 381.389L128.489 381.318H128.914L129.409 381.035L129.763 381.177L129.976 381.318L130.472 380.752L130.684 380.61L130.826 380.327L131.038 379.973L131.251 379.76L131.392 379.548L132.101 378.839H132.313L132.526 378.91L132.596 378.627L133.021 378.273L133.234 378.202L133.305 378.839L133.446 378.981L134.154 379.335L134.509 379.477L134.579 379.619V380.114V380.468L134.792 380.893L134.863 380.964L135.217 381.035H135.5L135.854 380.893L136.137 380.964L136.562 381.46L136.421 381.602L136.35 381.956V382.31L136.067 382.451L135.783 382.593L135.429 382.876L135.146 382.947L135.217 383.018L135.358 383.231H135.571L135.642 383.372L135.783 383.231L136.35 382.947L136.421 382.806L136.917 382.876L136.775 383.16L136.633 383.868L137.058 383.939H137.2L137.412 383.868V383.797L137.696 383.655L138.121 383.443L138.262 383.301L138.616 383.16L138.545 382.947L138.333 382.876H138.121L138.191 382.735L138.616 382.593L138.829 382.664L139.395 382.593L139.679 382.451L140.316 382.381L140.599 382.522L141.024 382.239L141.237 382.31L141.378 382.451H141.52L141.591 382.664H142.016L142.228 382.806H142.512L142.937 382.947L143.078 382.876L143.361 382.947L143.574 383.089L143.645 383.018L143.786 383.089L143.999 383.16L144.353 383.514V383.726L144.707 383.655L144.849 383.514L145.486 383.231L146.265 382.876L147.115 381.956L147.398 381.743H147.611V381.672L146.832 381.106L146.619 380.823L146.478 380.539L146.407 380.256L146.124 379.973H145.911L145.84 380.256L145.699 380.185V380.044L145.628 379.689L145.84 379.335L145.982 379.052L145.911 378.91L145.982 378.485L146.265 377.99L146.407 377.777L146.478 377.494L146.407 377.352L146.124 377.281L145.769 376.998L145.628 376.856V376.644L145.769 376.219L145.628 375.865L145.274 375.298L145.415 375.015L145.628 374.803L145.84 374.519L146.124 374.307L146.336 374.236L146.478 374.378L146.407 374.661L146.478 374.944L146.619 375.086L147.115 375.015L147.257 375.086L147.328 375.227L147.186 375.511V375.794L147.398 375.865L147.611 375.794V375.369L147.682 375.086V374.803L147.823 374.519L147.965 374.378L148.036 373.953L147.965 373.74L147.753 373.528L147.894 373.386L148.036 373.174L148.319 373.103L148.673 372.961L149.169 372.749L149.381 372.04V371.686L149.523 371.403L149.594 371.12L149.665 370.695L149.736 370.199L149.665 370.057L149.381 369.916L149.311 369.562L149.24 369.491L149.027 368.995L148.886 368.712L148.815 368.499L148.602 367.933L148.461 367.72L148.39 367.437L148.248 367.154L148.39 366.8V366.233L148.248 366.162L148.107 365.737L147.965 365.596L148.107 365.241L148.461 364.887L148.532 364.179L148.461 364.037L148.39 363.683L147.894 363.542L147.469 363.046L147.398 362.833L147.115 362.763L146.761 362.479H146.619L146.336 362.338L146.124 361.984L145.699 361.771L145.415 361.559L145.132 361.417L144.565 360.921L144.495 360.709L144.211 359.93V359.576L144.282 359.363L144.211 359.08L143.786 358.655L143.503 358.513L143.22 358.159V357.947L143.078 357.663V357.238L143.007 356.672L142.724 356.459L142.299 356.318L142.016 355.964L141.945 355.68L141.591 355.609L141.52 355.468L141.166 355.184L140.953 355.043L140.316 354.972L140.033 355.043L139.679 354.972L139.537 354.901L139.466 354.689L139.608 354.264V354.051L139.254 353.272L138.97 353.06L138.829 352.776L138.687 352.352L138.475 352.139L138.191 352.068L138.05 352.281L137.979 352.493H137.554H137.341L136.987 352.068L136.633 351.997L136.421 352.068L136.067 351.997L135.783 351.927V351.36L135.642 350.935L135.571 350.51L135.429 350.369L135.288 350.298L135.146 350.014L135.004 349.802L134.792 349.519L134.367 349.165L134.154 348.81L133.729 348.456L133.517 348.244L133.446 347.89L133.588 347.677L133.8 347.04V346.827L133.659 346.686H133.375L132.809 346.473L132.596 346.19L132.526 346.048L132.03 345.411L131.676 345.198V345.057L131.392 344.561H131.251L130.897 344.207V343.924L130.613 343.64V343.428L130.472 343.215L130.33 343.074L130.118 342.79L130.047 342.578L129.976 342.082L129.834 341.941V341.87L129.551 341.516L129.338 341.161L129.126 340.949L128.914 340.666L128.489 340.382H128.205L127.851 340.028L127.639 339.533L127.78 339.178V339.037L127.568 338.753L127.214 338.47L127.143 338.258L127.285 337.974L127.143 337.691L126.93 337.549L126.86 337.337L126.718 337.125L126.293 336.77L126.081 336.416L125.939 336.133L125.868 335.566L125.797 335.354V335.212L125.656 334.858L125.372 334.504L125.16 334.15L124.593 333.867V333.654V333.442V333.229H124.381L124.168 332.946L124.098 332.875L123.885 332.521H123.602L123.531 332.309L123.389 332.238L123.318 332.025L123.177 331.954L123.248 331.671L123.177 331.6L123.106 331.388L122.894 331.034L122.539 330.892H122.398L122.185 330.68H121.902L121.619 330.467H121.548L121.406 330.042L121.265 329.901L121.477 329.617L121.76 329.051L121.619 328.342L121.548 328.13L121.194 327.493L121.052 327.209L120.84 327.068L120.556 326.643L120.273 326.289L120.061 325.934L119.99 325.722L119.777 325.297V324.943L119.706 324.306V323.597V323.456V322.96L119.636 322.322L119.706 321.898L120.061 321.543L120.415 321.473L120.84 321.543L121.123 321.614L121.335 321.827L121.902 322.677L122.256 323.031L122.823 323.456L123.46 323.668L123.743 323.739L124.098 323.881L124.593 323.951H125.018H125.302L126.222 323.881H126.576L127.285 324.093L127.851 324.518L128.418 325.014L128.914 325.297L129.551 325.864L129.834 326.076H130.047H130.472L130.755 326.147L131.322 326.005L131.676 326.076L131.959 326.147L132.171 326.289L132.101 326.572L132.03 326.643V326.784L132.171 327.138L132.526 327.493L132.738 327.634L133.305 327.917H133.446L133.871 328.272L134.013 328.413L134.154 328.767L134.296 328.838L134.721 328.98L135.217 329.122H135.429H135.713L135.925 328.98L136.067 328.767L136.137 328.484L136.279 328.201L136.492 327.988H136.704H137.129L137.341 328.413L137.625 328.626L137.837 328.767L138.121 328.98L138.545 329.263L138.829 329.334L139.254 329.405L139.679 329.476L140.387 329.405L140.812 329.263H141.237H141.591H142.228L142.582 329.334L142.795 329.405L143.999 329.688L145.132 329.83H146.549L148.319 329.759H148.957H149.169L149.452 329.546L149.523 329.405L149.665 328.909L150.09 327.988L150.373 327.351L150.585 327.138L150.798 326.997L151.223 326.643L151.435 326.43L151.86 326.218L152.144 326.147L152.993 325.934L153.206 325.864L153.348 325.58L153.418 325.155L153.277 324.872L152.993 324.306L152.923 323.951V323.81L153.064 323.597L153.277 323.526L153.773 323.456L154.693 323.172L155.401 323.102L155.685 322.96L156.18 322.393L156.322 322.252L156.676 322.039H156.889L157.314 321.898L158.376 321.685L158.518 321.614L158.73 321.331L158.801 321.118L158.943 320.694L158.872 320.269L158.518 319.56L158.234 319.206L158.093 318.852L158.022 318.64L158.093 318.427L158.305 318.002L158.73 317.365L158.943 316.869L159.013 316.657V316.373L158.943 316.161L158.801 316.019L158.447 315.948L158.305 316.019L157.88 316.444L157.739 316.515L157.172 316.444L157.101 316.373L156.96 316.09L156.818 315.311L156.889 314.815V314.532L156.747 313.894L156.605 313.611L156.393 313.47L155.826 313.328L155.331 313.399L154.906 313.753L154.835 314.036V314.603L154.906 315.382V316.302L154.835 316.586L154.693 316.869L154.481 317.011L154.197 317.082L153.985 316.94L153.773 316.798L153.56 316.515L153.418 316.09L153.206 315.028L153.135 314.815L152.852 314.319L152.498 313.824L152.285 313.611L151.719 313.257L150.727 312.903L150.373 312.761H150.161L149.594 312.62L148.461 312.407L147.753 312.124L147.611 311.982L147.328 311.557L146.903 310.637L146.549 310.07L146.194 309.503L146.053 309.149L145.982 308.583V307.804L145.911 307.52L145.84 307.308L145.557 307.095H145.061H144.636H144.141L143.928 307.025L143.716 306.812L143.503 306.529L143.432 306.316L143.503 306.104L143.432 305.75L143.574 305.254L143.857 304.9L144.565 304.263L144.707 304.05L144.849 303.554L144.778 303.059L144.636 302.988L144.424 302.775L144.141 302.563L143.928 302.421H143.503L143.078 302.563L142.653 302.846L142.228 303.342L141.945 303.696L141.803 303.908L141.449 304.758L141.308 304.971L141.024 305.042L140.812 304.971L140.316 304.687L139.962 304.546L139.679 304.404L139.395 304.121L138.97 303.696L138.616 303.483L138.404 303.2L138.333 302.988L138.191 302.634L138.121 302.35L138.05 301.996L137.908 301.713L137.554 300.863L137.483 300.296L137.341 299.871L137.058 299.588L136.846 299.447L136.704 299.517L136.067 299.376L135.783 299.163L135.571 298.88L134.933 298.455L134.579 298.243L134.013 298.03H133.163L132.809 297.959L132.384 297.676L132.242 297.534L132.101 297.251L132.03 297.039L131.959 296.118L131.817 295.622L131.888 295.126L132.171 294.631L132.313 294.276L132.171 293.993L131.746 293.356H131.605L131.18 293.143L130.897 292.931L130.684 292.647L130.542 292.152L130.684 291.868L130.967 291.302L131.18 290.948V290.806L131.109 290.523L130.684 289.531L130.33 289.035L129.622 288.54L129.338 288.327L129.268 288.186L129.126 287.69L129.055 287.052L129.126 286.415L129.055 285.565L128.772 285.211L128.276 284.999L127.851 284.928L127.355 284.999L127.143 285.069L126.718 285.353L126.435 285.494H126.222L125.868 285.423L125.302 285.211L124.664 284.715L124.452 284.503L124.168 284.432L124.098 284.503L123.814 284.857L123.46 285.211L122.752 285.707L122.256 285.919L121.831 286.132L121.335 286.415L120.415 286.557H119.99L119.494 286.415L119.282 286.344L118.857 286.132L118.361 285.423L118.148 284.999L118.078 284.432L117.936 283.936L117.865 283.157L117.723 282.803L117.653 282.661L117.086 282.378H116.803L116.307 282.307L115.953 282.378L115.457 282.874L115.315 283.086L114.961 283.511L114.324 283.936L113.97 284.007H113.616L112.837 283.511L112.482 283.228L112.27 282.945L112.128 282.52V281.882L111.987 281.599L111.916 281.174L111.845 281.032L111.562 280.537L111.066 279.97L110.57 279.687L110.145 279.616L109.72 279.333L109.225 278.766L109.083 278.412L108.941 277.916L109.012 277.562L108.941 277.137L109.012 276.854L109.154 276.641L109.65 276.146L109.72 275.862L109.65 275.65L109.437 275.508L108.8 275.367H108.304L108.162 275.225L107.808 275.154L107.454 274.942L107.242 274.375L107.029 273.879L106.887 273.384V272.888L107.029 272.746L107.242 272.463L107.737 272.25L108.021 271.967L107.95 271.613L107.808 271.471L107.383 271.33H107.1L106.887 271.471V271.613L106.746 271.684H106.533L106.321 271.33L106.25 271.046V270.551L106.321 270.055L106.604 269.63L106.675 269.276L106.604 268.922L106.675 268.568V267.93L106.746 267.788L106.958 267.364L107.808 266.585L108.729 266.23L109.862 265.664L110.287 265.38L110.57 265.097L110.712 264.885L110.783 263.752V263.327V262.902L110.854 262.123L110.995 261.769L110.854 261.202L110.712 260.989L110.57 260.919L110.429 260.494V260.14L110.499 259.785H110.358L110.075 259.431L109.933 259.361L109.72 259.148L109.65 258.865V258.581L109.791 258.511L109.862 258.157L109.933 258.015L110.004 257.519L109.933 257.377L110.145 257.236L110.075 256.74L109.862 256.386L109.508 255.749L109.366 255.394L109.437 254.899L109.366 254.403L109.225 253.978L109.012 253.695L108.729 253.341L108.516 252.986L108.375 252.845L108.304 252.703V252.278L108.516 251.641L108.587 251.57L108.658 251.287L108.729 250.649V250.295L108.871 249.941L109.083 249.587L109.579 249.374L110.075 249.304L110.287 249.02L110.429 248.949L110.783 249.02L111.137 249.374L111.349 249.304L111.491 249.162H111.562L111.774 249.374L112.058 249.304L112.553 249.516L112.837 249.374L113.191 249.02L113.474 248.595L113.616 248.241V247.958L113.757 247.604L114.111 247.037L115.103 246.117L115.174 245.904L115.315 245.408L115.245 244.983H115.315L114.749 244.558L114.395 244.204L114.324 243.992L114.466 243.85H114.324L114.253 243.425L114.324 242.929L114.466 242.363L114.536 242.434L114.678 241.938L114.89 242.009L115.174 241.867L115.67 242.08L116.024 242.15L116.307 241.726L116.732 241.867V241.655L116.661 241.23L116.803 240.876L116.874 240.805L117.086 240.38L117.228 240.167L117.582 240.097L117.794 239.884L117.369 239.672H117.157L117.086 239.601L117.369 239.53L117.865 239.601L118.007 239.53L118.148 239.388L118.219 238.68L118.29 238.326L118.361 238.114L118.502 237.759L118.573 237.689L118.644 237.405L118.857 237.051L118.715 236.768L118.502 236.555L118.361 236.414H118.078L117.794 236.272L117.582 235.989V235.776L117.865 235.635L118.078 235.706H118.644L119.069 235.493H119.282L119.777 235.281L120.202 234.926L120.344 234.502L120.486 234.431L120.981 234.147V234.006L121.265 233.722H121.548L121.902 233.581L122.114 233.368L122.327 232.873L122.398 232.802L122.327 232.66L122.539 232.518L122.61 232.164L122.752 232.094L122.823 231.739L122.681 231.598L122.61 231.173L122.398 230.96L122.114 230.748L122.044 230.535L122.185 230.252L122.539 229.969L123.248 230.323L123.46 230.394H123.956L124.027 230.252L124.239 230.04V229.756L124.452 229.827V229.686L124.168 229.402L124.027 229.331L123.814 228.906L123.956 228.623L124.027 228.552L124.168 228.269V227.844L124.31 227.419H124.593L124.735 227.278L125.16 227.207V226.923L125.372 226.782L125.231 226.428L124.947 226.074V225.932L125.089 225.578L125.302 225.436L125.372 225.507L125.656 226.003L126.222 226.144L126.435 226.074L126.647 225.932L126.718 225.649L126.293 225.294L126.222 225.011L126.506 224.445L126.718 224.161L126.789 223.878L127.001 223.736L127.143 223.453L126.93 223.028L126.506 223.099L126.435 222.957L126.293 222.391L126.435 222.249L126.789 222.178L127.355 222.037L127.497 221.824L127.639 221.399V221.258L127.497 220.974L127.285 220.833L127.072 220.762L126.718 220.549L126.576 220.408L126.435 220.124V219.912L126.576 219.699L126.86 219.133L127.143 218.85L127.214 218.637L127.426 218.425H127.71L128.064 218.566V218.637L128.63 218.566L128.701 218.283L128.772 218.354L128.984 218.212V217.716L129.197 217.504H129.338L129.268 217.221L128.772 217.15V217.079H128.559L128.347 217.221L128.064 217.15L127.851 216.937L127.71 216.725L127.78 216.442L127.851 216.3L128.134 216.087H128.63V215.804L128.772 215.663L128.63 215.238L128.276 215.096H128.064L127.568 215.167H127.072L126.789 215.096L126.435 214.742L126.364 214.459L126.506 214.104L126.647 213.892L126.86 213.821L127.497 213.75L128.064 213.609L128.489 213.679L128.63 213.538L128.843 213.184L128.772 212.405L128.489 212.121L128.064 212.051L127.78 212.334L127.71 212.688L127.639 212.759L127.355 212.83L127.072 212.688L127.001 212.405L126.789 212.334L126.506 212.405V212.546H126.364L126.081 212.617L125.797 212.475L125.656 212.263V212.051L125.868 211.838L126.364 211.555L126.506 211.413L126.718 210.847L126.93 210.776H127.143L127.355 210.847L127.71 210.917L127.922 210.776L127.993 210.634L128.064 210.351L127.851 209.926L127.639 209.784H127.426L127.285 209.572V209.218V209.005L127.426 208.368L127.568 208.226L127.71 208.155L128.064 208.368H128.559L128.63 208.297L128.701 208.014L128.559 207.659L127.993 207.376V207.164L128.064 206.951L128.347 206.81H128.559L128.914 206.739L129.055 206.81L129.268 206.951L129.409 207.305L129.622 207.518L129.834 207.305L129.693 206.88L129.622 206.597L129.693 206.172L130.047 205.96L130.259 206.031L130.613 206.243L131.251 206.101L131.605 206.243V205.889L131.746 205.747L131.888 205.11L131.605 204.897L131.322 204.756L131.109 204.472H130.897L130.826 204.331L130.967 203.623L131.038 203.339L130.897 202.843V202.56L131.109 202.064L131.322 201.71L131.534 201.639L131.746 201.71L132.171 201.994L132.455 202.064L132.809 202.277H132.88L133.092 201.994V201.852L132.95 201.569L132.596 201.144L132.455 201.002L132.313 200.577L132.384 200.081L132.738 199.798L132.809 199.444L133.092 199.161L133.375 199.09L133.517 198.877L133.375 198.665L133.234 198.523L132.526 198.311L131.817 197.886L131.534 197.744V197.532V197.39L131.463 197.248L131.251 197.319L130.826 197.178L130.472 196.894L130.047 196.54L129.551 196.257L128.418 195.761L128.347 195.62L127.851 194.982L127.639 194.84L127.214 194.628L126.86 194.557L126.364 194.415L125.939 194.345L125.443 194.415L125.089 194.486L124.381 194.911L124.027 195.053L123.46 194.982L123.318 194.84L122.539 194.203L122.327 194.061L122.044 193.92L121.477 193.778L121.123 193.849L120.84 193.991L120.415 194.345L119.919 194.77L119.352 195.195L118.644 195.974L118.502 196.115L118.148 196.257L117.794 196.328L117.511 196.257L117.157 196.115L117.086 196.044L116.874 195.62L116.732 195.407L116.59 194.699L116.378 194.132L116.094 193.566L115.811 193.141L115.457 192.857L114.82 192.716L114.395 192.645H113.828H113.545L113.12 192.857L112.695 193.212L112.199 193.849L111.845 194.274L111.349 194.77L110.712 195.265L110.145 195.478L109.72 195.549L109.083 195.832L108.8 195.974L108.729 196.115L108.446 196.894L108.162 197.319L107.95 197.603L107.667 197.744L107.312 197.957H106.887L105.754 198.24L105.329 198.382L104.834 198.594L104.479 199.019L104.196 199.444L103.842 200.081L103.559 200.506L103.063 200.931L102.496 201.215L102.001 201.427L101.434 201.498H100.372L99.8759 201.639L98.8844 201.923L98.247 202.064L97.7512 202.135L97.2555 200.152L96.1223 197.957L95.7682 197.886L95.06 196.611L94.9891 195.336L94.7058 194.911L95.3432 194.132L95.4849 194.061L95.6265 193.778V193.495L96.8305 192.999L96.9014 192.857L97.3263 192.716L98.3886 192.503H99.0969L99.3802 192.645L99.5926 192.928L99.8759 193.353L100.301 193.92L100.655 194.203L101.222 194.486L101.788 194.982L102.355 195.407L102.567 195.549H102.921L103.205 195.124L103.346 194.982L103.63 194.84H104.125L104.621 194.203L103.984 193.778L104.267 193.424L104.409 193.353H104.692L104.763 193.141L104.479 193.07L104.338 192.928L104.409 192.432L104.692 192.291V192.078L105.683 191.583L105.967 191.441H106.108L106.392 191.299V191.087L106.887 190.874L107.1 191.087L108.446 190.166H109.579L110.358 189.812L110.287 189.6L110.429 189.245L110.287 189.175L110.429 188.962L110.641 188.891L110.924 188.608L111.278 188.466V188.325L111.703 188.183L111.42 187.829L111.491 187.758V187.475H111.278L110.924 187.546L110.783 187.475V186.2V185.421L110.712 185.138L110.783 184.925L110.145 184.359L109.862 184.146H109.65L109.366 184.217L108.8 184.642L108.233 184.854L107.879 184.925L107.596 185.138L107.383 185.563L107.242 185.704H106.887L106.108 185.492H105.825L105.329 185.563L105.046 185.421L104.763 185.138L104.338 185.067L104.196 185.138L103.913 185.279L103.488 185.563L103.275 185.492L103.063 185.279H102.496L102.284 185.208L102.142 185.067L101.363 184.784L101.151 184.713L101.08 184.571L101.222 184.429L101.505 184.146L102.001 183.863H102.142L102.851 183.509L103.275 183.367L104.055 183.013L104.267 182.8L104.409 182.588L104.55 182.376L104.692 182.234L105.117 182.092L105.329 181.667L105.4 181.455L105.471 181.384L105.613 180.676L106.25 179.897L105.896 179.259V179.047L105.754 178.339L105.683 178.197V177.772L105.754 177.489L105.896 177.347L105.754 177.135L105.825 176.71L105.542 176.568L105.4 176.072V176.001L105.967 175.364L106.179 175.01L106.108 174.727L106.321 174.585L106.463 174.302L106.533 174.018L106.392 173.948V173.735L106.108 173.664V173.381L105.683 173.027H105.471L105.683 172.389L106.179 171.185L106.392 170.619L106.533 170.052L106.463 169.769L106.179 169.557H105.967L105.825 169.273L105.613 168.848L105.4 168.636L105.259 168.423L105.117 168.069L105.329 167.644L105.4 167.361L105.259 167.149V167.007L105.329 166.865L104.904 166.44L104.692 166.086L104.621 166.157L104.338 166.015L104.196 165.59L104.338 165.449L104.055 165.236L103.63 165.095L103.7 163.112L104.055 162.474V162.12L104.338 161.908L104.692 161.553L104.621 160.562L107.383 161.624L108.021 162.191L110.145 162.757H110.216L111.349 161.553L112.553 160.208L114.82 157.587L114.961 157.233L115.528 155.746L114.678 155.038L113.332 154.4L112.624 154.188L112.978 153.055L113.191 152.63L113.686 152.346L113.97 152.63L114.324 152.559L114.607 152.417L114.961 152.559H115.174L115.528 152.913L116.024 153.196L116.165 153.409L116.803 153.834L117.157 154.046L117.369 154.188L117.582 154.471L118.007 154.684L118.857 154.896L119.14 155.109L119.211 155.25L119.494 155.604L119.636 155.817L119.919 156.242L120.91 155.888L121.194 156.667L121.902 156.383H122.539L122.894 156.242H123.035L123.46 156.171L123.602 156.313L123.673 156.454L123.885 156.596L123.956 156.808H124.31H124.381L125.089 156.879L125.231 156.667L125.302 156.596L125.514 156.737L125.656 156.808L125.868 156.879L125.726 156.596L125.443 155.746L124.381 153.905L124.239 153.692V153.48L124.877 153.621L124.947 153.55L125.018 153.267L124.806 152.913L124.31 152.346L124.239 151.426V151.355L124.593 151.426V151.567L124.806 151.78L125.018 151.851L126.293 151.78H126.576L127.497 151.567H128.134L128.276 151.709L128.347 151.992L128.276 152.559L128.418 153.055L128.701 153.621L129.551 154.896L129.48 155.25L129.197 155.958L130.472 156.454L130.826 156.596L131.109 156.667L131.038 156.808L131.251 157.8L131.746 157.729V157.092L132.313 156.95L132.242 156.596L132.596 156.525L132.667 156.242L133.021 156.737L133.588 156.95L133.659 156.737L134.509 156.808H134.863L135.004 156.596L135.358 156.667L136.067 156.95L137.271 157.233L137.625 157.446H137.837L138.191 157.517L138.262 157.587L138.545 157.375H138.829L139.254 157.162L139.608 156.808L139.962 156.667L140.033 156.596L139.82 156.1L139.608 155.817L139.325 155.038L139.254 154.542L139.325 154.471L139.679 154.329L139.891 154.117L139.962 153.692L140.174 153.621H140.599L140.67 153.55L141.166 153.196L140.245 151.851L139.537 150.718L139.254 150.363L139.041 149.938L138.616 149.089L138.475 147.885L136.35 148.097L133.446 148.168L129.834 148.026L127.71 147.672L125.797 147.46L124.735 147.318L122.469 146.61L122.185 146.539L120.273 145.831L117.44 144.414L116.236 143.706L115.811 143.352L114.395 142.856L112.907 142.077L110.499 141.156L108.516 139.952L107.525 139.386L106.817 138.748L106.392 138.465L106.25 138.04L105.896 136.765V136.057L105.967 134.995L105.896 134.428L105.542 133.72L105.259 133.224L104.479 132.728L103.7 132.374L103.063 132.162L101.647 132.02H101.151H100.088H98.8844L98.0345 131.666L97.1847 131.029L96.4056 129.966L96.0515 129.825L94.4225 128.762L93.7851 128.196L93.3602 127.7L92.9353 127.133L92.7936 126.779L92.7228 126.354V125.788L92.7936 125.434L93.1477 124.938L93.431 124.725L93.856 124.371L94.4934 124.017L94.9183 123.946L95.6265 123.805H95.9098L97.3971 123.734L98.1762 123.451L98.5303 123.026L98.8136 122.601L98.9552 122.247V121.892L98.8136 121.184L98.6719 120.688L98.3886 120.263L97.6804 119.555L97.1847 119.272L96.2639 118.847L95.7682 118.564L94.9183 117.785L94.635 117.076L94.4934 116.439V115.872L94.635 115.447L94.9891 114.385L94.9183 112.615L95.1308 111.623L95.5557 110.773L95.839 110.207L96.1931 110.065L96.5472 109.994H96.9722L97.5388 110.207L98.7428 111.056L99.0969 111.269L100.372 111.623L101.08 111.552L104.196 111.127L104.621 110.986L105.471 110.136L106.038 109.073L106.179 108.648V107.869L106.108 107.374L105.896 106.878L105.542 106.453L104.55 105.957L103.063 104.966L102.426 104.824L101.363 104.682L100.018 104.612L99.5926 104.541L99.3094 104.328L99.0969 103.974L98.6011 101.92L98.3178 101.424L97.9637 101.141L97.5388 101.07H97.1138L96.7597 101.212L96.4056 101.566L95.6974 102.77L95.06 103.549L94.2101 104.045L92.9353 104.399L91.7313 104.541H90.8106L90.3148 104.257L89.2524 103.549L88.7567 103.124L87.7651 101.779L87.4819 101.566L87.1986 101.424H86.632L85.6404 101.07L85.1447 100.716L84.8614 100.362L84.5781 99.8663L84.5073 99.5122L84.4365 99.0873L84.7197 98.3791L85.003 97.8125L85.8529 96.7501L86.5612 96.1835L86.9153 95.9002L87.0569 95.6169L86.9861 95.1212L86.7736 94.6962L86.3487 93.9172L86.2779 93.3506V92.5715L86.4903 92.2174L86.7736 91.8633L87.1277 91.5092L87.6943 91.2259L88.7567 90.7301L89.1108 90.3052L89.3233 89.8803V89.3137L89.5357 88.8887L89.9607 88.3221L90.5273 87.7556L91.5896 86.8349L92.0145 86.4099L92.2978 85.9141L92.4395 85.3476L92.2978 84.781L92.0854 84.2144L91.6604 83.7894L90.8814 83.2229L89.6066 82.5146L88.1901 81.8064L87.4819 81.0982L87.1277 80.3899L86.4903 79.4692L86.1362 78.6902L85.7821 77.2737L85.6404 75.7864L85.2155 73.0243V72.9535L84.8614 71.1829L84.7197 70.1205L84.5781 69.4831L84.1532 68.8457L83.7282 68.4208L83.4449 68.2791L83.02 68.1375L81.9576 67.8542L81.6035 67.5709L81.0369 66.9335L80.612 65.8003L80.3995 64.9504V64.1714V63.9589L80.4703 63.534L80.612 62.8966L80.9661 62.1175L81.1078 61.6926L81.2494 61.126L81.3202 60.2053L81.391 59.0013L81.2494 57.7265L81.1078 57.2307L80.8245 57.0182L80.5412 56.8058L79.2663 56.2392L78.9831 55.9559L78.5581 55.1768V53.9728L78.3456 52.6272L78.204 51.9898L78.0624 51.3524L77.7791 50.7858L77 50.0775ZM135.854 386.134L136.137 386.276L136.35 386.488H136.421L136.562 386.63L136.775 386.772H136.917L137.129 386.913L137.2 386.984L137.483 387.055L137.554 387.267L137.625 387.692L137.766 388.188L138.05 388.047H138.262L138.545 387.834L138.616 387.622L138.687 387.551L138.758 387.338L138.97 386.984V386.772L139.183 386.559L139.325 386.276L139.183 385.78L138.97 385.709L138.758 385.426L138.829 385.143V384.789L138.9 384.364L138.758 384.151H138.545L137.908 384.364L137.625 384.576V384.718L137.412 384.859L137.271 385.639L137.2 385.851V385.993L136.775 386.063L136.704 386.134L136.208 386.063L136.137 386.134H135.854Z" fill="black"/>
</svg>
