<svg width="1000" height="1000" viewBox="0 0 1000 1000" fill="none" xmlns="http://www.w3.org/2000/svg">
<path fill-rule="evenodd" clip-rule="evenodd" d="M252.375 969.956L252.841 969.396L253.774 970.142L254.334 969.676L254.427 968.93L255.267 969.303L257.413 967.903L257.039 968.836L257.413 969.489L256.853 970.609L256.013 970.516L255.92 971.355H256.386L257.226 972.288L257.599 973.128L256.666 974.341L256.759 974.714L256.013 975.18L255.827 976.487L254.894 977.326L254.334 977.42L253.214 976.673L252.748 977.14L251.255 977.699L251.442 977.046L250.695 977.42L250.135 976.673L251.255 975.74L250.602 975.087L249.482 974.527L248.27 974.901L248.923 974.154L248.363 973.501L249.109 972.568V971.728L250.229 970.982L251.348 970.889L252.375 969.956Z" fill="black"/>
<path fill-rule="evenodd" clip-rule="evenodd" d="M704.58 74.5927L704.673 73.8463L705.233 73.3799L705.98 71.9804L708.312 70.7676L711.111 72.0737L711.764 72.7268L712.044 73.7531L712.79 75.0592L715.309 74.3128L717.642 75.2458L718.761 74.5927H719.694L720.534 74.8726L721.56 73.3799L722.68 72.8201L723.986 73.0067L724.732 72.6335L725.292 71.1408L724.825 70.6743L724.639 69.2748L725.199 68.5285L725.665 67.3156L727.438 66.1028L727.624 65.4497L727.997 62.5575L727.158 61.5313L726.878 59.9452V58.2659L726.411 57.4262L725.758 57.3329L725.105 56.5866L725.292 55.5603L724.825 54.4408L725.478 52.0151L726.131 51.1754L727.904 50.0559H728.93L729.49 48.7497V47.7235L728.277 46.324L728.184 45.5776L727.438 44.2715L726.691 43.8983L725.945 44.3648L726.785 43.1519L727.064 42.0324V40.7262L727.811 39.3268L727.158 38.3938L726.971 37.4609L726.411 37.2743L725.852 36.3413V35.7816L727.438 34.5687L727.158 33.6357L727.438 32.8894L726.971 31.6765L727.064 30.557L727.438 29.9972H727.997L729.117 28.7844L729.957 29.3441L730.05 29.9972L731.169 30.6503L731.543 30.3704H732.662L733.129 31.1168L734.528 31.0235L736.674 30.3704L737.887 30.6503L739.286 29.8106L739.659 28.9709L741.339 28.4112L742.365 27.2916L742.645 26.5452L742.085 25.9855L741.245 23.7464L741.339 23.0933L743.391 24.0263L743.578 24.8659L745.164 24.586L746.563 23L747.31 24.1196L748.336 24.7726L749.269 24.8659L749.922 24.3061L751.508 25.2391L751.321 25.7056L752.068 25.8922L753.281 24.8659L754.307 25.3324L754.773 25.9855L755.986 26.6385L756.359 26.452L757.479 26.7318L758.319 27.5715L758.225 28.1313L759.438 28.5978L760.371 28.3179L760.464 27.5715L761.397 27.3849L761.864 26.8251L762.424 27.105L762.61 28.1313L763.636 28.5045L764.569 28.4112L765.782 27.7581L767.088 26.452L767.368 25.2391L767.275 24.2128L767.928 23.8397L768.021 24.4927L768.861 25.3324H769.701V25.9855L770.634 26.5452L771.66 26.2654L772.779 28.4112L774.086 29.3441L776.325 30.0905L777.071 29.7173L778.097 30.1838L779.404 30.3704L779.31 31.4899L779.777 32.143L779.124 33.076L777.817 33.6357L778.004 34.3821L779.777 36.6212L778.937 37.181L778.097 37.0877L776.418 35.6883L775.578 34.662L774.086 33.8223L773.339 33.9156L771.287 35.595L770.074 37.4609L769.981 39.2335L771.287 40.2598L770.354 40.8195L769.794 40.633L769.048 41.4726L767.648 41.5659L765.782 41.0061L763.823 41.5659L763.17 42.219L762.797 43.1519L761.771 43.8983L761.584 45.2045L760.651 47.257L759.811 47.0704L759.158 47.6302V48.1899L757.852 49.3095L757.386 50.5223L756.733 50.8955V52.0151L757.479 52.5748L758.972 53.1346L759.811 51.9218L759.718 51.2687L760.558 50.429L761.117 50.5223L762.144 49.8693L762.704 50.1492L764.663 49.6827L765.129 49.4028L765.223 48.3765H766.342L766.715 49.4028L766.902 50.9888L768.768 52.948L769.701 52.7614L769.514 53.3212L770.354 54.1609H771.66L772.406 52.5748H772.873L773.433 53.3212H775.858L775.485 54.814L774.645 56.0268L773.806 56.7732L773.992 57.3329L775.952 58.0793L776.605 57.8927V56.6799L776.885 56.2134L777.631 56.4933L777.538 57.0531L778.004 58.6391L778.75 58.3592L779.59 58.8257L778.657 60.3184L779.683 61.1581L779.31 61.7179L778.377 61.9045V62.6508L776.138 64.0503L775.392 65.8229L773.059 67.5022L772.313 66.9424L771.94 65.7296L771.193 66.2894L770.074 65.7296L769.328 66.1961L768.768 65.8229L767.462 66.0095L766.715 66.476L766.435 67.2223L765.782 67.6888L766.062 68.4352L765.782 68.995L764.476 69.5547L763.916 70.1145L764.01 70.7676L763.357 70.6743L762.704 71.5139L762.61 72.167L761.957 72.2603L761.677 72.7268L760.838 73.1L760.744 73.7531L760.185 72.9134L758.972 73.5665L758.505 74.3128L758.319 75.619L758.692 76.8318L758.225 77.7648V79.0709L759.345 80.1905V80.657L760.558 81.4966L760.744 82.8028L761.677 83.6424L761.397 85.5084L761.584 87.1877L761.024 87.7475L760.931 89.1469L760.091 89.6134L759.718 90.9195L759.345 91.386L759.531 92.0391L760.371 92.319L758.412 93.6251L758.878 95.0245L757.479 95.5843L757.199 96.5173L758.132 97.8234L758.972 98.5698L759.531 99.5028L759.065 100.622L757.945 100.995L758.132 101.275L757.199 101.462L757.106 102.395L755.8 102.022L755.52 101.369L755.893 100.249L754.773 99.3162L753.467 99.2229L750.948 100.063L749.922 100.809L749.362 101.742H749.082L748.709 102.582L747.776 102.861L747.683 103.608L747.03 103.141L746.47 103.701L747.123 104.727L746.097 105.007L745.257 104.727L744.511 105.567L744.324 106.5L745.444 107.153V107.899L746.004 109.206H746.47L747.216 111.258L747.869 111.631L746.936 115.27L745.35 116.576L744.697 116.109L744.417 114.99L744.884 113.777L744.231 113.217L743.858 111.818L744.231 110.885L743.858 110.232V109.392L743.391 109.206L742.552 109.579L742.178 109.112L740.499 109.206L740.033 109.579L739.286 109.392L738.633 109.952L736.301 110.885L736.767 111.631L736.114 112.564L735.834 112.284L736.394 111.258L736.021 110.885L735.368 111.071V109.952L734.342 109.392L734.715 107.713L734.155 106.687L732.476 105.38L732.289 104.821L731.169 103.514L730.143 103.701L729.863 104.447L729.024 104.354L729.397 104.914L728.371 105.38L727.251 104.447L725.385 104.634L724.732 103.421L723.706 102.768L723.146 101.649L722.586 101.462L721.84 99.4095L721 99.1296L720.347 98.3832L717.642 98.01L716.055 98.6631L715.682 99.2229L715.029 98.8497L714.656 99.6894L714.843 100.063L714.563 101.649L714.003 102.022L712.137 101.835L711.671 100.156L710.364 98.5698L710.271 97.7301L710.738 96.7972L710.551 96.424L711.577 95.491L711.857 93.905L710.924 92.7854L711.297 89.8933L710.364 88.1206L710.551 87.8408L710.085 86.6279L708.778 85.5084L708.592 84.1089L708.032 82.6162L708.965 80.5637L709.152 79.0709L709.711 78.4179L709.618 77.9514L708.685 78.138L707.659 77.8581L707.099 76.8318L706.073 76.0855H704.953L704.58 74.5927Z" fill="black"/>
<path fill-rule="evenodd" clip-rule="evenodd" d="M261.423 951.856L260.77 951.576L260.211 952.136L260.49 953.628L258.065 955.867L257.039 955.214L256.106 955.308L254.893 956.147L254.799 956.614L253.96 956.147L252.934 956.241L252.187 956.707L251.721 957.92L251.814 959.133L250.788 959.413L250.694 958.107L250.041 957.733H248.642L248.828 956.987L248.175 956.241L248.549 955.401L247.989 954.748L248.269 954.281H248.922L249.295 953.535L248.455 952.322L248.922 951.762L248.642 951.296L249.108 949.71L248.455 947.004L247.336 944.765L246.216 943.459L245.097 943.366L245.936 942.526L245.563 941.78L245.843 940.847L247.336 940.474L248.175 941.22L249.202 941.033L249.855 940.287L250.135 939.261L249.668 938.421L249.482 937.208L249.108 936.835L250.041 936.275L250.508 935.622L249.948 934.129L250.415 933.943L250.135 933.103L250.508 932.077L250.415 931.237L249.948 930.864L249.108 930.957L249.202 930.398H250.228L250.601 929.745L250.788 928.158L251.347 927.785L251.161 927.412L251.814 926.759L250.508 924.24L251.254 922.188L250.508 920.415L249.202 919.948L249.575 917.896L250.415 917.523L250.508 915.564L249.948 913.884L248.642 911.272L247.336 910.059L245.843 910.432L244.444 910.339L243.511 910.899L242.018 910.712L241.458 910.339L241.831 909.219L240.805 909.499L240.898 908.66L240.152 907.727L239.032 907.26H238.379L236.887 908.1L236.7 907.913L236.887 906.794L237.633 906.141L237.913 906.514L238.753 906.234L239.126 905.488L239.312 903.342L239.032 902.689L239.685 901.662L239.779 899.983L239.406 899.796L237.26 897.464L235.394 897.371L233.621 896.065H233.248L232.782 895.038L233.715 894.105L234.834 894.385L235.207 893.919L235.301 892.893L234.834 891.773L233.715 892.053L233.155 891.773L232.502 889.627L232.035 889.721L231.196 889.067L231.102 888.601L229.889 888.788L229.516 888.228L230.356 885.336L229.983 884.683V883.47L230.449 882.443L230.076 879.365L229.796 878.712L228.956 878.059L229.516 876.846L228.956 876.099V875.446L229.796 873.674L229.236 872.274L228.583 871.808L227.837 870.688L227.557 869.662L226.251 868.729L226.158 868.356L225.038 867.516L223.639 865.837L223.452 864.064L224.012 863.411L224.198 862.198L223.825 861.079L222.332 859.586L221.12 860.426V859.959L222.332 858.84L222.799 858.933L223.452 857.813L222.985 855.854L222.426 855.574L222.892 855.014L222.612 853.148L222.146 852.589V851.283L221.679 850.256L221.866 849.603L221.399 849.51L221.959 848.857L222.426 847.737L221.866 846.991L221.679 845.871L221.026 845.032L220.093 844.285L221.12 842.886L220.933 842.14L221.679 841.486L222.146 840.46L222.053 837.941L221.773 837.475L221.026 837.008L220.933 836.262L220 835.982L220.28 834.303L220.933 833.556L220.56 831.69L221.026 830.851L222.053 829.824L222.426 827.119L222.985 825.906V823.48L225.038 820.028L226.437 818.816L227.557 818.256L228.21 818.162L229.423 818.442L230.449 817.509L231.289 815.55L232.035 812.658L232.502 811.165L232.968 810.605L233.808 807.713L234.647 806.594L235.114 804.821L235.207 802.862L235.487 802.209V800.903L235.954 799.783V797.917L235.767 796.518L235.954 795.305L236.42 794.745L237.726 792.04H238.566L238.659 791.573L240.805 791.107L241.738 790.547L242.578 790.454L244.257 789.8L246.683 787.281L247.522 785.042L250.508 784.203L252.654 784.483L253.866 784.949L254.613 783.923L256.106 780.191L256.852 779.258L257.132 778.232L257.505 778.138L258.345 776.832L260.397 775.899L262.636 775.526L263.476 775.06L263.849 774.407L264.316 771.794L265.062 770.115L267.954 768.436L272.806 768.902L275.511 769.835L278.03 768.062L278.683 767.876L280.176 766.85L282.228 765.917L283.721 764.611L284.654 763.211L285.96 760.879L286.893 759.852L288.946 758.64L290.159 757.613L290.532 756.494L291.558 755.094L292.398 754.908L293.517 753.695L294.45 753.135H295.103L295.663 752.109L296.409 751.362H296.969L297.809 750.523L298.182 749.497L298.649 749.123H300.235L300.794 747.164L301.634 746.231L302.567 743.992L302.287 743.059L302.567 742.406L303.407 742.219L303.593 743.059L304.899 742.499L306.392 742.313L306.952 742.593L308.445 742.313L308.911 742.779L309.751 742.593L310.684 741.38L311.523 741.287L312.177 740.54L314.509 741.287L316.002 741.94L316.561 742.593L319.174 742.779L319.267 741.846L319.64 741.473L320.573 741.287L321.133 741.753L323.279 741.287L323.652 740.54L324.212 740.633L324.771 739.98H326.078L326.917 739.514L328.317 739.98L330.089 740.074L331.395 739.421L331.769 738.954L332.888 739.327L334.194 740.167L335.687 740.26L335.967 741.193L336.62 741.753L338.952 742.033L343.244 743.339L345.576 743.712L346.323 744.085L347.909 744.365L348.842 744.832L349.215 745.392L350.708 751.642L352.107 752.762L352.854 752.949L353.413 753.788L353.973 753.975L354.626 755.374L355.093 755.747L355.466 755.188L356.492 755.374L357.518 756.214L357.612 756.68L358.451 756.121L360.784 755.841L361.344 756.774L362.09 757.333L364.142 757.147L364.516 757.333L364.795 759.013L365.915 759.666L365.728 760.412L364.422 760.039L363.396 760.599L363.116 761.438L361.997 762.185H360.877L360.504 763.864L360.784 766.01L361.344 767.596L362.09 768.436L363.209 769.182L364.609 769.275L365.822 768.062L367.035 768.342L367.874 769.369L368.247 770.302L367.594 771.328L367.128 771.608L365.822 773.66V774.313L366.102 775.993L366.755 777.205L368.247 778.978L369.46 779.631L371.606 780.191L372.912 779.631L373.379 778.698L373.192 777.952L374.125 777.205L373.938 776.646L374.592 775.246L375.151 776.926L375.711 776.552L376.271 778.512L376.364 779.724L375.711 782.43L375.898 783.643L377.111 783.923L376.831 787.095L376.271 789.521L376.831 792.226L377.857 793.626L378.603 793.905L379.07 793.532L379.63 793.905L380.842 795.771L380.563 797.451L380.656 798.85L381.029 799.317L381.962 799.69L382.522 800.809L382.428 801.836L383.455 802.395L384.294 803.142L384.481 803.888L385.414 804.635L386.907 804.541L387.466 805.567L386.72 806.687L387.093 807.9L385.694 809.673L384.854 809.393L382.149 808.833L381.495 810.232L381.869 810.979V812.005L380.842 812.565L379.909 813.498L378.976 815.177L378.883 816.017L380.096 818.629L381.309 819.095L381.402 820.402L380.656 820.961L379.63 821.148L379.35 821.894L380.003 822.547L379.909 823.76L378.883 824.413L377.577 824.786L377.484 825.346L377.857 826.652L378.323 826.372L378.883 826.932L377.95 829.078L379.07 829.918L378.23 830.291L378.044 830.851L378.603 831.037L378.51 832.064L379.443 833.183L380.096 832.903L380.749 833.09L380.936 834.676L380.563 835.609L379.909 835.702L379.35 836.542H378.23L377.67 836.822L377.764 837.381L377.297 838.314L378.137 838.594L378.976 840.367L378.23 840.554L377.577 839.527L376.644 840.46H375.711L374.312 841.3L373.192 842.699L371.793 845.032L372.259 845.965L371.979 846.618H371.046L368.901 848.857L367.874 848.95L368.621 849.976L369.647 849.79L369.367 850.909L367.968 850.536L366.288 851.003L366.008 852.122L366.288 853.428L365.075 855.761L364.142 855.201L363.116 855.388L362.37 855.947L361.157 856.134L360.69 857.44L359.198 857.627L358.451 856.974L357.145 857.347L356.585 857.907L356.679 859.119L356.026 859.586H355.373L354.533 860.426L354.346 861.265L354.813 862.291L352.76 864.624L353.227 865.184L352.667 865.557L353.133 866.956L352.014 866.77L350.614 867.423L350.241 869.009L349.495 869.848H348.842L348.189 869.289L346.509 870.595L346.23 872.088L347.909 872.834L348.655 873.953L348.002 874.886L346.23 875.353L344.084 875.54L343.524 874.793L342.404 875.073L341.751 875.913L342.311 876.659L342.591 877.592L343.337 877.872L343.057 878.152L343.617 879.365H343.151L343.431 880.857L342.964 881.231L341.565 880.204L340.632 879.831L340.072 880.298L339.512 879.924L339.139 880.204L338.299 882.164V882.91L339.979 883.656L339.512 884.216L338.766 884.123L337.18 883.19L336.62 883.283L335.501 884.589L335.407 886.828L336.527 888.321L337.646 887.668H338.486V888.321L337.366 888.228L336.247 889.161L335.687 889.907L334.101 890.28L333.635 890.187L332.235 891.586L331.489 891.493L330.836 892.706L329.623 892.519L328.503 892.799L327.664 894.012L327.757 895.132L328.41 895.505L328.97 896.438L328.13 896.998L326.078 897.277L324.865 896.718L324.118 896.904L323.372 897.837L323.092 899.143L323.559 900.543L324.585 900.45L325.425 901.383L326.637 902.129L327.104 902.782H328.037L328.13 903.622L327.757 904.928L327.104 905.394L327.664 905.674V907.353L327.384 908.846L326.357 909.686L322.906 910.246L321.879 909.779L319.454 910.059L317.214 911.272L318.147 912.951L317.961 913.418L316.655 913.045L315.349 913.884L314.229 913.324H313.203L312.55 913.698L311.99 915.564L311.337 914.817L310.777 915.004L310.59 915.75L309.937 915.377L308.351 917.429L307.978 918.549L306.579 919.575L305.926 921.255L304.153 921.534L303.687 922.561L305.459 924.147L305.366 924.52L304.153 924.333L303.687 923.867L303.22 924.147L302.847 923.494L302.194 924.053L301.634 922.747L301.168 923.587L300.514 923.027L300.048 923.96L299.208 922.841L298.182 923.027V923.494L296.689 924.52L296.409 925.453L296.783 926.293L296.969 927.599L296.409 927.039L294.357 926.852L293.984 925.826L291.838 926.013L292.025 926.572L291.371 927.505L290.345 927.319L289.879 926.666L290.439 926.386L290.718 925.546L290.159 925.64L289.412 925.08L289.599 923.307L288.386 922.934L287.173 923.027L286.987 923.96L286.054 923.774L285.96 922.001L285.307 921.628L283.628 921.908L283.441 921.441L282.602 922.188L280.083 922.841L279.523 923.307L279.43 924.24L279.896 925.733L279.15 926.946L278.217 927.505L277.564 928.998L277.284 930.957L278.217 932.17L278.31 933.756L277.47 935.809L277.937 937.488L278.963 938.328H277.937L277.097 938.794L276.817 939.634L277.47 941.127L276.444 940.66L275.231 941.127L274.205 942.153V943.926L273.739 944.672L273.645 946.071L274.578 947.284L273.552 948.124L274.018 949.99L271.686 950.176V949.43L271.22 948.87L270.1 949.896L269.54 949.337L268.514 949.803V950.923L267.488 950.736L267.301 949.71L267.581 949.057L266.928 947.471L267.021 947.098L265.435 946.258L265.249 945.232L264.689 944.952L264.316 943.646L263.849 943.366L262.636 943.272L260.584 944.952L260.864 946.071L261.89 946.538L261.05 947.284V948.87L260.677 949.617L261.237 950.456L261.89 950.363L262.077 950.923L261.423 951.856Z" fill="black"/>
</svg>
