<svg width="1000" height="1000" viewBox="0 0 1000 1000" fill="none" xmlns="http://www.w3.org/2000/svg">
<path fill-rule="evenodd" clip-rule="evenodd" d="M28.323 174.522C27.3687 174.782 26.675 175.737 27.196 177.124C27.7156 178.512 28.8441 179.206 29.0168 177.904C29.191 176.603 28.9304 175.39 31.5314 176.256C34.1337 177.124 35.1744 175.737 32.9189 174.61C30.6649 173.481 29.2773 174.263 28.323 174.522Z" fill="black"/>
<path fill-rule="evenodd" clip-rule="evenodd" d="M30.0159 173.036C30.9602 172.926 32.0694 173.048 33.3731 173.7C34.0154 174.021 34.5532 174.421 34.8716 174.91C35.2158 175.439 35.3427 176.19 34.8405 176.817C34.4261 177.335 33.7726 177.507 33.2235 177.54C32.6337 177.575 31.9484 177.468 31.2094 177.222M30.0159 173.036C29.3724 173.11 28.7292 173.323 28.337 173.452ZM28.337 173.452C28.2179 173.491 28.1219 173.523 28.0561 173.541ZM28.5898 175.504C28.3539 175.568 28.1928 175.705 28.1112 175.864C28.039 176.006 27.9747 176.271 28.1285 176.714C28.1805 176.405 28.2856 175.993 28.5645 175.639C28.6129 175.577 28.6641 175.52 28.7177 175.468C28.6764 175.48 28.6339 175.492 28.5898 175.504ZM31.0323 175.059C31.3715 175.102 31.7562 175.201 32.1952 175.394C32.0876 175.366 31.9734 175.332 31.8527 175.292L31.8524 175.292C31.5644 175.196 31.2911 175.117 31.0323 175.059ZM27.9849 177.881C27.9847 177.881 27.9859 177.877 27.989 177.87C27.9866 177.878 27.985 177.881 27.9849 177.881ZM28.0561 173.541L28.0561 173.541ZM28.0561 173.541L28.0547 173.541ZM28.0547 173.541C27.3367 173.737 26.6739 174.208 26.3004 174.937ZM26.3004 174.937C25.9203 175.68 25.9005 176.569 26.2433 177.482ZM26.2433 177.482L27.1954 177.125ZM30.0789 177.536C30.065 177.685 30.0485 177.86 30.0245 178.04L29.0165 177.905L30.0246 178.039C29.9673 178.471 29.8004 179.022 29.3134 179.362C28.7616 179.746 28.1615 179.623 27.7813 179.433C27.0843 179.085 26.5449 178.288 26.243 177.481L27.1954 177.125M30.0789 177.536L30.0804 177.52ZM30.0804 177.52C30.0954 177.359 30.1076 177.234 30.1237 177.121ZM30.1237 177.121C30.1321 177.063 30.1406 177.017 30.1482 176.982ZM30.1482 176.982C30.3258 176.985 30.6537 177.037 31.2091 177.222Z" fill="black"/>
<path fill-rule="evenodd" clip-rule="evenodd" d="M40.6384 176.952C38.8176 177.82 39.6856 179.294 41.7669 178.08C43.8482 176.866 44.5829 175.652 45.4084 176.952C46.2354 178.253 47.9698 180.121 48.3166 180.64C48.6635 181.161 50.5706 181.901 49.53 180.033C48.4894 178.167 46.714 175.911 45.8885 175.218C45.0615 174.524 44.0208 174.437 43.1544 175.305C42.2864 176.172 42.4606 176.085 40.6384 176.952Z" fill="black"/>
<path fill-rule="evenodd" clip-rule="evenodd" d="M44.5376 173.657C45.298 173.657 45.9889 173.971 46.5439 174.437L46.5446 174.437C47.0476 174.86 47.7539 175.673 48.4377 176.566C49.1355 177.476 49.8694 178.549 50.4201 179.536L50.4202 179.536C50.5725 179.81 50.6928 180.073 50.7677 180.326C50.8396 180.568 50.8917 180.872 50.8264 181.191C50.7527 181.552 50.5391 181.87 50.2054 182.063C49.9106 182.233 49.6089 182.256 49.4024 182.247C48.9953 182.23 48.6022 182.074 48.3197 181.923C48.0513 181.779 47.6952 181.538 47.472 181.203C47.4215 181.128 47.287 180.958 47.0533 180.679C46.9495 180.554 46.8343 180.418 46.7094 180.27L46.6865 180.243C46.5534 180.085 46.4106 179.916 46.2637 179.74C45.6861 179.049 45.0052 178.21 44.5517 177.496L44.5515 177.496C44.546 177.487 44.5406 177.479 44.5355 177.471C44.3421 177.575 44.1076 177.741 43.7411 178C43.7231 178.012 43.7047 178.025 43.686 178.038C43.3078 178.305 42.8417 178.63 42.2813 178.957L42.2809 178.958C41.666 179.316 41.065 179.522 40.5137 179.552C39.9869 179.581 39.3421 179.446 38.934 178.914C38.4868 178.331 38.5919 177.635 38.8793 177.147C39.158 176.674 39.6351 176.303 40.2024 176.032L40.2033 176.032C41.1539 175.58 41.4769 175.424 41.692 175.281C41.8443 175.179 41.9238 175.099 42.2166 174.805C42.2795 174.742 42.3521 174.669 42.4374 174.584C43.0351 173.986 43.7615 173.658 44.5376 173.657ZM44.4382 177.347C44.4382 177.347 44.4392 177.347 44.4412 177.349C44.4392 177.348 44.4382 177.347 44.4382 177.347ZM48.8253 180.936C48.8252 180.936 48.8248 180.934 48.8243 180.93C48.8251 180.934 48.8254 180.936 48.8253 180.936ZM40.8544 177.401C40.6442 177.487 40.4927 177.516 40.4026 177.521C40.3721 177.523 40.3525 177.522 40.3417 177.521C40.3353 177.519 40.3318 177.519 40.3316 177.519C40.3314 177.52 40.3345 177.52 40.3417 177.521C40.3709 177.528 40.4584 177.559 40.5481 177.676C40.6303 177.783 40.6668 177.911 40.6653 178.023C40.6646 178.074 40.6561 178.114 40.6481 178.14C40.6401 178.166 40.6325 178.179 40.632 178.18L40.632 178.18C40.6324 178.179 40.6552 178.143 40.7283 178.082C40.8009 178.022 40.9134 177.947 41.0778 177.869" fill="black"/>
<path fill-rule="evenodd" clip-rule="evenodd" d="M51.0035 182.288C50.3975 182.895 50.137 183.154 51.1777 184.369C52.2183 185.582 53.4317 187.144 54.2133 186.623C54.9934 186.103 54.2996 185.063 53.3453 184.195C52.391 183.328 51.6109 181.68 51.0035 182.288Z" fill="black"/>
<path fill-rule="evenodd" clip-rule="evenodd" d="M53.4512 182.804C53.6622 183.064 53.85 183.279 54.0286 183.441L54.0293 183.442C54.5396 183.906 55.0753 184.496 55.3568 185.122C55.5002 185.44 55.6178 185.856 55.5447 186.308C55.4649 186.802 55.1807 187.2 54.7771 187.469M53.4512 182.804C53.3956 182.736 53.3357 182.661 53.2734 182.583ZM53.2734 182.583C53.1225 182.394 52.9579 182.187 52.8082 182.017ZM52.8082 182.017C52.6101 181.791 52.3074 181.469 51.9284 181.289ZM51.9284 181.289C51.7171 181.188 51.4297 181.106 51.098 181.152ZM51.098 181.152C50.757 181.2 50.4843 181.368 50.2838 181.568ZM50.2838 181.568L50.2838 181.568ZM50.2838 181.568L50.2829 181.569ZM50.2829 181.569C50.2751 181.577 50.267 181.585 50.2587 181.593ZM50.2587 181.593C50.1268 181.725 49.9463 181.906 49.805 182.101ZM49.805 182.101C49.6375 182.331 49.4714 182.651 49.4562 183.063ZM49.4562 183.063C49.4416 183.458 49.5715 183.81 49.7344 184.106ZM49.7344 184.106C49.8959 184.4 50.1264 184.705 50.4048 185.03ZM50.653 185.322C50.5672 185.221 50.4843 185.123 50.4052 185.031L50.4048 185.03M50.653 185.322C51.0941 185.842 51.6142 186.455 52.1126 186.903ZM52.1126 186.903C52.4102 187.17 52.7777 187.452 53.1906 187.61ZM53.1906 187.61C53.6366 187.782 54.2272 187.835 54.7767 187.469Z" fill="black"/>
<path fill-rule="evenodd" clip-rule="evenodd" d="M56.033 187.142C55.4256 187.661 55.8589 188.443 56.9859 189.309C58.1143 190.177 60.7152 192.518 61.6695 192.692C62.6238 192.865 63.8372 192.606 63.5767 193.819C63.3176 195.034 62.9707 198.415 63.4903 199.195C64.0114 199.977 65.052 202.532 64.1841 202.838C63.3176 203.144 62.6238 202.838 62.1028 202.577C61.5832 202.317 61.0621 202.272 60.9757 202.924C60.8894 203.577 59.5882 204.445 62.1891 204.704C64.7915 204.965 67.0455 205.01 66.2654 203.23C65.4852 201.45 64.4446 197.807 65.2247 195.64C66.0048 193.472 66.0927 191.738 64.1841 191.13C62.2769 190.523 57.6811 187.575 56.9859 187.142C56.2936 186.709 56.6405 186.621 56.033 187.142Z" fill="black"/>
<path fill-rule="evenodd" clip-rule="evenodd" d="M57.2735 186.1C57.3295 186.146 57.4004 186.203 57.5224 186.28C57.5819 186.317 57.6671 186.371 57.7745 186.438C58.3173 186.78 59.4265 187.479 60.6439 188.195C62.14 189.075 63.6652 189.899 64.4902 190.162M57.2735 186.1C57.2715 186.099 57.2689 186.097 57.2656 186.094ZM57.2656 186.094C57.2408 186.073 57.1814 186.024 57.1267 185.985ZM57.1267 185.985C57.0692 185.944 56.8868 185.817 56.6213 185.778ZM56.6213 185.778C56.3047 185.732 56.052 185.833 55.8999 185.923ZM55.8999 185.923C55.7806 185.994 55.6886 186.078 55.6546 186.109ZM55.6546 186.109C55.6537 186.11 55.6529 186.11 55.6521 186.111ZM55.6521 186.111C55.6174 186.143 55.5894 186.169 55.5622 186.195ZM55.5622 186.195C55.5098 186.245 55.4599 186.292 55.3689 186.37ZM55.3689 186.37C55.0693 186.627 54.8359 186.975 54.7622 187.408C54.6907 187.828 54.7887 188.215 54.9362 188.529C55.2154 189.123 55.7649 189.656 56.3635 190.116M58.7528 189.435C59.1576 189.769 59.5917 190.126 60.0191 190.462C60.466 190.813 60.8882 191.127 61.2463 191.36C61.4252 191.477 61.5747 191.564 61.6933 191.623C61.8047 191.679 61.854 191.692 61.8539 191.693C61.8539 191.693 61.8537 191.693 61.8534 191.693C62.0087 191.72 62.1769 191.733 62.402 191.751C62.4283 191.753 62.4554 191.755 62.4833 191.757C62.6821 191.772 62.9526 191.794 63.2178 191.853C62.1665 191.409 60.7983 190.645 59.6126 189.948C59.318 189.775 59.0292 189.602 58.7528 189.435ZM63.8345 192.088C64.034 192.205 64.2329 192.374 64.386 192.622C64.6701 193.082 64.6626 193.596 64.5691 194.032C64.5292 194.219 64.4858 194.471 64.4438 194.764C64.6874 193.976 64.7696 193.378 64.7049 192.954C64.6696 192.723 64.5945 192.571 64.4956 192.459C64.3941 192.343 64.2138 192.209 63.8733 192.1L63.8731 192.1C63.8603 192.096 63.8474 192.092 63.8345 192.088ZM65.1924 203.309C65.0417 203.512 64.8264 203.69 64.5199 203.798C64.4985 203.806 64.4771 203.813 64.4558 203.82C64.7796 203.814 65.0532 203.79 65.2695 203.741C65.3057 203.733 65.3367 203.725 65.3633 203.717C65.3547 203.694 65.3442 203.668 65.3315 203.639C65.2857 203.535 65.2392 203.425 65.1924 203.309ZM65.4025 203.864C65.4022 203.864 65.4019 203.861 65.4022 203.854C65.4029 203.861 65.4028 203.864 65.4025 203.864ZM62.0109 203.66C61.9471 203.633 61.8866 203.605 61.8296 203.578C61.8273 203.583 61.825 203.588 61.8227 203.593C61.8174 203.605 61.812 203.617 61.8066 203.629C61.8684 203.64 61.9363 203.65 62.0109 203.66ZM61.5746 204.094C61.5746 204.094 61.5749 204.093 61.5758 204.09C61.5751 204.093 61.5747 204.094 61.5746 204.094ZM61.4579 203.415C61.4579 203.415 61.4591 203.415 61.4615 203.415ZM56.3636 190.117C56.6229 190.316 56.971 190.603 57.3826 190.942ZM57.3826 190.942L57.4102 190.965ZM57.4102 190.965C57.8267 191.308 58.2963 191.695 58.7624 192.061ZM58.7624 192.061C59.226 192.426 59.7035 192.783 60.1368 193.065ZM60.1368 193.065C60.526 193.319 61.0223 193.609 61.4846 193.693ZM66.7159 192.647C66.8755 193.693 66.5795 194.873 66.1795 195.985C65.8833 196.808 65.9066 198.04 66.1578 199.396C66.4028 200.718 66.8337 201.999 67.1947 202.823C67.4491 203.403 67.5792 204.116 67.1981 204.764C66.8403 205.373 66.2044 205.615 65.7173 205.725C64.7361 205.947 63.351 205.844 62.086 205.717M66.7159 192.647C66.6321 192.098 66.42 191.567 66.023 191.115ZM66.023 191.115C65.6285 190.667 65.1042 190.357 64.4905 190.162ZM62.2464 193.779C62.0342 193.763 61.7536 193.742 61.4861 193.694L61.4846 193.693M62.2464 193.779C62.2741 193.781 62.3005 193.783 62.3256 193.785ZM62.3256 193.785C62.409 193.792 62.4798 193.798 62.5402 193.804ZM62.5402 193.804C62.4086 194.498 62.2744 195.587 62.2233 196.62C62.1951 197.191 62.1906 197.773 62.2321 198.28C62.2529 198.534 62.2867 198.788 62.3416 199.023C62.3935 199.244 62.4796 199.516 62.6415 199.759L62.6417 199.76C62.8336 200.048 63.1835 200.781 63.3763 201.47C63.4298 201.661 63.4632 201.822 63.4812 201.949C63.1862 201.956 62.905 201.843 62.5564 201.669M62.8287 193.854C62.8287 193.854 62.8275 193.853 62.8254 193.853C62.8277 193.853 62.8288 193.854 62.8287 193.854ZM62.5933 193.515C62.5933 193.515 62.5934 193.516 62.5933 193.519C62.5932 193.517 62.5932 193.515 62.5933 193.515ZM62.5563 201.669C62.2493 201.515 61.7362 201.309 61.1915 201.409ZM61.1915 201.409C60.8802 201.465 60.5678 201.622 60.3295 201.91ZM60.3295 201.91C60.113 202.172 60.0121 202.475 59.9703 202.755ZM59.9703 202.755C59.9658 202.76 59.9421 202.814 59.8612 202.967C59.8572 202.975 59.8526 202.984 59.8475 202.993C59.7675 203.143 59.5696 203.513 59.5558 203.929C59.547 204.195 59.6089 204.487 59.787 204.758C59.9564 205.016 60.1879 205.19 60.4129 205.309C60.8361 205.532 61.4053 205.649 62.0855 205.717" fill="black"/>
<path fill-rule="evenodd" clip-rule="evenodd" d="M36.2134 209.562C35.2591 210.169 35.5196 210.863 36.3861 211.643C37.2541 212.425 37.3404 212.078 38.2069 211.643C39.0748 211.21 40.376 209.736 39.6822 209.822C38.9885 209.909 38.2947 210.949 37.86 210.169C37.4268 209.389 37.1662 208.956 36.2134 209.562Z" fill="black"/>
<path fill-rule="evenodd" clip-rule="evenodd" d="M38.494 209.24C38.4576 209.183 38.42 209.126 38.3813 209.071C38.2426 208.877 38.0322 208.626 37.7174 208.454C36.9635 208.043 36.2141 208.356 35.6662 208.705L35.6658 208.705C35.01 209.122 34.469 209.789 34.6106 210.696C34.7233 211.418 35.2512 211.992 35.7041 212.4M38.494 209.24C38.5452 209.209 38.6007 209.175 38.6571 209.142C38.8544 209.029 39.1729 208.862 39.5552 208.814C39.7202 208.794 40.2339 208.756 40.6137 209.185C41.0033 209.625 40.8868 210.137 40.843 210.29C40.7405 210.649 40.4863 210.981 40.3066 211.195C39.9059 211.67 39.2599 212.255 38.6608 212.554C38.5286 212.62 38.4304 212.677 38.3204 212.741C38.2763 212.767 38.2303 212.793 38.1795 212.822C38.0374 212.903 37.7844 213.045 37.4777 213.101C36.7121 213.24 36.1341 212.787 35.7042 212.4M36.7578 210.421C36.7266 210.441 36.7007 210.459 36.6793 210.475C36.6815 210.478 36.6838 210.482 36.6862 210.485C36.7597 210.588 36.8809 210.722 37.0653 210.888L37.0654 210.889C37.1282 210.945 37.1807 210.99 37.2245 211.025C37.226 211.024 37.2275 211.023 37.229 211.022C37.1257 210.912 37.0396 210.79 36.9701 210.666L36.9694 210.664C36.915 210.566 36.8696 210.485 36.827 210.413C36.8218 210.404 36.8168 210.396 36.8119 210.388C36.7951 210.398 36.7772 210.409 36.7582 210.421" fill="black"/>
<path fill-rule="evenodd" clip-rule="evenodd" d="M35.2625 201.713C34.6551 201.972 34.2219 203.406 35.6094 203.318C36.997 203.232 35.8699 201.452 35.2625 201.713Z" fill="black"/>
<path fill-rule="evenodd" clip-rule="evenodd" d="M37.1506 203.417C36.8589 204.055 36.2379 204.298 35.6721 204.333L35.6089 203.318L35.6732 204.333C35.6728 204.333 35.6725 204.333 35.6721 204.333C35.1705 204.365 34.6342 204.271 34.2163 203.908C33.7844 203.532 33.659 203.026 33.6707 202.616C33.6819 202.219 33.8173 201.846 33.9987 201.552C34.1747 201.266 34.4593 200.949 34.863 200.777L35.2621 201.712L34.8611 200.778C35.534 200.489 36.1283 200.833 36.3916 201.038C36.703 201.28 36.96 201.62 37.1162 201.979C37.2613 202.312 37.4031 202.865 37.1506 203.417ZM35.5692 202.68C35.599 202.672 35.6297 202.661 35.6611 202.648C35.6617 202.648 35.6622 202.647 35.6628 202.647L35.663 202.647C35.6775 202.641 35.6899 202.635 35.7005 202.629C35.6973 202.61 35.6916 202.586 35.6814 202.559C35.6574 202.495 35.6141 202.428 35.5516 202.373C35.5511 202.373 35.5506 202.372 35.5501 202.372C35.5497 202.372 35.5493 202.371 35.549 202.371C35.5466 202.369 35.5443 202.367 35.542 202.365C35.5412 202.364 35.5404 202.364 35.5396 202.363C35.5267 202.353 35.5144 202.344 35.503 202.336C35.4287 202.383 35.3503 202.462 35.3005 202.571C35.2803 202.615 35.2687 202.655 35.2623 202.69C35.3329 202.705 35.4423 202.714 35.5685 202.68C35.5688 202.68 35.569 202.68 35.5692 202.68ZM35.4264 202.3C35.4264 202.3 35.4279 202.301 35.4306 202.301C35.4277 202.301 35.4263 202.301 35.4264 202.3ZM35.663 202.647C35.6629 202.647 35.6628 202.647 35.6628 202.647ZM35.1434 202.644C35.142 202.643 35.1412 202.643 35.1412 202.643C35.1412 202.643 35.142 202.643 35.1434 202.644Z" fill="black"/>
<path fill-rule="evenodd" clip-rule="evenodd" d="M48.925 204.448C47.7116 204.534 48.1449 206.963 49.0991 206.702C50.0534 206.441 50.1398 204.36 48.925 204.448Z" fill="black"/>
<path fill-rule="evenodd" clip-rule="evenodd" d="M50.5436 206.706C50.3305 207.104 49.9521 207.522 49.3685 207.682C48.6236 207.885 48.0332 207.51 47.7099 207.111C47.4054 206.735 47.2471 206.26 47.1919 205.835C47.1367 205.409 47.1664 204.891 47.3935 204.426C47.6445 203.912 48.1389 203.483 48.8536 203.432C49.4896 203.386 50.0392 203.64 50.398 204.094C50.7226 204.504 50.8353 205.002 50.8439 205.422C50.8525 205.851 50.7568 206.308 50.5436 206.706ZM48.8536 203.432C48.8538 203.432 48.854 203.432 48.8542 203.432L48.9264 204.447L48.8531 203.432C48.8533 203.432 48.8535 203.432 48.8536 203.432ZM48.7329 205.774C48.7328 205.774 48.7334 205.773 48.7347 205.771C48.7335 205.773 48.7329 205.774 48.7329 205.774Z" fill="black"/>
<path fill-rule="evenodd" clip-rule="evenodd" d="M57.0717 202.665C56.031 203.145 55.7705 204.88 57.1581 204.533C58.5456 204.186 58.1123 202.187 57.0717 202.665Z" fill="black"/>
<path fill-rule="evenodd" clip-rule="evenodd" d="M59.0349 203.155C59.1558 204.054 58.6923 205.199 57.4061 205.52C56.8954 205.648 56.2828 205.646 55.7859 205.255C55.2875 204.864 55.169 204.29 55.1897 203.861C55.2292 203.044 55.7715 202.146 56.647 201.742L56.6481 201.742L56.6481 201.742C57.2177 201.48 57.8448 201.524 58.336 201.897C58.7704 202.227 58.9765 202.72 59.0349 203.155ZM57.0149 203.408C57.0151 203.408 57.016 203.41 57.017 203.415C57.0153 203.411 57.0147 203.408 57.0149 203.408ZM56.8288 203.562C56.8249 203.562 56.8231 203.562 56.8232 203.562C56.8233 203.562 56.8252 203.562 56.8288 203.562Z" fill="black"/>
<path fill-rule="evenodd" clip-rule="evenodd" d="M30.5992 182.99L34.7618 197.646L32.9829 198.151L28.8203 183.496L30.5992 182.99Z" fill="black"/>
<path fill-rule="evenodd" clip-rule="evenodd" d="M493.557 592.906C494.119 593.375 495.899 591.22 495.15 590.471C494.4 589.721 492.995 592.438 493.557 592.906Z" fill="black"/>
<path fill-rule="evenodd" clip-rule="evenodd" d="M494.81 589.325C495.221 589.312 495.591 589.475 495.868 589.752C496.413 590.297 496.394 591.005 496.286 591.466C496.175 591.941 495.927 592.391 495.664 592.748C495.402 593.106 495.062 593.455 494.691 593.689C494.508 593.805 494.261 593.928 493.972 593.973C493.662 594.02 493.255 593.98 492.906 593.688C492.559 593.4 492.453 593.014 492.423 592.756C492.392 592.491 492.422 592.232 492.467 592.016C492.559 591.578 492.752 591.116 492.982 590.721C493.203 590.34 493.523 589.91 493.93 589.631C494.137 589.489 494.439 589.337 494.81 589.325ZM495.084 591.306C495.084 591.306 495.083 591.307 495.081 591.308C495.083 591.307 495.084 591.306 495.084 591.306ZM494.314 590.953C494.314 590.95 494.314 590.948 494.315 590.948ZM493.581 591.983C493.579 591.984 493.578 591.985 493.578 591.985C493.578 591.985 493.579 591.984 493.581 591.983Z" fill="black"/>
<path fill-rule="evenodd" clip-rule="evenodd" d="M550.886 580.913C549.575 580.351 546.671 581.756 546.39 583.442C546.109 585.128 547.327 587.002 549.2 585.69C551.074 584.379 552.198 581.475 550.886 580.913Z" fill="black"/>
<path fill-rule="evenodd" clip-rule="evenodd" d="M549.499 579.832C550.063 579.735 550.711 579.731 551.288 579.979C552.024 580.294 552.364 580.946 552.449 581.578C552.528 582.172 552.401 582.804 552.194 583.371C551.777 584.509 550.906 585.739 549.784 586.524C549.183 586.945 548.538 587.177 547.884 587.146C547.221 587.115 546.668 586.818 546.261 586.402C545.484 585.607 545.206 584.367 545.388 583.275C545.607 581.962 546.753 580.981 547.775 580.437C548.32 580.147 548.917 579.932 549.499 579.832ZM548.73 582.233C547.903 582.673 547.456 583.238 547.394 583.61C547.295 584.204 547.485 584.744 547.716 584.98C547.812 585.079 547.897 585.11 547.98 585.114C548.073 585.118 548.283 585.092 548.618 584.858C549.369 584.332 549.997 583.454 550.283 582.672C550.427 582.278 550.452 581.997 550.432 581.848C550.431 581.841 550.431 581.835 550.43 581.83C550.326 581.804 550.135 581.787 549.843 581.837C549.502 581.895 549.11 582.031 548.73 582.233Z" fill="black"/>
<path fill-rule="evenodd" clip-rule="evenodd" d="M546.203 606.113C544.985 606.301 544.704 613.794 546.39 613.232C548.076 612.67 547.42 605.926 546.203 606.113Z" fill="black"/>
<path fill-rule="evenodd" clip-rule="evenodd" d="M547.79 613.278C547.575 613.64 547.233 614.025 546.711 614.199C546.44 614.289 546.138 614.312 545.834 614.231C545.536 614.152 545.302 613.99 545.128 613.816C544.802 613.49 544.619 613.054 544.505 612.683C544.27 611.913 544.184 610.906 544.19 609.949C544.196 608.98 544.298 607.963 544.491 607.15C544.586 606.749 544.716 606.345 544.898 606.01C545.049 605.734 545.395 605.21 546.047 605.109C546.738 605.003 547.207 605.432 547.43 605.717C547.664 606.016 547.828 606.392 547.947 606.745C548.19 607.47 548.344 608.408 548.4 609.331C548.456 610.255 548.42 611.247 548.236 612.078C548.144 612.491 548.006 612.914 547.79 613.278ZM546.296 608.683C546.252 609.089 546.227 609.525 546.224 609.962C546.221 610.475 546.249 610.954 546.302 611.359C546.389 610.814 546.411 610.142 546.37 609.455C546.353 609.189 546.328 608.929 546.296 608.683ZM545.991 612.31C545.991 612.31 545.992 612.309 545.993 612.307C545.992 612.309 545.991 612.31 545.991 612.31ZM546.705 606.948C546.715 606.933 546.72 606.927 546.721 606.928C546.721 606.929 546.716 606.936 546.705 606.948Z" fill="black"/>
<path fill-rule="evenodd" clip-rule="evenodd" d="M547.046 616.417C546.11 616.979 546.11 621.194 547.046 624.379C547.983 627.564 553.229 642.271 554.446 644.519C555.664 646.767 559.036 655.01 559.692 656.509C560.348 658.008 558.1 661.567 559.692 661.848C561.285 662.129 562.69 660.631 561.566 656.977C560.442 653.324 552.292 631.967 551.636 631.123C550.981 630.28 547.983 620.632 547.889 619.133C547.796 617.635 547.983 615.855 547.046 616.417Z" fill="black"/>
<path fill-rule="evenodd" clip-rule="evenodd" d="M548.873 618.227C548.88 618.519 548.887 618.798 548.904 619.07C548.92 619.32 549.09 620.094 549.404 621.256C549.704 622.369 550.104 623.729 550.523 625.072C550.942 626.416 551.376 627.734 551.745 628.763C551.929 629.278 552.094 629.712 552.229 630.037C552.34 630.302 552.408 630.435 552.431 630.482C552.441 630.501 552.444 630.506 552.439 630.5C552.563 630.659 552.682 630.906 552.763 631.079C552.867 631.299 552.994 631.586 553.14 631.927C553.432 632.609 553.812 633.535 554.25 634.627C555.126 636.812 556.244 639.68 557.375 642.633C559.629 648.521 561.963 654.812 562.537 656.679C563.134 658.618 563.137 660.217 562.552 661.354C561.92 662.581 560.711 663.062 559.515 662.851C559.097 662.777 558.708 662.569 558.438 662.197C558.189 661.854 558.115 661.471 558.097 661.167C558.063 660.589 558.22 659.92 558.354 659.387C558.392 659.239 558.429 659.096 558.465 658.957C558.576 658.53 558.678 658.14 558.742 657.765C558.831 657.243 558.796 656.999 558.76 656.917C558.602 656.557 558.286 655.803 557.882 654.841C557.443 653.794 556.9 652.499 556.344 651.194C555.259 648.647 554.132 646.076 553.552 645.004C553.21 644.373 552.63 642.966 551.96 641.24C551.278 639.486 550.476 637.33 549.684 635.148C548.105 630.796 546.549 626.294 546.07 624.667C545.572 622.973 545.326 621.025 545.326 619.415C545.326 618.611 545.387 617.852 545.526 617.229C545.596 616.918 545.692 616.609 545.829 616.335C545.961 616.072 546.174 615.754 546.523 615.545C546.721 615.426 546.995 615.303 547.321 615.294C547.689 615.285 548.019 615.424 548.265 615.661C548.482 615.87 548.595 616.116 548.659 616.296C548.725 616.485 548.764 616.68 548.79 616.856C548.841 617.204 548.856 617.605 548.866 617.97C548.869 618.057 548.871 618.142 548.873 618.227ZM547.673 617.203C547.673 617.203 547.672 617.204 547.669 617.207C547.671 617.204 547.673 617.203 547.673 617.203ZM547.673 622.631C547.768 623.132 547.884 623.625 548.022 624.093C548.48 625.65 550.014 630.093 551.597 634.454C552.386 636.628 553.182 638.769 553.856 640.504C554.541 642.267 555.073 643.541 555.34 644.035C555.851 644.978 556.704 646.886 557.574 648.9C556.908 647.123 556.19 645.227 555.475 643.361C554.346 640.413 553.233 637.555 552.362 635.384C551.926 634.298 551.553 633.389 551.27 632.728C551.128 632.396 551.011 632.135 550.923 631.947C550.845 631.782 550.811 631.724 550.813 631.723C550.813 631.723 550.818 631.729 550.827 631.74C550.649 631.508 550.484 631.137 550.352 630.82C550.197 630.45 550.019 629.979 549.829 629.449C549.448 628.385 549.005 627.038 548.581 625.678C548.256 624.637 547.941 623.581 547.673 622.631ZM560.774 657.941C560.765 657.998 560.756 658.054 560.747 658.108C560.667 658.577 560.534 659.086 560.418 659.53C560.386 659.654 560.355 659.773 560.327 659.885C560.216 660.324 560.151 660.641 560.132 660.863C560.396 660.843 560.599 660.703 560.743 660.423C560.945 660.03 561.079 659.249 560.774 657.941ZM560.133 661.097C560.133 661.097 560.133 661.096 560.133 661.094Z" fill="black"/>
<path fill-rule="evenodd" clip-rule="evenodd" d="M535.333 670.279C533.834 669.811 533.553 672.059 534.584 672.246C535.614 672.433 536.832 670.747 535.333 670.279Z" fill="black"/>
<path fill-rule="evenodd" clip-rule="evenodd" d="M533.873 669.517C534.386 669.174 535.012 669.113 535.636 669.308C536.213 669.489 536.728 669.857 536.948 670.462C537.159 671.039 537.014 671.597 536.802 671.991C536.587 672.39 536.25 672.731 535.863 672.96C535.476 673.188 534.96 673.349 534.401 673.247C533.732 673.125 533.312 672.659 533.115 672.183C532.927 671.728 532.913 671.22 533.021 670.775C533.131 670.329 533.392 669.839 533.873 669.517ZM535.021 671.006C535.022 671.003 535.022 671.001 535.022 671.001C535.022 671.001 535.022 671.003 535.021 671.006Z" fill="black"/>
<path fill-rule="evenodd" clip-rule="evenodd" d="M525.027 669.905C526.245 670.373 526.807 668.406 525.496 667.938C524.184 667.469 523.81 669.437 525.027 669.905Z" fill="black"/>
<path fill-rule="evenodd" clip-rule="evenodd" d="M524.157 667.121C524.665 666.802 525.268 666.777 525.838 666.98C527.077 667.423 527.432 668.623 527.194 669.531C527.076 669.98 526.799 670.439 526.334 670.726C525.838 671.033 525.239 671.076 524.662 670.855C523.502 670.408 523.128 669.245 523.319 668.357C523.416 667.903 523.677 667.422 524.157 667.121ZM525.312 668.77C525.312 668.77 525.311 668.771 525.311 668.773C525.311 668.771 525.312 668.77 525.312 668.77ZM525.22 669.034C525.219 669.036 525.218 669.037 525.218 669.037C525.218 669.037 525.218 669.036 525.22 669.034Z" fill="black"/>
<path fill-rule="evenodd" clip-rule="evenodd" d="M494.582 642.366C493.926 642.835 494.113 644.146 495.144 645.176C496.174 646.207 499.546 649.485 500.015 649.86C500.483 650.235 502.169 649.673 499.921 647.893C497.673 646.113 495.237 641.898 494.582 642.366Z" fill="black"/>
<path fill-rule="evenodd" clip-rule="evenodd" d="M497.578 643.81C498.546 645.024 499.586 646.328 500.554 647.094C501.168 647.58 501.613 648.057 501.859 648.543C502.119 649.055 502.194 649.678 501.849 650.225C501.542 650.714 501.039 650.911 500.664 650.966C500.307 651.019 499.793 650.983 499.381 650.653C499.099 650.428 498.09 649.466 497.085 648.495C496.053 647.498 494.948 646.416 494.427 645.895C493.789 645.257 493.368 644.491 493.232 643.741C493.101 643.022 493.216 642.092 493.993 641.538C494.575 641.122 495.176 641.381 495.401 641.505C495.664 641.65 495.904 641.867 496.099 642.063C496.502 642.468 496.975 643.054 497.451 643.651C497.493 643.704 497.536 643.757 497.578 643.81ZM495.231 643.131C495.232 643.132 495.23 643.136 495.225 643.144C495.228 643.135 495.231 643.131 495.231 643.131Z" fill="black"/>
<path fill-rule="evenodd" clip-rule="evenodd" d="M512.103 662.785C511.447 663.722 515.381 666.345 516.037 665.408C516.693 664.471 512.758 661.848 512.103 662.785Z" fill="black"/>
<path fill-rule="evenodd" clip-rule="evenodd" d="M517.059 664.706C517.162 665.061 517.18 665.548 516.869 665.992C516.563 666.43 516.106 666.582 515.748 666.616C515.403 666.648 515.061 666.586 514.773 666.503C514.189 666.336 513.559 666.01 513.013 665.646C512.468 665.282 511.925 664.827 511.55 664.353C511.365 664.119 511.176 663.825 511.079 663.488C510.976 663.133 510.958 662.646 511.269 662.202C511.575 661.764 512.032 661.612 512.39 661.578C512.735 661.545 513.077 661.608 513.365 661.69C513.949 661.857 514.579 662.184 515.125 662.548C515.67 662.912 516.213 663.366 516.588 663.841C516.773 664.074 516.962 664.369 517.059 664.706Z" fill="black"/>
<path fill-rule="evenodd" clip-rule="evenodd" d="M494.488 622.41C495.331 622.597 495.986 619.225 495.424 618.851C494.862 618.476 493.645 622.223 494.488 622.41Z" fill="black"/>
<path fill-rule="evenodd" clip-rule="evenodd" d="M495.139 617.825C495.431 617.774 495.734 617.834 495.99 618.005C496.373 618.26 496.51 618.653 496.564 618.856C496.628 619.096 496.65 619.35 496.652 619.579C496.658 620.044 496.589 620.577 496.476 621.069C496.364 621.554 496.192 622.078 495.95 622.496C495.832 622.701 495.66 622.945 495.415 623.133C495.152 623.335 494.748 623.51 494.269 623.404C493.72 623.282 493.437 622.869 493.316 622.556C493.202 622.262 493.181 621.953 493.184 621.711C493.19 621.21 493.307 620.636 493.455 620.132C493.604 619.627 493.812 619.101 494.051 618.701C494.162 618.515 494.329 618.271 494.562 618.088C494.683 617.994 494.878 617.871 495.139 617.825ZM494.599 619.382C494.6 619.384 494.6 619.385 494.6 619.387C494.595 619.372 494.596 619.369 494.599 619.382Z" fill="black"/>
<path fill-rule="evenodd" clip-rule="evenodd" d="M545.824 597.587C546.574 597.868 547.323 595.995 546.386 595.807C545.45 595.62 545.075 597.306 545.824 597.587Z" fill="black"/>
<path fill-rule="evenodd" clip-rule="evenodd" d="M545.127 595.203C545.494 594.881 546.008 594.695 546.586 594.811C547.253 594.944 547.652 595.428 547.785 595.956C547.9 596.413 547.819 596.871 547.695 597.217C547.568 597.57 547.347 597.946 547.025 598.225C546.697 598.507 546.125 598.787 545.467 598.54C544.9 598.328 544.605 597.86 544.486 597.444C544.371 597.041 544.393 596.618 544.491 596.257C544.588 595.897 544.787 595.502 545.127 595.203ZM546.217 596.651C546.205 596.645 546.193 596.64 546.181 596.636C546.126 596.615 546.065 596.602 546.001 596.6C545.96 596.598 545.922 596.601 545.888 596.607C545.902 596.626 545.919 596.645 545.938 596.664C545.978 596.705 546.024 596.739 546.071 596.763C546.09 596.773 546.108 596.781 546.124 596.787C546.148 596.797 546.17 596.802 546.187 596.806C546.225 596.813 546.283 596.815 546.347 596.796C546.361 596.792 546.373 596.787 546.385 596.783C546.383 596.781 546.382 596.779 546.381 596.778C546.358 596.751 546.33 596.722 546.294 596.697C546.27 596.679 546.244 596.664 546.217 596.651Z" fill="black"/>
<path fill-rule="evenodd" clip-rule="evenodd" d="M537.622 586.637C535.771 587.27 533.613 588.052 532.258 588.684C531.426 589.072 530.13 589.368 528.666 589.586C527.175 589.809 525.419 589.964 523.613 590.035C520.031 590.176 516.118 589.995 513.632 589.299C511.425 588.681 508.352 588.537 505.764 588.56C504.483 588.572 503.346 588.624 502.529 588.673C502.121 588.697 501.794 588.721 501.569 588.739C501.457 588.747 501.371 588.754 501.313 588.759L501.248 588.765L501.232 588.767L501.228 588.767L501.142 587.846C501.056 586.926 501.056 586.926 501.057 586.926L501.064 586.925L501.083 586.923L501.154 586.917C501.217 586.912 501.308 586.904 501.425 586.895C501.66 586.877 501.998 586.852 502.418 586.827C503.259 586.776 504.428 586.723 505.747 586.711C508.358 586.687 511.655 586.825 514.131 587.518C516.329 588.133 520.003 588.327 523.54 588.187C525.294 588.118 526.981 587.968 528.393 587.757C529.833 587.542 530.902 587.276 531.476 587.008C532.931 586.329 535.176 585.519 537.024 584.887C537.955 584.569 538.797 584.292 539.407 584.095C539.712 583.996 539.958 583.917 540.129 583.863L540.326 583.801L540.395 583.779C540.395 583.779 540.396 583.779 540.672 584.661L540.948 585.544L540.882 585.565L540.689 585.626C540.521 585.679 540.277 585.757 539.976 585.854C539.374 586.049 538.541 586.323 537.622 586.637Z" fill="black"/>
<path fill-rule="evenodd" clip-rule="evenodd" d="M492.729 598.403C492.729 598.403 492.729 598.403 493.651 598.338C494.573 598.273 494.573 598.273 494.573 598.273L494.613 598.85C494.638 599.218 494.674 599.746 494.717 600.385C494.802 601.662 494.913 603.386 495.019 605.169C495.124 606.95 495.224 608.795 495.286 610.314C495.346 611.797 495.375 613.057 495.32 613.605L493.48 613.421C493.519 613.033 493.501 611.927 493.438 610.389C493.377 608.887 493.278 607.056 493.173 605.278C493.068 603.501 492.956 601.782 492.872 600.507C492.829 599.87 492.793 599.344 492.768 598.977L492.729 598.403Z" fill="black"/>
<path fill-rule="evenodd" clip-rule="evenodd" d="M487.73 633.258C488.235 630.76 489.582 628.39 490.812 626.497L492.363 627.505C491.157 629.359 489.975 631.485 489.543 633.624C489.121 635.712 489.415 637.783 491.146 639.679L489.78 640.926C487.577 638.513 487.215 635.807 487.73 633.258Z" fill="black"/>
<path fill-rule="evenodd" clip-rule="evenodd" d="M507.506 660.315L503.197 654.133L504.714 653.075L509.023 659.258L507.506 660.315Z" fill="black"/>
<path fill-rule="evenodd" clip-rule="evenodd" d="M550.977 673.208C547.69 674.656 543.8 675.253 540.129 674.558L540.473 672.741C543.733 673.358 547.244 672.831 550.232 671.516C553.231 670.195 555.601 668.128 556.698 665.767L558.375 666.545C557.036 669.429 554.255 671.765 550.977 673.208Z" fill="black"/>
<path fill-rule="evenodd" clip-rule="evenodd" d="M955.635 824.843C956.048 826.832 957.213 826.217 958.587 824.705C959.962 823.193 959.34 820.445 958.039 821.544C956.736 822.643 955.224 822.852 955.635 824.843Z" fill="black"/>
<path fill-rule="evenodd" clip-rule="evenodd" d="M960.312 821.948C960.514 822.967 960.265 824.37 959.338 825.39C958.974 825.79 958.599 826.159 958.225 826.449C957.866 826.726 957.425 826.998 956.931 827.088C956.363 827.192 955.781 827.04 955.338 826.574C954.957 826.173 954.755 825.619 954.637 825.05L954.637 825.049C954.508 824.427 954.512 823.853 954.686 823.324C954.861 822.791 955.178 822.402 955.513 822.102C955.816 821.83 956.17 821.603 956.463 821.414C956.476 821.405 956.489 821.397 956.502 821.388C956.825 821.18 957.111 820.994 957.38 820.767M960.312 821.948C960.216 821.464 959.967 820.824 959.372 820.48ZM959.372 820.48C958.644 820.061 957.893 820.334 957.38 820.767ZM958.343 822.597C958.355 823.041 958.204 823.613 957.832 824.021C957.509 824.377 957.223 824.651 956.979 824.84C956.883 824.915 956.801 824.97 956.732 825.01C956.701 824.927 956.664 824.807 956.629 824.637C956.552 824.264 956.583 824.065 956.618 823.96C956.651 823.86 956.716 823.756 956.871 823.617C957.043 823.462 957.268 823.315 957.604 823.098L957.611 823.094C957.828 822.954 958.081 822.791 958.343 822.597ZM958.259 822.163C958.259 822.163 958.259 822.164 958.26 822.166C958.259 822.164 958.259 822.163 958.259 822.163Z" fill="black"/>
<path fill-rule="evenodd" clip-rule="evenodd" d="M963.812 814.674C964.776 815.36 965.462 813.712 965.462 811.925C965.462 810.138 964.912 806.839 964.5 806.015C964.088 805.191 963.676 804.09 962.851 804.503C962.027 804.915 962.988 806.015 963.401 807.114C963.812 808.213 963.95 810.138 963.95 811.512C963.95 812.886 962.851 813.986 963.812 814.674Z" fill="black"/>
<path fill-rule="evenodd" clip-rule="evenodd" d="M965.313 805.359C965.349 805.434 965.381 805.501 965.409 805.558L965.41 805.559C965.569 805.877 965.702 806.337 965.812 806.794C965.929 807.278 966.041 807.849 966.139 808.443C966.332 809.619 966.479 810.951 966.479 811.924C966.479 812.914 966.293 813.955 965.896 814.703C965.702 815.068 965.385 815.5 964.878 815.718C964.287 815.972 963.69 815.835 963.222 815.501L963.22 815.5C962.772 815.179 962.496 814.743 962.421 814.228C962.356 813.78 962.458 813.358 962.543 813.065C962.604 812.858 962.662 812.681 962.714 812.522C962.841 812.138 962.932 811.86 962.932 811.511C962.932 810.142 962.789 808.381 962.448 807.47C962.368 807.256 962.255 807.028 962.119 806.763C962.105 806.735 962.091 806.707 962.076 806.679C961.96 806.452 961.822 806.185 961.72 805.933C961.612 805.668 961.472 805.261 961.519 804.82C961.579 804.27 961.905 803.837 962.395 803.592L962.395 803.592C962.815 803.382 963.285 803.326 963.743 803.491C964.157 803.64 964.443 803.929 964.628 804.164C964.91 804.52 965.149 805.018 965.313 805.359Z" fill="black"/>
<path fill-rule="evenodd" clip-rule="evenodd" d="M962.577 795.916C961.753 796.466 962.028 796.741 962.028 798.116C962.028 799.49 962.577 801.349 962.304 801.964C962.028 802.578 961.753 803.404 962.715 803.404C963.678 803.404 963.952 801.14 963.952 799.352C963.952 797.565 963.403 795.367 962.577 795.916Z" fill="black"/>
<path fill-rule="evenodd" clip-rule="evenodd" d="M964.534 796.428C964.82 797.265 964.966 798.378 964.966 799.351C964.966 800.279 964.897 801.382 964.681 802.284C964.575 802.727 964.416 803.201 964.157 803.587C963.891 803.984 963.42 804.42 962.712 804.42C962.346 804.42 961.913 804.343 961.555 804.048C961.174 803.732 961.048 803.309 961.028 802.974C961.009 802.66 961.076 802.367 961.14 802.153C961.203 801.945 961.283 801.749 961.355 801.587C961.356 801.571 961.365 801.499 961.358 801.342C961.347 801.114 961.311 800.825 961.26 800.469C961.246 800.375 961.231 800.276 961.216 800.173C961.123 799.55 961.009 798.785 961.009 798.114C961.009 797.824 960.995 797.59 960.983 797.372C960.982 797.356 960.981 797.341 960.98 797.326C960.98 797.321 960.98 797.316 960.98 797.311C960.968 797.105 960.953 796.843 960.98 796.594C961.013 796.298 961.106 795.994 961.317 795.701C961.51 795.435 961.761 795.235 962.01 795.069L962.012 795.067L962.012 795.067C962.273 794.894 962.609 794.776 962.99 794.821C963.359 794.865 963.64 795.046 963.833 795.226C964.188 795.558 964.4 796.034 964.534 796.428Z" fill="black"/>
<path fill-rule="evenodd" clip-rule="evenodd" d="M961.757 788.63C960.382 788.492 959.97 790.554 961.481 790.554C962.993 790.554 963.131 788.767 961.757 788.63Z" fill="black"/>
<path fill-rule="evenodd" clip-rule="evenodd" d="M959.532 789.368C959.694 788.43 960.555 787.488 961.855 787.619C962.425 787.676 962.933 787.918 963.283 788.336C963.628 788.747 963.765 789.264 963.71 789.757C963.594 790.8 962.686 791.572 961.479 791.572C960.859 791.572 960.28 791.351 959.895 790.869C959.527 790.408 959.45 789.844 959.532 789.368Z" fill="black"/>
<path fill-rule="evenodd" clip-rule="evenodd" d="M963.677 776.883C963.127 777.844 965.6 779.356 966.013 778.119C966.426 776.883 964.226 775.919 963.677 776.883Z" fill="black"/>
<path fill-rule="evenodd" clip-rule="evenodd" d="M966.761 776.727C967.054 777.193 967.193 777.8 966.979 778.441C966.866 778.779 966.661 779.078 966.36 779.29C966.068 779.498 965.746 779.58 965.459 779.598C964.912 779.631 964.381 779.437 963.98 779.208C963.57 778.974 963.16 778.626 962.89 778.194C962.622 777.765 962.399 777.069 962.795 776.378C963.137 775.778 963.723 775.53 964.238 775.482C964.737 775.436 965.236 775.56 965.65 775.76C966.066 775.962 966.482 776.283 966.761 776.727Z" fill="black"/>
<path fill-rule="evenodd" clip-rule="evenodd" d="M967.802 755.305C966.976 755.718 967.527 757.23 968.626 758.741C969.727 760.252 970.962 761.901 971.512 763.002C972.062 764.101 971.925 765.751 970.688 765.751C969.451 765.751 968.351 766.025 969.451 767.125C970.551 768.224 973.024 767.261 973.574 766.162C974.123 765.063 973.986 763.002 972.887 761.626C971.787 760.252 969.587 756.266 969.587 756.266C969.587 756.266 968.626 754.892 967.802 755.305Z" fill="black"/>
<path fill-rule="evenodd" clip-rule="evenodd" d="M970.422 755.683C970.422 755.683 970.422 755.684 969.589 756.267L970.422 755.683C970.443 755.713 970.462 755.744 970.479 755.775C970.479 755.775 970.479 755.775 970.479 755.775L970.503 755.818L970.574 755.945C970.635 756.055 970.725 756.215 970.835 756.41C971.057 756.802 971.363 757.338 971.703 757.916C972.397 759.096 973.186 760.371 973.682 760.991C974.37 761.852 974.737 762.897 974.859 763.872C974.979 764.832 974.875 765.838 974.486 766.617C974.247 767.095 973.845 767.48 973.436 767.766C973.015 768.059 972.519 768.295 972.005 768.445C971.045 768.725 969.676 768.787 968.734 767.845C968.417 767.529 968.095 767.12 968.007 766.626C967.957 766.35 967.983 766.056 968.112 765.778C968.237 765.509 968.429 765.321 968.609 765.194C968.944 764.958 969.345 764.859 969.654 764.808C969.988 764.753 970.349 764.734 970.69 764.734C970.703 764.734 970.713 764.734 970.72 764.733C970.732 764.713 970.758 764.665 970.778 764.572C970.843 764.277 970.789 763.827 970.604 763.458C970.153 762.555 969.166 761.203 968.144 759.805C968.031 759.651 967.918 759.496 967.805 759.341C967.222 758.539 966.732 757.669 966.514 756.884C966.405 756.494 966.34 756.04 966.434 755.593C966.538 755.1 966.835 754.652 967.348 754.396M968.731 756.818C968.712 756.792 968.684 756.756 968.648 756.714C968.624 756.686 968.599 756.656 968.572 756.626C968.738 757.046 969.035 757.573 969.45 758.143C969.501 758.213 969.552 758.283 969.604 758.354C969.396 757.996 969.212 757.672 969.064 757.412C968.952 757.212 968.861 757.049 968.797 756.936L968.731 756.818ZM972.829 764.038C972.852 764.367 972.833 764.695 972.765 765.006C972.679 765.402 972.499 765.826 972.164 766.168C972.202 766.145 972.238 766.121 972.272 766.097C972.515 765.927 972.63 765.779 972.666 765.707C972.826 765.387 972.927 764.813 972.841 764.125C972.837 764.096 972.833 764.067 972.829 764.038ZM969.984 766.182C969.984 766.182 969.984 766.182 969.985 766.184ZM970.422 755.683L970.421 755.682ZM970.421 755.682L970.419 755.679ZM970.419 755.679L970.414 755.672ZM970.414 755.672L970.401 755.653ZM970.401 755.653C970.39 755.638 970.375 755.618 970.356 755.594ZM970.356 755.594C970.32 755.545 970.268 755.48 970.204 755.404ZM970.204 755.404C970.078 755.254 969.892 755.051 969.664 754.856ZM969.664 754.856C969.443 754.669 969.134 754.448 968.761 754.319ZM968.761 754.319C968.367 754.184 967.858 754.14 967.348 754.396Z" fill="black"/>
<path fill-rule="evenodd" clip-rule="evenodd" d="M950.004 740.944C950.417 742.455 948.905 742.868 952.067 742.455C955.228 742.043 955.705 742.043 957.08 744.243C958.454 746.441 962.99 751.665 964.089 752.764C965.188 753.863 968.35 754.138 966.7 752.214C964.227 749.327 959.619 744.105 958.043 742.868C956.465 741.631 954.815 740.944 953.579 740.806C952.342 740.668 949.593 739.432 950.004 740.944Z" fill="black"/>
<path fill-rule="evenodd" clip-rule="evenodd" d="M952.698 739.573C953.144 739.69 953.47 739.771 953.69 739.795C955.161 739.959 956.984 740.747 958.67 742.068L958.67 742.068C959.539 742.75 961.147 744.438 962.786 746.238C964.453 748.068 966.231 750.104 967.472 751.552M951.09 741.275C951.097 741.371 951.1 741.461 951.099 741.548C951.302 741.527 951.552 741.497 951.861 741.457C951.582 741.384 951.324 741.32 951.09 741.275ZM958.906 745.075C959.617 746.02 960.538 747.157 961.466 748.262C962.908 749.978 964.292 751.529 964.808 752.045C964.941 752.178 965.194 752.335 965.531 752.454C965.547 752.459 965.563 752.465 965.579 752.47C964.375 751.073 962.782 749.254 961.282 747.607C960.411 746.65 959.591 745.774 958.906 745.075ZM950.414 741.586C950.414 741.586 950.415 741.586 950.417 741.586ZM951.009 742.351C951.009 742.361 951.008 742.367 951.008 742.367C951.008 742.367 951.008 742.362 951.009 742.351Z" fill="black"/>
<path fill-rule="evenodd" clip-rule="evenodd" d="M941.537 800.966C940.551 799.487 937.667 795.872 935.039 793.351L936.319 792.017C939.046 794.633 942.016 798.351 943.076 799.94C943.426 800.466 943.79 801.083 944.159 801.71L944.192 801.766C944.578 802.42 944.975 803.093 945.4 803.742C946.264 805.064 947.163 806.159 948.135 806.731C950.677 808.226 952.847 811.006 954.137 813.729C954.751 815.025 955.296 816.116 955.688 816.882C955.884 817.266 956.041 817.567 956.149 817.773C956.203 817.876 956.244 817.954 956.272 818.007L956.304 818.066L956.314 818.084" fill="black"/>
<path fill-rule="evenodd" clip-rule="evenodd" d="M923.718 781.866C923.107 781.255 921.53 779.89 919.385 778.974L920.111 777.273C922.535 778.309 924.303 779.836 925.025 780.558M925.204 783.63C924.497 782.761 923.982 782.13 923.719 781.866L923.718 781.866M925.204 783.63C925.42 783.894 925.653 784.181 925.903 784.485ZM925.903 784.485C926.94 785.752 928.207 787.267 929.471 788.592ZM929.471 788.592L930.809 787.315ZM930.809 787.315C929.596 786.044 928.367 784.575 927.333 783.313ZM927.333 783.313C927.116 783.049 926.905 782.789 926.703 782.541ZM926.703 782.541C925.974 781.645 925.364 780.896 925.026 780.558Z" fill="black"/>
<path fill-rule="evenodd" clip-rule="evenodd" d="M936.824 748.145C939.119 745.707 943.2 743.04 945.031 742.055L945.907 743.683C944.165 744.621 940.275 747.177 938.17 749.413L938.17 749.413C937.041 750.612 935.725 751.824 934.533 752.815C933.363 753.789 932.245 754.607 931.521 754.967C931.303 755.075 930.7 755.491 929.814 756.152C928.962 756.788 927.925 757.592 926.889 758.409C924.81 760.05 922.765 761.721 922.234 762.185L922.234 762.185C922.16 762.25 922.002 762.42 921.751 762.725C921.513 763.015 921.223 763.387 920.895 763.819C920.296 764.608 919.587 765.575 918.855 766.573C918.786 766.667 918.717 766.761 918.648 766.856C917.847 767.948 917.03 769.058 916.327 769.974C915.644 770.861 915.01 771.646 914.59 772.023L913.354 770.648C913.622 770.407 914.15 769.771 914.86 768.847C915.549 767.951 916.354 766.857 917.157 765.762C917.226 765.667 917.296 765.572 917.366 765.476C918.095 764.483 918.814 763.503 919.422 762.701C919.756 762.261 920.062 761.868 920.323 761.551C920.571 761.249 920.815 760.97 921.016 760.794M937.495 748.778L937.497 748.779L937.495 748.778C935.753 749.282 934.494 750.443 933.351 751.394C932.186 752.363 931.211 753.056 930.698 753.311C930.297 753.51 929.544 754.046 928.708 754.67C927.837 755.32 926.786 756.135 925.743 756.958C923.665 758.598 921.586 760.295 921.016 760.794" fill="black"/>
<path fill-rule="evenodd" clip-rule="evenodd" d="M964.548 781.663L963.035 785.788L961.299 785.151L962.812 781.026L964.548 781.663Z" fill="black"/>
<path fill-rule="evenodd" clip-rule="evenodd" d="M969.18 770.412L967.53 773.847L965.863 773.047L967.513 769.611L969.18 770.412Z" fill="black"/>
<path fill-rule="evenodd" clip-rule="evenodd" d="M952.395 812.125C951.522 811.923 950.631 811.607 950.068 811.095L951.312 809.727C951.505 809.902 951.997 810.135 952.812 810.324C953.585 810.503 954.518 810.613 955.454 810.638C956.393 810.662 957.299 810.6 958.021 810.452C958.382 810.378 958.674 810.288 958.894 810.189C959.121 810.087 959.218 810 959.248 809.963L960.68 811.134C960.401 811.475 960.023 811.709 959.651 811.877C959.271 812.047 958.839 812.172 958.391 812.264C957.494 812.447 956.442 812.513 955.406 812.486C954.368 812.459 953.309 812.337 952.395 812.125Z" fill="black"/>
<path fill-rule="evenodd" clip-rule="evenodd" d="M912.65 776.693C912.557 777.723 913.587 777.442 915.273 777.255C916.959 777.067 919.114 775.194 916.959 775.288C914.805 775.381 912.744 775.662 912.65 776.693Z" fill="black"/>
<path fill-rule="evenodd" clip-rule="evenodd" d="M918.275 776.885C917.643 777.516 916.473 778.144 915.385 778.265C915.182 778.288 914.987 778.312 914.798 778.336C914.789 778.337 914.78 778.338 914.771 778.339C914.593 778.361 914.416 778.383 914.25 778.401C913.914 778.438 913.547 778.47 913.216 778.444C912.901 778.42 912.416 778.332 912.045 777.941C911.65 777.525 911.6 777.001 911.637 776.6C911.694 775.966 912.063 775.515 912.466 775.226C912.85 774.949 913.319 774.775 913.771 774.655C914.681 774.414 915.829 774.318 916.915 774.271C917.238 774.257 917.566 774.274 917.863 774.362C918.154 774.448 918.561 774.651 918.768 775.11C918.975 775.569 918.855 775.999 918.738 776.249C918.619 776.505 918.44 776.719 918.275 776.885ZM913.313 776.408C913.313 776.408 913.316 776.408 913.323 776.41C913.316 776.409 913.313 776.408 913.313 776.408Z" fill="black"/>
<path fill-rule="evenodd" clip-rule="evenodd" d="M932.323 790.648C932.885 791.303 934.009 790.554 933.447 789.805C932.885 789.055 931.761 789.992 932.323 790.648Z" fill="black"/>
<path fill-rule="evenodd" clip-rule="evenodd" d="M932.999 788.512C933.493 788.533 933.946 788.774 934.262 789.195C934.561 789.593 934.686 790.076 934.584 790.556C934.487 791.012 934.209 791.362 933.896 791.584C933.287 792.015 932.25 792.124 931.552 791.31C931.203 790.902 931.09 790.398 931.188 789.927C931.28 789.489 931.538 789.137 931.834 788.902C932.131 788.667 932.539 788.493 932.999 788.512ZM933.134 790.041C933.122 790.018 933.108 790 933.097 789.986C933.052 789.934 932.968 789.888 932.876 789.883C932.803 789.879 932.753 789.9 932.72 789.924C932.688 789.946 932.621 790.009 932.594 790.134C932.581 790.198 932.582 790.264 932.596 790.322C932.604 790.354 932.614 790.378 932.622 790.393C932.628 790.406 932.633 790.413 932.635 790.415C932.645 790.429 932.677 790.464 932.735 790.495C932.793 790.526 932.856 790.542 932.915 790.545C933.023 790.549 933.08 790.51 933.096 790.497C933.112 790.485 933.159 790.443 933.18 790.342C933.191 790.287 933.193 790.217 933.175 790.144C933.164 790.103 933.15 790.069 933.134 790.041Z" fill="black"/>
</svg>
