<svg width="1000" height="1000" viewBox="0 0 1000 1000" fill="none" xmlns="http://www.w3.org/2000/svg">
<path fill-rule="evenodd" clip-rule="evenodd" d="M290.38 989.145H290.09L289.944 988.928L289.799 988.419L289.508 988.129L289.436 987.693L289 986.458L289.218 986.676L289.581 986.458L290.235 986.167L290.525 986.095L290.743 986.24L290.889 986.603L291.324 986.894L291.688 986.966L291.905 987.257V987.547L291.615 988.274L291.324 988.71L290.961 989L290.38 989.145Z" fill="black"/>
<path fill-rule="evenodd" clip-rule="evenodd" d="M506.984 806.175L507.057 805.303L507.42 804.286V803.85L507.493 803.051L507.783 802.615L508.074 801.816L508.292 801.381L508.364 801.017L508.582 800.872V800.582L508.873 800.073L509.091 799.419L509.599 798.911L509.817 798.62L509.962 798.257L510.18 797.967L510.616 797.894L510.471 797.603L510.761 797.386L511.125 797.022V796.877L511.415 796.659L511.633 796.441L512.142 795.86L512.723 794.407L513.086 794.117L513.158 793.754L513.522 793.318L513.812 792.228L513.885 791.575L514.175 791.139L514.393 790.195L514.756 789.468L514.829 789.105L515.12 788.742L515.773 788.161L515.846 787.943L516.427 787.434L516.718 787.289L517.008 787.362L517.444 787.289L517.662 787.434L517.807 787.652L517.735 787.87L517.953 788.306L518.025 788.814V789.178L517.88 789.904L517.444 790.34L517.371 791.066L517.662 791.575L517.589 792.156L517.807 793.245L517.953 793.463L518.17 794.117L518.316 794.262L518.388 794.771L518.752 795.279L518.606 795.57L518.897 796.804L518.824 797.022L519.042 797.531L518.752 798.257L518.606 798.693L518.752 798.838L519.042 799.419V799.783L518.969 800.436L519.333 801.598V802.107L519.26 802.397L519.333 802.979L519.405 803.269V803.632L519.115 804.94L518.969 805.23V805.666L519.187 806.029L519.26 806.61L519.405 806.901L519.551 807.482L519.696 807.7L519.841 808.499L519.623 808.644L519.768 808.862L519.841 809.734L519.551 810.896L519.768 811.622L519.551 811.84L519.478 812.203L519.551 812.639L519.405 813.293V813.656L519.551 813.729V814.165L519.768 814.455L519.914 815.254L520.059 815.617L519.986 816.198L520.132 816.634V817.07L519.914 817.506V818.16L519.841 818.378L519.986 818.523L519.841 819.031L519.26 819.467V819.903L518.824 820.266L518.534 820.193L517.88 819.758L517.517 819.467L517.226 819.031L515.919 818.014L515.047 817.143L514.974 816.925L514.539 816.707L514.248 816.126L513.74 815.763L513.158 815.109L512.795 814.891L512.069 814.746L511.488 814.528L511.343 814.383L511.125 813.656L510.979 813.438L510.326 812.639L510.035 812.203L509.672 811.84L509.454 811.332H509.236L509.091 811.041L508.292 810.533L508.074 810.315L507.783 809.806L508.001 809.371L507.929 809.225L507.565 809.08L507.638 808.717L507.275 807.7L507.13 807.627L506.984 806.175Z" fill="black"/>
<path fill-rule="evenodd" clip-rule="evenodd" d="M492.093 765.498H491.366L491.076 765.426L490.567 765.571L490.422 765.643L490.204 766.225L489.623 766.515H489.405L488.679 766.951L488.243 767.387L488.025 767.75L487.734 768.331L487.807 768.912L487.153 769.711H487.081L487.008 770.074L486.79 770.292L486.354 770.946L485.918 771.745H485.701V772.035L485.119 772.544L484.829 772.689L484.902 772.762L484.538 773.125L484.175 773.851L484.103 774.215L484.03 774.868L484.32 775.304L484.393 775.813L484.974 777.193L485.192 777.846L485.265 778.427L485.337 779.154L485.192 779.808V780.098L484.902 781.115L484.466 781.987L484.103 782.495L483.667 783.004L482.432 784.238L482.359 784.311L481.488 784.965L480.689 785.255L479.962 785.401L479.236 785.255L478.292 785.11L477.057 784.674L475.967 784.238L475.604 784.021L474.369 783.294L474.079 783.149L473.861 782.931L472.771 782.422L471.754 781.696L471.391 781.551L470.883 781.115L470.81 780.679L470.883 780.534L470.519 780.243L470.302 779.808V779.517L470.084 779.009L469.503 778.645L469.357 778.21L469.212 778.064L468.994 777.628L469.139 777.047L468.994 776.757L468.631 776.684L468.34 776.394V776.176L468.558 775.885L468.413 775.667L468.195 775.449L467.832 775.377L467.323 774.868L467.033 774.941L466.742 774.796L466.597 774.578L466.307 774.432L465.362 773.779H465.217L464.781 773.488L464.345 773.343L463.764 772.98L462.965 772.617L462.384 772.471L461.44 772.108H461.077L460.423 771.818H460.205L459.261 771.527L458.462 771.454L457.953 771.309L456.428 771.236L455.92 771.309H455.193L454.83 771.382L454.539 771.309L453.595 770.437L453.305 770.292L452.796 769.784L452.288 769.493L451.997 769.203L451.198 768.694L450.326 768.113L449.963 767.968L449.527 767.605L449.019 767.314L448.002 766.297L447.784 766.007L447.494 765.571L447.13 765.353L445.968 764.844L444.879 764.409L444.37 764.118L443.934 763.755L443.208 763.101L442.772 762.593L442.554 762.084L442.336 761.866V761.285L442.191 760.486L441.973 759.905L441.828 759.324H441.755L441.61 758.888L441.465 758.816L441.683 758.452L441.537 758.089H441.392V757.653L441.465 757.508L441.392 757.072L441.32 756.564L441.392 756.273L440.884 754.385L440.811 753.949L440.157 752.206L439.939 751.625V751.189L440.811 750.462L441.537 749.663L442.336 748.719L443.499 747.194L444.007 746.758L444.152 746.395L444.588 745.959L444.951 745.668L445.532 745.596L445.75 745.886L445.678 746.467L445.46 746.903L445.242 747.121L444.951 747.266L444.588 747.993L443.862 749.01L443.426 750.172L443.281 750.753V750.462L443.135 751.189V751.915L443.208 752.351L443.353 752.569V753.223L443.717 754.966L444.007 755.62L444.225 755.91L444.733 756.201L444.951 756.128L445.896 756.346L446.041 756.491L446.186 756.346L446.985 756.419H447.421L448.147 756.564L448.511 756.709L449.019 756.782L449.6 756.927L450.109 757.145L450.69 757.29V757.435L451.271 757.581L451.416 757.726L451.925 757.871H452.724L453.668 758.017L453.813 757.799L454.104 757.726L454.249 757.871H454.539L454.83 758.162L455.193 758.307V758.017L454.757 757.871L455.338 757.799L455.556 757.581H456.428V757.799L457.518 757.435L457.445 757.363L457.881 757.29H458.171L458.389 757.508L458.462 757.29L458.97 757.363L460.06 757.508L460.641 757.218L460.786 757L461.367 756.927L461.803 757.072L462.021 757.435L462.239 757.871L462.747 758.234L463.111 757.799L463.256 757.435L463.038 757.363V757.145L462.675 757.29L462.602 757.508L462.457 757.363L462.602 757.072L462.384 757L462.529 756.709L462.384 756.636L462.239 756.273L461.803 756.201L461.513 755.91L461.44 755.62L462.021 756.055L462.384 756.346L462.457 756.491L463.111 757L463.619 757.218L464.418 757.363L465.508 757.726L467.033 758.234L467.541 758.525L467.759 758.598L467.977 758.38L468.195 758.598L468.05 758.888L468.558 759.324L469.43 759.76H469.648L469.72 759.542L470.011 759.687L469.938 759.832L470.156 760.123L470.302 759.978L470.955 760.268L471.028 760.05L470.737 759.905V759.687L471.173 759.469L471.246 759.905L471.609 760.05L471.464 760.341H472.263L472.771 760.414L473.207 760.341L473.28 760.414L474.006 760.486L474.587 760.341L475.386 759.978L475.677 760.05V760.268L475.314 760.196L474.732 760.341L474.515 760.559L474.587 760.704L474.151 760.777L474.079 760.559L474.006 760.849L474.297 760.995L474.442 761.648L474.297 761.794H474.515L474.587 762.302L474.732 762.593L474.515 762.665L474.442 762.956L474.224 763.101H474.006V762.811L473.716 762.956L473.57 762.665L473.352 762.811H472.844H472.408L472.263 763.029H472.117L471.972 763.319L471.754 763.246L471.391 763.464L471.028 763.682L470.592 763.828L470.447 763.392L470.084 762.883L469.43 762.811L468.994 762.593L468.558 762.52L468.486 762.593L467.977 762.52L467.541 762.084V761.794L467.469 761.721L466.96 761.43L466.597 761.358L466.379 761.503L466.161 761.43L465.871 761.721L465.653 762.302L465.435 762.157V762.52L464.781 762.883L464.418 763.174L463.692 763.61L463.401 763.973L462.893 764.263V764.336L462.602 764.481L462.457 764.627L462.166 764.699L461.585 765.353L461.367 765.934L461.585 766.442L461.876 766.806L462.166 766.951L462.239 766.878L462.529 767.096L462.457 767.241L462.747 767.605L462.965 767.532L463.038 767.75L463.474 767.677H463.982L464.055 767.605L464.418 767.75H464.636L466.089 768.404L466.379 768.476L467.251 768.404L467.832 768.258L468.558 767.605L468.413 767.241L468.195 767.024L467.905 767.096L467.251 766.878L466.96 766.515L466.67 766.007L466.742 765.789L467.033 765.716L467.614 766.152L467.687 765.934L467.614 764.99L467.832 764.554L467.687 763.9L468.122 763.464L468.34 763.392L468.849 763.755L468.994 764.627L469.72 765.208L470.229 765.353L470.81 765.135L471.609 764.481L471.9 764.409L472.045 764.118L472.335 764.045L472.699 764.263L472.917 764.627H473.643L474.006 764.699L474.66 765.135L474.805 765.571L474.95 766.152L475.168 766.225L475.531 766.152L475.749 765.934L475.677 765.789L475.967 765.571L476.113 765.716L476.694 765.789L476.984 765.498L477.565 765.426L477.928 765.716L478.219 766.079L478.292 766.37L477.856 766.878L477.565 767.387L477.129 767.677L475.895 768.258H475.314L474.805 767.75L474.369 767.823L473.498 767.895L472.917 768.113L472.844 768.258L472.408 768.476L472.263 769.203V769.566L472.553 769.711L472.408 770.074L472.117 770.365H472.19L472.481 771.019L472.771 771.164H472.989L473.207 771.309L473.643 771.236L474.66 771.6L474.805 771.382L474.587 771.019L474.805 770.801V770.437L475.023 770.147L475.241 770.22L475.459 770.583L475.677 771.236L475.967 771.382L476.113 770.946L476.548 770.292L476.33 769.638L476.476 769.203L476.548 769.13L477.275 769.203L477.493 769.348L477.565 769.566L478.001 769.856H478.655L479.091 769.493L479.454 769.638V770.002L479.672 770.074L480.18 769.856L480.398 769.638L480.616 768.839L480.543 768.622L480.108 768.258L480.616 768.04L480.979 767.75H481.27L481.342 767.169L481.488 767.459L481.706 767.314L481.56 767.096L482.214 766.37L482.505 766.588L482.795 766.225L482.868 765.716L482.65 765.426L482.722 765.28L482.577 765.135L482.65 764.844L482.505 764.699L481.56 764.191L481.488 763.828L481.706 763.174L481.923 762.956L481.778 762.593L481.342 761.939L481.124 761.503L480.834 761.648L480.761 761.939L481.124 762.23L481.342 762.52L480.907 762.956V763.246L480.616 763.61L480.18 763.537L479.962 763.392L479.817 763.101L480.325 762.012L481.124 760.777L481.197 760.196L481.342 759.687L481.27 759.251L481.052 758.452L481.124 758.234H481.415L482.722 757.871L483.086 757.653L483.667 757.29L484.538 757L485.337 756.564H485.991L486.282 756.491H486.572L487.444 756.854L488.098 757L489.26 757.435L489.55 757.29L490.277 757.653H490.785L491.875 758.089L492.31 758.162L493.327 758.598L493.836 758.67L494.272 759.033H494.417L495.216 759.687L495.507 760.123L495.797 760.486L495.87 760.414L496.306 760.777L497.032 761.576L497.105 761.939L497.032 762.302L496.814 762.811L496.306 763.537L495.579 764.191L494.78 764.627L494.708 764.699L493.618 765.062L493.473 765.135L492.746 765.353L492.093 765.498Z" fill="black"/>
<path fill-rule="evenodd" clip-rule="evenodd" d="M436.818 647.318H436.6L436.019 647.027H435.801L435.437 647.39L434.638 648.625L433.767 649.061L433.258 649.206L432.459 649.134L432.096 649.206H431.733L431.515 649.497L431.442 649.569L431.152 650.15L430.934 649.86L430.861 649.351L431.079 648.916L431.225 648.843L431.37 648.625L431.297 647.681L431.66 647.536L431.806 647.318V647.536L432.024 647.608L432.459 647.463L433.186 647.39L434.421 647.027L434.638 646.882L434.856 646.519L434.566 646.155L434.348 645.938H434.638L434.856 646.155L435.946 646.446L436.745 646.882L436.963 647.39L436.818 647.318Z" fill="black"/>
<path fill-rule="evenodd" clip-rule="evenodd" d="M543.012 548.096L543.376 547.732H543.521L544.756 548.168L545.046 548.531V548.967L544.756 549.839L544.683 549.912L544.102 550.129H543.884L542.722 549.476L542.504 549.185V548.822L543.012 548.096Z" fill="black"/>
<path fill-rule="evenodd" clip-rule="evenodd" d="M540.178 591.75L540.396 591.532V591.242L541.267 591.169L541.485 590.806H541.921L542.284 590.588L542.502 590.806L542.357 591.242L542.575 591.532L542.43 591.677L541.994 592.041L541.558 593.203L541.776 593.711L541.485 594.365L541.195 594.583L541.049 594.801V595.382L541.195 596.181L541.049 596.471L540.468 596.835L540.396 596.471L539.742 596.181L539.306 595.89L538.943 595.527L537.418 594.51L537.272 594.292L536.836 593.929L536.473 594.074L536.11 593.566L535.965 593.493L536.11 593.275L536.255 592.549L536.764 591.895L536.691 591.677L536.982 591.605L537.272 591.75H537.49L537.926 591.605L538.289 591.677L538.507 591.532H539.306L539.524 591.314L539.669 591.387V591.677L539.887 591.823L540.178 591.75Z" fill="black"/>
<path fill-rule="evenodd" clip-rule="evenodd" d="M609.037 525.506H609.255L609.618 526.015L609.691 526.596L609.546 527.104L609.11 527.685L608.093 528.63L607.657 529.211L607.366 529.719L607.148 530.228L606.64 531.099L606.277 531.463L605.623 531.027L605.187 530.881L604.461 530.809L604.606 530.373L605.042 529.719L605.26 529.501L605.768 529.211L605.986 528.848L606.204 528.412L606.349 527.831L606.422 527.032L606.567 526.523L606.495 525.942L606.567 524.925L606.277 524.271L606.567 524.344L607.584 524.998L608.238 525.288L608.747 525.579L609.037 525.506Z" fill="black"/>
<path fill-rule="evenodd" clip-rule="evenodd" d="M553.035 538.072L552.672 537.927L552.308 537.491L552.091 537.055L551.945 536.62L552.018 536.038L552.308 535.821L552.817 535.53L553.035 535.312L553.471 534.513L553.761 534.44L554.124 534.658L554.415 534.949L554.633 535.53V535.821L554.56 536.111L553.761 537.201L553.471 537.636L553.253 537.927L553.035 538.072Z" fill="black"/>
<path fill-rule="evenodd" clip-rule="evenodd" d="M609.691 516.499L609.545 516.862L609.037 517.516L608.456 518.025L607.657 518.678L606.785 519.042L606.277 519.477L605.913 519.405L605.55 519.623L605.26 519.477L604.824 519.114L603.734 518.896V518.678L604.098 518.751H604.679L605.26 518.678L605.841 518.243L606.277 517.516L606.495 516.862H607.076L607.584 516.79L607.947 516.354L608.746 516.136L609.545 515.628L609.836 515.482L610.199 515.119L609.981 515.773L609.691 516.499Z" fill="black"/>
<path fill-rule="evenodd" clip-rule="evenodd" d="M483.67 500.082L483.888 499.719L483.96 499.429L484.033 498.412L484.396 497.032L484.905 496.087V495.506L484.977 494.998L485.268 494.707L485.558 494.199L485.631 493.836L485.849 493.255V493.037L486.067 492.673L486.43 492.456L486.575 492.092L487.156 491.729L487.52 491.657L487.883 491.584L487.955 491.221L488.101 491.366L488.319 491.221L488.391 491.366L488.972 491.657L489.989 491.802L490.861 492.092L491.297 491.947L491.66 492.165L491.878 492.092L492.895 492.456L493.185 492.383L493.331 492.238L493.984 492.601L494.275 493.037L494.565 493.327V493.69L494.638 493.981L494.856 494.199L495.147 494.998L495.51 495.361L495.873 495.942L495.946 496.16L496.163 496.451L496.527 496.886L496.817 497.395L496.89 497.758L497.035 498.266L497.253 498.993L497.398 499.211L497.471 499.501L497.398 500.01L497.544 500.446L497.761 500.663L497.471 501.317L497.398 501.898L497.471 502.116L497.253 502.407L497.18 502.77L496.962 503.133V503.787L496.454 504.441L496.381 504.658L496.163 504.949L495.873 505.022L495.582 505.457L495.437 505.821L495.074 506.039L494.638 506.256L494.348 506.111L493.912 506.184H493.694L493.258 506.256L492.967 506.184L492.822 506.329L492.386 506.474L492.023 506.402L491.442 506.474H491.079L490.788 506.329L490.643 506.402L490.352 506.184L489.626 506.329L489.19 506.111H488.972V505.821L488.754 505.675L488.537 505.167L488.246 504.876L487.883 504.586L487.302 504.441V504.077H487.011L486.648 503.569L486.575 503.206L486.43 503.133L486.357 502.843L486.14 502.77L485.922 502.261L485.268 501.753L484.106 501.172L484.033 500.809L483.815 500.591L483.67 500.082Z" fill="black"/>
<path fill-rule="evenodd" clip-rule="evenodd" d="M619.352 501.464L619.497 501.028L619.715 500.665L620.078 500.374L620.804 499.575L621.24 499.285L622.039 498.559L622.257 498.413L622.911 497.832L623.274 497.396L623.637 497.106H624.146L624.581 497.178L625.598 496.961L625.889 497.033L626.325 496.888L626.978 496.307L627.269 496.016L627.342 495.726L627.124 495.363L627.269 494.999H627.414L628.068 494.2L628.504 493.982L629.085 493.401H629.23L629.158 493.982L629.593 494.273L629.739 494.564L629.884 494.636L630.029 494.854L630.102 495.653L629.739 496.234L629.375 496.597L629.085 497.396L628.94 498.268V498.631L628.722 499.575L628.141 500.592L627.777 500.883L627.414 501.101L626.906 501.246H626.47L626.034 501.173L624.945 501.028L624.509 501.101L624 501.173L623.419 501.319L621.821 501.464L620.804 501.609H620.368L620.151 501.464L619.569 501.319L619.352 501.464Z" fill="black"/>
<path fill-rule="evenodd" clip-rule="evenodd" d="M631.194 489.26L630.685 489.333L630.467 489.188L630.031 488.316V488.025L629.813 487.226L629.668 486.936L629.305 486.5L627.998 485.628L627.78 485.192L628.07 484.829L628.215 484.321L628.07 484.03L627.707 483.522L627.126 483.013L626.69 482.795L626.327 482.432L626.182 482.214L626.254 481.415L626.327 480.616L626.182 479.89H626.763H626.981L627.271 479.817L627.562 480.108L628.143 481.415L628.506 481.996L628.797 482.578L629.087 483.231L629.523 483.885L629.886 484.393L630.612 485.12L630.976 485.338L631.484 485.919L631.847 487.008L631.775 487.807L631.92 488.534L631.775 488.97L631.484 489.188L631.194 489.26Z" fill="black"/>
<path fill-rule="evenodd" clip-rule="evenodd" d="M502.697 483.814L502.624 484.322L502.479 484.685L502.406 484.903L502.261 485.049L501.607 486.065H501.462L500.954 486.501L500.663 486.864L500.3 487.01L499.937 487.373L499.428 487.518L498.847 488.099H498.557L498.121 488.317L497.83 488.172L497.685 487.663L497.031 486.937L497.104 486.719V486.211L497.177 486.065V484.976L497.031 484.903L497.177 484.685V484.395V483.596L497.54 482.506L497.83 482.07L498.048 481.417L498.411 481.126V480.908L498.557 480.69L498.847 480.618V480.4L499.21 479.891H499.501L499.864 479.746H500.155L500.445 480.037L500.881 480.109L501.244 480.4L501.535 481.271V481.562L501.68 481.925L502.406 482.797L502.624 483.015L502.697 483.814Z" fill="black"/>
<path fill-rule="evenodd" clip-rule="evenodd" d="M619.569 504.805L619.642 505.459L619.497 506.258L618.916 507.347L618.77 507.711L618.625 508.582L618.77 509.672L618.843 510.543L618.698 511.56L618.843 511.996L618.988 512.505L619.279 512.723L619.715 512.94L619.86 513.231L619.569 513.957L619.206 514.321L618.407 514.611L617.826 514.684H617.39L616.083 514.321L615.284 514.103L614.485 513.885L614.194 513.594L613.468 513.522L612.814 513.594L612.16 513.739L611.725 513.667L612.233 513.158L612.669 512.868L613.177 512.723L613.904 512.577L614.194 512.359L614.557 512.214L614.703 511.996L615.211 511.633L615.429 511.56L616.155 511.052L616.373 510.543L616.737 510.035V509.599L616.664 509.454L616.882 508.727L617.172 508.146L617.318 507.493L617.463 507.202L617.681 506.548L617.971 505.967L618.044 505.677L617.899 505.314V504.66L617.681 504.079L617.245 503.57L617.899 503.352L618.48 502.771L618.552 502.553L618.988 502.045V502.335L619.497 502.626L619.642 502.989L619.424 504.079L619.569 504.805Z" fill="black"/>
<path fill-rule="evenodd" clip-rule="evenodd" d="M569.233 322.994L569.161 323.43L568.797 323.721V323.938L568.58 324.302V324.52L568.216 325.173L568.144 325.536H568.071L567.781 326.118H567.635L567.345 326.699L566.982 326.771L566.691 326.699L566.255 326.771L566.11 326.626L565.674 327.062L565.238 327.207L565.166 327.134H564.73L564.149 326.989L563.858 326.626H563.568L563.204 326.263L562.986 326.335L562.623 325.9L562.478 325.391L562.26 325.246L562.042 324.737L561.752 324.52L561.679 324.011H561.534V323.793L561.098 323.575L561.025 323.285L560.735 322.922L560.662 322.486L560.953 321.977L560.88 321.832L561.098 321.396L561.752 320.525L561.824 320.307L561.679 320.016H561.897L562.115 319.871L562.187 319.58L562.551 319.362L563.422 319.072L564.076 319.435L564.294 319.29L564.73 318.781L565.166 318.999L565.819 319.508L566.11 319.798L566.4 319.943L566.764 320.234L566.836 320.379L567.272 320.597L567.926 320.67L568.144 321.033L568.58 321.106V321.469L568.943 321.832L569.451 322.05L569.596 322.486L569.524 322.704L569.233 322.994Z" fill="black"/>
<path fill-rule="evenodd" clip-rule="evenodd" d="M623.857 176.196L624.075 176.487V176.922L624.293 177.213L624.874 177.358L624.947 177.504L624.656 178.157L624.729 178.448L624.511 178.956L623.785 179.683L623.494 179.973L622.986 179.755L622.477 179.973V180.118L622.187 179.901L622.041 179.973L621.896 179.683L621.824 179.755L621.315 179.537H621.025L620.807 178.884L620.879 178.52L621.242 178.085V177.286L621.388 176.85L621.678 176.705L621.969 176.632L621.896 176.414L622.259 176.196L622.623 176.051L623.422 176.123L623.494 176.196H623.857Z" fill="black"/>
<path fill-rule="evenodd" clip-rule="evenodd" d="M694.095 294.521L693.732 294.157L693.441 293.649L693.005 293.867L692.57 293.722L692.206 293.794L691.988 293.504L691.843 293.576V293.794L691.553 294.012V294.375L691.698 294.521V294.811L691.48 294.956L690.754 294.811V294.593L690.39 294.448V294.23L689.955 294.012V293.722L689.664 293.431V293.14L689.882 292.85L690.245 292.923L690.754 292.85L690.972 292.923H691.625L692.352 292.414L693.078 293.14H693.296L693.441 293.358L693.732 293.504L693.804 293.431L694.168 293.939L694.385 294.157L694.095 294.521Z" fill="black"/>
<path fill-rule="evenodd" clip-rule="evenodd" d="M678.475 292.053L677.967 292.343L677.822 292.634H677.168L677.095 292.561L677.313 292.416L677.531 292.561L677.749 292.343L677.604 292.125L677.023 291.835L676.732 291.472L676.514 291.326H676.151L675.788 291.544L675.497 291.617L675.061 291.98L674.408 291.835L674.117 291.98L674.044 292.198L673.754 292.343V292.561L674.117 292.852V293.36L673.899 293.578L673.754 293.796V294.086L674.044 294.377L674.48 294.159L674.19 294.45L673.899 294.522L673.681 295.103L673.899 295.394L674.262 295.031L674.553 295.103L675.207 294.014H675.425L674.989 294.522L674.916 295.103L675.134 295.249L675.497 295.394V295.539L675.207 295.684L674.916 295.612L674.626 295.684L674.117 295.902L673.681 296.338L673.391 296.774L673.173 297.137L672.81 297.428L672.592 297.718L672.229 298.081L671.72 298.227H671.284H669.759H669.396L668.96 298.445L668.669 298.081H668.524L668.597 297.428L668.306 296.847L668.379 296.12L668.524 296.048V295.684L668.451 295.539L668.597 295.394V295.176V294.522L668.451 294.232L668.234 294.304L667.144 294.159H666.853L666.781 294.014L666.999 293.869V293.578L667.362 293.287L667.144 292.343L666.781 291.98L666.563 292.053L666.636 291.472L666.49 290.745L666.853 290.455L667.071 289.874L667.362 289.292L667.652 289.147L669.178 289.002L669.614 288.857L669.686 288.639L669.904 288.857H670.122L670.631 289.075L671.793 288.929L671.865 289.22L672.011 289.51L672.301 289.801L673.028 290.019H673.173L673.827 289.365L674.117 288.639L674.771 288.493L674.989 288.13L675.207 287.912L675.279 287.549L675.57 287.331L675.642 286.823L675.933 286.605L676.006 286.242H676.441L676.659 285.951L677.24 285.733V285.297L677.604 285.007L677.676 284.571L677.967 284.063L678.039 283.191L678.185 282.828L678.039 282.537L678.112 281.956V281.23L678.039 280.939L677.822 280.721L677.676 280.213L678.112 280.576V280.649L678.548 280.794H678.838L679.565 280.649L679.928 280.431L680.219 280.14L680.727 279.922L681.018 279.704L681.308 279.632L681.453 279.487L681.817 279.341L682.252 278.978L682.906 278.76L683.342 278.688L683.56 279.051L683.778 279.341L683.996 279.414L684.359 279.196L684.286 279.341L684.431 279.704L684.722 280.068H684.867L685.448 280.503L686.175 280.721H686.465L686.683 280.213L686.611 280.068H687.046L687.264 279.995L687.41 280.286L687.628 280.14V280.503H688.063L688.281 279.85L688.572 280.14L688.862 280.068L689.008 280.358H689.443L689.516 279.777L689.879 279.632L690.46 279.85L690.533 280.14L690.824 280.358V280.794L691.187 281.085L691.477 281.012L691.84 281.302L692.131 281.666L692.204 282.029L692.058 282.61L692.131 282.683L691.913 283.336L691.623 283.482L691.405 283.772L691.259 284.063L691.332 284.498L691.623 284.862L691.986 284.934L692.567 284.862L692.857 285.08L692.93 285.515L692.567 285.879L692.131 286.242L691.986 286.678V287.041L692.712 287.694L693.656 288.058L693.947 287.912L694.601 287.767L694.891 287.985V288.348L695.109 288.276L695.327 288.639L695.4 289.438L695.763 290.6L695.545 291.036L695.618 291.181L695.472 291.762L695.254 292.416L695.036 292.271L694.455 292.198L694.383 292.343L694.237 292.053H693.947L693.511 292.343L693.075 292.053L693.148 291.544L692.857 291.399L692.567 290.963L692.712 290.818L692.639 290.6L692.276 290.164L692.204 289.946H691.986L691.913 289.728L692.204 289.656L692.058 288.857L691.695 289.002L691.55 288.493L691.477 288.203L691.114 288.058L690.751 287.477L690.896 287.259L690.606 287.186L690.46 286.895L690.025 286.75L689.952 286.895L689.661 286.968L689.516 287.259L689.298 287.404L689.589 287.912L690.025 287.694L689.879 287.985L689.734 288.13L689.589 288.421L689.371 288.639L689.807 288.857L690.025 289.438L689.661 289.801L689.807 290.237L689.952 290.673L689.661 291.108L689.443 291.689L689.008 291.617L688.209 291.108H687.991L687.773 290.89L687.482 290.745L686.901 290.309L686.756 290.091L686.393 289.874L686.029 289.801L685.812 290.019V290.89L686.029 291.036L685.957 291.399L686.611 291.762L686.901 291.181H687.046L687.337 291.399L687.41 291.835L687.119 292.779L686.974 292.924V293.215L687.482 293.287L687.773 293.578L687.41 294.014L687.337 293.723L687.192 293.796V294.014L687.482 294.232L687.264 294.522L686.829 294.377L686.611 294.159L686.829 293.869L686.465 293.651L686.029 293.578L685.957 293.796L685.812 293.723L685.666 294.086L685.448 293.941L685.158 294.232L685.303 294.377L685.23 294.813L685.521 295.031L685.448 295.394L685.158 295.467V295.902H685.448L685.23 296.919L685.448 297.21L685.013 297.428L684.94 297.864L684.722 298.009L684.286 297.936L683.85 297.646L683.996 297.5L684.504 297.137L684.722 296.701V296.266L684.94 295.394L684.795 295.176L684.286 294.958L683.487 294.813V294.668L683.124 294.522L682.833 294.595L682.616 294.74L682.398 295.321L682.543 295.467L682.833 295.684V296.483L683.124 297.428L682.906 297.718V298.154L683.124 298.59L682.979 299.026L681.962 299.68L681.889 299.389L681.599 299.462V299.752L681.889 299.68L681.817 300.043L681.453 299.97L681.235 299.825L680.872 299.244L681.308 299.098L681.599 298.445L681.671 297.864L681.889 297.573L682.034 296.992L681.889 296.629L681.962 296.193L681.889 295.757L681.599 294.958L681.453 294.813H681.235L680.727 294.522L680.146 294.45L679.928 294.377L679.71 294.014H679.347L678.911 294.45L678.403 294.668L678.039 294.595L677.749 294.086V293.651L678.257 293.505L678.984 293.578L679.492 293.215H679.928L680.073 292.634L680.291 292.488L680.945 292.416L681.308 292.488L681.744 292.198L681.962 291.689L682.107 291.617L682.252 291.181L683.269 290.455L683.197 290.309L683.051 289.438L683.342 289.002L683.632 288.784V288.276L683.487 288.13L683.415 287.767H683.342L682.906 287.113L681.817 286.46L681.453 286.314L680.436 286.096L680.291 285.879L680.073 285.951L679.637 286.242L678.911 286.968L678.621 287.113L678.039 287.912L677.604 288.348V288.857L677.822 289.147L678.403 288.784L678.838 288.348L679.347 287.985L680.219 287.84L680.727 287.912L681.09 288.058L681.599 288.348L682.034 288.566L682.47 288.857L682.543 289.22L682.325 289.801L682.398 290.237L682.325 290.455L681.671 290.89L681.453 291.108L681.09 291.399L680.582 291.835L679.855 292.416L679.347 292.634L679.202 292.779H678.984L678.838 292.416L679.129 292.125L679.492 291.399L679.274 291.326L678.911 291.472L678.475 292.053Z" fill="black"/>
<path fill-rule="evenodd" clip-rule="evenodd" d="M670.27 300.332L670.56 300.187L671.142 300.259L671.795 300.768L671.941 300.695L672.158 300.986L672.667 301.494L672.812 301.567L673.103 301.93L673.248 302.438L673.393 302.511L674.047 302.656L674.483 302.947L674.773 303.165L675.354 304.182L675.427 304.617L675.209 305.344V305.634L674.991 306.215L674.919 307.16L674.991 307.668L674.919 308.322L674.773 308.54L674.555 308.758L674.265 308.612L674.047 308.322L673.393 308.031L672.74 307.523L672.376 307.014L672.158 306.433L671.941 306.215V306.07L672.231 305.562V305.344L672.013 304.908L672.086 304.763L672.376 304.617L672.449 304.472L672.376 304.182L672.667 303.818L673.03 303.964H673.321L673.466 304.036L673.756 303.746L673.684 303.528L673.321 303.31L672.957 302.947L672.812 302.511L672.449 302.22L671.868 302.075L671.432 301.712L670.778 301.494L670.415 301.058L670.197 300.695L670.27 300.332Z" fill="black"/>
<path fill-rule="evenodd" clip-rule="evenodd" d="M664.169 303.31L663.733 303.601L663.079 303.455L662.789 303.601L662.208 304.109L662.28 304.4L661.845 304.472L661.118 305.126L660.9 305.635L660.61 305.707L660.537 305.126L660.61 304.327V303.819L660.9 303.891H661.699L662.135 303.383L663.079 302.947H663.66L664.096 302.802L664.387 302.584L664.532 302.366L665.041 302.075L665.84 301.785L666.639 301.276L666.711 301.712V302.075L666.493 302.439L666.421 302.874L666.203 303.165V303.455L666.421 303.964L666.929 304.254L667.002 304.545L666.856 305.053L666.784 305.78L667.002 305.998H667.365L667.656 306.361L667.946 306.651L667.656 306.506L667.365 306.579L667.074 306.434L666.784 306.143H666.493L666.639 305.998L666.566 305.344L666.639 304.836L666.203 304.4L665.912 304.254H665.549L665.331 303.964L665.404 303.819L665.113 303.601H664.895L664.75 303.455H664.459L664.169 303.31Z" fill="black"/>
<path fill-rule="evenodd" clip-rule="evenodd" d="M663.95 298.372L663.659 298.735L663.296 298.953L662.497 299.098L662.352 299.171L661.916 299.098L661.335 298.88L660.681 298.953L659.882 299.316L659.301 299.534L658.792 299.897L658.647 300.115L658.357 300.696L658.284 300.841L657.848 301.64L657.558 302.003L657.194 302.802L657.122 303.311L657.194 303.892L656.904 304.4L656.831 304.691L656.395 305.054H655.814H655.669V304.764L655.524 304.691L655.887 304.546L656.25 304.255L656.541 303.892L656.468 303.383L656.25 303.02V302.802L656.541 302.73V302.294L656.759 302.367L656.976 302.294L657.049 302.076L656.831 301.931V301.785L656.976 301.495L656.831 301.277L656.541 301.132L655.814 301.277L655.669 301.204L655.233 301.422L655.088 301.64V301.277L655.306 301.132L655.451 300.914L655.814 300.696L656.323 300.115L656.468 299.897L656.686 299.171L656.759 299.025L657.267 298.735L657.775 298.662L658.066 298.517L658.792 298.589L659.228 298.226L659.591 297.718L660.245 298.081L660.826 298.299L661.698 298.226L661.988 298.008L662.424 297.936L662.642 298.081L663.441 298.372H663.95Z" fill="black"/>
<path fill-rule="evenodd" clip-rule="evenodd" d="M678.476 302.002L678.258 301.784L677.677 301.058L677.168 300.549L676.732 300.404L676.514 300.041L676.369 299.605L675.643 299.315L675.207 298.951L675.28 298.516L675.425 298.08L675.643 298.007L675.498 298.516L675.425 298.806L675.57 299.169L675.788 299.242H676.442L676.587 298.879L676.66 298.007L677.023 297.644L677.313 297.281L677.241 296.99L677.313 296.7L677.677 296.482L677.822 296.046L678.185 295.973L678.984 295.538L679.42 294.884H679.711L679.856 295.538L680.074 295.828L680.219 296.554L680.582 296.99L680.655 297.208L680.51 297.862L679.856 298.37L679.493 298.516L679.057 299.024L678.694 299.315L678.621 299.605L678.912 299.896L679.565 299.678L679.856 299.46L680.292 299.315L680.8 299.46L681.018 299.75V300.041L681.163 300.259L680.945 300.186V300.695L680.51 300.913L680.364 301.203V301.421L680.074 301.131L679.638 301.276V301.494L679.347 301.566V302.075L679.42 302.365H679.638L679.856 302.511L680.074 302.583L680.51 302.147H680.655V302.801L680.8 302.946V303.382L681.163 303.6L681.599 304.109L681.526 304.762L681.309 304.98L681.163 305.489L680.873 305.779L680.8 305.707L681.163 305.271V304.98L680.945 304.327L680.873 304.181L680.437 304.036L680.219 304.109H679.711L679.202 304.181L678.694 304.036H678.258L677.749 304.254L677.459 304.472L677.313 303.745H677.895L678.112 303.673L678.258 303.382L678.548 303.237L678.839 303.382L679.057 303.164V302.874L678.912 302.511L678.476 302.002Z" fill="black"/>
<path fill-rule="evenodd" clip-rule="evenodd" d="M707.604 63.9688L707.386 63.0971L707.023 62.4434L706.95 61.935L706.805 60.918L706.877 60.1917L707.095 59.9011L707.313 59.7559L707.604 59.8285L709.056 61.0633L710.001 62.2981V62.8066L709.855 63.4603L709.783 63.6782L709.274 63.8235L708.839 64.1141L708.33 64.2593L707.967 64.1867L707.604 63.9688Z" fill="black"/>
<path fill-rule="evenodd" clip-rule="evenodd" d="M378.706 22.3482L378.416 22.4935H378.125L377.98 22.5661L377.036 22.9293H376.745L376.6 23.1472L376.382 23.0746L376.091 23.3651L376.019 23.2925L375.292 23.5831L374.421 23.3651L373.985 23.4378L373.549 23.1472L373.04 23.0746L372.532 22.7841L372.096 22.2756L371.878 21.9124L371.588 21.7671L371.007 21.1134H370.789L370.208 20.4597L369.917 20.3144L369.699 19.7333L369.191 19.4428L368.973 19.1522V19.0069L368.682 18.4985H368.537L368.319 17.8448L368.392 17.3363L368.174 16.9731L368.392 16.0288L368.61 15.8836L368.828 15.2298L368.973 15.0119L369.118 14.3582L369.191 13.9224L369.554 13.2687L369.772 13.196L369.917 12.9055L370.208 12.7602L370.643 12.3244L371.225 12.1065L371.515 11.8159L372.096 11.5254H372.241L372.895 11.1622L373.549 11.0169L374.057 10.7264H374.348L375.51 10.2905H375.728L376.019 10.1453H376.527V10L376.963 10.2179L377.108 10.0726L377.835 10.2179L377.907 10.4358L379.142 10.8716L380.377 11.7433L380.449 11.9612L380.813 12.0338L380.958 12.397L381.321 12.9055L381.612 13.1234L381.83 13.4866L382.047 14.1403L382.193 14.2129L382.047 14.5761L382.193 15.1572L382.047 15.6657V15.9562L381.975 16.5373L382.047 16.9005L381.975 17.2637L381.83 17.3363L381.684 17.8448L381.83 18.1353L381.612 18.5711V18.8617H381.466L381.539 19.1522L381.176 19.588L381.031 20.1691H380.885L380.595 20.6776L379.505 21.6219L379.215 22.0577L379.069 22.2756L378.706 22.3482Z" fill="black"/>
<path fill-rule="evenodd" clip-rule="evenodd" d="M704.482 79.2225L704.845 79.1498L705.208 78.8593L705.499 78.4235L705.935 78.0603L706.298 77.6245L706.661 76.8981L706.589 76.7528L706.661 76.4623L707.097 76.3896L707.388 76.6076L707.605 76.8981L708.041 77.915L708.114 78.6414L708.041 79.0772L707.751 79.7309L707.388 80.2394L706.806 80.8931L706.298 81.3289L706.007 81.7648L704.482 83.3628L704.337 83.6533L703.901 84.1618L703.683 84.3797L703.32 85.0334L702.594 85.7598L702.23 86.0503H701.722L701.504 85.9051L700.778 85.6871L700.124 85.2513L698.962 83.8712L698.816 83.508L698.889 83.3628L699.47 82.9996L699.615 82.4911L699.47 82.1279H699.18L698.889 81.4742L698.962 81.1837H699.18L699.107 80.7478L699.397 80.3847L699.47 80.1668L699.979 79.9488L700.632 79.7309L701.068 79.8036L701.431 79.6583L701.94 79.4404L702.303 79.1498L702.594 79.0772L703.175 79.2225L703.393 79.1498L703.901 79.2225L704.119 79.1498L704.482 79.2225Z" fill="black"/>
<rect x="265" y="119" width="470" height="4" rx="2" fill="#A6A6A6"/>
</svg>
