<svg width="1000" height="1000" viewBox="0 0 1000 1000" fill="none" xmlns="http://www.w3.org/2000/svg">
<path fill-rule="evenodd" clip-rule="evenodd" d="M340.579 927.938L343.801 929.988L344.387 932.478H341.165V934.821H339.115L338.09 932.917L333.257 930.574L330.621 931.599L330.328 937.018L328.277 934.236L324.03 933.357L321.687 934.968L321.98 939.361L320.369 938.922L317.293 935.114L314.511 937.458L310.996 935.261L309.238 932.771L312.167 930.721L314.364 931.453L316.561 927.499V922.373L315.243 917.686L318.758 920.322L320.955 924.277L326.227 925.595L328.863 924.13L331.499 919.737L334.428 919.151L335.6 916.661L334.868 914.318L327.545 913.146L325.788 911.682L323.005 912.267L322.273 910.51L324.03 908.46L322.419 905.531L318.904 903.92L322.566 903.48L325.641 904.652L328.717 908.899L332.817 910.51L336.186 909.338L336.918 907.142L339.554 906.116L341.751 909.924L348.781 910.803L350.978 910.217L352.589 906.556L350.685 902.455L353.76 904.359L359.765 905.384L363.133 907.435L365.037 906.702L368.699 907.142L370.31 905.238H373.531L378.072 906.702L377.486 908.02L378.95 912.121L376.9 914.171L378.218 916.808L377.779 919.151L375.435 916.954H373.385L372.067 914.757L370.017 914.611L367.966 917.393L363.28 916.808L365.623 914.318L364.891 912.56L359.472 910.949L356.689 913.439L355.078 912.853L352.296 914.464L350.538 919.004L347.023 916.661L344.241 919.151L343.948 921.641L340.14 921.201L338.529 925.888L340.579 927.938Z" fill="black"/>
<path fill-rule="evenodd" clip-rule="evenodd" d="M424.499 879.462L424.06 883.855L428.014 890.592L427.721 892.35L424.646 892.642L420.399 890.885L416.737 890.446L415.859 888.688L412.49 888.542L410.879 882.83L416.445 876.093L416.152 874.336L413.369 870.381L412.93 867.452L409.415 863.498L409.561 858.372L411.026 856.175L408.097 852.514L404.582 851.342L403.264 848.706L398.284 848.413L395.502 850.903H392.573L391.547 848.999L388.033 848.853L385.689 852.221L383.492 850.317L381.589 851.342L378.513 850.61L377.195 853.686L374.705 852.953L370.897 856.615L370.458 861.008H369.433L368.408 857.054L365.772 856.468L360.792 853.686L358.888 853.979L356.984 851.635L353.03 852.953L354.202 856.175L352.005 857.933L349.222 854.125L342.485 851.635L338.531 849.146L337.945 847.828L346.586 845.924L349.222 847.095L356.691 847.242L362.55 844.752L362.696 843.141L359.62 841.384L358.009 839.187L361.231 839.626L370.312 838.601L375.145 836.697L376.902 839.333L379.831 841.384L381.881 844.606L387.886 843.727L391.84 844.459L393.598 843.141L399.309 841.677L400.481 837.869L396.82 836.697L391.987 831.425L390.083 827.178L391.254 826.445L393.891 829.667L397.991 831.864L402.531 836.258L402.971 839.333L406.486 838.747V836.551L404.289 834.793L408.829 834.207L410.733 837.429L409.708 839.626L414.98 843.873L419.52 842.848L422.156 836.697L424.499 842.555V844.313L421.863 845.338L422.449 849.292L421.863 860.423L425.671 871.407L424.499 873.457V879.462Z" fill="black"/>
<path fill-rule="evenodd" clip-rule="evenodd" d="M425.817 618.041L424.938 621.263L423.181 623.167L423.62 625.803L421.863 625.217L420.398 627.267L417.469 626.974V623.606L413.808 621.556L411.611 618.334L409.853 609.107L404.435 603.981L402.824 603.542L396.526 607.789L395.647 605.739L393.304 605.153L393.89 600.759L397.258 598.416L400.334 598.123L402.384 591.679L401.213 590.507L401.652 586.992L399.309 582.599L394.476 583.331L390.961 581.72L394.915 578.498L395.062 576.448L397.112 576.301L397.551 574.397L401.359 576.008L403.41 577.912L403.263 580.988L406.631 584.942L407.51 591.679L414.54 596.805L418.055 595.926L422.302 590.214L425.67 592.997L428.16 597.244L430.503 599.295L433.579 597.977L434.751 595.194L437.973 597.83L437.094 601.491L437.387 604.42L439.876 606.764L440.023 609.253L436.655 611.304L433.286 611.157L427.574 615.405L425.817 618.041Z" fill="black"/>
<path fill-rule="evenodd" clip-rule="evenodd" d="M842.628 123.76L833.255 124.639L824.467 121.71L822.563 120.099L813.776 116.145L811.726 114.68L805.135 115.266L804.55 114.241L798.545 115.266L797.52 112.776L794.591 109.701L788 108.676L782.289 109.554L780.824 110.726L773.941 111.312L771.158 114.534L769.84 110.872L766.618 108.236L763.396 108.529L761.346 106.186L758.124 105.307L751.973 106.332L744.064 111.458L737.62 114.241L733.959 109.408L731.323 102.524L725.025 97.9844L721.51 92.2727L714.188 85.5358L709.208 82.3138L705.547 78.2131L705.693 76.1628L708.329 72.5014L713.162 67.6685L718.581 67.3755L722.828 70.8904L725.904 71.9156L731.616 68.9865L735.277 68.2543L741.428 69.7188L746.554 69.4259L750.801 66.7897L752.705 64.1536L757.245 61.5174L769.547 62.689L777.895 65.3252L784.485 68.1078L787.122 71.0369L792.101 74.1124L800.449 74.8447L805.282 73.3802L808.797 70.1582L812.312 69.5724L815.68 70.5975L823.735 74.2589L827.543 75.4305L835.891 76.895L839.699 76.3092L843.36 70.744L848.339 65.0323L852.879 61.9568L858.298 60.6387L863.278 61.6638L867.818 63.5677L878.216 65.6181L880.413 67.522L886.564 68.8401L890.811 70.4511L893.74 72.5014L898.134 73.2337L900.77 78.3596L905.456 82.0209L910.729 81.4351L914.097 81.8745L917.758 87.4397L921.713 91.8333L923.47 95.2018L932.257 96.8128L935.919 100.621L937.383 103.989L944.999 110.287L947.342 112.923L955.543 125.957L961.109 130.351L968.724 141.042L971.068 145.289L975.461 149.975L977.951 157.591L980.001 169.747L977.951 177.655L972.679 181.024L968.285 181.463L963.013 177.802L958.326 172.822L954.518 171.358L949.832 167.257L949.392 164.914L945.731 161.106L938.701 159.934L938.262 158.323L920.834 146.314L913.218 142.799L902.82 140.456L904.138 136.502L903.845 133.573L902.088 131.522L888.175 128.3L883.635 126.104L880.559 126.836L878.216 124.932L868.403 123.907L864.742 124.639L861.081 123.467L856.101 126.104L854.783 123.76L846.875 123.028L842.628 123.76Z" fill="black"/>
<path fill-rule="evenodd" clip-rule="evenodd" d="M648.43 699.909L650.919 698.444L649.748 695.955L652.677 693.465L652.53 691.122L654.288 688.632L651.798 686.435L653.848 684.678L653.995 680.431L655.606 675.305L654.874 669.447L655.752 667.103L659.56 666.664L663.368 661.977L665.418 656.266L668.201 656.998L669.226 653.19L666.151 652.311L667.029 649.236L666.004 646.746L661.025 640.595L655.313 638.838V637.08L659.853 635.03L662.929 630.783L670.544 631.369L669.519 632.98L672.302 635.762L676.695 634.737L680.503 632.101L678.892 628.44L682.993 626.975L684.604 622.142L688.412 624.925L690.901 627.854L692.073 626.975L695.441 627.707L701.007 625.364L707.743 619.799L710.233 614.966L707.89 611.158L712.137 605.153L712.576 602.81L708.036 595.487L706.718 595.195L708.769 590.654L710.673 589.19L709.647 585.821L711.112 583.185L710.526 578.352L708.622 576.302L710.526 574.984L715.066 568.247L715.798 565.464L715.213 560.924L717.409 557.556L716.384 555.359L710.819 553.895L707.451 552.43L706.572 547.597L710.087 549.647L713.016 550.233L715.506 549.208L720.192 550.233L724.586 547.451L730.737 547.89L732.787 549.208L736.595 547.011L738.499 547.451L741.721 544.668L741.867 549.354L744.21 550.526L747.579 550.38L748.604 555.066L750.801 556.677L751.533 559.313L755.194 561.803L756.513 560.778L762.957 560.485L764.714 558.435L767.643 557.409L768.375 561.071L770.865 560.485L774.233 563.121L772.476 567.075L770.572 568.101L768.375 572.348V577.181L770.865 575.423L773.501 576.888L779.213 574.398L788.732 573.373L792.54 576.009L794.444 576.302L797.959 574.105L799.57 570.883L801.913 572.201L803.817 570.151L809.675 570.883L812.311 571.762L821.392 571.323L822.27 569.565L817.584 568.54L814.655 566.05L814.362 564.586L816.705 562.828L815.094 554.773L818.463 551.405L824.321 550.965L826.371 550.087L832.083 549.501L835.012 552.43L834.133 555.506L831.643 557.117L828.421 562.535L829.739 564.439L832.522 564.146L837.209 560.339L840.431 559.46L843.799 557.117L845.556 553.455L853.026 552.137L855.076 550.526L863.277 551.258L864.01 553.309L866.646 554.187L870.454 553.895L873.09 549.062L878.069 548.769L880.852 547.743L886.856 548.476L883.781 549.062L880.705 553.895L874.701 556.091L872.065 560.631L872.211 563.121L866.206 562.389L862.838 562.828L856.541 566.343L852.586 567.222L848.339 570.151L847.167 567.808L844.531 567.661L841.016 565.611L832.815 567.808L831.058 567.515L825.346 570.004L819.195 575.716L820.22 580.256L817.291 583.625H811.14L806.6 585.089L804.989 586.847L798.545 587.872L795.616 583.918L793.126 584.21L790.343 586.114L784.632 592.851L782.288 593.876L779.652 589.629L774.966 586.554L771.597 586.261L768.668 584.65L763.689 584.21L759.295 587.579L756.513 594.169L756.366 597.098L757.977 598.563L754.462 601.785L754.316 605.3L755.634 609.986L759.002 610.865L757.245 608.375L759.881 608.668L761.785 614.38L760.467 616.284L760.76 619.799H757.098L753.437 617.309L748.604 618.774L746.261 618.041L742.014 620.092L738.206 618.481L735.57 619.359L731.615 619.213L727.075 617.455L719.167 618.334L712.137 623.899L711.112 627.121L709.354 627.268L706.572 629.758L702.764 629.904L698.517 631.808L694.856 634.298L692.512 634.151L687.533 637.813L687.24 643.964L688.119 646.16L686.654 648.65L686.801 653.337L685.19 662.417L681.382 673.694L683.286 679.405L686.215 684.092L688.997 683.36L692.952 689.364L688.851 693.172L683.579 694.49L671.862 692.44L666.883 693.758L662.929 696.541L660.146 702.252L657.656 701.52L653.702 703.717L648.43 699.909Z" fill="black"/>
<path fill-rule="evenodd" clip-rule="evenodd" d="M292.835 760.103L295.032 755.416L295.179 750.29L293.275 751.901L292.249 756.002L289.027 758.785L288.735 760.982L282.73 768.011L279.508 768.158L272.185 770.062L268.085 769.622L263.252 767.279L260.908 769.183L261.787 770.648L257.833 774.602L250.217 779.142L242.602 780.753L241.137 785.439L239.233 786.757L227.224 788.515L222.245 786.025L217.265 780.606L215.801 775.773L213.75 773.137L204.963 772.844L197.494 775.041L197.201 775.92L191.05 776.799L190.171 775.627L184.02 777.238L181.091 778.849L177.43 778.995L175.965 781.192L173.475 781.778L173.622 777.677L169.228 776.945L167.031 778.263L161.759 779.435L159.123 779.142L148.871 775.334L145.649 774.895L140.084 775.334L141.695 774.162L146.967 773.43L159.562 768.451L160.88 765.082L162.931 767.279L169.375 766.4L170.986 764.35L171.279 762.007L169.668 758.785L174.061 754.684L177.283 754.831L180.798 758.199H189.146L198.519 758.931L200.276 756.881L203.645 757.027L209.796 754.538L214.629 750.583L216.533 746.629L219.608 743.261L220.78 740.039L224.295 737.988L225.174 733.155L227.517 728.615L225.613 721.146L228.981 716.606L236.304 716.46L242.748 712.505L245.238 710.162L249.046 708.698L251.389 706.354L252.414 702.986L252.56 698.006L249.924 693.759L246.995 694.199L244.798 695.81L242.602 693.906L239.673 688.78L240.844 683.8L239.965 679.26L242.895 678.675L247.435 675.013L248.46 671.791L247.581 667.105L249.046 665.787L259.444 672.231L264.716 674.867L269.403 674.574L271.599 669.155L271.307 663.15L269.842 660.221L267.352 658.757L264.716 659.196L260.323 656.853H265.009L269.256 655.974L271.453 657.585L275.407 658.171L277.311 656.414L279.362 651.727L278.043 647.187L281.119 646.455L284.195 648.359L291.957 649.237L292.542 652.166L294.3 652.899L297.815 651.727L300.451 654.217L308.359 655.388H312.314L315.682 653.777L317.293 651.873L318.318 654.363L322.126 656.853L329.742 656.56L331.353 654.51L334.282 655.242L337.211 657.292L343.362 656.414L344.387 654.949H348.488L349.22 652.166L351.71 650.263L352.735 644.404L355.371 645.869L354.346 650.848L357.128 653.631L360.35 654.07L362.254 659.343L365.33 661.247L368.845 661.686L372.36 659.782L375.142 663.15L377.339 663.004L381.293 660.514L382.611 657.146L382.026 653.924L384.076 650.848L385.248 653.192L390.52 655.974L393.01 655.388L403.408 649.384L404.14 647.773L406.483 647.626L408.094 645.869L406.776 644.697L408.241 641.329L415.124 640.157L415.417 638.4L417.76 637.228L425.229 636.789L427.719 635.324L432.552 637.814L435.774 637.228L438.996 639.425L439.875 643.233L438.41 646.748L441.046 651.141L440.021 654.07L441.925 658.464L444.561 660.807L445.733 664.615L447.637 667.105L448.369 670.766L445.587 677.21L441.486 681.018L436.214 682.189L436.653 680.286L442.365 677.503L441.193 675.453L431.527 674.427L427.426 675.453L422.3 679.846L420.836 684.533L419.664 684.386L419.811 687.901L421.422 692.148L424.937 690.391L428.159 691.855L429.184 695.81L428.891 699.178L426.84 700.203L423.765 705.036L422.886 701.814L419.664 703.279L419.371 710.455L417.028 714.409L413.953 715.288L412.342 714.116L414.685 711.627L410.438 710.016L407.509 710.309L404.433 717.485L398.721 716.606L397.989 719.535L402.969 722.757L405.898 718.217L406.776 719.535L411.17 714.702L412.195 716.167L407.801 721.146L404.287 721.293L403.847 724.368L399.747 726.418L396.232 724.807L394.914 728.176L392.277 728.029L392.717 725.979L391.545 721.439L387.444 721L384.222 723.636L384.955 727.444L378.657 730.226L375.582 728.908L374.117 727.151L371.627 727.004L367.82 724.807L366.355 722.171L362.547 718.949L354.932 716.313L353.76 713.091L353.906 709.869L352.003 705.768L351.27 708.258L346.73 705.768L344.094 703.572L338.968 696.835L336.479 697.714L337.211 703.279L333.257 702.547L332.817 698.006L327.252 699.91L326.666 702.254L323.883 704.304L328.716 708.551L332.085 705.768L335.307 708.405L333.257 711.041L327.984 714.116L326.227 717.338L328.716 719.682L329.888 725.393L331.792 725.686L334.575 728.322L335.453 726.272L339.7 727.737L338.382 729.933L334.575 733.155L331.646 739.306L330.767 737.549L327.545 741.943L324.762 742.382L321.247 741.064L313.339 741.943L313.192 740.771L309.385 739.892L305.137 741.796L301.183 741.503L300.304 739.599L301.915 738.428L301.769 734.62L296.936 733.888L294.593 739.746L297.229 741.357L298.254 746.776L297.229 748.972L298.986 751.316L299.572 755.563L298.547 757.906L295.764 760.835L292.835 760.103Z" fill="black"/>
<path fill-rule="evenodd" clip-rule="evenodd" d="M57.3398 669.301L48.699 668.715L45.7699 672.669L43.7196 673.841L37.2756 672.962L29.66 674.28L28.6349 672.816L23.3625 670.912L21.7515 667.544L19.7012 667.104L22.0444 663.736L27.4632 662.418L34.3465 663.589L40.6441 664.029L41.6692 663.003L40.6441 658.024L42.9873 656.413L45.6235 657.145H50.8958L57.3398 654.216L57.4862 650.848L61.8799 649.969L64.0767 646.308L63.1979 641.621L69.9348 640.157L69.7884 637.667L74.9142 640.157L76.9646 638.839H80.7724L85.6054 640.596L86.1912 642.207L93.8068 644.257L96.8823 642.646H100.544L102.594 641.182L106.109 641.475L109.477 643.818L113.724 644.111L115.189 645.575L119.583 646.308L118.704 649.676L121.779 652.019L124.123 658.024L121.34 658.171L119.729 660.953L122.951 663.003L125.001 666.079L130.86 665.347L132.031 666.225L133.789 672.377L132.178 675.891L133.056 679.553L130.127 680.871L126.173 679.553L121.34 675.306L119.876 672.523H112.114L110.503 673.841L112.553 677.063L114.457 676.917L115.921 680.139L114.31 682.189L108.452 683.8L104.205 684.239L88.9738 678.674L82.6763 673.255L80.9188 669.887L81.2118 666.079L78.2827 664.468H73.3033L71.2529 669.155L72.1316 672.523V677.21L68.0309 678.967L63.4908 676.77L62.905 671.644L59.3901 669.447L57.3398 669.301Z" fill="black"/>
<path fill-rule="evenodd" clip-rule="evenodd" d="M486.304 672.523L482.204 672.962L479.128 676.038L476.199 676.331L473.416 673.987L477.81 673.255L475.027 670.619L473.123 671.498L470.634 677.795L464.776 676.331L461.7 671.058L456.867 668.276L453.352 668.862L449.544 665.347L447.494 664.907L450.423 663.15L450.716 660.953L448.959 658.463L447.201 660.514V653.63L449.105 651.727L456.428 651.434L457.746 654.07L455.695 658.17L457.014 660.953L460.528 662.711L464.776 661.978L468.583 657.878L473.709 659.635L479.567 656.267L482.643 655.534L483.375 657.292L481.325 661.832L485.426 665.054L488.794 665.493L494.213 661.685L495.824 657.438L494.066 654.948L496.995 654.802L499.632 656.267L504.172 661.246L516.034 670.326L517.938 674.28L519.696 680.578L520.282 684.679L518.231 689.804L513.105 691.269L511.787 694.052L507.394 698.885L505.05 699.324L504.318 696.688L503.586 687.608L503 685.997L497.288 680.578L496.41 677.795L489.233 674.427H486.89L486.304 672.523Z" fill="black"/>
<path fill-rule="evenodd" clip-rule="evenodd" d="M489.524 610.865L490.403 614.38L496.407 615.259L499.336 621.996L495.529 626.975L494.796 630.051L491.721 631.222L487.327 631.076L485.863 632.687L486.009 637.52L481.323 641.474L476.636 640.595L476.49 637.227L475.172 636.202L475.904 633.273L474.879 631.808L476.343 629.904L473.854 626.096L475.611 622.874L479.419 623.753L482.641 619.652L483.227 616.284L485.863 614.234L484.691 610.426L479.272 610.865L477.954 610.133V607.35L483.519 605.739L484.105 602.224L475.318 595.488L475.611 591.68L477.515 588.604L476.49 586.847L480.444 583.478L478.979 578.353L475.025 573.373L476.49 567.222L477.661 569.272L480.444 569.565L482.055 566.636L485.716 564.586L492.307 564.146L491.428 566.343L492.16 568.979H489.671L487.767 571.176L489.817 576.449L492.307 577.034L492.16 578.792L495.382 582.453L496.993 580.842L500.069 580.989L497.725 583.771L496.554 589.776L496.993 592.559L492.307 598.856L490.842 603.982L490.403 608.815L489.524 610.865Z" fill="black"/>
</svg>
