<svg width="1000" height="1000" viewBox="0 0 1000 1000" fill="none" xmlns="http://www.w3.org/2000/svg">
<path fill-rule="evenodd" clip-rule="evenodd" d="M373 976.7L373.3 975.9L381.3 967.9L388.7 959.8L390.1 956.4L393 952.7L397.4 945.6L398.9 939.8L399.3 935.3L398.6 931L399.1 928.2L395.2 916L394.4 914.2L393.9 910.4L392 906.9L391.3 903.2L387.9 897.1L387.7 895L386.6 893.7L385.7 890.3L386.4 886.5L387.6 884.8L389.2 884L389 880.9L391.2 875.2L391.8 871.3L393.2 869.5L399.2 865.6L401.5 864.9L401.8 860.9L408.1 857.8L410.4 858.7L411.8 856.9L415.3 856.7L417.3 858.6L419.5 858.4L419.9 860L422.6 861.6L425.6 861.9L428.2 863.2L430.7 863.4L433.5 865L435.2 864.8L440.5 865.1L441.2 866.3L443.2 864.5L444.8 865.6L446.8 865.2L447.5 866.9L448.7 867.1L450.6 865.4L451.3 867.5L455.1 868.7L458.4 869L464.7 867L465.5 865.9L472.5 863.8L480 861.1L481.5 859.4L487 856.8L491.4 853.6L492.8 849.5L494.3 847.5L497.4 845.8L499.5 845.6L503.2 846.6H506.5L513.7 845.2L515.3 844.3L516.5 842.5L521 841L525.1 840.2L527.6 839.4L533.2 839.8L535.8 841.3L537.8 841.6L539.8 843L543.9 844L551.7 842.9L553.5 843.4L555.7 845.4L557.3 845.9L554.7 848L555.6 850.6L551.7 850.7L554.8 851.8L554.1 853.7L555.1 856.3L555.2 860.6L556.3 859.2L556.1 856.2L557.3 853.1L558.5 851.5L561.9 850.6L561.4 852.3L563.4 856.7L564.2 856.8L563.8 854.5L564.8 851.6L564.7 848.6L566.6 847L566.3 845.2L565.2 845.6V847.9L562.3 847L563.9 846.2L564.3 845L562.7 844.5V842.9L564.7 841.6L566.9 841.2L569.1 839.7L571.5 843.9L574.6 847.3L576.6 850.3L578.4 852L580 851.1L581.8 852.5L580.2 853.6L581.3 855.6L583 856.2L583.1 858.2L584.8 862.3L588 865L590.3 867.5L592.4 867.7L595.9 869.5L599.6 872.2L601.3 875.3L603.8 876.9L605.5 879.3L607.2 880.3L608.6 880L611.5 881.5L613.5 884.2L615.3 885.3L618.1 887.9L620.3 887.5L623.7 887.8L627.9 887.5L630.7 890L632.5 888.9L631.8 887.6L633.1 885.3L635.1 884.6L638 879.2L637.2 877.1L640 878L640.6 877.4L643.3 878.3L646.8 878.7L649.2 878.1L650.7 875.4L652.7 874.3L652.6 870.6L654.4 871.1L655.5 869.9L658.6 871.3L663 871.6L664.6 870L664.2 868.4L667.5 869.4L668.1 873.1L668.8 872.1L671.1 872.4L670.1 869.6L674.1 870L680 871.5L682 871.1L683.1 869.1L682.2 868.4L684.1 866.7L686.5 865.8L685.6 864.8L686.8 863.7V866L687.9 867.6L692.2 868.9L696.3 868.3L699.6 871.2L701.6 872L704.4 871.6L706.8 872.4L708.4 871.9L709.2 870.4L710.9 871.6L715.1 872L716.2 871.7L716.6 869.5H718.4L720.1 871.3L723.1 872L724.7 871L726.4 871.7L731.2 871.6L734.8 869H736.9L738.3 870.3L739.8 870.4L740 869.2L741.6 870L742.5 874.4L744.8 876L750.7 878.2L754.6 878L755.9 876.8L755.4 874.2L758.7 875L762 874.8L765.4 875.9L768.1 873.8L768.7 874.1L775.1 871.9L776.4 870.7L776.2 868.5L777.2 868.1L780.6 871.3L783.7 872L786.9 871.4L788.4 870.5L791.8 873.8L794.9 874L798.9 875.3L800 877.2L797.5 878.3L796.7 882L793.9 881.7L790 885.3L786.9 887.3L786.3 889.2L783.1 890.3L781.9 888.3L780 888L773.3 891L769.5 888.1L760.6 888.8L758.2 890.8L753.4 889.8L750.3 893.1L748.1 897.7L744.5 901.9L744.2 904.4L742.8 907.1L741.6 904.7L739.6 903.8L736.6 904.5L734.2 904.1L732.5 905L729.6 908L729.5 908.8L725.6 909.6L723.6 908.7L721.2 911.3L718.3 911.6L714.7 914.6L712.7 918.4L708.1 921.1L705.6 921.5L702.1 919.9L697.9 919.7L696.8 919.1L692.7 918.9L684.1 921.6L678 924.5L675.2 927.7L674.6 931.8L672.7 932.6L668.5 932.8L666.9 931.3L664.4 932.4L662.5 932L660.1 934L658.5 934.1L655.3 936L652.9 935.4L649.9 936L648.7 937.3V939.4L647.4 941.1L643.1 942.3L637.6 943.3L635.4 942.1L632.9 942.2L628.5 945.4L625.4 946L625.5 944.5L624.3 943.3H622.2L618.3 944.6L614.6 947.8L610.2 949.6L607.8 952.4L602.6 949.1L601.2 949L596.1 945.7L593.4 944.9L588 944.2L584.3 944.7L582.3 946L579.3 948.6V954.3L576.3 956.4L576.2 959.2L578.7 964.5L579.9 964.9L578.8 966.1L575.7 959.4L574.1 951L572.2 947.8L568.1 949.7L568 950.3L572.7 960.2L571.6 960.7L566.3 948.9L561.5 951.6L565.2 959.7L563.8 960.1L559.2 951.5L554.7 952.9L552.4 955.5L553.6 957.6L552.7 958.1L553.7 960L552.4 959.7L550.1 957.1L548.3 954L549.5 953L547.2 949.7L545.8 949.9L546.5 948.2L545 946H543.7L540.7 938.3L539.4 938.6L540.4 941.6L538.8 945.2L538.9 946.5L540.9 949.1L543.2 948.9L545.7 952.6L545.1 953.8L546.1 956.4L547.8 956.2L548.6 957.7L548.9 960.7L549.8 962.6H548.5L547.1 964L542.3 961.8L539.8 961.1L538.8 959.6L536.4 957.9L534.8 957.8L530.5 955.6L529.4 957.5L527.5 958L527.9 955.5L525 954.9L523 955.1L520.7 956.8L517.9 955.6L510.9 958.8L505.7 959.3L502.5 958.1L499.7 958.5L499.1 959.7L495.4 960.3L490.7 962L490.1 962.9L487 964.4L479.5 965.4L476.4 967.7L470.5 968.2L466.7 970.9L466.4 971.7L462.5 973.7L460.6 973.3L457.4 976L455.2 976.9L454.6 975L455.4 973.1L454.5 970.4L453.1 968.6L449.7 967.2H441L436.3 967.7L433.2 968.9L430.7 968.7L428.1 969.6L425.2 969.4L424 968.5L420.9 968.1L417.3 968.4L414.2 969.6L412.5 968.8L410.5 970.1L405.6 971.3L404 970.1H401.9L400.1 969L397.2 969.3L395.2 971.2L392.7 972.6L386.9 977.2L379.9 981.9L378 984.5L376.8 982.4L373.2 977.7L373 976.7Z" fill="black"/>
<path fill-rule="evenodd" clip-rule="evenodd" d="M373.499 36.7L372.099 40L369.099 40.9L367.899 39.2V37.2L364.899 35.7L364.299 32.8L362.899 32.1L361.999 30.2L361.599 27.3L363.099 24.9L362.399 23.3L360.799 22.2L358.699 21.9L357.999 19.6L356.199 18.3L356.499 17.3L359.999 16L361.699 16.8L362.699 16.2L368.299 18.2L371.499 19.9L373.099 22.8L374.599 23.8L375.299 25.6L377.199 28L378.499 31.3L379.499 32.2L379.399 33.9L375.499 34.5L373.499 36.7Z" fill="black"/>
<path fill-rule="evenodd" clip-rule="evenodd" d="M328.3 132.8L327.8 133.9L324.8 132.8L325.2 130.4L322.9 128.9L322.2 127.7L320.9 128.6L321.6 131L320 131.6L319.5 129.2L318.1 129L314.1 130.9L314.3 133.9L313.3 140L312.1 142.6L312.3 143.7L311.2 146.8L309 148.2L306.8 147.9L302.9 146.2L302.7 144.2L305 141.9L306.3 142.6L309.2 141.4L308.9 139.4L307.2 140.2L306.6 142L306.1 139.8L303.6 140.2L301.9 139.2L303.3 136.1L304.2 136.9L307.4 135L307.6 133.2L305.3 131.8L306.1 129.5L307.9 129.9L309.3 128.1L313.1 126.3L313.9 124.3L315.8 123.8L316.7 120.8L318.7 120.3L319.9 117.7L322.9 117.2L323.5 119.5L326.2 120.7L325.5 122.1L326.1 124L325.2 125.3L326.6 127L326.9 129.9L328.3 132.8Z" fill="black"/>
<path fill-rule="evenodd" clip-rule="evenodd" d="M615.2 109.7L616 110.2L620.2 110.3L620.4 112.1L623 115.8L624.8 117.2L627.1 117.5L629.7 116.2L630.8 121.1L629.4 124.1L630.1 125.9L631.7 125.8L633.5 127.8L633.3 129.3L631.5 130L629.7 132.1L628.1 132.3L627.3 134.9L628.9 136.5L629.4 138.9L630.8 140.2L627.9 140L627 141.8L628.9 150.7L630.3 152.7L629 155.3L627.6 155.4L628.2 157.9L625.6 158.7L626.2 152.4L624.8 150.9L622.8 151.3L621.4 148.4L623.6 146.2L622.5 144.3L618.5 145.4L614.6 148.7L613.8 147.8L614.8 145.5L613.2 144.3L612.1 145.9L609.5 144.3L609.9 142.3L607.8 140.8L605.8 142.9L605.1 146.7L602.3 145.6L603.3 144.6L603.4 142.8L601.4 141.1L603.9 138.9L603.3 135.5L604.7 133.4L602.9 131.7L600.5 131.3L599.5 132L599.6 133.7L598.7 135.6L598 130.6L596.6 130L594.5 131.2L595.2 133.7L594 134.4L592.2 132.3L590.2 133.6L589.8 136.6L587.6 137.1L585.9 135.3L581 134L578.3 131.2L574.1 128.7L572.9 127.5L571.3 124.6L570 124.4L565 128.3L565.1 129.1L561.5 132.3L560 133.1L559.4 134.7L555.8 135.3L551.9 133.9L551.2 132.5L552.4 131.1L551.3 128.4L548.2 126.4L547.1 127.5L546.7 131.1L547 133.3L548.6 136.7L547.5 137.3L548.1 141.3L547.3 142.6L544.7 140.7V138.2L546.1 137L546.5 135.1L544.6 132.3L544.4 130.8L543.1 130.2L541.8 131.6L540.5 129.9L538.4 129.3L536.8 129.8L536.1 131.8L536 134.6H532.5L532.2 135.7L530.1 134.7L528.2 136.9L528 138.4L530 140.4L529.3 142.1L527.5 142.6L525.6 141.9L525.3 138.9H523.4V137.4L525.3 134.6L523.7 133.1L521.9 134.7L521 136.5L518.6 137.9L517.2 137.2L515.8 138L514.5 135V133.1L517.3 132.4L519.9 130.8L521.1 129.4L520.4 127.2L518.7 125.5L514.6 128L513.2 128.1L512.6 129.7L511.1 130.2L509 122.4L511 121.5L512.5 121.6L512.3 120.1L511.1 120L509 121.3L507.6 120.5L506.1 122.2L504.6 121.5L506.2 120.1L505.3 117.4L505.4 115.9L507.2 116.5L510 115.6V113.3L511.8 114.6L512.9 113.8L511 111.8L509.6 111.3L507.8 112L506.3 110.8L505.9 107.8L507.5 107.5L510.1 105.6L515.4 103.5L516.8 101.5L520.2 101.3L520.9 99.9002L520.3 97.6002H518.3L518.2 96.1002L520.3 94.6002L520.6 91.7002L518.8 89.7002L520.5 88.7002L520.2 87.3002L521.3 86.6002L524 87.0002L524.5 89.5002L522.8 90.3002L522.5 91.5002L525.4 94.4002L529.9 95.7002L531.6 95.2002L533.3 92.9002L532.7 89.9002L530.9 88.4002L531.7 86.4002L532.8 86.0002L535.6 87.2002L537.5 86.1002L536.9 88.0002L539.6 88.8002L542.9 87.8002L545.9 84.6002L545.4 83.6002L547 82.4002L548.9 83.6002H550.8L550.5 85.1002L553.7 87.0002L558.5 86.6002L561 84.5002L563.2 83.4002L565.1 80.8002L565 80.0002L567.2 79.8002L568.6 80.7002L569.5 82.4002L571.3 82.9002L572.6 82.1002L574.7 78.7002L574.9 77.6002L573.4 77.0002L575 73.0002L575.1 71.1002L574.3 68.5002L572.7 67.3002L569.1 67.1002L568.2 66.4002L565.8 66.3002L564.5 64.0002V62.6002L566.8 60.4002L571.4 60.2002L577.2 60.7002L581.4 61.6002L583.4 62.8002H585.5L588.2 65.4002L587.7 67.0002L585.8 68.9002L583.3 68.3002L580.4 68.6002L580.2 70.0002L583.1 71.5002L586.2 71.6002L589 72.9002L592 72.6002L596.6 71.5002L597.9 72.8002L601 73.9002H603.9L604.8 73.1002L603.3 71.0002L604.5 66.9002L605.5 68.3002L609.2 68.9002L612.4 67.5002L615.4 67.8002L617.3 69.6002L621.2 71.2002L622.2 73.1002L622.4 75.6002L623.8 76.5002L626.5 74.6002L628.9 75.8002L630.7 74.7002L637.6 74.4002L640.7 75.7002L645.8 78.6002L646.4 83.0002L646.1 84.5002L651.3 87.6002L654.8 87.5002L655.8 92.2002L657 93.9002L661.4 93.4002L661.5 91.5002L662.7 90.1002L665.5 90.8002L666.7 92.6002L669.2 92.4002L668 95.7002L668.7 97.6002L669.8 98.0002L671.6 96.4002L673.7 96.2002L677.4 97.1002L677.9 98.5002L679.4 99.0002L678.4 100.6L679.5 103.5L677.6 103.3L675.5 104.9L676.1 107.7L677.5 109.2L678 111.5L675.4 110.4L675.2 108.9L673.9 107L672.5 107.1L671.2 108.3L669.6 112L669.2 115.8L667.5 116.9L662.3 116.5L661.2 113.7L657.2 114.2L660.9 110.2L662.3 107.8L661 104.7L662.6 102.7L662.5 101L660.4 99.1002L658.9 99.6002L657.3 98.4002L655.9 98.8002L654.9 97.2002L655.7 95.9002L653.4 95.0002L652.3 97.0002L651.5 94.7002L649.9 94.1002L646.7 95.2002L645.6 98.8002L642.5 101.2L641.9 103.5L640 104.9L639.4 102.6L640.8 101.6L640.4 99.8002L637.9 97.7002L639.5 96.7002L641.7 96.9002L640.8 95.4002L642.1 93.4002L643.7 92.6002L644.7 90.2002L644.1 89.7002L642.3 91.9002L638.9 93.5002L638.3 92.0002L641.6 90.7002L642.3 88.9002L640.9 87.9002L638.6 88.7002L637.9 87.1002L639 85.6002L641 85.2002L641.9 82.9002L641.4 82.2002L637.2 82.8002L636.4 85.1002L633.1 85.7002L631.8 86.5002L631.2 89.2002L630.3 85.2002L630.7 83.1002L627.6 83.5002L624.9 85.4002L624.7 87.8002L625.5 88.9002L623.5 93.2002L624.4 94.9002L625.7 94.8002L627.6 97.1002L626.8 100.7L623.5 103.1L621.2 103.5L619.4 102.2L618.8 96.7002L617.7 95.7002L616.5 97.4002L615.8 96.0002L617 94.6002L614.2 95.1002L612.4 94.4002L611.9 95.8002L610 96.3002L610.1 97.4002L612.8 102.2L613.9 102.8L613.6 104.6L614.3 108.1L615.2 109.7Z" fill="black"/>
<path fill-rule="evenodd" clip-rule="evenodd" d="M253.3 71.8996L255.5 73.0996L256.9 75.1996L258.7 75.5996L260.7 73.5996L259.8 70.4996L261.8 70.1996L263.1 67.6996L262.4 65.6996L263.6 64.2996L262.8 63.5996L264.5 61.1996L267.3 62.1996L267.8 61.4996L270.6 62.5996L272.7 62.6996L274.4 61.8996L275.1 60.3996L282.7 61.6996L285.4 60.5996L286.5 61.6996L290.8 63.2996L291.2 64.0996L294.8 65.6996L296.2 65.1996L296.6 63.5996L299.2 62.1996L300.6 64.3996L302.6 63.5996L303 61.8996L304.9 64.4996L307.1 65.2996L309.4 64.8996L310 65.5996L312.9 65.1996L314.4 62.8996L313.4 60.4996L313.6 57.5996L312.1 56.0996L313 55.5996L315.3 56.3996L317.2 60.4996L319.7 60.5996L321.7 63.1996L324.2 63.4996L325.7 64.9996L326 68.3996L328.4 71.5996L331.8 72.9996L333 74.2996L336.4 75.0996L337.8 76.7996L341.4 76.8996L343.4 78.7996L346.9 76.4996L350.6 70.4996L350.9 68.9996L347.2 64.4996L344.5 62.9996L342.4 60.7996L339.2 59.1996L332.9 53.8996L331.1 50.5996L326.3 46.5996H327.7L330.6 48.1996L332.1 50.2996L336.4 52.8996L339.8 53.6996L340.5 54.9996L342.7 55.1996L344.3 57.1996L345.6 56.9996L351.7 63.5996L355.6 64.3996L356.2 65.4996L359.6 66.6996L361.1 69.6996L367.8 69.2996L369.7 69.9996L373.7 70.0996L380.8 73.9996L382.5 76.2996L385.1 75.3996L384.9 77.3996L387.2 78.5996L387.8 77.5996L386.1 76.3996L385.3 74.6996L386.4 73.3996L389.1 73.6996L390.8 76.5996L391.7 79.9996L390.8 83.1996L391.8 84.3996L395.6 83.5996L395.4 82.4996L399.1 82.7996L399.3 83.5996L401.5 83.4996L404.2 84.3996L402.4 85.8996L403.7 87.2996L406.2 86.6996L407 89.3996L408.2 89.4996L410 87.7996L412.7 87.5996L415.6 89.2996L417.9 89.5996L419.5 91.2996L423.8 90.4996L424.3 91.9996L422.6 91.2996L419 94.5996L419.8 95.9996L423.2 96.3996L424.8 97.3996L426.8 97.2996L428 100.1L432.2 103.8L432.7 105.2L434.7 106.2L437.6 104.1L440.1 103.7L441.6 105.1L439.2 106L439.7 108.9L440.8 110.2L443.2 110.4L443.1 112.4L441.9 112.9L445.4 113.7L447.3 115.2L447.9 117.6L446.6 119.1L443.6 119.8L441.6 122.4L440 122.5L435.8 125.7L436.7 126.6L439.4 126L444 123.4L446.6 125.7L449.1 125.8L451.4 124.7L452 123.2L455.9 121.3H461.7L464.3 123.8L463.2 125.2L459.6 125.1L456.5 124L450.6 125.6L450.2 128L452.2 130.4L457.1 131.7L456.7 133.4L459.2 135.8L455.2 136.5L453.3 133.3L450.8 134.6L449.2 133.2L447.5 134.6L447.6 137.4L449.1 137.8L449.2 139.5L447 141.5L445.3 139.9L445.2 137.8L442.4 136.8L441.6 137.2L440.2 135.4L438.8 136.1L437.2 135.3L438.8 133.9L438.1 132.1L435.9 131.3L431.7 131.2L431.6 132.6L429.5 133L427.2 132.5L426.7 133.8L424.5 133.4L422.2 136.1L420.7 134.3L420.6 131.5L422.2 130.7L419.9 128.4L419.3 130.5L416.4 132.1L413.7 131.7L411.6 134.2L409.4 135.4L408.3 134.6L405.6 134.9L403.1 133.9L400.7 135.3L401.9 138.6L405.9 139.5L407.6 139.2L407.2 144.1L410.3 143.6V144.9L408.5 145.9L410.2 149.6L411.7 151L405.2 153.4L405.9 150.3L403.6 148.5L403.8 147L401.7 145.9L399.1 146.2L398.3 145.3L395.7 144.9L394.6 142.8L393.3 142.7L392.6 141L390.2 138.7L389.3 139.7L387.2 140.2L385.8 141.5L384.7 141.2L384.6 139.6H383L381.4 141.3L381.8 143.6L380 144L378.6 142.7L376.5 142.9L375.7 140.8L371.1 142.5L369.9 138.3L369 137.3L367.6 137.8L364.2 136.5L363.8 135.3L361.6 134.6L361 133.3L359.3 133.5L357.8 132.1L356.1 131.8L355.5 130.3L349.5 130.5L349.9 128.3L351.6 127.1L351 124.2L351.4 123.1L348.7 121.3L349.1 119L347.4 115.5L345.6 116.4L354.1 110.9L351.9 108L348.3 106.4L345.9 105.8L345.6 104.5L343.9 103.4L342.1 103.3L341.1 104.5L339.8 103L336 104.2L331.1 105L327.6 107.6L328.2 110.4L326.3 111.8L322.6 111.5L320.3 109.4L315.9 109.8L313.9 112.6L314.1 111.4L312.4 110.9L309.9 114.7H313.2L312.5 115.4H309.3L309.2 119L307.2 120.6L303.7 119.6L302.3 117L303.1 114.3L301.6 113.7L300.7 120.2L300.8 123.4L300.1 124.3L297 123.8L296.1 120.6L298.2 115.2L297.7 113.1L298.5 111.1L295.1 109H293L290.8 110.4L291 114.4L289.6 114.9L287.9 118L285.6 112.1L284 109.7L274.1 110L272.7 108.7L272.9 106.9L279.8 106.6L280.2 105.6L284.1 105.5L281.8 104L282.1 101L279.9 97.0996L276.3 95.9996L272.5 95.5996L271.4 96.7996L270.7 95.5996V92.8996L267.6 90.2996L262.6 88.7996L258.2 88.6996L253.3 93.8996L252.3 93.9996L250.7 95.7996L249.5 95.4996L246.2 97.1996L244.6 96.5996L242.6 97.8996L240.7 98.0996L238.4 100.8L236.2 99.6996L234.8 96.5996L232.9 96.7996L231.9 98.4996L230.5 98.9996L226.8 97.9996L225.3 98.8996L224.7 102.1L221.7 101.6L219.2 102.3L216.7 100.5L214.6 96.9996L213.2 95.6996L211.3 95.1996L210.4 95.8996L206.9 92.2996L205.3 91.3996L202 88.4996L201.4 86.8996L200 87.2996L200.4 84.6996L202.2 84.3996L201.3 85.9996L203 86.4996L207.8 86.9996L209.8 85.8996L209 83.6996L210.9 83.4996L212.7 80.1996L210.9 76.9996L212.5 76.5996L217.7 77.1996L218.3 74.5996L227.6 75.1996L229.1 76.7996L230.3 75.5996L235.5 74.4996L237.7 75.1996L239.6 73.1996L243.8 73.7996L245.6 71.0996V68.9996L243.9 66.4996H246.3L247.5 68.0996L249.7 69.2996L252.1 69.0996L253.7 70.8996L253.3 71.8996Z" fill="black"/>
</svg>
